<?xml version="1.0" encoding="UTF-8"?>
<svg width="64px" height="64px" viewBox="0 0 64 64" version="1.1" xmlns="http://www.w3.org/2000/svg" xmlns:xlink="http://www.w3.org/1999/xlink">
    <title>Icon-Architecture/48/Arch_AWS-Cloud-WAN_48</title>
    <g id="Icon-Architecture/48/Arch_AWS-Cloud-WAN_48" stroke="none" stroke-width="1" fill="none" fill-rule="evenodd">
        <g id="Icon-Architecture-BG/48/Networking-Content-Delivery" fill="#8C4FFF">
            <rect id="Rectangle" x="0" y="0" width="64" height="64"></rect>
        </g>
        <path d="M52,32 C52,30.346 50.654,29 49,29 C47.346,29 46,30.346 46,32 C46,33.654 47.346,35 49,35 C50.654,35 52,33.654 52,32 L52,32 Z M41.082,39.821 C40.274,39.42 39.365,39.075 38.368,38.8 C37.886,40.505 37.223,41.976 36.43,43.142 C38.239,42.42 39.83,41.273 41.082,39.821 L41.082,39.821 Z M32,46 C30.346,46 29,47.346 29,49 C29,50.654 30.346,52 32,52 C33.654,52 35,50.654 35,49 C35,47.346 33.654,46 32,46 L32,46 Z M27.57,43.142 C26.777,41.975 26.114,40.505 25.632,38.799 C24.634,39.074 23.725,39.419 22.917,39.819 C24.169,41.272 25.761,42.42 27.57,43.142 L27.57,43.142 Z M18,32 C18,30.346 16.654,29 15,29 C13.346,29 12,30.346 12,32 C12,33.654 13.346,35 15,35 C16.654,35 18,33.654 18,32 L18,32 Z M23.124,23.952 C23.906,24.322 24.78,24.637 25.728,24.894 C26.2,23.32 26.826,21.953 27.57,20.858 C25.858,21.541 24.344,22.609 23.124,23.952 L23.124,23.952 Z M32,18 C33.654,18 35,16.654 35,15 C35,13.346 33.654,12 32,12 C30.346,12 29,13.346 29,15 C29,16.654 30.346,18 32,18 L32,18 Z M36.43,20.858 C37.174,21.953 37.8,23.32 38.272,24.894 C39.22,24.638 40.094,24.322 40.876,23.953 C39.656,22.609 38.143,21.541 36.43,20.858 L36.43,20.858 Z M38.812,36.855 C40.09,37.202 41.255,37.647 42.268,38.179 C43.197,36.641 43.793,34.884 43.949,33 L39.229,33 C39.181,34.353 39.038,35.644 38.812,36.855 L38.812,36.855 Z M20.051,33 C20.207,34.884 20.803,36.64 21.732,38.178 C22.744,37.646 23.91,37.201 25.188,36.855 C24.962,35.643 24.819,34.353 24.771,33 L20.051,33 Z M25.246,26.829 C24.01,26.497 22.879,26.074 21.886,25.568 C20.868,27.164 20.216,29.012 20.051,31 L24.771,31 C24.823,29.53 24.986,28.13 25.246,26.829 L25.246,26.829 Z M43.949,31 C43.784,29.012 43.132,27.164 42.114,25.568 C41.121,26.073 39.99,26.497 38.754,26.829 C39.014,28.13 39.177,29.53 39.229,31 L43.949,31 Z M27.196,27.261 C26.969,28.406 26.821,29.66 26.771,31 L37.229,31 C37.179,29.66 37.031,28.406 36.804,27.26 C35.28,27.532 33.66,27.682 32,27.682 C30.34,27.682 28.72,27.532 27.196,27.261 L27.196,27.261 Z M27.687,25.321 C29.051,25.554 30.505,25.682 32,25.682 C33.495,25.682 34.949,25.554 36.313,25.321 C35.29,22.02 33.589,20 32,20 C30.411,20 28.71,22.02 27.687,25.321 L27.687,25.321 Z M36.86,36.42 C37.055,35.361 37.184,34.218 37.229,33 L26.771,33 C26.816,34.218 26.945,35.36 27.14,36.419 C28.679,36.142 30.318,35.987 31.998,35.987 C33.679,35.987 35.319,36.142 36.86,36.42 L36.86,36.42 Z M36.405,38.366 C35.014,38.122 33.528,37.987 31.998,37.987 C30.469,37.987 28.985,38.122 27.595,38.365 C28.605,41.85 30.362,44 32,44 C33.638,44 35.394,41.85 36.405,38.366 L36.405,38.366 Z M54,32 C54,34.757 51.757,37 49,37 C47.646,37 46.421,36.455 45.519,35.578 C44.235,40.422 40.422,44.235 35.578,45.519 C36.455,46.421 37,47.646 37,49 C37,51.757 34.757,54 32,54 C29.243,54 27,51.757 27,49 C27,47.646 27.545,46.421 28.422,45.519 C23.578,44.235 19.765,40.422 18.481,35.578 C17.579,36.455 16.354,37 15,37 C12.243,37 10,34.757 10,32 C10,29.243 12.243,27 15,27 C16.354,27 17.579,27.545 18.481,28.422 C19.765,23.578 23.578,19.765 28.422,18.481 C27.545,17.579 27,16.354 27,15 C27,12.243 29.243,10 32,10 C34.757,10 37,12.243 37,15 C37,16.354 36.455,17.579 35.578,18.481 C40.422,19.765 44.235,23.578 45.519,28.422 C46.421,27.545 47.646,27 49,27 C51.757,27 54,29.243 54,32 L54,32 Z M47.345,39.31 C45.667,42.817 42.817,45.667 39.31,47.345 C39.431,47.878 39.5,48.431 39.5,49 C39.5,49.154 39.486,49.305 39.477,49.457 C43.943,47.535 47.535,43.943 49.457,39.477 C49.305,39.486 49.154,39.5 49,39.5 C48.431,39.5 47.878,39.431 47.345,39.31 L47.345,39.31 Z M24.69,47.345 C21.183,45.667 18.333,42.817 16.655,39.31 C16.122,39.431 15.569,39.5 15,39.5 C14.846,39.5 14.695,39.486 14.543,39.477 C16.465,43.943 20.057,47.535 24.523,49.456 C24.514,49.305 24.5,49.154 24.5,49 C24.5,48.431 24.569,47.878 24.69,47.345 L24.69,47.345 Z M16.655,24.69 C18.333,21.183 21.183,18.333 24.69,16.655 C24.569,16.122 24.5,15.569 24.5,15 C24.5,14.846 24.514,14.695 24.523,14.544 C20.057,16.465 16.465,20.057 14.543,24.523 C14.695,24.514 14.846,24.5 15,24.5 C15.569,24.5 16.122,24.569 16.655,24.69 L16.655,24.69 Z M39.5,15 C39.5,14.846 39.486,14.695 39.477,14.543 C43.943,16.465 47.535,20.057 49.457,24.523 C49.305,24.514 49.154,24.5 49,24.5 C48.431,24.5 47.878,24.569 47.345,24.69 C45.667,21.183 42.817,18.333 39.31,16.655 C39.431,16.122 39.5,15.569 39.5,15 L39.5,15 Z" id="Fill-4" fill="#FFFFFF"></path>
    </g>
</svg>