<?xml version="1.0" encoding="UTF-8"?>
<svg width="64px" height="64px" viewBox="0 0 64 64" version="1.1" xmlns="http://www.w3.org/2000/svg" xmlns:xlink="http://www.w3.org/1999/xlink">
    <title>Icon-Architecture/48/Arch_Amazon-VPC-Lattice_48</title>
    <g id="Icon-Architecture/48/Arch_Amazon-VPC-Lattice_48" stroke="none" stroke-width="1" fill="none" fill-rule="evenodd">
        <g id="Icon-Architecture-BG/48/Networking-Content-Delivery" fill="#8C4FFF">
            <rect id="Rectangle" x="0" y="0" width="64" height="64"></rect>
        </g>
        <path d="M32.01,46 C21.144,46 21.019,35.558 21.019,35.113 L21.019,22.22 L32.01,18.069 L43,22.22 L43,35.113 C43,37.667 42.207,46 32.01,46 L32.01,46 Z M12,17 L17,17 L17,12 L12,12 L12,17 Z M47,17 L52,17 L52,12 L47,12 L47,17 Z M47,52 L52,52 L52,47 L47,47 L47,52 Z M12,52 L17,52 L17,47 L12,47 L12,52 Z M53,19 C53.553,19 54,18.552 54,18 L54,11 C54,10.448 53.553,10 53,10 L46,10 C45.448,10 45,10.448 45,11 L45,17.586 L42.64,19.946 L32.364,16.064 C32.135,15.979 31.885,15.979 31.656,16.064 L21.365,19.951 L19,17.586 L19,11 C19,10.448 18.553,10 18,10 L11,10 C10.448,10 10,10.448 10,11 L10,18 C10,18.552 10.448,19 11,19 L17.586,19 L19.366,20.779 C19.153,20.966 19.019,21.234 19.019,21.528 L19.019,35.113 C19.019,36.96 19.497,39.484 20.774,41.813 L17.586,45 L11,45 C10.448,45 10,45.448 10,46 L10,53 C10,53.552 10.448,54 11,54 L18,54 C18.553,54 19,53.552 19,53 L19,46.414 L21.898,43.516 C23.881,46.04 27.063,48 32.01,48 C37.26,48 40.389,46.063 42.257,43.671 L45,46.414 L45,53 C45,53.552 45.448,54 46,54 L53,54 C53.553,54 54,53.552 54,53 L54,46 C54,45.448 53.553,45 53,45 L46.414,45 L43.365,41.951 C44.855,39.116 45,36.139 45,35.113 L45,21.528 C45,21.229 44.864,20.956 44.644,20.77 L46.414,19 L53,19 Z M39,35.113 C39,39.397 37.02,41.62 33.01,41.936 L33.01,22.722 L39,24.985 L39,35.113 Z M25.019,35.113 L25.019,24.985 L31.01,22.722 L31.01,41.948 C25.477,41.43 25.019,36.641 25.019,35.113 L25.019,35.113 Z M40.354,23.358 L32.364,20.34 C32.135,20.254 31.885,20.254 31.656,20.34 L23.665,23.358 C23.277,23.505 23.019,23.877 23.019,24.293 L23.019,35.113 C23.019,39.213 25.373,44 32.01,44 C37.808,44 41,40.844 41,35.113 L41,24.293 C41,23.877 40.742,23.505 40.354,23.358 L40.354,23.358 Z" id="Fill-6" fill="#FFFFFF"></path>
    </g>
</svg>