<svg width="64" height="64" viewBox="0 0 64 64" fill="none" xmlns="http://www.w3.org/2000/svg">
<g clip-path="url(#clip0_20_132)">
<rect width="64" height="64" fill="#8C4FFF"/>
<path d="M53.9668 33.2587C53.9668 37.3393 51.7607 39.4374 49.9102 40.4789L48.9297 38.7358C50.9453 37.6015 51.9668 35.7587 51.9668 33.2587C51.9668 28.2895 47.7119 27.0302 45.8818 26.7192C45.3447 26.6279 44.9795 26.123 45.0615 25.5839C45.0625 23.4438 44.1475 21.8749 42.5518 21.3447C41.1211 20.8681 39.542 21.374 38.625 22.6025C38.4043 22.8969 38.044 23.0512 37.6758 22.9926C37.3115 22.9379 37.0068 22.6869 36.8828 22.3403C36.2559 20.5859 35.3486 19.1117 34.1855 17.9584C32.7607 16.5434 28.8428 13.5033 23.3223 15.8168C20.1377 17.1503 17.6435 20.9902 17.6435 24.559L17.7197 25.8066C17.749 26.2856 17.4326 26.7177 16.9668 26.8354C15.0996 27.3085 11.9668 28.7631 11.9668 33.1948C11.9668 35.0781 12.5566 36.6874 13.7197 37.9775C14.1816 38.4911 14.7246 38.9428 15.332 39.3207L14.2754 41.019C13.5088 40.5419 12.8213 39.9692 12.2334 39.3163C10.7295 37.6479 9.96679 35.5883 9.96679 33.1948C9.96679 27.9096 13.4971 25.8823 15.6758 25.1352L15.6455 24.6186C15.6436 20.1718 18.6123 15.6205 22.5488 13.9721C27.1562 12.0439 32.0303 13.0034 35.5937 16.5385C36.6396 17.5751 37.5068 18.8198 38.1816 20.2509C39.6006 19.2016 41.459 18.873 43.1826 19.4467C45.415 20.1884 46.8213 22.207 47.0342 24.9164C50.5225 25.7709 53.9668 28.3383 53.9668 33.2587ZM44.9668 34.9872V40.9872H42.9668V35.9872H31.6157C31.0517 37.1654 29.8577 37.9872 28.4668 37.9872C27.0759 37.9872 25.8819 37.1654 25.3179 35.9872H18.9668V33.9872H25.0173C25.126 33.2381 25.4613 32.563 25.9668 32.0455V26.9872C25.9668 26.435 26.4141 25.9872 26.9668 25.9872H35.9668C36.5195 25.9872 36.9668 26.435 36.9668 26.9872V32.9872H34.9668V27.9872H27.9668V31.0378C28.1315 31.0139 28.2956 30.9872 28.4668 30.9872C30.2253 30.9872 31.671 32.2956 31.9163 33.9872H43.9668C44.5195 33.9872 44.9668 34.435 44.9668 34.9872ZM29.9668 34.4872C29.9668 33.6601 29.2939 32.9872 28.4668 32.9872C27.6396 32.9872 26.9668 33.6601 26.9668 34.4872C26.9668 35.3144 27.6396 35.9872 28.4668 35.9872C29.2939 35.9872 29.9668 35.3144 29.9668 34.4872ZM39.9163 42.9872H44.9668V44.9872H39.6157C39.1212 46.0204 38.1401 46.7666 36.9668 46.9367V50.9872C36.9668 51.5395 36.5195 51.9872 35.9668 51.9872H26.9668C26.4141 51.9872 25.9668 51.5395 25.9668 50.9872V44.9872H19.9668C19.4141 44.9872 18.9668 44.5395 18.9668 43.9872V37.9872H20.9668V42.9872H33.0173C33.2626 41.2956 34.7083 39.9872 36.4668 39.9872C38.2253 39.9872 39.671 41.2956 39.9163 42.9872ZM34.9668 49.9872V46.6362C34.2451 46.2906 33.6634 45.709 33.3179 44.9872H27.9668V49.9872H34.9668ZM37.9668 43.4872C37.9668 42.6601 37.2939 41.9872 36.4668 41.9872C35.6396 41.9872 34.9668 42.6601 34.9668 43.4872C34.9668 44.3144 35.6396 44.9872 36.4668 44.9872C37.2939 44.9872 37.9668 44.3144 37.9668 43.4872Z" fill="white"/>
</g>
<defs>
<clipPath id="clip0_20_132">
<rect width="64" height="64" fill="white"/>
</clipPath>
</defs>
</svg>
