<?xml version="1.0" encoding="UTF-8"?>
<svg width="64px" height="64px" viewBox="0 0 64 64" version="1.1" xmlns="http://www.w3.org/2000/svg" xmlns:xlink="http://www.w3.org/1999/xlink">
    <title>Icon-Architecture/48/Arch_AWS-Verified-Access_48</title>
    <g id="Icon-Architecture/48/Arch_AWS-Verified-Access_48" stroke="none" stroke-width="1" fill="none" fill-rule="evenodd">
        <g id="Icon-Architecture-BG/48/Networking-Content-Delivery" fill="#8C4FFF">
            <rect id="Rectangle" x="0" y="0" width="64" height="64"></rect>
        </g>
        <path d="M26.0246232,48.292 L25.3586232,50.178 C20.2266232,48.363 16.1136232,44.425 14.0736232,39.375 L15.9266232,38.626 C17.7536232,43.145 21.4336232,46.668 26.0246232,48.292 L26.0246232,48.292 Z M48.3316232,38.626 L50.1846232,39.375 C48.1446232,44.425 44.0306232,48.363 38.8986232,50.178 L38.2326232,48.292 C42.8236232,46.668 46.5046232,43.145 48.3316232,38.626 L48.3316232,38.626 Z M15.9266232,26.144 L14.0736232,25.395 C16.1146232,20.344 20.2276232,16.407 25.3586232,14.592 L26.0246232,16.478 C21.4336232,18.101 17.7536232,21.625 15.9266232,26.144 L15.9266232,26.144 Z M38.2326232,16.478 L38.8986232,14.592 C44.0306232,16.407 48.1436232,20.344 50.1846232,25.395 L48.3316232,26.144 C46.5036232,21.625 42.8236232,18.101 38.2326232,16.478 L38.2326232,16.478 Z M32.0006232,12 C33.1026232,12 34.0006232,12.897 34.0006232,14 C34.0006232,15.104 33.1026232,16 32.0006232,16 C30.8976232,16 30.0006232,15.104 30.0006232,14 C30.0006232,12.897 30.8976232,12 32.0006232,12 L32.0006232,12 Z M32.0006232,18 C34.2066232,18 36.0006232,16.206 36.0006232,14 C36.0006232,11.795 34.2066232,10 32.0006232,10 C29.7946232,10 28.0006232,11.795 28.0006232,14 C28.0006232,16.206 29.7946232,18 32.0006232,18 L32.0006232,18 Z M33.2796232,51.538 C32.8686232,51.88 32.3456232,52.037 31.8176232,51.992 C31.2866232,51.943 30.8046232,51.69 30.4626232,51.28 C29.7576232,50.432 29.8736232,49.168 30.7206232,48.463 C31.0836232,48.162 31.5306232,48 31.9966232,48 C32.0586232,48 32.1206232,48.003 32.1826232,48.009 C32.7136232,48.058 33.1956232,48.311 33.5376232,48.721 C34.2426232,49.569 34.1276232,50.833 33.2796232,51.538 L33.2796232,51.538 Z M32.3656232,46.017 C31.2906232,45.922 30.2616232,46.243 29.4416232,46.926 C28.6206232,47.609 28.1146232,48.572 28.0166232,49.636 C27.9206232,50.7 28.2426232,51.738 28.9256232,52.559 C29.6096232,53.38 30.5716232,53.886 31.6346232,53.984 C31.7596232,53.995 31.8836232,54 32.0066232,54 C32.9396232,54 33.8346232,53.678 34.5586232,53.075 C35.3796232,52.392 35.8856232,51.429 35.9836232,50.365 C36.0806232,49.301 35.7576232,48.263 35.0746232,47.442 C34.3906232,46.621 33.4286232,46.115 32.3656232,46.017 L32.3656232,46.017 Z M50.0006232,34 C48.8976232,34 48.0006232,33.104 48.0006232,32 C48.0006232,30.897 48.8976232,30 50.0006232,30 C51.1026232,30 52.0006232,30.897 52.0006232,32 C52.0006232,33.104 51.1026232,34 50.0006232,34 L50.0006232,34 Z M50.0006232,28 C47.7946232,28 46.0006232,29.795 46.0006232,32 C46.0006232,34.206 47.7946232,36 50.0006232,36 C52.2066232,36 54.0006232,34.206 54.0006232,32 C54.0006232,29.795 52.2066232,28 50.0006232,28 L50.0006232,28 Z M15.2796232,33.538 C14.8686232,33.88 14.3446232,34.037 13.8176232,33.992 C13.2866232,33.943 12.8046232,33.69 12.4626232,33.28 C11.7576232,32.432 11.8736232,31.168 12.7206232,30.463 C13.0836232,30.162 13.5306232,30 13.9966232,30 C14.0586232,30 14.1206232,30.003 14.1826232,30.009 C14.7136232,30.058 15.1956232,30.311 15.5376232,30.721 C16.2426232,31.569 16.1276232,32.833 15.2796232,33.538 L15.2796232,33.538 Z M17.9836232,32.365 C18.0806232,31.301 17.7576232,30.263 17.0746232,29.442 C16.3906232,28.621 15.4286232,28.115 14.3656232,28.017 C13.2956232,27.921 12.2626232,28.243 11.4416232,28.926 C10.6206232,29.609 10.1146232,30.572 10.0166232,31.636 C9.92062323,32.7 10.2426232,33.738 10.9256232,34.559 C11.6096232,35.38 12.5716232,35.886 13.6346232,35.984 C13.7596232,35.995 13.8836232,36 14.0066232,36 C14.9396232,36 15.8346232,35.678 16.5586232,35.075 C17.3796232,34.392 17.8856232,33.429 17.9836232,32.365 L17.9836232,32.365 Z M30.4336232,38.332 L26.8956232,35.002 L28.2666232,33.546 L30.5236232,35.669 L35.9266232,31.228 L37.1966232,32.773 L30.4336232,38.332 Z M30.4046232,23 L33.5956232,23 C34.9216232,23 36.0006232,23.834 36.0006232,24.858 L36.0006232,27 L28.0006232,27 L28.0006232,24.858 C28.0006232,23.834 29.0786232,23 30.4046232,23 L30.4046232,23 Z M24.0006232,41 L40.0006232,41 L40.0006232,29 L24.0006232,29 L24.0006232,41 Z M26.0006232,27 L23.5546232,27 C22.6976232,27 22.0006232,27.698 22.0006232,28.555 L22.0006232,41.446 C22.0006232,42.303 22.6976232,43 23.5546232,43 L40.4456232,43 C41.3026232,43 42.0006232,42.303 42.0006232,41.446 L42.0006232,28.555 C42.0006232,27.698 41.3026232,27 40.4456232,27 L38.0006232,27 L38.0006232,24.858 C38.0006232,22.731 36.0246232,21 33.5956232,21 L30.4046232,21 C27.9756232,21 26.0006232,22.731 26.0006232,24.858 L26.0006232,27 Z" id="Fill-1" fill="#FFFFFF"></path>
    </g>
</svg>