<svg width="64" height="64" viewBox="0 0 64 64" fill="none" xmlns="http://www.w3.org/2000/svg">
<g id="Icon-Architecture/48/Arch_Amazon-API-Gateway_48">
<g id="Icon-Architecture-BG/48/Networking-Content-Delivery">
<rect id="Rectangle" width="64" height="64" fill="#8C4FFF"/>
</g>
<g id="Icon-Service/48/Amazon-API-Gateway_48">
<path id="Amazon-API-Gateway_Icon_48_Squid" fill-rule="evenodd" clip-rule="evenodd" d="M28 43.9999H31V41.9999H28V43.9999ZM33 43.9999H36V41.9999H33V43.9999ZM28 21.9998H31V19.9998H28V21.9998ZM33 21.9998H36V19.9998H33V21.9998ZM22 12.7408L12 18.5738V46.382L22 51.382V12.7408ZM24 19.9998H26V21.9998H24V41.9999H26V43.9999H24V53C24 53.347 23.82 53.668 23.525 53.851C23.365 53.95 23.183 54 23 54C22.847 54 22.694 53.965 22.553 53.895L10.553 47.895C10.214 47.725 10 47.379 10 47V17.9998C10 17.6448 10.188 17.3148 10.496 17.1358L22.496 10.1358C22.805 9.95575 23.188 9.95475 23.498 10.1328C23.809 10.3108 24 10.6418 24 10.9998V19.9998ZM52 18.5738L42 12.7408V51.382L52 46.382V18.5738ZM54 17.9998V47C54 47.379 53.786 47.725 53.447 47.895L41.447 53.895C41.306 53.965 41.153 54 41 54C40.817 54 40.635 53.95 40.475 53.851C40.18 53.668 40 53.347 40 53V43.9999H38V41.9999H40V21.9998H38V19.9998H40V10.9998C40 10.6418 40.191 10.3108 40.502 10.1328C40.812 9.95575 41.195 9.95575 41.504 10.1358L53.504 17.1358C53.812 17.3148 54 17.6448 54 17.9998ZM34.939 27.3419L33.061 26.6578L29.061 37.6579L30.939 38.3419L34.939 27.3419ZM39.707 32.7069C40.098 32.3159 40.098 31.6839 39.707 31.2929L36.707 28.2929L35.293 29.7069L37.586 31.9999L35.293 34.2929L36.707 35.7069L39.707 32.7069ZM27.293 35.7069L24.293 32.7069C23.902 32.3159 23.902 31.6839 24.293 31.2929L27.293 28.2929L28.707 29.7069L26.414 31.9999L28.707 34.2929L27.293 35.7069Z" fill="white"/>
</g>
</g>
</svg>
