<?xml version="1.0" encoding="UTF-8"?>
<svg width="64px" height="64px" viewBox="0 0 64 64" version="1.1" xmlns="http://www.w3.org/2000/svg" xmlns:xlink="http://www.w3.org/1999/xlink">
    <title>Icon-Architecture/48/Arch_AWS-Private-5G_48</title>
    <g id="Icon-Architecture/48/Arch_AWS-Private-5G_48" stroke="none" stroke-width="1" fill="none" fill-rule="evenodd">
        <g id="Icon-Architecture-BG/48/Networking-Content-Delivery" fill="#8C4FFF">
            <rect id="Rectangle" x="0" y="0" width="64" height="64"></rect>
        </g>
        <path d="M26.437,15.23 L19.451,9.92 L18.24,11.512 L25.226,16.822 L26.437,15.23 Z M44.875,11.492 L43.665,9.9 L36.678,15.21 L37.889,16.802 L44.875,11.492 Z M33,48.019 L36,48.019 L36,45.019 L33,45.019 L33,48.019 Z M28,48.019 L31,48.019 L31,45.019 L28,45.019 L28,48.019 Z M33,43.019 L36,43.019 L36,40.019 L33,40.019 L33,43.019 Z M28,43.019 L31,43.019 L31,40.019 L28,40.019 L28,43.019 Z M51.978,49.071 C51.65,48.438 48.361,46.951 40,46.138 L40,51.721 C47.272,51.151 51.454,49.889 51.978,49.071 L51.978,49.071 Z M38,37.019 L26,37.019 L26,51.855 C27.838,51.957 29.834,52.019 32,52.019 C34.167,52.019 36.163,51.957 38,51.854 L38,37.019 Z M24,35.019 L31,35.019 L31,30.539 C21.401,30.985 13.669,37.707 12.247,46.6 C14.941,45.292 19.639,44.564 24,44.159 L24,35.019 Z M24,46.17 C15.608,46.973 12.32,48.467 12.012,49.12 C12.439,49.876 16.641,51.149 24,51.722 L24,46.17 Z M31.891,21.519 C33.27,21.519 34.391,20.397 34.391,19.019 C34.391,17.641 33.27,16.519 31.891,16.519 C30.512,16.519 29.391,17.641 29.391,19.019 C29.391,20.397 30.512,21.519 31.891,21.519 L31.891,21.519 Z M33,30.541 L33,35.019 L40,35.019 L40,44.126 C44.336,44.536 48.962,45.263 51.663,46.546 C49.969,37.804 42.178,31.005 33,30.541 L33,30.541 Z M53.992,49.058 C53.993,49.074 54,49.09 54,49.107 C54,53.881 34.252,54.019 32,54.019 C29.749,54.019 10,53.881 10,49.107 C10,49.067 10.017,49.032 10.019,48.993 L10,48.992 C10.3,37.823 19.444,29.03 31,28.539 L31,23.429 C28.944,23.014 27.391,21.196 27.391,19.019 C27.391,16.538 29.41,14.519 31.891,14.519 C34.373,14.519 36.391,16.538 36.391,19.019 C36.391,21.116 34.944,22.867 33,23.364 L33,28.541 C44.126,29.053 53.45,38.045 53.999,49.057 L53.992,49.058 Z M44.875,27.181 L37.889,21.871 L36.678,23.464 L43.665,28.773 L44.875,27.181 Z M39,21.019 L50,21.019 L50,19.019 L39,19.019 L39,21.019 Z M18.24,27.2 L19.451,28.793 L26.437,23.483 L25.226,21.891 L18.24,27.2 Z M14,21.019 L25,21.019 L25,19.019 L14,19.019 L14,21.019 Z" id="Fill-3" fill="#FFFFFF"></path>
    </g>
</svg>