<?xml version="1.0" encoding="UTF-8"?>
<svg width="24px" height="24px" viewBox="0 0 24 24" version="1.1" xmlns="http://www.w3.org/2000/svg" xmlns:xlink="http://www.w3.org/1999/xlink">
    <title>Icon-Architecture/16/Arch_AWS-Application-Composer_16</title>
    <g id="Icon-Architecture/16/Arch_AWS-Application-Composer_16" stroke="none" stroke-width="1" fill="none" fill-rule="evenodd">
        <g id="Icon-Architecture-BG/16/Developer-Tools" fill="#C925D1">
            <rect id="Rectangle" x="0" y="0" width="24" height="24"></rect>
        </g>
        <path d="M18,18.5 C17.448,18.5 17,18.051 17,17.5 C17,16.949 17.448,16.5 18,16.5 C18.552,16.5 19,16.949 19,17.5 C19,18.051 18.552,18.5 18,18.5 M12.707,18.207 C12.316,18.597 11.684,18.597 11.293,18.207 C11.104,18.018 11,17.767 11,17.5 C11,17.233 11.104,16.982 11.293,16.793 C11.488,16.598 11.744,16.5 12,16.5 C12.256,16.5 12.512,16.598 12.707,16.793 C12.896,16.982 13,17.233 13,17.5 C13,17.767 12.896,18.018 12.707,18.207 M5.293,12.707 C5.104,12.518 5,12.267 5,12 C5,11.733 5.104,11.482 5.293,11.293 C5.488,11.098 5.744,11 6,11 C6.256,11 6.512,11.098 6.707,11.293 C6.896,11.482 7,11.733 7,12 C7,12.267 6.896,12.518 6.707,12.707 C6.316,13.097 5.684,13.097 5.293,12.707 M11.293,5.793 C11.488,5.598 11.744,5.5 12,5.5 C12.256,5.5 12.512,5.598 12.707,5.793 C12.896,5.982 13,6.233 13,6.5 C13,6.767 12.896,7.018 12.707,7.207 C12.316,7.597 11.684,7.597 11.293,7.207 C11.104,7.018 11,6.767 11,6.5 C11,6.233 11.104,5.982 11.293,5.793 M18,5.5 C18.552,5.5 19,5.949 19,6.5 C19,7.051 18.552,7.5 18,7.5 C17.448,7.5 17,7.051 17,6.5 C17,5.949 17.448,5.5 18,5.5 M18,15.5 C17.071,15.5 16.295,16.14 16.071,17 L13.929,17 C13.841,16.658 13.67,16.342 13.414,16.086 C12.736,15.407 11.686,15.32 10.911,15.823 L7.759,12.934 C7.911,12.648 8,12.333 8,12 C8,11.667 7.911,11.352 7.759,11.066 L10.911,8.176 C11.241,8.391 11.621,8.499 12,8.499 C12.512,8.499 13.024,8.304 13.414,7.914 C13.67,7.658 13.841,7.342 13.929,7 L16.071,7 C16.295,7.86 17.071,8.5 18,8.5 C19.103,8.5 20,7.603 20,6.5 C20,5.397 19.103,4.5 18,4.5 C17.071,4.5 16.295,5.14 16.071,6 L13.929,6 C13.841,5.658 13.67,5.342 13.414,5.086 C12.635,4.306 11.365,4.306 10.586,5.086 C10.208,5.463 10,5.966 10,6.5 C10,6.833 10.089,7.148 10.241,7.434 L7.089,10.323 C6.314,9.82 5.264,9.907 4.586,10.586 C4.208,10.963 4,11.466 4,12 C4,12.534 4.208,13.037 4.586,13.414 C4.976,13.804 5.488,13.999 6,13.999 C6.379,13.999 6.759,13.891 7.089,13.676 L10.241,16.566 C10.089,16.852 10,17.167 10,17.5 C10,18.034 10.208,18.537 10.586,18.914 C10.976,19.304 11.488,19.499 12,19.499 C12.512,19.499 13.024,19.304 13.414,18.914 C13.67,18.658 13.841,18.342 13.929,18 L16.071,18 C16.295,18.86 17.071,19.5 18,19.5 C19.103,19.5 20,18.603 20,17.5 C20,16.397 19.103,15.5 18,15.5 M6,18 C5.725,18 5.5,17.776 5.5,17.5 C5.5,17.224 5.725,17 6,17 C6.275,17 6.5,17.224 6.5,17.5 C6.5,17.776 6.275,18 6,18 M6,16 C5.173,16 4.5,16.673 4.5,17.5 C4.5,18.327 5.173,19 6,19 C6.827,19 7.5,18.327 7.5,17.5 C7.5,16.673 6.827,16 6,16 M18,12.5 C17.725,12.5 17.5,12.276 17.5,12 C17.5,11.724 17.725,11.5 18,11.5 C18.275,11.5 18.5,11.724 18.5,12 C18.5,12.276 18.275,12.5 18,12.5 M18,10.5 C17.173,10.5 16.5,11.173 16.5,12 C16.5,12.827 17.173,13.5 18,13.5 C18.827,13.5 19.5,12.827 19.5,12 C19.5,11.173 18.827,10.5 18,10.5 M12,12.5 C11.725,12.5 11.5,12.276 11.5,12 C11.5,11.724 11.725,11.5 12,11.5 C12.275,11.5 12.5,11.724 12.5,12 C12.5,12.276 12.275,12.5 12,12.5 M12,10.5 C11.173,10.5 10.5,11.173 10.5,12 C10.5,12.827 11.173,13.5 12,13.5 C12.827,13.5 13.5,12.827 13.5,12 C13.5,11.173 12.827,10.5 12,10.5 M6,6 C6.275,6 6.5,6.224 6.5,6.5 C6.5,6.776 6.275,7 6,7 C5.725,7 5.5,6.776 5.5,6.5 C5.5,6.224 5.725,6 6,6 M6,8 C6.827,8 7.5,7.327 7.5,6.5 C7.5,5.673 6.827,5 6,5 C5.173,5 4.5,5.673 4.5,6.5 C4.5,7.327 5.173,8 6,8" id="Fill-7" fill="#FFFFFF"></path>
    </g>
</svg>