<?xml version="1.0" encoding="UTF-8"?>
<svg width="24px" height="24px" viewBox="0 0 24 24" version="1.1" xmlns="http://www.w3.org/2000/svg" xmlns:xlink="http://www.w3.org/1999/xlink">
    <title>Icon-Architecture/16/Arch_AWS-CloudShell_16</title>
    <g id="Icon-Architecture/16/Arch_AWS-CloudShell_16" stroke="none" stroke-width="1" fill="none" fill-rule="evenodd">
        <g id="Icon-Architecture-BG/16/Developer-Tools" fill="#C925D1">
            <rect id="Rectangle" x="0" y="0" width="24" height="24"></rect>
        </g>
        <g id="Icon-Service/16/AWS-CloudShell_16" transform="translate(4.330000, 4.030000)" fill="#FFFFFF">
            <path d="M9.665,13.9708497 L12.665,13.9708497 L12.665,12.9708497 L9.665,12.9708497 L9.665,13.9708497 Z M7.29,13.7928497 L9.527,11.5558497 C9.621,11.4618497 9.674,11.3348497 9.674,11.2018497 C9.674,11.0698497 9.621,10.9428497 9.527,10.8488497 L7.29,8.61184972 L6.583,9.31884972 L8.467,11.2018497 L6.583,13.0858497 L7.29,13.7928497 Z M4.665,14.9708497 L14.665,14.9708497 L14.665,6.97084972 L4.665,6.97084972 L4.665,14.9708497 Z M15.665,6.47084972 L15.665,15.4708497 C15.665,15.7468497 15.441,15.9708497 15.165,15.9708497 L4.165,15.9708497 C3.889,15.9708497 3.665,15.7468497 3.665,15.4708497 L3.665,6.47084972 C3.665,6.19484972 3.889,5.97084972 4.165,5.97084972 L15.165,5.97084972 C15.441,5.97084972 15.665,6.19484972 15.665,6.47084972 L15.665,6.47084972 Z M3.482,1.17384972 C2.843,1.44584972 2.322,2.26284972 2.322,2.99584972 L2.34,3.27484972 C2.354,3.51384972 2.197,3.72984972 1.965,3.78884972 C1.524,3.90184972 1,4.20984972 1,5.03484972 C1,5.70184972 1.359,6.06984972 1.661,6.26084972 C1.681,6.26584972 1.834,6.30184972 1.958,6.32184972 L2.661,6.31584972 L2.661,7.31584972 L1.878,7.31584972 C1.585,7.27484972 1.296,7.21184972 1.127,7.10584972 C0.705,6.83884972 0,6.21584972 0,5.03484972 C0,4.06684972 0.487,3.31384972 1.324,2.95284972 C1.354,1.81184972 2.104,0.672849716 3.092,0.252849716 C4.268,-0.245150284 5.516,0.000849715916 6.425,0.916849716 C6.625,1.11784972 6.799,1.34784972 6.945,1.60584972 C7.293,1.44184972 7.697,1.40884972 8.077,1.53484972 C8.536,1.68584972 9.021,2.11384972 9.143,2.87584972 C9.536,3.00184972 10.062,3.25984972 10.414,3.78084972 C10.657,4.14084972 10.78,4.56784972 10.78,5.05084972 L9.78,5.05084972 C9.78,4.77084972 9.715,4.53284972 9.586,4.34084972 C9.308,3.92884972 8.793,3.80184972 8.584,3.76584972 C8.317,3.71984972 8.135,3.46984972 8.174,3.20084972 C8.172,2.84984972 8.023,2.57084972 7.765,2.48484972 C7.548,2.41084972 7.299,2.49384972 7.156,2.68884972 C7.047,2.83784972 6.866,2.91184972 6.68,2.88684972 C6.497,2.85984972 6.344,2.73284972 6.282,2.55884972 C6.149,2.18084972 5.959,1.86584972 5.716,1.62184972 C5.422,1.32584972 4.617,0.691849716 3.482,1.17384972 L3.482,1.17384972 Z" id="Fill-1"></path>
        </g>
    </g>
</svg>