<svg width="24" height="24" viewBox="0 0 24 24" fill="none" xmlns="http://www.w3.org/2000/svg">
<g id="Icon-Architecture/16/Arch_AWS-Fault-Injection-Service_16">
<g id="Icon-Architecture-BG/16/Developer-Tools">
<rect id="Rectangle" width="24" height="24" fill="#C925D1"/>
</g>
<g id="Icon-Service/16/AWS-Fault-Injection-Simulator_16">
<path id="Fill 1" fill-rule="evenodd" clip-rule="evenodd" d="M10.489 8.98597C10.764 8.98597 10.989 8.76197 10.989 8.48597C10.989 8.20997 10.764 7.98597 10.489 7.98597C10.214 7.98597 9.989 8.20997 9.989 8.48597C9.989 8.76197 10.214 8.98597 10.489 8.98597ZM10.489 9.98597C9.662 9.98597 8.989 9.31297 8.989 8.48597C8.989 7.65897 9.662 6.98597 10.489 6.98597C11.316 6.98597 11.989 7.65897 11.989 8.48597C11.989 9.31297 11.316 9.98597 10.489 9.98597ZM13.782 12.9L14.489 12.193L15.196 12.9L15.903 12.193L15.196 11.486L15.903 10.779L15.196 10.072L14.489 10.779L13.782 10.072L13.075 10.779L13.782 11.486L13.075 12.193L13.782 12.9ZM9.989 12.986H8.989V17.986C8.989 18.262 9.214 18.486 9.489 18.486C9.764 18.486 9.989 18.262 9.989 17.986V12.986ZM11.989 12.986H10.989V17.986C10.989 18.813 10.316 19.486 9.489 19.486C8.662 19.486 7.989 18.813 7.989 17.986V12.986H6.989V11.986H11.989V12.986ZM19.765 11.82C19.765 14.152 17.846 14.91 16.832 14.985L11.989 14.986V13.986H16.795C16.962 13.97 18.765 13.765 18.765 11.82C18.765 10.157 17.355 9.73397 16.749 9.62997C16.478 9.58297 16.296 9.32697 16.341 9.05597C16.339 8.38097 16.051 7.86997 15.549 7.70497C15.108 7.56197 14.627 7.72297 14.344 8.10397C14.235 8.25297 14.056 8.32497 13.868 8.30197C13.685 8.27497 13.532 8.14797 13.47 7.97297C13.257 7.36697 12.949 6.85997 12.555 6.46497C12.076 5.98197 10.759 4.94397 8.902 5.73197C7.85 6.17897 6.995 7.51897 6.995 8.71797L7.022 9.15397C7.037 9.39297 6.88 9.60897 6.647 9.66897C6.032 9.82697 5 10.314 5 11.798C5 12.922 5.606 13.541 6.115 13.862C6.268 13.959 6.364 13.986 6.56 13.986H6.989V14.986H6.559C6.177 14.986 5.893 14.905 5.582 14.708C4.991 14.335 4 13.461 4 11.798C4 10.387 4.74 9.30197 6.001 8.82497L5.996 8.74897C5.995 7.10097 7.077 5.42097 8.511 4.81197C10.19 4.09797 11.968 4.45397 13.264 5.75897C13.605 6.10197 13.894 6.50597 14.127 6.96597C14.637 6.64897 15.268 6.56097 15.861 6.75497C16.684 7.02597 17.213 7.75297 17.319 8.73397C18.565 9.07597 19.765 10.032 19.765 11.82Z" fill="white"/>
</g>
</g>
</svg>
