<?xml version="1.0" encoding="UTF-8"?>
<svg width="24px" height="24px" viewBox="0 0 24 24" version="1.1" xmlns="http://www.w3.org/2000/svg" xmlns:xlink="http://www.w3.org/1999/xlink">
    <title>Icon-Architecture/16/Arch_Amazon-CodeCatalyst_16</title>
    <g id="Icon-Architecture/16/Arch_Amazon-CodeCatalyst_16" stroke="none" stroke-width="1" fill="none" fill-rule="evenodd">
        <g id="Icon-Architecture-BG/16/Developer-Tools" fill="#C925D1">
            <rect id="Rectangle" x="0" y="0" width="24" height="24"></rect>
        </g>
        <path d="M12.5,18.967 L12.5,16.973 C13.039,16.919 13.567,16.779 14.06,16.557 L15.528,18.047 C14.604,18.588 13.573,18.891 12.5,18.967 L12.5,18.967 Z M5,12 C5,8.309 7.874,5.283 11.5,5.025 L11.5,7.05 C8.98,7.305 7,9.414 7,12 C7,14.585 8.98,16.694 11.5,16.949 L11.5,18.974 C7.874,18.716 5,15.691 5,12 L5,12 Z M14.045,7.436 C13.558,7.218 13.033,7.107 12.5,7.053 L12.5,5.033 C13.573,5.108 14.605,5.411 15.529,5.952 L14.045,7.436 Z M14.518,15.597 C14.36,15.438 14.115,15.401 13.921,15.51 C13.336,15.83 12.672,16 12,16 C9.794,16 8,14.205 8,12 C8,9.794 9.794,8 12,8 C12.666,8 13.325,8.167 13.907,8.482 C14.103,8.587 14.344,8.553 14.499,8.396 L16.674,6.222 C16.778,6.118 16.831,5.973 16.818,5.826 C16.806,5.679 16.729,5.545 16.608,5.46 C15.257,4.505 13.663,4 12,4 C7.589,4 4,7.589 4,12 C4,16.411 7.589,20 12,20 C13.66,20 15.252,19.496 16.604,18.543 C16.725,18.458 16.802,18.325 16.814,18.178 C16.827,18.032 16.775,17.887 16.673,17.783 L14.518,15.597 Z M18.027,15.521 L16.544,14.048 C16.843,13.397 17,12.682 17,11.958 C17,11.236 16.844,10.522 16.545,9.871 L18.017,8.377 C18.662,9.457 19,10.683 19,11.958 C19,13.225 18.665,14.446 18.027,15.521 L18.027,15.521 Z M18.501,7.294 C18.415,7.174 18.28,7.098 18.134,7.087 C17.974,7.072 17.842,7.13 17.738,7.235 L15.58,9.425 C15.425,9.583 15.392,9.825 15.5,10.019 C15.827,10.608 16,11.278 16,11.958 C16,12.64 15.826,13.313 15.497,13.903 C15.388,14.098 15.422,14.343 15.581,14.501 L17.758,16.663 C17.852,16.757 17.979,16.809 18.11,16.809 C18.124,16.809 18.139,16.808 18.152,16.807 C18.299,16.795 18.433,16.719 18.518,16.599 C19.487,15.239 20,13.634 20,11.958 C20,10.271 19.481,8.658 18.501,7.294 L18.501,7.294 Z" id="Fill-1" fill="#FFFFFF"></path>
    </g>
</svg>