<?xml version="1.0" encoding="UTF-8"?>
<svg width="24px" height="24px" viewBox="0 0 24 24" version="1.1" xmlns="http://www.w3.org/2000/svg" xmlns:xlink="http://www.w3.org/1999/xlink">
    <title>Icon-Architecture/16/Arch_AWS-Cloud-Control-API_16</title>
    <g id="Icon-Architecture/16/Arch_AWS-Cloud-Control-API_16" stroke="none" stroke-width="1" fill="none" fill-rule="evenodd">
        <g id="Icon-Architecture-BG/16/Developer-Tools" fill="#C925D1">
            <rect id="Rectangle" x="0" y="0" width="24" height="24"></rect>
        </g>
        <g id="Icon-Service/16/AWS-Cloud-Control-API_16" transform="translate(4.000000, 6.350000)" fill="#FFFFFF">
            <path d="M1.04531969,8.49893369 C0.931319694,8.02493369 1.02831969,7.56093369 1.32031969,7.19193369 C1.60731969,6.82793369 2.03631969,6.61893369 2.49931969,6.61893369 L9.26331969,6.61893369 L7.63431969,8.24793369 L8.34131969,8.95493369 L10.8233197,6.47293369 C10.9173197,6.37893369 10.9703197,6.25193369 10.9703197,6.11893369 C10.9703197,5.98593369 10.9173197,5.85893369 10.8233197,5.76593369 L8.34131969,3.28393369 L7.63431969,3.99093369 L9.26331969,5.61893369 L2.49931969,5.61893369 C1.72931969,5.61893369 1.01231969,5.96693369 0.534319694,6.57293369 C0.0573196936,7.17893369 -0.110680306,7.96593369 0.0723196936,8.73293369 C0.336319694,9.82593369 1.39731969,10.6189337 2.59531969,10.6189337 L2.74131969,10.6189337 L2.74131969,9.61893369 L2.59531969,9.61893369 C1.85331969,9.61893369 1.20131969,9.14793369 1.04531969,8.49893369 M15.9893197,7.43093369 C15.9893197,9.77993369 14.0403197,10.5419337 13.0103197,10.6179337 L5.19431969,10.6189337 L6.84131969,12.2659337 L6.13431969,12.9729337 L3.63031969,10.4689337 C3.53631969,10.3749337 3.48331969,10.2479337 3.48331969,10.1149337 C3.48331969,9.98193369 3.53631969,9.85493369 3.63031969,9.76193369 L6.13431969,7.25793369 L6.84131969,7.96493369 L5.18731969,9.61893369 L12.9743197,9.61893369 C13.1463197,9.60293369 14.9893197,9.39593369 14.9893197,7.43093369 C14.9893197,7.05993369 14.9213197,6.72793369 14.7863197,6.44393369 C14.6143197,6.08293369 14.3303197,5.78693369 13.9413197,5.56393369 C13.7813197,5.47393369 13.6173197,5.40293369 13.4613197,5.34793369 C13.2763197,5.28393369 13.1013197,5.24193369 12.9503197,5.21593369 C12.6813197,5.16893369 12.4993197,4.91393369 12.5433197,4.64393369 C12.5413197,4.49393369 12.5203197,4.30893369 12.4783197,4.14093369 C12.3533197,3.65193369 12.0383197,3.32393369 11.6153197,3.24193369 C11.2083197,3.16293369 10.7763197,3.33293369 10.5223197,3.67793369 C10.4123197,3.82693369 10.2253197,3.90093369 10.0463197,3.87593369 C9.86231969,3.84893369 9.70931969,3.72293369 9.64831969,3.54793369 C9.43231969,2.93593369 9.12131969,2.42293369 8.72431969,2.02293369 C8.23931969,1.53593369 6.90931969,0.485933695 5.03331969,1.28493369 C3.97131969,1.73593369 3.10731969,3.08893369 3.10731969,4.30093369 L2.10731969,4.30093369 C2.10731969,2.67093369 3.19631969,0.977933695 4.64331969,0.363933695 C6.33331969,-0.353066305 8.12431969,0.0019336949 9.43331969,1.31793369 C9.77831969,1.66593369 10.0703197,2.07493369 10.3053197,2.54193369 C10.7483197,2.26693369 11.2853197,2.15893369 11.8073197,2.26093369 C12.6123197,2.41693369 13.2263197,3.02793369 13.4463197,3.89493369 C13.4813197,4.03093369 13.5063197,4.17293369 13.5223197,4.31993369 C13.6083197,4.34393369 13.6993197,4.37193369 13.7903197,4.40393369 C14.0003197,4.47693369 14.2213197,4.57293369 14.4373197,4.69593369 C15.0063197,5.02093369 15.4283197,5.46493369 15.6903197,6.01493369 C15.8893197,6.43393369 15.9893197,6.90993369 15.9893197,7.43093369" id="Fill-8"></path>
        </g>
    </g>
</svg>