<?xml version="1.0" encoding="UTF-8"?>
<svg width="80px" height="80px" viewBox="0 0 80 80" version="1.1" xmlns="http://www.w3.org/2000/svg" xmlns:xlink="http://www.w3.org/1999/xlink">
    <title>Icon-Architecture/64/Arch_Amazon-Location-Service_64</title>
    <g id="Icon-Architecture/64/Arch_Amazon-Location-Service_64" stroke="none" stroke-width="1" fill="none" fill-rule="evenodd">
        <g id="Icon-Architecture-BG/64/Mobile" fill="#DD344C">
            <rect id="Rectangle" x="0" y="0" width="80" height="80"></rect>
        </g>
        <g id="Icon-Service/64/Amazon-Location-Service_64" transform="translate(12.000000, 12.000000)" fill="#FFFFFF">
            <path d="M31.086327,9.594 C31.006327,9.776 30.981327,9.977 31.015327,10.173 L31.861327,15 L24.181327,15 L24.986327,10.165 C25.019327,9.971 24.993327,9.773 24.914327,9.594 L21.539327,2 L34.461327,2 L31.086327,9.594 Z M36.839327,0.455 C36.654327,0.172 36.339327,0 36.000327,0 L20.000327,0 C19.661327,0 19.346327,0.172 19.161327,0.455 C18.977327,0.739 18.948327,1.097 19.086327,1.406 L22.964327,10.132 L22.014327,15.836 C21.965327,16.126 22.047327,16.422 22.237327,16.647 C22.427327,16.871 22.706327,17 23.000327,17 L27.000327,17 L27.000327,27 L29.000327,27 L29.000327,17 L33.052327,17 C33.348327,17 33.628327,16.869 33.817327,16.643 C34.008327,16.417 34.088327,16.118 34.037327,15.827 L33.038327,10.128 L36.914327,1.406 C37.052327,1.097 37.023327,0.739 36.839327,0.455 L36.839327,0.455 Z M44.850327,36.78 L42.410327,37.95 L28.000327,44.89 L13.590327,37.95 L11.150327,36.78 L3.46032702,33.08 L11.100327,29.97 L27.570327,37.9 C27.700327,37.97 27.850327,38 28.000327,38 C28.150327,38 28.300327,37.97 28.430327,37.9 L44.900327,29.97 L52.540327,33.08 L44.850327,36.78 Z M52.540327,42.08 L28.000327,53.89 L3.46032702,42.08 L11.100327,38.97 L27.570327,46.9 C27.700327,46.97 27.850327,47 28.000327,47 C28.150327,47 28.300327,46.97 28.430327,46.9 L44.900327,38.97 L52.540327,42.08 Z M56.000654,32.97 C55.990327,32.57 55.740327,32.22 55.380327,32.07 L47.340327,28.79 L55.430327,24.9 C55.790327,24.73 56.010327,24.36 56.000654,23.97 C55.990327,23.57 55.740327,23.22 55.380327,23.07 L35.950327,15.16 L36.010327,15.48 C36.110327,16.09 36.020327,16.7 35.770327,17.24 L52.540327,24.08 L44.850327,27.78 L42.410327,28.95 L28.000327,35.89 L13.590327,28.95 L11.150327,27.78 L3.46032702,24.08 L20.280327,17.23 C20.040327,16.69 19.940327,16.1 20.040327,15.51 L20.100327,15.14 L0.620327018,23.07 C0.260327018,23.22 0.0103270175,23.57 -3.55271368e-15,23.97 C-0.00967298246,24.36 0.210327018,24.73 0.570327018,24.9 L8.66032702,28.79 L0.620327018,32.07 C0.260327018,32.22 0.0103270175,32.57 -3.55271368e-15,32.97 C-0.00967298246,33.36 0.210327018,33.73 0.570327018,33.9 L8.66032702,37.79 L0.620327018,41.07 C0.260327018,41.22 0.0103270175,41.57 -3.55271368e-15,41.97 C-0.00967298246,42.36 0.210327018,42.73 0.570327018,42.9 L27.570327,55.9 C27.700327,55.97 27.850327,56 28.000327,56 C28.150327,56 28.300327,55.97 28.430327,55.9 L55.430327,42.9 C55.790327,42.73 56.010327,42.36 56.000654,41.97 C55.990327,41.57 55.740327,41.22 55.380327,41.07 L47.340327,37.79 L55.430327,33.9 C55.790327,33.73 56.010327,33.36 56.000654,32.97 L56.000654,32.97 Z" id="Fill-1"></path>
        </g>
    </g>
</svg>