<?xml version="1.0" encoding="UTF-8"?>
<svg width="24px" height="24px" viewBox="0 0 24 24" version="1.1" xmlns="http://www.w3.org/2000/svg" xmlns:xlink="http://www.w3.org/1999/xlink">
    <title>Icon-Architecture/16/Arch_AWS-AppSync_16</title>
    <g id="Icon-Architecture/16/Arch_AWS-AppSync_16" stroke="none" stroke-width="1" fill="none" fill-rule="evenodd">
        <g id="Icon-Architecture-BG/16/Application-Integration" fill="#E7157B">
            <rect id="Rectangle" x="0" y="0" width="24" height="24"></rect>
        </g>
        <g id="Icon-Service/16/AWS-AppSync" transform="translate(5.000000, 5.000000)" fill="#FFFFFF">
            <path d="M9.96954892,9.01887298 C9.6473029,9.01887298 9.38428591,9.28088609 9.38428591,9.60413599 C9.38428591,9.92638201 9.6473029,10.189399 9.96954892,10.189399 C10.2917949,10.189399 10.5538081,9.92638201 10.5538081,9.60413599 C10.5538081,9.28088609 10.2917949,9.01887298 9.96954892,9.01887298 M5.57053942,9.60413599 C5.57053942,9.28088609 5.30752242,9.01887298 4.9852764,9.01887298 C4.66303038,9.01887298 4.40001339,9.28088609 4.40001339,9.60413599 C4.40001339,9.92638201 4.66303038,10.189399 4.9852764,10.189399 C5.30752242,10.189399 5.57053942,9.92638201 5.57053942,9.60413599 M6.83944586,5.04350154 C6.83944586,5.40791059 7.13559095,5.70405568 7.5,5.70405568 C7.86440905,5.70405568 8.16055414,5.40791059 8.16055414,5.04350154 C8.16055414,4.67909249 7.86440905,4.3829474 7.5,4.3829474 C7.13559095,4.3829474 6.83944586,4.67909249 6.83944586,5.04350154 M8.85122474,8.47677687 L7.83027707,6.67480926 C7.72386561,6.69689466 7.61343863,6.70793736 7.5,6.70793736 C7.38756525,6.70793736 7.27713827,6.69689466 7.17173069,6.67480926 L6.13773257,8.51693214 C6.29433811,8.68156873 6.41179226,8.88134119 6.48507563,9.10219515 L8.4697497,9.10219515 C8.54905635,8.8642752 8.67654932,8.64944452 8.85122474,8.47677687 M9.96954892,8.0149913 C10.8449337,8.0149913 11.5576897,8.72774729 11.5576897,9.60413599 C11.5576897,10.4805247 10.8449337,11.1932807 9.96954892,11.1932807 C9.26984339,11.1932807 8.68056485,10.7345068 8.4697497,10.1060768 L6.48507563,10.1060768 C6.27426047,10.7345068 5.68498193,11.1932807 4.9852764,11.1932807 C4.1088877,11.1932807 3.39613171,10.4805247 3.39613171,9.60413599 C3.39613171,8.72774729 4.1088877,8.0149913 4.9852764,8.0149913 C5.07763352,8.0149913 5.1659751,8.02703788 5.25431669,8.0420961 L6.29634587,6.18591889 C6.01224736,5.88776603 5.83556418,5.48621336 5.83556418,5.04350154 C5.83556418,4.12595369 6.58245215,3.37906572 7.5,3.37906572 C8.41754785,3.37906572 9.16443582,4.12595369 9.16443582,5.04350154 C9.16443582,5.48520948 8.98775264,5.88475438 8.70666577,6.18391112 L9.75471824,8.03607281 C9.82498996,8.02703788 9.89626556,8.0149913 9.96954892,8.0149913 M14.0182037,3.78864944 L13.1458305,4.28557087 C13.701981,5.26033998 13.9961183,6.371637 13.9961183,7.5 C13.9961183,11.0818498 11.0818498,13.9961183 7.5,13.9961183 C6.15680632,13.9961183 4.86782225,13.5885424 3.77258734,12.819569 L3.19635926,13.6407442 C4.46024629,14.5301834 5.94900281,15 7.5,15 C11.6349886,15 15,11.6349886 15,7.5 C15,6.19796547 14.660688,4.91500468 14.0182037,3.78864944 M1.00388168,7.5 C1.00388168,8.66651051 1.31709276,9.81093562 1.90938295,10.8077901 L1.04604471,11.3207737 C0.362401285,10.1683175 0,8.84620533 0,7.5 C0,3.3640075 3.36501138,0 7.5,0 C8.62936689,0 9.71556686,0.244947129 10.7284835,0.728818097 L10.2948066,1.63532325 C9.41841788,1.21570071 8.47878463,1.00388168 7.5,1.00388168 C3.91815018,1.00388168 1.00388168,3.9171463 1.00388168,7.5" id="AWS-AppSync-Icon_16_Squid"></path>
        </g>
    </g>
</svg>