<svg width="24" height="24" viewBox="0 0 24 24" fill="none" xmlns="http://www.w3.org/2000/svg">
<rect width="24" height="24" fill="#E7157B"/>
<path d="M17.6357 15.3271C17.3769 15.0854 17.2861 14.9878 17.2861 14.8423C17.2861 12.7181 17.2721 6.67963 13.3439 5.55713C13.1284 5.02503 12.6081 4.64795 12 4.64795C11.3918 4.64795 10.8716 5.02503 10.6561 5.55713C6.7279 6.67963 6.71386 12.7181 6.71386 14.8423C6.71386 14.9878 6.62304 15.0854 6.36425 15.3271C5.96679 15.6982 5.36523 16.2588 5.36523 17.5C5.36523 17.7764 5.58886 18 5.86523 18H10.0615C10.3569 18.7873 11.1111 19.352 12 19.352C12.8889 19.352 13.6431 18.7873 13.9385 18H18.1348C18.4111 18 18.6348 17.7764 18.6348 17.5C18.6348 16.2588 18.0332 15.6982 17.6357 15.3271ZM12 18.352C11.6874 18.352 11.4114 18.2134 11.2147 18H12.7853C12.5886 18.2134 12.3126 18.352 12 18.352ZM6.41796 17C6.52441 16.5449 6.78026 16.3066 7.04687 16.0581C7.34375 15.7808 7.71386 15.4355 7.71386 14.8423C7.71386 11.2007 8.1582 6.35938 12 6.35938C15.8418 6.35938 16.2861 11.2007 16.2861 14.8423C16.2861 15.4355 16.6562 15.7808 16.9531 16.0581C17.2197 16.3066 17.4756 16.5449 17.582 17H6.41796Z" fill="white"/>
</svg>
