<?xml version="1.0" encoding="UTF-8"?>
<svg width="24px" height="24px" viewBox="0 0 24 24" version="1.1" xmlns="http://www.w3.org/2000/svg" xmlns:xlink="http://www.w3.org/1999/xlink">
    <title>Icon-Architecture/16/Arch_AWS-Telco-Network-Builder_16</title>
    <g id="Icon-Architecture/16/Arch_AWS-Telco-Network-Builder_16" stroke="none" stroke-width="1" fill="none" fill-rule="evenodd">
        <g id="Icon-Architecture-BG/16/Management-Governance" fill="#E7157B">
            <rect id="Rectangle" x="0" y="0" width="24" height="24"></rect>
        </g>
        <path d="M7.047,5.50427094 C8.115,5.07127094 9.324,5.20927094 10.276,5.87327094 L10.848,5.05227094 C9.617,4.19427094 8.056,4.01727094 6.672,4.57727094 C5.286,5.13827094 4.287,6.35127094 4,7.82327094 L4.981,8.01427094 C5.203,6.87627094 5.976,5.93827094 7.047,5.50427094 L7.047,5.50427094 Z M12.867,15.1372709 C12.771,15.0442709 12.646,14.9982709 12.521,14.9982709 C12.39,14.9982709 12.259,15.0492709 12.16,15.1502709 C11.969,15.3492709 11.976,15.6672709 12.174,15.8582709 C12.372,16.0492709 12.689,16.0432709 12.881,15.8442709 L12.881,15.8432709 C13.072,15.6452709 13.066,15.3282709 12.867,15.1372709 L12.867,15.1372709 Z M13.561,14.4162709 C14.156,14.9902709 14.175,15.9412709 13.602,16.5362709 C13.324,16.8252709 12.95,16.9892709 12.55,16.9972709 C12.54,16.9972709 12.529,16.9972709 12.52,16.9972709 C12.131,16.9972709 11.763,16.8492709 11.481,16.5782709 C10.885,16.0042709 10.866,15.0532709 11.44,14.4582709 C11.717,14.1692709 12.091,14.0052709 12.491,13.9982709 C12.9,13.9802709 13.271,14.1382709 13.561,14.4162709 L13.561,14.4162709 Z M16.382,15.7492709 L15.375,15.2872709 C15.247,15.2282709 15.151,15.1182709 15.108,14.9842709 L14.905,14.3492709 C14.863,14.2172709 14.878,14.0732709 14.946,13.9522709 L15.487,12.9902709 L14.172,12.0332709 L13.431,12.8362709 C13.337,12.9382709 13.205,12.9962709 13.067,12.9972709 L12.388,13.0012709 C12.255,12.9972709 12.112,12.9432709 12.017,12.8402709 L11.272,12.0312709 L9.955,12.9852709 L10.498,13.9522709 C10.568,14.0742709 10.581,14.2192709 10.538,14.3532709 L10.333,14.9812709 C10.289,15.1132709 10.193,15.2222709 10.066,15.2802709 L9.056,15.7432709 L9.558,17.2912709 L10.635,17.0752709 C10.778,17.0492709 10.918,17.0802709 11.031,17.1632709 L11.577,17.5672709 C11.688,17.6502709 11.76,17.7752709 11.776,17.9122709 L11.902,18.9982709 L13.528,18.9992709 L13.656,17.9052709 C13.673,17.7672709 13.746,17.6422709 13.859,17.5602709 L14.399,17.1652709 C14.512,17.0812709 14.654,17.0502709 14.792,17.0782709 L15.878,17.2962709 L16.382,15.7492709 Z M17.471,15.6352709 L16.692,18.0282709 C16.612,18.2692709 16.37,18.4132709 16.117,18.3632709 L14.811,18.1022709 L14.625,18.2382709 L14.471,19.5582709 C14.441,19.8102709 14.228,20.0002709 13.974,20.0002709 L11.457,19.9972709 C11.203,19.9972709 10.989,19.8072709 10.96,19.5552709 L10.808,18.2422709 L10.614,18.0992709 L9.318,18.3582709 C9.065,18.4082709 8.82,18.2642709 8.743,18.0232709 L7.968,15.6292709 C7.89,15.3872709 8.005,15.1262709 8.235,15.0202709 L9.45,14.4622709 L9.52,14.2512709 L8.865,13.0872709 C8.74,12.8662709 8.802,12.5872709 9.007,12.4382709 L11.044,10.9602709 C11.251,10.8132709 11.533,10.8392709 11.706,11.0262709 L12.603,12.0002709 L12.844,11.9992709 L13.739,11.0282709 C13.911,10.8402709 14.196,10.8142709 14.401,10.9622709 L16.435,12.4432709 C16.64,12.5922709 16.701,12.8712709 16.576,13.0922709 L15.924,14.2532709 L15.993,14.4702709 L17.204,15.0262709 C17.435,15.1322709 17.549,15.3942709 17.471,15.6352709 L17.471,15.6352709 Z M20.019,13.7722709 C20.019,14.7352709 19.679,15.5832709 19.035,16.2252709 L18.328,15.5172709 C18.786,15.0602709 19.019,14.4732709 19.019,13.7722709 C19.019,12.2622709 17.969,11.7682709 17.343,11.6072709 C17.11,11.5472709 16.953,11.3322709 16.968,11.0932709 L16.996,10.6202709 C16.995,9.43127094 16.126,8.06927094 15.058,7.61627094 C13.172,6.81427094 11.834,7.86827094 11.346,8.35927094 C10.946,8.76227094 10.634,9.27727094 10.417,9.89227094 C10.356,10.0672709 10.202,10.1932709 10.019,10.2212709 C9.836,10.2442709 9.652,10.1712709 9.543,10.0232709 C9.256,9.63327094 8.763,9.46827094 8.316,9.61627094 C7.803,9.78427094 7.509,10.3052709 7.509,11.0442709 C7.553,11.3152709 7.369,11.5212709 7.099,11.5672709 C6.483,11.6732709 5.049,12.1032709 5.049,13.7952709 C5.049,15.7732709 6.766,15.9822709 6.961,15.9992709 L6.881,16.9962709 C5.901,16.9202709 4.049,16.1522709 4.049,13.7952709 C4.049,11.9832709 5.266,11.0172709 6.528,10.6712709 C6.635,9.67627094 7.169,8.94027094 8.004,8.66627094 C8.601,8.46927094 9.243,8.55927094 9.761,8.88327094 C9.996,8.41527094 10.29,8.00427094 10.637,7.65427094 C11.949,6.33327094 13.748,5.97227094 15.448,6.69627094 C16.901,7.31227094 17.995,9.01227094 17.995,10.6502709 L17.988,10.7632709 C19.268,11.2442709 20.019,12.3422709 20.019,13.7722709 L20.019,13.7722709 Z" id="Fill-1" fill="#FFFFFF"></path>
    </g>
</svg>