<?xml version="1.0" encoding="UTF-8"?>
<svg width="24px" height="24px" viewBox="0 0 24 24" version="1.1" xmlns="http://www.w3.org/2000/svg" xmlns:xlink="http://www.w3.org/1999/xlink">
    <title>Icon-Architecture/16/Arch_AWS-Resource-Explorer_16</title>
    <g id="Icon-Architecture/16/Arch_AWS-Resource-Explorer_16" stroke="none" stroke-width="1" fill="none" fill-rule="evenodd">
        <g id="Icon-Architecture-BG/16/Management-Governance" fill="#E7157B">
            <rect id="Rectangle" x="0" y="0" width="24" height="24"></rect>
        </g>
        <path d="M18.709,18.7185 C18.558,18.8695 18.381,18.9705 18.225,18.9945 C18.069,19.0185 17.995,18.9615 17.955,18.9215 L15.185,16.0835 C15.523,15.8295 15.821,15.5305 16.075,15.1935 L18.915,17.9535 C18.97,18.0075 18.995,18.0725 18.995,18.1555 C18.995,18.3285 18.889,18.5395 18.709,18.7185 L18.709,18.7185 Z M12,18.7525 L12,16.9495 C12.165,16.9685 12.326,16.9995 12.495,16.9995 C13.14,16.9995 13.75,16.8575 14.305,16.6125 L15.131,17.4585 L12,18.7525 Z M5,8.3085 L8.683,10.1505 C8.258,10.8375 8,11.6395 8,12.5045 C8,14.4565 9.258,16.1045 11,16.7245 L11,18.7415 L5,16.1705 L5,8.3085 Z M11.5,5.0435 L17.305,7.5315 L14.897,8.7185 C14.201,8.2755 13.38,8.0095 12.495,8.0095 C11.249,8.0095 10.12,8.5205 9.305,9.3435 L5.688,7.5345 L11.5,5.0435 Z M12.495,15.9995 C10.568,15.9995 9,14.4315 9,12.5045 C9,10.5775 10.568,9.0095 12.495,9.0095 C14.422,9.0095 15.99,10.5775 15.99,12.5045 C15.99,14.4315 14.422,15.9995 12.495,15.9995 L12.495,15.9995 Z M16.604,14.3125 C16.849,13.7585 16.99,13.1485 16.99,12.5045 C16.99,11.3065 16.512,10.2215 15.745,9.4155 L18,8.3035 L18,15.6695 L16.604,14.3125 Z M19.617,17.2405 L19,16.6415 L19,7.4995 C19,7.2995 18.881,7.1185 18.697,7.0405 L11.697,4.0405 C11.57,3.9865 11.43,3.9865 11.303,4.0405 L4.303,7.0405 C4.119,7.1185 4,7.2995 4,7.4995 L4,16.4995 C4,16.6995 4.119,16.8805 4.303,16.9595 L11.303,19.9595 C11.366,19.9865 11.433,19.9995 11.5,19.9995 C11.564,19.9995 11.63,19.9875 11.691,19.9615 L15.883,18.2295 L17.244,19.6245 C17.49,19.8705 17.808,19.9995 18.154,19.9995 C18.228,19.9995 18.302,19.9945 18.377,19.9825 C18.744,19.9265 19.112,19.7285 19.416,19.4255 C19.784,19.0575 19.995,18.5945 19.995,18.1555 C19.995,17.8045 19.866,17.4895 19.617,17.2405 L19.617,17.2405 Z" id="Fill-8" fill="#FFFFFF"></path>
    </g>
</svg>