<?xml version="1.0" encoding="UTF-8"?>
<svg width="24px" height="24px" viewBox="0 0 24 24" version="1.1" xmlns="http://www.w3.org/2000/svg" xmlns:xlink="http://www.w3.org/1999/xlink">
    <title>Icon-Architecture/16/Arch_AWS-Resilience-Hub_16</title>
    <g id="Icon-Architecture/16/Arch_AWS-Resilience-Hub_16" stroke="none" stroke-width="1" fill="none" fill-rule="evenodd">
        <g id="Icon-Architecture-BG/16/Management-Governance" fill="#E7157B">
            <rect id="Rectangle" x="0" y="0" width="24" height="24"></rect>
        </g>
        <path d="M17.402,9.15422562 C17.241,8.16822562 16.683,7.45522562 15.87,7.21822562 C15.334,7.06322562 14.782,7.14822562 14.321,7.43222562 C14.097,6.99122562 13.82,6.60422562 13.493,6.27422562 C12.231,5.00222562 10.502,4.65822562 8.872,5.35222562 C7.476,5.94522562 6.424,7.58022562 6.424,9.15622562 C6.424,9.18622562 6.424,9.21622562 6.425,9.24522562 C5.547,9.55122562 4,10.3452256 4,12.1442256 L4.009,12.4012256 C4.002,13.2132256 4.327,14.0502256 4.856,14.5862256 C5.299,15.0332256 5.867,15.2702256 6.5,15.2712256 L7,15.2712256 L7,14.2712256 L6.501,14.2712256 C6.135,14.2702256 5.822,14.1402256 5.567,13.8832256 C5.223,13.5352256 5.005,12.9572256 5.009,12.4122256 C5.01,12.3562256 5.007,12.3002256 5,12.1442256 C5,10.7352256 6.589,10.2182256 7.075,10.0932256 C7.318,10.0312256 7.477,9.79922562 7.447,9.55022562 C7.432,9.42122562 7.424,9.29022562 7.424,9.15622562 C7.424,7.99722562 8.249,6.70322562 9.262,6.27222562 C11.053,5.51022562 12.32,6.51222562 12.783,6.97822562 C13.163,7.36122562 13.46,7.85222562 13.666,8.43822562 C13.727,8.61222562 13.881,8.73922562 14.064,8.76622562 C14.245,8.79022562 14.43,8.71722562 14.541,8.56822562 C14.796,8.22122562 15.208,8.06722562 15.59,8.17822562 C16.076,8.32022562 16.395,8.83922562 16.445,9.47922562 C16.399,9.75022562 16.582,10.0082256 16.853,10.0552256 C17.429,10.1542256 18.769,10.5592256 18.756,12.1622256 C18.75,12.8312256 18.501,13.2382256 18.292,13.4632256 L19.024,14.1442256 C19.353,13.7902256 19.748,13.1602256 19.7561255,12.1712256 C19.77,10.4182256 18.61,9.48622562 17.402,9.15422562 L17.402,9.15422562 Z M16.002,14.1602256 L16.998,14.0782256 C16.806,11.7642256 14.834,9.95222562 12.506,9.95222562 C10.021,9.95222562 8,11.9712256 8,14.4522256 C8,16.9342256 10.021,18.9522256 12.506,18.9522256 C13.628,18.9522256 14.685,18.5272256 15.5,17.8032256 L15.5,18.9522256 L16.5,18.9522256 L16.5,15.9522256 L13.5,15.9522256 L13.5,16.9522256 L14.955,16.9522256 C14.308,17.5822256 13.433,17.9522256 12.506,17.9522256 C10.573,17.9522256 9,16.3822256 9,14.4522256 C9,12.5232256 10.573,10.9522256 12.506,10.9522256 C14.317,10.9522256 15.852,12.3622256 16.002,14.1602256 L16.002,14.1602256 Z M11.43,14.9912256 L13.632,12.6122256 L14.367,13.2922256 L11.828,16.0342256 C11.729,16.1402256 11.595,16.1942256 11.461,16.1942256 C11.34,16.1942256 11.22,16.1512256 11.125,16.0652256 L9.757,14.8252256 L10.429,14.0842256 L11.43,14.9912256 Z" id="Icon-Service/16/AWS-Resilience-Hub_16_Squid" fill="#FFFFFF"></path>
    </g>
</svg>