<svg width="24" height="24" viewBox="0 0 24 24" fill="none" xmlns="http://www.w3.org/2000/svg">
<g id="Icon-Architecture/16/Arch_AWS-Compute-Optimizer_16">
<g id="Icon-Architecture-BG/16/Application-Integration">
<rect id="Rectangle" width="24" height="24" fill="#E7157B"/>
</g>
<g id="Icon-Service/16/AWS-Compute-Optimizer_16">
<path id="AWS-Compute-Optimizer_Icon_16_Squid" fill-rule="evenodd" clip-rule="evenodd" d="M13.668 5.96925C13.653 6.21425 13.818 6.43325 14.058 6.48725C14.609 6.61125 15.131 6.82525 15.607 7.12625C15.816 7.25725 16.085 7.21825 16.247 7.03525L16.603 6.63625L17.654 7.68425L17.256 8.04125C17.073 8.20325 17.036 8.47425 17.167 8.68125C17.468 9.15725 17.685 9.67825 17.811 10.2303C17.864 10.4683 18.083 10.6343 18.327 10.6183L18.86 10.5873L18.861 12.0723L18.331 12.0423C18.051 12.0183 17.868 12.1943 17.814 12.4323C17.691 12.9833 17.476 13.5053 17.175 13.9843L18.021 14.5163C18.307 14.0623 18.528 13.5743 18.683 13.0633L19.334 13.0993C19.49 13.1093 19.607 13.0573 19.706 12.9643C19.806 12.8693 19.862 12.7373 19.862 12.6003L19.859 10.0563C19.859 9.91925 19.803 9.78725 19.702 9.69325C19.603 9.59825 19.471 9.55225 19.33 9.55825L18.676 9.59625C18.563 9.22025 18.412 8.85925 18.227 8.51425L18.715 8.07725C18.817 7.98625 18.878 7.85625 18.882 7.71825C18.886 7.58025 18.832 7.44825 18.735 7.35025L16.935 5.55425C16.836 5.45625 16.695 5.41025 16.566 5.40825C16.429 5.41225 16.299 5.47325 16.208 5.57525L15.772 6.06525C15.427 5.88225 15.065 5.73225 14.69 5.61925L14.726 5.02425C14.733 4.88625 14.685 4.75225 14.591 4.65225C14.496 4.55125 14.364 4.49425 14.227 4.49425H12.917V5.49425H13.696L13.668 5.96925ZM10.958 17.5953V12.6393L9.714 13.8573L9.015 13.1423L10.958 11.2403V10.7073L9.857 9.62925L10.557 8.91425L10.958 9.30725V5.84425L9.417 5.10725V7.35325H8.417V5.69325L6.717 6.82625V8.78625L8.209 9.77225C8.35 9.86425 8.434 10.0213 8.434 10.1893V12.4993H7.434V10.4583L6.192 9.63725L5.001 10.2913L5 11.6253L5.001 13.4283L6.402 13.9893C6.593 14.0653 6.717 14.2493 6.717 14.4533V16.5733L7.399 16.9823L9.354 15.5163L9.953 16.3163L8.325 17.5373L9.656 18.3363L10.958 17.5953ZM11.958 5.52925V17.8863C11.958 18.0653 11.861 18.2313 11.705 18.3203L9.897 19.3503C9.82 19.3933 9.734 19.4153 9.649 19.4153C9.561 19.4153 9.472 19.3913 9.393 19.3443L5.96 17.2843C5.809 17.1943 5.717 17.0323 5.717 16.8563V14.7923L4.315 14.2313C4.126 14.1553 4.001 13.9713 4.001 13.7673L4 11.6243L4.001 9.99425C4.001 9.81225 4.101 9.64425 4.261 9.55625L5.717 8.75825V6.55925C5.717 6.39225 5.801 6.23625 5.939 6.14325L9.028 4.08325C9.175 3.98625 9.364 3.97325 9.522 4.04825L11.674 5.07825C11.848 5.16125 11.958 5.33725 11.958 5.52925ZM18.884 17.4443C18.884 17.1293 18.699 16.9373 18.336 16.8743C18.065 16.8283 17.883 16.5713 17.928 16.3003C17.923 16.2573 17.896 16.1273 17.817 16.1023C17.778 16.0873 17.718 16.0993 17.679 16.1523C17.569 16.3013 17.389 16.3763 17.202 16.3503C17.019 16.3223 16.866 16.1963 16.805 16.0213C16.736 15.8273 16.636 15.6603 16.514 15.5363C16.381 15.4033 16.141 15.2233 15.811 15.2233C15.687 15.2233 15.549 15.2493 15.399 15.3123C15.09 15.4443 14.828 15.8583 14.828 16.2163L14.839 16.3693C14.855 16.6093 14.696 16.8253 14.464 16.8853C14.038 16.9943 14.038 17.3153 14.038 17.4353C14.038 17.6823 14.14 17.8713 14.34 17.9973L18.371 17.9993C18.538 17.9793 18.884 17.8853 18.884 17.4443ZM19.884 17.4443C19.884 18.5063 19.017 18.9553 18.433 18.9983C18.421 18.9993 18.408 18.9993 18.397 18.9993H14.389C14.167 18.9993 13.971 18.9473 13.806 18.8433C13.519 18.6613 13.038 18.2383 13.038 17.4353C13.038 16.8253 13.336 16.3263 13.838 16.0613C13.91 15.3413 14.389 14.6553 15.009 14.3923C15.791 14.0593 16.618 14.2233 17.223 14.8313C17.315 14.9253 17.399 15.0283 17.475 15.1393C17.685 15.0783 17.913 15.0803 18.13 15.1523C18.439 15.2533 18.765 15.5233 18.88 15.9943C19.4 16.1993 19.884 16.6593 19.884 17.4443ZM12.917 13.9993V12.9993C13.744 12.9993 14.417 12.3263 14.417 11.4993C14.417 10.6723 13.744 9.99925 12.917 9.99925V8.99925C14.296 8.99925 15.417 10.1213 15.417 11.4993C15.417 12.8783 14.296 13.9993 12.917 13.9993Z" fill="white"/>
</g>
</g>
</svg>
