<?xml version="1.0" encoding="UTF-8"?>
<svg width="24px" height="24px" viewBox="0 0 24 24" version="1.1" xmlns="http://www.w3.org/2000/svg" xmlns:xlink="http://www.w3.org/1999/xlink">
    <title>Icon-Architecture/16/Arch_Amazon-Managed-Service-for-Prometheus_16</title>
    <g id="Icon-Architecture/16/Arch_Amazon-Managed-Service-for-Prometheus_16" stroke="none" stroke-width="1" fill="none" fill-rule="evenodd">
        <g id="Icon-Architecture-BG/16/Management-Governance" fill="#E7157B">
            <rect id="Rectangle" x="0" y="0" width="24" height="24"></rect>
        </g>
        <g id="Icon-Service/16/Amazon-Managed-Service-for-Prometheus_16" transform="translate(6.000000, 4.000000)" fill="#FFFFFF">
            <path d="M10.5,5 C10.225,5 10,4.776 10,4.5 C10,4.224 10.225,4 10.5,4 C10.775,4 11,4.224 11,4.5 C11,4.776 10.775,5 10.5,5 L10.5,5 Z M7,1.5 C7,1.224 7.225,1 7.5,1 C7.775,1 8,1.224 8,1.5 C8,1.776 7.775,2 7.5,2 C7.225,2 7,1.776 7,1.5 L7,1.5 Z M4.5,6 C4.225,6 4,5.776 4,5.5 C4,5.224 4.225,5 4.5,5 C4.775,5 5,5.224 5,5.5 C5,5.776 4.775,6 4.5,6 L4.5,6 Z M1.5,3 C1.225,3 1,2.776 1,2.5 C1,2.224 1.225,2 1.5,2 C1.775,2 2,2.224 2,2.5 C2,2.776 1.775,3 1.5,3 L1.5,3 Z M10.5,3 C10.27,3 10.053,3.057 9.857,3.15 L8.85,2.143 C8.943,1.947 9,1.731 9,1.5 C9,0.673 8.327,0 7.5,0 C6.673,0 6,0.673 6,1.5 C6,1.796 6.089,2.071 6.238,2.305 L4.934,4.071 C4.795,4.029 4.651,4 4.5,4 C4.282,4 4.076,4.049 3.89,4.133 L2.858,3.127 C2.947,2.936 3,2.725 3,2.5 C3,1.673 2.327,1 1.5,1 C0.673,1 0,1.673 0,2.5 C0,3.327 0.673,4 1.5,4 C1.737,4 1.959,3.939 2.159,3.841 L3.168,4.825 C3.064,5.029 3,5.256 3,5.5 C3,6.327 3.673,7 4.5,7 C5.327,7 6,6.327 6,5.5 C6,5.189 5.904,4.9 5.742,4.66 L7.029,2.917 C7.178,2.967 7.334,3 7.5,3 C7.73,3 7.947,2.943 8.143,2.85 L9.15,3.857 C9.057,4.053 9,4.269 9,4.5 C9,5.327 9.673,6 10.5,6 C11.327,6 12,5.327 12,4.5 C12,3.673 11.327,3 10.5,3 L10.5,3 Z M8.232,11 L3.767,11 L2.424,9 L9.565,9 L8.232,11 Z M7.109,15 L4.891,15 L4.141,12 L7.859,12 L7.109,15 Z M10.5,8 L1.486,8 C1.302,8 1.132,8.102 1.045,8.265 C0.958,8.428 0.968,8.625 1.071,8.779 L3.036,11.706 L4.015,15.621 C4.07,15.844 4.271,16 4.5,16 L7.5,16 C7.729,16 7.93,15.844 7.985,15.621 L8.964,11.705 L10.916,8.777 C11.019,8.624 11.028,8.427 10.94,8.264 C10.854,8.102 10.685,8 10.5,8 L10.5,8 Z" id="Fill-5"></path>
        </g>
    </g>
</svg>