<?xml version="1.0" encoding="UTF-8"?>
<svg width="40px" height="40px" viewBox="0 0 40 40" version="1.1" xmlns="http://www.w3.org/2000/svg" xmlns:xlink="http://www.w3.org/1999/xlink">
    <title>Icon-Architecture/32/Arch_Amazon-Deadline-Cloud_32</title>
    <g id="Icon-Architecture/32/Arch_Amazon-Deadline-Cloud_32" stroke="none" stroke-width="1" fill="none" fill-rule="evenodd">
        <g id="Icon-Architecture-BG/32/Media-Services" fill="#ED7100">
            <rect id="Rectangle" x="0" y="0" width="40" height="40"></rect>
        </g>
        <g id="Icon-Service/32/Amazon-Deadline-Cloud_32" transform="translate(8.000000, 6.500000)" fill="#FFFFFF">
            <path d="M17.051,19.42375 L15.05,20.42375 L13.05,19.42375 L13.051,16.91675 L15.051,15.91675 L17.051,16.91675 L17.051,19.42375 Z M10.55,12.54075 L12.55,11.54075 L14.55,12.54075 L14.55,15.04775 L12.55,16.04775 L10.55,15.04775 L10.55,12.54075 Z M17.775,16.16075 L15.55,15.04875 L15.55,12.23175 C15.55,12.04275 15.443,11.86975 15.274,11.78475 L12.774,10.53475 C12.633,10.46475 12.467,10.46475 12.326,10.53475 L9.826,11.78475 C9.657,11.86975 9.55,12.04275 9.55,12.23175 L9.55,15.35675 C9.55,15.54675 9.657,15.71875 9.826,15.80375 L12.051,16.91675 L12.05,19.73275 C12.05,19.92275 12.157,20.09475 12.326,20.17975 L14.826,21.42975 C14.897,21.46575 14.974,21.48275 15.05,21.48275 C15.126,21.48275 15.203,21.46575 15.274,21.42975 L17.775,20.17975 C17.944,20.09575 18.051,19.92275 18.051,19.73275 L18.051,16.60775 C18.051,16.41875 17.944,16.24575 17.775,16.16075 L17.775,16.16075 Z M11.797,3.51575 C11.941,3.44375 12.108,3.44375 12.249,3.51575 L20.727,7.82775 C20.895,7.91375 21,8.08575 21,8.27375 L21,17.97475 C21,18.15075 20.907,18.31375 20.757,18.40375 L19.551,19.12375 L19.551,17.95875 L20,17.69075 L20,8.58075 L12.022,4.52275 L4,8.58175 L4,17.68975 L12.022,22.45475 L12.705,22.04675 L13.767,22.57775 L12.28,23.46575 C12.2,23.51375 12.112,23.53675 12.023,23.53675 C11.935,23.53675 11.846,23.51375 11.768,23.46675 L3.245,18.40375 C3.093,18.31475 3,18.15075 3,17.97475 L3,8.27375 C3,8.08575 3.107,7.91275 3.275,7.82775 L11.797,3.51575 Z M23,19.25275 L12,25.91475 L1,19.25275 L1,7.05375 L12,1.06875 L23,7.05375 L23,19.25275 Z M23.739,6.31775 L12.239,0.06075 C12.089,-0.02025 11.911,-0.02025 11.761,0.06075 L0.261,6.31775 C0.101,6.40475 0,6.57275 0,6.75675 L0,19.53375 C0,19.70875 0.092,19.87075 0.241,19.96175 L11.741,26.92675 C11.821,26.97575 11.91,26.99975 12,26.99975 C12.09,26.99975 12.18,26.97575 12.259,26.92675 L23.759,19.96175 C23.908,19.87075 24,19.70875 24,19.53375 L24,6.75675 C24,6.57275 23.9,6.40475 23.739,6.31775 L23.739,6.31775 Z" id="Fill-5"></path>
        </g>
    </g>
</svg>