<?xml version="1.0" encoding="UTF-8"?>
<svg width="80px" height="80px" viewBox="0 0 80 80" version="1.1" xmlns="http://www.w3.org/2000/svg" xmlns:xlink="http://www.w3.org/1999/xlink">
    <title>Icon-Architecture/64/Arch_Amazon-GameLift_64</title>
    <g id="Icon-Architecture/64/Arch_Amazon-GameLift_64" stroke="none" stroke-width="1" fill="none" fill-rule="evenodd">
        <g id="Icon-Architecture-BG/64/Game-Tech" fill="#8C4FFF">
            <rect id="Rectangle" x="0" y="0" width="80" height="80"></rect>
        </g>
        <g id="Icon-Service/64/Amazon-GameLift_64" transform="translate(12.000000, 12.000000)" fill="#FFFFFF">
            <path d="M48,40.51 C48,39.682 48.672,39.01 49.5,39.01 C50.328,39.01 51,39.682 51,40.51 C51,41.338 50.328,42.01 49.5,42.01 C48.672,42.01 48,41.338 48,40.51 L48,40.51 Z M45,37.51 C45,36.682 45.672,36.01 46.5,36.01 C47.328,36.01 48,36.682 48,37.51 C48,38.338 47.328,39.01 46.5,39.01 C45.672,39.01 45,38.338 45,37.51 L45,37.51 Z M28,40.01 L26,40.01 L26,38.01 L28,38.01 L28,36.01 L30,36.01 L30,38.01 L32,38.01 L32,40.01 L30,40.01 L30,42.01 L28,42.01 L28,40.01 Z M54,50.01 C54,53.595 52.288,54.01 51,54.01 C48.64,54.01 46.25,49.72 44.586,46.234 C45.623,46.726 46.778,47.01 48,47.01 C50.39,47.01 52.532,45.951 54,44.284 L54,50.01 Z M26,54.01 C24.7,54.01 23.879,53.524 23.415,52.48 C23.001,51.549 23.001,50.471 23.001,50.01 L23,44.284 C24.468,45.951 26.61,47.01 29,47.01 C30.222,47.01 31.377,46.726 32.414,46.234 C30.75,49.72 28.36,54.01 26,54.01 L26,54.01 Z M29,33.01 C32.309,33.01 35,35.701 35,39.01 C35,42.318 32.309,45.01 29,45.01 C25.691,45.01 23,42.318 23,39.01 C23,35.701 25.691,33.01 29,33.01 L29,33.01 Z M40.589,42.01 L36.411,42.01 C36.788,41.082 37,40.071 37,39.01 C37,37.118 36.337,35.381 35.235,34.01 L41.765,34.01 C40.663,35.381 40,37.118 40,39.01 C40,40.071 40.212,41.082 40.589,42.01 L40.589,42.01 Z M54,39.01 L53.999,39.01 L53.999,39.029 C53.988,42.329 51.302,45.01 48,45.01 C44.691,45.01 42,42.318 42,39.01 C42,35.701 44.691,33.01 48,33.01 C51.309,33.01 54,35.701 54,39.01 L54,39.01 Z M56,39.01 C56,34.599 52.411,31.01 48,31.01 C46.599,31.01 45.282,31.374 44.136,32.01 L32.864,32.01 C31.718,31.374 30.401,31.01 29,31.01 C24.589,31.01 21,34.599 21,39.01 L21.001,50.01 C21.001,50.547 21.001,51.973 21.587,53.292 C22.138,54.532 23.352,56.01 26,56.01 C30.196,56.01 33.247,49.282 35.266,44.83 C35.396,44.544 35.52,44.269 35.639,44.01 L41.361,44.01 C41.48,44.269 41.604,44.544 41.734,44.83 C43.753,49.282 46.804,56.01 51,56.01 C52.503,56.01 56,55.425 56,50.01 L55.999,39.029 C55.999,39.023 56,39.016 56,39.01 L56,39.01 Z M7.498,37.116 C9.038,36.3 10.805,35.622 12.741,35.094 C13.81,38.467 15.321,41.242 17.131,43.149 C13.377,42.053 10.066,39.934 7.498,37.116 L7.498,37.116 Z M6.202,35.548 C3.764,32.294 2.256,28.32 2.051,24 L11.013,24 C11.083,27.3 11.5,30.401 12.197,33.174 C9.972,33.783 7.948,34.581 6.202,35.548 L6.202,35.548 Z M6.201,10.451 C7.949,11.42 9.972,12.218 12.197,12.827 C11.499,15.6 11.083,18.7 11.013,22 L2.051,22 C2.256,17.68 3.764,13.706 6.201,10.451 L6.201,10.451 Z M17.131,2.85 C15.321,4.758 13.809,7.533 12.74,10.907 C10.805,10.379 9.036,9.703 7.496,8.886 C10.064,6.067 13.375,3.946 17.131,2.85 L17.131,2.85 Z M23,2 C26.394,2 29.457,5.77 31.274,11.382 C28.692,11.921 25.897,12.222 23,12.222 C20.099,12.222 17.305,11.921 14.726,11.383 C16.542,5.77 19.606,2 23,2 L23,2 Z M38.502,8.883 C36.962,9.699 35.195,10.377 33.259,10.905 C32.19,7.532 30.679,4.758 28.869,2.85 C32.623,3.946 35.934,6.066 38.502,8.883 L38.502,8.883 Z M39.798,10.451 C42.236,13.705 43.744,17.679 43.949,22 L34.987,22 C34.917,18.699 34.5,15.599 33.803,12.825 C36.028,12.216 38.052,11.419 39.798,10.451 L39.798,10.451 Z M13.025,22 C13.099,18.896 13.502,15.943 14.176,13.307 C16.933,13.894 19.914,14.222 23,14.222 C26.081,14.222 29.064,13.894 31.824,13.306 C32.497,15.943 32.901,18.896 32.975,22 L13.025,22 Z M19,42.17 C17.273,40.532 15.786,37.892 14.726,34.617 C16.402,34.267 18.174,34.03 19.999,33.898 L19.999,31.894 C17.985,32.034 16.027,32.299 14.176,32.693 C13.503,30.057 13.099,27.103 13.025,24 L32.975,24 C32.926,26.088 32.715,28.098 32.385,30 L34.437,30 C34.744,28.098 34.943,26.096 34.987,24 L43.949,24 C43.85,26.096 43.438,28.109 42.767,30 L44.907,30 C45.615,27.791 46,25.44 46,23 C46,10.317 35.683,-3.55271368e-15 23,-3.55271368e-15 C10.317,-3.55271368e-15 0,10.317 0,23 C0,34.317 8.219,43.745 19,45.644 L19,42.17 Z" id="Fill-7"></path>
        </g>
    </g>
</svg>