<?xml version="1.0" encoding="UTF-8"?>
<svg width="80px" height="80px" viewBox="0 0 80 80" version="1.1" xmlns="http://www.w3.org/2000/svg" xmlns:xlink="http://www.w3.org/1999/xlink">
    <title>Icon-Architecture/64/Arch_Open-3D-Engine_64</title>
    <g id="Icon-Architecture/64/Arch_Open-3D-Engine_64" stroke="none" stroke-width="1" fill="none" fill-rule="evenodd">
        <g id="Icon-Architecture-BG/64/Game-Tech" fill="#8C4FFF">
            <rect id="Rectangle" x="0" y="0" width="80" height="80"></rect>
        </g>
        <g id="Icon-Service/64/Open-3D-Engine_64" transform="translate(12.000000, 12.000000)" fill="#FFFFFF">
            <path d="M49.5,42 C50.328,42 51,41.328 51,40.5 C51,39.672 50.328,39 49.5,39 C48.672,39 48,39.672 48,40.5 C48,41.328 48.672,42 49.5,42 L49.5,42 Z M46.5,39 C47.328,39 48,38.328 48,37.5 C48,36.672 47.328,36 46.5,36 C45.672,36 45,36.672 45,37.5 C45,38.328 45.672,39 46.5,39 L46.5,39 Z M28,42 L30,42 L30,40 L32,40 L32,38 L30,38 L30,36 L28,36 L28,38 L26,38 L26,40 L28,40 L28,42 Z M54,44.274 C52.532,45.941 50.39,47 48,47 C46.778,47 45.623,46.716 44.586,46.224 C46.25,49.71 48.64,54 51,54 C52.288,54 54,53.585 54,50 L54,44.274 Z M32.414,46.224 C31.377,46.716 30.222,47 29,47 C26.61,47 24.468,45.941 23,44.274 L23.001,50 C23.001,50.461 23.001,51.539 23.415,52.47 C23.879,53.514 24.7,54 26,54 C28.36,54 30.75,49.71 32.414,46.224 L32.414,46.224 Z M23,39 C23,42.308 25.691,45 29,45 C32.309,45 35,42.308 35,39 C35,35.691 32.309,33 29,33 C25.691,33 23,35.691 23,39 L23,39 Z M40,39 C40,37.108 40.663,35.371 41.765,34 L35.235,34 C36.337,35.371 37,37.108 37,39 C37,40.061 36.788,41.072 36.411,42 L40.589,42 C40.212,41.072 40,40.061 40,39 L40,39 Z M48,33 C44.691,33 42,35.691 42,39 C42,42.308 44.691,45 48,45 C51.302,45 53.988,42.319 53.999,39.019 L53.999,39 L54,39 C54,35.691 51.309,33 48,33 L48,33 Z M56,39 C56,39.006 55.999,39.013 55.999,39.019 L56,50 C56,55.415 52.503,56 51,56 C46.804,56 43.753,49.272 41.734,44.82 C41.604,44.534 41.48,44.259 41.361,44 L35.639,44 C35.52,44.259 35.396,44.534 35.266,44.82 C33.247,49.272 30.196,56 26,56 C23.352,56 22.138,54.522 21.587,53.282 C21.001,51.963 21.001,50.537 21.001,50 L21,39 C21,34.589 24.589,31 29,31 C30.401,31 31.718,31.364 32.864,32 L44.136,32 C45.282,31.364 46.599,31 48,31 C52.411,31 56,34.589 56,39 L56,39 Z M27.673,13.763 C34.863,13.763 40.713,19.612 40.713,26.802 L42.713,26.802 C42.713,18.51 35.966,11.763 27.673,11.763 C19.38,11.763 12.634,18.51 12.634,26.802 C12.634,30.983 14.31,34.868 17.352,37.74 L18.725,36.286 C16.087,33.795 14.634,30.427 14.634,26.802 C14.634,19.612 20.483,13.763 27.673,13.763 L27.673,13.763 Z M56,22.475 L56,30 L54,30 L54,23.529 L50.207,23.727 C49.694,23.754 49.286,23.425 49.179,22.95 C48.629,20.523 47.677,18.225 46.347,16.12 C46.086,15.706 46.162,15.165 46.526,14.84 L49.064,12.575 L43.028,6.539 L40.757,9.085 C40.432,9.449 39.888,9.525 39.478,9.265 C37.371,7.936 35.076,6.985 32.654,6.436 C32.178,6.329 31.849,5.892 31.877,5.405 L32.07,2 L23.534,2 L23.728,5.402 C23.756,5.89 23.427,6.327 22.949,6.434 C20.525,6.981 18.229,7.932 16.122,9.26 C15.711,9.52 15.167,9.445 14.843,9.08 L12.575,6.539 L6.539,12.575 L9.082,14.844 C9.446,15.17 9.522,15.711 9.262,16.124 C7.93,18.232 6.976,20.529 6.428,22.95 C6.319,23.427 5.84,23.748 5.396,23.727 L2,23.534 L2,32.07 L5.387,31.876 C5.84,31.845 6.311,32.178 6.419,32.655 C6.966,35.084 7.917,37.385 9.248,39.494 C9.509,39.908 9.433,40.449 9.068,40.774 L6.54,43.029 L12.605,49.096 L16.282,45.304 L17.718,46.696 L13.334,51.217 C13.147,51.41 12.892,51.519 12.624,51.521 L12.616,51.521 C12.351,51.521 12.097,51.415 11.909,51.228 L4.377,43.695 C4.183,43.5 4.076,43.234 4.084,42.959 C4.092,42.684 4.213,42.425 4.418,42.242 L7.116,39.835 C6.035,37.978 5.215,35.996 4.669,33.921 L1.057,34.127 C0.786,34.143 0.513,34.044 0.313,33.856 C0.113,33.667 0,33.404 0,33.129 L0,22.475 C0,22.2 0.113,21.937 0.313,21.748 C0.513,21.559 0.785,21.463 1.057,21.476 L4.68,21.683 C5.227,19.615 6.048,17.637 7.13,15.783 L4.418,13.363 C4.213,13.18 4.092,12.92 4.084,12.645 C4.076,12.37 4.183,12.104 4.377,11.91 L11.909,4.377 C12.104,4.182 12.362,4.072 12.645,4.084 C12.92,4.092 13.179,4.213 13.362,4.418 L15.781,7.128 C17.635,6.049 19.613,5.23 21.684,4.685 L21.478,1.057 C21.462,0.782 21.56,0.513 21.749,0.313 C21.938,0.113 22.2,0 22.476,0 L33.129,0 C33.404,0 33.667,0.113 33.855,0.313 C34.045,0.513 34.143,0.782 34.127,1.057 L33.921,4.688 C35.989,5.234 37.966,6.054 39.818,7.133 L42.241,4.418 C42.425,4.213 42.684,4.092 42.959,4.084 C43.23,4.07 43.5,4.182 43.694,4.377 L51.228,11.91 C51.422,12.104 51.528,12.37 51.521,12.645 C51.513,12.92 51.392,13.18 51.187,13.363 L48.479,15.778 C49.56,17.632 50.381,19.613 50.929,21.687 L54.947,21.476 C55.212,21.457 55.489,21.56 55.688,21.749 C55.888,21.938 56,22.201 56,22.475 L56,22.475 Z" id="Fill-4"></path>
        </g>
    </g>
</svg>