<?xml version="1.0" encoding="UTF-8"?>
<svg width="24px" height="24px" viewBox="0 0 24 24" version="1.1" xmlns="http://www.w3.org/2000/svg" xmlns:xlink="http://www.w3.org/1999/xlink">
    <title>Icon-Architecture/16/Arch_Amazon-WorkSpaces-Family_16</title>
    <g id="Icon-Architecture/16/Arch_Amazon-WorkSpaces-Family_16" stroke="none" stroke-width="1" fill="none" fill-rule="evenodd">
        <g id="Icon-Architecture-BG/16/End-User-Computing" fill="#01A88D">
            <rect id="Rectangle" x="0" y="0" width="24" height="24"></rect>
        </g>
        <path d="M5,10 L4,10 L4,4.5 C4,4.224 4.224,4 4.5,4 L10,4 L10,5 L5,5 L5,10 Z M19,5 L14,5 L14,4 L19.5,4 C19.776,4 20,4.224 20,4.5 L20,10 L19,10 L19,5 Z M20,19.499 C20,19.631 19.948,19.759 19.855,19.853 C19.76,19.947 19.634,20 19.501,20 L14,20 L14,19 L18.999,19 L19,14 L20,14 L20,19.499 Z M5,19 L10,19 L10,20 L4.5,20 C4.224,20 4,19.776 4,19.5 L4,14 L5,14 L5,19 Z M12.464,16.69 L12.464,12.342 L16,10.17 L16,14.531 L12.464,16.69 Z M8,10.15 L11.464,12.277 L11.464,16.646 L8,14.531 L8,10.15 Z M12,7.154 L15.51,9.297 L12.017,11.443 L8.511,9.29 L12,7.154 Z M17,14.812 L17,9.316 C17,9.142 16.909,8.98 16.761,8.89 L12.261,6.142 C12.1,6.043 11.898,6.044 11.739,6.142 L7.275,8.875 C7.148,8.939 7.05,9.057 7.013,9.203 C6.999,9.258 6.995,9.314 7,9.369 L7,14.812 C7,14.986 7.091,15.148 7.239,15.239 L11.739,17.986 C11.819,18.035 11.91,18.06 12,18.06 C12.09,18.06 12.181,18.035 12.261,17.986 L16.761,15.239 C16.909,15.148 17,14.986 17,14.812 L17,14.812 Z" id="Fill-3" fill="#FFFFFF"></path>
    </g>
</svg>