<?xml version="1.0" encoding="UTF-8"?>
<svg width="80px" height="80px" viewBox="0 0 80 80" version="1.1" xmlns="http://www.w3.org/2000/svg" xmlns:xlink="http://www.w3.org/1999/xlink">
    <title>Icon-Architecture/64/Arch_Amazon-CodeWhisperer_64</title>
    <g id="Icon-Architecture/64/Arch_Amazon-CodeWhisperer_64" stroke="none" stroke-width="1" fill="none" fill-rule="evenodd">
        <g id="Icon-Architecture-BG/64/Machine-Learning" fill="#01A88D">
            <rect id="Rectangle" x="0" y="0" width="80" height="80"></rect>
        </g>
        <g id="Icon-Service/64/Amazon-CodeWhisperer_64" transform="translate(11.999999, 12.000000)" fill="#FFFFFF">
            <path d="M28.8110016,30.215 L30.7000016,30.87 L26.5270016,42.899 L24.6380016,42.244 L28.8110016,30.215 Z M22.9960016,33.358 L19.9240016,36.456 L22.9350016,39.548 L21.5010016,40.944 L17.8060016,37.148 C17.4260016,36.757 17.4290016,36.133 17.8130016,35.746 L21.5760016,31.95 L22.9960016,33.358 Z M37.8550016,35.746 C38.2390016,36.133 38.2420016,36.757 37.8620016,37.148 L34.1650016,40.944 L32.7320016,39.548 L35.7430016,36.456 L32.6720016,33.358 L34.0920016,31.95 L37.8550016,35.746 Z M45.0310016,39.815 L41.5830016,41.538 C41.2450016,41.708 41.0310016,42.054 41.0310016,42.433 L41.0310016,48.391 L32.9130016,53.387 L29.0310016,51.17 L29.0310016,46 L27.0310016,46 L27.0310016,51.17 L23.1490016,53.387 L15.0310016,48.391 L15.0310016,42.432 C15.0310016,42.053 14.8170016,41.707 14.4780016,41.538 L11.0310016,39.814 L11.0300016,35.92 L11.0310016,31.55 L14.6370016,28.802 C14.8850016,28.613 15.0310016,28.319 15.0310016,28.007 L15.0310016,22.451 L22.4650016,18.115 L27.0310016,20.664 L27.0310016,27 L29.0310016,27 L29.0310016,20.664 L33.5960016,18.115 L41.0310016,22.451 L41.0310016,28.007 C41.0310016,28.319 41.1760016,28.613 41.4240016,28.802 L45.0310016,31.549 L45.0320016,35.92 L45.0310016,39.815 Z M46.6370016,30.259 L43.0310016,27.511 L43.0310016,21.877 C43.0310016,21.522 42.8420016,21.193 42.5350016,21.013 L34.1110016,16.1 C33.8050016,15.921 33.4270016,15.918 33.1200016,16.09 L28.0310016,18.932 L22.9420016,16.09 C22.6330016,15.919 22.2560016,15.921 21.9510016,16.1 L13.5270016,21.013 C13.2190016,21.193 13.0310016,21.522 13.0310016,21.877 L13.0310016,27.512 L9.42400158,30.259 C9.17600158,30.448 9.03100158,30.743 9.03100158,31.055 L9.03000158,35.92 L9.03100158,40.432 C9.03100158,40.811 9.24500158,41.157 9.58300158,41.327 L13.0310016,43.05 L13.0310016,48.95 C13.0310016,49.297 13.2100016,49.619 13.5060016,49.801 L22.6060016,55.402 C22.9170016,55.592 23.3070016,55.599 23.6260016,55.418 L28.0310016,52.902 L32.4350016,55.418 C32.5890016,55.506 32.7600016,55.55 32.9310016,55.55 C33.1130016,55.55 33.2940016,55.5 33.4560016,55.402 L42.5550016,49.801 C42.8510016,49.619 43.0310016,49.297 43.0310016,48.95 L43.0310016,43.051 L46.4780016,41.327 C46.8170016,41.158 47.0310016,40.812 47.0310016,40.433 L47.0320016,35.92 L47.0310016,31.054 C47.0310016,30.742 46.8850016,30.448 46.6370016,30.259 L46.6370016,30.259 Z M18.0310016,5.5 C18.0310016,6.328 17.3590016,7 16.5310016,7 C15.7020016,7 15.0310016,6.328 15.0310016,5.5 C15.0310016,4.671 15.7020016,4 16.5310016,4 C17.3590016,4 18.0310016,4.671 18.0310016,5.5 L18.0310016,5.5 Z M13.0310016,5.5 C13.0310016,6.328 12.3590016,7 11.5310016,7 C10.7020016,7 10.0310016,6.328 10.0310016,5.5 C10.0310016,4.671 10.7020016,4 11.5310016,4 C12.3590016,4 13.0310016,4.671 13.0310016,5.5 L13.0310016,5.5 Z M8.03100158,5.5 C8.03100158,6.328 7.35900158,7 6.53100158,7 C5.70200158,7 5.03100158,6.328 5.03100158,5.5 C5.03100158,4.671 5.70200158,4 6.53100158,4 C7.35900158,4 8.03100158,4.671 8.03100158,5.5 L8.03100158,5.5 Z M2.03100158,9 L2.03600158,2.093 C2.03600158,2.049 2.08800158,2 2.16200158,2 L53.9050016,2 C53.9790016,2 54.0310016,2.049 54.0310016,2.093 L54.0310016,9 L2.03100158,9 Z M53.9050016,3.55271368e-15 L2.15700158,3.55271368e-15 C0.98700158,3.55271368e-15 0.0330015796,0.938 0.0310015796,2.091 L7.89163078e-07,38.904 C-0.000998420425,40.052 0.94700158,40.992 2.12000158,41 L6.03100158,40.998 L6.03100158,39 L2.15500158,39.001 C2.08200158,39.001 2.03100158,38.952 2.03100158,38.908 L2.05400158,11 L54.0310016,11 L54.0310016,38.897 C54.0310016,38.952 53.9730016,38.999 53.9050016,38.999 L50.0310016,39 L50.0310016,41 L53.9050016,40.999 C55.0770016,40.999 56.0310016,40.056 56.0310016,38.897 L56.0310016,2.093 C56.0310016,0.939 55.0770016,3.55271368e-15 53.9050016,3.55271368e-15 L53.9050016,3.55271368e-15 Z" id="Fill-1"></path>
        </g>
    </g>
</svg>