<?xml version="1.0" encoding="UTF-8"?>
<svg width="80px" height="80px" viewBox="0 0 80 80" version="1.1" xmlns="http://www.w3.org/2000/svg" xmlns:xlink="http://www.w3.org/1999/xlink">
    <title>Icon-Architecture/64/Arch_AWS-HealthImaging_64</title>
    <g id="Icon-Architecture/64/Arch_AWS-HealthImaging_64" stroke="none" stroke-width="1" fill="none" fill-rule="evenodd">
        <g id="Icon-Architecture-BG/64/Machine-Learning" fill="#01A88D">
            <rect id="Rectangle" x="0" y="0" width="80" height="80"></rect>
        </g>
        <g id="Icon-Service/64/AWS-HealthImaging_64" transform="translate(12.270000, 12.200000)" fill="#FFFFFF">
            <path d="M31.7184064,37.7895814 L33.7184064,37.7895814 L33.7184064,23.7895814 L31.7184064,23.7895814 L31.7184064,37.7895814 Z M25.7184064,26.7895814 L27.7184064,26.7895814 L27.7184064,17.7895814 L25.7184064,17.7895814 L25.7184064,26.7895814 Z M25.7184064,41.7895814 L27.7184064,41.7895814 L27.7184064,37.7895814 L25.7184064,37.7895814 L25.7184064,41.7895814 Z M25.7184064,35.7895814 L27.7184064,35.7895814 L27.7184064,28.7895814 L25.7184064,28.7895814 L25.7184064,35.7895814 Z M19.7184064,47.7895814 L21.7184064,47.7895814 L21.7184064,44.7895814 L19.7184064,44.7895814 L19.7184064,47.7895814 Z M19.7184064,41.7895814 L21.7184064,41.7895814 L21.7184064,32.7895814 L19.7184064,32.7895814 L19.7184064,41.7895814 Z M52.7184064,44.7895814 L48.7184064,44.7895814 C48.1654064,44.7895814 47.7184064,44.3415814 47.7184064,43.7895814 L47.7184064,38.7895814 L43.7184064,38.7895814 L43.7184064,43.7895814 C43.7184064,44.3415814 43.2714064,44.7895814 42.7184064,44.7895814 L38.7184064,44.7895814 L38.7184064,48.7895814 L42.7184064,48.7895814 C43.2714064,48.7895814 43.7184064,49.2375814 43.7184064,49.7895814 L43.7184064,53.7895814 L47.7184064,53.7895814 L47.7184064,49.7895814 C47.7184064,49.2375814 48.1654064,48.7895814 48.7184064,48.7895814 L52.7184064,48.7895814 L52.7184064,44.7895814 Z M54.7184064,43.7895814 L54.7184064,49.7895814 C54.7184064,50.3415814 54.2714064,50.7895814 53.7184064,50.7895814 L49.7184064,50.7895814 L49.7184064,54.7895814 C49.7184064,55.3415814 49.2714064,55.7895814 48.7184064,55.7895814 L42.7184064,55.7895814 C42.1654064,55.7895814 41.7184064,55.3415814 41.7184064,54.7895814 L41.7184064,50.7895814 L37.7184064,50.7895814 C37.1654064,50.7895814 36.7184064,50.3415814 36.7184064,49.7895814 L36.7184064,43.7895814 C36.7184064,43.2375814 37.1654064,42.7895814 37.7184064,42.7895814 L41.7184064,42.7895814 L41.7184064,37.7895814 C41.7184064,37.2375814 42.1654064,36.7895814 42.7184064,36.7895814 L48.7184064,36.7895814 C49.2714064,36.7895814 49.7184064,37.2375814 49.7184064,37.7895814 L49.7184064,42.7895814 L53.7184064,42.7895814 C54.2714064,42.7895814 54.7184064,43.2375814 54.7184064,43.7895814 L54.7184064,43.7895814 Z M9.71840643,53.5205814 L9.71840643,27.0585814 C9.71840643,26.9105814 9.83840643,26.7895814 9.98640643,26.7895814 L22.7184064,26.7895814 L22.7184064,24.7895814 L9.98640643,24.7895814 C8.73640643,24.7895814 7.71840643,25.8075814 7.71840643,27.0585814 L7.71840643,53.5205814 C7.71840643,54.7715814 8.73640643,55.7895814 9.98640643,55.7895814 L38.7184064,55.7895814 L38.7184064,53.7895814 L9.98640643,53.7895814 C9.83840643,53.7895814 9.71840643,53.6685814 9.71840643,53.5205814 L9.71840643,53.5205814 Z M47.7184064,34.7895814 L47.7184064,27.0585814 C47.7184064,25.8075814 46.7004064,24.7895814 45.4494064,24.7895814 L36.7184064,24.7895814 L36.7184064,26.7895814 L45.4494064,26.7895814 C45.5984064,26.7895814 45.7184064,26.9105814 45.7184064,27.0585814 L45.7184064,34.7895814 L47.7184064,34.7895814 Z M55.2934064,25.4935814 C55.2934064,25.6875814 55.2934064,25.8785814 55.2894064,26.0665814 C55.2894064,26.1535814 55.2754064,28.7515814 53.8224064,31.4295814 L52.0654064,30.4765814 C53.2774064,28.2405814 53.2894064,26.0675814 53.2894064,26.0455814 C53.2934064,25.8495814 53.2934064,25.6735814 53.2934064,25.4935814 C53.2934064,19.0095814 48.8914064,17.4885814 45.5794064,16.9095814 C45.5364064,16.9015814 45.4934064,16.8915814 45.4514064,16.8775814 L45.1134064,16.7715814 C44.6474064,16.6245814 44.3554064,16.1605814 44.4244064,15.6755814 C44.7904064,13.1325814 43.7664064,11.1275814 41.6824064,10.3105814 C40.0654064,9.67658139 37.7264064,9.85658139 36.4174064,11.7515814 C36.2034064,12.0615814 35.8314064,12.2265814 35.4594064,12.1735814 C35.0864064,12.1225814 34.7734064,11.8665814 34.6504064,11.5105814 C33.8624064,9.24058139 32.7214064,7.33158139 31.2564064,5.83658139 C29.4644064,4.00558139 24.5494064,0.069581395 17.6044064,3.06158139 C13.1854064,4.96758139 10.4394064,8.76558139 10.4394064,12.9725814 L10.5354064,16.0625814 C10.5494064,16.5295814 10.2394064,16.9435814 9.78740643,17.0615814 L9.54040643,17.1255814 C6.28140643,17.9715814 2.58640643,18.9295814 2.01240643,25.0845814 C1.99240643,25.2905814 1.99840643,25.9005814 2.01540643,26.3465814 L0.0174064253,26.4215814 C0.0154064253,26.3785814 -0.0225935747,25.3575814 0.0204064253,24.8975814 C0.690406425,17.7375814 5.22240643,16.1995814 8.51140643,15.3275814 L8.43940643,13.0035814 C8.43940643,7.95358139 11.6484064,3.45258139 16.8134064,1.22558139 C22.4154064,-1.19041861 28.3504064,0.00958139496 32.6864064,4.43658139 C34.0184064,5.79758139 35.1114064,7.44458139 35.9474064,9.34758139 C37.6884064,7.94358139 40.1424064,7.55858139 42.4124064,8.44858139 C44.5584064,9.28958139 46.6584064,11.4485814 46.4914064,15.0475814 C52.3334064,16.2485814 55.2934064,19.7605814 55.2934064,25.4935814 L55.2934064,25.4935814 Z" id="Fill-1"></path>
        </g>
    </g>
</svg>