<?xml version="1.0" encoding="UTF-8"?>
<svg width="80px" height="80px" viewBox="0 0 80 80" version="1.1" xmlns="http://www.w3.org/2000/svg" xmlns:xlink="http://www.w3.org/1999/xlink">
    <title>Icon-Architecture/64/Arch_Amazon-Monitron_64</title>
    <g id="Icon-Architecture/64/Arch_Amazon-Monitron_64" stroke="none" stroke-width="1" fill="none" fill-rule="evenodd">
        <g id="Icon-Architecture-BG/64/Machine-Learning" fill="#01A88D">
            <rect id="Rectangle" x="0" y="0" width="80" height="80"></rect>
        </g>
        <g id="Icon-Service/64/Amazon-Monitron_64" transform="translate(12.000000, 12.000000)" fill="#FFFFFF">
            <path d="M28.5,11 C37.429,11 44.707,18.134 44.975,27 L37.769,27 L33.248,16.675 C33.087,16.305 32.716,16.099 32.311,16.076 C31.906,16.085 31.546,16.337 31.399,16.714 L24.102,35.524 L20.053,27.547 C19.883,27.211 19.538,27 19.161,27 L12.025,27 C12.293,18.134 19.571,11 28.5,11 L28.5,11 Z M28.5,44 C19.908,44 12.837,37.397 12.076,29 L18.547,29 L23.332,38.427 C23.511,38.779 23.886,39.006 24.273,38.973 C24.668,38.953 25.014,38.704 25.156,38.336 L32.388,19.697 L36.199,28.401 C36.358,28.765 36.718,29 37.115,29 L44.924,29 C44.163,37.397 37.092,44 28.5,44 L28.5,44 Z M10.076,29 C10.844,38.5 18.805,46 28.5,46 C38.195,46 46.156,38.5 46.924,29 L55,29 C55.553,29 56,28.552 56,28 L56,23.125 C56,21.954 55.047,21 53.875,21 L50.063,21 C49.635,19.579 49.062,18.198 48.353,16.878 L51.05,14.18 C51.878,13.351 51.878,12.002 51.05,11.174 L44.826,4.951 C44.023,4.147 42.623,4.148 41.82,4.951 L39.123,7.648 C37.804,6.94 36.423,6.366 35,5.936 L35,2.125 C35,0.954 34.047,0 32.875,0 L23.125,0 C21.953,0 21,0.954 21,2.125 L21,5.936 C19.577,6.366 18.196,6.94 16.877,7.648 L14.18,4.951 C13.377,4.147 11.977,4.148 11.174,4.951 L4.95,11.174 C4.122,12.002 4.122,13.351 4.95,14.18 L7.647,16.878 C6.938,18.198 6.365,19.579 5.937,21 L2.125,21 C0.953,21 0,21.954 0,23.125 L0,24 L2,24 L2,23.125 C2,23.056 2.056,23 2.125,23 L6.692,23 C7.146,23 7.543,22.694 7.659,22.255 C8.123,20.498 8.828,18.8 9.754,17.208 C9.982,16.816 9.918,16.319 9.597,15.999 L6.364,12.767 C6.315,12.717 6.315,12.637 6.364,12.588 L12.588,6.365 L12.608,6.365 C12.655,6.365 12.765,6.364 12.766,6.365 L15.998,9.597 C16.319,9.919 16.815,9.982 17.208,9.754 C18.798,8.829 20.497,8.124 22.256,7.659 C22.694,7.542 23,7.146 23,6.692 L23,2.125 C23,2.056 23.056,2 23.125,2 L32.875,2 C32.944,2 33,2.056 33,2.125 L33,6.692 C33,7.146 33.306,7.542 33.744,7.659 C35.503,8.124 37.202,8.829 38.792,9.754 C39.186,9.982 39.681,9.919 40.002,9.597 L43.234,6.365 L43.255,6.365 C43.302,6.365 43.412,6.364 43.412,6.365 L49.636,12.588 C49.685,12.637 49.685,12.717 49.636,12.766 L46.403,15.999 C46.082,16.319 46.018,16.816 46.246,17.208 C47.172,18.8 47.877,20.498 48.341,22.255 C48.457,22.694 48.854,23 49.308,23 L53.875,23 C53.944,23 54,23.056 54,23.125 L54,27 L46.975,27 C46.706,17.031 38.532,9 28.5,9 C18.468,9 10.294,17.031 10.025,27 L1,27 C0.447,27 0,27.448 0,28 L0,32.875 C0,34.046 0.953,35 2.125,35 L7.008,35 C7.437,36.424 8.008,37.806 8.712,39.123 L6.024,41.824 C5.202,42.651 5.203,43.996 6.024,44.822 L12.215,51.042 C12.616,51.446 13.15,51.668 13.72,51.668 L13.722,51.668 C14.291,51.668 14.826,51.446 15.229,51.042 L17.903,48.354 C19.214,49.061 20.586,49.633 22,50.063 L22,53.875 C22,55.046 22.953,56 24.125,56 L32.875,56 C34.047,56 35,55.046 35,53.875 L35,50.063 C36.414,49.633 37.786,49.061 39.097,48.354 L41.772,51.043 C42.174,51.446 42.709,51.668 43.278,51.668 L43.28,51.668 C43.85,51.668 44.384,51.446 44.785,51.042 L50.976,44.822 C51.797,43.996 51.798,42.651 50.976,41.823 L48.288,39.123 C48.992,37.806 49.563,36.424 49.992,35 L53.875,35 C55.047,35 56,34.046 56,32.875 L56,32 L54,32 L54,32.875 C54,32.944 53.944,33 53.875,33 L49.235,33 C48.781,33 48.384,33.306 48.269,33.745 C47.804,35.508 47.102,37.206 46.183,38.793 C45.956,39.185 46.02,39.679 46.339,40 L49.558,43.233 C49.606,43.283 49.606,43.363 49.558,43.411 L43.367,49.631 L43.318,49.631 C43.268,49.63 43.188,49.631 43.189,49.631 L39.979,46.404 C39.655,46.082 39.157,46.018 38.765,46.247 C37.184,47.171 35.493,47.876 33.743,48.342 C33.305,48.458 33,48.855 33,49.308 L33,53.875 C33,53.944 32.944,54 32.875,54 L24.125,54 C24.056,54 24,53.944 24,53.875 L24,49.308 C24,48.855 23.695,48.458 23.257,48.342 C21.507,47.876 19.816,47.171 18.235,46.247 C17.842,46.018 17.344,46.082 17.021,46.404 L13.811,49.631 L14.52,50.337 L13.633,49.631 L7.442,43.412 C7.394,43.363 7.394,43.283 7.442,43.234 L10.661,40 C10.98,39.679 11.044,39.185 10.817,38.793 C9.898,37.206 9.196,35.508 8.731,33.745 C8.616,33.306 8.219,33 7.765,33 L2.125,33 C2.056,33 2,32.944 2,32.875 L2,29 L10.076,29 Z" id="Fill-1"></path>
        </g>
    </g>
</svg>