<?xml version="1.0" encoding="UTF-8"?>
<svg width="80px" height="80px" viewBox="0 0 80 80" version="1.1" xmlns="http://www.w3.org/2000/svg" xmlns:xlink="http://www.w3.org/1999/xlink">
    <title>Icon-Architecture/64/Arch_TorchServe_64</title>
    <g id="Icon-Architecture/64/Arch_TorchServe_64" stroke="none" stroke-width="1" fill="none" fill-rule="evenodd">
        <g id="Icon-Architecture-BG/64/Machine-Learning" fill="#01A88D">
            <rect id="Rectangle" x="0" y="0" width="80" height="80"></rect>
        </g>
        <g id="Icon-Service/64/TorchServe_64" transform="translate(16.000200, 12.000000)" fill="#FFFFFF">
            <path d="M30.24,9.103 C30.24,10.387 31.285,11.432 32.569,11.432 C33.853,11.432 34.898,10.387 34.898,9.103 C34.898,7.819 33.853,6.774 32.569,6.774 C31.285,6.774 30.24,7.819 30.24,9.103 M28.24,9.103 C28.24,6.716 30.182,4.774 32.569,4.774 C34.956,4.774 36.898,6.716 36.898,9.103 C36.898,11.49 34.956,13.432 32.569,13.432 C30.182,13.432 28.24,11.49 28.24,9.103 M47.115,31.89 C47.115,44.88 36.547,55.448 23.557,55.448 C10.568,55.448 -3.55271368e-15,44.88 -3.55271368e-15,31.89 C-3.55271368e-15,25.441 2.555,19.422 7.196,14.941 L22.808,-3.55271368e-15 L24.191,1.445 L8.582,16.383 C4.339,20.48 2,25.989 2,31.89 C2,43.777 11.671,53.448 23.557,53.448 C35.444,53.448 45.115,43.777 45.115,31.89 C45.115,25.928 42.735,20.38 38.414,16.269 L39.793,14.82 C44.514,19.312 47.115,25.374 47.115,31.89" id="TorchServe-Icon_64_Squid"></path>
        </g>
    </g>
</svg>