<?xml version="1.0" encoding="UTF-8"?>
<svg width="80px" height="80px" viewBox="0 0 80 80" version="1.1" xmlns="http://www.w3.org/2000/svg" xmlns:xlink="http://www.w3.org/1999/xlink">
    <title>Icon-Architecture/64/Arch_Amazon-DevOps-Guru_64</title>
    <g id="Icon-Architecture/64/Arch_Amazon-DevOps-Guru_64" stroke="none" stroke-width="1" fill="none" fill-rule="evenodd">
        <g id="Icon-Architecture-BG/64/Machine-Learning" fill="#01A88D">
            <rect id="Rectangle" x="0" y="0" width="80" height="80"></rect>
        </g>
        <g id="Icon-Service/64/Amazon-DevOps-Guru_64" transform="translate(12.000000, 12.000000)" fill="#FFFFFF">
            <path d="M23.888,50.588 C23.916,50.1 23.587,49.663 23.111,49.556 C20.665,49.002 18.347,48.041 16.22,46.697 C15.807,46.436 15.265,46.509 14.94,46.877 L12.66,49.431 L6.57,43.339 L9.123,41.062 C9.488,40.737 9.564,40.195 9.303,39.782 C7.962,37.657 7.003,35.339 6.452,32.892 C6.345,32.414 5.897,32.088 5.42,32.112 L2,32.308 L2,23.692 L5.428,23.888 C5.889,23.903 6.351,23.588 6.46,23.11 C7.013,20.671 7.975,18.357 9.317,16.232 C9.577,15.818 9.501,15.277 9.137,14.952 L6.57,12.661 L12.661,6.569 L14.95,9.135 C15.276,9.5 15.818,9.576 16.23,9.315 C18.352,7.977 20.666,7.019 23.11,6.467 C23.587,6.359 23.916,5.923 23.888,5.435 L23.693,2 L32.308,2 L32.113,5.438 C32.084,5.925 32.413,6.361 32.89,6.469 C35.33,7.022 37.644,7.981 39.766,9.319 C40.176,9.579 40.72,9.505 41.045,9.14 L43.339,6.569 L49.431,12.661 L46.867,14.948 C46.503,15.273 46.427,15.815 46.688,16.228 C48.029,18.349 48.989,20.665 49.542,23.11 C49.65,23.588 50.119,23.903 50.575,23.888 L54,23.692 L54,32.308 L50.577,32.112 C50.119,32.085 49.654,32.413 49.545,32.891 C48.994,35.335 48.034,37.652 46.694,39.778 C46.433,40.192 46.509,40.733 46.873,41.058 L49.431,43.339 L43.34,49.431 L41.065,46.881 C40.738,46.514 40.197,46.442 39.784,46.701 C37.661,48.043 35.342,49.005 32.89,49.558 C32.413,49.666 32.084,50.103 32.113,50.591 L32.308,54 L23.693,54 L23.888,50.588 Z M34.093,55.687 C34.283,55.486 34.38,55.217 34.365,54.943 L34.157,51.307 C36.253,50.755 38.255,49.926 40.126,48.833 L42.552,51.552 C42.735,51.758 42.994,51.879 43.27,51.886 C43.535,51.899 43.811,51.789 44.005,51.594 L51.594,44.005 C51.788,43.811 51.895,43.545 51.887,43.27 C51.879,42.994 51.758,42.735 51.553,42.552 L48.825,40.119 C49.917,38.247 50.745,36.248 51.295,34.157 L54.944,34.365 C55.213,34.376 55.488,34.282 55.687,34.093 C55.887,33.904 56,33.641 56,33.366 L56,22.634 C56,22.359 55.887,22.096 55.687,21.907 C55.488,21.718 55.214,21.618 54.944,21.635 L51.291,21.843 C50.74,19.753 49.911,17.755 48.821,15.886 L51.553,13.449 C51.758,13.266 51.879,13.006 51.887,12.731 C51.895,12.456 51.788,12.19 51.594,11.996 L44.005,4.407 C43.811,4.212 43.533,4.108 43.27,4.114 C42.994,4.122 42.736,4.243 42.552,4.448 L40.107,7.188 C38.239,6.099 36.243,5.272 34.157,4.721 L34.365,1.057 C34.38,0.782 34.283,0.513 34.093,0.314 C33.905,0.113 33.642,0 33.367,0 L22.634,0 C22.359,0 22.096,0.113 21.908,0.314 C21.718,0.513 21.62,0.782 21.636,1.057 L21.844,4.718 C19.754,5.268 17.758,6.094 15.889,7.183 L13.449,4.448 C13.266,4.243 13.006,4.122 12.731,4.114 C12.472,4.11 12.19,4.212 11.995,4.407 L4.407,11.996 C4.212,12.19 4.106,12.456 4.114,12.731 C4.121,13.006 4.242,13.266 4.448,13.449 L7.184,15.89 C6.092,17.761 5.263,19.757 4.712,21.844 L1.057,21.635 C0.785,21.617 0.513,21.718 0.314,21.907 C0.114,22.096 0,22.359 0,22.634 L0,33.366 C0,33.641 0.114,33.904 0.314,34.093 C0.513,34.282 0.786,34.377 1.057,34.365 L4.702,34.157 C5.252,36.251 6.079,38.251 7.171,40.123 L4.448,42.552 C4.242,42.735 4.121,42.994 4.114,43.27 C4.106,43.545 4.212,43.811 4.407,44.005 L11.995,51.594 C12.19,51.789 12.469,51.897 12.731,51.886 C13.006,51.879 13.266,51.758 13.449,51.552 L15.878,48.829 C17.751,49.922 19.752,50.753 21.844,51.304 L21.636,54.943 C21.62,55.218 21.718,55.486 21.908,55.687 C22.096,55.887 22.359,56 22.634,56 L33.367,56 C33.642,56 33.905,55.887 34.093,55.687 L34.093,55.687 Z M25.985,33.788 L36.146,23.627 L34.732,22.213 L25.278,31.667 L21.269,27.658 L19.855,29.072 L24.571,33.788 C24.766,33.983 25.022,34.081 25.278,34.081 C25.534,34.081 25.789,33.983 25.985,33.788 L25.985,33.788 Z M48.101,27.161 L44.364,29.156 C44.975,20.545 38.762,12.824 30.095,11.71 C23.077,10.807 16.297,14.474 13.217,20.834 L15.016,21.706 C17.723,16.121 23.68,12.9 29.839,13.693 C37.361,14.66 42.782,21.292 42.392,28.745 L39.712,26.102 L38.308,27.526 L42.997,32.152 L49.042,28.925 L48.101,27.161 Z M42.784,35.166 C40.014,40.884 34.249,44.426 28.016,44.426 C27.317,44.426 26.614,44.382 25.906,44.291 C17.239,43.176 11.026,35.455 11.637,26.844 L7.9,28.839 L6.958,27.075 L13.003,23.848 L17.693,28.475 L16.288,29.899 L13.609,27.255 C13.219,34.709 18.64,41.34 26.161,42.307 C32.306,43.098 38.279,39.88 40.984,34.294 L42.784,35.166 Z" id="Fill-1"></path>
        </g>
    </g>
</svg>