<?xml version="1.0" encoding="UTF-8"?>
<svg width="80px" height="80px" viewBox="0 0 80 80" version="1.1" xmlns="http://www.w3.org/2000/svg" xmlns:xlink="http://www.w3.org/1999/xlink">
    <title>Icon-Architecture/64/Arch_AWS-Deep-Learning-AMIs_64</title>
    <g id="Icon-Architecture/64/Arch_AWS-Deep-Learning-AMIs_64" stroke="none" stroke-width="1" fill="none" fill-rule="evenodd">
        <g id="Icon-Architecture-BG/64/Machine-Learning" fill="#01A88D">
            <rect id="Rectangle" x="0" y="0" width="80" height="80"></rect>
        </g>
        <g id="Icon-Service/64/AWS-Deep-Learning-AMIs_64" transform="translate(12.000000, 12.000000)" fill="#FFFFFF">
            <path d="M47.5,53.999 C45.57,53.999 44,52.429 44,50.499 C44,48.569 45.57,46.999 47.5,46.999 C49.43,46.999 51,48.569 51,50.499 C51,52.429 49.43,53.999 47.5,53.999 L47.5,53.999 Z M17.501,53.998 C15.571,53.998 14.001,52.428 14.001,50.499 C14.001,48.569 15.571,46.999 17.501,46.999 C19.431,46.999 21,48.569 21,50.499 C21,52.428 19.431,53.998 17.501,53.998 L17.501,53.998 Z M8.731,32.44 C9.099,32.172 9.435,31.863 9.726,31.515 L17,35.366 L17,45.024 C16.533,45.067 16.086,45.171 15.66,45.323 L8.731,32.44 Z M2,27.999 C2,26.069 3.57,24.499 5.5,24.499 C7.43,24.499 9,26.069 9,27.999 C9,29.929 7.43,31.499 5.5,31.499 C3.57,31.499 2,29.929 2,27.999 L2,27.999 Z M15.312,10.541 C15.837,10.77 16.404,10.919 17,10.974 L17,20.632 L9.726,24.483 C9.366,24.053 8.94,23.68 8.467,23.375 L15.312,10.541 Z M17.501,2 C19.431,2 21,3.57 21,5.499 C21,7.429 19.431,8.999 17.501,8.999 C15.571,8.999 14.001,7.429 14.001,5.499 C14.001,3.57 15.571,2 17.501,2 L17.501,2 Z M28.8,14.385 L22.4,7.985 C22.709,7.378 22.91,6.709 22.975,5.999 L42.025,5.999 C42.064,6.431 42.155,6.847 42.288,7.244 L28.8,14.385 Z M19,19.573 L19,10.786 C19.817,10.554 20.556,10.137 21.171,9.583 L26.951,15.364 L19,19.573 Z M26.95,40.634 L21.17,46.414 C20.555,45.861 19.817,45.444 19,45.212 L19,36.425 L26.95,40.634 Z M42.289,48.754 C42.155,49.151 42.064,49.567 42.025,49.999 L22.975,49.999 C22.91,49.289 22.709,48.619 22.399,48.013 L28.8,41.612 L42.289,48.754 Z M47.499,2 C49.429,2 50.999,3.57 50.999,5.499 C50.999,7.429 49.429,8.999 47.499,8.999 C45.569,8.999 44,7.429 44,5.499 C44,3.57 45.569,2 47.499,2 L47.499,2 Z M47.5,44.999 C45.794,44.999 44.267,45.78 43.257,47.003 L30.279,40.133 L31.706,38.706 L30.292,37.292 L28.43,39.154 L19,34.162 L19,30.999 L17,30.999 L17,33.103 L10.702,29.769 C10.787,29.52 10.855,29.263 10.904,28.999 L28,28.999 L28,26.999 L10.904,26.999 C10.855,26.735 10.787,26.478 10.702,26.229 L17,22.895 L17,24.999 L19,24.999 L19,21.836 L28.431,16.844 L30.293,18.706 L31.707,17.292 L30.279,15.865 L43.257,8.995 C44.266,10.218 45.793,10.999 47.499,10.999 C50.531,10.999 52.999,8.532 52.999,5.499 C52.999,2.467 50.531,3.55271368e-15 47.499,3.55271368e-15 C44.987,3.55271368e-15 42.869,1.695 42.213,3.999 L22.787,3.999 C22.131,1.695 20.013,3.55271368e-15 17.501,3.55271368e-15 C14.469,3.55271368e-15 12.001,2.467 12.001,5.499 C12.001,7.03 12.631,8.416 13.645,9.414 L6.606,22.611 C6.249,22.538 5.879,22.499 5.5,22.499 C2.468,22.499 0,24.966 0,27.999 C0,31.032 2.468,33.499 5.5,33.499 C5.994,33.499 6.47,33.428 6.926,33.305 L13.928,46.326 C12.751,47.335 12.001,48.83 12.001,50.499 C12.001,53.531 14.469,55.998 17.501,55.998 C20.013,55.998 22.131,54.303 22.787,51.999 L42.213,51.999 C42.868,54.304 44.988,55.999 47.5,55.999 C50.532,55.999 53,53.532 53,50.499 C53,47.466 50.532,44.999 47.5,44.999 L47.5,44.999 Z M43,31.319 C41.169,31.319 39.68,29.83 39.68,27.999 C39.68,26.168 41.169,24.679 43,24.679 C44.831,24.679 46.32,26.168 46.32,27.999 C46.32,29.83 44.831,31.319 43,31.319 L43,31.319 Z M43,22.679 C40.066,22.679 37.68,25.065 37.68,27.999 C37.68,30.933 40.066,33.319 43,33.319 C45.934,33.319 48.32,30.933 48.32,27.999 C48.32,25.065 45.934,22.679 43,22.679 L43,22.679 Z M54,29.499 L52.425,29.499 C51.971,29.499 51.574,29.805 51.458,30.244 C51.26,30.992 50.96,31.714 50.566,32.391 C50.338,32.783 50.402,33.28 50.724,33.601 L51.839,34.716 L49.718,36.838 L48.603,35.723 C48.282,35.401 47.782,35.337 47.393,35.565 C46.717,35.959 45.994,36.259 45.244,36.457 C44.806,36.573 44.5,36.97 44.5,37.424 L44.5,38.999 L41.5,38.999 L41.5,37.424 C41.5,36.97 41.194,36.573 40.756,36.457 C40.006,36.259 39.283,35.959 38.607,35.565 C38.217,35.337 37.718,35.401 37.397,35.723 L36.282,36.838 L34.161,34.716 L35.276,33.601 C35.598,33.28 35.662,32.783 35.434,32.391 C35.04,31.714 34.74,30.992 34.542,30.244 C34.426,29.805 34.029,29.499 33.575,29.499 L32,29.499 L32,26.499 L33.575,26.499 C34.029,26.499 34.426,26.193 34.542,25.754 C34.74,25.006 35.04,24.284 35.434,23.607 C35.662,23.215 35.598,22.718 35.276,22.397 L34.161,21.281 L36.282,19.16 L37.397,20.275 C37.718,20.597 38.217,20.661 38.607,20.433 C39.283,20.04 40.006,19.739 40.756,19.541 C41.194,19.424 41.5,19.027 41.5,18.574 L41.5,16.999 L44.5,16.999 L44.5,18.574 C44.5,19.027 44.806,19.424 45.244,19.541 C45.994,19.739 46.717,20.04 47.393,20.433 C47.782,20.661 48.282,20.597 48.603,20.275 L49.718,19.16 L51.839,21.281 L50.724,22.397 C50.402,22.718 50.338,23.215 50.566,23.607 C50.96,24.284 51.26,25.006 51.458,25.754 C51.574,26.193 51.971,26.499 52.425,26.499 L54,26.499 L54,29.499 Z M54.5,24.499 L53.165,24.499 C53.022,24.086 52.854,23.681 52.662,23.287 L53.606,22.342 C54.191,21.757 54.191,20.806 53.606,20.221 L50.778,17.393 C50.194,16.808 49.241,16.808 48.657,17.393 L47.713,18.337 C47.318,18.145 46.913,17.976 46.5,17.833 L46.5,16.499 C46.5,15.672 45.827,14.999 45,14.999 L41,14.999 C40.173,14.999 39.5,15.672 39.5,16.499 L39.5,17.833 C39.087,17.976 38.682,18.145 38.287,18.337 L37.343,17.393 C36.759,16.808 35.806,16.808 35.222,17.393 L32.394,20.221 C31.809,20.806 31.809,21.757 32.394,22.342 L33.338,23.287 C33.146,23.681 32.978,24.086 32.835,24.499 L31.5,24.499 C30.673,24.499 30,25.172 30,25.999 L30,29.999 C30,30.826 30.673,31.499 31.5,31.499 L32.835,31.499 C32.978,31.912 33.146,32.317 33.338,32.711 L32.394,33.656 C32.11,33.939 31.954,34.316 31.954,34.717 C31.954,35.118 32.11,35.495 32.394,35.777 L35.222,38.605 C35.806,39.19 36.759,39.19 37.343,38.605 L38.287,37.661 C38.682,37.853 39.087,38.022 39.5,38.164 L39.5,39.499 C39.5,40.326 40.173,40.999 41,40.999 L45,40.999 C45.827,40.999 46.5,40.326 46.5,39.499 L46.5,38.164 C46.913,38.022 47.318,37.853 47.713,37.661 L48.657,38.605 C49.241,39.19 50.194,39.19 50.778,38.605 L53.605,35.778 C53.89,35.495 54.046,35.118 54.046,34.717 C54.046,34.316 53.89,33.939 53.606,33.656 L52.662,32.711 C52.854,32.317 53.022,31.912 53.165,31.499 L54.5,31.499 C55.327,31.499 56,30.826 56,29.999 L56,25.999 C56,25.172 55.327,24.499 54.5,24.499 L54.5,24.499 Z" id="AWS-Deep-Learning-AMIs_64_Squid"></path>
        </g>
    </g>
</svg>