<?xml version="1.0" encoding="UTF-8"?>
<svg width="80px" height="80px" viewBox="0 0 80 80" version="1.1" xmlns="http://www.w3.org/2000/svg" xmlns:xlink="http://www.w3.org/1999/xlink">
    <title>Icon-Architecture/64/Arch_AWS-HealthScribe_64</title>
    <g id="Icon-Architecture/64/Arch_AWS-HealthScribe_64" stroke="none" stroke-width="1" fill="none" fill-rule="evenodd">
        <g id="Icon-Architecture-BG/64/Machine-Learning" fill="#01A88D">
            <rect id="Rectangle" x="0" y="0" width="80" height="80"></rect>
        </g>
        <g id="Icon-Service/64/AWS-HealthScribe_64" transform="translate(12.510000, 12.000000)" fill="#FFFFFF">
            <path d="M24.011,41.959 C22.956,40.58 20.304,39.796 17.497,39.646 L17.497,34.723 L20.866,33.612 C20.912,33.596 20.957,33.578 21,33.556 C21.401,33.355 21.876,33.425 22.207,33.727 C24.303,35.636 28.057,38.709 31.094,39.306 C29.443,40.325 26.218,41.754 24.011,41.959 L24.011,41.959 Z M16.497,45 C12.56,45 10.497,43.743 10.497,43.308 C10.497,42.873 12.56,41.615 16.497,41.615 C20.433,41.615 22.497,42.873 22.497,43.308 C22.497,43.743 20.433,45 16.497,45 L16.497,45 Z M20.497,48.5 C20.497,49.029 18.978,50 16.497,50 C14.015,50 12.497,49.029 12.497,48.5 C12.497,47.971 14.015,47 16.497,47 C18.978,47 20.497,47.971 20.497,48.5 L20.497,48.5 Z M11.945,33.727 C12.277,33.423 12.75,33.357 13.179,33.57 L15.497,34.64 L15.497,39.646 C12.691,39.796 10.039,40.58 8.983,41.958 C6.856,41.75 4.031,40.346 2.693,39.367 C5.613,38.993 9.291,36.144 11.945,33.727 L11.945,33.727 Z M13.497,26 C13.497,24.346 14.843,23 16.497,23 C18.151,23 19.497,24.346 19.497,26 C19.497,27.654 18.151,29 16.497,29 C14.843,29 13.497,27.654 13.497,26 L13.497,26 Z M33.198,37.585 C32.908,37.465 32.553,37.409 32.082,37.409 C30.289,37.409 27.101,35.48 23.553,32.248 C22.623,31.401 21.304,31.203 20.177,31.733 L17.497,32.617 L17.497,30.899 C19.776,30.434 21.497,28.415 21.497,26 C21.497,23.243 19.254,21 16.497,21 C13.74,21 11.497,23.243 11.497,26 C11.497,28.415 13.218,30.434 15.497,30.899 L15.497,32.438 L14.046,31.768 C12.902,31.193 11.547,31.383 10.598,32.248 C7.05,35.48 3.861,37.409 2.07,37.409 C1.556,37.409 1.154,37.479 0.839,37.622 C0.314,37.862 -3.55271368e-15,38.327 -3.55271368e-15,38.867 C-3.55271368e-15,40.871 5.382,43.468 8.6,43.923 C8.933,45.006 10.131,45.811 11.735,46.325 C10.955,46.914 10.497,47.663 10.497,48.5 C10.497,50.295 12.587,51.689 15.497,51.952 L15.497,56 L17.497,56 L17.497,51.952 C20.407,51.689 22.497,50.295 22.497,48.5 C22.497,47.663 22.038,46.914 21.258,46.325 C22.863,45.811 24.062,45.005 24.395,43.921 C27.679,43.458 34.047,40.837 34.047,38.785 C34.047,38.252 33.73,37.803 33.198,37.585 L33.198,37.585 Z M30.497,26 L37.497,26 L37.497,24 L30.497,24 L30.497,26 Z M30.497,13 L39.497,13 L39.497,11 L30.497,11 L30.497,13 Z M30.497,20 L49.497,20 L49.497,18 L30.497,18 L30.497,20 Z M36.497,32 L49.497,32 L49.497,30 L36.497,30 L36.497,32 Z M40.497,26 L49.497,26 L49.497,24 L40.497,24 L40.497,26 Z M45.497,3.587 L52.236,11 L45.497,11 L45.497,3.587 Z M55.237,11.327 L45.237,0.327 C45.048,0.119 44.779,3.55271368e-15 44.497,3.55271368e-15 L24.497,3.55271368e-15 C23.944,3.55271368e-15 23.497,0.448 23.497,1 L23.497,27 L25.497,27 L25.497,2 L43.497,2 L43.497,12 C43.497,12.552 43.944,13 44.497,13 L53.497,13 L53.497,41 L38.497,41 L38.497,43 L54.497,43 C55.05,43 55.497,42.552 55.497,42 L55.497,12 C55.497,11.752 55.404,11.511 55.237,11.327 L55.237,11.327 Z" id="Fill-7"></path>
        </g>
    </g>
</svg>