<?xml version="1.0" encoding="UTF-8"?>
<svg width="80px" height="80px" viewBox="0 0 80 80" version="1.1" xmlns="http://www.w3.org/2000/svg" xmlns:xlink="http://www.w3.org/1999/xlink">
    <title>Icon-Architecture/64/Arch_AWS-Panorama_64</title>
    <g id="Icon-Architecture/64/Arch_AWS-Panorama_64" stroke="none" stroke-width="1" fill="none" fill-rule="evenodd">
        <g id="Icon-Architecture-BG/64/Machine-Learning" fill="#01A88D">
            <rect id="Rectangle" x="0" y="0" width="80" height="80"></rect>
        </g>
        <g id="Icon-Service/64/AWS-Panorama_64" transform="translate(12.000000, 12.000000)" fill="#FFFFFF">
            <path d="M48,20.0916944 C48,18.4419073 46.654,17.0993356 45,17.0993356 C43.346,17.0993356 42,18.4419073 42,20.0916944 C42,21.7414816 43.346,23.0840532 45,23.0840532 C46.654,23.0840532 48,21.7414816 48,20.0916944 L48,20.0916944 Z M50,20.0916944 C50,22.8416722 47.757,25.0789591 45,25.0789591 C42.586,25.0789591 40.565,23.3623426 40.102,21.0891474 L35,21.0891474 L35,49.0178295 L33,49.0178295 L33,20.0916944 C33,19.5411004 33.447,19.0942415 34,19.0942415 L40.102,19.0942415 C40.565,16.8210463 42.586,15.1044298 45,15.1044298 C47.757,15.1044298 50,17.3417167 50,20.0916944 L50,20.0916944 Z M31,4.98726466 C31,3.33747751 29.654,1.99490587 28,1.99490587 C26.346,1.99490587 25,3.33747751 25,4.98726466 C25,6.63705181 26.346,7.97962346 28,7.97962346 C29.654,7.97962346 31,6.63705181 31,4.98726466 L31,4.98726466 Z M29,9.87378658 L29,43.0331119 L27,43.0331119 L27,9.87378658 C24.721,9.40997097 23,7.39511604 23,4.98726466 C23,2.23728693 25.243,-3.55271368e-15 28,-3.55271368e-15 C30.757,-3.55271368e-15 33,2.23728693 33,4.98726466 C33,7.39511604 31.279,9.40997097 29,9.87378658 L29,9.87378658 Z M13,13.1095239 C14.654,13.1095239 16,11.7669522 16,10.1171651 C16,8.46737795 14.654,7.1248063 13,7.1248063 C11.346,7.1248063 10,8.46737795 10,10.1171651 C10,11.7669522 11.346,13.1095239 13,13.1095239 L13,13.1095239 Z M23,25.5068664 L23,49.0178295 L21,49.0178295 L21,26.2589459 L12.726,23.8999697 C12.296,23.7782805 12,23.3862815 12,22.9414175 L12,15.003687 C9.721,14.5398714 8,12.5260139 8,10.1171651 C8,7.36718736 10.243,5.12990043 13,5.12990043 C15.757,5.12990043 18,7.36718736 18,10.1171651 C18,12.5260139 16.279,14.5398714 14,15.003687 L14,22.1893379 L22.274,24.5473167 C22.704,24.6700034 23,25.0610049 23,25.5068664 L23,25.5068664 Z M41,50.0152824 L45,50.0152824 L45,48.0203765 L41,48.0203765 L41,50.0152824 Z M47,50.0152824 L51,50.0152824 L51,48.0203765 L47,48.0203765 L47,50.0152824 Z M50.18,56 L5.821,56 C2.606,56 0,53.4006377 0,50.1938265 L0,47.8418325 C0,44.6350213 2.606,42.0356589 5.821,42.0356589 L18,42.0356589 L18,44.0305648 L5.501,44.0305648 C3.567,44.0305648 2,45.5935736 2,47.5226475 L2,50.5140089 C2,52.4420854 3.567,54.0050941 5.5,54.0050941 L50.499,54.0050941 C52.433,54.0050941 54,52.4420854 54,50.5130114 L54,47.5216501 C54,45.5935736 52.433,44.0305648 50.5,44.0305648 L38,44.0305648 L38,42.0356589 L50.179,42.0356589 C53.394,42.0356589 56,44.6350213 56,47.8418325 L56,50.1938265 C56,53.4006377 53.394,56 50.18,56 L50.18,56 Z" id="Fill-3"></path>
        </g>
    </g>
</svg>