<?xml version="1.0" encoding="UTF-8"?>
<svg width="80px" height="80px" viewBox="0 0 80 80" version="1.1" xmlns="http://www.w3.org/2000/svg" xmlns:xlink="http://www.w3.org/1999/xlink">
    <title>Icon-Architecture/64/Arch_Amazon-Comprehend-Medical_64</title>
    <g id="Icon-Architecture/64/Arch_Amazon-Comprehend-Medical_64" stroke="none" stroke-width="1" fill="none" fill-rule="evenodd">
        <g id="Icon-Architecture-BG/64/Machine-Learning" fill="#01A88D">
            <rect id="Rectangle" x="0" y="0" width="80" height="80"></rect>
        </g>
        <g id="Icon-Service/64/Amazon-Comprehend-Medical_64" transform="translate(12.000000, 12.000000)" fill="#FFFFFF">
            <path d="M8.96593273,6.581 L8.96593273,41.908 L2.17593273,7.978 L8.96593273,6.581 Z M39.9659327,3.227 L45.3359327,8 L39.9659327,8 L39.9659327,3.227 Z M10.9659327,2 L37.9659327,2 L37.9659327,9 C37.9659327,9.553 38.4129327,10 38.9659327,10 L46.9659327,10 L46.9659327,33 L48.9659327,33 L48.9659327,9 C48.9659327,8.715 48.8439327,8.443 48.6299327,8.253 L39.6299327,0.253 C39.4469327,0.09 39.2109327,-3.55271368e-15 38.9659327,-3.55271368e-15 L9.96593273,-3.55271368e-15 C9.41293273,-3.55271368e-15 8.96593273,0.448 8.96593273,1 L8.96593273,4.539 L0.79893273,6.22 C0.25993273,6.331 -0.0890672699,6.856 0.0199327301,7.395 L8.98593273,52.197 L9.00493273,52.193 C9.09693273,52.65 9.48193273,53 9.96593273,53 L33.9659327,53 L33.9659327,51 L10.9659327,51 L10.9659327,2 Z M14.9659327,39 L32.9659327,39 L32.9659327,37 L14.9659327,37 L14.9659327,39 Z M14.9659327,33 L39.9659327,33 L39.9659327,31 L14.9659327,31 L14.9659327,33 Z M14.9659327,15 L33.9659327,15 L33.9659327,13 L14.9659327,13 L14.9659327,15 Z M14.9659327,27 L41.9659327,27 L41.9659327,25 L14.9659327,25 L14.9659327,27 Z M23.9659327,21 L41.9659327,21 L41.9659327,19 L23.9659327,19 L23.9659327,21 Z M14.9659327,21 L21.9659327,21 L21.9659327,19 L14.9659327,19 L14.9659327,21 Z M53.9659327,48 L48.9659327,48 C48.4129327,48 47.9659327,48.448 47.9659327,49 L47.9659327,54 L42.9659327,54 L42.9659327,49 C42.9659327,48.448 42.5189327,48 41.9659327,48 L36.9659327,48 L36.9659327,43 L41.9659327,43 C42.5189327,43 42.9659327,42.553 42.9659327,42 L42.9659327,37 L47.9659327,37 L47.9659327,42 C47.9659327,42.553 48.4129327,43 48.9659327,43 L53.9659327,43 L53.9659327,48 Z M54.9659327,41 L49.9659327,41 L49.9659327,36 C49.9659327,35.448 49.5189327,35 48.9659327,35 L41.9659327,35 C41.4129327,35 40.9659327,35.448 40.9659327,36 L40.9659327,41 L35.9659327,41 C35.4129327,41 34.9659327,41.448 34.9659327,42 L34.9659327,49 C34.9659327,49.553 35.4129327,50 35.9659327,50 L40.9659327,50 L40.9659327,55 C40.9659327,55.553 41.4129327,56 41.9659327,56 L48.9659327,56 C49.5189327,56 49.9659327,55.553 49.9659327,55 L49.9659327,50 L54.9659327,50 C55.5189327,50 55.9659327,49.553 55.9659327,49 L55.9659327,42 C55.9659327,41.448 55.5189327,41 54.9659327,41 L54.9659327,41 Z" id="Fill-1"></path>
        </g>
    </g>
</svg>