<?xml version="1.0" encoding="UTF-8"?>
<svg width="80px" height="80px" viewBox="0 0 80 80" version="1.1" xmlns="http://www.w3.org/2000/svg" xmlns:xlink="http://www.w3.org/1999/xlink">
    <title>Icon-Architecture/64/Arch_AWS-HealthOmics_64</title>
    <g id="Icon-Architecture/64/Arch_AWS-HealthOmics_64" stroke="none" stroke-width="1" fill="none" fill-rule="evenodd">
        <g id="Icon-Architecture-BG/64/Machine-Learning" fill="#01A88D">
            <rect id="Rectangle" x="0" y="0" width="80" height="80"></rect>
        </g>
        <path d="M28.1073651,24.142 C27.3103651,24.642 26.5213651,25.134 25.7453651,25.618 C22.1243651,27.872 18.7033651,30.003 16.1573651,32.056 C12.9783651,34.618 11.6123651,37.955 12.0943651,41.975 C12.4623651,45.032 14.9143651,47.953 19.5883651,50.904 L20.6573651,49.212 C18.3983651,47.786 16.7333651,46.379 15.6293651,45 L28.0013651,45 L28.0013651,43 L14.4293651,43 C14.2613651,42.576 14.1313651,42.153 14.0813651,41.736 C13.6793651,38.4 14.7693651,35.743 17.4133651,33.612 C19.8643651,31.636 23.2343651,29.537 26.8023651,27.315 C27.5813651,26.83 28.3733651,26.337 29.1713651,25.835 C31.9073651,24.117 36.9993651,20.917 36.9993651,15 L36.9993651,12 L34.9993651,12 L34.9993651,15 C34.9993651,15.346 34.9703651,15.676 34.9293651,16 L14.0023651,16 L14.0023651,12 L12.0023651,12 L12.0023651,15.986 C11.9383651,20.381 15.7833651,23.038 18.8723651,25.173 L19.1863651,25.39 L20.3253651,23.746 L20.0083651,23.528 C17.7793651,21.986 15.3223651,20.281 14.3923651,18 L34.3933651,18 C33.2383651,20.708 30.6093651,22.569 28.1073651,24.142 L28.1073651,24.142 Z M43.0013651,53 L68.0013651,53 L68.0013651,51 L43.0013651,51 L43.0013651,53 Z M43.0013651,29 L68.0013651,29 L68.0013651,27 L43.0013651,27 L43.0013651,29 Z M43.0013651,45 L56.0013651,45 L56.0013651,43 L43.0013651,43 L43.0013651,45 Z M14.6063651,62 L34.5533651,62 C33.6233651,59.72 31.1663651,58.015 28.9363651,56.473 L28.6203651,56.254 L29.7583651,54.611 L30.0733651,54.828 C33.1623651,56.963 37.0063651,59.62 36.9433651,64.015 L36.9433651,68 L34.9433651,68 L34.9433651,64 L14.0703651,64 C14.0293651,64.324 14.0013651,64.655 14.0013651,65 L14.0013651,68 L12.0013651,68 L12.0013651,65 C12.0013651,59.085 17.0923651,55.885 19.8283651,54.165 C20.6273651,53.663 21.4193651,53.17 22.1973651,52.686 C25.7653651,50.464 29.1353651,48.365 31.5863651,46.389 C34.2303651,44.258 35.3203651,41.6 34.9193651,38.265 C34.8683651,37.847 34.7383651,37.425 34.5713651,37 L23.0013651,37 L23.0013651,35 L33.3703651,35 C32.2663651,33.622 30.6013651,32.215 28.3423651,30.788 L29.4113651,29.097 C32.5233651,31.062 34.6283651,33.014 35.8103651,35 L63.0013651,35 L63.0013651,37 L36.6933651,37 C36.7873651,37.341 36.8633651,37.682 36.9053651,38.026 C37.3873651,42.046 36.0213651,45.383 32.8423651,47.945 C30.2963651,49.998 26.8763651,52.128 23.2543651,54.383 C22.4783651,54.867 21.6893651,55.358 20.8923651,55.859 C18.3903651,57.432 15.7623651,59.293 14.6063651,62 L14.6063651,62 Z" id="Fill-5" fill="#FFFFFF"></path>
    </g>
</svg>