<svg width="80" height="80" viewBox="0 0 80 80" fill="none" xmlns="http://www.w3.org/2000/svg">
<g clip-path="url(#clip0_448_4441)">
<rect width="80" height="80" fill="#01A88D"/>
<path fill-rule="evenodd" clip-rule="evenodd" d="M40 14.163L18 27.2255V53.4485L40 66.511L62 53.4485V27.2255L40 14.163ZM64 26.6562C64 26.3033 63.814 25.9766 63.5105 25.7964L40.5105 12.1401C40.1958 11.9533 39.8042 11.9533 39.4895 12.1401L16.4895 25.7964C16.186 25.9766 16 26.3033 16 26.6562V54.0178C16 54.3707 16.186 54.6975 16.4895 54.8776L39.4895 68.5339C39.8042 68.7207 40.1958 68.7207 40.5105 68.5339L63.5105 54.8776C63.814 54.6975 64 54.3707 64 54.0178V26.6562Z" fill="white"/>
<path fill-rule="evenodd" clip-rule="evenodd" d="M39.9996 40.5216L54.9996 31.7709L54.9998 48.5126C54.9998 48.8683 54.8109 49.1972 54.5037 49.3764L40.5037 57.5431C40.1923 57.7247 39.8073 57.7247 39.4959 57.5431L25.4959 49.3764C25.1887 49.1972 24.9998 48.8683 24.9998 48.5126V39.7708L26.9998 40.8954V47.9383L39.9998 55.5216L52.9998 47.9383V35.2535L39.9996 42.837L24.9996 34.087L24.9998 31.771L39.9996 40.5216ZM31.6986 29.9948L39.9998 25.1524L48.3008 29.9947L50.2854 28.837L40.5037 23.1309C40.1923 22.9493 39.8073 22.9493 39.4959 23.1309L29.7139 28.8371L31.6986 29.9948Z" fill="white"/>
</g>
<defs>
<clipPath id="clip0_448_4441">
<rect width="80" height="80" fill="white"/>
</clipPath>
</defs>
</svg>
