<?xml version="1.0" encoding="UTF-8"?>
<svg width="80px" height="80px" viewBox="0 0 80 80" version="1.1" xmlns="http://www.w3.org/2000/svg" xmlns:xlink="http://www.w3.org/1999/xlink">
    <title>Icon-Architecture/64/Arch_Amazon-SageMaker-Studio-Lab_64</title>
    <g id="Icon-Architecture/64/Arch_Amazon-SageMaker-Studio-Lab_64" stroke="none" stroke-width="1" fill="none" fill-rule="evenodd">
        <g id="Icon-Architecture-BG/64/Machine-Learning" fill="#01A88D">
            <rect id="Rectangle" x="0" y="0" width="80" height="80"></rect>
        </g>
        <g id="Icon-Service/64/Amazon-SageMaker-Studio-Lab_64" transform="translate(12.000000, 11.900000)" fill="#FFFFFF">
            <path d="M34.909,43.1456233 L54,43.1456233 L54,13.1456233 L34.909,13.1456233 L34.909,43.1456233 Z M29,43.1456233 L33,43.1456233 L33,13.1456233 L29,13.1456233 L29,18.1456233 L31,18.1456233 L31,20.1456233 L29,20.1456233 L29,27.1456233 L31,27.1456233 L31,29.1456233 L29,29.1456233 L29,36.1456233 L31,36.1456233 L31,38.1456233 L29,38.1456233 L29,43.1456233 Z M56,12.1456233 L56,44.1456233 C56,44.6976233 55.553,45.1456233 55,45.1456233 L28,45.1456233 C27.447,45.1456233 27,44.6976233 27,44.1456233 L27,38.1456233 L25,38.1456233 L25,36.1456233 L27,36.1456233 L27,29.1456233 L25,29.1456233 L25,27.1456233 L27,27.1456233 L27,20.1456233 L25,20.1456233 L25,18.1456233 L27,18.1456233 L27,12.1456233 C27,11.5936233 27.447,11.1456233 28,11.1456233 L55,11.1456233 C55.553,11.1456233 56,11.5936233 56,12.1456233 L56,12.1456233 Z M27,47.2366233 L29,47.2366233 L29,50.2616233 C29,50.6236233 28.804,50.9576233 28.487,51.1346233 L21.359,55.1176233 C21.208,55.2026233 21.04,55.2446233 20.872,55.2446233 C20.7,55.2446233 20.528,55.2006233 20.374,55.1116233 L6.502,47.1456233 C6.191,46.9676233 6,46.6366233 6,46.2786233 L6,37.7956233 L0.54,34.9636233 C0.208,34.7916233 0,34.4496233 0,34.0766233 L0,21.1456233 C0,20.7926233 0.186,20.4656233 0.49,20.2856233 L6,17.0196233 L6,8.03662332 C6,7.67062332 6.201,7.33262332 6.523,7.15862332 L19.495,0.12062332 C19.784,-0.0343766803 20.132,-0.0413766803 20.423,0.10762332 L28.45,4.17162332 C28.787,4.34162332 28.999,4.68662332 28.999,5.06262332 L29,9.05462332 L27,9.05462332 L27,5.67862332 L19.987,2.12862332 L18,3.20762332 L18,12.1456233 L16,12.1456233 L16,4.29262332 L8,8.63262332 L8,15.5886233 L14.987,19.9176233 L20,16.5586233 L20,11.1456233 L22,11.1456233 L22,17.0926233 C22,17.4256233 21.834,17.7376233 21.557,17.9226233 L16,21.6466233 L16,26.1456233 L21,26.1456233 L21,28.1456233 L15.303,28.1456233 L9.555,31.9776233 L8.445,30.3136233 L14,26.6106233 L14,21.6586233 L7.947,17.9086233 C7.872,18.1326233 7.719,18.3256233 7.51,18.4496233 L2,21.7156233 L2,26.4586233 L8.354,22.2226233 L9.464,23.8866233 L2,28.8626233 L2,33.4686233 L7.207,36.1686233 L12.407,32.3406233 L13.593,33.9506233 L8,38.0686233 L8,45.6996233 L14.584,49.4806233 L14.47,49.2976233 L17,47.7156233 L17,37.1456233 L19,37.1456233 L19,46.4656233 L22.47,44.2976233 L23.53,45.9936233 L16.339,50.4886233 L20.879,53.0956233 L27,49.6746233 L27,47.2366233 Z" id="Fill-4"></path>
        </g>
    </g>
</svg>