<?xml version="1.0" encoding="UTF-8"?>
<svg width="80px" height="80px" viewBox="0 0 80 80" version="1.1" xmlns="http://www.w3.org/2000/svg" xmlns:xlink="http://www.w3.org/1999/xlink">
    <title>Icon-Architecture/64/Arch_Amazon-Lookout-for-Equipment_64</title>
    <g id="Icon-Architecture/64/Arch_Amazon-Lookout-for-Equipment_64" stroke="none" stroke-width="1" fill="none" fill-rule="evenodd">
        <g id="Icon-Architecture-BG/64/Machine-Learning" fill="#01A88D">
            <rect id="Rectangle" x="0" y="0" width="80" height="80"></rect>
        </g>
        <g id="Icon-Service/64/Amazon-Lookout-for-Equipment_64" transform="translate(12.000000, 12.000000)" fill="#FFFFFF">
            <path d="M42,16 C42,10.486 37.514,6 32,6 C26.486,6 22,10.486 22,16 C22,17.021 22.153,18.027 22.454,18.99 L20.546,19.587 C20.184,18.431 20,17.224 20,16 C20,9.383 25.383,4 32,4 C38.617,4 44,9.383 44,16 C44,21.793 39.87,26.757 34.181,27.802 L33.819,25.835 C38.56,24.964 42,20.828 42,16 L42,16 Z M6,50 L10,50 L10,47 L6,47 L6,50 Z M11,45 L5,45 C4.447,45 4,45.448 4,46 L4,51 C4,51.552 4.447,52 5,52 L11,52 C11.553,52 12,51.552 12,51 L12,46 C12,45.448 11.553,45 11,45 L11,45 Z M16,50 L20,50 L20,47 L16,47 L16,50 Z M21,45 L15,45 C14.447,45 14,45.448 14,46 L14,51 C14,51.552 14.447,52 15,52 L21,52 C21.553,52 22,51.552 22,51 L22,46 C22,45.448 21.553,45 21,45 L21,45 Z M50,54 L2,54 L2,7 L9,7 L9,24 L9,38 L9,40 L11,40 L11,38 L11,26.261 L20,34.442 L20,40 L22,40 L22,26.135 L32,34.468 L32,42 C32,42.552 32.447,43 33,43 L50,43 L50,54 Z M2,5 L9,5 L9,2 L2,2 L2,5 Z M51,41 L34,41 L34,34 C34,33.703 33.868,33.422 33.641,33.232 L21.641,23.232 C21.342,22.983 20.926,22.931 20.576,23.094 C20.225,23.259 20,23.612 20,24 L20,31.739 L11,23.558 L11,1 C11,0.448 10.553,0 10,0 L1,0 C0.447,0 -3.55271368e-15,0.448 -3.55271368e-15,1 L-3.55271368e-15,55 C-3.55271368e-15,55.552 0.447,56 1,56 L51,56 C51.553,56 52,55.552 52,55 L52,42 C52,41.448 51.553,41 51,41 L51,41 Z M53.285,36.577 C52.608,37.349 51.522,37.869 50.749,37.19 L41.484,28.874 C42.566,28.075 43.539,27.147 44.382,26.114 L53.571,33.954 C53.884,34.228 54.026,34.593 53.996,35.039 C53.962,35.547 53.71,36.093 53.285,36.577 L53.285,36.577 Z M54.88,32.441 L45.555,24.484 C47.109,22.001 48,19.083 48,16 C48,7.178 40.822,0 32,0 C23.178,0 16,7.178 16,16 C16,17.448 16.193,18.884 16.575,20.266 L18.503,19.734 C18.169,18.525 18,17.269 18,16 C18,8.28 24.28,2 32,2 C39.72,2 46,8.28 46,16 C46,22.345 41.723,27.91 35.598,29.534 L36.109,31.467 C37.4,31.125 38.618,30.627 39.748,30.002 L49.422,38.686 C50.052,39.238 50.805,39.507 51.582,39.507 C52.695,39.507 53.859,38.956 54.789,37.896 C55.501,37.084 55.928,36.117 55.992,35.173 C56.063,34.103 55.673,33.136 54.88,32.441 L54.88,32.441 Z" id="Fill-3"></path>
        </g>
    </g>
</svg>