<svg width="40" height="40" viewBox="0 0 40 40" fill="none" xmlns="http://www.w3.org/2000/svg">
<g id="Icon-Architecture/32/Arch_AWS-Security-Incident-Response_32">
<g id="Icon-Architecture-BG/32/Security-Identity-Compliance">
<rect id="Rectangle" width="40" height="40" fill="#DD344C"/>
</g>
<g id="Icon-Service/32/AWS-Security-Incident-Response_32">
<path id="Vector" d="M12.2939 10.3115C8.14356 13.7231 6.68848 19.6128 8.75586 24.6348L7.83203 25.0156C5.59765 19.5913 7.17187 13.227 11.6592 9.53906C16.0137 5.95996 22.1201 5.47119 26.7734 8.15674L26.0303 6.3877L26.9522 6L28.3428 9.30908C28.4043 9.45508 28.3926 9.62109 28.3125 9.75732C28.2315 9.89355 28.0918 9.98339 27.9346 10L24.4141 10.3716L24.3086 9.37744L26.4854 9.14746C22.1621 6.52685 16.3936 6.94287 12.2939 10.3115ZM32.1982 14.4434L31.2744 14.8242C33.334 19.8252 31.8799 25.6958 27.7373 29.1006C23.623 32.481 18.6494 32.9053 14.4785 30.3228L16.7139 30.1162L16.6221 29.1201L13.0244 29.4531C12.8642 29.4683 12.7207 29.5591 12.6396 29.6978C12.5576 29.8359 12.5478 30.0054 12.6123 30.1524L14.0801 33.4883L14.9961 33.086L14.2285 31.3413C18.7139 33.9766 23.9961 33.4693 28.372 29.8731C32.8506 26.1919 34.4248 19.8467 32.1982 14.4434ZM25.7012 14.9326C25.8838 15.0122 26.0019 15.1924 26.0019 15.3916V21.207C26.0019 21.2656 25.9394 27.0581 20.5019 27.0581C15.0645 27.0581 15.0019 21.25 15.0019 21.1914V15.3916C15.0019 15.1924 15.1201 15.0122 15.3027 14.9326L20.3027 12.7661C20.4297 12.7114 20.5742 12.7114 20.7012 12.7661L25.7012 14.9326ZM20.0019 26.0245V13.9866L16.0019 15.7197V21.1914C16.0029 21.3812 16.0754 25.6797 20.0019 26.0245ZM25.0019 15.7197L21.0019 13.9866V26.0246C24.9275 25.681 25.001 21.3964 25.0019 21.2061V15.7197Z" fill="white"/>
</g>
</g>
</svg>
