<?xml version="1.0" encoding="UTF-8"?>
<svg width="48px" height="48px" viewBox="0 0 48 48" version="1.1" xmlns="http://www.w3.org/2000/svg" xmlns:xlink="http://www.w3.org/1999/xlink">
    <title>Icon-Resource/Analytics/Res_Amazon-Redshift_Streaming-Ingestion_48</title>
    <g id="Icon-Resource/Analytics/Res_Amazon-Redshift_Streaming-Ingestion_48" stroke="none" stroke-width="1" fill="none" fill-rule="evenodd">
        <path d="M9,43 C9,42.449 8.552,42 8,42 C7.448,42 7,42.449 7,43 C7,43.551 7.448,44 8,44 C8.552,44 9,43.551 9,43 L9,43 Z M11,34 C11,34.551 11.448,35 12,35 C12.552,35 13,34.551 13,34 C13,33.449 12.552,33 12,33 C11.448,33 11,33.449 11,34 L11,34 Z M21,36 C21,36.551 21.448,37 22,37 C22.552,37 23,36.551 23,36 C23,35.449 22.552,35 22,35 C21.448,35 21,35.449 21,36 L21,36 Z M24,27 C24,27.551 24.448,28 25,28 C25.552,28 26,27.551 26,27 C26,26.449 25.552,26 25,26 C24.448,26 24,26.449 24,27 L24,27 Z M10.211,40.99 C10.696,41.523 11,42.224 11,43 C11,44.654 9.654,46 8,46 C6.346,46 5,44.654 5,43 C5,41.346 6.346,40 8,40 C8.151,40 8.295,40.023 8.44,40.044 L10.054,36.264 C9.414,35.714 9,34.908 9,34 C9,32.346 10.346,31 12,31 C13.654,31 15,32.346 15,34 C15,34.023 14.994,34.045 14.993,34.068 L19.178,35.02 C19.587,33.848 20.691,33 22,33 C22.013,33 22.024,33.004 22.037,33.004 L23.405,29.531 C22.564,28.999 22,28.067 22,27 C22,25.346 23.346,24 25,24 C26.654,24 28,25.346 28,27 C28,28.522 26.857,29.769 25.386,29.961 L23.91,33.706 C24.57,34.257 25,35.075 25,36 C25,37.654 23.654,39 22,39 C20.727,39 19.643,38.199 19.208,37.077 L14.259,35.952 C13.709,36.589 12.905,37 12,37 C11.972,37 11.946,36.993 11.918,36.992 L10.211,40.99 Z M31.291,11.986 L30.709,13.899 C32.97,14.586 34,15.497 34,16.052 C34,16.607 32.97,17.517 30.709,18.205 L31.291,20.118 C32.375,19.788 33.278,19.389 34,18.939 L34,41 C34,41.711 32.578,42.636 30.165,43.271 C30.004,43.313 29.844,43.355 29.677,43.394 C29.459,43.445 29.238,43.494 29.007,43.54 C28.635,43.612 28.253,43.676 27.861,43.731 C27.711,43.753 27.558,43.773 27.404,43.792 C26.93,43.85 26.448,43.898 25.954,43.931 C25.861,43.938 25.764,43.942 25.669,43.948 C25.119,43.979 24.563,44 24,44 C17.988,44 14,42.216 14,41.036 L14,39 L12,39 L12,41.036 C12,44.295 18.037,46 24,46 C24.61,46 25.219,45.977 25.824,45.942 C25.908,45.937 25.992,45.934 26.075,45.928 C26.631,45.891 27.178,45.836 27.718,45.768 C27.839,45.753 27.959,45.738 28.079,45.721 C28.588,45.65 29.086,45.568 29.569,45.47 C29.698,45.444 29.82,45.415 29.946,45.387 C30.362,45.295 30.767,45.194 31.155,45.082 C31.221,45.063 31.296,45.049 31.361,45.03 L31.36,45.026 C34.091,44.197 36,42.846 36,41 L36,16 L35.994,16 C35.959,14.324 34.296,12.899 31.291,11.986 L31.291,11.986 Z M14,18.894 C14.601,19.284 15.317,19.639 16.169,19.942 L16.841,18.059 C14.878,17.359 14,16.485 14,15.929 C14,15.438 14.731,14.626 16.792,13.95 L16.169,12.05 C12.542,13.24 12,14.991 12,15.929 C12,15.953 12.008,15.976 12.008,16 L12,16 L12,29 L14,29 L14,18.894 Z M41.999,4 L43.999,4 L43.999,2 L41.999,2 L41.999,4 Z M37.999,4 L39.999,4 L39.999,2 L37.999,2 L37.999,4 Z M8,8 L10,8 L10,6 L8,6 L8,8 Z M4,8 L6,8 L6,6 L4,6 L4,8 Z M27,20 L29,20 L29,6 L12,6 L12,8 L27,8 L27,20 Z M19,20 L21,20 L21,10 L19,10 L19,20 Z M20,4 L35.999,4 L35.999,2 L20,2 L20,4 Z M23,22 L25,22 L25,11 L23,11 L23,22 Z" id="Fill-1" fill="#8C4FFF"></path>
    </g>
</svg>