<?xml version="1.0" encoding="UTF-8"?>
<svg width="48px" height="48px" viewBox="0 0 48 48" version="1.1" xmlns="http://www.w3.org/2000/svg" xmlns:xlink="http://www.w3.org/1999/xlink">
    <title>Icon-Resource/Analytics/Res_Amazon-OpenSearch-Service_Observability_48</title>
    <g id="Icon-Resource/Analytics/Res_Amazon-OpenSearch-Service_Observability_48" stroke="none" stroke-width="1" fill="none" fill-rule="evenodd">
        <path d="M25,27 L27,27 L27,20 L25,20 L25,27 Z M21,22 L21,17 L23,17 L23,19 L23,27 L21,27 L21,22 Z M17,27 L19,27 L19,23 L17,23 L17,27 Z M28,29 C28.553,29 29,28.552 29,28 L29,19 C29,18.448 28.553,18 28,18 L25,18 L25,16 C25,15.448 24.553,15 24,15 L20,15 C19.447,15 19,15.448 19,16 L19,21 L16,21 C15.447,21 15,21.448 15,22 L15,28 C15,28.552 15.447,29 16,29 L28,29 Z M39.37,17.263 L41.3,16.737 C41.765,18.444 42,20.215 42,22 C42,24.545 41.528,27.025 40.599,29.369 L38.739,28.631 C39.576,26.523 40,24.292 40,22 C40,20.393 39.788,18.798 39.37,17.263 L39.37,17.263 Z M28.632,38.739 L29.368,40.599 C27.023,41.528 24.544,42 22,42 C15.467,42 9.425,38.825 5.699,33.58 L5.345,35.195 L3.392,34.766 L4.317,30.549 C4.374,30.289 4.531,30.064 4.755,29.921 C4.978,29.777 5.248,29.728 5.509,29.787 L9.727,30.713 L9.297,32.666 L7.178,32.201 C10.518,37.051 16.03,40 22,40 C24.291,40 26.521,39.576 28.632,38.739 L28.632,38.739 Z M4.63,26.737 L2.7,27.263 C2.235,25.556 2,23.785 2,22 C2,10.972 10.972,2 22,2 C28.533,2 34.575,5.175 38.301,10.419 L38.655,8.805 L40.608,9.234 L39.683,13.451 C39.626,13.71 39.469,13.936 39.245,14.079 C39.083,14.183 38.896,14.237 38.706,14.237 C38.635,14.237 38.563,14.229 38.491,14.213 L34.273,13.287 L34.703,11.334 L36.822,11.799 C33.482,6.949 27.97,4 22,4 C12.075,4 4,12.075 4,22 C4,23.607 4.212,25.202 4.63,26.737 L4.63,26.737 Z M43.271,43.225 C42.329,44.166 40.679,44.166 39.737,43.225 L29.991,33.479 C31.367,32.519 32.563,31.32 33.518,29.94 L43.271,39.692 C44.244,40.666 44.244,42.251 43.271,43.225 L43.271,43.225 Z M10,22 C10,15.383 15.383,10 22,10 C28.617,10 34,15.383 34,22 C34,28.617 28.617,34 22,34 C15.383,34 10,28.617 10,22 L10,22 Z M44.685,38.278 L34.557,28.151 C35.472,26.291 36,24.208 36,22 C36,14.28 29.72,8 22,8 C14.28,8 8,14.28 8,22 C8,29.72 14.28,36 22,36 C24.232,36 26.337,35.461 28.212,34.528 L38.323,44.639 C39.171,45.488 40.301,45.955 41.504,45.955 C42.707,45.955 43.837,45.488 44.685,44.639 C46.438,42.885 46.438,40.032 44.685,38.278 L44.685,38.278 Z" id="Fill-1" fill="#8C4FFF"></path>
    </g>
</svg>