<?xml version="1.0" encoding="UTF-8"?>
<svg width="48px" height="48px" viewBox="0 0 48 48" version="1.1" xmlns="http://www.w3.org/2000/svg" xmlns:xlink="http://www.w3.org/1999/xlink">
    <title>Icon-Resource/Analytics/Res_Amazon-DataZone_Data-Portal_48</title>
    <g id="Icon-Resource/Analytics/Res_Amazon-DataZone_Data-Portal_48" stroke="none" stroke-width="1" fill="none" fill-rule="evenodd">
        <path d="M16,34.999 L18,34.999 L18,32.999 L16,32.999 L16,34.999 Z M15,30.999 C14.447,30.999 14,31.447 14,31.999 L14,35.999 C14,36.551 14.447,36.999 15,36.999 L19,36.999 C19.553,36.999 20,36.551 20,35.999 L20,31.999 C20,31.447 19.553,30.999 19,30.999 L15,30.999 Z M24,26 L26,26 L26,24 L24,24 L24,26 Z M28,27 L28,23 C28,22.448 27.553,22 27,22 L23,22 C22.447,22 22,22.448 22,23 L22,27 C22,27.552 22.447,28 23,28 L27,28 C27.553,28 28,27.552 28,27 L28,27 Z M26,38 L30,38 L30,34 L26,34 L26,38 Z M25,40 L31,40 C31.553,40 32,39.552 32,39 L32,33 C32,32.448 31.553,32 31,32 L25,32 C24.447,32 24,32.448 24,33 L24,39 C24,39.552 24.447,40 25,40 L25,40 Z M36,30 L38,30 L38,28 L36,28 L36,30 Z M35,26 C34.447,26 34,26.448 34,27 L34,31 C34,31.552 34.447,32 35,32 L39,32 C39.553,32 40,31.552 40,31 L40,27 C40,26.448 39.553,26 39,26 L35,26 Z M20,6 L18,6 L18,4 L20,4 L20,2 L22,2 L22,4 L24,4 L24,6 L22,6 L22,8 L20,8 L20,6 Z M39.413,13.389 C40.205,13.389 40.982,13.61 41.66,14.03 C42.716,14.685 43.456,15.772 43.72,17 L35.104,17 C35.543,14.937 37.309,13.389 39.413,13.389 L39.413,13.389 Z M39.413,7 C40.56,7 41.492,7.933 41.492,9.08 C41.492,10.226 40.56,11.159 39.413,11.159 C38.267,11.159 37.334,10.226 37.334,9.08 C37.334,7.933 38.267,7 39.413,7 L39.413,7 Z M33,18 C33,18.552 33.447,19 34,19 L44.826,19 C45.379,19 45.826,18.552 45.826,18 C45.826,15.692 44.634,13.52 42.713,12.33 C42.543,12.225 42.364,12.141 42.187,12.053 C42.985,11.307 43.492,10.255 43.492,9.08 C43.492,6.83 41.662,5 39.413,5 C37.164,5 35.334,6.83 35.334,9.08 C35.334,10.253 35.84,11.305 36.636,12.05 C34.489,13.12 33,15.381 33,18 L33,18 Z M30.413,4 C31.56,4 32.492,4.933 32.492,6.08 C32.492,7.226 31.56,8.159 30.413,8.159 C29.267,8.159 28.334,7.226 28.334,6.08 C28.334,4.933 29.267,4 30.413,4 L30.413,4 Z M24,15 C24,15.552 24.447,16 25,16 L32,16 L32,14 L26.104,14 C26.543,11.937 28.309,10.389 30.413,10.389 C31.205,10.389 31.982,10.61 32.66,11.03 L33.713,9.33 C33.543,9.225 33.364,9.141 33.187,9.053 C33.985,8.307 34.492,7.255 34.492,6.08 C34.492,3.83 32.662,2 30.413,2 C28.164,2 26.334,3.83 26.334,6.08 C26.334,7.253 26.84,8.305 27.636,9.05 C25.489,10.12 24,12.381 24,15 L24,15 Z M4,44 L4,18 L8,18 L8,44.011 L4.086,44.012 C4.056,44 4.001,43.943 4,44 L4,44 Z M44,21 L44.013,43.915 C43.999,43.946 43.947,43.999 44,44 L10,44.01 L10,18 L21.999,18 L21.999,16 L4,16 L4,12 L4.001,12 L22,12 L22,10 L4.001,10 C2.86,10 2,10.791 2,11.84 L2,44 C2,45.022 2.969,45.994 4,46 L44,46 C45.028,46 46,45.028 46,44 L46,21 L44,21 Z" id="Fill-1" fill="#8C4FFF"></path>
    </g>
</svg>