<?xml version="1.0" encoding="UTF-8"?>
<svg width="48px" height="48px" viewBox="0 0 48 48" version="1.1" xmlns="http://www.w3.org/2000/svg" xmlns:xlink="http://www.w3.org/1999/xlink">
    <title>Icon-Resource/Analytics/Res_Amazon-DataZone_Data-Projects_48</title>
    <g id="Icon-Resource/Analytics/Res_Amazon-DataZone_Data-Projects_48" stroke="none" stroke-width="1" fill="none" fill-rule="evenodd">
        <path d="M21,16 L35,16 L35,14 L21,14 L21,16 Z M21,11 L31,11 L31,9 L21,9 L21,11 Z M38,28 L38,35 L35,35 L35,21 L33,21 L33,35 L30,35 L30,24 L28,24 L28,35 L26,35 L26,37 L42,37 L42,35 L40,35 L40,28 L38,28 Z M19.66,33.03 C18.982,32.61 18.205,32.389 17.413,32.389 C15.309,32.389 13.543,33.937 13.104,36 L21.72,36 C21.456,34.772 20.716,33.685 19.66,33.03 L19.66,33.03 Z M15.334,28.19 C15.334,29.336 16.267,30.27 17.413,30.27 C18.56,30.27 19.492,29.336 19.492,28.19 C19.492,27.043 18.56,26.111 17.413,26.111 C16.267,26.111 15.334,27.043 15.334,28.19 L15.334,28.19 Z M21.492,28.19 C21.492,29.327 21.022,30.355 20.269,31.096 C20.418,31.172 20.57,31.241 20.713,31.33 C22.634,32.52 23.826,34.692 23.826,37 C23.826,37.552 23.379,38 22.826,38 L12,38 C11.447,38 11,37.552 11,37 C11,34.415 12.45,32.178 14.552,31.092 C13.802,30.351 13.334,29.325 13.334,28.19 C13.334,25.941 15.164,24.111 17.413,24.111 C19.662,24.111 21.492,25.941 21.492,28.19 L21.492,28.19 Z M6.334,23.731 C6.334,24.878 7.267,25.811 8.413,25.811 C9.56,25.811 10.492,24.878 10.492,23.731 C10.492,22.585 9.56,21.652 8.413,21.652 C7.267,21.652 6.334,22.585 6.334,23.731 L6.334,23.731 Z M10,34 L3,34 C2.447,34 2,33.552 2,33 C2,30.274 3.609,27.929 5.899,26.919 C4.953,26.171 4.334,25.028 4.334,23.731 C4.334,21.482 6.164,19.652 8.413,19.652 C10.662,19.652 12.492,21.482 12.492,23.731 C12.492,25.027 11.873,26.171 10.928,26.918 C11.198,27.037 11.46,27.174 11.713,27.33 L10.66,29.03 C9.982,28.61 9.205,28.389 8.413,28.389 C6.309,28.389 4.543,29.937 4.104,32 L10,32 L10,34 Z M38,10 L42.586,10 L38,5.414 L38,10 Z M46,11 L46,40 C46,41.122 45.121,42 44,42 L18,42 L18,40 L44,40 L44,12 L37,12 C36.447,12 36,11.552 36,11 L36,4 L18.037,4 L18,22 L16,22 L16,4 C16,2.897 16.914,2 18.037,2 L37,2 C37.266,2 37.52,2.105 37.707,2.293 L45.707,10.293 C45.895,10.48 46,10.735 46,11 L46,11 Z M12,40 L10,40 L10,44 C10,45.103 10.914,46 12.037,46 L37.963,46 L37.963,44 L12,44 L12,40 Z M12,18 L10,18 L10,7 C10,5.897 10.914,5 12.037,5 L14,5 L14,7 L12.037,7 L12,18 Z" id="Fill-1" fill="#8C4FFF"></path>
    </g>
</svg>