<?xml version="1.0" encoding="UTF-8"?>
<svg width="48px" height="48px" viewBox="0 0 48 48" version="1.1" xmlns="http://www.w3.org/2000/svg" xmlns:xlink="http://www.w3.org/1999/xlink">
    <title>Icon-Resource/Analytics/Res_Amazon-OpenSearch-Service_UltraWarm-Node_48</title>
    <g id="Icon-Resource/Analytics/Res_Amazon-OpenSearch-Service_UltraWarm-Node_48" stroke="none" stroke-width="1" fill="none" fill-rule="evenodd">
        <path d="M39.536,42.459 L40.583,34.919 C38.024,34.086 34.894,32.706 33.265,31.96 C33.048,32.088 32.799,32.166 32.53,32.166 C31.724,32.166 31.069,31.511 31.069,30.705 C31.069,29.899 31.724,29.244 32.53,29.244 C33.083,29.244 33.559,29.556 33.807,30.01 C35.693,30.883 38.547,32.121 40.863,32.904 L41.723,26.708 C39.405,27.874 35.727,28.477 32.069,28.477 C28.398,28.477 24.706,27.87 22.389,26.696 L24.454,42.467 C24.456,42.482 24.458,42.497 24.459,42.512 C24.863,43.062 27.711,44.04 31.994,44.04 C36.278,44.04 39.126,43.062 39.53,42.512 C39.531,42.494 39.533,42.477 39.536,42.459 M22.015,23.836 L22.022,23.894 C22.286,24.86 26.048,26.477 32.069,26.477 C38.074,26.477 41.83,24.869 42.113,23.902 L42.123,23.834 C41.73,23.192 38.497,21.097 32.069,21.097 C25.636,21.097 22.403,23.196 22.015,23.836 M45.758,33.829 C45.84,34.269 45.726,34.7 45.439,35.042 C45.108,35.436 44.615,35.632 43.894,35.632 C43.51,35.632 43.052,35.57 42.527,35.459 L41.524,42.68 C41.398,45.334 35.258,46.04 31.994,46.04 C28.729,46.04 22.583,45.334 22.465,42.675 L20.009,23.917 L20.016,23.916 C20.013,23.872 20,23.831 20,23.787 C20,21.568 24.957,19.097 32.069,19.097 C39.182,19.097 44.139,21.568 44.139,23.787 C44.139,23.834 44.124,23.877 44.122,23.923 L44.129,23.924 L43.108,31.272 C44.799,32.241 45.606,33.018 45.758,33.829 M46,7 L46,17 L44,17 L44,7 C44,5.345 42.654,4 41,4 L7,4 C5.346,4 4,5.345 4,7 L4,41 C4,42.654 5.346,44 7,44 L19,44 L19,46 L7,46 C4.243,46 2,43.756 2,41 L2,7 C2,4.243 4.243,2 7,2 L41,2 C43.757,2 46,4.243 46,7" id="Fill-1" fill="#8C4FFF"></path>
    </g>
</svg>