<?xml version="1.0" encoding="UTF-8"?>
<svg width="48px" height="48px" viewBox="0 0 48 48" version="1.1" xmlns="http://www.w3.org/2000/svg" xmlns:xlink="http://www.w3.org/1999/xlink">
    <title>Icon-Resource/Analytics/Res_Amazon-OpenSearch-Service_Traces_48</title>
    <g id="Icon-Resource/Analytics/Res_Amazon-OpenSearch-Service_Traces_48" stroke="none" stroke-width="1" fill="none" fill-rule="evenodd">
        <path d="M18,8 L34,8 L34,10 L23,10 L23,22 C23,22.967 23.524,24 24.995,24 L34,24 L34,26 L24.995,26 C24.213,26 23.556,25.806 23,25.502 L23,38.198 C23,39.192 23.809,40 24.802,40 L34,40 L34,42 L24.802,42 C22.705,42 21,40.294 21,38.198 L21,10 L18,10 L18,8 Z M41,44 C39.346,44 38,42.654 38,41 C38,39.346 39.346,38 41,38 C42.654,38 44,39.346 44,41 C44,42.654 42.654,44 41,44 L41,44 Z M41,36 C38.243,36 36,38.243 36,41 C36,43.757 38.243,46 41,46 C43.757,46 46,43.757 46,41 C46,38.243 43.757,36 41,36 L41,36 Z M41,28 C39.346,28 38,26.654 38,25 C38,23.346 39.346,22 41,22 C42.654,22 44,23.346 44,25 C44,26.654 42.654,28 41,28 L41,28 Z M41,20 C38.243,20 36,22.243 36,25 C36,27.757 38.243,30 41,30 C43.757,30 46,27.757 46,25 C46,22.243 43.757,20 41,20 L41,20 Z M41,6 C42.654,6 44,7.346 44,9 C44,10.654 42.654,12 41,12 C39.346,12 38,10.654 38,9 C38,7.346 39.346,6 41,6 L41,6 Z M41,14 C43.757,14 46,11.757 46,9 C46,6.243 43.757,4 41,4 C38.243,4 36,6.243 36,9 C36,11.757 38.243,14 41,14 L41,14 Z M4,14 L14,14 L14,4 L4,4 L4,14 Z M15,2 L3,2 C2.447,2 2,2.448 2,3 L2,15 C2,15.552 2.447,16 3,16 L15,16 C15.553,16 16,15.552 16,15 L16,3 C16,2.448 15.553,2 15,2 L15,2 Z" id="Fill-1" fill="#8C4FFF"></path>
    </g>
</svg>