<?xml version="1.0" encoding="UTF-8"?>
<svg width="48px" height="48px" viewBox="0 0 48 48" version="1.1" xmlns="http://www.w3.org/2000/svg" xmlns:xlink="http://www.w3.org/1999/xlink">
    <title>Icon-Resource/Analytics/Res_Amazon-OpenSearch-Service_Data-Node_48</title>
    <g id="Icon-Resource/Analytics/Res_Amazon-OpenSearch-Service_Data-Node_48" stroke="none" stroke-width="1" fill="none" fill-rule="evenodd">
        <path d="M43.911,42.5127 C43.944,42.2657 43.849,42.1377 43.774,42.0627 L38.212,36.6497 C37.808,37.1687 37.358,37.6467 36.868,38.0847 L42.256,43.5987 C42.593,43.9327 43.167,43.6057 43.473,43.3007 C43.718,43.0557 43.877,42.7687 43.911,42.5127 L43.911,42.5127 Z M29.591,38.8797 C34.52,38.8797 38.53,34.8697 38.53,29.9397 C38.53,25.0107 34.52,20.9997 29.591,20.9997 C24.661,20.9997 20.651,25.0107 20.651,29.9397 C20.651,34.8697 24.661,38.8797 29.591,38.8797 L29.591,38.8797 Z M45.179,40.6387 C45.751,41.2117 46.002,41.9677 45.893,42.7767 C45.802,43.4707 45.443,44.1587 44.887,44.7157 C44.213,45.3887 43.389,45.7337 42.604,45.7337 C41.95,45.7337 41.323,45.4927 40.834,45.0057 L35.247,39.2867 C33.594,40.2907 31.662,40.8797 29.591,40.8797 C23.558,40.8797 18.651,35.9717 18.651,29.9397 C18.651,23.9077 23.558,18.9997 29.591,18.9997 C35.623,18.9997 40.53,23.9077 40.53,29.9397 C40.53,31.7387 40.086,33.4327 39.314,34.9307 L45.179,40.6387 Z M46,6.9997 L46,28.9997 L44,28.9997 L44,6.9997 C44,5.3457 42.654,3.9997 41,3.9997 L7,3.9997 C5.346,3.9997 4,5.3457 4,6.9997 L4,40.9997 C4,42.6547 5.346,43.9997 7,43.9997 L29,43.9997 L29,45.9997 L7,45.9997 C4.243,45.9997 2,43.7567 2,40.9997 L2,6.9997 C2,4.2427 4.243,1.9997 7,1.9997 L41,1.9997 C43.757,1.9997 46,4.2427 46,6.9997 L46,6.9997 Z" id="Fill-1" fill="#8C4FFF"></path>
    </g>
</svg>