<?xml version="1.0" encoding="UTF-8"?>
<svg width="48px" height="48px" viewBox="0 0 48 48" version="1.1" xmlns="http://www.w3.org/2000/svg" xmlns:xlink="http://www.w3.org/1999/xlink">
    <title>Icon-Resource/Analytics/Res_AWS-Glue_Data-Quality_48</title>
    <g id="Icon-Resource/Analytics/Res_AWS-Glue_Data-Quality_48" stroke="none" stroke-width="1" fill="none" fill-rule="evenodd">
        <path d="M30.283,24.375 L31.845,25.624 L27.845,30.624 C27.648,30.87 27.358,31 27.063,31 C26.873,31 26.679,30.945 26.51,30.832 L23.51,28.832 L24.619,27.167 L26.856,28.659 L30.283,24.375 Z M43.491,43.436 C43.006,43.923 42.272,44.236 41.819,43.783 L35.356,37.168 C36.043,36.612 36.669,35.985 37.225,35.298 L43.846,41.741 C44.286,42.181 44,42.927 43.491,43.436 L43.491,43.436 Z M17.054,27.472 C17.054,21.698 21.753,17 27.527,17 C33.302,17 38,21.698 38,27.472 C38,33.247 33.302,37.944 27.527,37.944 C21.753,37.944 17.054,33.247 17.054,27.472 L17.054,27.472 Z M45.25,40.317 L38.367,33.618 C39.401,31.802 40,29.707 40,27.472 C40,20.595 34.405,15 27.527,15 C20.649,15 15.054,20.595 15.054,27.472 C15.054,34.349 20.649,39.944 27.527,39.944 C29.764,39.944 31.859,39.345 33.676,38.31 L40.397,45.189 C40.935,45.728 41.628,45.992 42.352,45.992 C43.227,45.992 44.149,45.606 44.905,44.85 C46.296,43.459 46.448,41.515 45.25,40.317 L45.25,40.317 Z M27.527,34.689 C23.48,34.689 20.309,31.519 20.309,27.472 C20.309,23.425 23.48,20.254 27.527,20.254 C31.574,20.254 34.745,23.425 34.745,27.472 C34.745,31.519 31.574,34.689 27.527,34.689 L27.527,34.689 Z M27.527,18.254 C22.358,18.254 18.309,22.303 18.309,27.472 C18.309,32.641 22.358,36.689 27.527,36.689 C32.696,36.689 36.745,32.641 36.745,27.472 C36.745,22.303 32.696,18.254 27.527,18.254 L27.527,18.254 Z M16.064,4 C23.687,4 29,6.107 29,8 C29,9.966 24.535,12 17.064,12 C9.365,12 4,9.892 4,8 C4,6.033 8.512,4 16.064,4 L16.064,4 Z M16.135,44 C8.539,44 4,41.878 4,39.828 L4,32.509 C6.288,34.367 10.329,35.646 15.039,35.768 L15.09,33.769 C8.554,33.601 4,31.12 4,29 L4,22.465 C5.92,23.971 9.093,25.051 12.981,25.375 L13.147,23.382 C7.497,22.912 4,20.741 4,19 L4,11.193 C6.785,13.104 12.055,14 17.064,14 C22.441,14 26.668,12.992 29,11.316 L29,13 L31,13 L31,8 C31,3.877 23.258,2 16.064,2 C7.652,2 2,4.411 2,8 L2,39.828 C2,43.52 7.68,46 16.135,46 C22.227,46 27.419,44.68 29.684,42.555 L28.315,41.096 C26.465,42.833 21.569,44 16.135,44 L16.135,44 Z" id="Fill-1" fill="#8C4FFF"></path>
    </g>
</svg>