<?xml version="1.0" encoding="UTF-8"?>
<svg width="48px" height="48px" viewBox="0 0 48 48" version="1.1" xmlns="http://www.w3.org/2000/svg" xmlns:xlink="http://www.w3.org/1999/xlink">
    <title>Icon-Resource/Analytics/Res_Amazon-Quicksight_Paginated-Reports_48</title>
    <g id="Icon-Resource/Analytics/Res_Amazon-Quicksight_Paginated-Reports_48" stroke="none" stroke-width="1" fill="none" fill-rule="evenodd">
        <path d="M27,32 L33,32 L33,30 L27,30 L27,32 Z M27,28 L33,28 L33,26 L27,26 L27,28 Z M27,24 L33,24 L33,22 L27,22 L27,24 Z M27,20 L33,20 L33,18 L27,18 L27,20 Z M22,32 L25,32 L25,30 L22,30 L22,32 Z M22,28 L25,28 L25,26 L22,26 L22,28 Z M22,24 L25,24 L25,22 L22,22 L22,24 Z M22,20 L25,20 L25,18 L22,18 L22,20 Z M20,34 L35,34 L35,16 L20,16 L20,34 Z M36,14 L19,14 C18.447,14 18,14.448 18,15 L18,35 C18,35.553 18.447,36 19,36 L36,36 C36.553,36 37,35.553 37,35 L37,15 C37,14.448 36.553,14 36,14 L36,14 Z M36,42 L38,42 L38,45 C38,45.552 37.553,46 37,46 L8,46 C7.447,46 7,45.552 7,45 L7,7 C7,6.448 7.447,6 8,6 L11,6 L11,8 L9,8 L9,44 L36,44 L36,42 Z M15,38 L15,4 L32,4 L32,11 C32,11.553 32.447,12 33,12 L40,12 L40,38 L15,38 Z M34,5.415 L38.586,10 L34,10 L34,5.415 Z M41.991,11 C41.991,10.741 41.898,10.485 41.707,10.293 L33.707,2.293 C33.516,2.102 33.26,2.01 33,2.01 L33,2 L14,2 C13.447,2 13,2.448 13,3 L13,39 C13,39.553 13.447,40 14,40 L41,40 C41.553,40 42,39.553 42,39 L42,11 L41.991,11 Z" id="Fill-1" fill="#8C4FFF"></path>
    </g>
</svg>