<?xml version="1.0" encoding="UTF-8"?>
<svg width="48px" height="48px" viewBox="0 0 48 48" version="1.1" xmlns="http://www.w3.org/2000/svg" xmlns:xlink="http://www.w3.org/1999/xlink">
    <title>Icon-Resource/Analytics/Res_Amazon-DataZone_Business-Data-Catalog_48</title>
    <g id="Icon-Resource/Analytics/Res_Amazon-DataZone_Business-Data-Catalog_48" stroke="none" stroke-width="1" fill="none" fill-rule="evenodd">
        <path d="M36,30 C35.448,30 35,29.551 35,29 C35,28.449 35.448,28 36,28 C36.552,28 37,28.449 37,29 C37,29.551 36.552,30 36,30 L36,30 Z M28,30 C27.448,30 27,29.551 27,29 C27,28.449 27.448,28 28,28 C28.552,28 29,28.449 29,29 C29,29.551 28.552,30 28,30 L28,30 Z M20,30 C19.448,30 19,29.551 19,29 C19,28.449 19.448,28 20,28 C20.552,28 21,28.449 21,29 C21,29.551 20.552,30 20,30 L20,30 Z M28,17 C28.552,17 29,17.449 29,18 C29,18.551 28.552,19 28,19 C27.448,19 27,18.551 27,18 C27,17.449 27.448,17 28,17 L28,17 Z M33,29 C33,30.654 34.346,32 36,32 C37.654,32 39,30.654 39,29 C39,27.698 38.161,26.598 37,26.184 L37,23 C37,22.448 36.553,22 36,22 L29,22 L29,20.816 C30.161,20.402 31,19.302 31,18 C31,16.346 29.654,15 28,15 C26.346,15 25,16.346 25,18 C25,19.302 25.839,20.402 27,20.816 L27,22 L20,22 C19.447,22 19,22.448 19,23 L19,26.184 C17.839,26.598 17,27.698 17,29 C17,30.654 18.346,32 20,32 C21.654,32 23,30.654 23,29 C23,27.698 22.161,26.598 21,26.184 L21,24 L27,24 L27,26.184 C25.839,26.598 25,27.698 25,29 C25,30.654 26.346,32 28,32 C29.654,32 31,30.654 31,29 C31,27.698 30.161,26.598 29,26.184 L29,24 L35,24 L35,26.184 C33.839,26.598 33,27.698 33,29 L33,29 Z M5,2 L9,2 L9,4 L6,4 L6,44 L9,44 L9,46 L5,46 C4.447,46 4,45.552 4,45 L4,3 C4,2.448 4.447,2 5,2 L5,2 Z M16,42 L40,42 L40,40 L16,40 L16,42 Z M16,38 L40,38 L40,36 L16,36 L16,38 Z M16,12 L40,12 L40,10 L16,10 L16,12 Z M16,8 L40,8 L40,6 L16,6 L16,8 Z M13,44 L42,44 L42,4 L13,4 L13,44 Z M43,2 L12,2 C11.447,2 11,2.448 11,3 L11,45 C11,45.552 11.447,46 12,46 L43,46 C43.553,46 44,45.552 44,45 L44,3 C44,2.448 43.553,2 43,2 L43,2 Z" id="Fill-1" fill="#8C4FFF"></path>
    </g>
</svg>