<?xml version="1.0" encoding="UTF-8"?>
<svg width="48px" height="48px" viewBox="0 0 48 48" version="1.1" xmlns="http://www.w3.org/2000/svg" xmlns:xlink="http://www.w3.org/1999/xlink">
    <title>Icon-Resource/Analytics/Res_Amazon-OpenSearch-Service_OpenSearch-Dashboards_48</title>
    <g id="Icon-Resource/Analytics/Res_Amazon-OpenSearch-Service_OpenSearch-Dashboards_48" stroke="none" stroke-width="1" fill="none" fill-rule="evenodd">
        <path d="M27.54,28 L29.186,28 L30.985,30.436 C31.213,30.744 31.599,30.898 31.973,30.825 C32.35,30.755 32.653,30.476 32.754,30.106 L34.243,24.687 L36.837,34 L24.961,34 L27.54,28 Z M35.199,20.667 C35.079,20.234 34.686,19.935 34.236,19.935 L34.234,19.935 C33.785,19.936 33.391,20.236 33.272,20.67 L31.371,27.591 L30.496,26.406 C30.308,26.151 30.009,26 29.691,26 L26.882,26 C26.482,26 26.121,26.238 25.963,26.605 L22.784,34 L21.023,34 L21.023,36 L41.023,36 L41.023,34 L38.912,34 L35.199,20.667 Z M11.023,36 L13.023,36 L13.023,23 L11.023,23 L11.023,36 Z M15.023,36 L17.023,36 L17.023,21 L15.023,21 L15.023,36 Z M7.023,36 L9.023,36 L9.023,28 L7.023,28 L7.023,36 Z M14.023,14 L16.023,14 L16.023,12 L14.023,12 L14.023,14 Z M10.023,14 L12.023,14 L12.023,12 L10.023,12 L10.023,14 Z M6.023,14 L8.023,14 L8.023,12 L6.023,12 L6.023,14 Z M4,39 L4.018,17 L44.023,17 L44.023,38.994 L4,39 Z M44.023,10 L44.023,15 L4.019,15 L4.023,10 L44.023,10 Z M44.146,8 L3.9,8 C2.865,8 2.023,8.842 2.023,9.875 L1.99999642,39.128 C1.998,40.154 2.834,40.994 3.87,41 L44.146,40.994 C45.182,40.994 46.023,40.152 46.023,39.117 L46.023,9.877 C46.023,8.842 45.182,8 44.146,8 L44.146,8 Z" id="Fill-1" fill="#8C4FFF"></path>
    </g>
</svg>