<?xml version="1.0" encoding="UTF-8"?>
<svg width="48px" height="48px" viewBox="0 0 48 48" version="1.1" xmlns="http://www.w3.org/2000/svg" xmlns:xlink="http://www.w3.org/1999/xlink">
    <title>Icon-Resource/Analytics/Res_Amazon-Redshift_Query-Editor-v2.0_48</title>
    <g id="Icon-Resource/Analytics/Res_Amazon-Redshift_Query-Editor-v2.0_48" stroke="none" stroke-width="1" fill="none" fill-rule="evenodd">
        <path d="M16,4 C24.029,4 29,6.076 29,8 C29,9.924 24.029,12 16,12 C8.122,12 4,9.988 4,8 C4,6.012 8.122,4 16,4 M16,44 C8.486,44 4,42.505 4,40 L4,33.438 C6.053,35.152 9.693,36 15,36 L15,34 C4,34 4,30.237 4,29 L4,21.438 C6.053,23.152 9.693,24 15,24 L15,22 C4,22 4,18.237 4,17 L4,11.408 C6.299,13.055 10.475,14 16,14 C21.118,14 26.268,13.127 29,11.243 L29,15 L31,15 L31,8 C31,3.855 23.466,2 16,2 C7.364,2 2,4.299 2,8 L2,40 C2,42.737 4.429,46 16,46 C22.104,46 26.202,45.296 28.528,43.849 L27.472,42.151 C25.5,43.378 21.641,44 16,44 M43.583,43.583 C43.303,43.863 42.973,44.045 42.678,44.083 C42.449,44.111 42.261,44.053 42.115,43.908 L35.931,37.579 C36.534,37.085 37.087,36.533 37.58,35.929 L43.914,42.093 C44.064,42.243 44.122,42.43 44.091,42.665 C44.051,42.966 43.865,43.301 43.583,43.583 M19,28.6 C19,23.306 23.307,19 28.6,19 C33.893,19 38.199,23.306 38.199,28.6 C38.199,33.893 33.893,38.199 28.6,38.199 C23.307,38.199 19,33.893 19,28.6 M45.318,40.669 L38.722,34.249 C39.659,32.575 40.199,30.65 40.199,28.6 C40.199,22.204 34.996,17 28.6,17 C22.203,17 17,22.204 17,28.6 C17,34.996 22.203,40.199 28.6,40.199 C30.651,40.199 32.577,39.659 34.251,38.72 L40.693,45.314 C41.2,45.821 41.854,46.09 42.563,46.09 C42.685,46.09 42.808,46.083 42.931,46.067 C43.667,45.973 44.401,45.593 44.997,44.998 C45.593,44.402 45.975,43.668 46.073,42.93 C46.187,42.073 45.923,41.273 45.318,40.669 M28.6,34 C25.571,34 23.199,31.628 23.199,28.6 C23.199,25.571 25.571,23.199 28.6,23.199 C31.628,23.199 34,25.571 34,28.6 C34,31.628 31.628,34 28.6,34 M28.6,21.199 C24.45,21.199 21.199,24.45 21.199,28.6 C21.199,32.75 24.45,36 28.6,36 C32.749,36 36,32.75 36,28.6 C36,24.45 32.749,21.199 28.6,21.199" id="Fill-6" fill="#8C4FFF"></path>
    </g>
</svg>