<?xml version="1.0" encoding="UTF-8"?>
<svg width="48px" height="48px" viewBox="0 0 48 48" version="1.1" xmlns="http://www.w3.org/2000/svg" xmlns:xlink="http://www.w3.org/1999/xlink">
    <title>Icon-Resource/Analytics/Res_Amazon-OpenSearch-Service_OpenSearch-Ingestion_48</title>
    <g id="Icon-Resource/Analytics/Res_Amazon-OpenSearch-Service_OpenSearch-Ingestion_48" stroke="none" stroke-width="1" fill="none" fill-rule="evenodd">
        <path d="M4,40 L12,40 L12,32 L4,32 L4,40 Z M13,30 C13.553,30 14,30.448 14,31 L14,41 C14,41.552 13.553,42 13,42 L3,42 C2.447,42 2,41.552 2,41 L2,31 C2,30.448 2.447,30 3,30 L13,30 Z M11,26 L18,26 L18,19 L11,19 L11,26 Z M10,28 C9.447,28 9,27.552 9,27 L9,18 C9,17.448 9.447,17 10,17 L19,17 C19.553,17 20,17.448 20,18 L20,27 C20,27.552 19.553,28 19,28 L10,28 Z M4,13 L9,13 L9,8 L4,8 L4,13 Z M2,14 L2,7 C2,6.448 2.447,6 3,6 L10,6 C10.553,6 11,6.448 11,7 L11,14 C11,14.552 10.553,15 10,15 L3,15 C2.447,15 2,14.552 2,14 L2,14 Z M27.137,8.008 L27.199,8.102 C29.243,11.169 32.665,13 36.352,13 L40.586,13 L38.293,15.293 L39.707,16.707 L43.707,12.707 C44.098,12.316 44.098,11.684 43.707,11.293 L39.707,7.293 L38.293,8.707 L40.586,11 L36.352,11 C33.335,11 30.536,9.502 28.863,6.992 L28.801,6.898 C26.757,3.831 23.335,2 19.648,2 L2,2 L2,4 L19.648,4 C22.665,4 25.464,5.498 27.137,8.008 L27.137,8.008 Z M41,21 C39.346,21 38,22.346 38,24 C38,25.654 39.346,27 41,27 C42.654,27 44,25.654 44,24 C44,22.346 42.654,21 41,21 L41,21 Z M41,19 C43.757,19 46,21.243 46,24 C46,26.757 43.757,29 41,29 C38.243,29 36,26.757 36,24 C36,21.243 38.243,19 41,19 L41,19 Z M23,25 L29.586,25 L27.293,27.293 L28.707,28.707 L32.707,24.707 C33.098,24.316 33.098,23.684 32.707,23.293 L28.707,19.293 L27.293,20.707 L29.586,23 L23,23 L23,25 Z M43.707,35.293 C44.098,35.684 44.098,36.316 43.707,36.707 L39.707,40.707 L38.293,39.293 L40.586,37 L36.352,37 C33.335,37 30.536,38.498 28.863,41.008 L28.801,41.102 C26.757,44.169 23.335,46 19.648,46 L2,46 L2,44 L19.648,44 C22.665,44 25.464,42.502 27.137,39.992 L27.199,39.898 C29.243,36.831 32.665,35 36.352,35 L40.586,35 L38.293,32.707 L39.707,31.293 L43.707,35.293 Z" id="Fill-1" fill="#8C4FFF"></path>
    </g>
</svg>