<?xml version="1.0" encoding="UTF-8"?>
<svg width="48px" height="48px" viewBox="0 0 48 48" version="1.1" xmlns="http://www.w3.org/2000/svg" xmlns:xlink="http://www.w3.org/1999/xlink">
    <title>Icon-Resource/Analytics/Res_Amazon-Athena_Data-Source-Connectors_48</title>
    <g id="Icon-Resource/Analytics/Res_Amazon-Athena_Data-Source-Connectors_48" stroke="none" stroke-width="1" fill="none" fill-rule="evenodd">
        <path d="M4.984,24.002 C4.446,24.002 4,24.45 4,25 C4,25.551 4.448,26 5,26 L13,26 C13.551,26 14,25.551 14,25 C14,24.449 13.551,24 13,24 C12.447,24 12,23.552 12,23 C12,22.449 11.551,22 11,22 C10.553,22.041 10.029,21.781 9.878,21.348 C9.596,20.542 8.841,20 8,20 C6.897,20 6,20.897 6,22 C6,22.217 6.042,22.439 6.129,22.677 C6.246,22.999 6.19,23.358 5.981,23.63 C5.772,23.9 5.434,24.045 5.097,24.015 C5.084,24.014 5.002,24.004 4.987,24.002 L4.984,24.002 Z M13,28 L5,28 C3.345,28 2,26.654 2,25 C2,23.695 2.838,22.582 4.004,22.17 C4.001,22.113 4,22.057 4,22 C4,19.794 5.794,18 8,18 C9.451,18 10.771,18.795 11.471,20.037 C12.612,20.218 13.541,21.044 13.871,22.129 C15.101,22.503 16,23.648 16,25 C16,26.654 14.654,28 13,28 L13,28 Z M29,44 C27.615,44 27,43.597 27,43.444 L27,41.707 C27.571,41.891 28.237,42 29,42 C29.75,42 30.422,41.878 31.003,41.675 L31.006,43.405 C30.927,43.58 30.239,44 29,44 L29,44 Z M29,39 C30.171,39 30.796,39.298 30.971,39.457 C30.801,39.651 30.129,40 29,40 C27.702,40 27.087,39.65 27,39.544 L27,39.505 C27.12,39.358 27.768,39 29,39 L29,39 Z M33,39.444 C33,37.982 31.392,37 29,37 C26.607,37 25,37.982 25,39.444 C25,39.463 25.006,39.481 25.007,39.5 L25,39.5 L25,43.444 C25,44.997 26.57,46 29,46 C31.317,46 33,44.925 33,43.444 L33,39.5 L32.992,39.5 C32.992,39.481 33,39.463 33,39.444 L33,39.444 Z M29,9 C27.615,9 27,8.597 27,8.444 L27,6.707 C27.571,6.891 28.237,7 29,7 C29.75,7 30.422,6.878 31.003,6.675 L31.006,8.405 C30.927,8.58 30.239,9 29,9 L29,9 Z M29,4 C30.171,4 30.796,4.298 30.971,4.457 C30.801,4.651 30.129,5 29,5 C27.702,5 27.087,4.65 27,4.544 L27,4.505 C27.12,4.358 27.768,4 29,4 L29,4 Z M33,4.444 C33,2.982 31.392,2 29,2 C26.607,2 25,2.982 25,4.444 C25,4.463 25.006,4.481 25.007,4.5 L25,4.5 L25,8.444 C25,9.997 26.57,11 29,11 C31.317,11 33,9.925 33,8.444 L33,4.5 L32.992,4.5 C32.992,4.481 33,4.463 33,4.444 L33,4.444 Z M29,19 C31.756,19 34,21.243 34,24 C34,26.757 31.756,29 29,29 C26.243,29 24,26.757 24,24 C24,21.243 26.243,19 29,19 L29,19 Z M29,31 C32.859,31 36,27.86 36,24 C36,20.14 32.859,17 29,17 C25.481,17 22.567,19.613 22.08,23 L17,23 L17,25 L22.08,25 C22.567,28.387 25.481,31 29,31 L29,31 Z M43.535,38.535 C42.916,39.153 41.908,39.153 41.289,38.535 L35.561,32.808 C36.414,32.171 37.17,31.415 37.807,30.562 L43.535,36.289 C43.835,36.588 44,36.987 44,37.412 C44,37.836 43.835,38.235 43.535,38.535 L43.535,38.535 Z M44.949,34.875 L38.879,28.805 C39.59,27.351 40,25.725 40,24 C40,17.935 35.065,13 29,13 C23.975,13 19.736,16.39 18.426,21 L20.525,21 C21.764,17.51 25.09,15 29,15 C33.963,15 38,19.038 38,24 C38,28.962 33.963,33 29,33 C25.09,33 21.764,30.49 20.525,27 L18.426,27 C19.736,31.61 23.975,35 29,35 C30.724,35 32.351,34.59 33.805,33.88 L39.875,39.95 C40.574,40.648 41.493,40.998 42.412,40.998 C43.331,40.998 44.25,40.648 44.949,39.949 C46.348,38.55 46.348,36.273 44.949,34.875 L44.949,34.875 Z M12.462,33.36 C12.122,32.76 11.81,32.133 11.536,31.497 L13.374,30.707 C13.618,31.276 13.897,31.836 14.202,32.374 L12.462,33.36 Z M14.932,36.772 C14.462,36.254 14.014,35.703 13.602,35.135 L15.221,33.961 C15.59,34.47 15.991,34.963 16.413,35.427 L14.932,36.772 Z M18.091,39.558 C17.517,39.154 16.96,38.715 16.435,38.253 L17.757,36.752 C18.227,37.166 18.727,37.56 19.242,37.922 L18.091,39.558 Z M21.788,41.583 C21.14,41.317 20.5,41.012 19.883,40.674 L20.842,38.919 C21.395,39.222 21.968,39.495 22.547,39.733 L21.788,41.583 Z M20.42,9.321 L19.408,7.595 C20.013,7.241 20.645,6.916 21.286,6.631 L22.098,8.459 C21.526,8.713 20.961,9.003 20.42,9.321 L20.42,9.321 Z M17.397,11.575 L16.032,10.114 C16.547,9.633 17.091,9.177 17.652,8.761 L18.845,10.365 C18.345,10.737 17.858,11.145 17.397,11.575 L17.397,11.575 Z M14.941,14.438 L13.289,13.312 C13.682,12.733 14.114,12.17 14.572,11.636 L16.089,12.939 C15.68,13.416 15.294,13.92 14.941,14.438 L14.941,14.438 Z M13.177,17.769 L11.316,17.036 C11.573,16.383 11.87,15.738 12.2,15.118 L13.965,16.055 C13.672,16.609 13.407,17.186 13.177,17.769 L13.177,17.769 Z" id="Fill-1" fill="#8C4FFF"></path>
    </g>
</svg>