<?xml version="1.0" encoding="UTF-8"?>
<svg width="64px" height="64px" viewBox="0 0 64 64" version="1.1" xmlns="http://www.w3.org/2000/svg" xmlns:xlink="http://www.w3.org/1999/xlink">
    <title>Icon-Architecture/48/Arch_Amazon-Pinpoint_48</title>
    <g id="Icon-Architecture/48/Arch_Amazon-Pinpoint_48" stroke="none" stroke-width="1" fill="none" fill-rule="evenodd">
        <g id="Icon-Architecture-BG/48/Business-Applications" fill="#DD344C">
            <rect id="Rectangle" x="0" y="0" width="64" height="64"></rect>
        </g>
        <g id="Icon-Service/48/Amazon-Pinpoint" transform="translate(10.000000, 10.000000)" fill="#FFFFFF">
            <path d="M21.293,21.293 L25.472,17.114 C24.491,16.416 23.296,16 22.003,16 C18.696,16 16.007,18.69 16.007,21.997 C16.007,25.303 18.696,27.994 22.003,27.994 C25.31,27.994 28,25.303 28,21.997 C28,20.704 27.585,19.508 26.886,18.528 L22.707,22.707 L21.293,21.293 Z M31.862,13.552 L28.313,17.102 C29.366,18.456 30,20.152 30,21.997 C30,26.406 26.412,29.994 22.003,29.994 C17.594,29.994 14.007,26.406 14.007,21.997 C14.007,17.587 17.594,14 22.003,14 C23.848,14 25.544,14.634 26.898,15.688 L30.448,12.138 C28.175,10.187 25.227,9 22.003,9 C14.837,9 9.007,14.83 9.007,21.997 C9.007,29.163 14.837,34.994 22.003,34.994 C29.17,34.994 35,29.163 35,21.997 C35,18.772 33.814,15.826 31.862,13.552 L31.862,13.552 Z M34.027,7.014 C34.027,8.66 35.367,10 37.014,10 C38.66,10 40,8.66 40,7.014 C40,5.367 38.66,4.027 37.014,4.027 C35.367,4.027 34.027,5.367 34.027,7.014 L34.027,7.014 Z M31.861,10.724 L32.848,9.739 C32.332,8.954 32.027,8.02 32.027,7.014 C32.027,4.264 34.265,2.027 37.014,2.027 C39.763,2.027 42,4.264 42,7.014 C42,9.763 39.763,12 37.014,12 C35.993,12 35.045,11.689 34.253,11.161 L33.275,12.138 C35.587,14.777 37,18.221 37,21.997 C37,30.266 30.272,36.994 22.003,36.994 C13.734,36.994 7.007,30.266 7.007,21.997 C7.007,13.728 13.734,7 22.003,7 C25.778,7 29.223,8.413 31.861,10.724 L31.861,10.724 Z M44,22 C44,34.131 34.131,44 22,44 C9.869,44 0,34.131 0,22 C0,9.869 9.869,0 22,0 C25.081,0 28.064,0.627 30.863,1.863 L30.055,3.693 C27.512,2.569 24.801,2 22,2 C10.972,2 2,10.972 2,22 C2,33.028 10.972,42 22,42 C33.028,42 42,33.028 42,22 C42,19.191 41.435,16.495 40.318,13.987 L42.147,13.174 C43.376,15.94 44,18.909 44,22 L44,22 Z" id="Amazon-Pinpoint-Icon_48_Squid"></path>
        </g>
    </g>
</svg>