<?xml version="1.0" encoding="UTF-8"?>
<svg width="64px" height="64px" viewBox="0 0 64 64" version="1.1" xmlns="http://www.w3.org/2000/svg" xmlns:xlink="http://www.w3.org/1999/xlink">
    <title>Icon-Architecture/48/Arch_AWS-Wickr_48</title>
    <g id="Icon-Architecture/48/Arch_AWS-Wickr_48" stroke="none" stroke-width="1" fill="none" fill-rule="evenodd">
        <g id="Icon-Architecture-BG/48/Business-Applications" fill="#DD344C">
            <rect id="Rectangle" x="0" y="0" width="64" height="64"></rect>
        </g>
        <path d="M22,36 C22,37.654 23.346,39 25,39 L39,39 C40.654,39 42,37.654 42,36 L42,25 C42,23.346 40.654,22 39,22 L25,22 C23.346,22 22,23.346 22,25 L22,36 Z M27,20 L37,20 L37,16 C37,13.794 35.206,12 33,12 L31,12 C28.794,12 27,13.794 27,16 L27,20 Z M25,20 L25,16 C25,12.691 27.691,10 31,10 L33,10 C36.309,10 39,12.691 39,16 L39,20 C41.757,20 44,22.243 44,25 L44,36 C44,38.757 41.757,41 39,41 L25,41 C22.243,41 20,38.757 20,36 L20,25 C20,22.243 22.243,20 25,20 L25,20 Z M30.707,35.707 L39.707,26.707 L38.293,25.293 L29.293,34.293 L30.707,35.707 Z M33.707,26.707 L32.293,25.293 L23.293,34.293 L24.707,35.707 L33.707,26.707 Z M53,20.659 L53,45.322 C53,47.355 51.305,49.008 49.221,49.008 L30,48.973 L30,53.971 C30,54.361 29.772,54.716 29.418,54.88 C29.284,54.941 29.142,54.971 29,54.971 C28.766,54.971 28.534,54.888 28.35,54.73 L21.63,48.97 L14.806,48.964 C12.708,48.964 11,47.312 11,45.281 L11,20.659 C11,18.646 12.7,17.008 14.791,17.008 L23,17.008 L23,19.008 L14.791,19.008 C13.804,19.008 13,19.749 13,20.659 L13,45.281 C13,46.209 13.811,46.964 14.807,46.964 L22.001,46.971 C22.239,46.971 22.47,47.056 22.65,47.212 L28,51.797 L28,47.971 C28,47.705 28.105,47.451 28.294,47.263 C28.481,47.076 28.735,46.971 29,46.971 L49.223,47.008 C50.202,47.008 51,46.252 51,45.322 L51,20.659 C51,19.749 50.196,19.008 49.209,19.008 L41,19.008 L41,17.008 L49.209,17.008 C51.3,17.008 53,18.646 53,20.659 L53,20.659 Z" id="Fill-5" fill="#FFFFFF"></path>
    </g>
</svg>