<?xml version="1.0" encoding="UTF-8"?>
<svg width="64px" height="64px" viewBox="0 0 64 64" version="1.1" xmlns="http://www.w3.org/2000/svg" xmlns:xlink="http://www.w3.org/1999/xlink">
    <title>Icon-Architecture/48/Arch_AWS-AppFabric_48</title>
    <g id="Icon-Architecture/48/Arch_AWS-AppFabric_48" stroke="none" stroke-width="1" fill="none" fill-rule="evenodd">
        <g id="Icon-Architecture-BG/48/Business-Applications" fill="#DD344C">
            <rect id="Rectangle" x="0" y="0" width="64" height="64"></rect>
        </g>
        <g id="Icon-Service/48/AWS-AppFabric_48" transform="translate(10.000000, 10.000000)" fill="#FFFFFF">
            <path d="M40.81625,25.585 C45.04725,21.354 45.04725,14.469 40.81625,10.237 C38.76625,8.187 36.04125,7.058 33.14225,7.058 C30.24425,7.058 27.51825,8.187 25.46825,10.237 L16.41325,19.293 C13.64125,22.064 12.57825,26.132 13.63825,29.909 L15.56425,29.368 C14.69925,26.287 15.56625,22.968 17.82725,20.707 L26.88225,11.651 C28.55425,9.979 30.77825,9.058 33.14225,9.058 C35.50625,9.058 37.73025,9.979 39.40225,11.651 C42.85325,15.103 42.85325,20.719 39.40225,24.171 L20.99225,42.582 L22.40625,43.996 L40.81625,25.585 Z M10.84725,37.125 C7.94925,37.125 5.22325,35.996 3.17325,33.945 C-1.05775,29.714 -1.05775,22.829 3.17325,18.598 L21.77125,0 L23.18525,1.414 L4.58725,20.012 C1.13625,23.463 1.13625,29.08 4.58725,32.531 C6.25925,34.204 8.48325,35.125 10.84725,35.125 C13.21225,35.125 15.43525,34.204 17.10725,32.531 L26.16325,23.476 C28.55425,21.084 29.37225,17.604 28.29625,14.395 L30.19325,13.759 C31.51125,17.692 30.50825,21.958 27.57725,24.89 L18.52125,33.945 C16.47125,35.996 13.74625,37.125 10.84725,37.125 L10.84725,37.125 Z" id="Fill-1"></path>
        </g>
    </g>
</svg>