<svg width="64" height="64" viewBox="0 0 64 64" fill="none" xmlns="http://www.w3.org/2000/svg">
<g clip-path="url(#clip0_15_115)">
<rect width="64" height="64" fill="#DD344C"/>
<path d="M50.64 17H18.35C16.5 17 14.99 18.5 14.99 20.35V42.65C14.99 44.49 16.49 45.99 18.33 45.99H33.99V51.66C33.99 52.04 34.21 52.39 34.56 52.56C34.7 52.63 34.85 52.66 34.99 52.66C35.21 52.66 35.43 52.59 35.61 52.44L43.74 45.98H50.64C52.49 45.98 54 44.48 54 42.63V20.35C54 18.5 52.5 17 50.64 17ZM52 42.65C52 43.4 51.39 44 50.64 44H43.4C43.17 44 42.95 44.08 42.78 44.22L36 49.6V45C36 44.45 35.55 44 35 44H18.34C17.6 44 17 43.4 17 42.66V20.35C17 19.6 17.61 19 18.36 19H50.65C51.4 19 52.01 19.61 52.01 20.35V42.64L52 42.65ZM12.91 39H14V41H12.91C11.31 41 10 39.69 10 38.09V14.35C10 12.5 11.5 11 13.36 11H41.65C43.5 11 45.01 12.5 45.01 14.35V16H43.01V14.35C43.01 13.6 42.4 13 41.65 13H13.36C12.61 13 12 13.61 12 14.35V38.09C12 38.59 12.41 39 12.91 39ZM38.67 32.3C38.15 31.97 37.59 31.72 37.02 31.51C38.54 30.59 39.57 28.94 39.57 27.03C39.57 24.13 37.21 21.78 34.32 21.78C31.43 21.78 29.07 24.14 29.07 27.03C29.07 28.93 30.09 30.58 31.6 31.5C28.28 32.71 25.88 36.06 25.88 40C25.88 40.55 26.33 41 26.88 41H41.76C42.31 41 42.76 40.55 42.76 40C42.76 36.82 41.23 33.94 38.67 32.3ZM34.32 23.78C36.11 23.78 37.57 25.24 37.57 27.03C37.57 28.82 36.11 30.28 34.32 30.28C32.53 30.28 31.07 28.82 31.07 27.03C31.07 25.24 32.53 23.78 34.32 23.78ZM27.95 39C28.4 35.62 31.09 33.02 34.32 33.02C35.47 33.02 36.6 33.35 37.59 33.99C39.28 35.07 40.41 36.94 40.69 39.01H27.95V39Z" fill="white"/>
</g>
<defs>
<clipPath id="clip0_15_115">
<rect width="64" height="64" fill="white"/>
</clipPath>
</defs>
</svg>
