<?xml version="1.0" encoding="UTF-8"?>
<svg width="64px" height="64px" viewBox="0 0 64 64" version="1.1" xmlns="http://www.w3.org/2000/svg" xmlns:xlink="http://www.w3.org/1999/xlink">
    <title>Icon-Architecture/48/Arch_Amazon-Chime-SDK_48</title>
    <g id="Icon-Architecture/48/Arch_Amazon-Chime-SDK_48" stroke="none" stroke-width="1" fill="none" fill-rule="evenodd">
        <g id="Icon-Architecture-BG/48/Business-Applications" fill="#DD344C">
            <rect id="Rectangle" x="0" y="0" width="64" height="64"></rect>
        </g>
        <g id="Icon-Service/48/Amazon-Chime-SDK_48" transform="translate(10.000000, 10.000000)" fill="#FFFFFF">
            <path d="M24,28.569 L21.62,26.951 L18,26.951 L18,25 L21,25 L21,22.574 L16.102,19.716 L14,21.468 L14,25.5 L17.6,28.2 L16.4,29.799 L12.4,26.799 C12.148,26.611 12,26.315 12,26 L12,21.15 L9.694,19.675 L5,22.478 L5,25.255 L7.162,26.69 L9,25.465 L9,23 L11,23 L11,26 C11,26.334 10.833,26.646 10.555,26.832 L8,28.535 L8,30 C8,30.334 7.833,30.646 7.555,30.832 L4.555,32.832 L3.445,31.168 L6,29.465 L6,28.319 L4.17,27.104 L2,28.43 L2,33.189 L4.417,34.296 C4.772,34.459 5,34.814 5,35.205 L5,38.771 L9.993,41.823 L12,40.613 L12,35.144 L8.625,37.78 L7.375,36.219 L11.921,32.582 L11.921,31.187 L10.113,30.103 L11.143,28.388 L13.436,29.763 C13.736,29.944 14,30.27 14,30.621 L14,37 L17,37 L17,39 L14,39 L14,40.597 L15.997,41.834 L21,38.767 L21,35.462 L17.444,33.025 L18.556,31.361 L22.459,33.97 L24,33.332 L24,28.569 Z M26,28.04 L26,34 C26,34.404 25.757,34.769 25.383,34.923 L23.091,35.874 L23.091,39.332 C23.091,39.682 22.907,40.007 22.606,40.188 L16.516,43.856 C16.201,44.047 15.805,44.048 15.488,43.859 L12.935,42.338 L10.532,43.846 C10.369,43.948 10.185,44.0000039 10,44.0000039 C9.819,44.0000039 9.639,43.951 9.479,43.853 L3.479,40.185 C3.182,40.003 3,39.68 3,39.332 L3,35.847 L0.583,34.739 C0.228,34.576 0,34.221 0,33.83 L0,27.87 C0,27.522 0.182,27.198 0.479,27.017 L3,25.475 L3,21.91 C3,21.558 3.186,21.232 3.487,21.051 L9.199,17.641 C9.525,17.446 9.933,17.454 10.251,17.657 L13.192,19.538 L15.359,17.732 C15.685,17.462 16.143,17.424 16.504,17.636 L22.504,21.136 C22.812,21.315 23,21.644 23,22 L23,25.47 L25.562,27.213 C25.836,27.399 26,27.709 26,28.04 L26,28.04 Z M16,15 L18,15 L18,5 L16,5 L16,15 Z M21,18 L23,18 L23,8 L21,8 L21,18 Z M26,22 L28,22 L28,5 L26,5 L26,22 Z M36,14 L38,14 L38,8 L36,8 L36,14 Z M11,15 L13,15 L13,9 L11,9 L11,15 Z M31,17 L33,17 L33,9 L31,9 L31,17 Z M32,36 C31.884,36 31.767,35.98 31.653,35.938 C31.261,35.792 31,35.418 31,35 L31,29.048 L28,29 L28.001,27 L32.001,27 C32.553,27 33,27.497 33,28.048 L33,32.297 L37.241,27.349 C37.431,27.127 37.708,27 38,27 L40,27 C40.9,27 42,26.077 42,25 L42,3.828 C42,2.82 41.239,2 40.305,2 L8.765,2 C7.792,2 7,2.82 7,3.828 L7,16 L5,16 L5,3.828 C5,1.717 6.688,0 8.765,0 L40.305,0 C42.343,0 44,1.717 44,3.828 L44,25 C44,27.093 42.094,29 40,29 L38.46,29 L32.759,35.651 C32.565,35.877 32.286,36 32,36 L32,36 Z" id="Fill-1"></path>
        </g>
    </g>
</svg>