<svg width="40" height="40" viewBox="0 0 40 40" fill="none" xmlns="http://www.w3.org/2000/svg">
<g clip-path="url(#clip0_15_114)">
<rect width="40" height="40" fill="#DD344C"/>
<path d="M31.91 10H11.09C9.94 10 9 10.94 9 12.09V26.92C9 28.07 9.93 29 11.08 29H20V33.01C20 33.2 20.11 33.38 20.28 33.46C20.35 33.49 20.42 33.51 20.5 33.51C20.61 33.51 20.72 33.47 20.81 33.4L26.35 29H31.91C33.06 29 34 28.06 34 26.91V12.09C34 10.94 33.06 10 31.91 10ZM33 26.91C33 27.51 32.51 28 31.91 28H26.18C26.07 28 25.96 28.04 25.87 28.11L21 31.97V28.5C21 28.22 20.78 28 20.5 28H11.08C10.48 28 10 27.51 10 26.92V12.09C10 11.49 10.49 11 11.09 11H31.91C32.51 11 33 11.49 33 12.09V26.91ZM7 8.09V23.21C7 23.65 7.35 24 7.79 24H8V25H7.79C6.8 25 6 24.2 6 23.21V8.09C6 6.94 6.94 6 8.09 6H26.91C28.06 6 29 6.94 29 8.09V9H28V8.09C28 7.49 27.51 7 26.91 7H8.09C7.49 7 7 7.49 7 8.09ZM23.85 19.83C23.59 19.67 23.32 19.54 23.04 19.42C23.83 18.85 24.35 17.93 24.35 16.88C24.35 15.15 22.94 13.74 21.22 13.74C19.5 13.74 18.08 15.15 18.08 16.88C18.08 17.92 18.6 18.85 19.39 19.42C17.47 20.21 16.11 22.19 16.11 24.5C16.11 24.78 16.33 25 16.61 25H25.83C26.11 25 26.33 24.78 26.33 24.5C26.33 22.57 25.4 20.82 23.85 19.83ZM21.22 14.75C22.4 14.75 23.35 15.71 23.35 16.89C23.35 18.07 22.39 19.03 21.22 19.03C20.05 19.03 19.08 18.07 19.08 16.89C19.08 15.71 20.04 14.75 21.22 14.75ZM17.13 24C17.36 21.78 19.11 20.05 21.22 20.05C21.96 20.05 22.68 20.26 23.31 20.67C24.42 21.38 25.16 22.63 25.3 24H17.13Z" fill="white"/>
</g>
<defs>
<clipPath id="clip0_15_114">
<rect width="40" height="40" fill="white"/>
</clipPath>
</defs>
</svg>
