<?xml version="1.0" encoding="UTF-8"?>
<svg width="64px" height="64px" viewBox="0 0 64 64" version="1.1" xmlns="http://www.w3.org/2000/svg" xmlns:xlink="http://www.w3.org/1999/xlink">
    <title>Icon-Architecture/48/Arch_Amazon-Location-Service_48</title>
    <g id="Icon-Architecture/48/Arch_Amazon-Location-Service_48" stroke="none" stroke-width="1" fill="none" fill-rule="evenodd">
        <g id="Icon-Architecture-BG/48/Mobile" fill="#DD344C">
            <rect id="Rectangle" x="0" y="0" width="64" height="64"></rect>
        </g>
        <g id="Icon-Service/48/Amazon-Location-Service_48" transform="translate(10.000000, 10.000000)" fill="#FFFFFF">
            <path d="M26.4832083,2 L24.0812083,7.606 C24.0002083,7.794 23.9792083,8.003 24.0212083,8.204 L24.8122083,12 L19.2192083,12 L19.9802083,8.196 C20.0202083,7.998 19.9992083,7.792 19.9192083,7.606 L17.5162083,2 L26.4832083,2 Z M17.9592083,8.108 L17.0192083,12.804 C16.9612083,13.098 17.0372083,13.402 17.2262083,13.634 C17.4172083,13.866 17.7002083,14 18.0002083,14 L21.0002083,14 L21.0002083,21 L23.0002083,21 L23.0002083,14 L26.0422083,14 C26.3422083,14 26.6282083,13.864 26.8182083,13.631 C27.0072083,13.397 27.0822083,13.091 27.0202083,12.796 L26.0432083,8.104 L28.9192083,1.394 C29.0512083,1.085 29.0192083,0.73 28.8352083,0.45 C28.6492083,0.169 28.3362083,0 28.0002083,0 L16.0002083,0 C15.6642083,0 15.3502083,0.169 15.1652083,0.45 C14.9802083,0.73 14.9482083,1.085 15.0812083,1.394 L17.9592083,8.108 Z M35.2412083,28.587 L32.8372083,29.732 L22.0002083,34.893 L11.1632083,29.732 L8.75820831,28.587 L3.42620831,26.048 L8.71420831,23.781 L14.0472083,26.32 L16.4522083,27.466 L21.5702083,29.903 C21.7062083,29.968 21.8532083,30 22.0002083,30 C22.1462083,30 22.2942083,29.968 22.4292083,29.903 L27.5472083,27.466 L29.9522083,26.32 L35.2852083,23.781 L40.5732083,26.048 L35.2412083,28.587 Z M40.5732083,33.048 L22.0002083,41.893 L3.42620831,33.048 L8.71420831,30.781 L21.5702083,36.903 C21.7062083,36.968 21.8532083,37 22.0002083,37 C22.1462083,37 22.2942083,36.968 22.4292083,36.903 L35.2852083,30.781 L40.5732083,33.048 Z M44.0003684,25.98 C43.9922083,25.587 43.7542083,25.236 43.3932083,25.081 L37.6892083,22.636 L43.4292083,19.903 C43.7842083,19.734 44.0072083,19.373 44.0003684,18.98 C43.9922083,18.587 43.7542083,18.236 43.3932083,18.081 L28.8672083,11.855 L28.9782083,12.388 C29.0932083,12.941 29.0322083,13.502 28.8432083,14.021 L40.5732083,19.048 L35.2412083,21.587 L32.8372083,22.732 L27.5042083,25.271 L25.0992083,26.417 L22.0002083,27.893 L18.9002083,26.417 L16.4962083,25.271 L11.1632083,22.732 L8.75820831,21.587 L3.42620831,19.048 L15.1922083,14.005 C15.0112083,13.499 14.9502083,12.952 15.0582083,12.412 L15.1732083,11.838 L0.606208309,18.081 C0.245208309,18.236 0.00720830911,18.587 3.55271368e-15,18.98 C-0.00779169089,19.373 0.215208309,19.734 0.570208309,19.903 L6.31020831,22.636 L0.606208309,25.081 C0.245208309,25.236 0.00720830911,25.587 3.55271368e-15,25.98 C-0.00779169089,26.373 0.215208309,26.734 0.570208309,26.903 L6.31020831,29.636 L0.606208309,32.081 C0.245208309,32.236 0.00720830911,32.587 3.55271368e-15,32.98 C-0.00779169089,33.373 0.215208309,33.734 0.570208309,33.903 L21.5702083,43.903 C21.7062083,43.968 21.8532083,44 22.0002083,44 C22.1462083,44 22.2942083,43.968 22.4292083,43.903 L43.4292083,33.903 C43.7842083,33.734 44.0072083,33.373 44.0003684,32.98 C43.9922083,32.587 43.7542083,32.236 43.3932083,32.081 L37.6892083,29.636 L43.4292083,26.903 C43.7842083,26.734 44.0072083,26.373 44.0003684,25.98 L44.0003684,25.98 Z" id="Fill-3"></path>
        </g>
    </g>
</svg>