<?xml version="1.0" encoding="UTF-8"?>
<svg width="40px" height="40px" viewBox="0 0 40 40" version="1.1" xmlns="http://www.w3.org/2000/svg" xmlns:xlink="http://www.w3.org/1999/xlink">
    <title>Icon-Architecture/32/Arch_AWS-Marketplace_Light_32</title>
    <g id="Icon-Architecture/32/Arch_AWS-Marketplace_Light_32" stroke="none" stroke-width="1" fill="none" fill-rule="evenodd">
        <rect id="Rectangle" fill="#232F3E" x="0" y="0" width="40" height="40"></rect>
        <g id="Icon-Service/32/AWS-Marketplace_32" transform="translate(8.500000, 8.000000)" fill="#FFFFFF">
            <path d="M14.99,23.5600021 C14.438,23.5600021 13.99,23.1110021 13.99,22.5600021 C13.99,22.0090021 14.438,21.5600021 14.99,21.5600021 C15.542,21.5600021 15.99,22.0090021 15.99,22.5600021 C15.99,23.1110021 15.542,23.5600021 14.99,23.5600021 L14.99,23.5600021 Z M19.985,7.07700213 C19.747,7.07700213 19.543,7.24500213 19.495,7.47800213 L17.345,18.0770021 L2.4,18.0770021 L0.98,10.9790021 L-1.77635684e-15,11.1750021 L1.5,18.6750021 C1.547,18.9090021 1.752,19.0770021 1.99,19.0770021 L15.603,19.0770021 L14.689,20.5900021 C13.73,20.7370021 12.99,21.5600021 12.99,22.5600021 C12.99,23.6630021 13.887,24.5600021 14.99,24.5600021 C16.093,24.5600021 16.99,23.6630021 16.99,22.5600021 C16.99,21.7370021 16.49,21.0290021 15.778,20.7230021 L16.772,19.0770021 L17.755,19.0770021 C17.993,19.0770021 18.197,18.9100021 18.245,18.6760021 L20.394,8.07700213 L24.49,8.07700213 L24.49,7.07700213 L19.985,7.07700213 Z M5.989,23.5600021 C5.437,23.5600021 4.989,23.1110021 4.989,22.5600021 C4.989,22.0090021 5.437,21.5600021 5.989,21.5600021 C6.541,21.5600021 6.989,22.0090021 6.989,22.5600021 C6.989,23.1110021 6.541,23.5600021 5.989,23.5600021 L5.989,23.5600021 Z M5.989,20.5600021 C4.886,20.5600021 3.989,21.4570021 3.989,22.5600021 C3.989,23.6630021 4.886,24.5600021 5.989,24.5600021 C7.092,24.5600021 7.989,23.6630021 7.989,22.5600021 C7.989,21.4570021 7.092,20.5600021 5.989,20.5600021 L5.989,20.5600021 Z M5.99,1.07800213 L8.983,2.80600213 L5.99,4.50200213 L2.997,2.80600213 L5.99,1.07800213 Z M14.008,1.07600213 L16.977,2.76200213 L13.986,4.54000213 L10.992,2.81100213 L14.008,1.07600213 Z M14.49,8.68400213 L14.49,5.40400213 L17.472,3.63100213 L17.472,7.14000213 L14.49,8.68400213 Z M10.49,15.6210021 L10.49,12.0700021 L13.49,10.3650021 L13.49,13.7790021 L10.49,15.6210021 Z M6.49,10.5550021 L9.49,12.0850021 L9.49,15.6210021 L6.49,13.7790021 L6.49,10.5550021 Z M9.49,7.14000213 L6.49,8.87200213 L6.49,5.36800213 L9.49,3.66800213 L9.49,7.14000213 Z M13.49,8.68300213 L10.49,7.12500213 L10.49,3.67600213 L13.49,5.40800213 L13.49,8.68300213 Z M9.977,11.2110021 L7.037,9.71100213 L10.003,7.99900213 L12.943,9.52600213 L9.977,11.2110021 Z M2.49,3.66800213 L5.49,5.36800213 L5.49,8.87200213 L2.49,7.14000213 L2.49,3.66800213 Z M5.49,10.0270021 L5.49,14.0590021 C5.49,14.2330021 5.58,14.3940021 5.728,14.4850021 L9.728,16.9410021 C9.808,16.9900021 9.899,17.0150021 9.99,17.0150021 C10.081,17.0150021 10.172,16.9900021 10.252,16.9410021 L14.252,14.4850021 C14.4,14.3940021 14.49,14.2330021 14.49,14.0590021 L14.49,9.81000213 L18.202,7.88800213 C18.368,7.80200213 18.472,7.63100213 18.472,7.44400213 L18.472,2.75200213 C18.472,2.57200213 18.376,2.40600213 18.219,2.31700213 L14.253,0.0650021307 C14.097,-0.0219978693 13.91,-0.0219978693 13.757,0.0670021307 L9.99,2.23300213 L6.24,0.0670021307 C6.086,-0.0219978693 5.894,-0.0219978693 5.74,0.0670021307 L1.74,2.37700213 C1.586,2.46600213 1.49,2.63100213 1.49,2.81000213 L1.49,7.42900213 C1.49,7.60700213 1.586,7.77200213 1.74,7.86200213 L5.49,10.0270021 Z" id="Fill-6"></path>
        </g>
    </g>
</svg>