<?xml version="1.0" encoding="UTF-8"?>
<svg width="24px" height="24px" viewBox="0 0 24 24" version="1.1" xmlns="http://www.w3.org/2000/svg" xmlns:xlink="http://www.w3.org/1999/xlink">
    <title>Icon-Architecture/16/Arch_Amazon-CodeWhisperer_16</title>
    <g id="Icon-Architecture/16/Arch_Amazon-CodeWhisperer_16" stroke="none" stroke-width="1" fill="none" fill-rule="evenodd">
        <g id="Icon-Architecture-BG/16/Machine-Learning" fill="#01A88D">
            <rect id="Rectangle" x="0" y="0" width="24" height="24"></rect>
        </g>
        <g id="Icon-Service/16/Amazon-CodeWhisperer_16" transform="translate(4.000000, 4.000000)" fill="#FFFFFF">
            <path d="M8.202,7.478 L9.147,7.806 L7.691,12.002 L6.746,11.674 L8.202,7.478 Z M6.424,8.731 L5.457,9.706 L6.403,10.678 L5.686,11.375 L4.397,10.051 C4.207,9.856 4.209,9.544 4.4,9.351 L5.713,8.027 L6.424,8.731 Z M11.607,9.351 C11.799,9.544 11.801,9.856 11.61,10.051 L10.321,11.375 L9.604,10.678 L10.551,9.706 L9.584,8.731 L10.295,8.027 L11.607,9.351 Z M15.009,3 L15.009,11 L14.009,11 L14.009,8.479 C14.009,8.326 13.939,8.182 13.819,8.087 L13.009,7.444 L13.009,5.918 C13.009,5.751 12.925,5.595 12.786,5.502 L9.944,3.608 C9.786,3.503 9.581,3.496 9.417,3.591 L8.009,4.403 L6.6,3.591 C6.445,3.501 6.254,3.502 6.098,3.592 L3.257,5.249 C3.103,5.339 3.009,5.504 3.009,5.682 L3.009,7.444 L2.198,8.087 C2.078,8.182 2.009,8.326 2.009,8.479 L2.009,11 L1,11 L1.009,1 L15.009,1 L15.009,2 L1.009,2 L1.009,3 L15.009,3 Z M12.253,11.224 C12.101,11.314 12.009,11.477 12.009,11.653 L12.009,13.402 L9.574,14.9 L8.257,14.147 C8.18,14.103 8.095,14.081 8.009,14.081 C7.923,14.081 7.838,14.103 7.761,14.147 L6.443,14.9 L4.009,13.402 L4.009,11.653 C4.009,11.477 3.916,11.314 3.765,11.224 L3.009,10.774 L3.009,8.721 L3.819,8.077 C3.939,7.982 4.009,7.838 4.009,7.686 L4.009,5.969 L6.351,4.602 L7.759,5.414 C7.913,5.503 8.104,5.503 8.259,5.414 L9.648,4.612 L12.009,6.186 L12.009,7.686 C12.009,7.838 12.078,7.982 12.198,8.077 L13.009,8.721 L13.009,10.774 L12.253,11.224 Z M15.204,8.8817842e-16 L0.813,8.8817842e-16 C0.37,8.8817842e-16 0.009,0.361 0.009,0.805 L0,11.192 C0,11.635 0.362,11.998 0.811,12 L3.009,12 L3.009,13.681 C3.009,13.855 3.098,14.016 3.247,14.107 L6.172,15.907 C6.328,16.004 6.523,16.007 6.681,15.916 L8.009,15.157 L9.336,15.916 C9.413,15.959 9.498,15.981 9.584,15.981 C9.675,15.981 9.765,15.957 9.846,15.907 L12.77,14.107 C12.919,14.016 13.009,13.855 13.009,13.681 L13.009,12 L15.194,12 C15.643,12 16.009,11.639 16.009,11.195 L16.009,3 L16.009,2 L16.009,0.805 C16.009,0.361 15.647,8.8817842e-16 15.204,8.8817842e-16 L15.204,8.8817842e-16 Z" id="Fill-4"></path>
        </g>
    </g>
</svg>