<?xml version="1.0" encoding="UTF-8"?>
<svg width="24px" height="24px" viewBox="0 0 24 24" version="1.1" xmlns="http://www.w3.org/2000/svg" xmlns:xlink="http://www.w3.org/1999/xlink">
    <title>Icon-Architecture/16/Arch_Amazon-Comprehend-Medical_16</title>
    <g id="Icon-Architecture/16/Arch_Amazon-Comprehend-Medical_16" stroke="none" stroke-width="1" fill="none" fill-rule="evenodd">
        <g id="Icon-Architecture-BG/16/Machine-Learning" fill="#01A88D">
            <rect id="Rectangle" x="0" y="0" width="24" height="24"></rect>
        </g>
        <g id="Icon-Service/16/Amazon-Comprehend-Medical_16" transform="translate(4.000000, 4.000000)" fill="#FFFFFF">
            <path d="M15.000769,12 L13.500769,12 C13.224769,12 13.000769,11.776 13.000769,11.5 L13.000769,10 L12.000769,10 L12.000769,11.5 C12.000769,11.776 11.776769,12 11.500769,12 L10.000769,12 L10.000769,13 L11.500769,13 C11.776769,13 12.000769,13.224 12.000769,13.5 L12.000769,15 L13.000769,15 L13.000769,13.5 C13.000769,13.224 13.224769,13 13.500769,13 L15.000769,13 L15.000769,12 Z M16.000769,11.5 L16.000769,13.5 C16.000769,13.776 15.776769,14 15.500769,14 L14.000769,14 L14.000769,15.5 C14.000769,15.776 13.776769,16 13.500769,16 L11.500769,16 C11.224769,16 11.000769,15.776 11.000769,15.5 L11.000769,14 L9.50076901,14 C9.22476901,14 9.00076901,13.776 9.00076901,13.5 L9.00076901,11.5 C9.00076901,11.224 9.22476901,11 9.50076901,11 L11.000769,11 L11.000769,9.5 C11.000769,9.224 11.224769,9 11.500769,9 L13.500769,9 C13.776769,9 14.000769,9.224 14.000769,9.5 L14.000769,11 L15.500769,11 C15.776769,11 16.000769,11.224 16.000769,11.5 L16.000769,11.5 Z M1.10776901,2.549 L3.00076901,10.331 L3.00076901,2.168 L1.10776901,2.549 Z M11.000769,1.06 L11.000769,3 L13.000769,3 L13.000769,2.915 L11.000769,1.06 Z M4.00076901,14 L8.00076901,14 L8.00076901,15 L3.50076901,15 C3.26576901,15 3.07776901,14.835 3.02376901,14.616 L3.01576901,14.618 L0.0147690125,2.282 C-0.0182309875,2.15 0.00476901252,2.011 0.0767690125,1.896 C0.149769013,1.782 0.266769013,1.702 0.398769013,1.674 L3.00076901,1.148 L3.00076901,0.5 C3.00076901,0.224 3.22476901,0 3.50076901,0 L11.132769,0 C11.258769,0 11.379769,0.048 11.472769,0.133 L13.840769,2.33 C13.942769,2.424 14.000769,2.557 14.000769,2.696 L14.000769,8 L13.000769,8 L13.000769,4 L10.500769,4 C10.224769,4 10.000769,3.776 10.000769,3.5 L10.000769,1 L4.00076901,1 L4.00076901,14 Z M5.00076901,5 L9.00076901,5 L9.00076901,4 L5.00076901,4 L5.00076901,5 Z M5.00076901,9 L10.000769,9 L10.000769,8 L5.00076901,8 L5.00076901,9 Z M5.00076901,7 L12.000769,7 L12.000769,6 L5.00076901,6 L5.00076901,7 Z" id="Fill-7"></path>
        </g>
    </g>
</svg>