<?xml version="1.0" encoding="UTF-8"?>
<svg width="24px" height="24px" viewBox="0 0 24 24" version="1.1" xmlns="http://www.w3.org/2000/svg" xmlns:xlink="http://www.w3.org/1999/xlink">
    <title>Icon-Architecture/16/Arch_AWS-HealthOmics_16</title>
    <g id="Icon-Architecture/16/Arch_AWS-HealthOmics_16" stroke="none" stroke-width="1" fill="none" fill-rule="evenodd">
        <g id="Icon-Architecture-BG/16/Machine-Learning" fill="#01A88D">
            <rect id="Rectangle" x="0" y="0" width="24" height="24"></rect>
        </g>
        <path d="M12.997,14.998 L19.997,14.998 L19.997,13.998 L12.997,13.998 L12.997,14.998 Z M12.997,8.998 L19.997,8.998 L19.997,7.998 L12.997,7.998 L12.997,8.998 Z M9.47,15.938 L9.106,16.87 C9.625,17.071 10.211,17.42 10.59,17.998 L5.344,17.998 C5.651,17.569 6.15,17.122 6.812,16.707 C7.352,16.369 7.985,16.04 8.598,15.722 C9.451,15.279 10.257,14.861 10.792,14.431 C11.57,13.805 11.951,12.982 11.976,11.998 L17.997,11.998 L17.997,10.998 L11.878,10.998 C11.565,9.996 10.597,9.204 9.788,8.695 L9.255,9.541 C10.009,10.016 10.531,10.518 10.792,10.998 L6.997,10.998 L6.997,11.998 L10.986,11.998 C10.965,12.678 10.707,13.217 10.165,13.652 C9.708,14.019 8.945,14.415 8.138,14.834 C7.507,15.162 6.854,15.5 6.28,15.86 C5.429,16.394 4,17.495 4,18.873 L4,19.998 L5,19.998 L5,18.998 L10.951,18.998 C10.96,19.063 10.976,19.122 10.98,19.19 L10.98,19.998 L11.98,19.998 L11.979,19.158 C11.883,17.674 10.991,16.531 9.47,15.938 L9.47,15.938 Z M4.003,4.644 L4.003,4 L5.003,4 L5.003,4.665 C5.003,4.684 5.006,4.813 5.044,4.998 L10.996,4.998 C11,4.95 11.001,4.915 11.001,4.909 L11.001,4 L12.001,4 L12.001,4.893 C12.003,4.933 12.049,6.418 10.431,7.61 C9.834,8.049 8.924,8.469 8.12,8.839 C7.582,9.087 7.074,9.321 6.767,9.512 C6.165,9.886 5.139,10.643 5.032,11.522 C4.924,12.43 5.131,13.028 5.749,13.584 C6.01,13.821 6.353,14.063 6.621,14.248 L6.055,15.072 C5.761,14.87 5.384,14.602 5.079,14.327 C4.223,13.556 3.893,12.626 4.04,11.403 C4.188,10.173 5.318,9.234 6.239,8.663 C6.6,8.439 7.135,8.192 7.701,7.931 C8.462,7.581 9.323,7.184 9.837,6.805 C10.201,6.537 10.442,6.259 10.614,5.998 L5.533,5.998 C5.686,6.191 5.878,6.388 6.136,6.576 C6.322,6.711 6.522,6.848 6.732,6.982 L6.193,7.825 C5.966,7.679 5.748,7.531 5.547,7.384 C3.956,6.225 4.001,4.708 4.003,4.644 L4.003,4.644 Z" id="Fill-4" fill="#FFFFFF"></path>
    </g>
</svg>