<svg width="24" height="24" viewBox="0 0 24 24" fill="none" xmlns="http://www.w3.org/2000/svg">
<g clip-path="url(#clip0_448_4435)">
<rect width="24" height="24" fill="#01A88D"/>
<path fill-rule="evenodd" clip-rule="evenodd" d="M12 5.00049L6 8.42906V15.2684L12 18.697L18 15.2684V8.42906L12 5.00049ZM19 8.42906C19 8.0702 18.8077 7.73886 18.4961 7.56082L12.4961 4.13225C12.1887 3.95657 11.8113 3.95657 11.5039 4.13225L5.50386 7.56082C5.19229 7.73886 5 8.0702 5 8.42906V15.2684C5 15.6273 5.19229 15.9586 5.50386 16.1367L11.5039 19.5652C11.8113 19.7409 12.1887 19.7409 12.4961 19.5652L18.4961 16.1367C18.8077 15.9586 19 15.6273 19 15.2684V8.42906Z" fill="white"/>
<path fill-rule="evenodd" clip-rule="evenodd" d="M8 9.45421V10.5987L12 12.8487L15 11.1612V13.5139L12 15.2014L9 13.5139V12.3087L8 11.7462V13.5139C8 13.8752 8.19486 14.2083 8.50974 14.3855L11.5097 16.073C11.8142 16.2442 12.1858 16.2442 12.4903 16.073L15.4903 14.3855C15.8051 14.2083 16 13.8752 16 13.5139V9.45421L12 11.7042L8 9.45421ZM12 8.49608L13.8318 9.52647L14.8517 8.9528L12.4903 7.62451C12.1858 7.45328 11.8142 7.45328 11.5097 7.62451L9.14834 8.9528L10.1682 9.52647L12 8.49608Z" fill="white"/>
</g>
<defs>
<clipPath id="clip0_448_4435">
<rect width="24" height="24" fill="white"/>
</clipPath>
</defs>
</svg>
