<?xml version="1.0" encoding="UTF-8"?>
<svg width="24px" height="24px" viewBox="0 0 24 24" version="1.1" xmlns="http://www.w3.org/2000/svg" xmlns:xlink="http://www.w3.org/1999/xlink">
    <title>Icon-Architecture/16/Arch_AWS-HealthScribe_16</title>
    <g id="Icon-Architecture/16/Arch_AWS-HealthScribe_16" stroke="none" stroke-width="1" fill="none" fill-rule="evenodd">
        <g id="Icon-Architecture-BG/16/Machine-Learning" fill="#01A88D">
            <rect id="Rectangle" x="0" y="0" width="24" height="24"></rect>
        </g>
        <g id="Icon-Service/16/AWS-HealthScribe_16" transform="translate(4.030000, 4.000000)" fill="#FFFFFF">
            <path d="M9.758,10.965 C9.32,10.386 8.187,10.081 6.962,10.017 L6.962,7.861 L8.088,7.488 C8.193,7.436 8.314,7.455 8.401,7.533 C9.38,8.425 10.729,9.472 11.904,9.671 C11.486,10.115 10.514,10.805 9.758,10.965 L9.758,10.965 Z M6.462,12 C5.08,12 4.242,11.685 4.006,11.5 C4.242,11.315 5.08,11 6.462,11 C7.843,11 8.681,11.315 8.917,11.5 C8.681,11.685 7.843,12 6.462,12 L6.462,12 Z M7.962,13.5 C7.962,13.624 7.429,14 6.462,14 C5.494,14 4.962,13.624 4.962,13.5 C4.962,13.375 5.494,13 6.462,13 C7.429,13 7.962,13.375 7.962,13.5 L7.962,13.5 Z M1.158,9.684 C2.293,9.547 3.703,8.457 4.716,7.533 C4.804,7.455 4.926,7.436 5.077,7.508 L5.962,7.845 L5.962,10.017 C4.736,10.081 3.604,10.385 3.166,10.964 C2.435,10.801 1.526,10.114 1.158,9.684 L1.158,9.684 Z M6.462,5 C6.737,5 6.962,5.224 6.962,5.5 C6.962,5.776 6.737,6 6.462,6 C6.186,6 5.962,5.776 5.962,5.5 C5.962,5.224 6.186,5 6.462,5 L6.462,5 Z M13.097,9.434 C13.097,9.185 12.976,8.967 12.764,8.836 C12.614,8.743 12.425,8.698 12.19,8.698 C11.557,8.698 10.364,7.968 9.074,6.793 C8.679,6.434 8.117,6.355 7.709,6.566 L7.387,6.671 C7.734,6.396 7.962,5.976 7.962,5.5 C7.962,4.673 7.289,4 6.462,4 C5.634,4 4.962,4.673 4.962,5.5 C4.962,5.922 5.138,6.302 5.419,6.575 C4.958,6.372 4.424,6.449 4.044,6.793 C2.755,7.968 1.561,8.698 0.928,8.698 C0.681,8.698 0.485,8.747 0.329,8.849 C0.12,8.984 0,9.206 0,9.457 C0,10.35 1.786,11.727 3.106,11.954 C3.315,12.294 3.753,12.546 4.318,12.717 C4.095,12.943 3.962,13.207 3.962,13.5 C3.962,14.251 4.793,14.84 5.962,14.972 L5.962,16 L6.962,16 L6.962,14.972 C8.13,14.84 8.962,14.251 8.962,13.5 C8.962,13.207 8.828,12.943 8.605,12.717 C9.17,12.546 9.608,12.294 9.817,11.953 C11.115,11.725 13.097,10.377 13.097,9.434 L13.097,9.434 Z M11.962,1.707 L14.255,4 L11.962,4 L11.962,1.707 Z M15.815,4.146 L11.815,0.146 C11.721,0.053 11.594,0 11.462,0 L6.462,0 C6.185,0 5.962,0.224 5.962,0.5 L5.962,3 L6.962,3 L6.962,1 L10.962,1 L10.962,4.5 C10.962,4.776 11.185,5 11.462,5 L14.962,5 L14.962,12 L12.962,12 L12.962,13 L15.462,13 C15.738,13 15.962,12.776 15.962,12.5 L15.962,4.5 C15.962,4.367 15.909,4.24 15.815,4.146 L15.815,4.146 Z" id="Fill-1"></path>
        </g>
    </g>
</svg>