<?xml version="1.0" encoding="UTF-8"?>
<svg width="24px" height="24px" viewBox="0 0 24 24" version="1.1" xmlns="http://www.w3.org/2000/svg" xmlns:xlink="http://www.w3.org/1999/xlink">
    <title>Icon-Architecture/16/Arch_Amazon-Q_16</title>
    <g id="Icon-Architecture/16/Arch_Amazon-Q_16" stroke="none" stroke-width="1" fill="none" fill-rule="evenodd">
        <g id="Icon-Architecture-BG/16/Machine-Learning" fill="#01A88D">
            <rect id="Rectangle" x="0" y="0" width="24" height="24"></rect>
        </g>
        <g id="Icon-Service/16/Amazon-Q_16" transform="translate(5.000000, 4.150000)" fill="#FFFFFF">
            <path d="M7.714,7.3745 L7.714,8.2215 L7.005,8.6605 L6.286,8.2205 L6.286,7.3755 L7.005,6.9385 L7.714,7.3745 Z M7.239,14.6495 C7.089,14.7305 6.911,14.7305 6.761,14.6495 L1.261,11.6615 C1.1,11.5745 1,11.4065 1,11.2225 L1,4.4835 C1,4.3005 1.101,4.1325 1.262,4.0445 L6.763,1.0615 C6.837,1.0205 6.918,1.0005 7,1.0005 C7.082,1.0005 7.163,1.0205 7.238,1.0615 L12.738,4.0445 C12.9,4.1325 13,4.3005 13,4.4835 L13,10.9135 L8.714,8.2245 L8.714,7.0945 C8.714,6.9205 8.624,6.7595 8.476,6.6685 L7.268,5.9265 C7.109,5.8295 6.907,5.8285 6.746,5.9255 L5.526,6.6675 C5.377,6.7585 5.286,6.9195 5.286,7.0945 L5.286,8.5005 C5.286,8.6745 5.377,8.8355 5.526,8.9265 L6.745,9.6735 C6.825,9.7235 6.915,9.7475 7.006,9.7475 C7.097,9.7475 7.189,9.7225 7.269,9.6725 L8.212,9.0895 L12.51,11.7865 L7.239,14.6495 Z M13.215,3.1655 L7.716,0.1835 C7.267,-0.0615 6.733,-0.0605 6.285,0.1825 L0.785,3.1655 C0.301,3.4285 0,3.9335 0,4.4835 L0,11.2225 C0,11.7735 0.301,12.2785 0.784,12.5405 L6.284,15.5285 C6.508,15.6505 6.754,15.7115 7,15.7115 C7.246,15.7115 7.492,15.6505 7.716,15.5285 L13.216,12.5405 C13.699,12.2785 14,11.7735 14,11.2225 L14,4.4835 C14,3.9335 13.699,3.4285 13.215,3.1655 L13.215,3.1655 Z" id="Fill-7"></path>
        </g>
    </g>
</svg>