<?xml version="1.0" encoding="UTF-8"?>
<svg width="24px" height="24px" viewBox="0 0 24 24" version="1.1" xmlns="http://www.w3.org/2000/svg" xmlns:xlink="http://www.w3.org/1999/xlink">
    <title>Icon-Architecture/16/Arch_AWS-Panorama_16</title>
    <g id="Icon-Architecture/16/Arch_AWS-Panorama_16" stroke="none" stroke-width="1" fill="none" fill-rule="evenodd">
        <g id="Icon-Architecture-BG/16/Machine-Learning" fill="#01A88D">
            <rect id="Rectangle" x="0" y="0" width="24" height="24"></rect>
        </g>
        <g id="Icon-Service/16/AWS-Panorama_16" transform="translate(4.000000, 4.500000)" fill="#FFFFFF">
            <path d="M2.5,5 C3.052,5 3.5,4.551 3.5,4 C3.5,3.449 3.052,3 2.5,3 C1.948,3 1.5,3.449 1.5,4 C1.5,4.551 1.948,5 2.5,5 M6,9 L6,13.5 L5,13.5 L5,9.36 L2.342,8.474 C2.138,8.406 2,8.215 2,8 L2,5.929 C1.14,5.706 0.5,4.929 0.5,4 C0.5,2.897 1.397,2 2.5,2 C3.603,2 4.5,2.897 4.5,4 C4.5,4.929 3.86,5.706 3,5.929 L3,7.64 L5.658,8.526 C5.862,8.594 6,8.785 6,9 M8.5,2 C8.5,1.449 8.052,1 7.5,1 C6.948,1 6.5,1.449 6.5,2 C6.5,2.551 6.948,3 7.5,3 C8.052,3 8.5,2.551 8.5,2 M8,3.929 L8,12.5 L7,12.5 L7,3.929 C6.14,3.706 5.5,2.929 5.5,2 C5.5,0.897 6.397,0 7.5,0 C8.603,0 9.5,0.897 9.5,2 C9.5,2.929 8.86,3.706 8,3.929 M14.5,7 C14.5,6.449 14.052,6 13.5,6 C12.948,6 12.5,6.449 12.5,7 C12.5,7.551 12.948,8 13.5,8 C14.052,8 14.5,7.551 14.5,7 M15.5,7 C15.5,8.103 14.603,9 13.5,9 C12.571,9 11.795,8.36 11.571,7.5 L10,7.5 L10,13.5 L9,13.5 L9,7 C9,6.724 9.224,6.5 9.5,6.5 L11.571,6.5 C11.795,5.64 12.571,5 13.5,5 C14.603,5 15.5,5.897 15.5,7 M15,13.5 L15,13.5 C15,14.604 14.104,15.5 13,15.5 L2,15.5 C0.896,15.5 0,14.604 0,13.5 C0,12.396 0.896,11.5 2,11.5 L4,11.5 L4,12.5 L2,12.5 C1.448,12.5 1,12.949 1,13.5 L1,13.597 C1,14.095 1.448,14.5 2,14.5 L13,14.5 C13.552,14.5 14,14.095 14,13.597 L14,13.403 C14,12.905 13.552,12.5 13,12.5 L11,12.5 L11,11.5 L13,11.5 C14.104,11.5 15,12.396 15,13.5" id="Fill-5"></path>
        </g>
    </g>
</svg>