<?xml version="1.0" encoding="UTF-8"?>
<svg width="24px" height="24px" viewBox="0 0 24 24" version="1.1" xmlns="http://www.w3.org/2000/svg" xmlns:xlink="http://www.w3.org/1999/xlink">
    <title>Icon-Architecture/16/Arch_AWS-HealthImaging_16</title>
    <g id="Icon-Architecture/16/Arch_AWS-HealthImaging_16" stroke="none" stroke-width="1" fill="none" fill-rule="evenodd">
        <g id="Icon-Architecture-BG/16/Machine-Learning" fill="#01A88D">
            <rect id="Rectangle" x="0" y="0" width="24" height="24"></rect>
        </g>
        <g id="Icon-Service/16/AWS-HealthImaging_16" transform="translate(4.000000, 4.000000)" fill="#FFFFFF">
            <path d="M7.06678591,11.9941115 L8.06678591,11.9941115 L8.06678591,10.9941115 L7.06678591,10.9941115 L7.06678591,11.9941115 Z M7.06678591,9.99411154 L8.06678591,9.99411154 L8.06678591,4.99411154 L7.06678591,4.99411154 L7.06678591,9.99411154 Z M5.06678591,13.9941115 L6.06678591,13.9941115 L6.06678591,12.9941115 L5.06678591,12.9941115 L5.06678591,13.9941115 Z M5.06678591,11.9941115 L6.06678591,11.9941115 L6.06678591,8.99411154 L5.06678591,8.99411154 L5.06678591,11.9941115 Z M3.06678591,7.99411154 L6.06678591,7.99411154 L6.06678591,6.99411154 L2.92578591,6.99411154 C2.45278591,6.99411154 2.06678591,7.38011154 2.06678591,7.85311154 L2.06678591,15.1351115 C2.06678591,15.6081115 2.45278591,15.9941115 2.92578591,15.9941115 L10.0657859,15.9941115 L10.0657859,14.9941115 L3.06678591,14.9941115 L3.06678591,7.99411154 Z M9.06678591,6.99411154 L9.06678591,7.99411154 L14.0667859,7.99411154 L14.0667859,7.85311154 C14.0667859,7.38011154 13.6807859,6.99411154 13.2077859,6.99411154 L9.06678591,6.99411154 Z M15.0667859,11.9941115 L13.5667859,11.9941115 C13.2907859,11.9941115 13.0667859,11.7701115 13.0667859,11.4941115 L13.0667859,9.99411154 L12.0667859,9.99411154 L12.0667859,11.4941115 C12.0667859,11.7701115 11.8427859,11.9941115 11.5667859,11.9941115 L10.0667859,11.9941115 L10.0667859,12.9941115 L11.5667859,12.9941115 C11.8427859,12.9941115 12.0667859,13.2181115 12.0667859,13.4941115 L12.0667859,14.9941115 L13.0667859,14.9941115 L13.0667859,13.4941115 C13.0667859,13.2181115 13.2907859,12.9941115 13.5667859,12.9941115 L15.0667859,12.9941115 L15.0667859,11.9941115 Z M16.0667859,11.4941115 L16.0667859,13.4941115 C16.0667859,13.7701115 15.8427859,13.9941115 15.5667859,13.9941115 L14.0667859,13.9941115 L14.0667859,15.4941115 C14.0667859,15.7701115 13.8427859,15.9941115 13.5667859,15.9941115 L11.5667859,15.9941115 C11.2907859,15.9941115 11.0667859,15.7701115 11.0667859,15.4941115 L11.0667859,13.9941115 L9.56678591,13.9941115 C9.29078591,13.9941115 9.06678591,13.7701115 9.06678591,13.4941115 L9.06678591,11.4941115 C9.06678591,11.2181115 9.29078591,10.9941115 9.56678591,10.9941115 L11.0667859,10.9941115 L11.0667859,9.49411154 C11.0667859,9.21811154 11.2907859,8.99411154 11.5667859,8.99411154 L13.5667859,8.99411154 C13.8427859,8.99411154 14.0667859,9.21811154 14.0667859,9.49411154 L14.0667859,10.9941115 L15.5667859,10.9941115 C15.8427859,10.9941115 16.0667859,11.2181115 16.0667859,11.4941115 L16.0667859,11.4941115 Z M1.00078591,7.21511154 C0.994785912,7.28611154 1.00078591,7.46111154 1.00278591,7.53911154 L0.00278591159,7.57111154 C0.000785911592,7.46311154 -0.00321408841,7.22311154 0.00478591159,7.12311154 C0.195785912,5.10811154 1.45878591,4.57511154 2.38978591,4.31311154 L2.37578591,3.84411154 C2.37578591,2.34311154 3.32978591,1.01411154 4.86578591,0.359111537 C6.53078591,-0.348888463 8.28778591,0.0031115371 9.57378591,1.29911154 C9.91078591,1.63811154 10.1947859,2.03711154 10.4247859,2.49311154 C11.0217859,2.13111154 11.8077859,2.05611154 12.4697859,2.35211154 C13.0627859,2.61511154 13.6127859,3.23611154 13.5617859,4.23011154 C15.5717859,4.74211154 16.0027859,6.16511154 16.0027859,7.30711154 L16.0017859,7.47111154 C16.0017859,7.51411154 15.9967859,7.99211154 15.7817859,8.57911154 L14.8417859,8.23511154 C14.9967859,7.81211154 15.0017859,7.46211154 15.0017859,7.45811154 L15.0027859,7.30711154 C15.0027859,5.69111154 13.9397859,5.30111154 13.0127859,5.14111154 C12.9917859,5.13811154 12.8747859,5.10311154 12.8527859,5.09611154 C12.6047859,5.01811154 12.4577859,4.76211154 12.5157859,4.50711154 C12.6577859,3.88911154 12.5007859,3.46011154 12.0637859,3.26511154 C11.6347859,3.07411154 10.9607859,3.17111154 10.6487859,3.61811154 C10.5417859,3.77111154 10.3647859,3.85511154 10.1697859,3.82711154 C9.98478591,3.80111154 9.82978591,3.67411154 9.76678591,3.49711154 C9.55578591,2.89711154 9.25178591,2.39411154 8.86378591,2.00411154 C8.38878591,1.52611154 7.08878591,0.500111537 5.25678591,1.27911154 C4.09678591,1.77411154 3.37578591,2.75111154 3.37578591,3.82811154 L3.40178591,4.68111154 C3.40878591,4.91411154 3.25278591,5.12111154 3.02678591,5.18011154 C2.02578591,5.43611154 1.14778591,5.66111154 1.00078591,7.21511154 L1.00078591,7.21511154 Z" id="Fill-5"></path>
        </g>
    </g>
</svg>