<svg width="24" height="24" viewBox="0 0 24 24" fill="none" xmlns="http://www.w3.org/2000/svg">
<rect width="24" height="24" fill="#01A88D"/>
<path d="M12 13H13V18.5C13 18.7154 12.8623 18.9063 12.6582 18.9742L9.6582 19.9742C9.60644 19.9917 9.55273 20 9.5 20C9.40234 20 9.30566 19.9717 9.22266 19.9161L6.22266 17.9161C6.08399 17.8233 6 17.667 6 17.5V14.8091L4.27637 13.9473C4.10742 13.8623 4 13.6895 4 13.5V10.5C4 10.3106 4.10742 10.1377 4.27637 10.0528L6 9.19094V6.50002C6 6.33303 6.08398 6.17678 6.22266 6.084L9.22266 4.08403C9.35059 3.99858 9.51075 3.97661 9.65821 4.02592L12.6582 5.02592C12.8623 5.09379 13 5.28471 13 5.50004V10H12V5.86039L9.57423 5.0518L9.00001 5.43455V8.00004H8.00001V6.10105L7.00001 6.76761V9.19095L8.50001 9.94095L10 9.19095V8.00003H11V9.50003C11 9.68948 10.8926 9.86233 10.7236 9.9473L9.00001 10.8091V12.191L10.7236 13.0528L10.2764 13.9473L8.27637 12.9473C8.10742 12.8623 8 12.6895 8 12.5V10.8091L6.5 10.0591L5 10.8091V13.191L6.72363 14.0528C6.89258 14.1377 7 14.3106 7 14.5V17.2325L7.57397 17.615L9.34179 17.0259L9.6582 17.9742L8.62787 18.3175L9.57422 18.9483L12 18.1397V13ZM20 11.5C20 12.3272 19.3271 13 18.5 13C17.849 13 17.2992 12.5808 17.0921 12H11V11H17.0921C17.2992 10.4193 17.849 10 18.5 10C19.3271 10 20 10.6729 20 11.5ZM19 11.5C19 11.2242 18.7754 11 18.5 11C18.2246 11 18 11.2242 18 11.5C18 11.7759 18.2246 12 18.5 12C18.7754 12 19 11.7759 19 11.5ZM16.5 10H14V9.00004H16V8.00004H15.25C15.0684 8.00004 14.9004 7.90141 14.8125 7.74223C14.7246 7.58354 14.7295 7.3892 14.8262 7.23491L16.0762 5.23491C16.2578 4.94292 16.7422 4.94292 16.9238 5.23491L18.1738 7.23491C18.2705 7.38921 18.2754 7.58354 18.1875 7.74223C18.0996 7.90141 17.9316 8.00004 17.75 8.00004H17V9.50004C17 9.77641 16.7764 10 16.5 10ZM16.1523 7.00004H16.8476L16.5 6.4434L16.1523 7.00004ZM18 15.5V17.5C18 17.7764 17.7764 18 17.5 18H15.5C15.2236 18 15 17.7764 15 17.5V15.5C15 15.2237 15.2236 15 15.5 15H16V14H14V13H16.5C16.7764 13 17 13.2237 17 13.5V15H17.5C17.7764 15 18 15.2237 18 15.5ZM17 16H16V17H17V16Z" fill="white"/>
</svg>
