<?xml version="1.0" encoding="UTF-8"?>
<svg width="24px" height="24px" viewBox="0 0 24 24" version="1.1" xmlns="http://www.w3.org/2000/svg" xmlns:xlink="http://www.w3.org/1999/xlink">
    <title>Icon-Architecture/16/Arch_Amazon-SageMaker-Studio-Lab_16</title>
    <g id="Icon-Architecture/16/Arch_Amazon-SageMaker-Studio-Lab_16" stroke="none" stroke-width="1" fill="none" fill-rule="evenodd">
        <g id="Icon-Architecture-BG/16/Machine-Learning" fill="#01A88D">
            <rect id="Rectangle" x="0" y="0" width="24" height="24"></rect>
        </g>
        <g id="Icon-Service/16/Amazon-SageMaker-Studio-Lab_16" transform="translate(4.000000, 4.000000)" fill="#FFFFFF">
            <path d="M7.99699097,14.0027342 L9,14.0027342 L9,14.4975433 C9,14.7018774 8.87662989,14.8851771 8.68605817,14.9623032 L6.2106319,15.963941 C6.14944835,15.9879803 6.08625878,16 6.0220662,16 C5.93580742,16 5.84954865,15.977964 5.77231695,15.9338919 L2.2778335,13.9306163 C2.1223671,13.8414705 2.02607823,13.6751987 2.02607823,13.4959055 L2.02607823,11.2752745 L0.279839519,10.4118627 C0.108324975,10.3277251 0,10.1534401 0,9.96312897 L0,5.95657776 C0,5.76927149 0.104312939,5.59799142 0.270812437,5.51185057 L1.93179539,4.65044206 L1.93179539,2.08725093 C1.93179539,1.88892664 2.04814443,1.70963348 2.23069208,1.62950245 L5.81945838,0.0429081741 C5.93881645,-0.0101786295 6.07422267,-0.0141851807 6.19759278,0.0318901582 L8.67402207,0.953396936 C8.86960883,1.0265165 9,1.21282113 9,1.42216343 L9,1.93199707 L7.99699097,1.93199707 L7.99699097,1.77073338 L6.03911735,1.04154106 L6.0220662,1.04855253 L6.0220662,3.36133421 L5.01905717,3.36133421 L5.01905717,1.49227807 L2.93480441,2.41378485 L2.93480441,4.63341422 L5.13440321,5.6370553 C5.15847543,5.6080078 5.18555667,5.58196522 5.21664995,5.55792591 L6.61885657,4.48917838 L7.22768305,5.28548043 L6.0220662,6.2039823 L6.0220662,8.96149116 C6.0220662,9.12876468 5.93781344,9.28502017 5.79939819,9.37817249 L4.29488465,10.3798103 L3.73821464,9.54644764 L5.01905717,8.69305223 L5.01905717,6.68577008 L2.44734203,5.51185057 L1.00300903,6.26107565 L1.00300903,6.95821556 L3.01303912,6.95821556 L3.01303912,7.95985336 L1.00300903,7.95985336 L1.00300903,9.65161961 L2.75025075,10.516033 C2.92076229,10.6001706 3.02908726,10.7744556 3.02908726,10.9647668 L3.02908726,12.8839048 L5.7442327,11.0759486 L6.30090271,11.9093112 L3.74022066,13.6140988 L6.06018054,14.9432721 L7.99699097,14.1599914 L7.99699097,14.0027342 Z M11,12 L15,12 L15,4 L11,4 L11,12 Z M9,12 L10,12 L10,4 L9,4 L9,12 Z M15.5,3 L8.5,3 C8.224,3 8,3.223 8,3.5 L8,12.5 C8,12.776 8.224,13 8.5,13 L15.5,13 C15.776,13 16,12.776 16,12.5 L16,3.5 C16,3.223 15.776,3 15.5,3 L15.5,3 Z" id="Fill-5"></path>
        </g>
    </g>
</svg>