<?xml version="1.0" encoding="UTF-8"?>
<svg width="48px" height="48px" viewBox="0 0 48 48" version="1.1" xmlns="http://www.w3.org/2000/svg" xmlns:xlink="http://www.w3.org/1999/xlink">
    <title>Icon-Resource/General-Resource/Res_Data-Stream_48_Light</title>
    <g id="Icon-Resource/General-Resource/Res_Data-Stream_48" stroke="none" stroke-width="1" fill="none" fill-rule="evenodd">
        <path d="M36.001,36 C34.347,36 33.001,34.654 33.001,33 C33.001,31.346 34.347,30 36.001,30 C37.655,30 39.001,31.346 39.001,33 C39.001,34.654 37.655,36 36.001,36 L36.001,36 Z M36.001,28 C34.674,28 33.474,28.528 32.578,29.374 L28.411,26.014 L2.002,26 L2,28 L27.704,28.014 L31.42,31.01 C31.153,31.62 31.001,32.292 31.001,33 C31.001,35.757 33.244,38 36.001,38 C38.758,38 41.001,35.757 41.001,33 C41.001,30.243 38.758,28 36.001,28 L36.001,28 Z M27.001,4 C28.655,4 30.001,5.346 30.001,7 C30.001,8.654 28.655,10 27.001,10 C25.347,10 24.001,8.654 24.001,7 C24.001,5.346 25.347,4 27.001,4 L27.001,4 Z M23.38,10.429 C24.292,11.391 25.574,12 27.001,12 C29.758,12 32.001,9.757 32.001,7 C32.001,4.243 29.758,2 27.001,2 C24.244,2 22.001,4.243 22.001,7 C22.001,7.607 22.126,8.181 22.325,8.72 L19.765,10 L2.001,10 L2.001,12 L20.237,12 L23.38,10.429 Z M20.001,43.586 L16.415,40 L20.001,36.414 L23.587,40 L20.001,43.586 Z M20.708,34.293 C20.317,33.902 19.685,33.902 19.294,34.293 L17.501,36.086 L15.415,34 L2.001,34 L2.001,36 L14.587,36 L16.087,37.5 L14.294,39.293 C13.903,39.684 13.903,40.316 14.294,40.707 L19.294,45.707 C19.489,45.902 19.745,46 20.001,46 C20.257,46 20.513,45.902 20.708,45.707 L25.708,40.707 C26.099,40.316 26.099,39.684 25.708,39.293 L20.708,34.293 Z M38.001,22 L44.001,22 L44.001,16 L38.001,16 L38.001,22 Z M45.001,14 L37.001,14 C36.448,14 36.001,14.448 36.001,15 L36.001,18 L2.001,18 L2.001,20 L36.001,20 L36.001,23 C36.001,23.552 36.448,24 37.001,24 L45.001,24 C45.554,24 46.001,23.552 46.001,23 L46.001,15 C46.001,14.448 45.554,14 45.001,14 L45.001,14 Z" id="Fill-1" fill="#232F3D"></path>
    </g>
</svg>