<?xml version="1.0" encoding="UTF-8"?>
<svg width="48px" height="48px" viewBox="0 0 48 48" version="1.1" xmlns="http://www.w3.org/2000/svg" xmlns:xlink="http://www.w3.org/1999/xlink">
    <title>Icon-Resource/General-Resource/Res_JSON-Script_48_Light</title>
    <g id="Icon-Resource/General-Resource/Res_JSON-Script_48" stroke="none" stroke-width="1" fill="none" fill-rule="evenodd">
        <path d="M25,22.512 C25,23.064 24.552,23.512 24,23.512 C23.448,23.512 23,23.064 23,22.512 C23,21.96 23.448,21.512 24,21.512 C24.552,21.512 25,21.96 25,22.512 L25,22.512 Z M24.943,27.93 L23.945,30.759 C23.8,31.17 23.414,31.427 23.002,31.427 C22.892,31.427 22.779,31.408 22.669,31.369 C22.148,31.186 21.875,30.615 22.059,30.094 L23.057,27.265 C23.241,26.744 23.811,26.469 24.333,26.655 C24.854,26.838 25.127,27.409 24.943,27.93 L24.943,27.93 Z M32.554,25.832 L32.848,25.832 L32.848,27.372 L32.554,27.372 C32.236,27.372 32.008,27.44 31.868,27.575 C31.728,27.71 31.658,27.932 31.658,28.24 L31.658,30.326 C31.658,31.157 31.434,31.81 30.986,32.286 C30.538,32.762 29.927,33 29.152,33 C28.657,33 28.237,32.921 27.892,32.762 L27.892,31.39 C28.172,31.436 28.452,31.46 28.732,31.46 C29.282,31.46 29.558,31.147 29.558,30.522 L29.558,28.282 C29.558,27.815 29.668,27.451 29.887,27.19 C30.106,26.929 30.463,26.733 30.958,26.602 C30.463,26.471 30.106,26.275 29.887,26.014 C29.668,25.753 29.558,25.388 29.558,24.922 L29.558,22.682 C29.558,22.056 29.282,21.744 28.732,21.744 C28.452,21.744 28.172,21.767 27.892,21.814 L27.892,20.442 C28.237,20.283 28.657,20.204 29.152,20.204 C29.927,20.204 30.538,20.442 30.986,20.918 C31.434,21.394 31.658,22.047 31.658,22.878 L31.658,24.964 C31.658,25.272 31.728,25.493 31.868,25.629 C32.008,25.764 32.236,25.832 32.554,25.832 L32.554,25.832 Z M18.848,20.204 C19.343,20.204 19.763,20.283 20.108,20.442 L20.108,21.814 C19.828,21.767 19.548,21.744 19.269,21.744 C18.717,21.744 18.442,22.056 18.442,22.682 L18.442,24.922 C18.442,25.379 18.332,25.741 18.113,26.007 C17.894,26.273 17.537,26.471 17.042,26.602 C17.537,26.733 17.894,26.931 18.113,27.197 C18.332,27.463 18.442,27.824 18.442,28.282 L18.442,30.522 C18.442,31.147 18.717,31.46 19.269,31.46 C19.548,31.46 19.828,31.436 20.108,31.39 L20.108,32.762 C19.763,32.921 19.343,33 18.848,33 C18.073,33 17.462,32.762 17.014,32.286 C16.566,31.81 16.342,31.157 16.342,30.326 L16.342,28.24 C16.342,27.932 16.272,27.71 16.132,27.575 C15.992,27.44 15.764,27.372 15.446,27.372 L15.152,27.372 L15.152,25.832 L15.446,25.832 C15.764,25.832 15.992,25.764 16.132,25.629 C16.272,25.493 16.342,25.272 16.342,24.964 L16.342,22.878 C16.342,22.047 16.566,21.394 17.014,20.918 C17.462,20.442 18.073,20.204 18.848,20.204 L18.848,20.204 Z M10,44 L10.007,4 L28,4 L28,13 C28,13.552 28.447,14 29,14 L38,14 L38,44 L10,44 Z M30,5.414 L36.586,12 L30,12 L30,5.414 Z M39.707,12.293 L29.707,2.293 C29.52,2.105 29.266,2 29,2 L10,2 C8.822,2 8,2.822 8,4 L8,44 C8,45.14 8.859,46 10,46 L38,46 C39.141,46 40,45.14 40,44 L40,13 C40,12.735 39.895,12.48 39.707,12.293 L39.707,12.293 Z" id="Fill-1" fill="#232F3D"></path>
    </g>
</svg>