<?xml version="1.0" encoding="UTF-8"?>
<svg width="48px" height="48px" viewBox="0 0 48 48" version="1.1" xmlns="http://www.w3.org/2000/svg" xmlns:xlink="http://www.w3.org/1999/xlink">
    <title>Icon-Resource/General-Resource/Res_Metrics_48_Light</title>
    <g id="Icon-Resource/General-Resource/Res_Metrics_48" stroke="none" stroke-width="1" fill="none" fill-rule="evenodd">
        <path d="M10.398,16.6225 C11.085,16.6225 11.643,17.1805 11.643,17.8675 C11.643,18.5535 11.085,19.1115 10.398,19.1115 C9.712,19.1115 9.154,18.5535 9.154,17.8675 C9.154,17.1805 9.712,16.6225 10.398,16.6225 L10.398,16.6225 Z M24.254,11.2185 C24.94,11.2185 25.499,11.7765 25.499,12.4635 C25.499,13.1495 24.94,13.7075 24.254,13.7075 C23.568,13.7075 23.009,13.1495 23.009,12.4635 C23.009,11.7765 23.568,11.2185 24.254,11.2185 L24.254,11.2185 Z M38.219,5.7995 C38.906,5.7995 39.464,6.3575 39.464,7.0445 C39.464,7.7305 38.906,8.2895 38.219,8.2895 C37.533,8.2895 36.974,7.7305 36.974,7.0445 C36.974,6.3575 37.533,5.7995 38.219,5.7995 L38.219,5.7995 Z M10.398,21.1115 C12.187,21.1115 13.643,19.6565 13.643,17.8675 C13.643,17.8195 13.631,17.7765 13.629,17.7295 L21.785,14.5435 C22.381,15.2495 23.261,15.7075 24.254,15.7075 C26.044,15.7075 27.499,14.2525 27.499,12.4635 C27.499,12.3525 27.477,12.2475 27.466,12.1405 L35.693,9.0555 C36.288,9.8005 37.193,10.2895 38.219,10.2895 C40.008,10.2895 41.464,8.8335 41.464,7.0445 C41.464,5.2555 40.008,3.7995 38.219,3.7995 C36.43,3.7995 34.974,5.2555 34.974,7.0445 C34.974,7.0915 34.986,7.1355 34.988,7.1825 L26.659,10.3055 C26.065,9.6435 25.212,9.2185 24.254,9.2185 C22.465,9.2185 21.009,10.6745 21.009,12.4635 C21.009,12.5415 21.027,12.6135 21.032,12.6905 L12.925,15.8565 C12.33,15.1105 11.424,14.6225 10.398,14.6225 C8.609,14.6225 7.154,16.0785 7.154,17.8675 C7.154,19.6565 8.609,21.1115 10.398,21.1115 L10.398,21.1115 Z M6.999,26.0395 L14.045,26.0395 L14,41.0395 L6.978,41.0395 L6.999,26.0395 Z M21,41.0395 L28,41.0395 L28,20.0395 L21,20.0395 L21,41.0395 Z M35,41.0395 L42,41.0395 L42,15.0395 L35,15.0395 L35,41.0395 Z M44,41.0395 L44,14.0395 C44,13.4865 43.552,13.0395 43,13.0395 L34,13.0395 C33.447,13.0395 33,13.4865 33,14.0395 L33,41.0395 L30,41.0395 L30,19.0395 C30,18.4865 29.552,18.0395 29,18.0395 L20,18.0395 C19.447,18.0395 19,18.4865 19,19.0395 L19,41.0395 L16,41.0395 L16.048,25.0415 C16.049,24.7765 15.944,24.5205 15.756,24.3325 C15.569,24.1445 15.314,24.0395 15.048,24.0395 L6,24.0395 C5.448,24.0395 5.001,24.4855 5,25.0375 L4.978,41.0395 L3,41.0395 L3,43.0395 L46,43.0395 L46,41.0395 L44,41.0395 Z" id="Fill-1" fill="#232F3E"></path>
    </g>
</svg>