<?xml version="1.0" encoding="UTF-8"?>
<svg width="48px" height="48px" viewBox="0 0 48 48" version="1.1" xmlns="http://www.w3.org/2000/svg" xmlns:xlink="http://www.w3.org/1999/xlink">
    <title>Icon-Resource/General-Resource/Res_Cold-Storage_48_Light</title>
    <g id="Icon-Resource/General-Resource/Res_Cold-Storage_48" stroke="none" stroke-width="1" fill="none" fill-rule="evenodd">
        <path d="M42,37.9693 C42,36.1753 41.042,34.5093 39.501,33.6203 C39.19,33.4423 39,33.1113 39,32.7543 L39,7.9693 C39,6.8663 38.103,5.9693 37,5.9693 C35.897,5.9693 35,6.8663 35,7.9693 L35,32.7723 C35,33.1293 34.81,33.4583 34.501,33.6373 C32.958,34.5303 32,36.1903 32,37.9693 C32,40.7263 34.243,42.9693 37,42.9693 C39.757,42.9693 42,40.7263 42,37.9693 M44,37.9693 C44,41.8293 40.859,44.9693 37,44.9693 C33.141,44.9693 30,41.8293 30,37.9693 C30,35.6773 31.136,33.5263 33,32.2243 L33,7.9693 C33,5.7633 34.794,3.9693 37,3.9693 C39.206,3.9693 41,5.7633 41,7.9693 L41,32.2053 C42.864,33.5053 44,35.6623 44,37.9693 M39,37.9693 C39,36.8663 38.103,35.9693 37,35.9693 C35.897,35.9693 35,36.8663 35,37.9693 C35,39.0723 35.897,39.9693 37,39.9693 C38.103,39.9693 39,39.0723 39,37.9693 M41,37.9693 C41,40.1753 39.206,41.9693 37,41.9693 C34.794,41.9693 33,40.1753 33,37.9693 C33,36.1113 34.279,34.5583 36,34.1113 L36,25.9693 L38,25.9693 L38,34.1113 C39.721,34.5583 41,36.1113 41,37.9693 M28.743,42.0863 L29.606,43.8893 C26.888,45.1923 22.706,45.9393 18.135,45.9393 C9.681,45.9393 4,43.4843 4,39.8313 L4,7.9693 L4.021,7.9693 C4.245,4.3903 9.988,1.9993 18.476,1.9993 C23.244,1.9993 27.584,2.7893 30.383,4.1663 L29.5,5.9613 C27.004,4.7333 22.883,3.9993 18.476,3.9993 C10.77,3.9993 6,6.1713 6,8.1833 C6,10.1953 10.77,12.3663 18.476,12.3663 C22.923,12.3663 27.065,11.6223 29.558,10.3763 L30.452,12.1653 C27.654,13.5643 23.289,14.3663 18.476,14.3663 C12.829,14.3663 8.404,13.3053 6,11.5443 L6,19.2903 C6,21.3023 10.77,23.4743 18.476,23.4743 C22.905,23.4743 27.034,22.7413 29.52,21.5133 L30.406,23.3063 C27.617,24.6843 23.269,25.4743 18.476,25.4743 C12.829,25.4743 8.404,24.4123 6,22.6513 L6,29.6853 C6,31.7283 10.666,33.8413 18.476,33.8413 C22.34,33.8413 26.003,33.2893 28.524,32.3273 L29.237,34.1973 C26.456,35.2573 22.635,35.8413 18.476,35.8413 C12.829,35.8413 8.404,34.7843 6,33.0313 L6,39.8313 C6,41.8503 10.539,43.9393 18.135,43.9393 C22.418,43.9393 26.284,43.2633 28.743,42.0863" id="Fill-1" fill="#232F3D"></path>
    </g>
</svg>