<?xml version="1.0" encoding="UTF-8"?>
<svg width="24px" height="24px" viewBox="0 0 24 24" version="1.1" xmlns="http://www.w3.org/2000/svg" xmlns:xlink="http://www.w3.org/1999/xlink">
    <title>Icon-Architecture/16/Arch_AWS-rePost-Private_16</title>
    <g id="Icon-Architecture/16/Arch_AWS-rePost-Private_16" stroke="none" stroke-width="1" fill="none" fill-rule="evenodd">
        <g id="Icon-Architecture-BG/16/Customer-Enablement" fill="#C925D1">
            <rect id="Rectangle" x="0" y="0" width="24" height="24"></rect>
        </g>
        <g id="Icon-Service/16/AWS-rePost-Private_16" transform="translate(4.000000, 4.000000)" fill="#FFFFFF">
            <path d="M1,11.5095 L7.251,15.1315 L6.749,15.9965 L0.249,12.2305 C0.095,12.1405 8.8817842e-16,11.9755 8.8817842e-16,11.7975 L8.8817842e-16,4.2655 C8.8817842e-16,4.0875 0.095,3.9225 0.249,3.8335 L6.749,0.0675 C6.905,-0.0225 7.095,-0.0225 7.251,0.0675 L12.248,2.9625 L11.746,3.8275 L7,1.0775 L1,4.5535 L1,11.5095 Z M6.03,8.9685 L10.982,8.9685 L10.982,7.9685 L6.03,7.9685 L6.03,8.9685 Z M11.023,14.9865 C11.231,14.0175 12.029,13.2945 12.979,13.2945 C13.337,13.2945 13.688,13.3985 13.994,13.5945 C14.472,13.9015 14.809,14.4095 14.934,14.9865 L11.023,14.9865 Z M10.958,10.9905 L8.468,10.9905 C8.191,10.9905 7.968,11.2145 7.968,11.4905 L7.968,12.2425 L6.838,11.1345 C6.744,11.0425 6.618,10.9905 6.487,10.9905 C5.108,10.9905 3.987,9.8695 3.987,8.4905 C3.987,7.1125 5.108,5.9905 6.487,5.9905 L12.487,5.9905 C13.866,5.9905 14.987,7.1125 14.987,8.4905 C14.987,8.9695 14.847,9.4215 14.6,9.8145 C14.233,9.3095 13.643,8.9775 12.973,8.9775 C11.862,8.9775 10.959,9.8805 10.958,10.9905 L10.958,10.9905 Z M12.973,12.0065 C12.413,12.0065 11.958,11.5515 11.958,10.9915 C11.958,10.4325 12.413,9.9775 12.973,9.9775 C13.532,9.9775 13.987,10.4325 13.987,10.9915 C13.987,11.5515 13.532,12.0065 12.973,12.0065 L12.973,12.0065 Z M14.534,12.7525 C14.428,12.6845 14.318,12.6265 14.206,12.5735 C14.678,12.2045 14.987,11.6365 14.987,10.9915 C14.987,10.9715 14.982,10.9535 14.981,10.9335 C15.626,10.2765 15.987,9.4165 15.987,8.4905 C15.987,6.5615 14.417,4.9905 12.487,4.9905 L6.487,4.9905 C4.558,4.9905 2.987,6.5615 2.987,8.4905 C2.987,10.3505 4.444,11.8755 6.276,11.9845 L8.117,13.7905 C8.213,13.8845 8.34,13.9335 8.468,13.9335 C8.533,13.9335 8.599,13.9205 8.661,13.8945 C8.847,13.8165 8.968,13.6345 8.968,13.4335 L8.968,11.9905 L11.234,11.9905 C11.366,12.2205 11.54,12.4195 11.748,12.5805 C10.703,13.0815 9.971,14.1925 9.971,15.4865 C9.971,15.7625 10.194,15.9865 10.471,15.9865 L15.487,15.9865 C15.764,15.9865 15.987,15.7625 15.987,15.4865 C15.987,14.3585 15.443,13.3365 14.534,12.7525 L14.534,12.7525 Z" id="Fill-1"></path>
        </g>
    </g>
</svg>