<?xml version="1.0" encoding="UTF-8"?>
<svg width="24px" height="24px" viewBox="0 0 24 24" version="1.1" xmlns="http://www.w3.org/2000/svg" xmlns:xlink="http://www.w3.org/1999/xlink">
    <title>Icon-Architecture/16/Arch_AWS-Activate_16</title>
    <g id="Icon-Architecture/16/Arch_AWS-Activate_16" stroke="none" stroke-width="1" fill="none" fill-rule="evenodd">
        <g id="Icon-Architecture-BG/16/Customer-Enablement" fill="#C925D1">
            <rect id="Rectangle" x="0" y="0" width="24" height="24"></rect>
        </g>
        <g id="Icon-Service/16/AWS-Activate_16" transform="translate(4.000300, 3.999800)" fill="#FFFFFF">
            <path d="M15.32,7.914 C15.32,10.785 13.683,13.419 11.14,14.723 L11.14,13.581 C13.09,12.379 14.32,10.235 14.32,7.914 C14.32,5.13 12.558,2.663 10.019,1.695 L9.499,0.482 C12.885,1.32 15.32,4.401 15.32,7.914 L15.32,7.914 Z M4.172,13.572 L4.172,14.733 C1.598,13.415 -8.8817842e-16,10.808 -8.8817842e-16,7.914 C-8.8817842e-16,4.359 2.387,1.325 5.821,0.48 L5.299,1.699 C2.732,2.664 1,5.095 1,7.914 C1,10.251 2.208,12.363 4.172,13.572 L4.172,13.572 Z M5.183,15.999 L6.183,15.999 L6.183,10.353 L5.183,10.353 L5.183,15.999 Z M9.136,15.999 L10.136,15.999 L10.136,10.353 L9.136,10.353 L9.136,15.999 Z M7.161,14.87 L8.161,14.87 L8.161,8.659 L7.161,8.659 L7.161,14.87 Z M7.964,5.741 C7.8,5.617 7.528,5.638 7.353,5.744 L5.245,7.351 L7.66,1.701 L10.075,7.35 L7.964,5.741 Z M11.588,9.292 C11.766,9.153 11.829,8.91 11.74,8.702 L8.138,0.276 C7.98,-0.092 7.34,-0.092 7.181,0.276 L3.58,8.702 C3.491,8.91 3.553,9.153 3.732,9.292 C3.912,9.432 4.163,9.433 4.342,9.295 L7.658,6.765 L10.977,9.295 C11.066,9.364 11.174,9.398 11.28,9.398 C11.388,9.398 11.497,9.363 11.588,9.292 L11.588,9.292 Z" id="AWS-Activate_16_Squid"></path>
        </g>
    </g>
</svg>