<?xml version="1.0" encoding="UTF-8"?>
<svg width="48px" height="48px" viewBox="0 0 48 48" version="1.1" xmlns="http://www.w3.org/2000/svg" xmlns:xlink="http://www.w3.org/1999/xlink">
    <title>Icon-Resource/Management-Governance/Res_Amazon-CloudWatch_Data-Protection_48</title>
    <g id="Icon-Resource/Management-Governance/Res_Amazon-CloudWatch_Data-Protection_48" stroke="none" stroke-width="1" fill="none" fill-rule="evenodd">
        <path d="M31.999,30.972 L32.001,30.972 C32.535,30.972 33.036,30.764 33.413,30.388 C33.792,30.01 34,29.508 34,28.973 L34,28.972 C34.001,28.438 33.793,27.936 33.416,27.558 C33.038,27.18 32.536,26.972 32.001,26.972 L31.999,26.972 C31.465,26.972 30.964,27.18 30.587,27.556 C30.209,27.934 30.001,28.437 30,28.972 C30,30.075 30.896,30.972 31.999,30.972 L31.999,30.972 Z M31,36.973 L31,32.83 C29.28,32.383 28,30.83 28,28.971 C28.001,27.901 28.418,26.897 29.173,26.142 C29.928,25.388 30.931,24.972 31.997,24.972 L32.002,24.972 C33.07,24.972 34.075,25.389 34.831,26.145 C35.586,26.901 36.001,27.906 36,28.974 C36,30.043 35.583,31.048 34.827,31.803 C34.315,32.315 33.683,32.656 33,32.831 L33,36.973 L31,36.973 Z M24.981,19.974 L39.034,19.98 L39.033,12.992 C39.039,11.143 38.32,9.398 37.008,8.074 C35.688,6.743 33.932,6.006 32.061,6 L32.039,6 C30.178,6 28.419,6.733 27.084,8.065 C25.751,9.395 25.014,11.145 25.008,12.991 L24.981,19.974 Z M46,20.982 L45.991,41.973 C45.991,42.526 45.543,42.973 44.991,42.973 L19,42.963 C18.447,42.963 18,42.514 18,41.962 L18.004,28.972 L20.004,28.972 L20,40.963 L43.991,40.972 L44,21.981 L20.007,21.972 L20.006,22.972 L18.006,22.972 L18.007,20.972 C18.007,20.419 18.455,19.972 19.007,19.972 L22.981,19.973 L23.008,12.984 C23.016,10.606 23.961,8.356 25.672,6.65 C27.385,4.94 29.645,4 32.038,4 L32.067,4 C34.474,4.008 36.732,4.955 38.429,6.666 C40.116,8.369 41.041,10.617 41.033,12.995 L41.034,19.98 L45,19.982 C45.266,19.982 45.52,20.087 45.707,20.275 C45.895,20.463 46,20.717 46,20.982 L46,20.982 Z M2,34.973 L14,34.973 L14,32.973 L2,32.973 L2,34.973 Z M2,18.972 L14,18.972 L14,16.972 L2,16.972 L2,18.972 Z M2,26.972 L25.999,26.972 L25.999,24.972 L2,24.972 L2,26.972 Z M2,42.973 L15.999,42.973 L15.999,40.973 L2,40.973 L2,42.973 Z M2,10.972 L17.999,10.972 L17.999,8.972 L2,8.972 L2,10.972 Z" id="Fill-1" fill="#E7157B"></path>
    </g>
</svg>