<?xml version="1.0" encoding="UTF-8"?>
<svg width="48px" height="48px" viewBox="0 0 48 48" version="1.1" xmlns="http://www.w3.org/2000/svg" xmlns:xlink="http://www.w3.org/1999/xlink">
    <title>Icon-Resource/Management-Governance/Res_AWS-CloudTrail_CloudTrail-Lake_48</title>
    <g id="Icon-Resource/Management-Governance/Res_AWS-CloudTrail_CloudTrail-Lake_48" stroke="none" stroke-width="1" fill="none" fill-rule="evenodd">
        <path d="M3.592,31.842 L5.567,32.158 C6.031,29.254 8.863,27.569 10.684,27.131 C11.153,27.045 11.503,26.634 11.503,26.146 C11.503,26.094 11.499,26.043 11.491,25.992 C11.45,25.674 11.43,25.352 11.43,25.035 C11.43,24.196 11.629,23.281 12.005,22.388 L10.161,21.612 C9.683,22.748 9.43,23.932 9.43,25.035 C9.43,25.161 9.433,25.287 9.438,25.413 C6.846,26.3 4.119,28.547 3.592,31.842 L3.592,31.842 Z M2,36 L8,36 L8,34 L2,34 L2,36 Z M2,44 L7,44 L7,42 L2,42 L2,44 Z M6,40 L10,40 L10,38 L6,38 L6,40 Z M2,40 L4,40 L4,38 L2,38 L2,40 Z M26.332,34 C24.598,34 23.668,34.656 22.922,35.183 C22.249,35.657 21.764,36 20.664,36 C19.566,36 19.08,35.657 18.409,35.183 C17.662,34.656 16.734,34 15,34 L10,34 L10,36 L15,36 C16.099,36 16.584,36.343 17.255,36.817 C18.002,37.344 18.931,38 20.664,38 C22.399,38 23.328,37.344 24.074,36.817 C24.747,36.343 25.233,36 26.332,36 C27.432,36 27.917,36.343 28.59,36.817 C29.336,37.344 30.266,38 32,38 L32,36 C30.901,36 30.415,35.657 29.742,35.183 C28.996,34.656 28.067,34 26.332,34 L26.332,34 Z M26.332,42 C24.598,42 23.668,42.656 22.922,43.183 C22.249,43.657 21.764,44 20.664,44 C19.566,44 19.08,43.657 18.409,43.183 C17.662,42.656 16.734,42 15,42 L9,42 L9,44 L15,44 C16.099,44 16.584,44.343 17.255,44.817 C18.002,45.344 18.931,46 20.664,46 C22.399,46 23.328,45.344 24.074,44.817 C24.747,44.343 25.233,44 26.332,44 C27.432,44 27.917,44.343 28.59,44.817 C29.336,45.344 30.266,46 32,46 L32,44 C30.901,44 30.415,43.657 29.742,43.183 C28.996,42.656 28.067,42 26.332,42 L26.332,42 Z M26.332,38 C24.598,38 23.668,38.656 22.922,39.183 C22.249,39.657 21.764,40 20.664,40 C19.566,40 19.08,39.657 18.409,39.183 C17.662,38.656 16.734,38 15,38 L12,38 L12,40 L15,40 C16.099,40 16.584,40.343 17.255,40.817 C18.002,41.344 18.931,42 20.664,42 C22.399,42 23.328,41.344 24.074,40.817 C24.747,40.343 25.233,40 26.332,40 C27.432,40 27.917,40.343 28.59,40.817 C29.336,41.344 30.266,42 32,42 L32,40 C30.901,40 30.415,39.657 29.742,39.183 C28.996,38.656 28.067,38 26.332,38 L26.332,38 Z M21,4 L23,4 L23,2 L21,2 L21,4 Z M17,7 L19,7 L19,5 L17,5 L17,7 Z M12,6 L14,6 L14,4 L12,4 L12,6 Z M11.769,11 L15.857,17.792 C15.95,17.948 16,18.126 16,18.308 L16,21 L18,21 L18,18.308 C18,18.126 18.05,17.948 18.144,17.792 L22.232,11 L11.769,11 Z M9.144,10.516 C8.957,10.207 8.952,9.822 9.13,9.508 C9.307,9.194 9.64,9 10,9 L24,9 C24.361,9 24.694,9.194 24.87,9.508 C25.048,9.822 25.043,10.207 24.857,10.516 L20,18.586 L20,22 C20,22.552 19.553,23 19,23 L15,23 C14.447,23 14,22.552 14,22 L14,18.586 L9.144,10.516 Z M45.213,33.965 C45.213,39.843 40.384,41.789 37.831,41.997 L34,42 L34,40 L37.75,40 C37.893,39.984 43.213,39.452 43.213,33.965 C43.213,29.351 39.398,28.197 37.757,27.915 C37.233,27.825 36.872,27.342 36.933,26.817 C36.766,24.755 35.814,23.279 34.373,22.858 C33.19,22.51 31.913,22.974 31.128,24.038 C30.908,24.335 30.539,24.486 30.176,24.433 C29.81,24.378 29.504,24.126 29.381,23.777 C28.804,22.144 27.97,20.774 26.903,19.704 C25.826,18.625 24.542,17.819 23.187,17.371 L23.814,15.472 C25.465,16.017 27.023,16.992 28.319,18.292 C29.269,19.245 30.061,20.384 30.682,21.693 C31.91,20.804 33.456,20.506 34.935,20.938 C37.06,21.559 38.498,23.468 38.865,26.107 C42.063,26.91 45.213,29.326 45.213,33.965 L45.213,33.965 Z" id="Fill-1" fill="#E7157B"></path>
    </g>
</svg>