<?xml version="1.0" encoding="UTF-8"?>
<svg width="48px" height="48px" viewBox="0 0 48 48" version="1.1" xmlns="http://www.w3.org/2000/svg" xmlns:xlink="http://www.w3.org/1999/xlink">
    <title>Icon-Resource/Management-Governance/Res_AWS-Systems-Manager_Distributor_48</title>
    <g id="Icon-Resource/Management-Governance/Res_AWS-Systems-Manager_Distributor_48" stroke="none" stroke-width="1" fill="none" fill-rule="evenodd">
        <path d="M19,18 L29,18 L29,16 L19,16 L19,18 Z M23.375,13.781 L18.375,9.781 L19.625,8.219 L23,10.919 L23,2 L25,2 L25,10.919 L28.375,8.219 L29.625,9.781 L24.625,13.781 C24.442,13.927 24.221,14 24,14 C23.779,14 23.558,13.927 23.375,13.781 L23.375,13.781 Z M29.061,31.174 L25.391,24.933 L39.623,17.335 L43.591,24.114 L29.061,31.174 Z M39,36.526 C37.558,37.472 31.153,40.581 25,43.436 L25,28.215 L27.805,32.984 C27.99,33.299 28.323,33.478 28.668,33.478 C28.815,33.478 28.964,33.445 29.105,33.377 L39,28.569 L39,36.526 Z M9,28.501 L18.891,33.375 C19.033,33.444 19.184,33.478 19.332,33.478 C19.677,33.478 20.01,33.3 20.195,32.984 L23,28.215 L23,43.383 L9,36.394 L9,28.501 Z M8.372,17.333 L22.609,24.933 L18.942,31.17 L4.411,24.011 L8.372,17.333 Z M45.863,24.036 L40.863,15.495 C40.771,15.338 40.636,15.23 40.488,15.146 L40.496,15.132 L33.496,11.132 L32.504,12.868 L37.933,15.97 L24,23.408 L10.178,16.029 L16.447,12.895 L15.553,11.105 L7.553,15.105 L7.561,15.121 C7.394,15.204 7.241,15.318 7.14,15.49 L2.14,23.92 C1.998,24.16 1.962,24.448 2.041,24.715 C2.121,24.982 2.308,25.204 2.558,25.327 L7,27.516 L7,37.013 C7,37.392 7.214,37.738 7.554,37.907 L23.554,45.895 L23.558,45.886 C23.697,45.956 23.847,46 24,46 C24.143,46 24.285,45.97 24.418,45.908 C41,38.274 41,37.754 41,36.967 L41,27.597 L45.438,25.441 C45.688,25.319 45.876,25.098 45.957,24.832 C46.038,24.565 46.004,24.277 45.863,24.036 L45.863,24.036 Z" id="Fill-1" fill="#E7157B"></path>
    </g>
</svg>