<?xml version="1.0" encoding="UTF-8"?>
<svg width="48px" height="48px" viewBox="0 0 48 48" version="1.1" xmlns="http://www.w3.org/2000/svg" xmlns:xlink="http://www.w3.org/1999/xlink">
    <title>Icon-Resource/Management-Governance/Res_Amazon-CloudWatch_Cross-account-Observability_48</title>
    <g id="Icon-Resource/Management-Governance/Res_Amazon-CloudWatch_Cross-account-Observability_48" stroke="none" stroke-width="1" fill="none" fill-rule="evenodd">
        <path d="M26.014,43.982 C24.911,43.982 24.014,43.085 24.014,41.982 C24.014,40.879 24.911,39.982 26.014,39.982 C27.117,39.982 28.014,40.879 28.014,41.982 C28.014,43.085 27.117,43.982 26.014,43.982 L26.014,43.982 Z M14.014,32.982 C12.911,32.982 12.014,32.085 12.014,30.982 C12.014,29.879 12.911,28.982 14.014,28.982 C15.117,28.982 16.014,29.879 16.014,30.982 C16.014,32.085 15.117,32.982 14.014,32.982 L14.014,32.982 Z M37.014,24.982 C38.117,24.982 39.014,25.879 39.014,26.982 C39.014,28.085 38.117,28.982 37.014,28.982 C35.911,28.982 35.014,28.085 35.014,26.982 C35.014,25.879 35.911,24.982 37.014,24.982 L37.014,24.982 Z M35.851,30.789 C36.222,30.903 36.607,30.982 37.014,30.982 C39.22,30.982 41.014,29.188 41.014,26.982 C41.014,24.776 39.22,22.982 37.014,22.982 C34.808,22.982 33.014,24.776 33.014,26.982 C33.014,28.052 33.442,29.02 34.129,29.739 L27.338,38.225 C26.922,38.077 26.481,37.982 26.014,37.982 C25.455,37.982 24.923,38.099 24.439,38.307 L17.768,32.315 C17.918,31.896 18.014,31.452 18.014,30.982 C18.014,28.776 16.22,26.982 14.014,26.982 C11.808,26.982 10.014,28.776 10.014,30.982 C10.014,31.382 10.091,31.761 10.201,32.125 L2.4,38.192 L3.628,39.772 L11.239,33.852 C11.959,34.549 12.935,34.982 14.014,34.982 C15.019,34.982 15.928,34.597 16.631,33.982 L22.848,39.566 C22.332,40.239 22.014,41.071 22.014,41.982 C22.014,44.188 23.808,45.982 26.014,45.982 C28.22,45.982 30.014,44.188 30.014,41.982 C30.014,40.97 29.624,40.054 29.002,39.349 L35.851,30.789 Z M46.012,27.154 C45.966,29.554 44.986,31.795 43.252,33.464 C41.561,35.092 39.353,35.982 37.018,35.982 C36.959,35.982 36.901,35.982 36.841,35.981 C36.523,35.974 36.206,35.951 35.896,35.913 L36.142,33.928 C36.384,33.958 36.63,33.976 36.879,33.981 C38.742,34.029 40.516,33.321 41.866,32.023 C43.214,30.725 43.977,28.982 44.012,27.116 C44.048,25.25 43.353,23.48 42.055,22.13 C40.756,20.782 39.014,20.019 37.148,19.983 C35.335,19.951 33.512,20.643 32.162,21.941 C30.814,23.239 30.051,24.982 30.016,26.848 C29.992,28.077 30.293,29.293 30.888,30.364 L29.138,31.334 C28.373,29.955 27.986,28.39 28.016,26.809 C28.062,24.41 29.042,22.169 30.776,20.5 C32.509,18.832 34.768,17.943 37.187,17.983 C39.586,18.03 41.827,19.01 43.495,20.744 C45.164,22.478 46.058,24.754 46.012,27.154 L46.012,27.154 Z M25.386,4 C27.28,4 28.821,5.511 28.821,7.37 C28.821,9.228 27.28,10.74 25.386,10.74 C23.492,10.74 21.951,9.228 21.951,7.37 C21.951,5.511 23.492,4 25.386,4 L25.386,4 Z M25.373,13.036 C26.57,13.036 27.742,13.371 28.764,14.006 C29.737,14.61 30.552,15.469 31.121,16.489 L32.868,15.514 C32.133,14.198 31.079,13.089 29.819,12.307 C29.429,12.065 29.018,11.866 28.599,11.692 C29.943,10.713 30.821,9.143 30.821,7.37 C30.821,4.409 28.383,2 25.386,2 C22.389,2 19.951,4.409 19.951,7.37 C19.951,9.139 20.825,10.706 22.165,11.685 C20.398,12.419 18.876,13.741 17.892,15.491 L19.636,16.471 C20.826,14.352 23.025,13.036 25.373,13.036 L25.373,13.036 Z M11.373,17.036 C12.57,17.036 13.742,17.371 14.764,18.006 C16.495,19.081 17.662,20.931 17.951,22.982 L4.793,22.982 C5.259,19.624 8.033,17.036 11.373,17.036 L11.373,17.036 Z M11.386,8 C13.28,8 14.821,9.511 14.821,11.37 C14.821,13.228 13.28,14.74 11.386,14.74 C9.492,14.74 7.951,13.228 7.951,11.37 C7.951,9.511 9.492,8 11.386,8 L11.386,8 Z M3.725,24.982 L19.022,24.982 C19.575,24.982 20.022,24.534 20.022,23.982 C20.022,20.857 18.411,17.916 15.819,16.307 C15.429,16.065 15.018,15.866 14.599,15.692 C15.943,14.713 16.821,13.143 16.821,11.37 C16.821,8.409 14.383,6 11.386,6 C8.389,6 5.951,8.409 5.951,11.37 C5.951,13.137 6.823,14.703 8.161,15.683 C4.98,17.005 2.725,20.224 2.725,23.982 C2.725,24.534 3.172,24.982 3.725,24.982 L3.725,24.982 Z" id="Fill-1" fill="#E7157B"></path>
    </g>
</svg>