<?xml version="1.0" encoding="UTF-8"?>
<svg width="64px" height="64px" viewBox="0 0 64 64" version="1.1" xmlns="http://www.w3.org/2000/svg" xmlns:xlink="http://www.w3.org/1999/xlink">
    <title>Icon-Architecture/48/Arch_Amazon-MemoryDB-for-Redis_48</title>
    <g id="Icon-Architecture/48/Arch_Amazon-MemoryDB-for-Redis_48" stroke="none" stroke-width="1" fill="none" fill-rule="evenodd">
        <g id="Icon-Architecture-BG/48/Database" fill="#C925D1">
            <rect id="Rectangle" x="0" y="0" width="64" height="64"></rect>
        </g>
        <g id="Icon-Service/48/Amazon-MemoryDB-for-Redis_48" transform="translate(10.000000, 10.000000)" fill="#FFFFFF">
            <path d="M14.887,10.199 C7.32,10.199 2.046,8.038 2.046,6.099 C2.046,4.16 7.32,2 14.887,2 C22.369,2 27,4.128 27,6.099 C27,8.071 22.369,10.199 14.887,10.199 L14.887,10.199 Z M7.653,32.362 L9.42,33.299 C12.889,26.75 19.633,22.682 27.021,22.682 C28.513,22.682 30.001,22.849 31.444,23.178 L31.887,21.227 C30.94,21.012 29.974,20.867 29,20.78 L29,5.899 L28.981,5.899 C28.774,2.363 23.171,0 14.887,0 C7.639,0 0.32,2.028 0.07,5.899 L0,5.899 L0,37.684 C0,40.036 2.494,41.921 7.025,42.991 L7.484,41.044 C4.153,40.258 2,38.939 2,37.684 L2,30.605 C3.017,31.341 4.399,31.973 6.155,32.461 L6.69,30.534 C3.825,29.739 2.046,28.542 2.046,27.412 L2,27.412 L2,20.247 C4.533,22.101 9.176,23.108 13.8,23.3 L13.882,21.302 C6.572,20.998 2.046,18.824 2.046,16.983 L2,16.983 L2,9.286 C4.7,11.208 9.815,12.199 14.887,12.199 C20.353,12.199 24.645,11.167 27,9.452 L27,20.683 C18.878,20.691 11.466,25.164 7.653,32.362 L7.653,32.362 Z M37.192,25.483 C35.935,24.733 34.596,24.122 33.212,23.668 L33.835,21.767 C35.36,22.267 36.833,22.94 38.217,23.766 L37.192,25.483 Z M29.84,41.899 C29.695,41.111 29.369,40.391 28.911,39.77 L37.407,31.736 C40.057,34.371 41.722,38.06 41.968,41.899 L29.84,41.899 Z M24.737,39.639 C26.172,39.639 27.375,40.595 27.778,41.899 L21.694,41.899 C22.098,40.595 23.302,39.639 24.737,39.639 L24.737,39.639 Z M38.856,30.366 L41.588,27.783 L40.213,26.33 L27.432,38.415 C26.644,37.932 25.727,37.639 24.737,37.639 C22.191,37.639 20.076,39.481 19.632,41.899 L11.283,41.899 C11.791,33.758 18.479,27.293 26.625,27.293 C28.836,27.293 30.97,27.752 32.967,28.657 L33.793,26.836 C31.534,25.812 29.123,25.293 26.625,25.293 C17.045,25.293 9.251,33.191 9.251,42.899 L9.251,43.899 L44,43.899 L44,42.899 C44,38.206 42.08,33.598 38.856,30.366 L38.856,30.366 Z" id="Fill-4"></path>
        </g>
    </g>
</svg>