<svg width="64" height="64" viewBox="0 0 64 64" fill="none" xmlns="http://www.w3.org/2000/svg">
<rect width="64" height="64" fill="#C925D1"/>
<path d="M32 51.8257C30.7683 51.9341 29.4417 52 28 52C18.9853 52 14 49.6348 14 48V41.1025C16.9207 43.0735 22.5991 44 28 44C29.3317 44 30.6801 43.9431 32 43.8287V41.8257C30.7683 41.9341 29.4417 42 28 42C18.9853 42 14 39.6348 14 38V30.1025C16.9207 32.0735 22.5991 33 28 33C29.3317 33 30.6801 32.9431 32 32.8287V30.8257C30.7683 30.9341 29.4417 31 28 31C18.9853 31 14 28.6348 14 27V19.1025C16.9207 21.0735 22.5991 22 28 22C33.4009 22 39.0793 21.0735 42 19.1025V22H44V16C44 11.8774 35.706 10 28 10C20.294 10 12 11.8774 12 16V48C12 52.1226 20.294 54 28 54C29.3317 54 30.6791 53.9398 32 53.8258V51.8257ZM28 12C37.0147 12 42 14.3652 42 16C42 17.6348 37.0147 20 28 20C18.9853 20 14 17.6348 14 16C14 14.3652 18.9853 12 28 12ZM44 30H38V28H44V30ZM48 34H38V32H48V34ZM51 54H35C34.4473 54 34 53.5523 34 53V25C34 24.4477 34.4473 24 35 24H51C51.5527 24 52 24.4477 52 25V53C52 53.5523 51.5527 54 51 54ZM36 52H50V26H36V52ZM41.8143 44L38 38H40.3713L43 42.1349L45.6287 38H48L44.1857 44L48 50H45.6287L43 45.8651L40.3713 50H38L41.8143 44Z" fill="white"/>
</svg>
