<?xml version="1.0" encoding="UTF-8"?>
<svg width="80px" height="80px" viewBox="0 0 80 80" version="1.1" xmlns="http://www.w3.org/2000/svg" xmlns:xlink="http://www.w3.org/1999/xlink">
    <title>Icon-Architecture/64/Arch_Savings-Plans_64</title>
    <g id="Icon-Architecture/64/Arch_Savings-Plans_64" stroke="none" stroke-width="1" fill="none" fill-rule="evenodd">
        <g id="Icon-Architecture-BG/64/AWS-Cost-Management" fill="#7AA116">
            <rect id="Rectangle" x="0" y="0" width="80" height="80"></rect>
        </g>
        <g id="Icon-Service/64/AWS-Savings-Plans_64" transform="translate(13.000000, 12.000000)" fill="#FFFFFF">
            <path d="M21.288,14.375 C21.539,14.461 21.814,14.444 22.055,14.326 C22.191,14.259 22.292,14.209 25.617,11.322 L28.962,14.188 C29.23,14.419 29.603,14.493 29.936,14.375 L34.07,12.958 L31.726,17 L19.519,17 L17.163,12.961 L21.288,14.375 Z M18.945,19 L32.302,19 C32.658,19 32.988,18.811 33.167,18.502 L37.143,11.645 C37.352,11.285 37.315,10.832 37.051,10.509 C36.786,10.187 36.35,10.062 35.954,10.198 L29.829,12.298 L26.263,9.242 C25.887,8.918 25.33,8.921 24.956,9.247 C23.601,10.424 22.104,11.717 21.411,12.303 L15.269,10.198 C14.875,10.062 14.436,10.187 14.172,10.51 C13.907,10.833 13.871,11.287 14.081,11.648 L18.081,18.504 C18.261,18.812 18.59,19 18.945,19 L18.945,19 Z M56,33.989 L49.953,36.927 C49.814,36.995 49.665,37.028 49.514,37.028 C49.393,37.028 49.272,37.006 49.156,36.963 C48.898,36.864 48.691,36.663 48.586,36.407 L46.043,30.218 L47.9,29.459 L49.763,33.994 C50.557,31.558 50.983,29.024 50.983,26.434 C50.983,12.962 39.998,2.002 26.495,2.002 C12.992,2.002 2.006,12.962 2.006,26.434 C2.006,29.73 2.653,32.93 3.93,35.943 L2.082,36.722 C0.7,33.46 0,29.999 0,26.434 C0,11.858 11.885,0 26.495,0 C41.104,0 52.99,11.858 52.99,26.434 C52.99,28.922 52.636,31.366 51.957,33.728 L55.122,32.19 L56,33.989 Z M42.945,18.459 L44.945,18.459 C44.945,20.168 43.852,21.619 42.225,22.07 C41.902,22.159 41.578,22.203 41.258,22.203 C39.968,22.203 38.755,21.494 38.005,20.244 C37.756,19.83 37.531,19.646 37.416,19.646 L37.412,19.646 C37.007,19.662 36.219,20.625 35.811,21.444 C35.642,21.784 35.295,22 34.915,22 L17.945,22 L17.945,20 L34.325,20 C34.844,19.139 35.916,17.706 37.329,17.647 C38.002,17.614 38.914,17.873 39.72,19.215 C40.193,20.005 40.93,20.352 41.692,20.142 C42.315,19.969 42.945,19.382 42.945,18.459 L42.945,18.459 Z M29.962,43.56 C29.962,45.33 28.642,46.779 26.945,46.996 L26.945,40.2 C28.447,40.617 29.962,41.679 29.962,43.56 L29.962,43.56 Z M23.065,34.599 C23.065,33.253 23.835,32.096 24.945,31.518 L24.945,37.497 C23.902,36.931 23.065,35.993 23.065,34.599 L23.065,34.599 Z M29.962,34.599 L31.962,34.599 C31.962,31.724 29.748,29.363 26.945,29.141 L26.945,28 L24.945,28 L24.945,29.353 C22.704,30.032 21.065,32.125 21.065,34.599 C21.065,36.906 22.583,38.815 24.945,39.681 L24.945,46.641 C23.835,46.062 23.065,44.906 23.065,43.56 L21.065,43.56 C21.065,46.033 22.704,48.126 24.945,48.806 L24.945,51 L26.945,51 L26.945,49.018 C29.748,48.795 31.962,46.435 31.962,43.56 C31.962,40.9 29.952,38.766 26.945,38.157 L26.945,31.163 C28.642,31.38 29.962,32.83 29.962,34.599 L29.962,34.599 Z M25.945,54 C16.399,54 10.469,48.812 10.469,40.459 C10.469,31.705 17.276,26.791 19.513,25.175 C19.601,25.112 19.682,25.054 19.755,25 L32.135,25 C32.208,25.054 32.289,25.112 32.377,25.176 C34.614,26.791 41.422,31.705 41.422,40.459 C41.422,48.812 35.491,54 25.945,54 L25.945,54 Z M33.548,23.554 C33.35,23.411 33.194,23.3 33.091,23.218 C32.914,23.077 32.694,23 32.469,23 L19.421,23 C19.195,23 18.975,23.077 18.799,23.218 C18.695,23.3 18.54,23.411 18.343,23.554 C11.791,28.284 8.469,33.972 8.469,40.459 C8.469,49.9 15.329,56 25.945,56 C36.561,56 43.422,49.9 43.422,40.459 C43.422,33.972 40.1,28.284 33.548,23.554 L33.548,23.554 Z" id="AWS-Savings-Plans_64_Squid"></path>
        </g>
    </g>
</svg>