<svg width="40" height="40" viewBox="0 0 40 40" fill="none" xmlns="http://www.w3.org/2000/svg">
<g clip-path="url(#clip0_1_283)">
<rect width="40" height="40" fill="white"/>
<rect width="40" height="40" fill="#ED7100"/>
<path d="M11.5 28C11.5 28.83 10.83 29.5 10 29.5C9.17 29.5 8.5 28.83 8.5 28C8.5 27.17 9.17 26.5 10 26.5C10.83 26.5 11.5 27.17 11.5 28ZM18.5 28C18.5 28.83 19.17 29.5 20 29.5C20.83 29.5 21.5 28.83 21.5 28C21.5 27.17 20.83 26.5 20 26.5C19.17 26.5 18.5 27.17 18.5 28ZM34 28C34 30.21 32.21 32 30 32C27.79 32 26 30.21 26 28C26 26.88 26.46 25.87 27.21 25.14L23.18 22.44L21.57 24.32C23 24.93 24 26.35 24 28C24 30.21 22.21 32 20 32C17.79 32 16 30.21 16 28C16 26.35 17 24.93 18.43 24.32L16.82 22.44L12.79 25.14C13.53 25.87 14 26.88 14 28C14 30.21 12.21 32 10 32C7.79 32 6 30.21 6 28C6 26.12 7.3 24.55 9.05 24.13L10.21 16.79C8.36 16.23 7 14.53 7 12.5C7 10.02 9.02 8 11.5 8C13.98 8 16 10.02 16 12.5C16 13.7 15.52 14.79 14.75 15.6L20 19.12L25.25 15.6C24.48 14.79 24 13.7 24 12.5C24 10.02 26.02 8 28.5 8C30.98 8 33 10.02 33 12.5C33 14.53 31.64 16.23 29.79 16.79L30.95 24.13C32.7 24.56 34 26.13 34 28ZM25 12.5C25 14.43 26.57 16 28.5 16C30.43 16 32 14.43 32 12.5C32 10.57 30.43 9 28.5 9C26.57 9 25 10.57 25 12.5ZM20.9 19.72L23 21.12L26.82 16.66C26.55 16.55 26.3 16.42 26.06 16.26L20.9 19.71V19.72ZM13.18 16.67L17 21.13L19.1 19.73L13.94 16.28C13.7 16.44 13.45 16.57 13.18 16.68V16.67ZM11.5 16C13.43 16 15 14.43 15 12.5C15 10.57 13.43 9 11.5 9C9.57 9 8 10.57 8 12.5C8 14.43 9.57 16 11.5 16ZM10 25C8.35 25 7 26.35 7 28C7 29.65 8.35 31 10 31C11.65 31 13 29.65 13 28C13 26.35 11.65 25 10 25ZM16.17 21.68L12.1 16.94C11.9 16.97 11.7 17 11.5 17C11.39 17 11.3 16.98 11.19 16.97L10.08 24.01C10.75 24.02 11.37 24.21 11.93 24.52L16.17 21.68ZM20 25C18.35 25 17 26.35 17 28C17 29.65 18.35 31 20 31C21.65 31 23 29.65 23 28C23 26.35 21.65 25 20 25ZM22.34 21.89L20 20.32L17.66 21.89L19.51 24.05C19.67 24.03 19.83 24 20 24C20.17 24 20.33 24.03 20.49 24.05L22.34 21.89ZM28.07 24.52C28.62 24.21 29.24 24.02 29.92 24.01L28.81 16.97C28.71 16.97 28.61 17 28.5 17C28.29 17 28.1 16.97 27.9 16.94L23.83 21.68L28.07 24.52ZM33 28C33 26.35 31.65 25 30 25C28.35 25 27 26.35 27 28C27 29.65 28.35 31 30 31C31.65 31 33 29.65 33 28ZM13 12.5C13 11.67 12.33 11 11.5 11C10.67 11 10 11.67 10 12.5C10 13.33 10.67 14 11.5 14C12.33 14 13 13.33 13 12.5Z" fill="white"/>
</g>
<defs>
<clipPath id="clip0_1_283">
<rect width="40" height="40" fill="white"/>
</clipPath>
</defs>
</svg>
