<?xml version="1.0" encoding="UTF-8"?>
<svg width="64px" height="64px" viewBox="0 0 64 64" version="1.1" xmlns="http://www.w3.org/2000/svg" xmlns:xlink="http://www.w3.org/1999/xlink">
    <title>Icon-Architecture/48/Arch_Amazon-Managed-Grafana_48</title>
    <g id="Icon-Architecture/48/Arch_Amazon-Managed-Grafana_48" stroke="none" stroke-width="1" fill="none" fill-rule="evenodd">
        <g id="Icon-Architecture-BG/48/Management-Governance" fill="#E7157B">
            <rect id="Rectangle" x="0" y="0" width="64" height="64"></rect>
        </g>
        <g id="Icon-Service/48/Amazon-Managed-Grafana_48" transform="translate(10.000000, 10.000000)" fill="#FFFFFF">
            <path d="M9.99955222,31.00089 L11.9995522,31.00089 L11.9995522,23.00089 L9.99955222,23.00089 L9.99955222,31.00089 Z M27.9995522,31.00089 L29.9995522,31.00089 L29.9995522,23.00089 L27.9995522,23.00089 L27.9995522,31.00089 Z M21.9995522,31.00089 L23.9995522,31.00089 L23.9995522,12.00089 L21.9995522,12.00089 L21.9995522,31.00089 Z M15.9995522,31.00089 L17.9995522,31.00089 L17.9995522,19.00089 L15.9995522,19.00089 L15.9995522,31.00089 Z M41.9995522,36.18689 L14.4315522,41.89089 L2.12455222,24.84989 L10.6625522,2.08088996 L27.0615522,3.90288996 L28.0025522,17.07189 C28.0225522,17.34889 28.1565522,17.60489 28.3715522,17.77889 C28.5875522,17.95389 28.8665522,18.03189 29.1415522,17.99089 L41.9995522,16.15389 L41.9995522,36.18689 Z M43.6555522,14.24589 C43.4375522,14.05589 43.1445522,13.96989 42.8585522,14.01089 L29.9205522,15.85889 L28.9965522,2.92988996 C28.9625522,2.44788996 28.5895522,2.06088996 28.1105522,2.00688996 L10.1105522,0.0068899599 C9.65955222,-0.0471100401 9.22355222,0.22088996 9.06355222,0.64988996 L0.0635522245,24.64989 C-0.0534477755,24.96289 -0.00744777555,25.31489 0.189552224,25.58589 L13.1895522,43.58589 C13.3795522,43.84989 13.6825522,44.00089 13.9995522,44.00089 C14.0675522,44.00089 14.1345522,43.99389 14.2015522,43.97989 L43.2015522,37.97989 C43.6665522,37.88389 43.9995522,37.47489 43.9995522,37.00089 L43.9995522,15.00089 C43.9995522,14.71089 43.8735522,14.43589 43.6555522,14.24589 L43.6555522,14.24589 Z" id="Fill-4"></path>
        </g>
    </g>
</svg>