<?xml version="1.0" encoding="UTF-8"?>
<svg width="64px" height="64px" viewBox="0 0 64 64" version="1.1" xmlns="http://www.w3.org/2000/svg" xmlns:xlink="http://www.w3.org/1999/xlink">
    <title>Icon-Architecture/48/Arch_Amazon-Managed-Service-for-Prometheus_48</title>
    <g id="Icon-Architecture/48/Arch_Amazon-Managed-Service-for-Prometheus_48" stroke="none" stroke-width="1" fill="none" fill-rule="evenodd">
        <g id="Icon-Architecture-BG/48/Management-Governance" fill="#E7157B">
            <rect id="Rectangle" x="0" y="0" width="64" height="64"></rect>
        </g>
        <g id="Icon-Service/48/Amazon-Managed-Service-for-Prometheus_48" transform="translate(16.000000, 10.000000)" fill="#FFFFFF">
            <path d="M26,14 C24.897,14 24,13.103 24,12 C24,10.897 24.897,10 26,10 C27.103,10 28,10.897 28,12 C28,13.103 27.103,14 26,14 L26,14 Z M16,4 C16,2.897 16.897,2 18,2 C19.103,2 20,2.897 20,4 C20,5.103 19.103,6 18,6 C16.897,6 16,5.103 16,4 L16,4 Z M12,20 C10.897,20 10,19.103 10,18 C10,16.897 10.897,16 12,16 C13.103,16 14,16.897 14,18 C14,19.103 13.103,20 12,20 L12,20 Z M2,11 C2,9.897 2.897,9 4,9 C5.103,9 6,9.897 6,11 C6,12.103 5.103,13 4,13 C2.897,13 2,12.103 2,11 L2,11 Z M26,8 C25.261,8 24.576,8.215 23.98,8.567 L21.434,6.019 C21.784,5.424 22,4.74 22,4 C22,1.794 20.206,0 18,0 C15.794,0 14,1.794 14,4 C14,5.365 14.689,6.57 15.736,7.292 L12.363,14.037 C12.242,14.025 12.125,14 12,14 C11.003,14 10.101,14.38 9.399,14.985 L7.434,13.019 C7.784,12.424 8,11.74 8,11 C8,8.794 6.206,7 4,7 C1.794,7 0,8.794 0,11 C0,13.206 1.794,15 4,15 C4.739,15 5.424,14.785 6.02,14.433 L8.247,16.661 C8.097,17.082 8,17.528 8,18 C8,20.206 9.794,22 12,22 C14.206,22 16,20.206 16,18 C16,16.635 15.311,15.43 14.264,14.708 L17.637,7.963 C17.758,7.975 17.875,8 18,8 C18.739,8 19.424,7.785 20.02,7.433 L22.566,9.981 C22.216,10.576 22,11.26 22,12 C22,14.206 23.794,16 26,16 C28.206,16 30,14.206 30,12 C30,9.794 28.206,8 26,8 L26,8 Z M20.531,30 L10.469,30 L7.135,26 L23.865,26 L20.531,30 Z M17.219,42 L13.781,42 L11.28,32 L19.72,32 L17.219,42 Z M26,24 L5,24 C4.612,24 4.259,24.225 4.095,24.576 C3.93,24.927 3.983,25.342 4.231,25.64 L9.085,31.464 L12.03,43.243 C12.142,43.687 12.541,44 13,44 L18,44 C18.459,44 18.858,43.687 18.97,43.243 L21.915,31.464 L26.769,25.64 C27.017,25.342 27.07,24.927 26.905,24.576 C26.741,24.225 26.388,24 26,24 L26,24 Z" id="Fill-1"></path>
        </g>
    </g>
</svg>