<?xml version="1.0" encoding="UTF-8"?>
<svg width="64px" height="64px" viewBox="0 0 64 64" version="1.1" xmlns="http://www.w3.org/2000/svg" xmlns:xlink="http://www.w3.org/1999/xlink">
    <title>Icon-Architecture/48/Arch_AWS-Resilience-Hub_48</title>
    <g id="Icon-Architecture/48/Arch_AWS-Resilience-Hub_48" stroke="none" stroke-width="1" fill="none" fill-rule="evenodd">
        <g id="Icon-Architecture-BG/48/Management-Governance" fill="#E7157B">
            <rect id="Rectangle" x="0" y="0" width="64" height="64"></rect>
        </g>
        <path d="M49.2,42.2963627 L41.8,42.2963627 L41.8,44.1523627 L46.064,44.1523627 C44.231,47.8713627 40.419,50.2963627 36.2,50.2963627 C30.135,50.2963627 25.2,45.3613627 25.2,39.2963627 C25.2,33.2313627 30.135,28.2963627 36.2,28.2963627 C41.881,28.2963627 46.696,32.7253627 47.162,38.3783627 L49.156,38.2143627 C48.604,31.5313627 42.914,26.2963627 36.2,26.2963627 C29.032,26.2963627 23.2,32.1283627 23.2,39.2963627 C23.2,46.4643627 29.032,52.2963627 36.2,52.2963627 C40.752,52.2963627 44.904,49.9073627 47.242,46.1483627 L47.242,49.7113627 L49.2,49.7113627 L49.2,42.2963627 Z M29.872,39.5553627 L28.528,41.0373627 L33.079,45.1613627 C33.27,45.3353627 33.511,45.4203627 33.751,45.4203627 C34.019,45.4203627 34.288,45.3123627 34.484,45.1003627 L42.933,35.9763627 L41.467,34.6163627 L33.689,43.0153627 L29.872,39.5553627 Z M54.000381,32.6363627 C53.976,35.4003627 52.886,37.1493627 51.974,38.1293627 L50.51,36.7683627 C51.179,36.0463627 51.982,34.7423627 52,32.6203627 C52.043,27.5373627 47.824,26.2593627 46.009,25.9463627 C45.481,25.8553627 45.121,25.3673627 45.186,24.8393627 C45.004,22.5443627 43.945,20.9003627 42.341,20.4333627 C41.02,20.0493627 39.607,20.5673627 38.736,21.7533627 C38.516,22.0523627 38.154,22.2043627 37.783,22.1503627 C37.417,22.0953627 37.11,21.8423627 36.987,21.4933627 C36.356,19.7003627 35.445,18.1953627 34.278,17.0203627 C32.848,15.5793627 28.926,12.4843627 23.392,14.8373627 C20.196,16.1973627 17.692,20.1183627 17.692,23.7643627 C17.692,24.1753627 17.717,24.5843627 17.764,24.9793627 C17.826,25.4883627 17.491,25.9623627 16.99,26.0743627 C16.976,26.0783627 16.962,26.0813627 16.948,26.0833627 C15.066,26.5853627 12,28.0893627 12,32.5633627 C12,32.8033627 12.01,33.0343627 12.026,33.2593627 C12.307,36.8683627 14.377,39.2963627 17.174,39.2963627 L20.963,39.2963627 L20.963,41.2963627 L17.174,41.2963627 C13.331,41.2963627 10.394,38.0533627 10.032,33.4113627 C10.012,33.1353627 10,32.8543627 10,32.5633627 C10,27.2023627 13.522,25.1383627 15.707,24.3743627 C15.697,24.1723627 15.692,23.9683627 15.692,23.7643627 C15.692,19.3043627 18.666,14.6743627 22.609,12.9973627 C27.229,11.0303627 32.123,12.0093627 35.698,15.6113627 C36.743,16.6653627 37.611,17.9303627 38.288,19.3863627 C39.607,18.3883627 41.292,18.0453627 42.899,18.5133627 C45.194,19.1813627 46.741,21.2603627 47.122,24.1373627 C50.605,24.9933627 54.042,27.6053627 54.000381,32.6363627 L54.000381,32.6363627 Z" id="Icon-Service/48/AWS-Resilience-Hub_48_Squid" fill="#FFFFFF"></path>
    </g>
</svg>