<?xml version="1.0" encoding="UTF-8"?>
<svg width="64px" height="64px" viewBox="0 0 64 64" version="1.1" xmlns="http://www.w3.org/2000/svg" xmlns:xlink="http://www.w3.org/1999/xlink">
    <title>Icon-Architecture/48/Arch_AWS-Telco-Network-Builder_48</title>
    <g id="Icon-Architecture/48/Arch_AWS-Telco-Network-Builder_48" stroke="none" stroke-width="1" fill="none" fill-rule="evenodd">
        <g id="Icon-Architecture-BG/48/Management-Governance" fill="#E7157B">
            <rect id="Rectangle" x="0" y="0" width="64" height="64"></rect>
        </g>
        <path d="M15.548,12.3880322 C17.214,11.7150322 19.093,11.9290322 20.572,12.9620322 L21.717,11.3210322 C19.681,9.90103218 17.094,9.60503218 14.798,10.5340322 C12.501,11.4640322 10.847,13.4730322 10.371,15.9110322 L12.334,16.2940322 C12.68,14.5230322 13.881,13.0630322 15.548,12.3880322 L15.548,12.3880322 Z M18.128,19.6130322 C21.27,18.3440322 24.812,18.7460322 27.602,20.6940322 L28.746,19.0530322 C25.396,16.7180322 21.148,16.2340322 17.378,17.7590322 C13.606,19.2850322 10.886,22.5890322 10.104,26.5950322 L12.067,26.9780322 C12.719,23.6380322 14.985,20.8850322 18.128,19.6130322 L18.128,19.6130322 Z M38.985,12.0960322 C44.461,12.4850322 49.368,15.3300322 52.448,19.9000322 L54.107,18.7830322 C50.681,13.6990322 45.221,10.5340322 39.128,10.1000322 C34.101,9.74203218 29.178,11.3020322 25.266,14.4900322 L26.529,16.0400322 C30.045,13.1750322 34.471,11.7700322 38.985,12.0960322 L38.985,12.0960322 Z M35.108,42.9330322 C35.098,42.4000322 34.88,41.9020322 34.494,41.5310322 C34.119,41.1700322 33.629,40.9730322 33.11,40.9730322 C33.097,40.9730322 33.083,40.9730322 33.069,40.9730322 C32.535,40.9840322 32.037,41.2020322 31.667,41.5870322 C31.297,41.9720322 31.099,42.4780322 31.11,43.0130322 C31.119,43.5460322 31.337,44.0440322 31.723,44.4150322 C32.098,44.7760322 32.588,44.9730322 33.108,44.9730322 C33.12,44.9730322 33.134,44.9730322 33.148,44.9720322 C33.682,44.9620322 34.18,44.7440322 34.55,44.3590322 C34.92,43.9740322 35.118,43.4680322 35.108,42.9330322 L35.108,42.9330322 Z M35.881,40.0900322 C36.651,40.8300322 37.087,41.8260322 37.108,42.8940322 C37.128,43.9630322 36.732,44.9750322 35.991,45.7450322 C35.251,46.5150322 34.255,46.9510322 33.187,46.9720322 C33.16,46.9720322 33.133,46.9730322 33.106,46.9730322 C32.068,46.9730322 31.087,46.5780322 30.336,45.8560322 C29.567,45.1160322 29.13,44.1190322 29.11,43.0520322 C29.089,41.9830322 29.486,40.9710322 30.226,40.2000322 C30.966,39.4300322 31.962,38.9950322 33.03,38.9740322 C34.057,38.9550322 35.11,39.3480322 35.881,40.0900322 L35.881,40.0900322 Z M42.317,43.7550322 L39.701,42.5540322 C39.445,42.4360322 39.251,42.2160322 39.165,41.9480322 L38.674,40.4050322 C38.59,40.1410322 38.619,39.8540322 38.755,39.6120322 L40.162,37.1080322 L36.66,34.5600322 L34.733,36.6510322 C34.544,36.8550322 34.28,36.9710322 34.003,36.9730322 L32.354,36.9830322 L32.348,36.9830322 C32.069,36.9830322 31.802,36.8660322 31.612,36.6600322 L29.673,34.5550322 L26.166,37.0980322 L27.579,39.6120322 C27.716,39.8560322 27.744,40.1460322 27.657,40.4120322 L27.159,41.9380322 C27.073,42.2030322 26.88,42.4200322 26.626,42.5370322 L24.001,43.7410322 L25.336,47.8620322 L28.141,47.3010322 C28.418,47.2430322 28.705,47.3090322 28.932,47.4770322 L30.257,48.4590322 C30.48,48.6230322 30.623,48.8720322 30.655,49.1470322 L30.985,51.9740322 L35.317,51.9780322 L35.651,49.1310322 C35.683,48.8540322 35.828,48.6040322 36.053,48.4400322 L37.362,47.4810322 C37.589,47.3150322 37.873,47.2510322 38.15,47.3070322 L40.976,47.8740322 L42.317,43.7550322 Z M44.494,43.5270322 L42.603,49.3390322 C42.445,49.8210322 41.946,50.1090322 41.455,50.0100322 L38.189,49.3550322 L37.586,49.7960322 L37.199,53.0950322 C37.141,53.5990322 36.713,53.9790322 36.206,53.9790322 L36.205,53.9790322 L30.093,53.9730322 C29.586,53.9720322 29.159,53.5920322 29.101,53.0890322 L28.719,49.8080322 L28.099,49.3480322 L24.856,49.9970322 C24.354,50.0940322 23.864,49.8080322 23.708,49.3250322 L21.824,43.5110322 C21.668,43.0280322 21.898,42.5050322 22.359,42.2930322 L25.395,40.9010322 L25.62,40.2090322 L23.986,37.3010322 C23.738,36.8590322 23.861,36.3000322 24.272,36.0020322 L29.219,32.4130322 C29.628,32.1170322 30.197,32.1720322 30.541,32.5450322 L32.784,34.9800322 L33.557,34.9750322 L35.793,32.5500322 C36.139,32.1750322 36.705,32.1200322 37.117,32.4190322 L42.059,36.0140322 C42.468,36.3130322 42.59,36.8710322 42.342,37.3130322 L40.712,40.2130322 L40.937,40.9200322 L43.96,42.3090322 C44.422,42.5210322 44.652,43.0440322 44.494,43.5270322 L44.494,43.5270322 Z M54.132,41.3030322 C54.132,45.3200322 52.054,47.6590322 50.31,48.9130322 C49.469,49.5170322 48.051,49.9730322 47.013,49.9730322 L45.109,49.9730322 L45.109,47.9730322 L47.013,47.9730322 C47.629,47.9730322 48.644,47.6470322 49.142,47.2890322 C50.506,46.3080322 52.132,44.4720322 52.132,41.3030322 C52.132,36.7800322 48.986,35.2970322 47.11,34.8150322 C46.647,34.6960322 46.332,34.2650322 46.36,33.7870322 L46.44,32.4570322 C46.438,28.8760322 43.933,24.9610322 40.735,23.6030322 C35.198,21.2530322 31.274,24.3440322 29.843,25.7830322 C28.675,26.9580322 27.763,28.4600322 27.133,30.2490322 C27.01,30.5980322 26.703,30.8510322 26.337,30.9060322 C25.967,30.9610322 25.604,30.8080322 25.384,30.5100322 C24.471,29.2700322 22.899,28.7520322 21.475,29.2200322 C19.86,29.7500322 18.932,31.3470322 18.926,33.6030322 C18.94,34.1030322 18.603,34.6110322 18.109,34.6960322 C16.272,35.0130322 12,36.2960322 12,41.3680322 C12,47.4580322 17.517,47.9580322 17.751,47.9760322 L20.109,47.9730322 L20.109,49.9730322 L17.674,49.9730322 C14.969,49.7650322 10,47.7040322 10,41.3680322 C10,36.3710322 13.455,33.7640322 16.953,32.8960322 C17.163,30.1220322 18.587,28.0630322 20.85,27.3200322 C22.571,26.7540322 24.417,27.0930322 25.83,28.1490322 C26.508,26.6930322 27.377,25.4270322 28.425,24.3730322 C31.998,20.7770322 36.894,19.7980322 41.517,21.7620322 C45.462,23.4380322 48.438,28.0610322 48.438,32.5160322 L48.402,33.1180322 C50.587,33.8750322 54.132,35.9320322 54.132,41.3030322 L54.132,41.3030322 Z" id="Fill-6" fill="#FFFFFF"></path>
    </g>
</svg>