<svg width="64" height="64" viewBox="0 0 64 64" fill="none" xmlns="http://www.w3.org/2000/svg">
<g id="Icon-Architecture/48/Arch_AWS-Compute-Optimizer_48">
<g id="Icon-Architecture-BG/48/Application-Integration">
<rect id="Rectangle" width="64" height="64" fill="#E7157B"/>
</g>
<g id="Icon-Service/48/AWS-Compute-Optimizer_48">
<path id="AWS-Compute-Optimizer_Icon_48_Squid" fill-rule="evenodd" clip-rule="evenodd" d="M35 36.511C37.847 36.11 40 33.64 40 30.646C40 27.652 37.847 25.182 35 24.782V22.776C38.963 23.188 42 26.546 42 30.646C42 34.746 38.963 38.104 35 38.516V36.511ZM36.472 13H35V11H37.529C37.805 11 38.067 11.113 38.256 11.313C38.445 11.513 38.543 11.782 38.527 12.056L38.4 14.329C39.703 14.69 40.951 15.205 42.13 15.867L43.643 14.167C43.826 13.962 44.085 13.841 44.36 13.833C44.639 13.816 44.901 13.931 45.096 14.124L50.341 19.358C50.536 19.553 50.642 19.819 50.635 20.094C50.627 20.369 50.507 20.628 50.302 20.812L48.607 22.327C49.271 23.502 49.79 24.751 50.156 26.054L52.425 25.922C52.694 25.913 52.968 26.004 53.168 26.193C53.368 26.382 53.482 26.644 53.482 26.92L53.491 34.329C53.491 34.604 53.379 34.868 53.179 35.057C52.979 35.245 52.707 35.344 52.436 35.329L50.174 35.202C49.736 36.779 49.073 38.279 48.197 39.67L46.504 38.604C47.41 37.165 48.058 35.596 48.43 33.939C48.537 33.461 49.011 33.141 49.461 33.159L51.49 33.273L51.483 27.98L49.448 28.099C48.957 28.12 48.523 27.799 48.416 27.322C48.038 25.664 47.387 24.098 46.48 22.666C46.219 22.253 46.294 21.712 46.658 21.386L48.179 20.026L44.433 16.288L43.075 17.813C42.75 18.178 42.208 18.254 41.796 17.994C40.36 17.091 38.793 16.445 37.137 16.073C36.659 15.966 36.33 15.529 36.357 15.041L36.472 13ZM26.045 51.86L24.035 50.654L27.626 47.781L26.376 46.219L22.205 49.556L17.001 46.433V40.499L20.601 37.8L19.401 36.2L15.85 38.862L12.001 37.323L12 32.564L16.478 29.855L15.442 28.144L12 30.226L12.001 27.575L15.988 25.175L20.001 27.568V30.5L16.401 33.2L17.601 34.8L20.907 32.32L23.001 34.414V36H25.001V34C25.001 33.735 24.896 33.48 24.708 33.293L22.001 30.586V27.566L26.516 24.857C26.816 24.677 27.001 24.351 27.001 24V19.011H25.001V23.433L20.999 25.835L17.001 23.451V17.535L21.001 14.868V20H23.001V13.535L25.104 12.132L31.001 14.659V30L28.6 28.2L27.4 29.8L31.001 32.5V34.519L21.376 42.219L22.626 43.781L31.001 37.08V49.382L26.045 51.86ZM25.395 10.081C25.085 9.948 24.729 9.98 24.446 10.168L15.446 16.168C15.168 16.353 15.001 16.665 15.001 17V23.434L10.485 26.153C10.185 26.334 10.001 26.659 10.001 27.01L10 31.758L10.001 38C10.001 38.409 10.25 38.777 10.63 38.929L15.001 40.677V47C15.001 47.351 15.186 47.677 15.486 47.857L25.486 53.857C25.645 53.952 25.822 54 26.001 54C26.154 54 26.307 53.965 26.448 53.894L32.448 50.894C32.787 50.725 33.001 50.379 33.001 50V14C33.001 13.6 32.763 13.238 32.395 13.081L25.395 10.081ZM38.449 50C38.274 49.999 38.141 49.973 38.061 49.922C37.563 49.609 36.971 49.003 36.971 47.9C36.971 46.812 37.503 46.124 38.553 45.854C39.016 45.735 39.33 45.305 39.302 44.828L39.272 44.348C39.272 43.118 40.144 41.748 41.214 41.293C41.708 41.083 42.165 41 42.58 41C43.761 41 44.597 41.679 44.962 42.046C45.365 42.452 45.695 42.999 45.917 43.629C46.04 43.978 46.347 44.231 46.713 44.286C47.077 44.341 47.446 44.188 47.665 43.89C47.915 43.551 48.307 43.492 48.581 43.581C48.963 43.707 49.188 44.127 49.2 44.739C49.152 45.256 49.51 45.727 50.026 45.816C50.764 45.943 52.001 46.386 52.001 47.926C52.001 49.683 50.468 49.958 50.077 50H38.449ZM49.205 41.682C48.552 41.467 47.858 41.505 47.247 41.763C46.999 41.344 46.71 40.968 46.38 40.636C44.758 39.003 42.533 38.56 40.433 39.453C38.694 40.19 37.368 42.177 37.279 44.188C35.819 44.847 34.971 46.186 34.971 47.9C34.971 50.021 36.237 51.137 36.991 51.613C37.396 51.869 37.885 51.999 38.447 52H50.124C50.148 52 50.173 51.999 50.197 51.997C51.513 51.901 54.001 50.927 54.001 47.926C54.001 45.75 52.631 44.535 51.136 44.038C50.895 42.703 50.025 41.951 49.205 41.682Z" fill="white"/>
</g>
</g>
</svg>
