<?xml version="1.0" encoding="UTF-8"?>
<svg width="64px" height="64px" viewBox="0 0 64 64" version="1.1" xmlns="http://www.w3.org/2000/svg" xmlns:xlink="http://www.w3.org/1999/xlink">
    <title>Icon-Architecture/48/Arch_AWS-Distro-for-OpenTelemetry_48</title>
    <g id="Icon-Architecture/48/Arch_AWS-Distro-for-OpenTelemetry_48" stroke="none" stroke-width="1" fill="none" fill-rule="evenodd">
        <g id="Icon-Architecture-BG/48/Application-Integration" fill="#E7157B">
            <rect id="Rectangle" x="0" y="0" width="64" height="64"></rect>
        </g>
        <g id="Icon-Service/48/AWS-Distro-for-OpenTelemetry_48" transform="translate(10.000000, 13.000000)" fill="#FFFFFF">
            <path d="M42,2 L40,2 C38.175,2 38.008,3.469 38,3.919 C38,3.948 37.985,3.972 37.982,4 L38,4 L38,11 L36,11 L36,4.911 L31,4.911 L31,16 L37,16 C37.553,16 38,16.569 38,17.121 C38.008,17.555 38.176,19 40,19 L42,19 L42,2 Z M2,12 L12,12 L12,9 L2,9 L2,12 Z M44,1 L44,20 C44,20.552 43.553,21 43,21 L40,21 C37.651,21 36.5,19.393 36.134,18 L30,18 C29.447,18 29,17.673 29,17.121 L29,17 L27,17 L27,15 L29,15 L29,6 L15,6 C14.753,6 14.428,6.03 14.284,6.176 C13.983,6.479 13.991,7.544 13.997,8.483 L14,12 L13.997,12.517 C13.991,13.456 13.983,14.521 14.284,14.824 C14.428,14.97 14.753,15 15,15 L19,15 L19,17 L15,17 C14.088,17 13.37,16.742 12.865,16.233 C12.291,15.655 12.095,14.874 12.028,14 L2,14 L2,17 L0,17 L0,13 L0,8 L0,4 L2,4 L2,7 L12.028,7 C12.095,6.126 12.291,5.345 12.865,4.767 C13.37,4.258 14.088,4 15,4 L29,4 L29,3.911 C29,3.359 29.447,3 30,3 L36.132,3 C36.495,1.593 37.646,0 40,0 L43,0 C43.553,0 44,0.448 44,1 L44,1 Z M34,28 L41,28 L41,30 L34.721,30 L31.948,38.316 C31.812,38.725 31.43,39 31,39 L30.983,39 C30.547,38.993 30.165,38.703 30.041,38.284 L22.999,14.516 L17.207,34.013 C17.087,34.416 16.729,34.7 16.31,34.726 C15.896,34.76 15.499,34.513 15.332,34.128 L12.07,26.66 L9.937,32.351 C9.79,32.741 9.417,33 9,33 L1,33 L1,31 L8.307,31 L11.063,23.649 C11.207,23.268 11.566,23.011 11.974,23 C12.377,22.973 12.753,23.227 12.916,23.6 L16.069,30.819 L22.041,10.715 C22.167,10.291 22.558,10 23,10 C23.443,10 23.833,10.292 23.959,10.716 L31.056,34.669 L33.052,28.684 C33.187,28.275 33.569,28 34,28 L34,28 Z" id="Fill-3"></path>
        </g>
    </g>
</svg>