<?xml version="1.0" encoding="UTF-8"?>
<svg width="64px" height="64px" viewBox="0 0 64 64" version="1.1" xmlns="http://www.w3.org/2000/svg" xmlns:xlink="http://www.w3.org/1999/xlink">
    <title>Icon-Architecture/48/Arch_AWS-Application-Auto-Scaling_48</title>
    <g id="Icon-Architecture/48/Arch_AWS-Application-Auto-Scaling_48" stroke="none" stroke-width="1" fill="none" fill-rule="evenodd">
        <g id="Icon-Architecture-BG/48/Management-Governance" fill="#E7157B">
            <rect id="Rectangle" x="0" y="0" width="64" height="64"></rect>
        </g>
        <g id="Icon-Service/48/AWS-Application-Auto-Scaling_48" transform="translate(10.000000, 10.000000)" fill="#FFFFFF">
            <path d="M43.975,22.963 L36.403,22.96 L39.684,26.258 L38.266,27.668 L33.291,22.668 C32.904,22.278 32.904,21.648 33.291,21.258 L38.266,16.258 L39.684,17.668 L36.409,20.975 L43.975,20.975 L43.975,22.963 Z M10.684,21.257 C11.072,21.647 11.072,22.277 10.684,22.668 L5.709,27.668 L4.291,26.258 L7.566,22.966 L0,22.963 L0,20.975 L7.574,20.975 L4.291,17.669 L5.709,16.257 L10.684,21.257 Z M26.283,37.266 L27.693,38.684 L22.693,43.66 C22.498,43.854 22.243,43.951 21.988,43.951 C21.733,43.951 21.477,43.854 21.283,43.66 L16.283,38.684 L17.693,37.266 L20.988,40.542 L20.988,32.975 L22.988,32.976 L22.985,40.548 L26.283,37.266 Z M17.693,6.684 L16.283,5.266 L21.283,0.291 C21.671,-0.097 22.304,-0.097 22.693,0.291 L27.693,5.266 L26.283,6.684 L22.985,3.402 L22.988,10.975 L20.988,10.975 L20.988,3.409 L17.693,6.684 Z M26.988,17.144 C26.306,17.014 25.571,17.102 24.882,17.426 C24.265,17.717 23.766,18.215 23.476,18.83 C22.966,19.915 23.025,21.09 23.636,22.054 C24.347,23.173 25.716,23.748 26.988,23.5 L26.988,24.975 L23.689,24.975 C23.28,24.975 22.913,25.224 22.76,25.603 C22.609,25.983 22.703,26.416 22.998,26.698 C23.29,26.977 23.521,27.51 23.209,28.096 C23.084,28.33 22.919,28.505 22.743,28.588 C22.122,28.879 21.662,28.689 21.442,28.548 C21.08,28.32 20.866,27.929 20.866,27.503 C20.866,26.978 20.978,26.828 21.114,26.699 C21.41,26.417 21.503,25.983 21.352,25.604 C21.2,25.224 20.832,24.975 20.423,24.975 L16.988,24.975 L16.988,14.975 L26.988,14.975 L26.988,17.144 Z M27.988,12.975 L16.988,12.975 C16.533,12.975 15.046,13.115 15.046,14.916 L15.046,25.975 C15.046,26.527 15.494,26.975 16.046,26.975 L18.894,26.975 C18.871,27.165 18.866,27.343 18.866,27.503 C18.866,28.617 19.428,29.639 20.37,30.237 C20.899,30.573 21.492,30.742 22.098,30.742 C22.596,30.742 23.105,30.628 23.594,30.398 C24.167,30.128 24.645,29.656 24.975,29.035 C25.325,28.379 25.431,27.656 25.31,26.975 L27.988,26.975 C28.54,26.975 28.988,26.527 28.988,25.975 L28.988,21.862 C28.988,21.453 28.739,21.086 28.359,20.934 C27.982,20.782 27.546,20.876 27.264,21.172 C26.725,21.736 25.736,21.629 25.326,20.983 C25.185,20.762 24.995,20.301 25.286,19.682 C25.376,19.49 25.539,19.327 25.734,19.236 C26.299,18.971 26.871,19.058 27.264,19.47 C27.546,19.766 27.98,19.859 28.36,19.708 C28.739,19.556 28.988,19.188 28.988,18.779 L28.988,13.975 C28.988,13.423 28.54,12.975 27.988,12.975 L27.988,12.975 Z" id="AWS-Application-Auto-Scaling_48_Squid"></path>
        </g>
    </g>
</svg>