<?xml version="1.0" encoding="UTF-8"?>
<svg width="64px" height="64px" viewBox="0 0 64 64" version="1.1" xmlns="http://www.w3.org/2000/svg" xmlns:xlink="http://www.w3.org/1999/xlink">
    <title>Icon-Architecture/48/Arch_AWS-Resource-Explorer_48</title>
    <g id="Icon-Architecture/48/Arch_AWS-Resource-Explorer_48" stroke="none" stroke-width="1" fill="none" fill-rule="evenodd">
        <g id="Icon-Architecture-BG/48/Management-Governance" fill="#E7157B">
            <rect id="Rectangle" x="0" y="0" width="64" height="64"></rect>
        </g>
        <path d="M38.554,26.0793125 L39.447,27.8693125 L37.449,28.8653125 L36.556,27.0753125 L38.554,26.0793125 Z M34.676,28.0223125 L35.328,29.9123125 L33,30.7143125 L33.002,33.0013125 L31.002,33.0023125 L31.001,30.7223125 L28.051,29.7393125 L28.684,27.8423125 L31.995,28.9453125 L34.676,28.0223125 Z M31,38.0013125 L33,38.0013125 L33,35.0013125 L31,35.0013125 L31,38.0013125 Z M31,43.0013125 L33,43.0013125 L33,40.0013125 L31,40.0013125 L31,43.0013125 Z M50.427,51.4293125 C50.117,51.7403125 49.748,51.9423125 49.417,51.9843125 C49.147,52.0223125 48.928,51.9483125 48.756,51.7763125 L41.783,44.6403125 C42.497,44.1253125 43.152,43.5373125 43.743,42.8863125 L50.781,49.7363125 C51.22,50.1753125 50.936,50.9203125 50.427,51.4293125 L50.427,51.4293125 Z M33,51.3833125 L33,46.9033125 C33.493,46.9623125 33.991,47.0013125 34.499,47.0013125 C36.483,47.0013125 38.354,46.5243125 40.022,45.6983125 L41.449,47.1593125 L33,51.3833125 Z M13,22.7913125 L23.998,27.7463125 C22.739,29.6963125 21.999,32.0123125 21.999,34.5013125 C21.999,40.1793125 25.807,44.9763125 31,46.4943125 L31,51.3833125 L13,42.3833125 L13,22.7913125 Z M32.014,12.1233125 L48.811,20.9783125 L41.885,24.4403125 C39.813,22.9143125 37.264,22.0013125 34.499,22.0013125 C30.834,22.0013125 27.543,23.5973125 25.254,26.1183125 L14.076,21.0823125 L32.014,12.1233125 Z M34.499,45.0013125 C28.709,45.0013125 23.999,40.2913125 23.999,34.5013125 C23.999,28.7123125 28.709,24.0013125 34.499,24.0013125 C40.289,24.0013125 44.999,28.7123125 44.999,34.5013125 C44.999,40.2913125 40.289,45.0013125 34.499,45.0013125 L34.499,45.0013125 Z M47.732,43.9783125 L44.977,41.2963125 C46.251,39.3383125 46.999,37.0073125 46.999,34.5013125 C46.999,31.1503125 45.666,28.1093125 43.512,25.8623125 L50,22.6193125 L50,42.4663125 L47.732,43.9783125 Z M49.198,45.4053125 L51.555,43.8333125 C51.833,43.6483125 52,43.3363125 52,43.0013125 L52,21.0013125 C52,20.6303125 51.795,20.2903125 51.467,20.1173125 L32.493,10.1153125 C32.206,9.9653125 31.868,9.9613125 31.579,10.1053125 L11.553,20.1073125 C11.214,20.2763125 11,20.6223125 11,21.0013125 L11,43.0013125 C11,43.3803125 11.214,43.7263125 11.553,43.8963125 L31.553,53.8963125 C31.694,53.9663125 31.847,54.0013125 32,54.0013125 C32.154,54.0013125 32.307,53.9663125 32.448,53.8963125 L42.917,48.6613125 L47.334,53.1823125 C47.864,53.7123125 48.546,53.9933125 49.287,53.9933125 C49.413,53.9933125 49.541,53.9843125 49.67,53.9683125 C50.444,53.8703125 51.214,53.4703125 51.841,52.8433125 C53.231,51.4533125 53.383,49.5083125 52.185,48.3113125 L49.198,45.4053125 Z" id="Fill-3" fill="#FFFFFF"></path>
    </g>
</svg>