<?xml version="1.0" encoding="UTF-8"?>
<svg width="64px" height="64px" viewBox="0 0 64 64" version="1.1" xmlns="http://www.w3.org/2000/svg" xmlns:xlink="http://www.w3.org/1999/xlink">
    <title>Icon-Architecture/48/Arch_AWS-Proton_48</title>
    <g id="Icon-Architecture/48/Arch_AWS-Proton_48" stroke="none" stroke-width="1" fill="none" fill-rule="evenodd">
        <g id="Icon-Architecture-BG/48/Management-Governance" fill="#E7157B">
            <rect id="Rectangle" x="0" y="0" width="64" height="64"></rect>
        </g>
        <g id="Icon-Service/48/AWS-Proton_48" transform="translate(10.000000, 10.000000)" fill="#FFFFFF">
            <path d="M17.219,12.625 L13.219,7.625 L14.781,6.376 L18.481,11 L31.586,11 L30.293,9.708 L31.707,8.293 L34.707,11.293 C35.098,11.684 35.098,12.317 34.707,12.708 L31.707,15.708 L30.293,14.293 L31.586,13 L18,13 C17.697,13 17.409,12.862 17.219,12.625 L17.219,12.625 Z M34.707,31.293 C35.098,31.684 35.098,32.317 34.707,32.708 L31.707,35.708 L30.293,34.293 L31.586,33 L18.481,33 L14.781,37.625 L13.219,36.376 L17.219,31.376 C17.409,31.139 17.697,31 18,31 L31.586,31 L30.293,29.708 L31.707,28.293 L34.707,31.293 Z M43.707,22.708 L40.707,25.708 L39.293,24.293 L40.586,23 L23,23 L23,21 L40.586,21 L39.293,19.708 L40.707,18.293 L43.707,21.293 C44.098,21.684 44.098,22.317 43.707,22.708 L43.707,22.708 Z M5,42 C3.346,42 2,40.655 2,39 C2,37.346 3.346,36 5,36 C6.655,36 8,37.346 8,39 C8,40.655 6.655,42 5,42 L5,42 Z M15,19 C16.655,19 18,20.346 18,22 C18,23.655 16.655,25 15,25 C13.346,25 12,23.655 12,22 C12,20.346 13.346,19 15,19 L15,19 Z M2,5 C2,3.346 3.346,2 5,2 C6.655,2 8,3.346 8,5 C8,6.655 6.655,8 5,8 C3.346,8 2,6.655 2,5 L2,5 Z M8.151,35.15 L14.526,26.953 C14.685,26.968 14.838,27 15,27 C17.757,27 20,24.757 20,22 C20,19.244 17.757,17 15,17 C14.838,17 14.685,17.033 14.526,17.048 L8.151,8.851 C9.27,7.933 10,6.558 10,5 C10,2.244 7.757,0 5,0 C2.243,0 0,2.244 0,5 C0,7.757 2.243,10 5,10 C5.471,10 5.917,9.914 6.35,9.792 L12.498,17.697 C11.012,18.565 10,20.159 10,22 C10,23.842 11.012,25.436 12.498,26.304 L6.35,34.209 C5.917,34.087 5.471,34 5,34 C2.243,34 0,36.244 0,39 C0,41.757 2.243,44 5,44 C7.757,44 10,41.757 10,39 C10,37.443 9.27,36.068 8.151,35.15 L8.151,35.15 Z" id="Fill-5"></path>
        </g>
    </g>
</svg>