<svg width="64" height="64" viewBox="0 0 64 64" fill="none" xmlns="http://www.w3.org/2000/svg">
<rect width="64" height="64" fill="#E7157B"/>
<path d="M52.8271 39.4185C50.8174 39.4185 49.1826 37.7837 49.1826 35.7739C49.1826 35.2217 48.7353 34.7739 48.1826 34.7739C47.6299 34.7739 47.1826 35.2217 47.1826 35.7739C47.1826 37.7837 45.5479 39.4185 43.5381 39.4185C42.9854 39.4185 42.5381 39.8662 42.5381 40.4185C42.5381 40.9707 42.9854 41.4185 43.5381 41.4185C45.5479 41.4185 47.1826 43.0532 47.1826 45.063C47.1826 45.6152 47.6299 46.063 48.1826 46.063C48.7353 46.063 49.1826 45.6152 49.1826 45.063C49.1826 43.0532 50.8174 41.4185 52.8271 41.4185C53.3799 41.4185 53.8271 40.9707 53.8271 40.4185C53.8271 39.8662 53.3799 39.4185 52.8271 39.4185ZM48.1826 41.8584C47.7939 41.2964 47.3047 40.8076 46.7422 40.4185C47.3047 40.0293 47.7939 39.5405 48.1826 38.9785C48.5713 39.5405 49.0605 40.0293 49.623 40.4185C49.0605 40.8076 48.5713 41.2964 48.1826 41.8584ZM43.8887 29.1172C44.4414 29.1172 44.8887 28.6694 44.8887 28.1172C44.8887 25.0771 47.3613 22.6035 50.4014 22.6035C50.9541 22.6035 51.4014 22.1558 51.4014 21.6035C51.4014 21.0513 50.9541 20.6035 50.4014 20.6035C47.3613 20.6035 44.8887 18.1304 44.8887 15.0903C44.8887 14.5381 44.4414 14.0903 43.8887 14.0903C43.3359 14.0903 42.8887 14.5381 42.8887 15.0903C42.8887 18.1304 40.415 20.6035 37.375 20.6035C36.8223 20.6035 36.375 21.0513 36.375 21.6035C36.375 22.1558 36.8223 22.6035 37.375 22.6035C40.415 22.6035 42.8887 25.0771 42.8887 28.1172C42.8887 28.6694 43.3359 29.1172 43.8887 29.1172ZM41.1172 21.6035C42.2666 20.9404 43.2256 19.9819 43.8887 18.8325C44.5518 19.9819 45.5098 20.9404 46.6592 21.6035C45.5098 22.2666 44.5518 23.2251 43.8887 24.3745C43.2256 23.2251 42.2666 22.2666 41.1172 21.6035ZM37.6104 42.1963C36.9971 41.624 36.7822 41.3901 36.7822 41.0112C36.7822 36.2654 36.7795 22.765 28.0938 20.1973C27.8673 18.6848 26.5717 17.5171 24.9971 17.5171C23.4225 17.5171 22.1268 18.6847 21.9004 20.1973C13.2146 22.765 13.2119 36.2654 13.2119 41.0112C13.2119 41.3901 12.9971 41.624 12.3838 42.1963C11.4512 43.0664 10.1729 44.2588 10.1729 47C10.1729 47.5522 10.6201 48 11.1729 48H20.5002C20.7767 50.2474 22.6757 52 24.9971 52C27.3185 52 29.2174 50.2474 29.4939 48H38.8213C39.374 48 39.8213 47.5522 39.8213 47C39.8213 44.2588 38.543 43.0664 37.6104 42.1963ZM24.9971 50C23.78 50 22.7622 49.1421 22.5083 48H27.4858C27.2319 49.1421 26.2141 50 24.9971 50ZM12.2598 46C12.4824 44.8389 13.1016 44.2622 13.748 43.6587C14.4346 43.0185 15.2119 42.293 15.2119 41.0112C15.2119 32.751 16.2266 21.7695 24.9971 21.7695C33.7676 21.7695 34.7822 32.751 34.7822 41.0112C34.7822 42.293 35.5596 43.0185 36.2461 43.6587C36.8926 44.2622 37.5117 44.8389 37.7344 46H12.2598Z" fill="white"/>
</svg>
