<?xml version="1.0" encoding="UTF-8"?>
<svg width="64px" height="64px" viewBox="0 0 64 64" version="1.1" xmlns="http://www.w3.org/2000/svg" xmlns:xlink="http://www.w3.org/1999/xlink">
    <title>Icon-Architecture/48/Arch_AWS-Console-Mobile-Application _48</title>
    <g id="Icon-Architecture/48/Arch_AWS-Console-Mobile-Application-_48" stroke="none" stroke-width="1" fill="none" fill-rule="evenodd">
        <g id="Icon-Architecture-BG/48/Application-Integration" fill="#E7157B">
            <rect id="Rectangle" x="0" y="0" width="64" height="64"></rect>
        </g>
        <g id="Icon-Service/48/AWS-Console-Mobile-Application_48" transform="translate(10.000000, 10.000000)" fill="#FFFFFF">
            <path d="M0,27 L19,27 L19,25 L0,25 L0,27 Z M6,22 L20,22 L20,20 L6,20 L6,22 Z M24.47,24.281 C24.47,24.393 24.478,24.499 24.49,24.6 C24.596,25.377 25.259,26 26.001,26 L36.001,26 C36.23,25.968 37.306,25.736 37.306,24.304 C37.306,23.115 36.447,22.717 35.728,22.593 C35.227,22.507 34.877,22.063 34.897,21.568 C34.847,21.068 34.649,20.723 34.362,20.639 C34.149,20.578 33.935,20.667 33.788,20.866 C33.567,21.163 33.204,21.314 32.836,21.261 C32.47,21.207 32.164,20.955 32.041,20.606 C31.853,20.075 31.574,19.614 31.235,19.274 C30.93,18.968 30.23,18.401 29.242,18.401 C28.896,18.401 28.513,18.471 28.1,18.646 C27.222,19.018 26.48,20.182 26.48,21.187 C26.48,21.306 26.487,21.422 26.502,21.537 C26.562,22.036 26.242,22.502 25.756,22.626 C24.902,22.843 24.47,23.4 24.47,24.281 L24.47,24.281 Z M22.508,24.863 C22.483,24.677 22.47,24.485 22.47,24.281 C22.47,22.762 23.209,21.57 24.486,20.964 C24.581,19.222 25.768,17.462 27.319,16.804 C29.201,16.006 31.197,16.401 32.651,17.863 C32.922,18.133 33.162,18.437 33.37,18.772 C33.86,18.592 34.4,18.566 34.924,18.72 C35.85,18.99 36.526,19.764 36.789,20.807 C38.107,21.261 39.306,22.354 39.306,24.304 C39.306,27.002 37.2,27.903 36.087,28 L25.999,28 C24.249,27.999 22.748,26.644 22.508,24.863 L22.508,24.863 Z M42,40 L42,38 L20,38 L20,40 C20,41.439 20.561,42 22,42 L39,42 C40.038,42 42,41.582 42,40 L42,40 Z M42,8 L42,4 C42,2.561 41.439,2 40,2 L22,2 C20.561,2 20,2.561 20,4 L20,8 L42,8 Z M44,37 C44,37.005 43.997,37.009 43.997,37.013 L44,37.013 L44,40 C44,42.626 41.484,44 39,44 L22,44 C19.458,44 18,42.542 18,40 L18,29 L20,29 L20,36 L42,36 L42,10 L20,10 L20,18 L18,18 L18,4 C18,1.458 19.458,0 22,0 L40,0 C42.542,0 44,1.458 44,4 L44,37 Z M25,6 L27,6 L27,4 L25,4 L25,6 Z M29,6 L37,6 L37,4 L29,4 L29,6 Z" id="AWS-Console-Mobile-Application_48_Squid"></path>
        </g>
    </g>
</svg>