<?xml version="1.0" encoding="UTF-8"?>
<svg width="64px" height="64px" viewBox="0 0 64 64" version="1.1" xmlns="http://www.w3.org/2000/svg" xmlns:xlink="http://www.w3.org/1999/xlink">
    <title>Icon-Architecture/48/Arch_AWS-Audit-Manager_48</title>
    <g id="Icon-Architecture/48/Arch_AWS-Audit-Manager_48" stroke="none" stroke-width="1" fill="none" fill-rule="evenodd">
        <g id="Icon-Architecture-BG/48/Security-Identity-Compliance" fill="#DD344C">
            <rect id="Rectangle" x="0" y="0" width="64" height="64"></rect>
        </g>
        <g id="Icon-Service/48/AWS-Audit-Manager_48" transform="translate(10.000000, 10.000000)" fill="#FFFFFF">
            <path d="M39.707,31.293 L38.293,32.707 L40.586,35 L33,35 L33,37 L40.586,37 L38.293,39.293 L39.707,40.707 L43.707,36.707 C44.098,36.316 44.098,35.684 43.707,35.293 L39.707,31.293 Z M19,37 L26.586,37 L24.293,39.293 L25.707,40.707 L29.707,36.707 C30.098,36.316 30.098,35.684 29.707,35.293 L25.707,31.293 L24.293,32.707 L26.586,35 L19,35 L19,37 Z M11.707,40.707 L15.707,36.707 C16.098,36.316 16.098,35.684 15.707,35.293 L11.707,31.293 L10.293,32.707 L12.586,35 L5,35 L5,37 L12.586,37 L10.293,39.293 L11.707,40.707 Z M5,27 L19,27 L19,25 L5,25 L5,27 Z M5,18 L19,18 L19,16 L5,16 L5,18 Z M24,18 L28,18 L28,16 L24,16 L24,18 Z M29,14 C29.553,14 30,14.448 30,15 L30,19 C30,19.552 29.553,20 29,20 L23,20 C22.447,20 22,19.552 22,19 L22,15 C22,14.448 22.447,14 23,14 L29,14 Z M24,27 L42,27 L42,25 L24,25 L24,27 Z M44,24 L44,28 C44,28.552 43.553,29 43,29 L23,29 C22.447,29 22,28.552 22,28 L22,24 C22,23.448 22.447,23 23,23 L43,23 C43.553,23 44,23.448 44,24 L44,24 Z M28,7 L31.586,7 L28,3.414 L28,7 Z M33,40 L35,40 L35,43 C35,43.552 34.553,44 34,44 L1,44 C0.447,44 -3.55271368e-15,43.552 -3.55271368e-15,43 L-3.55271368e-15,1 C-3.55271368e-15,0.448 0.447,0 1,0 L27,0 C27.266,0 27.519,0.106 27.707,0.293 L34.707,7.293 C34.895,7.481 35,7.735 35,8 L35,21 L33,21 L33,9 L27,9 C26.447,9 26,8.552 26,8 L26,2 L2,2 L2,42 L33,42 L33,40 Z M12,13 C11.744,13 11.488,12.902 11.293,12.707 L8.293,9.707 L9.707,8.293 L12,10.586 L17.293,5.293 L18.707,6.707 L12.707,12.707 C12.512,12.902 12.256,13 12,13 L12,13 Z" id="Fill-5"></path>
        </g>
    </g>
</svg>