<svg width="64" height="64" viewBox="0 0 64 64" fill="none" xmlns="http://www.w3.org/2000/svg">
<g id="Icon-Architecture/48/Arch_AWS-Security-Incident-Response_48">
<g id="Icon-Architecture-BG/48/Security-Identity-Compliance">
<rect id="Rectangle" width="64" height="64" fill="#DD344C"/>
</g>
<g id="Icon-Service/48/AWS-Security-Incident-Response_48">
<path id="Vector" d="M16.209 40.9297L14.457 41.8965C10.043 33.896 11.6318 23.5532 18.2354 17.3032C24.2324 11.6289 33.0811 10.4961 40.5684 14.1909L39.332 10.873L41.207 10.1748L43.415 16.1011C43.5166 16.375 43.4941 16.6802 43.3516 16.9355C43.21 17.1914 42.9629 17.3721 42.6768 17.4302L36.7158 18.6392L36.3174 16.6792L39.7002 15.9932C32.9551 12.6572 24.9941 13.6616 19.6104 18.7563C13.6572 24.3896 12.2266 33.7148 16.209 40.9297ZM49.5596 21.7544L47.8076 22.7202C51.8037 29.9629 50.374 39.3174 44.4082 44.9624C38.9541 50.1235 29.8379 51.0688 22.8477 47.4419L26.8154 45.9634L26.1162 44.0893L20.1894 46.2978C19.6729 46.4907 19.4092 47.0664 19.6016 47.584L21.8096 53.5102L23.6846 52.812L22.4443 49.4839C30.1572 53.2549 39.7598 52.1138 45.7832 46.4155C52.3994 40.1538 53.9873 29.7822 49.5596 21.7544ZM41.3857 22.8086C41.7588 22.9634 42.002 23.3276 42.002 23.7319V34.3613C42.002 38.039 39.9121 44.9936 32.002 44.9936C24.0918 44.9936 22.002 38.0205 22.002 34.333V23.7319C22.002 23.3276 22.2451 22.9634 22.6182 22.8086L31.6182 19.0703C31.8642 18.9678 32.1396 18.9678 32.3857 19.0703L41.3857 22.8086ZM40.002 24.3994L32.002 21.0766L24.002 24.3994V34.333C24.0029 34.6845 24.126 42.9936 32.002 42.9936C39.8779 42.9936 40.001 34.7119 40.002 34.3593V24.3994ZM32.3857 23.4018L37.3857 25.4785C37.7588 25.6333 38.002 25.9975 38.002 26.4018V34.3613C37.9287 38.521 35.6865 40.9936 32.002 40.9936C27.5732 40.9936 26.002 37.4057 26.002 34.333V26.4018C26.002 25.9975 26.2451 25.6333 26.6182 25.4785L31.6182 23.4018C31.8642 23.2993 32.1396 23.2993 32.3857 23.4018ZM31.002 38.8853V25.8235L28.002 27.0693V34.333C28.002 35.3175 28.2444 38.3002 31.002 38.8853ZM36.002 27.0693L33.002 25.8235V38.897C35.3911 38.4233 35.9691 36.2252 36.002 34.3437V27.0693Z" fill="white"/>
</g>
</g>
</svg>
