<?xml version="1.0" encoding="UTF-8"?>
<svg width="64px" height="64px" viewBox="0 0 64 64" version="1.1" xmlns="http://www.w3.org/2000/svg" xmlns:xlink="http://www.w3.org/1999/xlink">
    <title>Icon-Architecture/48/Arch_AWS-WAF_48</title>
    <g id="Icon-Architecture/48/Arch_AWS-WAF_48" stroke="none" stroke-width="1" fill="none" fill-rule="evenodd">
        <g id="Icon-Architecture-BG/48/Security-Identity-Compliance" fill="#DD344C">
            <rect id="Rectangle" x="0" y="0" width="64" height="64"></rect>
        </g>
        <g id="Icon-Service/48/AWS-WAF_48" transform="translate(9.999700, 10.000000)" fill="#FFFFFF">
            <path d="M16.929,30.397 C17.816,31.015 18.833,31.581 19.969,32.089 C19.492,29.713 19.175,25.602 21.312,21.671 C22.905,18.743 23.168,15.417 22,12.99 C21.548,12.05 20.9,11.28 20.078,10.698 C20.84,12.457 21.268,14.997 20.116,18.27 C19.984,18.644 19.645,18.904 19.249,18.935 C18.866,18.967 18.48,18.76 18.291,18.412 C17.96,17.796 17.049,16.408 16.008,15.579 C16.416,17.455 16.675,20.262 15.335,22.367 C15.263,22.48 15.197,22.59 15.134,22.701 C13.664,25.29 14.452,28.671 16.929,30.397 L16.929,30.397 Z M24.471,14.155 C25.036,16.804 24.563,19.88 23.07,22.626 C20.905,26.607 21.707,30.945 22.161,32.651 C24.117,32.322 29.063,31.094 30.119,27.002 C31.133,23.076 30.52,20.803 29.81,19.578 C29.101,22.122 27.802,23.193 27.735,23.247 C27.411,23.506 26.963,23.539 26.606,23.333 C26.248,23.125 26.056,22.718 26.121,22.309 C26.727,18.541 25.761,15.919 24.471,14.155 L24.471,14.155 Z M13.65,21.29 C15.259,18.763 13.576,14.325 13.559,14.28 C13.441,13.973 13.481,13.626 13.667,13.354 C13.854,13.082 14.161,12.919 14.491,12.919 C16.242,12.919 17.739,14.274 18.741,15.512 C19.27,11.523 16.864,9.428 16.744,9.328 C16.4,9.036 16.291,8.546 16.484,8.137 C16.676,7.728 17.114,7.491 17.561,7.576 C19.035,7.837 20.334,8.398 21.411,9.209 C22.366,9.636 27.137,12.048 28.125,17.909 C28.153,17.733 28.176,17.549 28.197,17.359 C28.231,17.026 28.43,16.732 28.727,16.577 C29.025,16.421 29.379,16.425 29.671,16.585 C29.858,16.688 34.204,19.18 32.055,27.502 C30.38,33.99 21.875,34.729 21.514,34.757 L21.513,34.747 C21.491,34.749 21.472,34.76 21.45,34.76 C21.338,34.76 21.224,34.741 21.115,34.701 C19.061,33.967 17.268,33.071 15.785,32.038 C12.471,29.728 11.421,25.191 13.395,21.711 C13.476,21.57 13.56,21.43 13.65,21.29 L13.65,21.29 Z M5.49,33.95 L7.111,32.777 C5.03,29.902 3.86,26.538 3.676,23 L6,23 L6,21 L3.679,21 C3.871,17.483 5.04,14.14 7.111,11.281 L5.49,10.108 C3.172,13.311 1.873,17.059 1.679,21 L0,21 L0,23 L1.676,23 C1.862,26.962 3.16,30.731 5.49,33.95 L5.49,33.95 Z M32.747,36.918 C29.88,38.993 26.528,40.162 23,40.351 L23,38 L21,38 L21,40.351 C17.472,40.163 14.118,38.994 11.25,36.918 L10.078,38.539 C13.289,40.862 17.049,42.161 21,42.351 L21,44 L23,44 L23,42.351 C26.951,42.16 30.709,40.862 33.919,38.539 L32.747,36.918 Z M11.25,7.14 C14.118,5.064 17.472,3.896 21,3.708 L21,6 L23,6 L23,3.708 C26.528,3.896 29.88,5.065 32.747,7.14 L33.919,5.52 C30.709,3.196 26.951,1.897 23,1.708 L23,0 L21,0 L21,1.708 C17.048,1.897 13.289,3.196 10.078,5.52 L11.25,7.14 Z M42.32,21 C42.125,17.059 40.826,13.311 38.509,10.108 L36.888,11.281 C38.958,14.14 40.127,17.483 40.32,21 L38,21 L38,23 L40.323,23 C40.139,26.538 38.969,29.902 36.888,32.777 L38.509,33.95 C40.838,30.731 42.137,26.962 42.323,23 L44,23 L44,21 L42.32,21 Z M35.027,10.416 L41.186,4.256 L39.772,2.842 L33.613,9.002 L35.027,10.416 Z M8.972,33.642 L2.812,39.802 L4.226,41.216 L10.386,35.056 L8.972,33.642 Z M12.414,11.001 L1.586,0.173 L0.172,1.587 L11,12.415 L12.414,11.001 Z M33,31.586 L43.826,42.413 L42.412,43.827 L31.586,33 L33,31.586 Z" id="AWS-WAF_Icon_48_Squid"></path>
        </g>
    </g>
</svg>