<?xml version="1.0" encoding="UTF-8"?>
<svg width="64px" height="64px" viewBox="0 0 64 64" version="1.1" xmlns="http://www.w3.org/2000/svg" xmlns:xlink="http://www.w3.org/1999/xlink">
    <title>Icon-Architecture/48/Arch_Amazon-Security-Lake_48</title>
    <g id="Icon-Architecture/48/Arch_Amazon-Security-Lake_48" stroke="none" stroke-width="1" fill="none" fill-rule="evenodd">
        <g id="Icon-Architecture-BG/48/Security-Identity-Compliance" fill="#DD344C">
            <rect id="Rectangle" x="0" y="0" width="64" height="64"></rect>
        </g>
        <path d="M25,31.61025 L25,16.28725 L32,18.78725 L32,27.61025 L34,27.61025 L34,18.08325 C34,17.66025 33.734,17.28325 33.336,17.14125 L24.336,13.92625 C24.119,13.84925 23.881,13.84925 23.664,13.92625 L14.664,17.14125 C14.266,17.28325 14,17.66025 14,18.08325 L14,32.22625 C14,34.55225 16.37,40.94025 24,40.94025 L24,38.94025 C17.391,38.94025 16,33.33025 16,32.22625 L16,18.78725 L23,16.28725 L23,31.61025 L25,31.61025 Z M50.542,47.96425 L48.542,47.96425 C48.542,49.91725 46.954,51.50525 45.002,51.50525 C43.05,51.50525 41.461,49.91725 41.461,47.96425 L39.461,47.96425 C39.461,49.91725 37.872,51.50525 35.92,51.50525 C33.968,51.50525 32.38,49.91725 32.38,47.96425 L30.38,47.96425 C30.38,49.91725 28.791,51.50525 26.839,51.50525 L26.839,53.50525 C28.715,53.50525 30.377,52.56825 31.38,51.13625 C32.383,52.56825 34.044,53.50525 35.92,53.50525 C37.797,53.50525 39.458,52.56825 40.461,51.13625 C41.464,52.56825 43.125,53.50525 45.002,53.50525 C46.878,53.50525 48.539,52.56825 49.542,51.13625 C50.545,52.56825 52.207,53.50525 54.083,53.50525 L54.083,51.50525 C52.131,51.50525 50.542,49.91725 50.542,47.96425 L50.542,47.96425 Z M50.542,39.56825 L48.542,39.56825 C48.542,41.52025 46.954,43.10925 45.002,43.10925 C43.05,43.10925 41.461,41.52025 41.461,39.56825 L39.461,39.56825 C39.461,41.52025 37.872,43.10925 35.92,43.10925 C33.968,43.10925 32.38,41.52025 32.38,39.56825 L30.38,39.56825 C30.38,41.52025 28.791,43.10925 26.839,43.10925 L26.839,45.10925 C28.715,45.10925 30.377,44.17125 31.38,42.74025 C32.383,44.17125 34.044,45.10925 35.92,45.10925 C37.797,45.10925 39.458,44.17125 40.461,42.73925 C41.464,44.17125 43.125,45.10925 45.002,45.10925 C46.878,45.10925 48.539,44.17125 49.542,42.74025 C50.545,44.17125 52.207,45.10925 54.083,45.10925 L54.083,43.10925 C52.131,43.10925 50.542,41.52025 50.542,39.56825 L50.542,39.56825 Z M50.542,30.69925 L48.542,30.69925 C48.542,32.65125 46.954,34.23925 45.002,34.23925 C43.05,34.23925 41.461,32.65125 41.461,30.69925 L39.461,30.69925 C39.461,32.65125 37.872,34.23925 35.92,34.23925 C33.968,34.23925 32.38,32.65125 32.38,30.69925 L30.38,30.69925 C30.38,32.65125 28.791,34.23925 26.839,34.23925 L26.839,36.23925 C28.715,36.23925 30.377,35.30225 31.38,33.87125 C32.383,35.30225 34.044,36.23925 35.92,36.23925 C37.797,36.23925 39.458,35.30225 40.461,33.87125 C41.464,35.30225 43.125,36.23925 45.002,36.23925 C46.878,36.23925 48.539,35.30225 49.542,33.87125 C50.545,35.30225 52.207,36.23925 54.083,36.23925 L54.083,34.23925 C52.131,34.23925 50.542,32.65125 50.542,30.69925 L50.542,30.69925 Z M24,42.80925 L24,44.80925 C12.926,44.80925 10,35.65125 10,30.80925 L10,15.95225 C10,15.53725 10.256,15.16525 10.644,15.01725 L23.644,10.06525 C23.874,9.97825 24.126,9.97825 24.356,10.06525 L37.356,15.01725 C37.744,15.16525 38,15.53725 38,15.95225 L38,27.61025 L36,27.61025 L36,16.64125 L24,12.06925 L12,16.64125 L12,30.80925 C12,31.29825 12.137,42.80925 24,42.80925 L24,42.80925 Z" id="Fill-6" fill="#FFFFFF"></path>
    </g>
</svg>