<?xml version="1.0" encoding="UTF-8"?>
<svg width="64px" height="64px" viewBox="0 0 64 64" version="1.1" xmlns="http://www.w3.org/2000/svg" xmlns:xlink="http://www.w3.org/1999/xlink">
    <title>Icon-Architecture/48/Arch_AWS-Private-Certificate-Authority_48</title>
    <g id="Icon-Architecture/48/Arch_AWS-Private-Certificate-Authority_48" stroke="none" stroke-width="1" fill="none" fill-rule="evenodd">
        <g id="Icon-Architecture-BG/48/Security-Identity-Compliance" fill="#DD344C">
            <rect id="Rectangle" x="0" y="0" width="64" height="64"></rect>
        </g>
        <path d="M53,14 L52,14 L52,52 L48,52 L48,54 L53,54 C53.553,54 54,53.552 54,53 L54,15 C54,14.448 53.553,14 53,14 L53,14 Z M14,53 C14,53.552 14.447,54 15,54 L42,54 L42,52 L14,52 L14,53 Z M28.5,32.5 C28.756,32.5 29.012,32.402 29.207,32.207 L35.207,26.207 L33.793,24.793 L28.5,30.086 L26.207,27.793 L24.793,29.207 L27.793,32.207 C27.988,32.402 28.244,32.5 28.5,32.5 L28.5,32.5 Z M21.5,28.5 C21.5,33.187 25.313,37 30,37 C34.687,37 38.5,33.187 38.5,28.5 C38.5,23.813 34.687,20 30,20 C25.313,20 21.5,23.813 21.5,28.5 L21.5,28.5 Z M19.5,28.5 C19.5,22.71 24.21,18 30,18 C35.79,18 40.5,22.71 40.5,28.5 C40.5,34.29 35.79,39 30,39 C24.21,39 19.5,34.29 19.5,28.5 L19.5,28.5 Z M12,14 L48,14 L48,12 L12,12 L12,14 Z M48,48 L48,16 L12,16 L12,48 L38,48 L38,50 L11,50 C10.447,50 10,49.552 10,49 L10,11 C10,10.448 10.447,10 11,10 L49,10 C49.553,10 50,10.448 50,11 L50,49 C50,49.552 49.553,50 49,50 L44,50 L44,48 L48,48 Z M22,45 L22,39 L24,39 L24,43.483 L29.606,41.081 C29.856,40.973 30.144,40.973 30.394,41.081 L36,43.483 L36,39 L38,39 L38,45 C38,45.336 37.831,45.65 37.551,45.835 C37.385,45.944 37.192,46 37,46 C36.866,46 36.732,45.973 36.606,45.919 L30,43.088 L23.394,45.919 C23.087,46.052 22.731,46.021 22.449,45.835 C22.169,45.65 22,45.336 22,45 L22,45 Z" id="Fill-6" fill="#FFFFFF"></path>
    </g>
</svg>