<?xml version="1.0" encoding="UTF-8"?>
<svg width="64px" height="64px" viewBox="0 0 64 64" version="1.1" xmlns="http://www.w3.org/2000/svg" xmlns:xlink="http://www.w3.org/1999/xlink">
    <title>Icon-Architecture/48/Arch_AWS-Network-Firewall_48</title>
    <g id="Icon-Architecture/48/Arch_AWS-Network-Firewall_48" stroke="none" stroke-width="1" fill="none" fill-rule="evenodd">
        <g id="Icon-Architecture-BG/48/Security-Identity-Compliance" fill="#DD344C">
            <rect id="Rectangle" x="0" y="0" width="64" height="64"></rect>
        </g>
        <g id="Icon-Service/48/AWS-Network-Firewall_48" transform="translate(10.000000, 10.000000)" fill="#FFFFFF">
            <path d="M42,35.9929544 L35,35.9929544 L33,35.9929544 L33,31.9929544 L40,31.9929544 L42,31.9929544 L42,35.9929544 Z M34,41.9929544 L25.019,41.9929544 L25.093,37.9929544 L32,37.9929544 L34,37.9929544 L34,41.9929544 Z M17.793,40.2039544 C14.626,40.2039544 11.72,38.6069544 10.019,35.9319544 C8.673,33.8169544 8.649,31.0839544 9.998,28.7319544 C11.527,26.4099544 11.163,23.2829544 10.687,21.2889544 C11.951,22.1599544 13.074,23.8019544 13.467,24.5059544 C13.657,24.8479544 14.028,25.0409544 14.42,25.0159544 C14.811,24.9849544 15.146,24.7299544 15.28,24.3619544 C16.678,20.5229544 15.969,17.6349544 14.983,15.7609544 C18.184,16.9819544 23,19.9529544 23,26.7709544 C23,27.0429544 23.111,27.3049544 23.309,27.4929544 C23.505,27.6819544 23.764,27.7719544 24.043,27.7699544 C24.823,27.7359544 26.097,27.2439544 27,25.8699544 L27,29.9929544 L21,29.9929544 C20.447,29.9929544 20,30.4409544 20,30.9929544 L20,36.9929544 C20,37.5449544 20.447,37.9929544 21,37.9929544 L23.093,37.9929544 L23.08,38.6479544 C21.777,39.6429544 19.896,40.2039544 17.793,40.2039544 L17.793,40.2039544 Z M5.209,26.4849544 C3.745,25.5149544 2,23.6689544 2,20.3829544 C2,15.9009544 5.118,14.4309544 6.977,13.9529544 C7.439,13.8339544 7.754,13.4039544 7.726,12.9259544 L7.65,11.6649544 C7.65,8.05595442 10.134,4.17495442 13.303,2.82895442 C18.79,0.495954424 22.682,3.56295442 24.102,4.98995442 C25.26,6.15495442 26.163,7.64495442 26.787,9.41795442 C26.91,9.76695442 27.217,10.0199544 27.583,10.0749544 C27.943,10.1289544 28.316,9.97695442 28.535,9.67895442 C29.439,8.45195442 30.993,7.93695442 32.407,8.40195442 C34.011,8.92895442 34.931,10.5189544 34.929,12.7019544 C34.849,13.2399544 35.212,13.7429544 35.748,13.8359544 C39.955,14.5609544 42,16.5749544 42,19.9929544 C42,21.8099544 41.58,23.2409544 40.739,24.3329544 C40.557,24.1279544 40.297,23.9929544 40,23.9929544 L29.104,23.9929544 C28.803,22.8109544 27.96,22.1089544 27.414,21.8609544 C27.121,21.7269544 26.781,21.7429544 26.503,21.9029544 C26.225,22.0619544 26.039,22.3469544 26.006,22.6659544 C25.855,24.0979544 25.385,24.8699544 24.931,25.2869544 C23.941,14.8749544 12.636,13.0219544 12.517,13.0039544 C12.077,12.9389544 11.638,13.1749544 11.453,13.5879544 C11.271,13.9999544 11.388,14.4849544 11.737,14.7699544 C11.872,14.8809544 14.651,17.2159544 13.936,21.6559544 C12.845,20.2989544 11.148,18.7219544 9.163,18.7219544 C8.831,18.7219544 8.521,18.8879544 8.335,19.1619544 C8.149,19.4369544 8.111,19.7859544 8.234,20.0949544 C8.252,20.1389544 9.848,24.2169544 8.661,26.9929544 L6.938,26.9929544 C6.308,26.9929544 5.71,26.8169544 5.209,26.4849544 L5.209,26.4849544 Z M32,29.9929544 L29,29.9929544 L29,25.9929544 L39,25.9929544 L39,29.9929544 L32,29.9929544 Z M22,35.9929544 L22,31.9929544 L28,31.9929544 L31,31.9929544 L31,35.9929544 L24.111,35.9929544 L22,35.9929544 Z M43,29.9929544 L41,29.9929544 L41,26.8719544 C42.983,25.3329544 44,23.0279544 44,19.9929544 C44,17.0389544 42.742,13.3259544 36.902,12.0249544 C36.688,9.27795442 35.275,7.23995442 33.031,6.50195442 C31.327,5.94195442 29.493,6.27595442 28.091,7.31995442 C27.419,5.87895442 26.558,4.62495442 25.52,3.57995442 C21.969,0.0079544242 17.109,-0.960045576 12.521,0.987954424 C8.605,2.65195442 5.65,7.24195442 5.652,11.7239544 L5.684,12.2569544 C3.514,13.0109544 0,15.0559544 0,20.3829544 C0,24.7769544 2.571,27.1369544 4.104,28.1519544 C4.933,28.7019544 5.913,28.9929544 6.938,28.9929544 L7.654,28.9929544 C6.589,31.6529544 6.815,34.6229544 8.331,37.0059544 C10.401,40.2609544 13.938,42.2039544 17.793,42.2039544 C19.741,42.2039544 21.549,41.7789544 23.036,41.0149544 L23,42.9739544 C22.995,43.2429544 23.099,43.5019544 23.286,43.6939544 C23.475,43.8849544 23.731,43.9929544 24,43.9929544 L35,43.9929544 C35.553,43.9929544 36,43.5449544 36,42.9929544 L36,37.9929544 L43,37.9929544 C43.553,37.9929544 44,37.5449544 44,36.9929544 L44,30.9929544 C44,30.4409544 43.553,29.9929544 43,29.9929544 L43,29.9929544 Z" id="Fill-3"></path>
        </g>
    </g>
</svg>