<?xml version="1.0" encoding="UTF-8"?>
<svg width="64px" height="64px" viewBox="0 0 64 64" version="1.1" xmlns="http://www.w3.org/2000/svg" xmlns:xlink="http://www.w3.org/1999/xlink">
    <title>Icon-Architecture/48/Arch_Amazon-Cloud-Directory_48</title>
    <g id="Icon-Architecture/48/Arch_Amazon-Cloud-Directory_48" stroke="none" stroke-width="1" fill="none" fill-rule="evenodd">
        <g id="Icon-Architecture-BG/48/Security-Identity-Compliance" fill="#DD344C">
            <rect id="Rectangle" x="0" y="0" width="64" height="64"></rect>
        </g>
        <g id="Icon-Service/48/Amazon-Cloud-Directory_48" transform="translate(17.000000, 10.000000)" fill="#FFFFFF">
            <path d="M23,36 C22.173,36 21.5,35.327 21.5,34.5 C21.5,33.673 22.173,33 23,33 C23.827,33 24.5,33.673 24.5,34.5 C24.5,35.327 23.827,36 23,36 M16.5,34.5 C16.5,35.327 15.827,36 15,36 C14.173,36 13.5,35.327 13.5,34.5 C13.5,33.673 14.173,33 15,33 C15.827,33 16.5,33.673 16.5,34.5 M8.5,34.5 C8.5,35.327 7.827,36 7,36 C6.173,36 5.5,35.327 5.5,34.5 C5.5,33.673 6.173,33 7,33 C7.827,33 8.5,33.673 8.5,34.5 M12,19 C12,17.346 13.346,16 15,16 C16.654,16 18,17.346 18,19 C18,20.654 16.654,22 15,22 C13.346,22 12,20.654 12,19 M24,31.163 L24,27 C24,26.448 23.553,26 23,26 L16,26 L16,23.899 C18.279,23.434 20,21.415 20,19 C20,16.243 17.757,14 15,14 C12.243,14 10,16.243 10,19 C10,21.415 11.721,23.434 14,23.899 L14,26 L7,26 C6.447,26 6,26.448 6,27 L6,31.163 C4.56,31.597 3.5,32.92 3.5,34.5 C3.5,36.43 5.07,38 7,38 C8.93,38 10.5,36.43 10.5,34.5 C10.5,32.92 9.44,31.597 8,31.163 L8,28 L14,28 L14,31.163 C12.56,31.597 11.5,32.92 11.5,34.5 C11.5,36.43 13.07,38 15,38 C16.93,38 18.5,36.43 18.5,34.5 C18.5,32.92 17.44,31.597 16,31.163 L16,28 L22,28 L22,31.163 C20.56,31.597 19.5,32.92 19.5,34.5 C19.5,36.43 21.07,38 23,38 C24.93,38 26.5,36.43 26.5,34.5 C26.5,32.92 25.44,31.597 24,31.163 M15,41.234 C6.862,41.234 2,39.37 2,37.568 L2,9.107 C4.768,11.002 9.991,12 15,12 C20.009,12 25.232,11.002 28,9.107 L28,37.568 C28,39.37 23.138,41.234 15,41.234 M15,2 C22.936,2 28,4.369 28,6 C28,7.631 22.936,10 15,10 C7.064,10 2,7.631 2,6 C2,4.369 7.064,2 15,2 M15,0 C7.729,0 0,2.103 0,6 L0,37.568 C0,41.746 7.749,43.234 15,43.234 C22.251,43.234 30,41.746 30,37.568 L30,6 C30,2.103 22.271,0 15,0" id="Amazon-Cloud-Directory_Icon_48_Squid"></path>
        </g>
    </g>
</svg>