<?xml version="1.0" encoding="UTF-8"?>
<svg width="64px" height="64px" viewBox="0 0 64 64" version="1.1" xmlns="http://www.w3.org/2000/svg" xmlns:xlink="http://www.w3.org/1999/xlink">
    <title>Icon-Architecture/48/Arch_AWS-Payment-Cryptography_48</title>
    <g id="Icon-Architecture/48/Arch_AWS-Payment-Cryptography_48" stroke="none" stroke-width="1" fill="none" fill-rule="evenodd">
        <g id="Icon-Architecture-BG/48/Security-Identity-Compliance" fill="#DD344C">
            <rect id="Rectangle" x="0" y="0" width="64" height="64"></rect>
        </g>
        <g id="Icon-Service/48/AWS-Payment-Cryptography_48" transform="translate(10.000000, 10.000000)" fill="#FFFFFF">
            <path d="M7,29.9996266 L12,29.9996266 L12,26.9996266 L7,26.9996266 L7,29.9996266 Z M13,31.9996266 L6,31.9996266 C5.447,31.9996266 5,31.5516266 5,30.9996266 L5,25.9996266 C5,25.4476266 5.447,24.9996266 6,24.9996266 L13,24.9996266 C13.553,24.9996266 14,25.4476266 14,25.9996266 L14,30.9996266 C14,31.5516266 13.553,31.9996266 13,31.9996266 L13,31.9996266 Z M29,37.9996266 L35,37.9996266 L35,35.9996266 L29,35.9996266 L29,37.9996266 Z M21,37.9996266 L27,37.9996266 L27,35.9996266 L21,35.9996266 L21,37.9996266 Z M13,37.9996266 L19,37.9996266 L19,35.9996266 L13,35.9996266 L13,37.9996266 Z M5,37.9996266 L11,37.9996266 L11,35.9996266 L5,35.9996266 L5,37.9996266 Z M41,38.9996266 L41,28.9996266 L39,28.9996266 L39,38.9996266 C39,40.6536266 37.654,41.9996266 36,41.9996266 L5,41.9996266 C3.346,41.9996266 2,40.6536266 2,38.9996266 L2,21.9996266 C2,20.3456266 3.346,18.9996266 5,18.9996266 L19,18.9996266 L19,16.9996266 L5,16.9996266 C2.243,16.9996266 3.55271368e-15,19.2426266 3.55271368e-15,21.9996266 L3.55271368e-15,38.9996266 C3.55271368e-15,41.7566266 2.243,43.9996266 5,43.9996266 L36,43.9996266 C38.757,43.9996266 41,41.7566266 41,38.9996266 L41,38.9996266 Z M25.346,7.22862655 C25.331,7.22862655 25.315,7.22862655 25.3,7.22962655 C25.027,7.24162655 24.775,7.35862655 24.592,7.56062655 C24.406,7.76262655 24.312,8.02262655 24.323,8.29562655 C24.335,8.56862655 24.453,8.81962655 24.654,9.00462655 C24.856,9.18962655 25.111,9.28962655 25.39,9.27162655 C25.662,9.26062655 25.914,9.14262655 26.098,8.94162655 C26.283,8.73962655 26.378,8.47862655 26.366,8.20562655 C26.354,7.93262655 26.236,7.68162655 26.035,7.49662655 C25.846,7.32262655 25.602,7.22862655 25.346,7.22862655 L25.346,7.22862655 Z M25.342,11.2736266 C24.585,11.2736266 23.865,10.9946266 23.304,10.4796266 C22.709,9.93562655 22.361,9.19062655 22.325,8.38362655 C22.29,7.57762655 22.57,6.80562655 23.116,6.20962655 C23.661,5.61462655 24.405,5.26662655 25.212,5.23162655 C26.039,5.19562655 26.791,5.47762655 27.386,6.02162655 L27.387,6.02162655 C27.981,6.56662655 28.329,7.31162655 28.364,8.11762655 C28.399,8.92462655 28.119,9.69662655 27.573,10.2916266 C27.028,10.8876266 26.284,11.2346266 25.478,11.2706266 C25.433,11.2716266 25.387,11.2736266 25.342,11.2736266 L25.342,11.2736266 Z M39.746,24.3886266 L41.947,24.7286266 L41.825,21.9536266 L31.169,12.1966266 C30.842,11.8976266 30.751,11.4196266 30.944,11.0216266 C32.147,8.54262655 31.567,5.51062655 29.533,3.64762655 C28.158,2.38962655 26.311,1.80862655 24.46,2.05462655 C22.585,2.30362655 20.983,3.33862655 19.95,4.96762655 C18.565,7.15062655 18.72,10.0976266 20.326,12.1326266 C22.094,14.3716266 25.045,15.1616266 27.66,14.0986266 C28.017,13.9526266 28.428,14.0256266 28.712,14.2876266 L30.764,16.1646266 C30.96,16.3436266 31.076,16.5936266 31.088,16.8586266 L31.173,18.7986266 L33.113,18.7126266 C33.38,18.7066266 33.637,18.7956266 33.833,18.9746266 L35.367,20.3796266 C35.563,20.5586266 35.679,20.8076266 35.69,21.0726266 L35.775,23.0126266 L37.716,22.9266266 C37.985,22.9256266 38.239,23.0096266 38.436,23.1886266 L39.746,24.3886266 Z M43,26.9036266 C42.949,26.9036266 42.898,26.8996266 42.848,26.8916266 L39.142,26.3186266 C38.946,26.2886266 38.765,26.2016266 38.618,26.0676266 L37.39,24.9426266 L34.864,25.0546266 C34.602,25.0696266 34.341,24.9726266 34.145,24.7926266 C33.949,24.6146266 33.833,24.3646266 33.821,24.0996266 L33.711,21.5746266 L32.787,20.7286266 L30.262,20.8406266 C29.992,20.8486266 29.738,20.7586266 29.542,20.5786266 C29.347,20.3996266 29.23,20.1496266 29.219,19.8856266 L29.108,17.3606266 L27.809,16.1706266 C24.517,17.2266266 20.947,16.1456266 18.756,13.3716266 C16.6,10.6386266 16.4,6.83162655 18.261,3.89562655 C19.597,1.78962655 21.76,0.395626555 24.196,0.0726265549 C26.635,-0.250373445 29.072,0.513626555 30.883,2.17262655 C33.378,4.45662655 34.214,8.07462655 33.042,11.1996266 L43.481,20.7576266 C43.677,20.9366266 43.793,21.1866266 43.805,21.4516266 L43.999,25.8596266 C44.013,26.1586266 43.891,26.4486266 43.667,26.6476266 C43.482,26.8136266 43.244,26.9036266 43,26.9036266 L43,26.9036266 Z" id="Fill-3"></path>
        </g>
    </g>
</svg>