<?xml version="1.0" encoding="UTF-8"?>
<svg width="64px" height="64px" viewBox="0 0 64 64" version="1.1" xmlns="http://www.w3.org/2000/svg" xmlns:xlink="http://www.w3.org/1999/xlink">
    <title>Icon-Architecture/48/Arch_Amazon-Verified-Permissions_48</title>
    <g id="Icon-Architecture/48/Arch_Amazon-Verified-Permissions_48" stroke="none" stroke-width="1" fill="none" fill-rule="evenodd">
        <g id="Icon-Architecture-BG/48/Security-Identity-Compliance" fill="#DD344C">
            <rect id="Rectangle" x="0" y="0" width="64" height="64"></rect>
        </g>
        <path d="M38,37 L46,37 L46,39 L38,39 L38,42 L46,42 L46,44 L38,44 L38,47 L36,47 L36,34 L38,34 L38,37 Z M52,41.926 L50.982,41.868 C50.513,41.837 50.058,42.168 49.95,42.646 C49.708,43.719 49.288,44.735 48.7,45.666 C48.439,46.079 48.516,46.621 48.88,46.946 L49.64,47.624 L47.624,49.64 L46.949,48.884 C46.623,48.517 46.081,48.442 45.669,48.704 C44.737,49.292 43.721,49.714 42.646,49.957 C42.169,50.064 41.84,50.501 41.868,50.989 L41.926,52 L39.074,52 L39.132,50.988 C39.16,50.5 38.831,50.063 38.354,49.956 C37.282,49.713 36.266,49.292 35.333,48.702 C34.92,48.441 34.378,48.515 34.053,48.882 L33.376,49.64 L31.36,47.624 L32.118,46.948 C32.482,46.623 32.559,46.082 32.298,45.668 C31.71,44.736 31.289,43.719 31.048,42.646 C30.939,42.169 30.476,41.848 30.016,41.868 L29,41.926 L29,39.074 L30.02,39.132 C30.5,39.154 30.942,38.832 31.052,38.355 C31.294,37.286 31.715,36.271 32.305,35.339 C32.565,34.925 32.489,34.384 32.125,34.059 L31.36,33.376 L33.377,31.36 L34.058,32.124 C34.382,32.489 34.925,32.563 35.337,32.304 C36.267,31.717 37.281,31.297 38.354,31.055 C38.831,30.947 39.16,30.511 39.132,30.023 L39.074,29 L41.926,29 L41.868,30.024 C41.84,30.512 42.169,30.948 42.646,31.056 C43.715,31.298 44.729,31.719 45.661,32.306 C46.071,32.565 46.615,32.49 46.94,32.126 L47.623,31.36 L49.64,33.376 L48.877,34.057 C48.513,34.382 48.437,34.924 48.698,35.337 C49.285,36.266 49.707,37.281 49.949,38.354 C50.057,38.832 50.513,39.154 50.981,39.132 L52,39.074 L52,41.926 Z M53.687,37.289 C53.487,37.1 53.215,37 52.943,37.017 L51.682,37.089 C51.462,36.367 51.173,35.671 50.817,35.006 L51.762,34.164 C51.967,33.981 52.088,33.722 52.096,33.446 C52.104,33.171 51.997,32.905 51.803,32.711 L48.289,29.198 C48.095,29.003 47.819,28.895 47.554,28.905 C47.278,28.913 47.019,29.034 46.836,29.239 L45.991,30.186 C45.326,29.831 44.63,29.543 43.911,29.324 L43.982,28.057 C43.998,27.782 43.9,27.513 43.711,27.313 C43.522,27.113 43.26,27 42.984,27 L38.016,27 C37.74,27 37.478,27.113 37.289,27.313 C37.1,27.513 37.002,27.782 37.018,28.057 L37.089,29.322 C36.368,29.542 35.672,29.83 35.007,30.184 L34.164,29.239 C33.981,29.034 33.722,28.913 33.446,28.905 C33.169,28.897 32.906,29.003 32.711,29.198 L29.197,32.711 C29.003,32.905 28.896,33.171 28.904,33.446 C28.912,33.722 29.033,33.981 29.238,34.164 L30.185,35.008 C29.828,35.673 29.539,36.369 29.319,37.089 L28.057,37.017 C27.784,37 27.513,37.1 27.313,37.289 C27.113,37.478 27,37.741 27,38.016 L27,42.984 C27,43.259 27.113,43.522 27.313,43.711 C27.513,43.9 27.785,43.995 28.057,43.983 L29.314,43.911 C29.533,44.633 29.822,45.331 30.178,45.998 L29.238,46.836 C29.033,47.02 28.912,47.279 28.904,47.554 C28.896,47.829 29.003,48.095 29.197,48.29 L32.711,51.803 C32.906,51.998 33.166,52.11 33.446,52.095 C33.722,52.087 33.981,51.967 34.164,51.761 L35.002,50.822 C35.669,51.179 36.367,51.468 37.089,51.688 L37.018,52.943 C37.002,53.218 37.1,53.487 37.289,53.687 C37.478,53.887 37.74,54 38.016,54 L42.984,54 C43.26,54 43.522,53.887 43.711,53.687 C43.9,53.487 43.998,53.218 43.982,52.943 L43.911,51.689 C44.635,51.47 45.333,51.18 46,50.824 L46.836,51.761 C47.019,51.967 47.278,52.087 47.554,52.095 C47.822,52.113 48.095,51.998 48.289,51.803 L51.803,48.29 C51.997,48.095 52.104,47.829 52.096,47.554 C52.088,47.279 51.967,47.02 51.762,46.836 L50.82,45.997 C51.176,45.331 51.464,44.633 51.684,43.911 L52.943,43.983 C53.214,43.994 53.487,43.9 53.687,43.711 C53.887,43.522 54,43.259 54,42.984 L54,38.016 C54,37.741 53.887,37.478 53.687,37.289 L53.687,37.289 Z M25.256,28.724 L19.365,34.614 C19.178,34.802 18.924,34.907 18.658,34.907 C18.393,34.907 18.139,34.802 17.951,34.614 L15.007,31.669 L16.421,30.255 L18.658,32.493 L23.842,27.31 L25.256,28.724 Z M25.256,17.487 L19.365,23.377 C19.178,23.565 18.924,23.67 18.658,23.67 C18.393,23.67 18.139,23.565 17.951,23.377 L15.007,20.433 L16.421,19.019 L18.658,21.256 L23.842,16.073 L25.256,17.487 Z M23.783,41.322 L21.177,43.928 L23.783,46.535 L22.369,47.949 L19.763,45.343 L17.157,47.949 L15.743,46.535 L18.349,43.928 L15.743,41.322 L17.157,39.908 L19.763,42.514 L22.369,39.908 L23.783,41.322 Z M36,13.548 L39.847,17 L36,17 L36,13.548 Z M12,12 L34,12 L34,18 C34,18.552 34.447,19 35,19 L41,19 L41,25 L43,25 L43,17.588 C43,17.304 42.879,17.034 42.668,16.844 L35.326,10.256 C35.143,10.091 34.904,10 34.658,10 L11,10 C10.447,10 10,10.448 10,11 L10,53 C10,53.552 10.447,54 11,54 L30,54 L30,52 L12,52 L12,12 Z" id="Fill-3" fill="#FFFFFF"></path>
    </g>
</svg>