<?xml version="1.0" encoding="UTF-8"?>
<svg width="80px" height="80px" viewBox="0 0 80 80" version="1.1" xmlns="http://www.w3.org/2000/svg" xmlns:xlink="http://www.w3.org/1999/xlink">
    <title>Icon-Architecture/64/Arch_AWS-Distro-for-OpenTelemetry_64</title>
    <g id="Icon-Architecture/64/Arch_AWS-Distro-for-OpenTelemetry_64" stroke="none" stroke-width="1" fill="none" fill-rule="evenodd">
        <g id="Icon-Architecture-BG/64/Application-Integration" fill="#E7157B">
            <rect id="Rectangle" x="0" y="0" width="80" height="80"></rect>
        </g>
        <g id="Icon-Service/64/AWS-Distro-for-OpenTelemetry_64" transform="translate(12.000000, 16.000000)" fill="#FFFFFF">
            <path d="M54,2 L51,2 C48.373,2 48.042,3.678 48,4.061 L48,14 L46,14 L46,5 L39,5 L39,21 L47,21 C47.524,21 47.96,21.406 47.997,21.929 C48.03,22.265 48.333,24 51,24 L54,24 L54,2 Z M2,15 L16,15 L16,11 L2,11 L2,15 Z M56,1 L56,25 C56,25.552 55.553,26 55,26 L51,26 C48.014,26 46.669,24.354 46.201,23 L38,23 C37.447,23 37,22.552 37,22 L37,21 L34,21 L34,19 L37,19 L37,7 L19.801,7 C18.27,7 18,7.649 18,11 L18,15 C18,18.351 18.27,19 19.801,19 L25,19 L25,20.94 L19.801,20.94 C16.93,20.94 16.229,19.061 16.057,17 L2,17 L2,21 L0,21 L0,5 L2,5 L2,9 L16.057,9 C16.229,6.939 16.93,5.06 19.801,5.06 L37,5.06 L37,4 C37,3.448 37.447,3 38,3 L46.201,3 C46.669,1.646 48.014,0 51,0 L55,0 C55.553,0 56,0.448 56,1 L56,1 Z M43,35 L53,35 L53,37 L43.738,37 L40.313,48.139 C40.185,48.559 39.796,48.845 39.357,48.845 L39.353,48.845 C38.911,48.843 38.523,48.552 38.398,48.129 L29.261,17.29 L21.7,42.739 C21.58,43.142 21.222,43.427 20.803,43.453 C20.384,43.488 19.992,43.24 19.825,42.855 L15.491,32.93 L12.945,40.326 C12.807,40.729 12.427,41 12,41 L1,41 L1,39 L11.287,39 L14.436,29.853 C14.569,29.463 14.929,29.196 15.341,29.18 C15.77,29.168 16.132,29.401 16.297,29.778 L20.562,39.546 L28.303,13.489 C28.429,13.065 28.819,12.774 29.262,12.774 C29.705,12.774 30.095,13.065 30.221,13.49 L39.375,44.385 L42.044,35.706 C42.173,35.287 42.561,35 43,35 L43,35 Z" id="Fill-1"></path>
        </g>
    </g>
</svg>