<?xml version="1.0" encoding="UTF-8"?>
<svg width="80px" height="80px" viewBox="0 0 80 80" version="1.1" xmlns="http://www.w3.org/2000/svg" xmlns:xlink="http://www.w3.org/1999/xlink">
    <title>Icon-Architecture/64/Arch_AWS-Resource-Explorer_64</title>
    <g id="Icon-Architecture/64/Arch_AWS-Resource-Explorer_64" stroke="none" stroke-width="1" fill="none" fill-rule="evenodd">
        <g id="Icon-Architecture-BG/64/Management-Governance" fill="#E7157B">
            <rect id="Rectangle" x="0" y="0" width="80" height="80"></rect>
        </g>
        <path d="M47.459,33.027 L48.352,34.817 L45.769,36.105 L44.876,34.315 L47.459,33.027 Z M42.465,35.589 L43.297,37.408 L40,38.915 L40.002,40.999 L38.002,41 L38.001,39.126 L34.562,37.542 L35.397,35.726 L38.769,37.278 L42.465,35.589 Z M38,48 L40,48 L40,44 L38,44 L38,48 Z M38,55 L40,55 L40,51 L38,51 L38,55 Z M63.188,65.2 C62.476,65.913 61.379,66.354 60.664,65.641 L51.93,56.702 C52.963,55.9 53.89,54.973 54.691,53.939 L63.641,62.649 C64.33,63.338 63.935,64.454 63.188,65.2 L63.188,65.2 Z M40,65.337 L40,59.74 C40.807,59.87 41.629,59.956 42.472,59.956 C45.307,59.956 47.958,59.176 50.246,57.839 L51.575,59.199 L40,65.337 Z M16,27.683 L30.028,35.329 C28.134,37.896 27,41.056 27,44.484 C27,51.46 31.643,57.368 38,59.291 L38,65.321 L16,53.404 L16,27.683 Z M39.351,14.14 L60.866,26.221 L50.61,31.35 C48.242,29.877 45.459,29.012 42.472,29.012 C38.101,29.012 34.156,30.842 31.339,33.766 L17.107,26.009 L39.351,14.14 Z M42.472,57.956 C35.043,57.956 29,51.913 29,44.484 C29,37.055 35.043,31.012 42.472,31.012 C49.9,31.012 55.944,37.055 55.944,44.484 C55.944,51.913 49.9,57.956 42.472,57.956 L42.472,57.956 Z M58.947,55.29 L55.829,52.256 C57.165,49.969 57.944,47.318 57.944,44.484 C57.944,39.75 55.802,35.511 52.441,32.67 L62,27.891 L62,53.671 L58.947,55.29 Z M65.045,61.225 L60.452,56.755 L63.469,55.156 C63.796,54.983 64,54.643 64,54.273 L64,26.273 C64,25.911 63.805,25.578 63.489,25.401 L39.853,12.128 C39.556,11.961 39.194,11.957 38.893,12.117 L14.529,25.117 C14.203,25.291 14,25.631 14,26 L14,54 C14,54.367 14.201,54.704 14.523,54.879 L38.523,67.879 C38.672,67.96 38.836,68 39,68 C39.161,68 39.322,67.961 39.469,67.883 L53.032,60.69 L59.242,67.047 C59.886,67.691 60.697,68.007 61.548,68.007 C62.585,68.007 63.681,67.536 64.603,66.614 C66.265,64.953 66.46,62.64 65.045,61.225 L65.045,61.225 Z" id="Fill-1" fill="#FFFFFF"></path>
    </g>
</svg>