<svg width="80" height="80" viewBox="0 0 80 80" fill="none" xmlns="http://www.w3.org/2000/svg">
<g id="Icon-Architecture/64/Arch_AWS-Compute-Optimizer_64">
<g id="Icon-Architecture-BG/64/Application-Integration">
<rect id="Rectangle" width="80" height="80" fill="#E7157B"/>
</g>
<g id="Icon-Service/64/AWS-Compute-Optimizer_64">
<path id="AWS-Compute-Optimizer_64_Squid" fill-rule="evenodd" clip-rule="evenodd" d="M44 47.9149V45.8889C47.942 45.2439 51 41.8999 51 37.9999C51 34.1009 47.942 30.7569 44 30.1119V28.0859C49.043 28.7519 53 33.0159 53 37.9999C53 42.9849 49.043 47.2489 44 47.9149ZM32.051 65.8569L28.762 63.8339L33.641 59.7689L32.359 58.2319L26.965 62.7279L20 58.4419V50.5349L25.555 46.8319L24.445 45.1679L18.929 48.8459L14 46.3819V40.5469L19.541 36.9849L18.459 35.3019L14.001 38.1679V33.6189L19.033 31.1019L25 33.6599V38.5199L20.375 42.2199L21.625 43.7809L25.926 40.3399L28 42.4149V44.9999H30V41.9999C30 41.7349 29.895 41.4809 29.707 41.2929L27 38.5859V33.6189L32.447 30.8949C32.786 30.7259 33 30.3789 33 29.9999V23.9999H31V29.3819L25.968 31.8979L20 29.3409V21.2609L26 17.4039V23.9999H28V16.1189L31.088 14.1329L39.001 17.6499V37.9259L35.601 35.2179L34.354 36.7829L39.001 40.4819V44.4769L26.431 53.1779L27.569 54.8229L39.001 46.9089V62.3819L32.051 65.8569ZM40.407 16.0869L31.407 12.0869C31.1 11.9489 30.744 11.9769 30.46 12.1589L18.46 19.8729C18.174 20.0579 18.001 20.3739 18.001 20.7149L18 29.3819L12.554 32.1059C12.215 32.2749 12.001 32.6219 12.001 32.9999L12 46.9999C12 47.3789 12.214 47.7259 12.553 47.8949L18.001 50.6189L18 58.9999C18 59.3479 18.18 59.6699 18.476 59.8519L31.476 67.8519C31.636 67.9509 31.817 67.9999 32 67.9999C32.153 67.9999 32.306 67.9649 32.447 67.8949L40.448 63.8949C40.787 63.7259 41 63.3789 41 62.9999V16.9999C41 16.6049 40.769 16.2469 40.407 16.0869ZM45.973 14.9999H44V12.9999H47C47.27 12.9999 47.528 13.1089 47.717 13.3029C47.904 13.4959 48.007 13.7569 48 14.0269L47.907 17.4889C49.722 17.9699 51.457 18.6849 53.083 19.6209L55.182 17.2629C55.364 17.0579 55.624 16.9369 55.899 16.9289C56.163 16.9169 56.44 17.0259 56.635 17.2199L63.379 23.9499C63.574 24.1439 63.68 24.4099 63.673 24.6849C63.665 24.9599 63.544 25.2199 63.339 25.4029L60.988 27.5039C61.924 29.1189 62.642 30.8439 63.128 32.6499L65.937 32.4719C66.209 32.4569 66.482 32.5519 66.684 32.7409C66.886 32.9299 67 33.1929 67 33.4689V42.9959C67 43.2719 66.897 43.5359 66.696 43.7249C66.496 43.9139 66.223 44.0159 65.949 43.9949L63.15 43.8239C62.596 45.9049 61.733 47.8819 60.581 49.7099L58.89 48.6439C60.071 46.7679 60.917 44.7199 61.402 42.5559C61.51 42.0769 61.928 41.7459 62.439 41.7759L65.01 41.9339L65.001 34.5359L62.423 34.6989C61.937 34.7359 61.493 34.4019 61.385 33.9229C60.892 31.7589 60.042 29.7149 58.858 27.8469C58.597 27.4339 58.672 26.8919 59.037 26.5659L61.217 24.6179L55.972 19.3839L54.025 21.5699C53.7 21.9359 53.16 22.0129 52.745 21.7509C50.873 20.5719 48.828 19.7289 46.667 19.2439C46.2 19.1399 45.873 18.7199 45.886 18.2419L45.973 14.9999ZM63.256 63.9999H48.29C48.004 63.9999 47.791 63.9529 47.639 63.8569C46.938 63.4149 46.104 62.5629 46.104 61.0139C46.104 59.0889 47.327 58.3709 48.354 58.1079C48.816 57.9889 49.131 57.5579 49.103 57.0799L49.063 56.4479C49.063 54.7629 50.262 52.8829 51.734 52.2579C52.413 51.9699 53.039 51.8549 53.607 51.8549C55.225 51.8549 56.368 52.7849 56.867 53.2869C57.423 53.8459 57.859 54.5669 58.163 55.4299C58.287 55.7789 58.593 56.0309 58.959 56.0859C59.329 56.1409 59.692 55.9879 59.911 55.6899C60.264 55.2129 60.867 55.0129 61.407 55.1909C62.024 55.3939 62.384 56.0359 62.4 56.9569C62.342 57.4809 62.701 57.9639 63.225 58.0539C64.06 58.1979 66.001 58.7779 66.001 61.0479C66.001 63.6079 63.66 63.9589 63.256 63.9999ZM64.349 56.2689C64.103 54.5689 63.037 53.6209 62.031 53.2909C61.172 53.0079 60.258 53.0969 59.485 53.4939C59.151 52.8859 58.75 52.3449 58.285 51.8769C56.285 49.8619 53.545 49.3149 50.953 50.4169C48.757 51.3489 47.096 53.9009 47.065 56.4329C45.196 57.2089 44.104 58.8709 44.104 61.0139C44.104 63.6039 45.649 64.9659 46.57 65.5479C47.045 65.8479 47.623 65.9989 48.289 65.9999H63.302C63.326 65.9999 63.351 65.9989 63.375 65.9979C64.975 65.8809 68.001 64.6959 68.001 61.0479C68.001 58.3279 66.232 56.8409 64.349 56.2689Z" fill="white"/>
</g>
</g>
</svg>
