<?xml version="1.0" encoding="UTF-8"?>
<svg width="80px" height="80px" viewBox="0 0 80 80" version="1.1" xmlns="http://www.w3.org/2000/svg" xmlns:xlink="http://www.w3.org/1999/xlink">
    <title>Icon-Architecture/64/Arch_Amazon-Managed-Service-for-Prometheus_64</title>
    <g id="Icon-Architecture/64/Arch_Amazon-Managed-Service-for-Prometheus_64" stroke="none" stroke-width="1" fill="none" fill-rule="evenodd">
        <g id="Icon-Architecture-BG/64/Management-Governance" fill="#E7157B">
            <rect id="Rectangle" x="0" y="0" width="80" height="80"></rect>
        </g>
        <g id="Icon-Service/64/Amazon-Managed-Service-for-Prometheus_64" transform="translate(20.000000, 12.000000)" fill="#FFFFFF">
            <path d="M33,18 C31.346,18 30,16.654 30,15 C30,13.346 31.346,12 33,12 C34.654,12 36,13.346 36,15 C36,16.654 34.654,18 33,18 L33,18 Z M23,8 C21.346,8 20,6.654 20,5 C20,3.346 21.346,2 23,2 C24.654,2 26,3.346 26,5 C26,6.654 24.654,8 23,8 L23,8 Z M15,26 C13.346,26 12,24.654 12,23 C12,21.346 13.346,20 15,20 C16.654,20 18,21.346 18,23 C18,24.654 16.654,26 15,26 L15,26 Z M5,17 C3.346,17 2,15.654 2,14 C2,12.346 3.346,11 5,11 C6.654,11 8,12.346 8,14 C8,15.654 6.654,17 5,17 L5,17 Z M33,10 C31.982,10 31.037,10.309 30.247,10.833 L27.167,7.753 C27.691,6.962 28,6.018 28,5 C28,2.243 25.757,0 23,0 C20.243,0 18,2.243 18,5 C18,6.592 18.762,7.997 19.926,8.913 L15.363,18.037 C15.241,18.028 15.125,18 15,18 C13.728,18 12.576,18.493 11.693,19.279 L9.167,16.753 C9.691,15.962 10,15.018 10,14 C10,11.243 7.757,9 5,9 C2.243,9 0,11.243 0,14 C0,16.757 2.243,19 5,19 C6.018,19 6.963,18.691 7.753,18.167 L10.48,20.895 C10.181,21.537 10,22.246 10,23 C10,25.757 12.243,28 15,28 C17.757,28 20,25.757 20,23 C20,21.084 18.905,19.437 17.319,18.598 L21.713,9.811 C22.126,9.922 22.553,10 23,10 C24.018,10 24.963,9.691 25.753,9.167 L28.833,12.247 C28.309,13.038 28,13.982 28,15 C28,17.757 30.243,20 33,20 C35.757,20 38,17.757 38,15 C38,12.243 35.757,10 33,10 L33,10 Z M26.503,39 L12.5,39 L8,33 L31.048,33 L26.503,39 Z M22.231,54 L16.769,54 L13.301,41 L25.699,41 L22.231,54 Z M33.06,31 L6,31 C5.621,31 5.275,31.214 5.105,31.553 C4.937,31.892 4.973,32.297 5.2,32.6 L11.084,40.445 L15.034,55.258 C15.15,55.695 15.547,56 16,56 L23,56 C23.453,56 23.85,55.695 23.966,55.258 L27.916,40.447 L33.856,32.604 C34.086,32.301 34.124,31.895 33.955,31.555 C33.786,31.215 33.439,31 33.06,31 L33.06,31 Z" id="Fill-7"></path>
        </g>
    </g>
</svg>