<svg width="80" height="80" viewBox="0 0 80 80" fill="none" xmlns="http://www.w3.org/2000/svg">
<rect width="80" height="80" fill="#E7157B"/>
<path d="M66.5635 48.4043C63.8486 48.4043 61.6396 46.1953 61.6396 43.48C61.6396 42.9277 61.1924 42.48 60.6396 42.48C60.0869 42.48 59.6396 42.9277 59.6396 43.48C59.6396 46.1953 57.4307 48.4043 54.7158 48.4043C54.1631 48.4043 53.7158 48.8521 53.7158 49.4043C53.7158 49.9566 54.1631 50.4043 54.7158 50.4043C57.4307 50.4043 59.6396 52.6133 59.6396 55.3281C59.6396 55.8804 60.0869 56.3281 60.6396 56.3281C61.1924 56.3281 61.6396 55.8804 61.6396 55.3281C61.6396 52.6133 63.8486 50.4043 66.5635 50.4043C67.1162 50.4043 67.5635 49.9566 67.5635 49.4043C67.5635 48.8521 67.1162 48.4043 66.5635 48.4043ZM60.6396 51.7471C60.0596 50.7905 59.2539 49.9849 58.2969 49.4043C59.2539 48.8237 60.0596 48.0181 60.6396 47.0615C61.2197 48.0181 62.0254 48.8238 62.9824 49.4043C62.0254 49.9849 61.2197 50.7905 60.6396 51.7471ZM55.1631 34.7148C55.7158 34.7148 56.1631 34.2671 56.1631 33.7148C56.1631 29.6855 59.4404 26.4072 63.4697 26.4072C64.0225 26.4072 64.4697 25.9595 64.4697 25.4072C64.4697 24.855 64.0225 24.4072 63.4697 24.4072C59.4404 24.4072 56.1631 21.1289 56.1631 17.0996C56.1631 16.5474 55.7158 16.0996 55.1631 16.0996C54.6104 16.0996 54.1631 16.5474 54.1631 17.0996C54.1631 21.1289 50.8848 24.4072 46.8555 24.4072C46.3027 24.4072 45.8555 24.855 45.8555 25.4072C45.8555 25.9595 46.3027 26.4072 46.8555 26.4072C50.8848 26.4072 54.1631 29.6855 54.1631 33.7148C54.1631 34.2671 54.6104 34.7148 55.1631 34.7148ZM51.0508 25.4072C52.8193 24.5103 54.2656 23.064 55.1631 21.2944C56.0596 23.064 57.5058 24.5103 59.2754 25.4072C57.5058 26.3042 56.0596 27.7505 55.1631 29.52C54.2656 27.7505 52.8193 26.3042 51.0508 25.4072ZM46.9678 52.0747C46.1953 51.354 45.8242 50.98 45.8242 50.3618C45.8242 44.341 45.8224 27.1564 34.7856 24.0362C34.6952 22.057 33.0701 20.4707 31.0684 20.4707C29.0666 20.4707 27.4415 22.057 27.3511 24.0362C16.3143 27.1564 16.3125 44.341 16.3125 50.3618C16.3125 50.98 15.9414 51.354 15.1689 52.0747C14.0156 53.1504 12.4365 54.6235 12.4365 58C12.4365 58.5523 12.8838 59 13.4365 59H25.5759C25.8904 61.7534 28.2322 63.9004 31.0684 63.9004C33.9045 63.9004 36.2463 61.7534 36.5608 59H48.7002C49.2529 59 49.7002 58.5523 49.7002 58C49.7002 54.6235 48.1211 53.1504 46.9678 52.0747ZM31.0684 61.9004C29.3372 61.9004 27.9 60.6462 27.6008 59H34.5359C34.2367 60.6462 32.7996 61.9004 31.0684 61.9004ZM14.5 57C14.7451 55.2051 15.6514 54.3589 16.5332 53.5371C17.3672 52.7588 18.3125 51.877 18.3125 50.3618C18.3125 39.7085 19.6348 25.5449 31.0684 25.5449C42.5019 25.5449 43.8242 39.7085 43.8242 50.3618C43.8242 51.877 44.7695 52.7588 45.6035 53.5371C46.4854 54.3589 47.3916 55.2051 47.6367 57H14.5Z" fill="white"/>
</svg>
