<?xml version="1.0" encoding="UTF-8"?>
<svg width="80px" height="80px" viewBox="0 0 80 80" version="1.1" xmlns="http://www.w3.org/2000/svg" xmlns:xlink="http://www.w3.org/1999/xlink">
    <title>Icon-Architecture/64/Arch_Amazon-Managed-Grafana_64</title>
    <g id="Icon-Architecture/64/Arch_Amazon-Managed-Grafana_64" stroke="none" stroke-width="1" fill="none" fill-rule="evenodd">
        <g id="Icon-Architecture-BG/64/Management-Governance" fill="#E7157B">
            <rect id="Rectangle" x="0" y="0" width="80" height="80"></rect>
        </g>
        <g id="Icon-Service/64/Amazon-Managed-Grafana_64" transform="translate(12.000000, 12.000000)" fill="#FFFFFF">
            <path d="M13.9996175,40.0003564 L15.9996175,40.0003564 L15.9996175,29.0003564 L13.9996175,29.0003564 L13.9996175,40.0003564 Z M34.9996175,40.0003564 L36.9996175,40.0003564 L36.9996175,29.0003564 L34.9996175,29.0003564 L34.9996175,40.0003564 Z M27.9996175,40.0003564 L29.9996175,40.0003564 L29.9996175,15.0003564 L27.9996175,15.0003564 L27.9996175,40.0003564 Z M20.9996175,40.0003564 L22.9996175,40.0003564 L22.9996175,24.0003564 L20.9996175,24.0003564 L20.9996175,40.0003564 Z M53.9996175,46.1933564 L18.4196175,53.8863564 L2.11961749,31.8333564 L12.6846175,2.0613564 L35.0496175,3.9243564 L36.0016175,21.0563564 C36.0166175,21.3303564 36.1446175,21.5863564 36.3546175,21.7633564 C36.5646175,21.9413564 36.8396175,22.0253564 37.1106175,21.9943564 L53.9996175,20.1173564 L53.9996175,46.1933564 Z M55.6666175,18.2553564 C55.4536175,18.0653564 55.1706175,17.9763564 54.8896175,18.0063564 L37.9396175,19.8903564 L36.9976175,2.9443564 C36.9706175,2.4463564 36.5796175,2.0453564 36.0826175,2.0033564 L12.0826175,0.00335640254 C11.6236175,-0.0336435975 11.2086175,0.238356403 11.0576175,0.666356403 L0.0576174899,31.6663564 C-0.0533825101,31.9793564 -0.00238251005,32.3273564 0.19661749,32.5943564 L17.1966175,55.5943564 C17.3866175,55.8533564 17.6866175,56.0003564 17.9996175,56.0003564 C18.0706175,56.0003564 18.1406175,55.9933564 18.2106175,55.9783564 L55.2106175,47.9783564 C55.6716175,47.8783564 55.9996175,47.4713564 55.9996175,47.0003564 L55.9996175,19.0003564 C55.9996175,18.7153564 55.8786175,18.4443564 55.6666175,18.2553564 L55.6666175,18.2553564 Z" id="Fill-5"></path>
        </g>
    </g>
</svg>