<?xml version="1.0" encoding="UTF-8"?>
<svg width="80px" height="80px" viewBox="0 0 80 80" version="1.1" xmlns="http://www.w3.org/2000/svg" xmlns:xlink="http://www.w3.org/1999/xlink">
    <title>Icon-Architecture/64/Arch_AWS-Application-Auto-Scaling_64</title>
    <g id="Icon-Architecture/64/Arch_AWS-Application-Auto-Scaling_64" stroke="none" stroke-width="1" fill="none" fill-rule="evenodd">
        <g id="Icon-Architecture-BG/64/Management-Governance" fill="#E7157B">
            <rect id="Rectangle" x="0" y="0" width="80" height="80"></rect>
        </g>
        <g id="Icon-Service/64/Application-Auto-Scaling_64" transform="translate(12.000000, 12.000000)" fill="#FFFFFF">
            <path d="M55.975,28.9757505 L45.404,28.9757505 L50.685,34.2827505 L49.267,35.6937505 L42.292,28.6857505 C41.904,28.2957505 41.905,27.6637505 42.293,27.2747505 L49.268,20.2817505 L50.684,21.6937505 L45.415,26.9767505 L55.977,26.9877505 L55.975,28.9757505 Z M13.684,27.2747505 C14.073,27.6637505 14.074,28.2957505 13.685,28.6857505 L6.71,35.6937505 L5.292,34.2827505 L10.574,28.9757505 L0.002,28.9757505 L3.55271368e-15,26.9877505 L10.562,26.9767505 L5.293,21.6937505 L6.709,20.2817505 L13.684,27.2747505 Z M34.284,47.2917505 L35.694,48.7087505 L28.686,55.6837505 C28.492,55.8787505 28.236,55.9757505 27.981,55.9757505 C27.725,55.9757505 27.47,55.8787505 27.275,55.6837505 L20.283,48.7077505 L21.695,47.2917505 L26.989,52.5617505 L26.989,41.9987505 L28.989,42.0007505 L28.978,52.5727505 L34.284,47.2917505 Z M21.695,8.68375048 L20.283,7.26775048 L27.275,0.291750482 C27.664,-0.096249518 28.296,-0.098249518 28.686,0.291750482 L35.694,7.26775048 L34.284,8.68375048 L28.978,3.40275048 L28.989,13.9747505 L26.989,13.9757505 L26.989,3.41375048 L21.695,8.68375048 Z M33.989,22.1547505 C33.124,21.9217505 32.172,22.0027505 31.282,22.4207505 C30.573,22.7547505 29.999,23.3267505 29.666,24.0327505 C29.076,25.2897505 29.142,26.6507505 29.85,27.7657505 C30.54,28.8527505 31.722,29.5027505 33.009,29.5027505 C33.345,29.5027505 33.673,29.4587505 33.989,29.3737505 L33.989,31.9757505 L29.989,31.9757505 C29.579,31.9757505 29.212,32.2247505 29.06,32.6037505 C28.909,32.9827505 29.002,33.4167505 29.298,33.6997505 C29.818,34.1947505 29.913,34.9667505 29.542,35.6647505 C29.418,35.8977505 29.202,36.2077505 28.868,36.3647505 C28.012,36.7667505 27.367,36.4977505 27.058,36.3037505 C26.551,35.9807505 26.248,35.4317505 26.248,34.8317505 C26.248,34.2307505 26.413,33.9527505 26.679,33.6997505 C26.975,33.4177505 27.069,32.9837505 26.917,32.6037505 C26.765,32.2247505 26.398,31.9757505 25.989,31.9757505 L21.989,31.9757505 L21.989,19.0697505 C22.018,19.0367505 22.059,18.9997505 22.093,18.9757505 L33.989,18.9757505 L33.989,22.1547505 Z M34.989,16.9757505 L21.989,16.9757505 C21.036,16.9757505 19.989,17.9997505 19.989,18.9337505 L19.989,32.9757505 C19.989,33.5277505 20.436,33.9757505 20.989,33.9757505 L24.329,33.9757505 C24.275,34.2427505 24.248,34.5267505 24.248,34.8317505 C24.248,36.1197505 24.898,37.3007505 25.986,37.9917505 C26.597,38.3797505 27.282,38.5747505 27.983,38.5747505 C28.561,38.5747505 29.151,38.4417505 29.719,38.1747505 C30.377,37.8647505 30.927,37.3217505 31.308,36.6037505 C31.758,35.7567505 31.871,34.8267505 31.668,33.9757505 L34.989,33.9757505 C35.541,33.9757505 35.989,33.5277505 35.989,32.9757505 L35.989,27.6497505 C35.989,27.2417505 35.74,26.8737505 35.361,26.7217505 C34.98,26.5697505 34.547,26.6637505 34.265,26.9597505 C33.51,27.7527505 32.116,27.6017505 31.538,26.6937505 C31.342,26.3847505 31.075,25.7397505 31.476,24.8847505 C31.611,24.5987505 31.844,24.3667505 32.133,24.2307505 C32.919,23.8597505 33.713,23.9877505 34.265,24.5647505 C34.546,24.8607505 34.978,24.9547505 35.361,24.8037505 C35.74,24.6517505 35.989,24.2837505 35.989,23.8747505 L35.989,17.9757505 C35.989,17.4237505 35.541,16.9757505 34.989,16.9757505 L34.989,16.9757505 Z" id="AWS-Application-Auto-Scaling_64_Squid---"></path>
        </g>
    </g>
</svg>