<?xml version="1.0" encoding="UTF-8"?>
<svg width="80px" height="80px" viewBox="0 0 80 80" version="1.1" xmlns="http://www.w3.org/2000/svg" xmlns:xlink="http://www.w3.org/1999/xlink">
    <title>Icon-Architecture/64/Arch_AWS-Proton_64</title>
    <g id="Icon-Architecture/64/Arch_AWS-Proton_64" stroke="none" stroke-width="1" fill="none" fill-rule="evenodd">
        <g id="Icon-Architecture-BG/64/Management-Governance" fill="#E7157B">
            <rect id="Rectangle" x="0" y="0" width="80" height="80"></rect>
        </g>
        <g id="Icon-Service/64/AWS-Proton_64" transform="translate(12.000000, 12.000000)" fill="#FFFFFF">
            <path d="M22.231,15.64 L17.231,9.64 L18.768,8.36 L23.468,14 L40.585,14 L38.293,11.707 L39.707,10.293 L43.707,14.293 C44.097,14.683 44.097,15.316 43.707,15.707 L39.707,19.707 L38.293,18.293 L40.585,16 L23,16 C22.703,16 22.421,15.868 22.231,15.64 L22.231,15.64 Z M43.707,40.293 C44.097,40.683 44.097,41.316 43.707,41.707 L39.707,45.707 L38.293,44.293 L40.585,42 L23.468,42 L18.768,47.64 L17.231,46.36 L22.231,40.36 C22.421,40.132 22.703,40 23,40 L40.585,40 L38.293,37.707 L39.707,36.293 L43.707,40.293 Z M55.707,28.707 L51.707,32.707 L50.293,31.293 L52.585,29 L29,29 L29,27 L52.585,27 L50.293,24.707 L51.707,23.293 L55.707,27.293 C56.097,27.683 56.097,28.316 55.707,28.707 L55.707,28.707 Z M6,54 C3.794,54 2,52.205 2,50 C2,47.794 3.794,46 6,46 C8.206,46 10,47.794 10,50 C10,52.205 8.206,54 6,54 L6,54 Z M15,28 C15,25.794 16.794,24 19,24 C21.206,24 23,25.794 23,28 C23,30.205 21.206,32 19,32 C16.794,32 15,30.205 15,28 L15,28 Z M2,6 C2,3.794 3.794,2 6,2 C8.206,2 10,3.794 10,6 C10,8.205 8.206,10 6,10 C3.794,10 2,8.205 2,6 L2,6 Z M9.77,45.339 L18.511,33.975 C18.673,33.988 18.835,34 19,34 C22.308,34 25,31.308 25,28 C25,24.691 22.308,22 19,22 C18.835,22 18.673,22.012 18.511,22.025 L9.77,10.661 C11.128,9.56 12,7.881 12,6 C12,2.691 9.308,0 6,0 C2.691,0 0,2.691 0,6 C0,9.308 2.691,12 6,12 C6.704,12 7.377,11.871 8.005,11.648 L16.422,22.59 C14.402,23.557 13,25.615 13,28 C13,30.385 14.402,32.443 16.422,33.41 L8.005,44.352 C7.377,44.128 6.704,44 6,44 C2.691,44 0,46.691 0,50 C0,53.308 2.691,56 6,56 C9.308,56 12,53.308 12,50 C12,48.119 11.128,46.44 9.77,45.339 L9.77,45.339 Z" id="Fill-7"></path>
        </g>
    </g>
</svg>