<?xml version="1.0" encoding="UTF-8"?>
<svg width="80px" height="80px" viewBox="0 0 80 80" version="1.1" xmlns="http://www.w3.org/2000/svg" xmlns:xlink="http://www.w3.org/1999/xlink">
    <title>Icon-Architecture/64/Arch_AWS-Console-Mobile-Application _64</title>
    <g id="Icon-Architecture/64/Arch_AWS-Console-Mobile-Application-_64" stroke="none" stroke-width="1" fill="none" fill-rule="evenodd">
        <g id="Icon-Architecture-BG/64/Application-Integration" fill="#E7157B">
            <rect id="Rectangle" x="0" y="0" width="80" height="80"></rect>
        </g>
        <g id="Icon-Service/64/AWS-Console-Mobile-Application_64" transform="translate(14.000000, 12.000000)" fill="#FFFFFF">
            <path d="M0,33.823 L24.442,33.823 L24.442,31.823 L0,31.823 L0,33.823 Z M8.452,27.92 L26.243,27.92 L26.243,25.92 L8.452,25.92 L8.452,27.92 Z M31.182,28.906 C31.668,28.782 31.987,28.317 31.928,27.818 C31.908,27.662 31.898,27.502 31.898,27.34 C31.898,25.939 32.896,24.376 34.123,23.857 C34.689,23.617 35.213,23.521 35.688,23.521 C37.04,23.521 37.995,24.296 38.412,24.715 C38.878,25.181 39.244,25.785 39.5,26.509 C39.623,26.858 39.929,27.11 40.295,27.165 C40.659,27.217 41.027,27.067 41.247,26.77 C41.504,26.421 41.897,26.269 42.272,26.382 C42.754,26.522 43.079,27.057 43.149,27.821 C43.122,28.322 43.474,28.774 43.979,28.861 C44.813,29.004 46.214,29.513 46.214,31.305 C46.214,33.416 44.35,33.702 44.064,33.735 L31.816,33.722 C30.492,33.721 29.407,32.721 29.345,31.439 L29.341,31.276 C29.341,29.705 30.342,29.12 31.182,28.906 L31.182,28.906 Z M31.814,35.722 L44.145,35.731 C45.552,35.617 48.214,34.545 48.214,31.305 C48.214,28.903 46.691,27.584 45.056,27.069 C44.73,25.544 43.737,24.726 42.834,24.462 C42.149,24.262 41.444,24.325 40.822,24.61 C40.541,24.121 40.209,23.684 39.828,23.303 C38.06,21.527 35.635,21.045 33.344,22.015 C31.41,22.834 29.945,25.064 29.899,27.236 C28.282,27.94 27.341,29.401 27.341,31.276 C27.341,31.368 27.344,31.459 27.348,31.542 C27.461,33.884 29.423,35.72 31.814,35.722 L31.814,35.722 Z M32.509,5.465 L34.588,5.465 L34.588,3.465 L32.509,3.465 L32.509,5.465 Z M35.975,5.465 L42.905,5.465 L42.905,3.465 L35.975,3.465 L35.975,5.465 Z M48.279,54.055 L27.134,54.055 C25.682,54.055 24.5,52.894 24.5,51.467 L24.5,49.818 L50.913,49.818 L50.913,51.467 C50.913,52.894 49.731,54.055 48.279,54.055 L48.279,54.055 Z M24.5,6.93 L24.5,5.653 C24.5,3.639 26.165,2 28.212,2 L47.201,2 C49.248,2 50.913,3.639 50.913,5.653 L50.913,6.93 L24.5,6.93 Z M52.913,5.649 C52.913,2.729 50.661,0.319 47.784,0.03 C47.593,0.01 47.398,0 47.201,0 L28.212,0 C25.062,0 22.5,2.536 22.5,5.653 L22.5,9.135 L22.5,22.763 L24.5,22.763 L24.5,9.135 L24.5,8.93 L50.913,8.93 L50.913,47.818 L24.5,47.818 L24.5,37.727 L22.5,37.727 L22.5,51.467 C22.5,53.997 24.579,56.055 27.134,56.055 L48.279,56.055 C50.834,56.055 52.913,53.997 52.913,51.467 L52.913,5.653 L52.913,5.649 Z" id="Fill-1"></path>
        </g>
    </g>
</svg>