<?xml version="1.0" encoding="UTF-8"?>
<svg width="80px" height="80px" viewBox="0 0 80 80" version="1.1" xmlns="http://www.w3.org/2000/svg" xmlns:xlink="http://www.w3.org/1999/xlink">
    <title>Icon-Architecture/64/Arch_AWS-Telco-Network-Builder_64</title>
    <g id="Icon-Architecture/64/Arch_AWS-Telco-Network-Builder_64" stroke="none" stroke-width="1" fill="none" fill-rule="evenodd">
        <g id="Icon-Architecture-BG/64/Management-Governance" fill="#E7157B">
            <rect id="Rectangle" x="0" y="0" width="80" height="80"></rect>
        </g>
        <path d="M43.914,50.9456084 C43.236,50.2946084 42.362,49.9696084 41.488,49.9696084 C40.569,49.9696084 39.651,50.3286084 38.965,51.0426084 C37.628,52.4336084 37.671,54.6536084 39.062,55.9916084 C40.453,57.3276084 42.672,57.2866084 44.012,55.8946084 C45.349,54.5036084 45.306,52.2836084 43.914,50.9456084 L43.914,50.9456084 Z M45.301,49.5046084 C47.486,51.6066084 47.555,55.0946084 45.453,57.2806084 C44.375,58.4016084 42.933,58.9666084 41.487,58.9666084 C40.115,58.9666084 38.741,58.4576084 37.676,57.4326084 C35.49,55.3306084 35.422,51.8416084 37.523,49.6556084 C39.625,47.4716084 43.113,47.4006084 45.301,49.5046084 L45.301,49.5046084 Z M54.789,53.7336084 L50.764,51.8846084 C50.508,51.7676084 50.313,51.5476084 50.227,51.2796084 L49.533,49.1016084 C49.449,48.8376084 49.478,48.5496084 49.614,48.3076084 L51.781,44.4536084 L46.244,40.4246084 L43.274,43.6466084 C43.086,43.8506084 42.822,43.9666084 42.545,43.9686084 L40.217,43.9826084 C39.941,43.9686084 39.666,43.8666084 39.476,43.6596084 L36.489,40.4176084 L30.945,44.4386084 L33.119,48.3076084 C33.256,48.5516084 33.284,48.8416084 33.197,49.1086084 L32.494,51.2616084 C32.408,51.5276084 32.215,51.7436084 31.961,51.8606084 L27.923,53.7136084 L30.033,60.2286084 L34.351,59.3646084 C34.629,59.3086084 34.917,59.3736084 35.143,59.5416084 L37.014,60.9266084 C37.236,61.0916084 37.38,61.3406084 37.412,61.6146084 L37.92,65.9696084 L44.768,65.9756084 L45.282,61.5916084 C45.314,61.3156084 45.46,61.0656084 45.685,60.9016084 L47.533,59.5476084 C47.76,59.3816084 48.047,59.3176084 48.32,59.3736084 L52.669,60.2456084 L54.789,53.7336084 Z M56.967,53.5066084 L54.296,61.7106084 C54.139,62.1926084 53.64,62.4806084 53.148,62.3816084 L48.359,61.4216084 L47.218,62.2576084 L46.65,67.0936084 C46.592,67.5966084 46.164,67.9766084 45.657,67.9766084 L45.656,67.9766084 L37.028,67.9686084 C36.521,67.9676084 36.095,67.5886084 36.036,67.0846084 L35.476,62.2766084 L34.31,61.4126084 L29.553,62.3636084 C29.054,62.4616084 28.561,62.1746084 28.405,61.6916084 L25.746,53.4836084 C25.59,53.0006084 25.819,52.4776084 26.28,52.2666084 L30.729,50.2246084 L31.16,48.9046084 L28.766,44.6416084 C28.518,44.1996084 28.64,43.6406084 29.051,43.3426084 L36.035,38.2766084 C36.441,37.9786084 37.014,38.0336084 37.357,38.4086084 L40.647,41.9796084 L42.099,41.9706084 L45.377,38.4146084 C45.722,38.0406084 46.29,37.9856084 46.7,38.2836084 L53.677,43.3606084 C54.087,43.6586084 54.209,44.2166084 53.961,44.6586084 L51.571,48.9086084 L51.999,50.2516084 L56.433,52.2876084 C56.894,52.4996084 57.124,53.0236084 56.967,53.5066084 L56.967,53.5066084 Z M18.722,14.5176084 C20.943,13.6186084 23.449,13.9036084 25.425,15.2816084 L26.569,13.6416084 C24.038,11.8756084 20.825,11.5106084 17.972,12.6626084 C15.118,13.8176084 13.061,16.3156084 12.47,19.3456084 L14.433,19.7286084 C14.893,17.3646084 16.497,15.4166084 18.722,14.5176084 L18.722,14.5176084 Z M22.026,23.7736084 C26.139,22.1096084 30.776,22.6376084 34.431,25.1886084 L35.575,23.5476084 C31.363,20.6096084 26.017,20.0016084 21.276,21.9206084 C16.531,23.8396084 13.111,27.9946084 12.128,33.0336084 L14.091,33.4166084 C14.944,29.0436084 17.911,25.4396084 22.026,23.7736084 L22.026,23.7736084 Z M48.875,14.1226084 C55.977,14.6276084 62.342,18.3176084 66.337,24.2456084 L67.995,23.1276084 C63.654,16.6866084 56.736,12.6766084 49.018,12.1276084 C42.643,11.6786084 36.41,13.6496084 31.455,17.6886084 L32.719,19.2386084 C37.277,15.5226084 43.002,13.7036084 48.875,14.1226084 L48.875,14.1226084 Z M67.978,50.1416084 C67.978,55.5166084 64.901,58.4736084 63.066,59.7576084 C62.095,60.4366084 60.37,60.9686084 59.139,60.9686084 L57.988,60.9686084 L57.988,58.9686084 L59.139,58.9686084 C59.973,58.9686084 61.272,58.5706084 61.92,58.1186084 C63.771,56.8226084 65.978,54.3866084 65.978,50.1416084 C65.978,44.1566084 61.815,42.1946084 59.333,41.5576084 C58.87,41.4386084 58.556,41.0076084 58.584,40.5296084 L58.685,38.8256084 C58.683,34.1166084 55.398,28.9866084 51.206,27.2066084 C43.953,24.1266084 38.814,28.1746084 36.941,30.0596084 C35.415,31.5946084 34.226,33.5556084 33.404,35.8866084 C33.281,36.2356084 32.975,36.4886084 32.608,36.5436084 C32.244,36.5966084 31.875,36.4456084 31.656,36.1476084 C30.413,34.4596084 28.273,33.7576084 26.331,34.3946084 C24.151,35.1106084 22.893,37.2366084 22.873,40.2316084 L22.878,40.2646084 C22.96,40.8026084 22.596,41.3076084 22.06,41.4006084 C20.169,41.7256084 14,43.3246084 14,50.2256084 C14,58.2426084 21.318,58.9456084 21.63,58.9716084 L24.988,58.9686084 L24.988,60.9686084 L21.55,60.9686084 C21.378,60.9586084 12,60.1136084 12,50.2256084 C12,42.6086084 18.025,40.2756084 20.893,39.5986084 C21.1,36.0576084 22.866,33.4276084 25.707,32.4936084 C27.935,31.7626084 30.339,32.2636084 32.108,33.7316084 C32.981,31.7596084 34.127,30.0546084 35.523,28.6496084 C40.02,24.1246084 46.177,22.8956084 51.987,25.3656084 C56.944,27.4706084 60.683,33.2826084 60.683,38.8846084 L60.626,39.8526084 C63.331,40.7416084 67.978,43.2706084 67.978,50.1416084 L67.978,50.1416084 Z" id="Fill-8" fill="#FFFFFF"></path>
    </g>
</svg>