<?xml version="1.0" encoding="UTF-8"?>
<svg width="40px" height="40px" viewBox="0 0 40 40" version="1.1" xmlns="http://www.w3.org/2000/svg" xmlns:xlink="http://www.w3.org/1999/xlink">
    <title>Icon-Architecture/32/Arch_AWS-rePost-Private_32</title>
    <g id="Icon-Architecture/32/Arch_AWS-rePost-Private_32" stroke="none" stroke-width="1" fill="none" fill-rule="evenodd">
        <g id="Icon-Architecture-BG/32/Customer-Enablement" fill="#C925D1">
            <rect id="Rectangle" x="0" y="0" width="40" height="40"></rect>
        </g>
        <g id="Icon-Service/32/AWS-rePost-Private_32" transform="translate(6.000000, 6.000000)" fill="#FFFFFF">
            <path d="M11.017,15.9926519 L19.955,15.9926519 L19.955,14.9926519 L11.017,14.9926519 L11.017,15.9926519 Z M14.327,25.6886519 L14.827,26.5546519 L12.44,27.9326519 C12.363,27.9776519 12.276,27.9996519 12.19,27.9996519 C12.104,27.9996519 12.018,27.9776519 11.94,27.9326519 L0.25,21.1826519 C0.096,21.0936519 -1.77635684e-15,20.9286519 -1.77635684e-15,20.7496519 L-1.77635684e-15,7.24965186 C-1.77635684e-15,7.07065186 0.096,6.90565186 0.25,6.81665186 L11.94,0.066651863 C12.093,-0.020348137 12.279,-0.022348137 12.432,0.061651863 L24.718,6.81165186 C24.877,6.89965186 24.976,7.06765186 24.976,7.24965186 L24.976,8.91765186 L23.976,8.91765186 L23.976,7.54565186 L12.196,1.07365186 L1,7.53865186 L1,20.4616519 L12.19,26.9226519 L14.327,25.6886519 Z M18.525,26.9996519 C18.755,24.8116519 20.476,23.1056519 22.56,23.1056519 C23.288,23.1056519 24.003,23.3166519 24.627,23.7166519 C25.723,24.4196519 26.448,25.6476519 26.594,26.9996519 L18.525,26.9996519 Z M22.56,17.7136519 C23.722,17.7136519 24.666,18.6586519 24.666,19.8196519 C24.666,20.9816519 23.722,21.9256519 22.56,21.9256519 C21.399,21.9256519 20.454,20.9816519 20.454,19.8196519 C20.454,18.6586519 21.399,17.7136519 22.56,17.7136519 L22.56,17.7136519 Z M19.569,19.0296519 L15.476,19.0296519 C15.199,19.0296519 14.976,19.2536519 14.976,19.5296519 L14.976,21.2446519 L12.97,19.1816519 C12.876,19.0846519 12.746,19.0296519 12.611,19.0296519 L10.484,19.0296519 C8.547,19.0296519 6.97,17.4536519 6.97,15.5156519 C6.97,13.5776519 8.547,12.0006519 10.484,12.0006519 L23.484,12.0006519 C25.422,12.0006519 26.999,13.5776519 26.999,15.5156519 C26.999,16.7306519 26.371,17.8416519 25.351,18.4836519 C24.85,17.4406519 23.792,16.7136519 22.56,16.7136519 C21.122,16.7136519 19.921,17.7016519 19.569,19.0296519 L19.569,19.0296519 Z M25.166,22.8746519 C24.874,22.6876519 24.561,22.5446519 24.242,22.4236519 C25.096,21.8696519 25.666,20.9116519 25.666,19.8196519 C25.666,19.7056519 25.644,19.5966519 25.632,19.4846519 C27.092,18.6936519 27.999,17.1766519 27.999,15.5156519 C27.999,13.0266519 25.974,11.0006519 23.484,11.0006519 L10.484,11.0006519 C7.995,11.0006519 5.97,13.0266519 5.97,15.5156519 C5.97,18.0046519 7.995,20.0296519 10.484,20.0296519 L12.4,20.0296519 L15.117,22.8246519 C15.213,22.9236519 15.343,22.9766519 15.476,22.9766519 C15.539,22.9766519 15.602,22.9636519 15.664,22.9396519 C15.852,22.8626519 15.976,22.6796519 15.976,22.4766519 L15.976,20.0296519 L19.475,20.0296519 C19.544,21.0376519 20.086,21.9136519 20.891,22.4306519 C18.922,23.1696519 17.499,25.1516519 17.499,27.4996519 C17.499,27.7766519 17.723,27.9996519 17.999,27.9996519 L27.12,27.9996519 C27.396,27.9996519 27.62,27.7766519 27.62,27.4996519 C27.62,25.5886519 26.703,23.8606519 25.166,22.8746519 L25.166,22.8746519 Z" id="Fill-6"></path>
        </g>
    </g>
</svg>