<svg width="40" height="40" viewBox="0 0 40 40" fill="none" xmlns="http://www.w3.org/2000/svg">
<g clip-path="url(#clip0_20_131)">
<rect width="40" height="40" fill="#8C4FFF"/>
<path d="M33.9482 19.7231C33.9482 22.2382 32.5693 23.5297 31.4131 24.1698L30.9287 23.2948C32.2685 22.5531 32.9482 21.3515 32.9482 19.7231C32.9482 16.394 29.8691 15.621 28.9258 15.4633C28.6572 15.4184 28.4736 15.1669 28.5127 14.8974C28.5156 13.4755 27.9004 12.4418 26.8281 12.081C25.8555 11.7523 24.7471 12.098 24.125 12.9169C24.0137 13.0624 23.8379 13.1361 23.6514 13.1088C23.4707 13.0814 23.3193 12.9574 23.2568 12.7855C22.8467 11.6581 22.2539 10.7108 21.4932 9.96914C20.5576 9.05605 17.9854 7.09316 14.3574 8.58682C12.2666 9.44864 10.6279 11.9267 10.6279 14.2284L10.6777 15.0233C10.6924 15.2641 10.5332 15.4809 10.2998 15.5394C9.06055 15.8476 6.9834 16.7958 6.9834 19.6825C6.9834 20.9042 7.37305 21.9491 8.14258 22.788C8.44922 23.1229 8.80762 23.4169 9.20801 23.6605L8.68653 24.5141C8.20704 24.2216 7.77637 23.8681 7.40528 23.4638C6.46192 22.434 5.9834 21.162 5.9834 19.6825C5.9834 16.3451 8.30176 15.1161 9.65528 14.6835L9.62891 14.2592C9.62793 11.5067 11.4971 8.68351 13.9766 7.66202C16.874 6.46915 19.9463 7.06241 22.1924 9.25333C22.8906 9.93497 23.4629 10.7626 23.9004 11.7206C24.7988 10.9931 26.0176 10.7543 27.1475 11.1332C28.5342 11.6 29.3984 12.8676 29.5049 14.5595C30.9385 14.8881 33.9482 16.0209 33.9482 19.7231ZM27.9668 20.4872V23.9872H26.9668V20.9872H19.6886C19.3416 21.5821 18.7036 21.9872 17.9668 21.9872C17.2301 21.9872 16.592 21.5821 16.245 20.9872H11.9668V19.9872H15.9668C15.9668 19.2502 16.372 18.6124 16.9668 18.2655V14.4872C16.9668 14.2108 17.1904 13.9872 17.4668 13.9872H23.4668C23.7432 13.9872 23.9668 14.2108 23.9668 14.4872V18.9872H22.9668V14.9872H17.9668V17.9872C19.0693 17.9872 19.9668 18.8842 19.9668 19.9872H27.4668C27.7432 19.9872 27.9668 20.2108 27.9668 20.4872ZM18.9668 19.9872C18.9668 19.4359 18.5186 18.9872 17.9668 18.9872C17.415 18.9872 16.9668 19.4359 16.9668 19.9872C16.9668 20.5385 17.415 20.9872 17.9668 20.9872C18.5186 20.9872 18.9668 20.5385 18.9668 19.9872ZM24.9668 25.9872H27.9668V26.9872H24.6886C24.5139 27.2867 24.2662 27.5343 23.9668 27.709V31.4872C23.9668 31.7636 23.7432 31.9872 23.4668 31.9872H17.4668C17.1904 31.9872 16.9668 31.7636 16.9668 31.4872V27.9872H17.9668V30.9872H22.9668V27.9872C22.23 27.9872 21.592 27.5821 21.245 26.9872H12.4668C12.1904 26.9872 11.9668 26.7636 11.9668 26.4872V22.9872H12.9668V25.9872H20.9668C20.9668 24.8842 21.8643 23.9872 22.9668 23.9872C24.0693 23.9872 24.9668 24.8842 24.9668 25.9872ZM22.9668 26.9872C23.5186 26.9872 23.9668 26.5385 23.9668 25.9872C23.9668 25.4359 23.5186 24.9872 22.9668 24.9872C22.415 24.9872 21.9668 25.4359 21.9668 25.9872C21.9668 26.5385 22.415 26.9872 22.9668 26.9872Z" fill="white"/>
</g>
<defs>
<clipPath id="clip0_20_131">
<rect width="40" height="40" fill="white"/>
</clipPath>
</defs>
</svg>
