<?xml version="1.0" encoding="UTF-8"?>
<svg width="48px" height="48px" viewBox="0 0 48 48" version="1.1" xmlns="http://www.w3.org/2000/svg" xmlns:xlink="http://www.w3.org/1999/xlink">
    <title>Icon-Resource/Containers/Res_Amazon-Elastic-Kubernetes-Service_EKS-on-Outposts_48</title>
    <g id="Icon-Resource/Containers/Res_Amazon-Elastic-Kubernetes-Service_EKS-on-Outposts_48" stroke="none" stroke-width="1" fill="none" fill-rule="evenodd">
        <path d="M4,33.4387227 L21.017,43.8377227 L27,40.4197227 L27,36.9997227 C25.773,36.9997227 24.423,36.7427227 23.434,35.8677227 L23.447,35.8947227 L21.447,36.8947227 C21.14,37.0467227 20.778,37.0327227 20.485,36.8567227 L10.485,30.8567227 C10.185,30.6767227 10,30.3507227 10,29.9997227 L10,16.9997227 C10,16.6547227 10.178,16.3347227 10.47,16.1517227 L18,11.4457227 L18,4.8037227 L4,13.5537227 L4,33.4387227 Z M24,31.9997227 C24,33.5577227 24.363,34.9997227 27,34.9997227 L27,31.9997227 C27,31.4477227 27.447,30.9997227 28,30.9997227 L40,30.9997227 C40.553,30.9997227 41,31.4477227 41,31.9997227 L41,34.9997227 C43.131,34.9997227 44,34.4197227 44,32.9997227 C44,30.1767227 41.496,30.0057227 40.994,29.9997227 C40.446,29.9937227 40,29.5477227 40,28.9997227 C39.999,28.9537227 39.95,27.5927227 38.553,26.8947227 C37.235,26.2337227 35.72,27.6957227 35.704,27.7097227 C35.417,27.9927227 34.986,28.0767227 34.615,27.9197227 C34.243,27.7647227 34,27.4027227 34,26.9997227 C34,25.3457227 32.654,23.9997227 31,23.9997227 C29.346,23.9997227 28,25.3457227 28,26.9997227 L28,27.9997227 C28,28.4587227 27.687,28.8587227 27.242,28.9697227 C27.213,28.9777227 24,29.8237227 24,31.9997227 L24,31.9997227 Z M33,16.9997227 L33,22.4317227 C34.242,22.9777227 35.228,24.0037227 35.697,25.2857227 C36.564,24.8287227 37.747,24.4837227 39,24.9217227 L39,13.5717227 L24,4.7487227 L24,11.4117227 L32.485,16.1257227 C32.803,16.3017227 33,16.6367227 33,16.9997227 L33,16.9997227 Z M39,32.9997227 L29,32.9997227 L29,43.9997227 L33,43.9997227 L33,41.9997227 L35,41.9997227 L35,43.9997227 L39,43.9997227 L39,32.9997227 Z M2,33.9997227 L2,12.9997227 C2,12.6547227 2.178,12.3347227 2.47,12.1517227 L18.47,2.1517227 C18.778,1.9597227 19.168,1.9487227 19.484,2.1257227 C19.803,2.3017227 20,2.6357227 20,2.9997227 L20,11.9997227 C20,12.3447227 19.822,12.6647227 19.53,12.8477227 L12,17.5537227 L12,29.4337227 L21.044,34.8597227 L22.345,34.2097227 C22.129,33.6027227 22,32.8787227 22,31.9997227 C22,30.8187227 22.459,29.8957227 23.088,29.1797227 L19,23.9997227 L19,29.9997227 L17,29.9997227 L17,16.9997227 L19,16.9997227 L19,22.2407227 L23.463,16.9997227 L25.708,16.9997227 L20.65,23.3397227 L24.527,27.9917227 C25.065,27.6637227 25.592,27.4297227 26,27.2747227 L26,26.9997227 C26,24.2427227 28.243,21.9997227 31,21.9997227 L31,17.5877227 L22.515,12.8737227 C22.197,12.6977227 22,12.3627227 22,11.9997227 L22,2.9997227 C22,2.6407227 22.192,2.3097227 22.504,2.1317227 C22.815,1.9537227 23.199,1.9567227 23.507,2.1377227 L40.507,12.1377227 C40.812,12.3177227 41,12.6457227 41,12.9997227 L41,26.3507227 C41.479,26.9497227 41.736,27.5797227 41.863,28.0767227 C43.635,28.3777227 46,29.6367227 46,32.9997227 C46,34.4937227 45.351,36.9997227 41,36.9997227 L41,44.9997227 C41,45.5517227 40.553,45.9997227 40,45.9997227 L28,45.9997227 C27.447,45.9997227 27,45.5517227 27,44.9997227 L27,42.7227227 L21.496,45.8677227 C21.342,45.9557227 21.171,45.9997227 21,45.9997227 C20.819,45.9997227 20.639,45.9507227 20.479,45.8537227 L2.479,34.8537227 C2.182,34.6707227 2,34.3477227 2,33.9997227 L2,33.9997227 Z M35,40.9997227 L37,40.9997227 L37,38.9997227 L35,38.9997227 L35,40.9997227 Z M31,40.9997227 L33,40.9997227 L33,38.9997227 L31,38.9997227 L31,40.9997227 Z M31,36.9997227 L33,36.9997227 L33,34.9997227 L31,34.9997227 L31,36.9997227 Z M35,36.9997227 L37,36.9997227 L37,34.9997227 L35,34.9997227 L35,36.9997227 Z" id="Fill-1" fill="#ED7100"></path>
    </g>
</svg>