<?xml version="1.0" encoding="UTF-8"?>
<svg width="48px" height="48px" viewBox="0 0 48 48" version="1.1" xmlns="http://www.w3.org/2000/svg" xmlns:xlink="http://www.w3.org/1999/xlink">
    <title>Icon-Resource/Containers/Res_Amazon-Elastic-Container-Service_ECS-Service-Connect_48</title>
    <g id="Icon-Resource/Containers/Res_Amazon-Elastic-Container-Service_ECS-Service-Connect_48" stroke="none" stroke-width="1" fill="none" fill-rule="evenodd">
        <path d="M44,37.5 C44,38.327 43.327,39 42.5,39 C41.673,39 41,38.327 41,37.5 C41,36.673 41.673,36 42.5,36 C43.327,36 44,36.673 44,37.5 L44,37.5 Z M42.5,16.001 C43.327,16.001 44,16.674 44,17.501 C44,18.328 43.327,19.001 42.5,19.001 C41.673,19.001 41,18.328 41,17.501 C41,16.674 41.673,16.001 42.5,16.001 L42.5,16.001 Z M10,42 L32,42 L32,12 L10,12 L10,42 Z M8,11 L8,36 L4,36 L4,6 L26,6 L26,10 L9,10 C8.447,10 8,10.448 8,11 L8,11 Z M42.5,26.001 C43.327,26.001 44,26.674 44,27.501 C44,28.328 43.327,29.001 42.5,29.001 C41.673,29.001 41,28.328 41,27.501 C41,26.674 41.673,26.001 42.5,26.001 L42.5,26.001 Z M42.5,31.001 C44.43,31.001 46,29.431 46,27.501 C46,25.571 44.43,24.001 42.5,24.001 C41.109,24.001 39.915,24.823 39.351,26.001 L36.204,26.001 L40.923,20.608 C41.399,20.851 41.93,21.001 42.5,21.001 C44.43,21.001 46,19.431 46,17.501 C46,15.571 44.43,14.001 42.5,14.001 C40.57,14.001 39,15.571 39,17.501 C39,18.131 39.181,18.715 39.474,19.226 L34,25.482 L34,11 C34,10.448 33.553,10 33,10 L28,10 L28,5 C28,4.448 27.553,4 27,4 L3,4 C2.447,4 2,4.448 2,5 L2,37 C2,37.552 2.447,38 3,38 L8,38 L8,43 C8,43.552 8.447,44 9,44 L33,44 C33.553,44 34,43.552 34,43 L34,28.628 L39.508,35.711 C39.193,36.236 39,36.844 39,37.5 C39,39.43 40.57,41 42.5,41 C44.43,41 46,39.43 46,37.5 C46,35.57 44.43,34 42.5,34 C41.957,34 41.448,34.135 40.989,34.357 L36.045,28.001 L39.051,28.001 C39.296,29.693 40.742,31.001 42.5,31.001 L42.5,31.001 Z M20,37 L30,37 L30,35 L20,35 L20,37 Z M20,28 L30,28 L30,26 L20,26 L20,28 Z M20,19 L30,19 L30,17 L20,17 L20,19 Z M14,37 L16,37 L16,35 L14,35 L14,37 Z M13,39 L17,39 C17.553,39 18,38.552 18,38 L18,34 C18,33.448 17.553,33 17,33 L13,33 C12.447,33 12,33.448 12,34 L12,38 C12,38.552 12.447,39 13,39 L13,39 Z M14,28 L16,28 L16,26 L14,26 L14,28 Z M13,30 L17,30 C17.553,30 18,29.552 18,29 L18,25 C18,24.448 17.553,24 17,24 L13,24 C12.447,24 12,24.448 12,25 L12,29 C12,29.552 12.447,30 13,30 L13,30 Z M14,19 L16,19 L16,17 L14,17 L14,19 Z M13,21 L17,21 C17.553,21 18,20.552 18,20 L18,16 C18,15.448 17.553,15 17,15 L13,15 C12.447,15 12,15.448 12,16 L12,20 C12,20.552 12.447,21 13,21 L13,21 Z" id="Fill-1" fill="#ED7100"></path>
    </g>
</svg>