<?xml version="1.0" encoding="UTF-8"?>
<svg width="80px" height="80px" viewBox="0 0 80 80" version="1.1" xmlns="http://www.w3.org/2000/svg" xmlns:xlink="http://www.w3.org/1999/xlink">
    <title>Icon-Architecture/64/Arch_Amazon-Managed-Workflows-for-Apache-Airflow_64</title>
    <g id="Icon-Architecture/64/Arch_Amazon-Managed-Workflows-for-Apache-Airflow_64" stroke="none" stroke-width="1" fill="none" fill-rule="evenodd">
        <g id="Icon-Architecture-BG/64/Application-Integration" fill="#E7157B">
            <rect id="Rectangle" x="0" y="0" width="80" height="80"></rect>
        </g>
        <g id="Icon-Service/64/Amazon-Managed-Workflows-for-Apache-Airflow_64" transform="translate(12.000000, 12.084000)" fill="#FFFFFF">
            <path d="M49.084,48 C46.374,48 44.169,45.795 44.169,43.084 C44.169,40.374 46.374,38.168 49.084,38.168 C51.795,38.168 54,40.374 54,43.084 C54,45.795 51.795,48 49.084,48 L49.084,48 Z M49.084,36.168 C45.271,36.168 42.169,39.271 42.169,43.084 C42.169,46.897 45.271,50 49.084,50 C52.897,50 56,46.897 56,43.084 C56,39.271 52.897,36.168 49.084,36.168 L49.084,36.168 Z M49.084,33 C46.374,33 44.169,30.795 44.169,28.084 C44.169,25.374 46.374,23.168 49.084,23.168 C51.795,23.168 54,25.374 54,28.084 C54,30.795 51.795,33 49.084,33 L49.084,33 Z M49.084,21.168 C45.271,21.168 42.169,24.271 42.169,28.084 C42.169,31.897 45.271,35 49.084,35 C52.897,35 56,31.897 56,28.084 C56,24.271 52.897,21.168 49.084,21.168 L49.084,21.168 Z M49.084,17.832 C46.374,17.832 44.169,15.626 44.169,12.916 C44.169,10.205 46.374,8 49.084,8 C51.795,8 54,10.205 54,12.916 C54,15.626 51.795,17.832 49.084,17.832 L49.084,17.832 Z M49.084,6 C45.271,6 42.169,9.103 42.169,12.916 C42.169,16.729 45.271,19.832 49.084,19.832 C52.897,19.832 56,16.729 56,12.916 C56,9.103 52.897,6 49.084,6 L49.084,6 Z M56,0 L56,2 L38,2 L38,54 L56,54 L56,56 L37,56 C36.447,56 36,55.552 36,55 L36,29 L20.105,29 L20.105,27 L36,27 L36,1 C36,0.448 36.447,0 37,0 L56,0 Z M2,34.333 L2,21.667 L13.875,28 L2,34.333 Z M16.471,27.118 L1.471,19.118 C1.159,18.951 0.786,18.962 0.485,19.143 C0.185,19.323 0,19.649 0,20 L0,36 C0,36.351 0.185,36.677 0.485,36.857 C0.644,36.952 0.821,37 1,37 C1.161,37 1.323,36.961 1.471,36.882 L16.471,28.882 C16.797,28.708 17,28.369 17,28 C17,27.631 16.797,27.292 16.471,27.118 L16.471,27.118 Z M2,14 L14,14 L14,2 L2,2 L2,14 Z M1,16 L15,16 C15.553,16 16,15.552 16,15 L16,1 C16,0.448 15.553,0 15,0 L1,0 C0.447,0 0,0.448 0,1 L0,15 C0,15.552 0.447,16 1,16 L1,16 Z M8.258,54 C4.808,54 2,51.192 2,47.742 C2,44.291 4.808,41.484 8.258,41.484 C11.709,41.484 14.517,44.291 14.517,47.742 C14.517,51.192 11.709,54 8.258,54 L8.258,54 Z M8.258,39.484 C3.704,39.484 0,43.188 0,47.742 C0,52.295 3.704,56 8.258,56 C12.812,56 16.517,52.295 16.517,47.742 C16.517,43.188 12.812,39.484 8.258,39.484 L8.258,39.484 Z" id="Fill-1"></path>
        </g>
    </g>
</svg>