<?xml version="1.0" encoding="UTF-8"?>
<svg width="80px" height="80px" viewBox="0 0 80 80" version="1.1" xmlns="http://www.w3.org/2000/svg" xmlns:xlink="http://www.w3.org/1999/xlink">
    <title>Icon-Architecture/64/Arch_AWS-B2B-Data-Interchange_64</title>
    <g id="Icon-Architecture/64/Arch_AWS-B2B-Data-Interchange_64" stroke="none" stroke-width="1" fill="none" fill-rule="evenodd">
        <g id="Icon-Architecture-BG/64/Application-Integration" fill="#E7157B">
            <rect id="Rectangle" x="0" y="0" width="80" height="80"></rect>
        </g>
        <g id="Icon-Service/64/AWS-B2B-Data-Interchange_64" transform="translate(12.000000, 12.000000)" fill="#FFFFFF">
            <path d="M14,43 L14,55 C14,55.552 13.553,56 13,56 L1,56 C0.447,56 3.55271368e-15,55.552 3.55271368e-15,55 L3.55271368e-15,43 C3.55271368e-15,42.448 0.447,42 1,42 L4,42 L4,44 L2,44 L2,54 L12,54 L12,44 L10,44 L10,42 L13,42 C13.553,42 14,42.448 14,43 L14,43 Z M23.587,26.001 L15.998,26.001 C11.587,26.001 7.998,29.59 7.998,34.001 L7.998,50 L5.998,50 L5.998,34.001 C5.998,28.487 10.484,24.001 15.998,24.001 L23.587,24.001 L20.294,20.708 L21.708,19.294 L26.708,24.294 C27.099,24.685 27.099,25.318 26.708,25.708 L21.708,30.708 L20.294,29.294 L23.587,26.001 Z M44,30.001 L44,20.001 L34,20.001 L34,30.001 L36,30.001 L36,32.001 L33,32.001 C32.447,32.001 32,31.553 32,31.001 L32,19.001 C32,18.449 32.447,18.001 33,18.001 L45,18.001 C45.553,18.001 46,18.449 46,19.001 L46,31.001 C46,31.553 45.553,32.001 45,32.001 L42,32.001 L42,30.001 L44,30.001 Z M30.003,49.999 L22.413,49.999 L25.706,53.292 L24.292,54.706 L19.292,49.706 C18.901,49.315 18.901,48.683 19.292,48.292 L24.292,43.292 L25.706,44.706 L22.413,47.999 L30.003,47.999 C34.414,47.999 38.003,44.41 38.003,39.999 L38.003,24.001 L40.003,24.001 L40.003,39.999 C40.003,45.513 35.517,49.999 30.003,49.999 L30.003,49.999 Z M47.001,3.414 L52.586,9 L47.001,9 L47.001,3.414 Z M55.708,9.293 L46.708,0.293 C46.521,0.105 46.267,0 46.001,0 L15.001,0 C14.448,0 14.001,0.448 14.001,1 L14.001,18 L16.001,18 L16.001,2 L45.001,2 L45.001,10 C45.001,10.552 45.448,11 46.001,11 L54.001,11 L54.001,53.999 L33.056,53.999 L33.056,55.999 L55.001,55.999 C55.554,55.999 56.001,55.551 56.001,54.999 L56.001,10 C56.001,9.735 55.896,9.481 55.708,9.293 L55.708,9.293 Z" id="Fill-1"></path>
        </g>
    </g>
</svg>