<?xml version="1.0" encoding="UTF-8"?>
<svg width="48px" height="48px" viewBox="0 0 48 48" version="1.1" xmlns="http://www.w3.org/2000/svg" xmlns:xlink="http://www.w3.org/1999/xlink">
    <title>Icon-Resource/End-User-Computing/Res_Amazon-WorkSpaces-Family_Amazon-WorkSpaces-Core_48</title>
    <g id="Icon-Resource/End-User-Computing/Res_Amazon-WorkSpaces-Family_Amazon-WorkSpaces-Core_48" stroke="none" stroke-width="1" fill="none" fill-rule="evenodd">
        <path d="M46,22.448209 C46,29.424209 41.96,30.993209 40.545,30.993209 L39,30.993209 L39,28.993209 L40.545,28.993209 C41.274,28.993209 44,27.883209 44,22.448209 C44,17.423209 39.744,16.150209 37.914,15.837209 C37.378,15.744209 37.014,15.240209 37.094,14.702209 C37.096,12.525209 36.174,10.936209 34.566,10.406209 C33.144,9.93520902 31.573,10.449209 30.661,11.681209 C30.44,11.978209 30.078,12.131209 29.709,12.075209 C29.344,12.020209 29.038,11.768209 28.915,11.420209 C28.288,9.64720902 27.38,8.15720902 26.216,6.99220902 C24.791,5.56520902 20.881,2.49420902 15.358,4.83020902 C12.172,6.17720902 9.677,10.058209 9.677,13.666209 L9.753,14.926209 C9.781,15.404209 9.467,15.835209 9.003,15.954209 C7.135,16.431209 4,17.902209 4,22.384209 C4,25.754209 5.832,27.612209 7.369,28.578209 C7.838,28.872209 8.311,28.992209 9.001,28.993209 L8.999,30.993209 C7.943,30.992209 7.087,30.762209 6.305,30.271209 C4.697,29.261209 2,26.893209 2,22.384209 C2,17.053209 5.531,15.009209 7.71,14.256209 L7.679,13.725209 C7.677,9.24220902 10.645,4.65120902 14.579,2.98820902 C19.187,1.03920902 24.065,2.00920902 27.631,5.57920902 C28.676,6.62520902 29.542,7.88020902 30.217,9.32420902 C31.628,8.27320902 33.475,7.94020902 35.193,8.50620902 C37.441,9.24820902 38.856,11.288209 39.068,14.036209 C42.557,14.897209 46,17.487209 46,22.448209 L46,22.448209 Z M25,43.254209 L25,31.568209 L35,25.734209 L35,37.419209 L25,43.254209 Z M13.006,25.738209 L23,31.568209 L23,43.250209 L13.006,37.419209 L13.006,25.738209 Z M24.004,18.152209 L34.016,23.993209 L24,29.836209 L14,24.003209 L24.004,18.152209 Z M36.504,23.130209 L24.507,16.130209 C24.195,15.947209 23.81,15.948209 23.498,16.130209 L11.584,23.098209 C11.326,23.220209 11.121,23.449209 11.038,23.739209 C11.002,23.866209 10.992,23.996209 11.006,24.122209 L11.006,37.993209 C11.006,38.349209 11.194,38.678209 11.502,38.857209 L23.499,45.857209 C23.654,45.948209 23.829,45.993209 24.003,45.993209 C24.177,45.993209 24.352,45.948209 24.507,45.857209 L36.504,38.857209 C36.812,38.678209 37,38.349209 37,37.993209 L37,23.993209 C37,23.638209 36.812,23.309209 36.504,23.130209 L36.504,23.130209 Z" id="Fill-1" fill="#01A88D"></path>
    </g>
</svg>