<?xml version="1.0" encoding="UTF-8"?>
<svg width="48px" height="48px" viewBox="0 0 48 48" version="1.1" xmlns="http://www.w3.org/2000/svg" xmlns:xlink="http://www.w3.org/1999/xlink">
    <title>Icon-Resource/End-User-Computing/Res_Amazon-WorkSpaces-Family_Amazon-WorkSpaces-Web_48</title>
    <g id="Icon-Resource/End-User-Computing/Res_Amazon-WorkSpaces-Family_Amazon-WorkSpaces-Web_48" stroke="none" stroke-width="1" fill="none" fill-rule="evenodd">
        <path d="M25,42.26 L25,30.574 L35,24.741 L35,36.425 L25,42.26 Z M13,24.744 L23,30.574 L23,42.257 L13,36.425 L13,24.744 Z M24.004,17.158 L34.016,22.999 L24,28.842 L14,23.009 L24.004,17.158 Z M36.504,22.136 L24.507,15.136 C24.195,14.953 23.81,14.954 23.498,15.136 L11.584,22.104 C11.326,22.226 11.121,22.456 11.038,22.745 C11.002,22.872 10.992,23.002 11.006,23.128 L11.006,37 C11.006,37.355 11.194,37.684 11.502,37.863 L23.499,44.863 C23.654,44.954 23.829,45 24.003,45 C24.177,45 24.352,44.954 24.507,44.863 L36.504,37.863 C36.812,37.684 37,37.355 37,37 L37,23 C37,22.644 36.812,22.315 36.504,22.136 L36.504,22.136 Z M13.012,7 C13.012,7.552 12.564,8 12.012,8 C11.46,8 11.012,7.552 11.012,7 C11.012,6.447 11.46,6 12.012,6 C12.564,6 13.012,6.447 13.012,7 L13.012,7 Z M10.012,7 C10.012,7.552 9.564,8 9.012,8 C8.46,8 8.012,7.552 8.012,7 C8.012,6.447 8.46,6 9.012,6 C9.564,6 10.012,6.447 10.012,7 L10.012,7 Z M7.012,7 C7.012,7.552 6.564,8 6.012,8 C5.46,8 5.012,7.552 5.012,7 C5.012,6.447 5.46,6 6.012,6 C6.564,6 7.012,6.447 7.012,7 L7.012,7 Z M40,31 L42,31 L42,13 L40,13 L40,31 Z M4,9 L4,5 L44,5 L44,9 L4,9 Z M44,3 L4,3 C2.897,3 2,3.896 2,5 L2.002,33 C2.002,34.103 2.899,35 4.002,35 L9,35 L9,33 L4,33 L4,11 L44,11 L44,33 L39,33 L39,35 L44,35 C45.103,35 46,34.103 46,33 L46,5 C46,3.896 45.103,3 44,3 L44,3 Z" id="Fill-1" fill="#01A88D"></path>
    </g>
</svg>