<?xml version="1.0" encoding="UTF-8"?>
<svg width="48px" height="48px" viewBox="0 0 48 48" version="1.1" xmlns="http://www.w3.org/2000/svg" xmlns:xlink="http://www.w3.org/1999/xlink">
    <title>Icon-Resource/End-User-Computing/Res_Amazon-WorkSpaces-Family_Amazon-WorkSpaces_48</title>
    <g id="Icon-Resource/End-User-Computing/Res_Amazon-WorkSpaces-Family_Amazon-WorkSpaces_48" stroke="none" stroke-width="1" fill="none" fill-rule="evenodd">
        <path d="M5.0307,10.5417085 L13.0237,6.12870845 L16.9237,8.07870845 L8.9917,12.8387085 L5.0307,10.5417085 Z M7.9997,26.1307085 L3.9997,23.4647085 L3.9997,12.2567085 L7.9997,14.5757085 L7.9997,26.1307085 Z M19.5147,8.85670845 C19.8267,8.66970845 20.0137,8.32570845 19.9987,7.96070845 C19.9857,7.59670845 19.7737,7.26870845 19.4477,7.10470845 L13.4477,4.10470845 C13.1537,3.95870845 12.8047,3.96570845 12.5167,4.12370845 L2.5167,9.64470845 L2.5177,9.64670845 C2.5127,9.64970845 2.5067,9.65070845 2.5007,9.65370845 C2.1917,9.83270845 1.9997,10.1627085 1.9997,10.5207085 L1.9997,23.9997085 C1.9997,24.3337085 2.1667,24.6457085 2.4457,24.8317085 L8.4457,28.8317085 C8.6127,28.9437085 8.8057,28.9997085 8.9997,28.9997085 C9.1617,28.9997085 9.3247,28.9607085 9.4717,28.8817085 C9.7967,28.7067085 9.9997,28.3677085 9.9997,27.9997085 L9.9997,14.5657085 L19.5147,8.85670845 Z M33.8197,26.6657085 L36.4077,28.1827085 L35.3957,29.9087085 L32.8077,28.3907085 L33.8197,26.6657085 Z M38.1347,29.1977085 L40.7177,30.7227085 L39.6997,32.4447085 L37.1167,30.9187085 L38.1347,29.1977085 Z M14.9997,33.4647085 L14.9997,27.4867085 L17.6157,25.4447085 L16.3847,23.8687085 L14.9997,24.9497085 L14.9997,17.7657085 L20.2027,20.8867085 L18.5067,22.2117085 L19.7377,23.7877085 L22.0397,21.9897085 L27.9997,25.5657085 L27.9997,42.1307085 L14.9997,33.4647085 Z M20.9997,12.9657085 L20.9997,13.9997085 L22.9997,13.9997085 L22.9997,11.7657085 L29.0147,8.15770845 L42.9597,16.0657085 L29.0187,23.8447085 L22.9997,20.2337085 L22.9997,16.9997085 L20.9997,16.9997085 L20.9997,19.0337085 L15.9437,15.9997085 L20.9997,12.9657085 Z M42.4407,31.7397085 L41.4227,33.4617085 L43.0437,34.4187085 L29.9997,42.2347085 L29.9997,26.7447085 L31.0817,27.3797085 L32.0937,25.6537085 L31.0137,25.0207085 L43.9997,17.7757085 L43.9997,32.6607085 L42.4407,31.7397085 Z M45.9997,16.0737085 C45.9997,15.7137085 45.8067,15.3817085 45.4927,15.2037085 L29.4927,6.12970845 C29.1797,5.95170845 28.7947,5.95470845 28.4857,6.14170845 L13.4857,15.1417085 C13.1847,15.3227085 12.9997,15.6487085 12.9997,15.9997085 L12.9997,33.9997085 C12.9997,34.3337085 13.1667,34.6457085 13.4457,34.8317085 L28.4457,44.8317085 C28.6127,44.9437085 28.8057,44.9997085 28.9997,44.9997085 C29.1617,44.9997085 29.3247,44.9607085 29.4717,44.8817085 C29.4867,44.8737085 29.4967,44.8617085 29.5107,44.8527085 L29.5137,44.8577085 L45.5137,35.2707085 C45.8157,35.0897085 45.9997,34.7637085 45.9997,34.4127085 L45.9997,16.0737085 Z" id="Fill-1" fill="#01A88D"></path>
    </g>
</svg>