<?xml version="1.0" encoding="UTF-8"?>
<svg width="48px" height="48px" viewBox="0 0 48 48" version="1.1" xmlns="http://www.w3.org/2000/svg" xmlns:xlink="http://www.w3.org/1999/xlink">
    <title>Icon-Resource/Media-Services/Res_AWS-Elemental-MediaConnect_Gateway_48</title>
    <g id="Icon-Resource/Media-Services/Res_AWS-Elemental-MediaConnect_Gateway_48" stroke="none" stroke-width="1" fill="none" fill-rule="evenodd">
        <path d="M22.000739,21.2011 L27.094739,23.9681 L22.000739,26.7571 L22.000739,21.2011 Z M20.489739,18.6601 C20.186739,18.8401 20.000739,19.1671 20.000739,19.5191 L20.000739,28.4451 C20.000739,28.7981 20.187739,29.1251 20.490739,29.3051 C20.647739,29.3981 20.823739,29.4451 21.000739,29.4451 C21.165739,29.4451 21.330739,29.4041 21.480739,29.3221 L29.662739,24.8421 C29.983739,24.6661 30.183739,24.3291 30.1827427,23.9631 C30.181739,23.5971 29.980739,23.2611 29.659739,23.0861 L21.478739,18.6401 C21.167739,18.4731 20.793739,18.4791 20.489739,18.6601 L20.489739,18.6601 Z M43.955739,25.4221 C43.842739,25.9441 43.532739,26.3911 43.083739,26.6801 C42.634739,26.9711 42.099739,27.0661 41.577739,26.9541 C41.056739,26.8411 40.608739,26.5311 40.319739,26.0821 C40.029739,25.6331 39.933739,25.0981 40.045739,24.5761 C40.158739,24.0551 40.468739,23.6081 40.916739,23.3191 C40.917739,23.3191 40.917739,23.3191 40.917739,23.3181 C41.243739,23.1081 41.616739,22.9991 41.995739,22.9991 C42.138739,22.9991 42.280739,23.0141 42.423739,23.0451 C42.944739,23.1581 43.392739,23.4681 43.681739,23.9161 C43.971739,24.3661 44.067739,24.9001 43.955739,25.4221 L43.955739,25.4221 Z M33.000739,29.1791 L24.000739,34.3741 L15.000739,29.1791 L15.000739,18.7861 L24.000739,13.5901 L33.000739,18.7861 L33.000739,29.1791 Z M35.423739,40.0451 C35.944739,40.1581 36.392739,40.4681 36.681739,40.9161 C36.971739,41.3661 37.067739,41.9001 36.955739,42.4221 C36.842739,42.9441 36.532739,43.3911 36.083739,43.6801 C35.634739,43.9701 35.099739,44.0641 34.577739,43.9541 C34.056739,43.8411 33.608739,43.5311 33.319739,43.0821 C33.029739,42.6331 32.933739,42.0981 33.045739,41.5761 C33.158739,41.0551 33.468739,40.6081 33.916739,40.3191 C33.917739,40.3191 33.917739,40.3191 33.917739,40.3181 C34.243739,40.1081 34.616739,39.9991 34.995739,39.9991 C35.138739,39.9991 35.280739,40.0141 35.423739,40.0451 L35.423739,40.0451 Z M13.681739,43.0821 C13.392739,43.5311 12.944739,43.8411 12.423739,43.9541 C11.896739,44.0671 11.365739,43.9691 10.916739,43.6801 C10.468739,43.3911 10.158739,42.9441 10.045739,42.4221 C9.93373899,41.9001 10.029739,41.3661 10.319739,40.9161 C10.608739,40.4681 11.056739,40.1581 11.577739,40.0451 C11.720739,40.0141 11.862739,39.9991 12.005739,39.9991 C12.384739,39.9991 12.757739,40.1081 13.083739,40.3181 C13.083739,40.3191 13.083739,40.3191 13.084739,40.3191 C13.532739,40.6081 13.842739,41.0551 13.955739,41.5761 C14.067739,42.0981 13.971739,42.6331 13.681739,43.0821 L13.681739,43.0821 Z M7.95573899,25.4221 C7.84273899,25.9441 7.53273899,26.3911 7.08373899,26.6801 C6.63473899,26.9711 6.09973899,27.0661 5.57773899,26.9541 C5.05673899,26.8411 4.60873899,26.5311 4.31973899,26.0821 C4.02973899,25.6331 3.93373899,25.0981 4.04573899,24.5761 C4.15873899,24.0551 4.46873899,23.6081 4.91673899,23.3191 C4.91773899,23.3191 4.91773899,23.3191 4.91773899,23.3181 C5.24373899,23.1081 5.61673899,22.9991 5.99573899,22.9991 C6.13873899,22.9991 6.28073899,23.0141 6.42373899,23.0451 C6.94473899,23.1581 7.39273899,23.4681 7.68173899,23.9161 C7.97173899,24.3661 8.06773899,24.9001 7.95573899,25.4221 L7.95573899,25.4221 Z M11.577739,7.9541 C11.056739,7.8411 10.608739,7.5311 10.319739,7.0821 C10.029739,6.6331 9.93373899,6.0981 10.045739,5.5761 C10.158739,5.0551 10.468739,4.6081 10.916739,4.3191 C10.917739,4.3191 10.917739,4.3191 10.917739,4.3181 C11.243739,4.1081 11.616739,3.9991 11.995739,3.9991 C12.138739,3.9991 12.280739,4.0141 12.423739,4.0451 C12.944739,4.1581 13.392739,4.4681 13.681739,4.9161 C13.971739,5.3661 14.067739,5.9001 13.955739,6.4221 C13.842739,6.9441 13.532739,7.3911 13.083739,7.6801 C12.634739,7.9701 12.100739,8.0651 11.577739,7.9541 L11.577739,7.9541 Z M33.319739,4.9161 C33.608739,4.4681 34.056739,4.1581 34.577739,4.0451 C34.720739,4.0141 34.862739,3.9991 35.005739,3.9991 C35.384739,3.9991 35.757739,4.1081 36.083739,4.3181 C36.083739,4.3191 36.083739,4.3191 36.084739,4.3191 C36.532739,4.6081 36.842739,5.0551 36.955739,5.5761 C37.067739,6.0981 36.971739,6.6331 36.681739,7.0821 C36.392739,7.5311 35.944739,7.8411 35.423739,7.9541 C34.897739,8.0671 34.365739,7.9691 33.916739,7.6801 C33.468739,7.3911 33.158739,6.9441 33.045739,6.4221 C32.933739,5.9001 33.029739,5.3661 33.319739,4.9161 L33.319739,4.9161 Z M45.362739,22.8331 C44.168739,20.9801 41.690739,20.4421 39.833739,21.6381 C38.982739,22.1861 38.392739,23.0241 38.140739,23.9991 L35.000739,23.9991 L35.000739,18.2091 C35.000739,17.8511 34.810739,17.5211 34.500739,17.3431 L30.595739,15.0881 L33.941739,9.8531 C34.287739,9.9481 34.641739,9.9981 34.993739,9.9981 C36.309739,9.9981 37.598739,9.3511 38.362739,8.1651 C38.940739,7.2671 39.135739,6.1981 38.909739,5.1541 C38.684739,4.1091 38.064739,3.2161 37.167739,2.6381 C35.311739,1.4401 32.833739,1.9791 31.638739,3.8331 C31.060739,4.7311 30.865739,5.8011 31.091739,6.8451 C31.259739,7.6231 31.646739,8.3151 32.203739,8.8581 L28.861739,14.0871 L24.500739,11.5691 C24.191739,11.3901 23.809739,11.3901 23.500739,11.5691 L18.391739,14.5191 L14.822739,8.8291 C15.364739,8.2901 15.744739,7.6101 15.909739,6.8451 C16.135739,5.8011 15.940739,4.7311 15.362739,3.8331 C14.167739,1.9801 11.690739,1.4411 9.83373899,2.6381 C8.93673899,3.2161 8.31673899,4.1091 8.09173899,5.1541 C7.86573899,6.1981 8.06073899,7.2671 8.63873899,8.1651 C9.40273899,9.3511 10.691739,9.9981 12.007739,9.9981 C12.372739,9.9981 12.740739,9.9471 13.099739,9.8441 L16.659739,15.5191 L13.500739,17.3431 C13.190739,17.5211 13.000739,17.8511 13.000739,18.2091 L13.000739,23.9991 L9.85673899,23.9991 C9.75073899,23.5931 9.59673899,23.1971 9.36273899,22.8331 C8.16773899,20.9801 5.68973899,20.4421 3.83373899,21.6381 C2.93673899,22.2161 2.31673899,23.1091 2.09173899,24.1541 C1.86573899,25.1981 2.06073899,26.2671 2.63873899,27.1651 C3.40273899,28.3511 4.69173899,28.9981 6.00773899,28.9981 C6.74873899,28.9981 7.49873899,28.7921 8.16673899,28.3621 C9.01873899,27.8131 9.60873899,26.9751 9.86073899,25.9991 L13.000739,25.9991 L13.000739,29.7561 C13.000739,30.1131 13.190739,30.4431 13.500739,30.6221 L16.872739,32.5691 L13.285739,38.2251 C11.587739,37.6471 9.65273899,38.2601 8.63873899,39.8331 C8.06073899,40.7311 7.86573899,41.8011 8.09173899,42.8451 C8.31673899,43.8891 8.93673899,44.7831 9.83373899,45.3611 C10.502739,45.7921 11.252739,45.9981 11.993739,45.9981 C13.309739,45.9981 14.598739,45.3511 15.362739,44.1651 C15.940739,43.2671 16.135739,42.1981 15.909739,41.1541 C15.759739,40.4581 15.421739,39.8401 14.955739,39.3271 L18.606739,33.5701 L23.500739,36.3951 C23.654739,36.4851 23.827739,36.5291 24.000739,36.5291 C24.173739,36.5291 24.346739,36.4851 24.500739,36.3951 L28.695739,33.9731 L32.106739,39.2551 C31.606739,39.7811 31.248739,40.4261 31.091739,41.1541 C30.865739,42.1981 31.060739,43.2671 31.638739,44.1651 C32.402739,45.3511 33.691739,45.9981 35.007739,45.9981 C35.748739,45.9981 36.498739,45.7921 37.166739,45.3621 C38.064739,44.7831 38.684739,43.8891 38.909739,42.8451 C39.135739,41.8011 38.940739,40.7311 38.362739,39.8331 C37.366739,38.2881 35.481739,37.6741 33.805739,38.2001 L30.429739,32.9721 L34.500739,30.6221 C34.810739,30.4431 35.000739,30.1131 35.000739,29.7561 L35.000739,25.9991 L38.144739,25.9991 C38.250739,26.4061 38.404739,26.8021 38.638739,27.1651 C39.402739,28.3511 40.691739,28.9981 42.007739,28.9981 C42.748739,28.9981 43.498739,28.7921 44.166739,28.3621 C45.064739,27.7831 45.684739,26.8891 45.909739,25.8451 C46.135739,24.8011 45.940739,23.7311 45.362739,22.8331 L45.362739,22.8331 Z" id="Fill-1" fill="#ED7100"></path>
    </g>
</svg>