<svg width="40" height="40" viewBox="0 0 40 40" fill="none" xmlns="http://www.w3.org/2000/svg">
<rect width="40" height="40" fill="#C925D1"/>
<path d="M21 32.8091C19.9477 32.9279 18.7815 33 17.5 33C11.6143 33 8 31.5439 8 30.5V25.0774C9.77246 26.3435 13.6503 27 17.5 27C18.6873 27 19.8699 26.9301 21 26.8065V25.8091C19.9477 25.9279 18.7815 26 17.5 26C11.6143 26 8 24.5439 8 23.5V18.0774C9.77246 19.3435 13.6503 20 17.5 20C18.6873 20 19.8699 19.9301 21 19.8065V18.8091C19.9477 18.9279 18.7815 19 17.5 19C11.6143 19 8 17.5439 8 16.5V11.0774C9.77246 12.3435 13.6503 13 17.5 13C21.3497 13 25.2275 12.3435 27 11.0774V13H28V9.5C28 7.20215 22.7178 6 17.5 6C12.2822 6 7 7.20215 7 9.5V30.5C7 32.7978 12.2822 34 17.5 34C18.6852 34 19.8708 33.9348 21 33.812V32.8091ZM17.5 7C23.3857 7 27 8.45605 27 9.5C27 10.5439 23.3857 12 17.5 12C11.6143 12 8 10.5439 8 9.5C8 8.45605 11.6143 7 17.5 7ZM32.5 34H22.5C22.2236 34 22 33.7764 22 33.5V14.5C22 14.2236 22.2236 14 22.5 14H32.5C32.7764 14 33 14.2236 33 14.5V33.5C33 33.7764 32.7764 34 32.5 34ZM23 33H32V15H23V33ZM28 17H24V16H28V17ZM31 19H24V18H31V19ZM31 32H29.8593L27.5 27.5707L25.1407 32H24L26.9297 26.5L24 21H25.1407L27.5 25.4293L29.8593 21H31L28.0703 26.5L31 32Z" fill="white"/>
</svg>
