<?xml version="1.0" encoding="UTF-8"?>
<svg width="64px" height="64px" viewBox="0 0 64 64" version="1.1" xmlns="http://www.w3.org/2000/svg" xmlns:xlink="http://www.w3.org/1999/xlink">
    <title>Icon-Architecture/48/Arch_AWS-CloudShell_48</title>
    <g id="Icon-Architecture/48/Arch_AWS-CloudShell_48" stroke="none" stroke-width="1" fill="none" fill-rule="evenodd">
        <g id="Icon-Architecture-BG/48/Developer-Tools" fill="#C925D1">
            <rect id="Rectangle" x="0" y="0" width="64" height="64"></rect>
        </g>
        <g id="Icon-Service/48/AWS-CloudShell_48" transform="translate(10.000000, 10.660000)" fill="#FFFFFF">
            <path d="M27,37.3417264 L38,37.3417264 L38,35.3417264 L27,35.3417264 L27,37.3417264 Z M16.4,35.5417264 L17.6,37.1417264 L25.6,31.1417264 C25.841,30.9607264 25.988,30.6807264 25.999,30.3797264 C26.011,30.0777264 25.886,29.7877264 25.658,29.5897264 L17.658,22.5897264 L16.342,24.0937264 L23.413,30.2817264 L16.4,35.5417264 Z M12,41.3417264 L42,41.3417264 L42,18.3417264 L12,18.3417264 L12,41.3417264 Z M44,17.3417264 L44,42.3417264 C44,42.8937264 43.553,43.3417264 43,43.3417264 L11,43.3417264 C10.447,43.3417264 10,42.8937264 10,42.3417264 L10,17.3417264 C10,16.7897264 10.447,16.3417264 11,16.3417264 L43,16.3417264 C43.553,16.3417264 44,16.7897264 44,17.3417264 L44,17.3417264 Z M27.76,11.9017264 C26.856,10.5627264 25.218,10.1537264 24.555,10.0387264 C24.019,9.94672638 23.654,9.44172638 23.736,8.90272638 C23.733,7.61672638 23.189,6.64772638 22.239,6.33572638 C21.413,6.06472638 20.499,6.36572638 19.967,7.08872638 C19.748,7.38672638 19.378,7.53772638 19.015,7.48472638 C18.648,7.42972638 18.342,7.17672638 18.219,6.82772638 C17.811,5.66872638 17.222,4.69672638 16.469,3.93872638 C15.552,3.01572638 13.034,1.03172638 9.484,2.53972638 C7.475,3.39372638 5.839,5.95372638 5.839,8.24772638 L5.89,9.08672638 C5.918,9.56372638 5.604,9.99472638 5.141,10.1137264 C3.968,10.4147264 2,11.3417264 2,14.1717264 C2,16.3157264 3.157,17.4967264 4.129,18.1097264 C4.233,18.1607264 4.683,18.2717264 5.083,18.3417264 L7,18.3417264 L7,20.3417264 L5,20.3417264 C4.946,20.3417264 4.894,20.3377264 4.841,20.3287264 C4.367,20.2527264 3.506,20.0817264 3.061,19.8007264 C1.918,19.0787264 3.55271368e-15,17.3877264 3.55271368e-15,14.1717264 C3.55271368e-15,11.4487264 1.422,9.35472638 3.848,8.42872638 L3.841,8.30672638 C3.839,5.12172638 5.93,1.87672638 8.703,0.698726376 C11.946,-0.679273624 15.38,0.00672637638 17.887,2.52872638 C18.537,3.18272638 19.088,3.95172638 19.533,4.82372638 C20.52,4.22472638 21.728,4.06272638 22.864,4.43572638 C24.457,4.95872638 25.481,6.35972638 25.692,8.24972638 C26.785,8.55772638 28.383,9.25072638 29.418,10.7817264 L29.418,10.7827264 C30.07,11.7487264 30.401,12.9037264 30.401,14.2157264 L28.401,14.2157264 C28.401,13.3097264 28.186,12.5307264 27.761,11.9017264 L27.76,11.9017264 Z" id="Fill-4"></path>
        </g>
    </g>
</svg>