<?xml version="1.0" encoding="UTF-8"?>
<svg width="64px" height="64px" viewBox="0 0 64 64" version="1.1" xmlns="http://www.w3.org/2000/svg" xmlns:xlink="http://www.w3.org/1999/xlink">
    <title>Icon-Architecture/48/Arch_Amazon-Corretto_48</title>
    <g id="Icon-Architecture/48/Arch_Amazon-Corretto_48" stroke="none" stroke-width="1" fill="none" fill-rule="evenodd">
        <g id="Icon-Architecture-BG/48/Developer-Tools" fill="#C925D1">
            <rect id="Rectangle" x="0" y="0" width="64" height="64"></rect>
        </g>
        <g id="Icon-Service/48/Amazon-Corretto_48" transform="translate(10.000000, 10.000000)" fill="#FFFFFF">
            <path d="M17.066,5 L20.066,5 L20.066,2 L17.066,2 L17.066,5 Z M15.066,6 L15.066,1 C15.066,0.448 15.513,0 16.066,0 L21.066,0 C21.619,0 22.066,0.448 22.066,1 L22.066,6 C22.066,6.552 21.619,7 21.066,7 L16.066,7 C15.513,7 15.066,6.552 15.066,6 L15.066,6 Z M26.066,10 L29.066,10 L29.066,7 L26.066,7 L26.066,10 Z M24.066,11 L24.066,6 C24.066,5.448 24.513,5 25.066,5 L30.066,5 C30.619,5 31.066,5.448 31.066,6 L31.066,11 C31.066,11.552 30.619,12 30.066,12 L25.066,12 C24.513,12 24.066,11.552 24.066,11 L24.066,11 Z M15.066,13.994 L19.066,13.994 L19.066,10 L15.066,10 L15.066,13.994 Z M13.066,14.994 L13.066,9 C13.066,8.448 13.513,8 14.066,8 L20.066,8 C20.619,8 21.066,8.448 21.066,9 L21.066,14.994 C21.066,15.546 20.619,15.994 20.066,15.994 L14.066,15.994 C13.513,15.994 13.066,15.546 13.066,14.994 L13.066,14.994 Z M20.066,27 L35.066,27 L35.066,25 L20.066,25 L20.066,27 Z M6.565,28 L8.935,28 C8.379,26.417 8.066,24.729 8.066,22.971 L8.066,18 L6.565,18 C4.296,18 2,19.639 2,22.77 C2,25.654 4.047,28 6.565,28 L6.565,28 Z M6.565,30 C2.945,30 0,26.757 0,22.77 C0,18.911 2.822,16 6.565,16 L8.066,16 L8.066,14 C8.066,13.448 8.513,13 9.066,13 L11.935,13 L11.935,15 L10.066,15 L10.066,22.971 C10.066,23.662 10.137,24.336 10.242,25 L17.066,25 L17.066,27 L10.704,27 C12.56,32.777 18.293,37 25.066,37 C33.047,37 39.066,30.969 39.066,22.971 L39.066,22 L13.066,22 L13.066,20 L39.066,20 L39.066,15 L22.066,15 L22.066,13 L40.066,13 C40.619,13 41.066,13.448 41.066,14 L41.066,22.971 C41.066,32.109 34.187,39 25.066,39 C18.369,39 12.58,35.32 9.811,30 L6.565,30 Z M43.981,37.083 C43.981,41.576 34.085,44 24.773,44 C15.462,44 5.565,41.576 5.565,37.083 C5.565,35.842 6.347,34.041 10.075,32.502 L10.838,34.35 C8.789,35.196 7.565,36.218 7.565,37.083 C7.565,39.136 14.112,42 24.773,42 C35.434,42 41.981,39.136 41.981,37.083 C41.981,36.218 40.757,35.196 38.709,34.35 L39.472,32.502 C43.199,34.041 43.981,35.842 43.981,37.083 L43.981,37.083 Z" id="Fill-3"></path>
        </g>
    </g>
</svg>