<?xml version="1.0" encoding="UTF-8"?>
<svg width="64px" height="64px" viewBox="0 0 64 64" version="1.1" xmlns="http://www.w3.org/2000/svg" xmlns:xlink="http://www.w3.org/1999/xlink">
    <title>Icon-Architecture/48/Arch_AWS-Cloud-Control-API_48</title>
    <g id="Icon-Architecture/48/Arch_AWS-Cloud-Control-API_48" stroke="none" stroke-width="1" fill="none" fill-rule="evenodd">
        <g id="Icon-Architecture-BG/48/Developer-Tools" fill="#C925D1">
            <rect id="Rectangle" x="0" y="0" width="64" height="64"></rect>
        </g>
        <g id="Icon-Service/48/AWS-Cloud-Control-API_48" transform="translate(10.000000, 15.000000)" fill="#FFFFFF">
            <path d="M2,21.9928816 C2,19.2358816 4.243,16.9928816 7,16.9928816 L25.586,16.9928816 L22.293,20.2858816 L23.707,21.6998816 L28.707,16.6998816 C29.098,16.3088816 29.098,15.6768816 28.707,15.2858816 L23.707,10.2858816 L22.293,11.6998816 L25.586,14.9928816 L7,14.9928816 C3.141,14.9928816 0,18.1328816 0,21.9928816 C0,25.8528816 3.141,28.9928816 7,28.9928816 L8.905,28.9928816 L8.905,26.9928816 L7,26.9928816 C4.243,26.9928816 2,24.7498816 2,21.9928816 M44,20.4958816 C44,26.8058816 38.764,28.8548816 35.995,29.0568816 L15.412,29.0598816 L18.802,32.4498816 L17.388,33.8638816 L12.328,28.8038816 C11.937,28.4128816 11.937,27.7808816 12.328,27.3898816 L17.388,22.3298816 L18.802,23.7438816 L15.486,27.0598816 L35.922,27.0598816 C36.098,27.0428816 42,26.5068816 42,20.4958816 C42,19.3928816 41.795,18.4008816 41.39,17.5478816 C40.87,16.4538816 40.014,15.5608816 38.844,14.8928816 C38.409,14.6448816 37.932,14.4298816 37.425,14.2528816 C36.935,14.0818816 36.432,13.9518816 35.929,13.8648816 C35.394,13.7728816 35.029,13.2688816 35.109,12.7318816 C35.111,12.1998816 35.047,11.6438816 34.92,11.1428816 C34.528,9.60888156 33.529,8.57688156 32.181,8.31388156 C30.867,8.05988156 29.505,8.60188156 28.696,9.69888156 C28.478,9.99688156 28.107,10.1488816 27.744,10.0948816 C27.378,10.0398816 27.071,9.78688156 26.948,9.43788156 C26.322,7.65988156 25.416,6.16588156 24.255,4.99788156 C22.833,3.56788156 18.933,0.493881557 13.427,2.83088156 C10.249,4.18088156 7.759,8.07388156 7.759,11.6918816 L5.759,11.6918816 C5.759,7.25888156 8.72,2.65788156 12.645,0.990881557 C17.243,-0.963118443 22.115,0.00888155702 25.673,3.58788156 C26.715,4.63688156 27.58,5.89488156 28.253,7.34388156 C29.479,6.43688156 31.044,6.05488156 32.563,6.35088156 C34.671,6.76188156 36.275,8.36888156 36.857,10.6498816 C36.972,11.0968816 37.047,11.5708816 37.084,12.0658816 C37.421,12.1498816 37.755,12.2498816 38.083,12.3648816 C38.705,12.5808816 39.294,12.8468816 39.835,13.1558816 C41.367,14.0308816 42.498,15.2198816 43.196,16.6898816 C43.729,17.8128816 44,19.0938816 44,20.4958816" id="Fill-4"></path>
        </g>
    </g>
</svg>