<?xml version="1.0" encoding="UTF-8"?>
<svg width="64px" height="64px" viewBox="0 0 64 64" version="1.1" xmlns="http://www.w3.org/2000/svg" xmlns:xlink="http://www.w3.org/1999/xlink">
    <title>Icon-Architecture/48/Arch_AWS-Application-Composer_48</title>
    <g id="Icon-Architecture/48/Arch_AWS-Application-Composer_48" stroke="none" stroke-width="1" fill="none" fill-rule="evenodd">
        <g id="Icon-Architecture-BG/48/Developer-Tools" fill="#C925D1">
            <rect id="Rectangle" x="0" y="0" width="64" height="64"></rect>
        </g>
        <path d="M48.99675,52 C47.34275,52 45.99675,50.654 45.99675,49 C45.99675,47.346 47.34275,46 48.99675,46 C50.65075,46 51.99675,47.346 51.99675,49 C51.99675,50.654 50.65075,52 48.99675,52 M34.11775,51.122 C32.98475,52.254 31.00875,52.254 29.87575,51.122 C28.70575,49.952 28.70575,48.048 29.87575,46.878 C30.44175,46.312 31.19475,46 31.99675,46 C32.79875,46 33.55175,46.312 34.11775,46.878 C35.28775,48.048 35.28775,49.952 34.11775,51.122 M12.87575,33.122 C11.70575,31.952 11.70575,30.048 12.87575,28.878 C13.44175,28.312 14.19475,28 14.99675,28 C15.79875,28 16.55175,28.312 17.11775,28.878 C18.28775,30.048 18.28775,31.952 17.11775,33.122 C15.98475,34.254 14.00875,34.254 12.87575,33.122 M29.87575,12.878 C30.44175,12.312 31.19475,12 31.99675,12 C32.79875,12 33.55175,12.312 34.11775,12.878 C35.28775,14.048 35.28775,15.952 34.11775,17.122 C32.98475,18.254 31.00875,18.254 29.87575,17.122 C28.70575,15.952 28.70575,14.048 29.87575,12.878 M48.99675,12 C50.65075,12 51.99675,13.346 51.99675,15 C51.99675,16.654 50.65075,18 48.99675,18 C47.34275,18 45.99675,16.654 45.99675,15 C45.99675,13.346 47.34275,12 48.99675,12 M48.99675,44 C46.58275,44 44.56275,45.721 44.09775,48 L36.88975,48 C36.70075,47.07 36.25075,46.184 35.53175,45.464 C34.58775,44.52 33.33275,44 31.99675,44 C31.05075,44 30.15075,44.273 29.36775,44.76 L19.07875,33.866 C20.22675,32.23 20.28075,30.065 19.24075,28.379 L29.12275,19.079 C29.95875,19.671 30.94975,20 31.99675,20 C33.33275,20 34.58775,19.48 35.53175,18.536 C36.25075,17.816 36.70075,16.929 36.88975,16 L44.09775,16 C44.56275,18.279 46.58275,20 48.99675,20 C51.75375,20 53.99675,17.757 53.99675,15 C53.99675,12.243 51.75375,10 48.99675,10 C46.58275,10 44.56275,11.721 44.09775,14 L36.88975,14 C36.70075,13.07 36.25075,12.184 35.53175,11.464 C34.58775,10.52 33.33275,10 31.99675,10 C30.66075,10 29.40575,10.52 28.46175,11.464 C26.79275,13.134 26.56475,15.694 27.75275,17.621 L17.87075,26.921 C17.03475,26.329 16.04375,26 14.99675,26 C13.66075,26 12.40575,26.52 11.46175,27.464 C9.51275,29.414 9.51275,32.586 11.46175,34.536 C12.40575,35.48 13.66075,36 14.99675,36 C15.94275,36 16.84275,35.727 17.62575,35.239 L27.91475,46.134 C26.54575,48.084 26.72075,50.794 28.46175,52.536 C29.40575,53.48 30.66075,54 31.99675,54 C33.33275,54 34.58775,53.48 35.53175,52.536 C36.25075,51.816 36.70075,50.929 36.88975,50 L44.09775,50 C44.56275,52.279 46.58275,54 48.99675,54 C51.75375,54 53.99675,51.757 53.99675,49 C53.99675,46.243 51.75375,44 48.99675,44 M14.99675,51 C13.89375,51 12.99675,50.103 12.99675,49 C12.99675,47.897 13.89375,47 14.99675,47 C16.09975,47 16.99675,47.897 16.99675,49 C16.99675,50.103 16.09975,51 14.99675,51 M14.99675,45 C12.79075,45 10.99675,46.794 10.99675,49 C10.99675,51.206 12.79075,53 14.99675,53 C17.20275,53 18.99675,51.206 18.99675,49 C18.99675,46.794 17.20275,45 14.99675,45 M48.99675,34 C47.89375,34 46.99675,33.103 46.99675,32 C46.99675,30.897 47.89375,30 48.99675,30 C50.09975,30 50.99675,30.897 50.99675,32 C50.99675,33.103 50.09975,34 48.99675,34 M48.99675,28 C46.79075,28 44.99675,29.794 44.99675,32 C44.99675,34.206 46.79075,36 48.99675,36 C51.20275,36 52.99675,34.206 52.99675,32 C52.99675,29.794 51.20275,28 48.99675,28 M31.99675,34 C30.89375,34 29.99675,33.103 29.99675,32 C29.99675,30.897 30.89375,30 31.99675,30 C33.09975,30 33.99675,30.897 33.99675,32 C33.99675,33.103 33.09975,34 31.99675,34 M31.99675,28 C29.79075,28 27.99675,29.794 27.99675,32 C27.99675,34.206 29.79075,36 31.99675,36 C34.20275,36 35.99675,34.206 35.99675,32 C35.99675,29.794 34.20275,28 31.99675,28 M14.99675,13 C16.09975,13 16.99675,13.897 16.99675,15 C16.99675,16.103 16.09975,17 14.99675,17 C13.89375,17 12.99675,16.103 12.99675,15 C12.99675,13.897 13.89375,13 14.99675,13 M14.99675,19 C17.20275,19 18.99675,17.206 18.99675,15 C18.99675,12.794 17.20275,11 14.99675,11 C12.79075,11 10.99675,12.794 10.99675,15 C10.99675,17.206 12.79075,19 14.99675,19" id="Fill-3" fill="#FFFFFF"></path>
    </g>
</svg>