<?xml version="1.0" encoding="UTF-8"?>
<svg width="64px" height="64px" viewBox="0 0 64 64" version="1.1" xmlns="http://www.w3.org/2000/svg" xmlns:xlink="http://www.w3.org/1999/xlink">
    <title>Icon-Architecture/48/Arch_Amazon-CodeCatalyst_48</title>
    <g id="Icon-Architecture/48/Arch_Amazon-CodeCatalyst_48" stroke="none" stroke-width="1" fill="none" fill-rule="evenodd">
        <g id="Icon-Architecture-BG/48/Developer-Tools" fill="#C925D1">
            <rect id="Rectangle" x="0" y="0" width="64" height="64"></rect>
        </g>
        <path d="M50.427,39.131 L47.936,37.418 C48.61,35.669 48.95,33.83 48.95,31.938 C48.95,29.758 48.481,27.589 47.584,25.611 L50.017,23.865 C51.252,26.368 51.901,29.136 51.901,31.938 C51.901,34.445 51.406,36.86 50.427,39.131 L50.427,39.131 Z M51.23,21.889 C51.089,21.644 50.851,21.469 50.573,21.409 C50.299,21.348 50.009,21.409 49.779,21.574 L45.733,24.479 C45.327,24.77 45.198,25.315 45.43,25.756 C46.425,27.651 46.95,29.788 46.95,31.938 C46.95,33.827 46.56,35.655 45.789,37.374 C45.591,37.814 45.737,38.333 46.135,38.607 L50.266,41.447 C50.434,41.563 50.632,41.623 50.832,41.623 C50.915,41.623 50.998,41.613 51.079,41.592 C51.359,41.521 51.594,41.332 51.725,41.075 C53.168,38.223 53.901,35.149 53.901,31.938 C53.901,28.416 52.977,24.942 51.23,21.889 L51.23,21.889 Z M32.964,51.871 L32.964,48.461 C37.564,48.175 41.874,45.989 44.795,42.41 L47.587,44.331 C44.023,48.824 38.677,51.578 32.964,51.871 L32.964,51.871 Z M12,31.95 C12,21.282 20.423,12.569 30.964,12.05 L30.964,15.431 C22.287,15.946 15.381,23.147 15.381,31.95 C15.381,40.753 22.287,47.954 30.964,48.469 L30.964,51.85 C20.423,51.331 12,42.617 12,31.95 L12,31.95 Z M46.911,18.759 L44.151,20.74 C41.243,17.572 37.25,15.694 32.964,15.434 L32.964,12.027 C38.35,12.296 43.34,14.704 46.911,18.759 L46.911,18.759 Z M39.615,23.997 C37.563,22.02 34.818,20.902 31.95,20.902 C26.201,20.902 21.468,25.319 20.954,30.936 L17.432,30.936 C17.957,23.376 24.259,17.381 31.95,17.381 C35.972,17.381 39.75,19.036 42.496,21.928 L39.615,23.997 Z M31.95,42.997 C35.114,42.997 38.14,41.618 40.226,39.267 L43.12,41.258 C40.362,44.558 36.27,46.519 31.95,46.519 C24.25,46.519 17.942,40.509 17.431,32.936 L20.953,32.936 C21.454,38.566 26.192,42.997 31.95,42.997 L31.95,42.997 Z M45.147,40.225 L40.598,37.096 C40.154,36.789 39.547,36.892 39.228,37.325 C37.501,39.659 34.849,40.997 31.95,40.997 C26.961,40.997 22.903,36.939 22.903,31.95 C22.903,26.961 26.961,22.902 31.95,22.902 C34.547,22.902 37.023,24.023 38.742,25.976 C39.082,26.361 39.657,26.428 40.076,26.128 L44.576,22.897 L48.951,19.756 C49.174,19.597 49.321,19.353 49.359,19.082 C49.397,18.811 49.322,18.537 49.152,18.322 C44.956,13.033 38.686,10 31.95,10 C19.847,10 10,19.846 10,31.95 C10,44.053 19.847,53.9 31.95,53.9 C39.026,53.9 45.708,50.453 49.827,44.679 C49.983,44.461 50.044,44.189 49.997,43.925 C49.951,43.661 49.801,43.426 49.579,43.275 L45.147,40.225 Z" id="Fill-3" fill="#FFFFFF"></path>
    </g>
</svg>