<?xml version="1.0" encoding="UTF-8"?>
<svg width="64px" height="64px" viewBox="0 0 64 64" version="1.1" xmlns="http://www.w3.org/2000/svg" xmlns:xlink="http://www.w3.org/1999/xlink">
    <title>Icon-Architecture/48/Arch_AWS-CodeArtifact_48</title>
    <g id="Icon-Architecture/48/Arch_AWS-CodeArtifact_48" stroke="none" stroke-width="1" fill="none" fill-rule="evenodd">
        <g id="Icon-Architecture-BG/48/Developer-Tools" fill="#C925D1">
            <rect id="Rectangle" x="0" y="0" width="64" height="64"></rect>
        </g>
        <g id="Icon-Service/48/AWS-CodeArtifact_48" transform="translate(10.000500, 10.000100)" fill="#FFFFFF">
            <path d="M19.063,26.891 L23.714,16.5 L25.541,17.318 L20.889,27.708 L19.063,26.891 Z M25.645,23.641 L28.238,21.749 L25.952,19.431 L27.376,18.026 L30.476,21.171 C30.68,21.378 30.785,21.664 30.761,21.954 C30.738,22.244 30.588,22.509 30.354,22.681 L26.825,25.256 L25.645,23.641 Z M18.959,19.52 L16.327,21.442 L18.62,23.761 L17.198,25.167 L14.087,22.023 C13.882,21.816 13.778,21.53 13.801,21.24 C13.825,20.95 13.973,20.683 14.209,20.512 L17.78,17.905 L18.959,19.52 Z M17.715,1.722 L2,11.014 L2,28.876 L0,28.876 L0,10.443 C0,10.09 0.186,9.763 0.491,9.582 L16.698,-3.55271368e-15 L17.715,1.722 Z M44,14.876 L44,33.893 C44,34.251 43.808,34.581 43.499,34.76 L27.305,44.084 L26.307,42.351 L42,33.315 L42,14.876 L44,14.876 Z M34,28.809 L22.439,35.383 L11,28.68 L11,15.397 L22.429,8.826 L34,15.533 L34,28.809 Z M36,29.391 L36,14.957 C36,14.6 35.81,14.271 35.501,14.092 L22.933,6.806 C22.623,6.626 22.242,6.625 21.933,6.804 L9.501,13.952 C9.191,14.13 9,14.461 9,14.819 L9,29.253 C9,29.608 9.188,29.936 9.494,30.116 L21.925,37.401 C22.082,37.492 22.256,37.538 22.431,37.538 C22.602,37.538 22.772,37.495 22.925,37.407 L35.494,30.26 C35.806,30.082 36,29.75 36,29.391 L36,29.391 Z" id="AWS-CodeArtifact_Icon_48_Squid"></path>
        </g>
    </g>
</svg>