<svg width="64" height="64" viewBox="0 0 64 64" fill="none" xmlns="http://www.w3.org/2000/svg">
<g id="Icon-Architecture/48/Arch_AWS-Fault-Injection-Service_48">
<g id="Icon-Architecture-BG/48/Developer-Tools">
<rect id="Rectangle" width="64" height="64" fill="#C925D1"/>
</g>
<g id="Icon-Service/48/AWS-Fault-Injection-Simulator_48">
<path id="Fill 5" fill-rule="evenodd" clip-rule="evenodd" d="M36.698 32.7211L38.491 30.9281L40.284 32.7211L41.698 31.3071L39.905 29.5141L41.698 27.7211L40.284 26.3071L38.491 28.1001L36.698 26.3071L35.284 27.7211L37.077 29.5141L35.284 31.3071L36.698 32.7211ZM19.991 31.0141H21.991C21.991 29.9111 22.888 29.0141 23.991 29.0141C25.094 29.0141 25.991 29.9111 25.991 31.0141H27.991C27.991 28.8081 26.197 27.0141 23.991 27.0141C21.785 27.0141 19.991 28.8081 19.991 31.0141ZM27.491 22.0141C28.318 22.0141 28.991 21.3411 28.991 20.5141C28.991 19.6871 28.318 19.0141 27.491 19.0141C26.664 19.0141 25.991 19.6871 25.991 20.5141C25.991 21.3411 26.664 22.0141 27.491 22.0141ZM27.491 24.0141C25.561 24.0141 23.991 22.4441 23.991 20.5141C23.991 18.5841 25.561 17.0141 27.491 17.0141C29.421 17.0141 30.991 18.5841 30.991 20.5141C30.991 22.4441 29.421 24.0141 27.491 24.0141ZM25.991 35.0141H21.991V44.8791C24.104 44.3381 25.991 42.2541 25.991 41.0141V35.0141ZM25.991 50.0141V44.8071C24.907 45.8421 23.487 46.6541 21.991 46.9161V50.0141C21.991 51.4531 22.552 52.0141 23.991 52.0141C25.43 52.0141 25.991 51.4531 25.991 50.0141ZM29.991 35.0141H27.991V50.0141C27.991 52.5561 26.533 54.0141 23.991 54.0141C21.449 54.0141 19.991 52.5561 19.991 50.0141V35.0141H17.991V33.0141H29.991V35.0141ZM53.991 30.4631C53.991 36.7631 48.806 38.8091 46.064 39.0111L29.991 39.0141V37.0141H45.991C46.163 36.9971 51.991 36.4621 51.991 30.4631C51.991 25.4321 47.754 24.1581 45.931 23.8451C45.396 23.7521 45.032 23.2491 45.112 22.7111C45.114 20.5261 44.193 18.9331 42.589 18.4061C41.173 17.9411 39.618 18.4561 38.713 19.6841C38.494 19.9821 38.124 20.1351 37.76 20.0801C37.394 20.0261 37.088 19.7731 36.965 19.4241C36.34 17.6491 35.434 16.1581 34.276 14.9921C32.855 13.5641 28.963 10.4951 23.468 12.8291C20.295 14.1771 17.809 18.0611 17.809 21.6731L17.886 22.9341C17.914 23.4121 17.599 23.8431 17.136 23.9621C15.276 24.4401 12.155 25.9111 12.155 30.3981C12.155 33.7721 13.98 35.6331 15.511 36.5991C15.952 36.8771 16.518 37.0131 17.241 37.0141L17.239 39.0141C16.128 39.0131 15.214 38.7761 14.444 38.2901C12.842 37.2791 10.155 34.9091 10.155 30.3981C10.155 25.0661 13.672 23.0201 15.843 22.2651L15.811 21.7321C15.809 17.2471 18.765 12.6531 22.686 10.9881C27.275 9.0401 32.141 10.0071 35.694 13.5821C36.734 14.6271 37.595 15.8821 38.267 17.3251C39.672 16.2791 41.505 15.9451 43.213 16.5061C45.462 17.2451 46.876 19.2891 47.087 22.0451C50.561 22.9081 53.991 25.5001 53.991 30.4631Z" fill="white"/>
</g>
</g>
</svg>
