<svg width="80" height="80" viewBox="0 0 80 80" fill="none" xmlns="http://www.w3.org/2000/svg">
<g id="Icon-Architecture/64/Arch_AWS-Fault-Injection-Service_64">
<g id="Icon-Architecture-BG/64/Developer-Tools">
<rect id="Rectangle" width="80" height="80" fill="#C925D1"/>
</g>
<g id="Icon-Service/64/AWS-Fault-Injection-Simulator_64">
<path id="Fill 7" fill-rule="evenodd" clip-rule="evenodd" d="M30.003 37.0002C31.657 37.0002 33.003 38.3462 33.003 40.0002H35.003C35.003 37.2432 32.76 35.0002 30.003 35.0002C27.246 35.0002 25.003 37.2432 25.003 40.0002H27.003C27.003 38.3462 28.349 37.0002 30.003 37.0002ZM45.71 40.7102L48.503 37.9162L51.296 40.7102L52.71 39.2962L49.917 36.5012L52.71 33.7072L51.296 32.2932L48.503 35.0872L45.71 32.2932L44.296 33.7072L47.089 36.5012L44.296 39.2962L45.71 40.7102ZM37.003 25.5002C37.003 24.1222 35.882 23.0002 34.503 23.0002C33.124 23.0002 32.003 24.1222 32.003 25.5002C32.003 26.8782 33.124 28.0002 34.503 28.0002C35.882 28.0002 37.003 26.8782 37.003 25.5002ZM39.003 25.5002C39.003 27.9812 36.984 30.0002 34.503 30.0002C32.022 30.0002 30.003 27.9812 30.003 25.5002C30.003 23.0192 32.022 21.0002 34.503 21.0002C36.984 21.0002 39.003 23.0192 39.003 25.5002ZM33.003 44.0002H27.003V56.8942C30.06 56.3092 33.003 53.2352 33.003 51.0002V44.0002ZM33.003 55.5112C31.508 57.2292 29.332 58.6072 27.003 58.9252V63.0002C27.003 64.3692 27.524 66.0002 30.003 66.0002C32.482 66.0002 33.003 64.3692 33.003 63.0002V55.5112ZM35.003 42.0002H37.003V44.0002H35.003V63.0002C35.003 65.4172 33.69 68.0002 30.003 68.0002C26.316 68.0002 25.003 65.4172 25.003 63.0002V44.0002H23.003V42.0002H25.003H27.003H33.003H35.003ZM67.959 38.3002C67.959 48.1522 58.176 48.9902 58.077 48.9972L39.003 49.0002V47.0002H58.003C58.255 46.9772 65.959 46.2782 65.959 38.3002C65.959 31.4352 59.821 29.8432 57.94 29.5192C57.406 29.4272 57.043 28.9272 57.119 28.3912L57.125 28.3542C57.106 25.3722 55.855 23.2562 53.685 22.5432C51.754 21.9092 49.626 22.6092 48.389 24.2872C48.169 24.5842 47.798 24.7352 47.437 24.6832C47.07 24.6282 46.764 24.3752 46.641 24.0262C45.823 21.7062 44.639 19.7552 43.121 18.2272C41.258 16.3532 36.144 12.3232 28.924 15.3872C24.752 17.1592 21.483 22.2652 21.483 27.0102L21.582 28.6472C21.61 29.1252 21.296 29.5562 20.833 29.6752C18.363 30.3092 14.22 32.2612 14.22 38.2172C14.22 42.6822 16.637 45.1442 18.663 46.4232C19.277 46.8112 20.053 46.9992 21.037 47.0002L21.035 49.0002C19.662 48.9992 18.537 48.7092 17.596 48.1142C15.588 46.8482 12.22 43.8772 12.22 38.2172C12.22 31.3772 16.844 28.8572 19.539 27.9712L19.485 27.0692C19.483 21.4312 23.206 15.6432 28.143 13.5462C33.926 11.0882 40.059 12.3112 44.539 16.8172C45.929 18.2152 47.067 19.9112 47.938 21.8732C49.698 20.4132 52.093 19.9152 54.31 20.6432C57.139 21.5732 58.899 24.1912 59.105 27.7172C61.961 28.3922 67.959 30.7162 67.959 38.3002Z" fill="white"/>
</g>
</g>
</svg>
