<?xml version="1.0" encoding="UTF-8"?>
<svg width="80px" height="80px" viewBox="0 0 80 80" version="1.1" xmlns="http://www.w3.org/2000/svg" xmlns:xlink="http://www.w3.org/1999/xlink">
    <title>Icon-Architecture/64/Arch_AWS-CloudShell_64</title>
    <g id="Icon-Architecture/64/Arch_AWS-CloudShell_64" stroke="none" stroke-width="1" fill="none" fill-rule="evenodd">
        <g id="Icon-Architecture-BG/64/Developer-Tools" fill="#C925D1">
            <rect id="Rectangle" x="0" y="0" width="80" height="80"></rect>
        </g>
        <g id="Icon-Service/64/AWS-CloudShell_64" transform="translate(12.160000, 12.470000)" fill="#FFFFFF">
            <path d="M33.84,47.5291666 L48.84,47.5291666 L48.84,45.5291666 L33.84,45.5291666 L33.84,47.5291666 Z M22.465,47.3101666 L32.465,39.3101666 C32.702,39.1201666 32.84,38.8331666 32.84,38.5291666 C32.84,38.2251666 32.702,37.9381666 32.465,37.7481666 L22.465,29.7481666 L21.215,31.3101666 L30.239,38.5291666 L21.215,45.7481666 L22.465,47.3101666 Z M14.84,53.5291666 L53.84,53.5291666 L53.84,23.5291666 L14.84,23.5291666 L14.84,53.5291666 Z M55.84,22.5291666 L55.84,54.5291666 C55.84,55.0811666 55.393,55.5291666 54.84,55.5291666 L13.84,55.5291666 C13.287,55.5291666 12.84,55.0811666 12.84,54.5291666 L12.84,22.5291666 C12.84,21.9771666 13.287,21.5291666 13.84,21.5291666 L54.84,21.5291666 C55.393,21.5291666 55.84,21.9771666 55.84,22.5291666 L55.84,22.5291666 Z M11.766,2.71316656 C9.049,3.86616656 6.921,7.19516656 6.921,10.2901666 L6.987,11.3811666 C7.015,11.8581666 6.7,12.2891666 6.237,12.4081666 C4.654,12.8141666 2,14.0661666 2,17.8831666 C2,20.7601666 3.556,22.3461666 4.861,23.1701666 C5.001,23.2591666 5.494,23.4201666 5.953,23.5291666 L8.84,23.5291666 L8.84,25.5291666 L5.84,25.5291666 C5.767,25.5291666 5.695,25.5211666 5.623,25.5051666 C5.33,25.4401666 4.332,25.2021666 3.792,24.8611666 C2.376,23.9671666 3.55271368e-15,21.8721666 3.55271368e-15,17.8831666 C3.55271368e-15,14.4481666 1.831,11.8211666 4.945,10.7131666 L4.923,10.3481666 C4.921,6.38816656 7.528,2.34016656 10.985,0.872166556 C15.03,-0.847833444 19.317,0.00816655587 22.447,3.15716656 C23.328,4.04416656 24.065,5.10016656 24.646,6.31016656 C25.882,5.44816656 27.46,5.18416656 28.939,5.67016656 C30.923,6.32216656 32.181,8.10716656 32.392,10.5131666 C33.748,10.8681666 35.857,11.7161666 37.195,13.6961666 C38,14.8861666 38.408,16.3141666 38.408,17.9391666 L36.408,17.9391666 C36.408,16.7211666 36.115,15.6701666 35.538,14.8161666 C34.318,13.0101666 32.127,12.4601666 31.242,12.3071666 C30.708,12.2151666 30.345,11.7141666 30.423,11.1781666 C30.423,9.35116656 29.654,8.01116656 28.315,7.57116656 C27.138,7.18616656 25.842,7.61216656 25.086,8.63616656 C24.867,8.93416656 24.497,9.08516656 24.134,9.03216656 C23.768,8.97816656 23.461,8.72516656 23.338,8.37516656 C22.801,6.84916656 22.024,5.56816656 21.029,4.56716656 C19.813,3.34316656 16.477,0.714166556 11.766,2.71316656 L11.766,2.71316656 Z" id="Fill-5"></path>
        </g>
    </g>
</svg>