<?xml version="1.0" encoding="UTF-8"?>
<svg width="80px" height="80px" viewBox="0 0 80 80" version="1.1" xmlns="http://www.w3.org/2000/svg" xmlns:xlink="http://www.w3.org/1999/xlink">
    <title>Icon-Architecture/64/Arch_Amazon-Corretto_64</title>
    <g id="Icon-Architecture/64/Arch_Amazon-Corretto_64" stroke="none" stroke-width="1" fill="none" fill-rule="evenodd">
        <g id="Icon-Architecture-BG/64/Developer-Tools" fill="#C925D1">
            <rect id="Rectangle" x="0" y="0" width="80" height="80"></rect>
        </g>
        <g id="Icon-Service/64/Amazon-Corretto_64" transform="translate(12.000000, 12.000000)" fill="#FFFFFF">
            <path d="M21.066,7 L26.066,7 L26.066,2 L21.066,2 L21.066,7 Z M19.066,8 L19.066,1 C19.066,0.448 19.513,0 20.066,0 L27.066,0 C27.619,0 28.066,0.448 28.066,1 L28.066,8 C28.066,8.552 27.619,9 27.066,9 L20.066,9 C19.513,9 19.066,8.552 19.066,8 L19.066,8 Z M33.066,13 L38.066,13 L38.066,8 L33.066,8 L33.066,13 Z M31.066,14 L31.066,7 C31.066,6.448 31.513,6 32.066,6 L39.066,6 C39.619,6 40.066,6.448 40.066,7 L40.066,14 C40.066,14.552 39.619,15 39.066,15 L32.066,15 C31.513,15 31.066,14.552 31.066,14 L31.066,14 Z M19.066,18 L24.066,18 L24.066,13 L19.066,13 L19.066,18 Z M17.066,19 L17.066,12 C17.066,11.448 17.513,11 18.066,11 L25.066,11 C25.619,11 26.066,11.448 26.066,12 L26.066,19 C26.066,19.552 25.619,20 25.066,20 L18.066,20 C17.513,20 17.066,19.552 17.066,19 L17.066,19 Z M25.066,34 L45.066,34 L45.066,32 L25.066,32 L25.066,34 Z M8.159,36 L11.806,36 C11.083,33.882 10.671,31.621 10.671,29.261 L10.671,22.064 L8.159,22.064 C4.705,22.064 2,25.112 2,29.003 C2,32.861 4.762,36 8.159,36 L8.159,36 Z M8.159,38 C3.66,38 0,33.964 0,29.003 C0,24.074 3.66,20.064 8.159,20.064 L10.671,20.064 L10.671,18 C10.671,17.448 11.119,17 11.671,17 L15.066,17 L15.066,19 L12.671,19 L12.671,29.261 C12.671,30.194 12.762,31.104 12.893,32 L22.066,32 L22.066,34 L13.296,34 C15.409,42.135 22.793,48.169 31.58,48.169 C41.946,48.169 50.066,39.863 50.066,29.261 L50.066,27.979 L16.356,27.979 L16.356,25.979 L50.066,25.979 L50.066,19 L28.066,19 L28.066,17 L51.066,17 C51.619,17 52.066,17.448 52.066,18 L52.066,29.261 C52.066,40.985 43.067,50.169 31.58,50.169 C23.172,50.169 15.928,45.171 12.611,38 L8.159,38 Z M56,47.412 C56,53.006 43.418,56.024 31.58,56.024 C19.741,56.024 7.159,53.006 7.159,47.412 C7.159,45.904 8.134,43.704 12.783,41.784 L13.546,43.633 C10.758,44.784 9.159,46.162 9.159,47.412 C9.159,50.54 18.367,54.024 31.58,54.024 C44.792,54.024 54,50.54 54,47.412 C54,46.162 52.401,44.784 49.613,43.633 L50.377,41.784 C55.024,43.704 56,45.904 56,47.412 L56,47.412 Z" id="Fill-1"></path>
        </g>
    </g>
</svg>