<?xml version="1.0" encoding="UTF-8"?>
<svg width="80px" height="80px" viewBox="0 0 80 80" version="1.1" xmlns="http://www.w3.org/2000/svg" xmlns:xlink="http://www.w3.org/1999/xlink">
    <title>Icon-Architecture/64/Arch_AWS-Application-Composer_64</title>
    <g id="Icon-Architecture/64/Arch_AWS-Application-Composer_64" stroke="none" stroke-width="1" fill="none" fill-rule="evenodd">
        <g id="Icon-Architecture-BG/64/Developer-Tools" fill="#C925D1">
            <rect id="Rectangle" x="0" y="0" width="80" height="80"></rect>
        </g>
        <path d="M62,66 C59.794,66 58,64.206 58,62 C58,59.794 59.794,58 62,58 C64.206,58 66,59.794 66,62 C66,64.206 64.206,66 62,66 M42.828,64.829 C41.316,66.339 38.684,66.339 37.172,64.829 C36.416,64.073 36,63.068 36,62 C36,60.932 36.416,59.927 37.172,59.171 C37.928,58.416 38.932,58 40,58 C41.068,58 42.072,58.416 42.828,59.171 C43.584,59.927 44,60.932 44,62 C44,63.068 43.584,64.073 42.828,64.829 M15.172,42.829 C14.416,42.073 14,41.068 14,40 C14,38.932 14.416,37.927 15.172,37.171 C15.928,36.416 16.932,36 18,36 C19.068,36 20.072,36.416 20.828,37.171 C21.584,37.927 22,38.932 22,40 C22,41.068 21.584,42.073 20.828,42.829 C19.316,44.339 16.684,44.339 15.172,42.829 M37.172,15.171 C37.928,14.416 38.932,14 40,14 C41.068,14 42.072,14.416 42.828,15.171 C43.584,15.927 44,16.932 44,18 C44,19.068 43.584,20.073 42.828,20.829 C41.316,22.339 38.684,22.339 37.172,20.829 C36.416,20.073 36,19.068 36,18 C36,16.932 36.416,15.927 37.172,15.171 M62,14 C64.206,14 66,15.794 66,18 C66,20.206 64.206,22 62,22 C59.794,22 58,20.206 58,18 C58,15.794 59.794,14 62,14 M62,56 C59.033,56 56.569,58.167 56.09,61 L45.911,61 C45.707,59.778 45.136,58.651 44.242,57.757 C43.109,56.624 41.603,56 40,56 C38.736,56 37.536,56.393 36.527,57.113 L22.887,43.473 C23.607,42.465 24,41.264 24,40 C24,38.736 23.607,37.536 22.887,36.527 L36.527,22.887 C37.535,23.607 38.736,24 40,24 C41.603,24 43.109,23.376 44.242,22.243 C45.136,21.349 45.707,20.222 45.911,19 L56.09,19 C56.569,21.833 59.033,24 62,24 C65.309,24 68,21.309 68,18 C68,14.691 65.309,12 62,12 C59.033,12 56.569,14.167 56.09,17 L45.911,17 C45.707,15.778 45.136,14.651 44.242,13.757 C43.109,12.624 41.603,12 40,12 C38.397,12 36.891,12.624 35.758,13.757 C34.624,14.891 34,16.397 34,18 C34,19.264 34.393,20.464 35.113,21.473 L21.473,35.113 C20.465,34.393 19.264,34 18,34 C16.397,34 14.891,34.624 13.758,35.757 C12.624,36.891 12,38.397 12,40 C12,41.603 12.624,43.109 13.758,44.243 C14.891,45.376 16.397,46 18,46 C19.264,46 20.464,45.607 21.473,44.887 L35.113,58.527 C34.393,59.535 34,60.736 34,62 C34,63.603 34.624,65.109 35.758,66.243 C36.891,67.376 38.397,68 40,68 C41.603,68 43.109,67.376 44.242,66.243 C45.136,65.349 45.707,64.222 45.911,63 L56.09,63 C56.569,65.833 59.033,68 62,68 C65.309,68 68,65.309 68,62 C68,58.691 65.309,56 62,56 M18,65 C16.346,65 15,63.654 15,62 C15,60.346 16.346,59 18,59 C19.654,59 21,60.346 21,62 C21,63.654 19.654,65 18,65 M18,57 C15.243,57 13,59.243 13,62 C13,64.757 15.243,67 18,67 C20.757,67 23,64.757 23,62 C23,59.243 20.757,57 18,57 M62,43 C60.346,43 59,41.654 59,40 C59,38.346 60.346,37 62,37 C63.654,37 65,38.346 65,40 C65,41.654 63.654,43 62,43 M62,35 C59.243,35 57,37.243 57,40 C57,42.757 59.243,45 62,45 C64.757,45 67,42.757 67,40 C67,37.243 64.757,35 62,35 M40,43 C38.346,43 37,41.654 37,40 C37,38.346 38.346,37 40,37 C41.654,37 43,38.346 43,40 C43,41.654 41.654,43 40,43 M40,35 C37.243,35 35,37.243 35,40 C35,42.757 37.243,45 40,45 C42.757,45 45,42.757 45,40 C45,37.243 42.757,35 40,35 M18,15 C19.654,15 21,16.346 21,18 C21,19.654 19.654,21 18,21 C16.346,21 15,19.654 15,18 C15,16.346 16.346,15 18,15 M18,23 C20.757,23 23,20.757 23,18 C23,15.243 20.757,13 18,13 C15.243,13 13,15.243 13,18 C13,20.757 15.243,23 18,23" id="Fill-1" fill="#FFFFFF"></path>
    </g>
</svg>