<?xml version="1.0" encoding="UTF-8"?>
<svg width="80px" height="80px" viewBox="0 0 80 80" version="1.1" xmlns="http://www.w3.org/2000/svg" xmlns:xlink="http://www.w3.org/1999/xlink">
    <title>Icon-Architecture/64/Arch_AWS-Cloud-Control-API_64</title>
    <g id="Icon-Architecture/64/Arch_AWS-Cloud-Control-API_64" stroke="none" stroke-width="1" fill="none" fill-rule="evenodd">
        <g id="Icon-Architecture-BG/64/Developer-Tools" fill="#C925D1">
            <rect id="Rectangle" x="0" y="0" width="80" height="80"></rect>
        </g>
        <g id="Icon-Service/64/AWS-Cloud-Control-API_64" transform="translate(12.000000, 18.150000)" fill="#FFFFFF">
            <path d="M2.05315746,28.7644987 C1.80715746,26.7404987 2.43115746,24.7154987 3.76515746,23.2084987 C5.08315746,21.7214987 6.97415746,20.8684987 8.95115746,20.8684987 L33.4571575,20.8684987 L28.1641575,26.1604987 L29.5781575,27.5754987 L36.5781575,20.5754987 C36.9691575,20.1844987 36.9691575,19.5514987 36.5781575,19.1604987 L29.5781575,12.1604987 L28.1641575,13.5754987 L33.4571575,18.8684987 L8.95115746,18.8684987 C6.40215746,18.8684987 3.96515746,19.9664987 2.26815746,21.8824987 C0.555157458,23.8174987 -0.247842542,26.4134987 0.0671574577,29.0054987 C0.612157458,33.4884987 4.57415746,36.8684987 9.28415746,36.8684987 L10.9511575,36.8684987 L10.9511575,34.8684987 L9.28415746,34.8684987 C5.58415746,34.8684987 2.47515746,32.2434987 2.05315746,28.7644987 M55.9991575,26.1204987 C55.9991575,36.0174987 46.0501575,36.8584987 45.9501575,36.8654987 L18.5821575,36.8674987 L23.8751575,42.1604987 L22.4611575,43.5754987 L15.4611575,36.5754987 C15.0711575,36.1844987 15.0711575,35.5514987 15.4611575,35.1604987 L22.4611575,28.1604987 L23.8751575,29.5754987 L18.5821575,34.8684987 L45.8771575,34.8684987 C46.1371575,34.8454987 53.9991575,34.1424987 53.9991575,26.1204987 C53.9991575,24.6564987 53.7251575,23.3364987 53.1851575,22.1984987 C52.4891575,20.7334987 51.3451575,19.5394987 49.7861575,18.6504987 C49.2091575,18.3214987 48.5781575,18.0364987 47.9101575,17.8044987 C47.2621575,17.5774987 46.5981575,17.4064987 45.9371575,17.2924987 C45.4001575,17.2004987 45.0351575,16.6964987 45.1161575,16.1574987 L45.1221575,16.1234987 C45.1161575,15.3614987 45.0311575,14.6464987 44.8661575,13.9984987 C44.3321575,11.9074987 42.9641575,10.5004987 41.1121575,10.1394987 C39.3181575,9.78749868 37.4431575,10.5344987 36.3351575,12.0364987 C36.1161575,12.3334987 35.7531575,12.4844987 35.3831575,12.4324987 C35.0171575,12.3774987 34.7101575,12.1254987 34.5871575,11.7754987 C33.7641575,9.44249868 32.5741575,7.48149868 31.0481575,5.94749868 C29.1751575,4.06249868 24.0321575,0.00949867612 16.7781575,3.09249868 C12.5831575,4.87349868 9.29715746,10.0064987 9.29715746,14.7754987 L7.29715746,14.7754987 C7.29715746,9.17249868 11.0361575,3.35749868 15.9961575,1.25149868 C21.8111575,-1.21650132 27.9671575,0.0104986761 32.4661575,4.53649868 C33.8641575,5.94249868 35.0101575,7.64949868 35.8851575,9.62549868 C37.4371575,8.34649868 39.5011575,7.78649868 41.4941575,8.17649868 C44.0981575,8.68449868 46.0821575,10.6764987 46.8031575,13.5044987 C46.9621575,14.1274987 47.0621575,14.7924987 47.1021575,15.4894987 C47.5951575,15.6044987 48.0861575,15.7474987 48.5691575,15.9154987 C49.3521575,16.1884987 50.0951575,16.5244987 50.7771575,16.9134987 C52.6991575,18.0094987 54.1161575,19.4984987 54.9911575,21.3404987 C55.6601575,22.7484987 55.9991575,24.3574987 55.9991575,26.1204987" id="Fill-1"></path>
        </g>
    </g>
</svg>