<?xml version="1.0" encoding="UTF-8"?>
<svg width="64px" height="64px" viewBox="0 0 64 64" version="1.1" xmlns="http://www.w3.org/2000/svg" xmlns:xlink="http://www.w3.org/1999/xlink">
    <title>Icon-Architecture/48/Arch_AWS-B2B-Data-Interchange_48</title>
    <g id="Icon-Architecture/48/Arch_AWS-B2B-Data-Interchange_48" stroke="none" stroke-width="1" fill="none" fill-rule="evenodd">
        <g id="Icon-Architecture-BG/48/Application-Integration" fill="#E7157B">
            <rect id="Rectangle" x="0" y="0" width="64" height="64"></rect>
        </g>
        <g id="Icon-Service/48/AWS-B2B-Data-Interchange_48" transform="translate(10.000000, 10.000000)" fill="#FFFFFF">
            <path d="M35,24 L35,16 L27,16 L27,24 L28,24 L28,26 L26,26 C25.447,26 25,25.552 25,25 L25,15 C25,14.448 25.447,14 26,14 L36,14 C36.553,14 37,14.448 37,15 L37,25 C37,25.552 36.553,26 36,26 L34,26 L34,24 L35,24 Z M24,39 L19.414,39 L21.707,41.293 L20.293,42.707 L16.293,38.707 C15.902,38.316 15.902,37.684 16.293,37.293 L20.293,33.293 L21.707,34.707 L19.414,37 L24,37 C27.309,37 30,34.309 30,31 L30,19 L32,19 L32,31 C32,35.411 28.411,39 24,39 L24,39 Z M12,33 L12,43 C12,43.552 11.553,44 11,44 L1,44 C0.447,44 0,43.552 0,43 L0,33 C0,32.448 0.447,32 1,32 L3,32 L3,34 L2,34 L2,42 L10,42 L10,34 L9,34 L9,32 L11,32 C11.553,32 12,32.448 12,33 L12,33 Z M15.293,23.293 L17.586,21 L13,21 C9.691,21 7,23.691 7,27 L7,39 L5,39 L5,27 C5,22.589 8.589,19 13,19 L17.586,19 L15.293,16.707 L16.707,15.293 L20.707,19.293 C21.098,19.684 21.098,20.316 20.707,20.707 L16.707,24.707 L15.293,23.293 Z M37,3.395 L40.593,7 L37,7 L37,3.395 Z M43.708,7.294 L36.733,0.294 C36.546,0.106 36.291,0 36.025,0 L12,0 C11.447,0 11,0.448 11,1 L11,14 L13,14 L13,2 L35,2 L35,8 C35,8.553 35.447,9 36,9 L42,9 L42,42 L27,42 L27,44 L43,44 C43.553,44 44,43.552 44,43 L44,8 C44,7.735 43.896,7.481 43.708,7.294 L43.708,7.294 Z" id="Fill-3"></path>
        </g>
    </g>
</svg>