<?xml version="1.0" encoding="UTF-8"?>
<svg width="64px" height="64px" viewBox="0 0 64 64" version="1.1" xmlns="http://www.w3.org/2000/svg" xmlns:xlink="http://www.w3.org/1999/xlink">
    <title>Icon-Architecture/48/Arch_Amazon-Managed-Workflows-for-Apache-Airflow_48</title>
    <g id="Icon-Architecture/48/Arch_Amazon-Managed-Workflows-for-Apache-Airflow_48" stroke="none" stroke-width="1" fill="none" fill-rule="evenodd">
        <g id="Icon-Architecture-BG/48/Application-Integration" fill="#E7157B">
            <rect id="Rectangle" x="0" y="0" width="64" height="64"></rect>
        </g>
        <g id="Icon-Service/48/Amazon-Managed-Workflows-for-Apache-Airflow_48" transform="translate(10.000000, 9.999826)" fill="#FFFFFF">
            <path d="M38.5,38 C36.57,38 35,36.43 35,34.5 C35,32.57 36.57,31 38.5,31 C40.43,31 42,32.57 42,34.5 C42,36.43 40.43,38 38.5,38 L38.5,38 Z M38.5,29 C35.468,29 33,31.467 33,34.5 C33,37.533 35.468,40 38.5,40 C41.532,40 44,37.533 44,34.5 C44,31.467 41.532,29 38.5,29 L38.5,29 Z M38.5,26 C36.57,26 35,24.43 35,22.5 C35,20.57 36.57,19 38.5,19 C40.43,19 42,20.57 42,22.5 C42,24.43 40.43,26 38.5,26 L38.5,26 Z M38.5,17 C35.468,17 33,19.467 33,22.5 C33,25.533 35.468,28 38.5,28 C41.532,28 44,25.533 44,22.5 C44,19.467 41.532,17 38.5,17 L38.5,17 Z M38.5,14 C36.57,14 35,12.43 35,10.5 C35,8.57 36.57,7 38.5,7 C40.43,7 42,8.57 42,10.5 C42,12.43 40.43,14 38.5,14 L38.5,14 Z M38.5,5 C35.468,5 33,7.467 33,10.5 C33,13.533 35.468,16 38.5,16 C41.532,16 44,13.533 44,10.5 C44,7.467 41.532,5 38.5,5 L38.5,5 Z M44,0 L44,2 L30,2 L30,42 L44,42 L44,44 L29,44 C28.447,44 28,43.552 28,43 L28,23 L16,23 L16,21 L28,21 L28,1 C28,0.448 28.447,0 29,0 L44,0 Z M2,26.382 L2,17.618 L10.764,22 L2,26.382 Z M13.447,21.105 L1.447,15.105 C1.138,14.952 0.769,14.968 0.475,15.149 C0.18,15.332 0,15.653 0,16 L0,28 C0,28.347 0.18,28.668 0.475,28.851 C0.635,28.95 0.817,29 1,29 C1.153,29 1.306,28.965 1.447,28.895 L13.447,22.895 C13.786,22.725 14,22.379 14,22 C14,21.621 13.786,21.275 13.447,21.105 L13.447,21.105 Z M2,11 L11,11 L11,2 L2,2 L2,11 Z M1,13 L12,13 C12.553,13 13,12.552 13,12 L13,1 C13,0.448 12.553,0 12,0 L1,0 C0.447,0 0,0.448 0,1 L0,12 C0,12.552 0.447,13 1,13 L1,13 Z M6.5,42 C4.019,42 2,39.981 2,37.5 C2,35.019 4.019,33 6.5,33 C8.981,33 11,35.019 11,37.5 C11,39.981 8.981,42 6.5,42 L6.5,42 Z M6.5,31 C2.916,31 0,33.916 0,37.5 C0,41.084 2.916,44 6.5,44 C10.084,44 13,41.084 13,37.5 C13,33.916 10.084,31 6.5,31 L6.5,31 Z" id="Fill-3"></path>
        </g>
    </g>
</svg>