<?xml version="1.0" encoding="UTF-8"?>
<svg width="64px" height="64px" viewBox="0 0 64 64" version="1.1" xmlns="http://www.w3.org/2000/svg" xmlns:xlink="http://www.w3.org/1999/xlink">
    <title>Icon-Architecture/48/Arch_AWS-AppSync_48</title>
    <g id="Icon-Architecture/48/Arch_AWS-AppSync_48" stroke="none" stroke-width="1" fill="none" fill-rule="evenodd">
        <g id="Icon-Architecture-BG/48/Application-Integration" fill="#E7157B">
            <rect id="Rectangle" x="0" y="0" width="64" height="64"></rect>
        </g>
        <g id="Icon-Service/48/AWS-AppSync" transform="translate(11.000000, 12.000000)" fill="#FFFFFF">
            <path d="M42.3615509,10.9681157 L38.9373255,9.84007324 C43.0191636,17.3972598 42.2294232,27.010057 36.6921633,33.218779 C32.7565735,37.6302131 27.0075059,40 21.2049821,40 C18.0480379,40 14.8739474,39.2978409 11.9661295,37.8406613 L12.8789201,36.0613264 C20.3204325,39.7925439 29.6994816,38.0411357 35.1792508,31.8982412 C40.1869913,26.2849581 40.808294,17.1798299 36.9130486,10.3397632 L35.5685736,14.3273086 L33.6552436,13.6959639 L35.6724603,7.71165352 C35.8489668,7.18902375 36.4147961,6.9057664 36.9483499,7.08130617 L43,9.07607628 L42.3615509,10.9681157 Z M5.81664438,28.1899635 L6.38449089,24.818802 L8.37447517,25.1469417 L7.36586682,31.1312521 C7.31745362,31.418499 7.14397298,31.6708374 6.89081228,31.8214425 C6.73246077,31.9161941 6.55191987,31.9640686 6.37037037,31.9640686 C6.26345788,31.9640686 6.1565454,31.947113 6.05165013,31.913202 L0,29.9184318 L0.638449089,28.0263924 L4.05057115,29.1504453 C0.0534562428,21.8126835 0.86437736,12.952912 6.37743063,6.77311419 C12.4432013,-0.0270571388 22.8116952,-1.97096062 31.0338705,2.15023444 L30.1210799,3.92956939 C22.7108343,0.21331266 13.3590177,1.96372344 7.89034316,8.09265462 C2.95118805,13.6301365 2.22801586,21.5842823 5.81664438,28.1899635 L5.81664438,28.1899635 Z M12.8052917,24.9823732 C12.8052917,24.0847266 13.5446016,23.3546408 14.4513405,23.3546408 C15.359088,23.3546408 16.0973893,24.0847266 16.0973893,24.9823732 C16.0973893,25.8800197 15.359088,26.611103 14.4513405,26.611103 C13.5446016,26.611103 12.8052917,25.8800197 12.8052917,24.9823732 L12.8052917,24.9823732 Z M20.6552905,16.1684814 C20.9266062,16.2333115 21.2069993,16.276199 21.4994957,16.276199 C21.7617339,16.276199 22.0179204,16.2462775 22.2640208,16.1944134 L25.2283208,22.2166244 C24.676612,22.6744242 24.267117,23.2838264 24.0613609,23.9849881 L17.9562545,23.9849881 C17.7575587,23.3087611 17.3712617,22.7163143 16.847794,22.2654963 L20.6552905,16.1684814 Z M21.4994957,11.0259641 C22.4072432,11.0259641 23.1455445,11.7560499 23.1455445,12.6536965 C23.1455445,13.551343 22.4072432,14.2814289 21.4994957,14.2814289 C20.5927568,14.2814289 19.8544555,13.551343 19.8544555,12.6536965 C19.8544555,11.7560499 20.5927568,11.0259641 21.4994957,11.0259641 L21.4994957,11.0259641 Z M29.2133324,24.9823732 C29.2133324,25.8800197 28.4740225,26.611103 27.566275,26.611103 C26.659536,26.611103 25.9202261,25.8800197 25.9202261,24.9823732 C25.9202261,24.0847266 26.659536,23.3546408 27.566275,23.3546408 C28.4740225,23.3546408 29.2133324,24.0847266 29.2133324,24.9823732 L29.2133324,24.9823732 Z M17.9562545,25.9797582 L24.0613609,25.9797582 C24.5031314,27.4907966 25.8990453,28.6058731 27.566275,28.6058731 C29.5865175,28.6058731 31.2305491,26.9801355 31.2305491,24.9823732 C31.2305491,22.9846109 29.5865175,21.3598707 27.566275,21.3598707 C27.3978374,21.3598707 27.23646,21.3868001 27.0750827,21.4087425 L24.0442146,15.2498898 C24.7320855,14.5916157 25.1627612,13.673024 25.1627612,12.6536965 C25.1627612,10.6559342 23.5197382,9.03119396 21.4994957,9.03119396 C19.4792532,9.03119396 17.8372388,10.6559342 17.8372388,12.6536965 C17.8372388,13.6431025 18.2416907,14.5387542 18.8932517,15.1930388 L15.0080923,21.4157242 C14.8255342,21.3877974 14.6429761,21.3598707 14.4513405,21.3598707 C12.431098,21.3598707 10.788075,22.9846109 10.788075,24.9823732 C10.788075,26.9801355 12.431098,28.6058731 14.4513405,28.6058731 C16.1195787,28.6058731 17.5144841,27.4907966 17.9562545,25.9797582 L17.9562545,25.9797582 Z" id="AWS-AppSync-Icon_48_Squid"></path>
        </g>
    </g>
</svg>