<?xml version="1.0" encoding="UTF-8"?>
<svg width="80px" height="80px" viewBox="0 0 80 80" version="1.1" xmlns="http://www.w3.org/2000/svg" xmlns:xlink="http://www.w3.org/1999/xlink">
    <title>Icon-Architecture/64/Arch_AWS-rePost-Private_64</title>
    <g id="Icon-Architecture/64/Arch_AWS-rePost-Private_64" stroke="none" stroke-width="1" fill="none" fill-rule="evenodd">
        <g id="Icon-Architecture-BG/64/Customer-Enablement" fill="#C925D1">
            <rect id="Rectangle" x="0" y="0" width="80" height="80"></rect>
        </g>
        <g id="Icon-Service/64/AWS-rePost-Private_64" transform="translate(12.000000, 12.000000)" fill="#FFFFFF">
            <path d="M19.001,30.99925 L39.001,30.99925 L39.001,28.99925 L19.001,28.99925 L19.001,30.99925 Z M28.656,51.37825 L29.656,53.11025 L24.883,55.86625 C24.729,55.95625 24.556,56.00025 24.383,56.00025 C24.21,56.00025 24.037,55.95625 23.883,55.86625 L0.5,42.36625 C0.191,42.18725 0,41.85725 0,41.50025 L0,14.50025 C0,14.14325 0.191,13.81225 0.5,13.63425 L23.883,0.13425 C24.192,-0.04475 24.575,-0.04475 24.883,0.13425 L48.266,13.63425 C48.575,13.81225 48.766,14.14325 48.766,14.50025 L48.766,17.00025 L46.766,17.00025 L46.766,15.07725 L24.383,2.15525 L2,15.07725 L2,40.92325 L24.383,53.84525 L28.656,51.37825 Z M37.052,54.00025 C37.513,49.62325 40.955,46.21125 45.121,46.21125 C46.578,46.21125 48.007,46.63425 49.253,47.43425 C51.446,48.84025 52.898,51.29525 53.188,54.00025 L37.052,54.00025 Z M45.121,35.42925 C47.444,35.42925 49.332,37.31825 49.332,39.64025 C49.332,41.96225 47.444,43.85225 45.121,43.85225 C42.799,43.85225 40.909,41.96225 40.909,39.64025 C40.909,37.31825 42.799,35.42925 45.121,35.42925 L45.121,35.42925 Z M39.137,37.99925 L31,37.99925 C30.448,37.99925 30,38.44725 30,38.99925 L30,43.58525 L24.707,38.29225 C24.52,38.10425 24.266,37.99925 24,37.99925 L19,37.99925 C14.589,37.99925 11,34.41025 11,29.99925 C11,25.58825 14.589,21.99925 19,21.99925 L46,21.99925 C50.411,21.99925 54,25.58825 54,29.99925 C54,32.65925 52.684,35.10325 50.524,36.58625 C49.455,34.70425 47.436,33.42925 45.121,33.42925 C42.265,33.42925 39.859,35.36925 39.137,37.99925 L39.137,37.99925 Z M50.333,45.75025 C49.751,45.37625 49.128,45.09125 48.491,44.85125 C50.198,43.74325 51.332,41.82325 51.332,39.64025 C51.332,39.25125 51.292,38.87125 51.223,38.50225 C54.176,36.68725 56,33.49525 56,29.99925 C56,24.48525 51.514,19.99925 46,19.99925 L19,19.99925 C13.487,19.99925 9,24.48525 9,29.99925 C9,35.51325 13.487,39.99925 19,39.99925 L23.586,39.99925 L30.293,46.70725 C30.485,46.89825 30.741,47.00025 31,47.00025 C31.129,47.00025 31.259,46.97525 31.383,46.92425 C31.756,46.76925 32,46.40425 32,46.00025 L32,39.99925 L38.928,39.99925 C39.044,42.02725 40.133,43.79625 41.739,44.84425 C37.819,46.33225 35,50.31625 35,55.00025 C35,55.55225 35.448,56.00025 36,56.00025 L54.242,56.00025 C54.794,56.00025 55.242,55.55225 55.242,55.00025 C55.242,51.18025 53.407,47.72225 50.333,45.75025 L50.333,45.75025 Z" id="Fill-5"></path>
        </g>
    </g>
</svg>