<?xml version="1.0" encoding="UTF-8"?>
<svg width="80px" height="80px" viewBox="0 0 80 80" version="1.1" xmlns="http://www.w3.org/2000/svg" xmlns:xlink="http://www.w3.org/1999/xlink">
    <title>Icon-Architecture/64/Arch_AWS-Managed-Services_64</title>
    <g id="Icon-Architecture/64/Arch_AWS-Managed-Services_64" stroke="none" stroke-width="1" fill="none" fill-rule="evenodd">
        <g id="Icon-Architecture-BG/64/Customer-Enablement" fill="#C925D1">
            <rect id="Rectangle" x="0" y="0" width="80" height="80"></rect>
        </g>
        <g id="Icon-Service/64/AWS-Managed-Services" transform="translate(14.000000, 15.000000)" fill="#FFFFFF">
            <path d="M29.98,22.216 C29.98,19.9 28.096,18.016 25.78,18.016 C23.463,18.016 21.58,19.9 21.58,22.216 C21.58,24.532 23.463,26.416 25.78,26.416 C28.096,26.416 29.98,24.532 29.98,22.216 L29.98,22.216 Z M31.98,22.216 C31.98,25.634 29.199,28.416 25.78,28.416 C22.361,28.416 19.58,25.634 19.58,22.216 C19.58,18.797 22.361,16.016 25.78,16.016 C29.199,16.016 31.98,18.797 31.98,22.216 L31.98,22.216 Z M33.187,31.779 L35.344,29.623 L34.522,28.89 C34.158,28.565 34.082,28.023 34.342,27.61 C34.957,26.637 35.396,25.576 35.648,24.457 C35.755,23.979 36.209,23.647 36.68,23.678 L37.78,23.741 L37.78,20.691 L36.678,20.754 C36.209,20.771 35.753,20.452 35.646,19.976 C35.393,18.857 34.954,17.797 34.339,16.825 C34.079,16.411 34.155,15.87 34.519,15.545 L35.344,14.809 L33.187,12.652 L32.448,13.481 C32.123,13.844 31.581,13.921 31.167,13.66 C30.197,13.048 29.137,12.608 28.02,12.356 C27.543,12.248 27.214,11.811 27.243,11.323 L27.305,10.216 L24.255,10.216 L24.318,11.322 C24.346,11.81 24.017,12.246 23.54,12.354 C22.42,12.607 21.36,13.046 20.389,13.658 C19.977,13.918 19.434,13.843 19.11,13.478 L18.373,12.652 L16.216,14.809 L17.043,15.547 C17.408,15.872 17.484,16.414 17.222,16.827 C16.609,17.798 16.168,18.857 15.915,19.977 C15.806,20.453 15.327,20.771 14.882,20.754 L13.78,20.691 L13.78,23.741 L14.878,23.678 C15.327,23.647 15.803,23.979 15.911,24.456 C16.164,25.578 16.603,26.64 17.216,27.612 C17.477,28.026 17.401,28.567 17.037,28.892 L16.216,29.623 L18.373,31.78 L19.105,30.96 C19.43,30.593 19.972,30.518 20.385,30.78 C21.359,31.395 22.42,31.836 23.541,32.089 C24.017,32.196 24.346,32.633 24.318,33.121 L24.255,34.216 L27.305,34.216 L27.243,33.122 C27.214,32.634 27.543,32.197 28.021,32.09 C29.143,31.837 30.205,31.397 31.177,30.782 C31.588,30.521 32.131,30.595 32.458,30.962 L33.187,31.779 Z M33.853,33.943 C33.659,34.137 33.406,34.245 33.118,34.235 C32.842,34.227 32.583,34.107 32.4,33.901 L31.509,32.903 C30.8,33.284 30.056,33.591 29.286,33.824 L29.362,35.159 C29.377,35.434 29.28,35.703 29.09,35.903 C28.902,36.103 28.639,36.216 28.364,36.216 L23.197,36.216 C22.921,36.216 22.659,36.103 22.47,35.903 C22.281,35.703 22.183,35.434 22.199,35.159 L22.275,33.822 C21.505,33.59 20.762,33.282 20.053,32.901 L19.161,33.901 C18.978,34.107 18.718,34.227 18.443,34.235 C18.172,34.243 17.902,34.137 17.708,33.943 L14.053,30.289 C13.859,30.094 13.752,29.828 13.76,29.553 C13.768,29.278 13.889,29.019 14.094,28.835 L15.095,27.943 C14.715,27.234 14.408,26.491 14.176,25.721 L12.836,25.798 C12.56,25.815 12.292,25.715 12.093,25.527 C11.893,25.338 11.78,25.074 11.78,24.799 L11.78,19.632 C11.78,19.357 11.893,19.094 12.093,18.905 C12.292,18.716 12.559,18.618 12.836,18.633 L14.181,18.71 C14.414,17.942 14.721,17.201 15.102,16.495 L14.094,15.596 C13.889,15.413 13.768,15.154 13.76,14.879 C13.752,14.604 13.859,14.338 14.053,14.143 L17.708,10.489 C17.902,10.295 18.175,10.193 18.443,10.197 C18.718,10.205 18.978,10.325 19.161,10.531 L20.059,11.537 C20.765,11.158 21.506,10.851 22.275,10.62 L22.199,9.273 C22.183,8.998 22.281,8.729 22.47,8.529 C22.659,8.329 22.921,8.216 23.197,8.216 L28.364,8.216 C28.639,8.216 28.902,8.329 29.09,8.529 C29.28,8.729 29.377,8.998 29.362,9.273 L29.286,10.622 C30.052,10.853 30.792,11.16 31.5,11.54 L32.4,10.53 C32.584,10.325 32.842,10.205 33.118,10.197 C33.403,10.191 33.659,10.295 33.853,10.489 L37.506,14.143 C37.701,14.338 37.807,14.604 37.799,14.879 C37.792,15.154 37.67,15.413 37.465,15.596 L36.46,16.493 C36.84,17.201 37.148,17.942 37.379,18.71 L38.723,18.633 C38.997,18.619 39.267,18.716 39.466,18.905 C39.667,19.094 39.78,19.357 39.78,19.632 L39.78,24.799 C39.78,25.074 39.667,25.338 39.466,25.527 C39.267,25.715 38.996,25.814 38.723,25.798 L37.382,25.721 C37.151,26.49 36.843,27.233 36.463,27.941 L37.465,28.836 C37.67,29.019 37.792,29.278 37.799,29.553 C37.807,29.828 37.701,30.094 37.506,30.289 L33.853,33.943 Z M44.297,40.213 C44.289,39.733 44.092,39.285 43.746,38.952 C43.398,38.617 42.949,38.451 42.501,38.451 C42.028,38.451 41.556,38.635 41.204,39.002 C40.517,39.716 40.539,40.857 41.253,41.545 C41.966,42.232 43.109,42.21 43.796,41.495 L43.796,41.494 C44.129,41.149 44.307,40.694 44.297,40.213 L44.297,40.213 Z M45.132,37.51 C45.864,38.214 46.278,39.159 46.297,40.174 C46.318,41.188 45.941,42.15 45.238,42.881 C44.535,43.612 43.588,44.026 42.575,44.046 C42.548,44.047 42.523,44.047 42.498,44.047 C41.511,44.047 40.58,43.672 39.867,42.986 C38.358,41.534 38.311,39.125 39.762,37.616 C41.214,36.106 43.624,36.06 45.132,37.51 L45.132,37.51 Z M49.435,40.905 L47.541,40.035 C47.285,39.918 47.09,39.698 47.004,39.43 L46.616,38.212 C46.532,37.947 46.561,37.66 46.697,37.418 L47.716,35.604 L45.254,33.813 L43.86,35.325 C43.671,35.529 43.408,35.646 43.13,35.648 L41.828,35.655 L41.822,35.655 C41.543,35.655 41.276,35.539 41.086,35.333 L39.682,33.808 L37.216,35.596 L38.24,37.418 C38.376,37.662 38.405,37.952 38.319,38.218 L37.926,39.423 C37.839,39.688 37.646,39.905 37.392,40.021 L35.49,40.894 L36.428,43.792 L38.459,43.385 C38.735,43.327 39.023,43.394 39.25,43.562 L40.296,44.337 C40.519,44.502 40.663,44.751 40.695,45.025 L40.933,47.071 L43.978,47.074 L44.22,45.011 C44.252,44.736 44.398,44.486 44.623,44.321 L45.657,43.564 C45.883,43.399 46.171,43.335 46.444,43.39 L48.492,43.801 L49.435,40.905 Z M51.613,40.677 L50.119,45.266 C49.961,45.749 49.462,46.034 48.971,45.937 L46.483,45.438 L46.156,45.677 L45.861,48.192 C45.802,48.695 45.375,49.075 44.868,49.075 L44.867,49.075 L40.042,49.07 C39.535,49.07 39.108,48.69 39.049,48.186 L38.758,45.687 L38.417,45.433 L35.948,45.927 C35.446,46.026 34.957,45.738 34.8,45.255 L33.313,40.664 C33.157,40.182 33.386,39.659 33.847,39.447 L36.16,38.386 L36.281,38.015 L35.037,35.799 C34.789,35.357 34.911,34.799 35.322,34.5 L39.228,31.667 C39.634,31.37 40.207,31.424 40.55,31.799 L42.258,33.653 L42.684,33.65 L44.387,31.802 C44.732,31.428 45.299,31.373 45.71,31.672 L49.612,34.51 C50.022,34.809 50.144,35.367 49.896,35.809 L48.654,38.019 L48.776,38.402 L51.079,39.459 C51.541,39.671 51.77,40.195 51.613,40.677 L51.613,40.677 Z M25.832,42.57 C18.268,42.57 11.11,38.13 7.597,31.258 L5.816,32.169 C9.668,39.702 17.524,44.57 25.832,44.57 C27.65,44.57 29.887,44.245 31.969,43.678 L31.444,41.749 C29.554,42.263 27.457,42.57 25.832,42.57 L25.832,42.57 Z M43.306,26.513 L45.661,24.748 C45.574,26.421 45.341,27.822 44.769,29.366 L46.644,30.061 C47.315,28.251 47.578,26.603 47.667,24.684 L50.107,26.513 L51.306,24.914 L47.306,21.914 C46.951,21.647 46.462,21.647 46.107,21.914 L42.107,24.914 L43.306,26.513 Z M9.414,18.421 L5.414,22.421 C5.218,22.616 4.962,22.714 4.707,22.714 C4.451,22.714 4.195,22.616 4,22.421 L3.55271368e-15,18.421 L1.414,17.007 L3.824,19.417 C4.956,8.36 14.192,0 25.78,0 C34.01,0 41.79,4.812 45.597,12.258 L43.816,13.169 C40.347,6.384 33.267,2 25.78,2 C15.425,2 7.154,9.334 5.892,19.113 L8,17.007 L9.414,18.421 Z" id="AWS-Managed-Services_Icon_64_Squid"></path>
        </g>
    </g>
</svg>