<?xml version="1.0" encoding="UTF-8"?>
<svg width="80px" height="80px" viewBox="0 0 80 80" version="1.1" xmlns="http://www.w3.org/2000/svg" xmlns:xlink="http://www.w3.org/1999/xlink">
    <title>Icon-Architecture/64/Arch_AWS-IQ_64</title>
    <g id="Icon-Architecture/64/Arch_AWS-IQ_64" stroke="none" stroke-width="1" fill="none" fill-rule="evenodd">
        <g id="Icon-Architecture-BG/64/Customer-Enablement" fill="#C925D1">
            <rect id="Rectangle" x="0" y="0" width="80" height="80"></rect>
        </g>
        <g id="Icon-Service/64/AWS-IQ_64" transform="translate(12.000000, 12.000000)" fill="#FFFFFF">
            <path d="M14.018,15 C17.602,15 20.517,12.084 20.517,8.5 C20.517,4.916 17.602,2 14.018,2 C10.433,2 7.517,4.916 7.517,8.5 C7.517,12.084 10.433,15 14.018,15 L14.018,15 Z M2.129,30.007 L0.129,29.99 C0.13,29.863 0.346,18.834 9.643,15.774 C7.176,14.285 5.517,11.586 5.517,8.5 C5.517,3.813 9.331,0 14.018,0 C18.705,0 22.517,3.813 22.517,8.5 C22.517,11.535 20.914,14.196 18.514,15.7 C19.844,16.137 21.344,16.842 22.799,17.989 L21.561,19.56 C18.159,16.878 14.368,17 14.331,17.002 C9.311,17.155 5.745,19.37 3.718,23.583 C2.174,26.794 2.129,29.975 2.129,30.007 L2.129,30.007 Z M53.976,48 C53.662,41.676 50.399,35.71 45.484,32.597 C42.802,30.898 39.725,30 36.585,30 C32.751,30 29.03,31.366 26,33.834 L26,48 L53.976,48 Z M13,54 L23,48.009 L23,48 L23.016,48 L24,47.426 L24,34.574 L13,28 L2,34.574 L2,47.426 L13,54 Z M36.501,27.968 C41.739,27.968 46,23.707 46,18.468 C46,13.23 41.739,8.968 36.501,8.968 C31.262,8.968 27,13.23 27,18.468 C27,23.707 31.262,27.968 36.501,27.968 L36.501,27.968 Z M56,50 L23.556,50 L13,56 L0,48.574 L0,33.426 L13,26 L24.45,32.521 C26.509,30.775 28.871,29.494 31.39,28.755 C27.61,26.869 25,22.972 25,18.468 C25,12.127 30.16,6.968 36.501,6.968 C42.842,6.968 48,12.127 48,18.468 C48,22.944 45.425,26.821 41.684,28.72 C43.389,29.209 45.029,29.941 46.554,30.907 C52.292,34.542 56,41.644 56,49 L56,50 Z M21.791,37.918 L12.074,45.923 L5.822,41.333 L7.005,39.721 L12.003,43.39 L20.52,36.375 L21.791,37.918 Z" id="AWS-IQ_64_Squid"></path>
        </g>
    </g>
</svg>