<?xml version="1.0" encoding="UTF-8"?>
<svg width="80px" height="80px" viewBox="0 0 80 80" version="1.1" xmlns="http://www.w3.org/2000/svg" xmlns:xlink="http://www.w3.org/1999/xlink">
    <title>Icon-Architecture/64/Arch_AWS-re:Post_64</title>
    <g id="Icon-Architecture/64/Arch_AWS-re:Post_64" stroke="none" stroke-width="1" fill="none" fill-rule="evenodd">
        <g id="Icon-Architecture-BG/64/Customer-Enablement" fill="#C925D1">
            <rect id="Rectangle" x="0" y="0" width="80" height="80"></rect>
        </g>
        <g id="Icon-Service/64/AWS-re:Post_64" transform="translate(12.000000, 12.000000)" fill="#FFFFFF">
            <path d="M26.6240719,36 L41.6240719,36 L41.6240719,34 L26.6240719,34 L26.6240719,36 Z M26.6240719,21 L39.6240719,21 L39.6240719,19 L26.6240719,19 L26.6240719,21 Z M26.6240719,13 L45.6240719,13 L45.6240719,11 L26.6240719,11 L26.6240719,13 Z M51.2830719,40.002 C50.3850719,38.467 48.7370719,37.423 46.8340719,37.423 C44.5410719,37.423 42.6160719,38.931 41.9380719,41 L34.6240719,41 C34.0710719,41 33.6240719,41.448 33.6240719,42 L33.6240719,45.4 L30.5740719,41.394 C30.3840719,41.146 30.0900719,41 29.7780719,41 L26.3510719,41 C24.6350719,41 22.9960719,40.255 21.8510719,38.956 C20.6950719,37.643 20.1790719,35.962 20.4010719,34.222 C20.7800719,31.245 23.4660719,29 26.6520719,29 L47.7790719,29 C50.6530719,29 53.1920719,30.915 53.8160719,33.553 C54.4140719,36.084 53.3650719,38.629 51.2830719,40.002 L51.2830719,40.002 Z M46.8340719,45.768 C45.0840719,45.768 43.6610719,44.345 43.6610719,42.596 C43.6610719,40.846 45.0840719,39.423 46.8340719,39.423 C48.5840719,39.423 50.0060719,40.846 50.0060719,42.596 C50.0060719,44.345 48.5840719,45.768 46.8340719,45.768 L46.8340719,45.768 Z M53.0670719,54 L40.5990719,54 C41.0460719,50.703 43.6710719,48.163 46.8340719,48.163 C47.9610719,48.163 49.0690719,48.491 50.0350719,49.11 C51.6790719,50.165 52.7890719,51.982 53.0670719,54 L53.0670719,54 Z M2.44307191,19.007 C1.38107191,14.855 2.25207191,10.569 4.83007191,7.25 C7.42007191,3.914 11.3070719,2 15.4950719,2 L40.5400719,2 C46.6370719,2 52.0280719,5.931 53.6470719,11.559 C55.3110719,17.345 53.2310719,23.248 48.3450719,26.618 L47.5500719,27 L26.6520719,27 C24.5540719,27 22.6200719,27.751 21.1480719,29 L15.7010719,29 C9.39907191,29 3.94707191,24.891 2.44307191,19.007 L2.44307191,19.007 Z M55.7620719,33.092 C55.1380719,30.455 53.1050719,28.358 50.5360719,27.466 C55.3760719,23.511 57.3500719,17.2 55.5690719,11.006 C53.7050719,4.526 47.5240719,0 40.5400719,0 L15.4950719,0 C10.6850719,0 6.22207191,2.195 3.25007191,6.023 C0.291071913,9.834 -0.709928087,14.748 0.505071913,19.502 C2.23607191,26.272 8.48407191,31 15.7010719,31 L19.4550719,31 C18.9190719,31.893 18.5540719,32.894 18.4170719,33.97 C18.1270719,36.254 18.8310719,38.553 20.3500719,40.278 C21.8750719,42.008 24.0610719,43 26.3510719,43 L29.2830719,43 L33.8280719,48.97 C34.0210719,49.223 34.3180719,49.364 34.6240719,49.364 C34.7300719,49.364 34.8380719,49.347 34.9430719,49.312 C35.3500719,49.174 35.6240719,48.793 35.6240719,48.364 L35.6240719,43 L41.7020719,43 C41.8240719,44.553 42.6200719,45.912 43.8140719,46.777 C40.7270719,48.066 38.5320719,51.262 38.5320719,55 C38.5320719,55.552 38.9790719,56 39.5320719,56 L54.1350719,56 C54.6880719,56 55.1350719,55.552 55.1350719,55 C55.1350719,51.873 53.6320719,49.042 51.1150719,47.426 C50.7110719,47.168 50.2840719,46.962 49.8480719,46.781 C51.1500719,45.84 52.0060719,44.32 52.0060719,42.596 C52.0060719,42.372 51.9680719,42.158 51.9400719,41.942 C55.0080719,40.195 56.6000719,36.633 55.7620719,33.092 L55.7620719,33.092 Z M10.2200719,23 C10.6620719,20.036 13.0350719,17.766 15.8860719,17.766 C16.9140719,17.766 17.9200719,18.064 18.7990719,18.628 C20.2750719,19.574 21.2780719,21.194 21.5510719,23 L10.2200719,23 Z M15.8870719,9.967 C17.4600719,9.967 18.7380719,11.246 18.7380719,12.818 C18.7380719,14.391 17.4600719,15.67 15.8870719,15.67 C14.3140719,15.67 13.0350719,14.391 13.0350719,12.818 C13.0350719,11.246 14.3140719,9.967 15.8870719,9.967 L15.8870719,9.967 Z M23.6270719,24 C23.6270719,21.087 22.2260719,18.449 19.8790719,16.944 C19.6060719,16.769 19.3220719,16.619 19.0320719,16.482 C20.0670719,15.591 20.7380719,14.288 20.7380719,12.818 C20.7380719,10.143 18.5620719,7.967 15.8870719,7.967 C13.2110719,7.967 11.0350719,10.143 11.0350719,12.818 C11.0350719,14.289 11.7060719,15.592 12.7430719,16.483 C10.0380719,17.768 8.14607191,20.651 8.14607191,24 C8.14607191,24.552 8.59307191,25 9.14607191,25 L22.6270719,25 C23.1790719,25 23.6270719,24.552 23.6270719,24 L23.6270719,24 Z" id="Fill-1"></path>
        </g>
    </g>
</svg>