<?xml version="1.0" encoding="UTF-8"?>
<svg width="80px" height="80px" viewBox="0 0 80 80" version="1.1" xmlns="http://www.w3.org/2000/svg" xmlns:xlink="http://www.w3.org/1999/xlink">
    <title>Icon-Architecture/64/Arch_AWS-Activate_64</title>
    <g id="Icon-Architecture/64/Arch_AWS-Activate_64" stroke="none" stroke-width="1" fill="none" fill-rule="evenodd">
        <g id="Icon-Architecture-BG/64/Customer-Enablement" fill="#C925D1">
            <rect id="Rectangle" x="0" y="0" width="80" height="80"></rect>
        </g>
        <g id="Icon-Service/64/AWS-Activate_64" transform="translate(12.999800, 11.999800)" fill="#FFFFFF">
            <path d="M53.008,27.28 C53.008,38.358 46.175,47.865 36.504,51.822 L36.504,49.645 C45.043,45.81 51.008,37.231 51.008,27.28 C51.008,15.331 42.411,5.359 31.078,3.207 L30.145,1.029 C43.042,2.811 53.008,13.901 53.008,27.28 L53.008,27.28 Z M16.504,49.645 L16.504,51.822 C6.833,47.865 0,38.358 0,27.28 C0,13.903 9.962,2.815 22.857,1.03 L21.922,3.209 C10.593,5.363 2,15.334 2,27.28 C2,37.231 7.965,45.81 16.504,49.645 L16.504,49.645 Z M18.504,56 L20.504,56 L20.504,37 L18.504,37 L18.504,56 Z M32.504,56 L34.504,56 L34.504,37 L32.504,37 L32.504,56 Z M25.504,51 L27.504,51 L27.504,30 L25.504,30 L25.504,51 Z M26.504,3.391 L36.985,27.911 L27.114,20.384 C26.789,20.136 26.324,20.122 25.974,20.333 C25.943,20.352 25.911,20.373 25.882,20.395 L16.023,27.912 L26.504,3.391 Z M12.998,31.796 C13.179,31.937 13.396,32.007 13.612,32.007 C13.826,32.007 14.039,31.939 14.219,31.802 L26.506,22.435 L38.789,31.802 C39.152,32.078 39.652,32.076 40.01,31.796 C40.368,31.517 40.493,31.031 40.316,30.614 L27.489,0.607 C27.331,0.239 26.97,0 26.57,0 L26.439,0 C26.038,0 25.677,0.239 25.519,0.607 L12.693,30.614 C12.515,31.031 12.64,31.517 12.998,31.796 L12.998,31.796 Z" id="AWS-Activate_64_Squid"></path>
        </g>
    </g>
</svg>