<?xml version="1.0" encoding="UTF-8"?>
<svg width="80px" height="80px" viewBox="0 0 80 80" version="1.1" xmlns="http://www.w3.org/2000/svg" xmlns:xlink="http://www.w3.org/1999/xlink">
    <title>Icon-Architecture/64/Arch_AWS-Professional-Services_64</title>
    <g id="Icon-Architecture/64/Arch_AWS-Professional-Services_64" stroke="none" stroke-width="1" fill="none" fill-rule="evenodd">
        <g id="Icon-Architecture-BG/64/Customer-Enablement" fill="#C925D1">
            <rect id="Rectangle" x="0" y="0" width="80" height="80"></rect>
        </g>
        <g id="Icon-Service/64/AWS-Professional-Services_64" transform="translate(12.000000, 12.000000)" fill="#FFFFFF">
            <path d="M47.548,44.881 C47.316,45.11 47.21,45.438 47.264,45.76 L48.518,53.161 L41.97,49.675 C41.823,49.597 41.661,49.558 41.5,49.558 C41.339,49.558 41.177,49.597 41.03,49.675 L34.483,53.161 L35.736,45.76 C35.79,45.438 35.685,45.11 35.452,44.881 L30.13,39.628 L37.474,38.548 C37.801,38.5 38.082,38.293 38.227,37.996 L41.5,31.282 L44.774,37.996 C44.918,38.293 45.199,38.5 45.527,38.548 L52.87,39.628 L47.548,44.881 Z M55.95,38.62 C55.832,38.259 55.521,37.997 55.146,37.942 L46.34,36.646 L42.399,28.562 C42.065,27.874 40.936,27.874 40.602,28.562 L36.66,36.646 L27.855,37.942 C27.48,37.997 27.168,38.259 27.05,38.62 C26.932,38.98 27.027,39.376 27.298,39.643 L33.677,45.939 L32.17,54.833 C32.107,55.209 32.262,55.588 32.571,55.811 C32.881,56.034 33.29,56.061 33.626,55.882 L41.5,51.691 L49.374,55.882 C49.522,55.961 49.683,56 49.844,56 C50.05,56 50.255,55.936 50.429,55.811 C50.738,55.588 50.894,55.209 50.83,54.833 L49.323,45.939 L55.702,39.643 C55.973,39.376 56.069,38.98 55.95,38.62 L55.95,38.62 Z M11.6,14.199 C11.6,7.472 17.073,2 23.801,2 C30.527,2 36,7.472 36,14.199 C36,20.926 30.527,26.4 23.801,26.4 C17.073,26.4 11.6,20.926 11.6,14.199 L11.6,14.199 Z M23.763,29 C27.69,29 31.538,30.117 34.893,32.231 L35.188,32.42 L36.276,30.742 L35.958,30.538 C33.69,29.109 31.213,28.099 28.638,27.533 C34.089,25.548 38,20.329 38,14.199 C38,6.37 31.63,0 23.801,0 C15.971,0 9.6,6.37 9.6,14.199 C9.6,20.317 13.496,25.527 18.931,27.521 C8.137,29.876 0,39.957 0,52 C0,52.552 0.447,53 1,53 L30,53 L30,51 L2.021,51 C2.518,38.78 12.08,29 23.763,29 L23.763,29 Z" id="AWS-Professional-Services_64_Squid"></path>
        </g>
    </g>
</svg>