<?xml version="1.0" encoding="UTF-8"?>
<svg width="64px" height="64px" viewBox="0 0 64 64" version="1.1" xmlns="http://www.w3.org/2000/svg" xmlns:xlink="http://www.w3.org/1999/xlink">
    <title>Icon-Architecture/48/Arch_Amazon-GameLift_48</title>
    <g id="Icon-Architecture/48/Arch_Amazon-GameLift_48" stroke="none" stroke-width="1" fill="none" fill-rule="evenodd">
        <g id="Icon-Architecture-BG/48/Game-Tech" fill="#8C4FFF">
            <rect id="Rectangle" x="0" y="0" width="64" height="64"></rect>
        </g>
        <g id="Icon-Service/48/Amazon-GameLift_48" transform="translate(10.000000, 10.000000)" fill="#FFFFFF">
            <path d="M36.5,29.999 C36.5,29.171 37.172,28.499 38,28.499 C38.828,28.499 39.5,29.171 39.5,29.999 C39.5,30.827 38.828,31.499 38,31.499 C37.172,31.499 36.5,30.827 36.5,29.999 L36.5,29.999 Z M20.999,30.999 L19.999,30.999 L19.999,28.999 L20.999,28.999 L20.999,27.999 L22.999,27.999 L22.999,28.999 L23.999,28.999 L23.999,30.999 L22.999,30.999 L22.999,31.999 L20.999,31.999 L20.999,30.999 Z M41.402,41.558 C41.11,41.854 40.703,41.999 40.157,41.999 C38.435,41.999 36.831,38.137 35.771,35.581 C35.768,35.575 35.765,35.569 35.762,35.562 C36.454,35.841 37.208,35.999 37.999,35.999 C39.537,35.999 40.937,35.413 42,34.458 L42,39.812 C42.006,40.122 41.91,41.04 41.402,41.558 L41.402,41.558 Z M19.842,41.999 C19.296,41.999 18.889,41.855 18.598,41.558 C18.09,41.04 17.994,40.122 18,39.787 L18,34.459 C19.062,35.413 20.462,35.999 21.999,35.999 C22.79,35.999 23.543,35.841 24.235,35.562 C24.232,35.569 24.229,35.576 24.227,35.583 C23.167,38.138 21.564,41.999 19.842,41.999 L19.842,41.999 Z M21.999,25.999 C24.205,25.999 25.999,27.793 25.999,29.999 C25.999,32.204 24.205,33.999 21.999,33.999 C19.793,33.999 17.999,32.204 17.999,29.999 C17.999,27.793 19.793,25.999 21.999,25.999 L21.999,25.999 Z M32.811,32.999 L27.187,32.999 C27.7,32.115 27.999,31.092 27.999,29.999 C27.999,28.905 27.7,27.883 27.187,26.999 L32.811,26.999 C32.298,27.883 31.999,28.905 31.999,29.999 C31.999,31.092 32.298,32.115 32.811,32.999 L32.811,32.999 Z M37.999,25.999 C40.205,25.999 41.999,27.793 41.999,29.999 C41.999,32.204 40.205,33.999 37.999,33.999 C35.793,33.999 33.999,32.204 33.999,29.999 C33.999,27.793 35.793,25.999 37.999,25.999 L37.999,25.999 Z M44,39.787 L43.999,29.999 C43.999,26.69 41.308,23.999 37.999,23.999 C36.776,23.999 35.639,24.368 34.689,24.999 L25.309,24.999 C24.359,24.368 23.222,23.999 21.999,23.999 C18.69,23.999 15.99893,26.69 15.99893,29.999 L16,39.756 C15.994,39.954 15.975,41.726 17.155,42.944 C17.824,43.634 18.754,43.999 19.842,43.999 C22.899,43.999 24.66,39.758 26.074,36.349 C26.273,35.87 26.462,35.414 26.644,34.999 L33.354,34.999 C33.535,35.413 33.725,35.87 33.924,36.348 C35.339,39.757 37.1,43.999 40.157,43.999 C41.245,43.999 42.175,43.634 42.844,42.944 C44.024,41.726 44.006,39.954 44,39.787 L44,39.787 Z M6.606,30.598 C7.763,30.005 9.077,29.509 10.501,29.111 C11.297,31.556 12.376,33.611 13.661,35.128 C10.938,34.224 8.525,32.648 6.606,30.598 L6.606,30.598 Z M5.307,29.032 C3.424,26.469 2.248,23.368 2.051,20 L9.026,20 C9.094,22.58 9.418,25.004 9.956,27.193 C8.241,27.673 6.675,28.29 5.307,29.032 L5.307,29.032 Z M5.306,8.969 C6.674,9.712 8.242,10.327 9.956,10.807 C9.418,12.996 9.094,15.42 9.026,18 L2.051,18 C2.248,14.632 3.424,11.531 5.306,8.969 L5.306,8.969 Z M13.661,2.871 C12.376,4.389 11.297,6.443 10.501,8.889 C9.077,8.491 7.76,7.998 6.603,7.405 C8.522,5.353 10.936,3.776 13.661,2.871 L13.661,2.871 Z M19,2 C21.666,2 24.074,4.949 25.536,9.357 C23.491,9.77 21.285,10 19,10 C16.712,10 14.507,9.77 12.463,9.359 C13.926,4.949 16.333,2 19,2 L19,2 Z M31.394,7.401 C30.236,7.994 28.923,8.49 27.499,8.888 C26.703,6.443 25.624,4.389 24.339,2.871 C27.062,3.775 29.475,5.352 31.394,7.401 L31.394,7.401 Z M32.693,8.968 C34.576,11.53 35.752,14.632 35.949,18 L28.974,18 C28.906,15.42 28.582,12.995 28.044,10.807 C29.759,10.327 31.325,9.71 32.693,8.968 L32.693,8.968 Z M11.025,18 C11.094,15.606 11.404,13.33 11.911,11.282 C14.133,11.742 16.526,12 19,12 C21.471,12 23.865,11.742 26.089,11.281 C26.595,13.329 26.906,15.606 26.975,18 L11.025,18 Z M14,32.14 C13.417,31.127 12.898,29.951 12.464,28.642 C12.966,28.541 13.479,28.451 14,28.373 L14,26.362 C13.291,26.463 12.591,26.578 11.911,26.719 C11.405,24.671 11.094,22.393 11.025,20 L26.975,20 C26.946,21.026 26.863,22.025 26.748,23 L28.762,23 C28.869,22.025 28.947,21.029 28.974,20 L35.949,20 C35.91,20.679 35.82,21.344 35.702,22 L37.74,22 C37.896,21.02 38,20.023 38,19 C38,8.523 29.477,0 19,0 C8.523,0 -3.55271368e-15,8.523 -3.55271368e-15,19 C-3.55271368e-15,27.744 5.945,35.107 14,37.31 L14,32.14 Z" id="Fill-5"></path>
        </g>
    </g>
</svg>