<?xml version="1.0" encoding="UTF-8"?>
<svg width="64px" height="64px" viewBox="0 0 64 64" version="1.1" xmlns="http://www.w3.org/2000/svg" xmlns:xlink="http://www.w3.org/1999/xlink">
    <title>Icon-Architecture/48/Arch_Open-3D-Engine_48</title>
    <g id="Icon-Architecture/48/Arch_Open-3D-Engine_48" stroke="none" stroke-width="1" fill="none" fill-rule="evenodd">
        <g id="Icon-Architecture-BG/48/Game-Tech" fill="#8C4FFF">
            <rect id="Rectangle" x="0" y="0" width="64" height="64"></rect>
        </g>
        <g id="Icon-Service/48/Open-3D-Engine_48" transform="translate(10.000000, 10.000000)" fill="#FFFFFF">
            <path d="M38.001,31.5 C38.829,31.5 39.501,30.828 39.501,30 C39.501,29.172 38.829,28.5 38.001,28.5 C37.173,28.5 36.501,29.172 36.501,30 C36.501,30.828 37.173,31.5 38.001,31.5 L38.001,31.5 Z M21,32 L23,32 L23,31 L24,31 L24,29 L23,29 L23,28 L21,28 L21,29 L20,29 L20,31 L21,31 L21,32 Z M42.001,39.813 L42.001,34.459 C40.938,35.414 39.538,36 38,36 C37.209,36 36.455,35.842 35.763,35.563 C35.766,35.57 35.769,35.576 35.772,35.582 C36.832,38.138 38.436,42 40.158,42 C40.704,42 41.111,41.855 41.403,41.559 C41.911,41.041 42.007,40.123 42.001,39.813 L42.001,39.813 Z M24.228,35.584 C24.23,35.577 24.233,35.57 24.236,35.563 C23.544,35.842 22.791,36 22,36 C20.463,36 19.063,35.414 18.001,34.46 L18.001,39.788 C17.995,40.123 18.091,41.041 18.599,41.559 C18.89,41.856 19.297,42 19.843,42 C21.565,42 23.168,38.139 24.228,35.584 L24.228,35.584 Z M18,30 C18,32.205 19.794,34 22,34 C24.206,34 26,32.205 26,30 C26,27.794 24.206,26 22,26 C19.794,26 18,27.794 18,30 L18,30 Z M32,30 C32,28.906 32.299,27.884 32.812,27 L27.188,27 C27.701,27.884 28,28.906 28,30 C28,31.093 27.701,32.116 27.188,33 L32.812,33 C32.299,32.116 32,31.093 32,30 L32,30 Z M34,30 C34,32.205 35.794,34 38,34 C40.206,34 42,32.205 42,30 C42,27.794 40.206,26 38,26 C35.794,26 34,27.794 34,30 L34,30 Z M42.845,42.945 C42.176,43.635 41.246,44 40.158,44 C37.101,44 35.34,39.758 33.925,36.349 C33.726,35.871 33.536,35.414 33.355,35 L26.645,35 C26.463,35.415 26.274,35.871 26.075,36.35 C24.661,39.759 22.9,44 19.843,44 C18.755,44 17.825,43.635 17.156,42.945 C15.976,41.727 15.995,39.955 16.001,39.757 L15.99993,30 C15.99993,26.691 18.691,24 22,24 C23.223,24 24.36,24.369 25.31,25 L34.69,25 C35.64,24.369 36.777,24 38,24 C41.309,24 44,26.691 44,30 L44.001,39.788 C44.007,39.955 44.025,41.727 42.845,42.945 L42.845,42.945 Z M22,12 C27.514,12 32,16.486 32,22 L34,22 C34,15.383 28.617,10 22,10 C15.383,10 10,15.383 10,22 C10,25.336 11.337,28.435 13.764,30.727 L15.137,29.273 C13.114,27.363 12,24.78 12,22 C12,16.486 16.486,12 22,12 L22,12 Z M11.676,36.534 L13.168,37.865 L10.849,40.466 C10.666,40.672 10.406,40.792 10.131,40.8 C10.122,40.801 10.112,40.801 10.103,40.801 C9.838,40.801 9.583,40.696 9.396,40.508 L3.493,34.605 C3.299,34.411 3.192,34.145 3.2,33.87 C3.208,33.595 3.329,33.335 3.534,33.152 L5.517,31.384 C4.732,30.008 4.128,28.547 3.712,27.02 L1.057,27.172 C0.787,27.188 0.513,27.089 0.313,26.901 C0.113,26.712 -3.55271368e-15,26.449 -3.55271368e-15,26.174 L-3.55271368e-15,17.826 C-3.55271368e-15,17.552 0.113,17.288 0.313,17.099 C0.513,16.911 0.786,16.811 1.057,16.828 L3.72,16.98 C4.137,15.458 4.742,14 5.527,12.627 L3.534,10.848 C3.329,10.665 3.208,10.405 3.2,10.13 C3.192,9.855 3.299,9.589 3.493,9.395 L9.396,3.492 C9.59,3.298 9.862,3.188 10.131,3.2 C10.406,3.208 10.666,3.328 10.849,3.534 L12.626,5.526 C13.999,4.744 15.458,4.14 16.98,3.724 L16.829,1.056 C16.814,0.782 16.911,0.513 17.101,0.313 C17.289,0.113 17.552,0 17.827,0 L26.174,0 C26.449,0 26.712,0.113 26.9,0.313 C27.09,0.513 27.188,0.782 27.172,1.057 L27.021,3.726 C28.541,4.143 29.999,4.747 31.371,5.53 L33.152,3.534 C33.336,3.328 33.595,3.208 33.87,3.2 C34.146,3.186 34.411,3.298 34.605,3.492 L40.508,9.395 C40.702,9.589 40.809,9.855 40.801,10.13 C40.793,10.405 40.672,10.665 40.467,10.848 L38.477,12.623 C39.261,13.997 39.866,15.457 40.283,16.98 L42.943,16.828 C43.213,16.812 43.486,16.911 43.687,17.099 C43.887,17.288 44,17.551 44,17.826 L44.001,23.001 L42.001,23.001 L42,18.885 L39.57,19.024 C39.103,19.04 38.646,18.722 38.538,18.246 C38.114,16.37 37.377,14.593 36.348,12.963 C36.087,12.549 36.163,12.008 36.527,11.682 L38.345,10.06 L33.939,5.655 L32.313,7.479 C31.987,7.844 31.443,7.919 31.033,7.659 C29.404,6.631 27.628,5.895 25.754,5.471 C25.277,5.363 24.948,4.927 24.977,4.438 L25.115,2 L18.886,2 L19.023,4.437 C19.052,4.925 18.723,5.361 18.246,5.469 C16.37,5.892 14.593,6.628 12.964,7.655 C12.553,7.915 12.01,7.841 11.685,7.475 L10.062,5.655 L5.655,10.061 L7.477,11.686 C7.841,12.012 7.917,12.553 7.656,12.966 C6.626,14.596 5.888,16.373 5.464,18.246 C5.355,18.723 4.878,19.04 4.432,19.024 L2,18.885 L2,25.115 L4.425,24.976 C4.878,24.949 5.349,25.277 5.457,25.755 C5.881,27.635 6.617,29.414 7.646,31.045 C7.906,31.459 7.83,32 7.466,32.325 L5.656,33.94 L10.061,38.345 L11.676,36.534 Z" id="Fill-7"></path>
        </g>
    </g>
</svg>