<?xml version="1.0" encoding="UTF-8"?>
<svg width="80px" height="80px" viewBox="0 0 80 80" version="1.1" xmlns="http://www.w3.org/2000/svg" xmlns:xlink="http://www.w3.org/1999/xlink">
    <title>Icon-Architecture/64/Arch_Amazon-Chime-SDK_64</title>
    <g id="Icon-Architecture/64/Arch_Amazon-Chime-SDK_64" stroke="none" stroke-width="1" fill="none" fill-rule="evenodd">
        <g id="Icon-Architecture-BG/64/Business-Applications" fill="#DD344C">
            <rect id="Rectangle" x="0" y="0" width="80" height="80"></rect>
        </g>
        <g id="Icon-Service/64/Amazon-Chime-SDK_64" transform="translate(12.000000, 12.000000)" fill="#FFFFFF">
            <path d="M30.999,36.356 L26.741,34 L22.999,34 L22.999,32 L25.999,32 L25.999,28.544 L20.39,24.909 L16.999,26.616 L16.999,33.465 L22.554,37.168 L21.444,38.832 L15.444,34.832 C15.166,34.647 14.999,34.335 14.999,34 L14.999,26.618 L12.03,25.134 L5.999,28.581 L5.999,32.382 L8.927,33.846 L10.999,32.465 L10.999,29 L12.999,29 L12.999,33 C12.999,33.335 12.832,33.647 12.554,33.832 L9.999,35.535 L9.999,39 C9.999,39.335 9.832,39.647 9.554,39.832 L6.554,41.832 L5.444,40.168 L7.999,38.465 L7.999,35.618 L5.059,34.148 L1.999,36.096 L1.999,42.563 L5.407,44.087 C5.768,44.248 5.999,44.606 5.999,45 L5.999,49.485 L12.091,53.836 L14.999,52.382 L14.999,44.135 L10.64,47.768 L9.358,46.232 L14.999,41.531 L14.999,39.535 L12.444,37.832 L13.554,36.168 L16.554,38.168 C16.832,38.354 16.999,38.666 16.999,39 L16.999,47 L21.999,47 L21.999,49 L16.999,49 L16.999,52.323 L20.862,53.869 L26.999,49.485 L26.999,45.481 L22.374,41.781 L23.624,40.219 L28.172,43.858 L30.999,42.747 L30.999,36.356 Z M32.999,35.766 L32.999,43.429 C32.999,43.84 32.747,44.209 32.364,44.359 L28.999,45.682 L28.999,50 C28.999,50.323 28.843,50.626 28.58,50.814 L21.58,55.814 C21.408,55.937 21.204,56 20.999,56 C20.874,56 20.747,55.977 20.628,55.929 L16.045,54.095 L12.446,55.895 C12.113,56.06 11.719,56.027 11.418,55.814 L4.418,50.814 C4.155,50.626 3.999,50.323 3.999,50 L3.999,45.648 L0.592,44.123 C0.231,43.962 0,43.605 0,43.21 L0,35.547 C0,35.206 0.175,34.888 0.463,34.704 L3.999,32.451 L3.999,28 C3.999,27.641 4.191,27.31 4.503,27.132 L11.503,23.132 C11.794,22.966 12.148,22.957 12.446,23.106 L15.997,24.881 L20.002,22.865 C20.321,22.705 20.698,22.726 20.996,22.918 L27.543,27.161 C27.827,27.345 27.999,27.661 27.999,28 L27.999,32.41 L32.483,34.891 C32.802,35.067 32.999,35.402 32.999,35.766 L32.999,35.766 Z M19.999,20 L21.999,20 L21.999,6 L19.999,6 L19.999,20 Z M26.999,23 L28.999,23 L28.999,10 L26.999,10 L26.999,23 Z M33.999,28 L35.999,28 L35.999,6 L33.999,6 L33.999,28 Z M47.999,18 L49.999,18 L49.999,10 L47.999,10 L47.999,18 Z M12.999,19 L14.999,19 L14.999,12 L12.999,12 L12.999,19 Z M40.999,22 L42.999,22 L42.999,12 L40.999,12 L40.999,22 Z M40.999,46 C40.88,46 40.76,45.979 40.644,45.935 C40.256,45.787 39.999,45.415 39.999,45 L39.999,37 L34.999,37 L34.999,35 L40.999,35 C41.552,35 41.999,35.448 41.999,36 L41.999,42.37 L48.252,35.335 C48.441,35.122 48.714,35 48.999,35 L51.999,35 C53.298,35 53.999,33.417 53.999,31.927 L53.999,4.637 C53.999,3.183 52.893,2 51.533,2 L10.696,2 C10.276,2 8.999,2 8.999,4.637 L8.999,22.857 L6.999,22.857 L6.999,4.637 C6.999,1.733 8.381,-3.55271368e-15 10.696,-3.55271368e-15 L51.533,-3.55271368e-15 C53.996,-3.55271368e-15 55.999,2.08 55.999,4.637 L55.999,31.927 C55.999,34.386 54.597,37 51.999,37 L49.448,37 L41.746,45.665 C41.553,45.882 41.279,46 40.999,46 L40.999,46 Z" id="Fill-3"></path>
        </g>
    </g>
</svg>