<?xml version="1.0" encoding="UTF-8"?>
<svg width="80px" height="80px" viewBox="0 0 80 80" version="1.1" xmlns="http://www.w3.org/2000/svg" xmlns:xlink="http://www.w3.org/1999/xlink">
    <title>Icon-Architecture/64/Arch_AWS-Wickr_64</title>
    <g id="Icon-Architecture/64/Arch_AWS-Wickr_64" stroke="none" stroke-width="1" fill="none" fill-rule="evenodd">
        <g id="Icon-Architecture-BG/64/Business-Applications" fill="#DD344C">
            <rect id="Rectangle" x="0" y="0" width="80" height="80"></rect>
        </g>
        <path d="M33,25 L47,25 L47,19.25 C47,16.502 44.26,14 41.25,14 L38.75,14 C35.74,14 33,16.502 33,19.25 L33,25 Z M52,27 L28,27 C27.448,27 27,27.449 27,28 L27,48 C27,48.551 27.448,49 28,49 L52,49 C52.552,49 53,48.551 53,48 L53,28 C53,27.449 52.552,27 52,27 L52,27 Z M31,25 L31,19.25 C31,15.388 34.621,12 38.75,12 L41.25,12 C45.379,12 49,15.388 49,19.25 L49,25 L52,25 C53.654,25 55,26.346 55,28 L55,48 C55,49.654 53.654,51 52,51 L28,51 C26.346,51 25,49.654 25,48 L25,28 C25,26.346 26.346,25 28,25 L31,25 Z M39.207,44.457 L50.457,33.207 L49.043,31.793 L37.793,43.043 L39.207,44.457 Z M42.957,33.207 L41.543,31.793 L30.293,43.043 L31.707,44.457 L42.957,33.207 Z M66,25.314 L66,55.188 C66,57.722 63.909,59.943 61.526,59.943 L37.046,59.998 L37,67.006 C36.997,67.41 36.753,67.772 36.38,67.925 C36.257,67.976 36.128,68 36,68 C35.74,68 35.484,67.898 35.293,67.707 L27.583,59.998 L18.565,59.944 C15.917,59.944 14.063,58.355 14.063,56.081 L14,25.066 C14,22.747 15.93,21 18.488,21 L29,21 L29,23 L18.488,23 C17.252,23 16,23.709 16,25.064 L16.063,56.079 C16.063,57.854 18.152,57.944 18.571,57.944 L28.006,58 C28.27,58.001 28.521,58.107 28.707,58.293 L35.016,64.602 L35.053,58.994 C35.057,58.444 35.502,58.001 36.051,58 L61.524,57.943 C62.92,57.943 64,56.462 64,55.188 L64,25.314 C64,24.038 62.884,23 61.512,23 L51,23 L51,21 L61.512,21 C63.986,21 66,22.935 66,25.314 L66,25.314 Z" id="Fill-7" fill="#FFFFFF"></path>
    </g>
</svg>