<svg width="80" height="80" viewBox="0 0 80 80" fill="none" xmlns="http://www.w3.org/2000/svg">
<g clip-path="url(#clip0_15_116)">
<rect width="80" height="80" fill="#DD344C"/>
<path d="M63.9 20H21.11C18.85 20 17.01 21.84 17.01 24.1V53.91C17.01 56.16 18.84 58 21.09 58H42.01V65.79C42.01 66.17 42.23 66.52 42.58 66.69C42.72 66.76 42.87 66.79 43.01 66.79C43.23 66.79 43.45 66.72 43.63 66.57L54.43 57.99H63.9C66.16 57.99 68 56.15 68 53.89V24.1C68 21.84 66.16 20 63.9 20ZM66 53.9C66 55.06 65.06 56 63.9 56H54.08C53.85 56 53.63 56.08 53.46 56.22L44.01 63.73V57.01C44.01 56.46 43.56 56.01 43.01 56.01H21.09C19.94 56.01 19.01 55.07 19.01 53.92V24.11C19.01 22.95 19.95 22.01 21.11 22.01H63.9C65.06 22.01 66 22.95 66 24.11V53.9ZM14 17.1V49C14 49.55 14.45 50 15 50V52C13.35 52 12 50.65 12 49V17.1C12 14.84 13.84 13 16.1 13H53.89C56.15 13 57.99 14.84 57.99 17.1V18H55.99V17.1C55.99 15.94 55.05 15 53.89 15H16.1C14.94 15 14 15.94 14 17.1ZM48.34 41.12C47.3 40.45 46.15 40 44.97 39.74C47.53 38.83 49.38 36.39 49.38 33.52C49.38 29.88 46.42 26.92 42.78 26.92C39.14 26.92 36.18 29.88 36.18 33.52C36.18 36.38 38.01 38.81 40.55 39.73C35.66 40.83 31.98 45.47 31.98 51C31.98 51.55 32.43 52 32.98 52H52.59C53.14 52 53.59 51.55 53.59 51C53.59 46.98 51.58 43.19 48.35 41.12H48.34ZM38.18 33.52C38.18 30.98 40.25 28.92 42.78 28.92C45.31 28.92 47.38 30.98 47.38 33.52C47.38 36.06 45.32 38.12 42.78 38.12C40.24 38.12 38.18 36.06 38.18 33.52ZM34.02 50C34.48 45.22 38.23 41.48 42.78 41.48C44.36 41.48 45.91 41.94 47.26 42.81C49.66 44.35 51.24 47.05 51.53 50.01H34.02V50Z" fill="white"/>
</g>
<defs>
<clipPath id="clip0_15_116">
<rect width="80" height="80" fill="white"/>
</clipPath>
</defs>
</svg>
