<?xml version="1.0" encoding="UTF-8"?>
<svg width="80px" height="80px" viewBox="0 0 80 80" version="1.1" xmlns="http://www.w3.org/2000/svg" xmlns:xlink="http://www.w3.org/1999/xlink">
    <title>Icon-Architecture/64/Arch_AWS-AppFabric_64</title>
    <g id="Icon-Architecture/64/Arch_AWS-AppFabric_64" stroke="none" stroke-width="1" fill="none" fill-rule="evenodd">
        <g id="Icon-Architecture-BG/64/Business-Applications" fill="#DD344C">
            <rect id="Rectangle" x="0" y="0" width="80" height="80"></rect>
        </g>
        <g id="Icon-Service/64/AWS-AppFabric_64" transform="translate(12.000000, 12.000000)" fill="#FFFFFF">
            <path d="M51.996,32.414 C57.324,27.085 57.324,18.414 51.996,13.085 C46.667,7.756 37.996,7.755 32.667,13.085 L21.024,24.727 C17.535,28.217 16.196,33.34 17.531,38.097 L19.457,37.557 C18.317,33.495 19.46,29.121 22.438,26.142 L34.081,14.499 C38.631,9.95 46.032,9.95 50.582,14.499 C55.131,19.048 55.131,26.451 50.582,31 L26.989,54.592 L28.403,56.006 L51.996,32.414 Z M13.668,47.165 C10.017,47.165 6.586,45.744 4.004,43.163 C1.422,40.581 0,37.149 0,33.498 C0,29.848 1.422,26.415 4.004,23.834 L27.838,0 L29.252,1.414 L5.418,25.248 C3.214,27.452 2,30.382 2,33.498 C2,36.615 3.214,39.545 5.418,41.748 C7.622,43.952 10.552,45.165 13.668,45.165 C16.785,45.165 19.715,43.952 21.918,41.748 L33.56,30.106 C36.713,26.954 37.79,22.368 36.372,18.138 L38.268,17.502 C39.93,22.456 38.667,27.828 34.975,31.52 L23.332,43.163 C20.751,45.744 17.319,47.165 13.668,47.165 L13.668,47.165 Z" id="Fill-5"></path>
        </g>
    </g>
</svg>