<?xml version="1.0" encoding="UTF-8"?>
<svg width="80px" height="80px" viewBox="0 0 80 80" version="1.1" xmlns="http://www.w3.org/2000/svg" xmlns:xlink="http://www.w3.org/1999/xlink">
    <title>Icon-Architecture/64/Arch_AWS-Supply-Chain_64</title>
    <g id="Icon-Architecture/64/Arch_AWS-Supply-Chain_64" stroke="none" stroke-width="1" fill="none" fill-rule="evenodd">
        <g id="Icon-Architecture-BG/64/Business-Applications" fill="#DD344C">
            <rect id="Rectangle" x="0" y="0" width="80" height="80"></rect>
        </g>
        <path d="M58,35.9995 L58,49.9995 C58,50.3455 57.821,50.6665 57.528,50.8485 L45,58.6435 L45,56.2885 L56,49.4435 L56,37.7895 L45,44.5585 L45,42.2095 L56.476,35.1475 C56.785,34.9585 57.171,34.9495 57.488,35.1265 C57.804,35.3035 58,35.6375 58,35.9995 L58,35.9995 Z M24,49.4405 L35,56.2095 L35,58.5585 L22.476,50.8515 C22.18,50.6685 22,50.3465 22,49.9995 L22,35.9995 C22,35.6375 22.196,35.3035 22.512,35.1265 C22.829,34.9495 23.215,34.9585 23.524,35.1475 L35,42.2095 L35,44.5585 L24,37.7895 L24,49.4405 Z M51,47.9755 L40.489,53.8715 C40.337,53.9575 40.169,53.9995 40,53.9995 C39.828,53.9995 39.656,53.9555 39.502,53.8665 L29,47.8275 L29,45.5215 L40.006,51.8495 L51,45.6825 L51,47.9755 Z M41,65.2195 L41,58.9995 L39,58.9995 L39,65.2195 L18,52.4375 L18,27.6615 L39,39.5815 L39,43.9995 L41,43.9995 L41,39.5815 L62,27.6615 L62,52.4375 L41,65.2195 Z M40,14.1465 L60.968,25.9475 L40,37.8495 L19.032,25.9475 L40,14.1465 Z M63.49,25.0725 L40.49,12.1275 C40.186,11.9575 39.814,11.9575 39.51,12.1275 L16.51,25.0725 C16.194,25.2495 16,25.5825 16,25.9435 L16,52.9995 C16,53.3485 16.182,53.6725 16.48,53.8535 L39.48,67.8535 C39.64,67.9505 39.82,67.9995 40,67.9995 C40.18,67.9995 40.36,67.9505 40.52,67.8535 L63.52,53.8535 C63.818,53.6725 64,53.3485 64,52.9995 L64,25.9435 C64,25.5825 63.806,25.2495 63.49,25.0725 L63.49,25.0725 Z" id="Fill-1" fill="#FFFFFF"></path>
    </g>
</svg>