<?xml version="1.0" encoding="UTF-8"?>
<svg width="24px" height="24px" viewBox="0 0 24 24" version="1.1" xmlns="http://www.w3.org/2000/svg" xmlns:xlink="http://www.w3.org/1999/xlink">
    <title>Icon-Architecture/16/Arch_NICE-EnginFrame_16</title>
    <g id="Icon-Architecture/16/Arch_NICE-EnginFrame_16" stroke="none" stroke-width="1" fill="none" fill-rule="evenodd">
        <g id="Icon-Architecture-BG/16/Compute" fill="#ED7100">
            <rect id="Rectangle" x="0" y="0" width="24" height="24"></rect>
        </g>
        <g id="Icon-Service/16/NICE-EnginFrame_16" transform="translate(4.000000, 5.000000)" fill="#FFFFFF">
            <path d="M4.051,9 C4.906,9.924 6.311,10.5 7.845,10.5 C10.412,10.5 12.5,8.93 12.5,7 C12.5,5.07 10.412,3.5 7.845,3.5 C6.311,3.5 4.906,4.076 4.051,5 L7.845,5 C8.974,5 9.892,5.897 9.892,7 C9.892,8.103 8.974,9 7.845,9 L4.051,9 Z M7.845,11.5 C5.48,11.5 3.35,10.305 2.545,8.525 C2.457,8.332 2.501,8.104 2.655,7.957 C2.811,7.811 3.038,7.777 3.23,7.875 C3.39,7.958 3.556,8 3.721,8 L7.845,8 C8.422,8 8.892,7.551 8.892,7 C8.892,6.449 8.422,6 7.845,6 L3.721,6 C3.556,6 3.39,6.042 3.23,6.125 C3.038,6.222 2.811,6.189 2.655,6.043 C2.501,5.896 2.457,5.668 2.545,5.475 C3.35,3.695 5.48,2.5 7.845,2.5 C10.963,2.5 13.5,4.519 13.5,7 C13.5,9.481 10.963,11.5 7.845,11.5 L7.845,11.5 Z M8,1 C4.141,1 1,3.691 1,7 C1,10.309 4.141,13 8,13 C11.86,13 15,10.309 15,7 C15,3.691 11.86,1 8,1 L8,1 Z M8,14 C3.589,14 0,10.86 0,7 C0,3.14 3.589,0 8,0 C12.411,0 16,3.14 16,7 C16,10.86 12.411,14 8,14 L8,14 Z" id="Fill-1"></path>
        </g>
    </g>
</svg>