<?xml version="1.0" encoding="UTF-8"?>
<svg width="24px" height="24px" viewBox="0 0 24 24" version="1.1" xmlns="http://www.w3.org/2000/svg" xmlns:xlink="http://www.w3.org/1999/xlink">
    <title>Icon-Architecture/16/Arch_Amazon-Lightsail-for-Research_16</title>
    <g id="Icon-Architecture/16/Arch_Amazon-Lightsail-for-Research_16" stroke="none" stroke-width="1" fill="none" fill-rule="evenodd">
        <g id="Icon-Architecture-BG/16/Compute" fill="#ED7100">
            <rect id="Rectangle" x="0" y="0" width="24" height="24"></rect>
        </g>
        <path d="M5.99488214,18.9914381 L17.9948821,18.9914381 L17.9948821,17.9914381 L5.99488214,17.9914381 L5.99488214,18.9914381 Z M18.9948821,17.4914381 L18.9948821,19.4914381 C18.9948821,19.7674381 18.7708821,19.9914381 18.4948821,19.9914381 L5.49488214,19.9914381 C5.21888214,19.9914381 4.99488214,19.7674381 4.99488214,19.4914381 L4.99488214,17.4914381 C4.99488214,17.2154381 5.21888214,16.9914381 5.49488214,16.9914381 L5.99488214,16.9914381 L5.99488214,11.7414381 C5.99488214,11.3274381 6.33188214,10.9914381 6.74488214,10.9914381 L7.99488214,10.9914381 L7.99488214,11.9914381 L6.99488214,11.9914381 L6.99488214,16.9914381 L16.9948821,16.9914381 L16.9948821,11.9914381 L15.9948821,11.9914381 L15.9948821,10.9914381 L17.2448821,10.9914381 C17.6578821,10.9914381 17.9948821,11.3274381 17.9948821,11.7414381 L17.9948821,16.9914381 L18.4948821,16.9914381 C18.7708821,16.9914381 18.9948821,17.2154381 18.9948821,17.4914381 L18.9948821,17.4914381 Z M13.4998821,11.0034381 C13.5958821,10.1564381 13.0078821,9.41743813 12.1608821,9.32043813 C12.1008821,9.31443813 12.0428821,9.31043813 11.9838821,9.31043813 C11.6408821,9.31043813 11.3108821,9.42443813 11.0408821,9.63943813 C10.7248821,9.89043813 10.5258821,10.2524381 10.4798821,10.6584381 C10.4328821,11.0654381 10.5468821,11.4634381 10.7988821,11.7794381 C11.0498821,12.0954381 11.4118821,12.2944381 11.8178821,12.3414381 C12.6578821,12.4334381 13.4028821,11.8494381 13.4998821,11.0034381 L13.4998821,11.0034381 Z M13.5598821,12.8054381 L14.6838821,14.4944381 L13.8508821,15.0494381 L12.6578821,13.2544381 C12.4438821,13.3134381 12.2238821,13.3514381 11.9978821,13.3514381 C11.9008821,13.3514381 11.8038821,13.3454381 11.7048821,13.3344381 C11.0328821,13.2584381 10.4328821,12.9274381 10.0158821,12.4024381 C9.59788214,11.8764381 9.40988214,11.2184381 9.48588214,10.5464381 C9.56188214,9.87443813 9.89288214,9.27443813 10.4188821,8.85643813 C10.9428821,8.43943813 11.6048821,8.25343813 12.2738821,8.32743813 C13.6538821,8.48443813 14.6498821,9.73543813 14.4938821,11.1154381 L14.4938821,11.1164381 C14.4168821,11.7874381 14.0858821,12.3874381 13.5598821,12.8054381 L13.5598821,12.8054381 Z M19.0028821,11.3474381 C19.0038821,9.69143813 17.9398821,9.30043813 17.0138821,9.14043813 C16.9908821,9.13643813 16.8748821,9.10143813 16.8528821,9.09543813 C16.6048821,9.01643813 16.4578821,8.76043813 16.5158821,8.50643813 C16.6578821,7.88843813 16.5018821,7.45843813 16.0638821,7.26443813 C15.6328821,7.07443813 14.9618821,7.16943813 14.6488821,7.61643813 C14.5418821,7.77043813 14.3568821,7.85243813 14.1718821,7.82543813 C13.9858821,7.80043813 13.8298821,7.67343813 13.7668821,7.49643813 C13.5558821,6.89643813 13.2518821,6.39343813 12.8628821,6.00243813 C12.3908821,5.52443813 11.0928821,4.49943813 9.25788214,5.27843813 C8.09688214,5.77343813 7.37488214,6.74943813 7.37488214,7.82743813 L7.40188214,8.67843813 C7.40888214,8.91243813 7.25388214,9.12043813 7.02688214,9.17843813 C6.02588214,9.43543813 5.14788214,9.65943813 5.00188214,11.2144381 C4.99488214,11.2834381 4.99988214,11.4554381 5.00388214,11.5334381 L4.00388214,11.5744381 C4,11.4664381 3.99688214,11.2234381 4.00588214,11.1224381 C4.19588214,9.10743813 5.45888214,8.57343813 6.38988214,8.31243813 L6.37488214,7.84343813 C6.37488214,6.34243813 7.32988214,5.01243813 8.86688214,4.35843813 C10.5288821,3.65143813 12.2898821,4.00343813 13.5738821,5.29843813 C13.9098821,5.63743813 14.1948821,6.03743813 14.4248821,6.49243813 C15.0208821,6.13043813 15.8058821,6.05443813 16.4698821,6.35043813 C17.0628821,6.61443813 17.6128821,7.23543813 17.5618821,8.22843813 C19.5718821,8.74243813 20.0038821,10.1644381 20.0028839,11.3064381 L20.0018821,11.4794381 C20.0018821,11.5114381 19.9968821,11.9904381 19.7818821,12.5774381 L18.8428821,12.2344381 C18.9968821,11.8124381 19.0018821,11.4614381 19.0018821,11.4584381 L19.0028821,11.3474381 Z" id="Fill-8" fill="#FFFFFF"></path>
    </g>
</svg>