<?xml version="1.0" encoding="UTF-8"?>
<svg width="24px" height="24px" viewBox="0 0 24 24" version="1.1" xmlns="http://www.w3.org/2000/svg" xmlns:xlink="http://www.w3.org/1999/xlink">
    <title>Icon-Architecture/16/Arch_AWS-Parallel-Cluster_16</title>
    <g id="Icon-Architecture/16/Arch_AWS-Parallel-Cluster_16" stroke="none" stroke-width="1" fill="none" fill-rule="evenodd">
        <g id="Icon-Architecture-BG/16/Compute" fill="#ED7100">
            <rect id="Rectangle" x="0" y="0" width="24" height="24"></rect>
        </g>
        <g id="Icon-Service/16/AWS-ParallelClusters_16" transform="translate(4.000000, 5.000000)" fill="#FFFFFF">
            <path d="M11.5230996,12 L13.5230996,12 L13.5230996,10 L11.5230996,10 L11.5230996,12 Z M14.5230996,9.5 L14.5230996,12.5 C14.5230996,12.776 14.2990996,13 14.0230996,13 L11.0230996,13 C10.7460996,13 10.5230996,12.776 10.5230996,12.5 L10.5230996,9.5 C10.5230996,9.224 10.7460996,9 11.0230996,9 L14.0230996,9 C14.2990996,9 14.5230996,9.224 14.5230996,9.5 L14.5230996,9.5 Z M12.0230996,14 L9.52309958,14 L9.52309958,11.5 C9.52309958,11.224 9.29909958,11 9.02309958,11 C8.74609958,11 8.52309958,11.224 8.52309958,11.5 L8.52309958,14.5 C8.52309958,14.776 8.74609958,15 9.02309958,15 L12.0230996,15 C12.2990996,15 12.5230996,14.776 12.5230996,14.5 C12.5230996,14.224 12.2990996,14 12.0230996,14 L12.0230996,14 Z M1.52309958,5 L3.52309958,5 L3.52309958,3 L1.52309958,3 L1.52309958,5 Z M0.523099583,5.5 L0.523099583,2.5 C0.523099583,2.224 0.746099583,2 1.02309958,2 L4.02309958,2 C4.29909958,2 4.52309958,2.224 4.52309958,2.5 L4.52309958,5.5 C4.52309958,5.776 4.29909958,6 4.02309958,6 L1.02309958,6 C0.746099583,6 0.523099583,5.776 0.523099583,5.5 L0.523099583,5.5 Z M3.02309958,1 L5.52309958,1 L5.52309958,3.5 C5.52309958,3.776 5.74609958,4 6.02309958,4 C6.29909958,4 6.52309958,3.776 6.52309958,3.5 L6.52309958,0.5 C6.52309958,0.224 6.29909958,0 6.02309958,0 L3.02309958,0 C2.74609958,0 2.52309958,0.224 2.52309958,0.5 C2.52309958,0.776 2.74609958,1 3.02309958,1 L3.02309958,1 Z M15.0120996,8.066 C14.9730996,8.339 14.7140996,8.526 14.4460996,8.491 C14.1730996,8.452 13.9830996,8.199 14.0220996,7.925 C14.1130996,7.28 13.9390996,6.631 13.5550996,6.189 C13.1940996,5.772 12.6590996,5.551 12.0120996,5.551 C10.1980996,5.551 9.15409958,6.54 8.15209958,7.687 C8.41909958,7.996 8.74809958,8.355 9.04609958,8.638 C9.24609958,8.828 9.35509958,9.09 9.21009958,9.325 C9.11609958,9.479 8.95209958,9.563 8.78409958,9.563 C8.69509958,9.563 8.60209958,9.543 8.52309958,9.489 C8.20009958,9.267 7.91009958,8.936 7.49409958,8.449 C6.45809958,9.646 5.32609958,10.781 3.40409958,10.781 C2.40509958,10.781 1.50909958,10.413 0.880099583,9.743 C0.270099583,9.094 -0.048900417,8.217 0.00609958302,7.336 C0.024099583,7.06 0.270099583,6.857 0.536099583,6.868 C0.812099583,6.885 1.02209958,7.122 1.00409958,7.398 C0.966099583,8.004 1.18709958,8.609 1.60909958,9.059 C1.91809958,9.388 2.48209958,9.781 3.40409958,9.781 C4.94509958,9.781 5.84909958,8.83 6.83309958,7.685 C6.55809958,7.37 6.28209958,7.059 5.99209958,6.776 C5.79409958,6.583 5.79009958,6.267 5.98309958,6.069 C6.17809958,5.871 6.49409958,5.869 6.69009958,6.06 C6.96909958,6.332 7.23809958,6.622 7.49709958,6.919 C8.56209958,5.717 9.84409958,4.551 12.0120996,4.551 C13.2070996,4.551 13.9210996,5.085 14.3110996,5.534 C14.8820996,6.192 15.1440996,7.138 15.0120996,8.066 L15.0120996,8.066 Z" id="AWS-ParallelCluster_Icon_16_Squid"></path>
        </g>
    </g>
</svg>