<?xml version="1.0" encoding="UTF-8"?>
<svg width="24px" height="24px" viewBox="0 0 24 24" version="1.1" xmlns="http://www.w3.org/2000/svg" xmlns:xlink="http://www.w3.org/1999/xlink">
    <title>Icon-Architecture/16/Arch_AWS-Outposts-family_16</title>
    <g id="Icon-Architecture/16/Arch_AWS-Outposts-family_16" stroke="none" stroke-width="1" fill="none" fill-rule="evenodd">
        <g id="Icon-Architecture-BG/16/Compute" fill="#ED7100">
            <rect id="Rectangle" x="0" y="0" width="24" height="24"></rect>
        </g>
        <path d="M14,19.0077062 L14,13.0077062 L9,13.0077062 L9,14.0077062 L9,15.0077062 L9,19.0077062 L10,19.0077062 L10,16.5077062 C10,16.2317062 10.224,16.0077062 10.5,16.0077062 L12.5,16.0077062 C12.776,16.0077062 13,16.2317062 13,16.5077062 L13,19.0077062 L14,19.0077062 Z M11,19.0077062 L12,19.0077062 L12,17.0077062 L11,17.0077062 L11,19.0077062 Z M20,19.0077062 L20,20.0077062 L15,20.0077062 L14,20.0077062 L13,20.0077062 L12,20.0077062 L11,20.0077062 L10,20.0077062 L9,20.0077062 L8,20.0077062 L4,20.0077062 L4,19.0077062 L8,19.0077062 L8,15.0077062 L6.9,15.0077062 C5.919,15.0077062 5.042,14.5687062 4.557,13.8327062 C4.301,13.4447062 4.143,13.0167062 4.087,12.5587062 C4.068,12.4097062 4.059,12.2537062 4.059,12.0907062 C4.059,10.5427062 4.876,9.60770621 5.799,9.15370621 L4.656,8.73670621 L5,7.79770621 L7.126,8.57370621 C7.385,8.66870621 7.519,8.95570621 7.424,9.21470621 L6.647,11.3407062 L5.708,10.9987062 L6.008,10.1757062 C5.554,10.4717062 5.059,11.0357062 5.059,12.0907062 C5.059,12.2117062 5.066,12.3277062 5.079,12.4377062 C5.116,12.7397062 5.222,13.0247062 5.391,13.2817062 C5.687,13.7297062 6.266,14.0077062 6.9,14.0077062 L8,14.0077062 L8,12.5077062 C8,12.2317062 8.224,12.0077062 8.5,12.0077062 L14.5,12.0077062 C14.776,12.0077062 15,12.2317062 15,12.5077062 L15,19.0077062 L20,19.0077062 Z M7.168,8.08270621 L6.207,7.80870621 C6.57,6.53670621 7.472,5.46070621 8.561,4.99970621 C10.232,4.29070621 12.006,4.64270621 13.302,5.94170621 C13.642,6.28270621 13.929,6.68370621 14.16,7.13970621 C14.634,6.84270621 15.207,6.75270621 15.76,6.91470621 C16.592,7.15770621 17.161,7.88670621 17.325,8.89570621 C18.557,9.23070621 19.746,10.1807062 19.746,11.9737062 C19.746,13.5867062 18.67,14.4627062 17.732,14.9287062 L18.61,15.3477062 L18.179,16.2497062 L16.136,15.2747062 C16.017,15.2177062 15.925,15.1157062 15.88,14.9897062 C15.836,14.8647062 15.843,14.7277062 15.9,14.6087062 L16.876,12.5657062 L17.778,12.9967062 L17.277,14.0467062 C17.992,13.6977062 18.746,13.0747062 18.746,11.9737062 C18.746,10.3147062 17.368,9.89870621 16.775,9.79670621 C16.505,9.75070621 16.322,9.49370621 16.367,9.22270621 C16.315,8.55770621 15.984,8.02270621 15.479,7.87470621 C15.079,7.75670621 14.646,7.91770621 14.379,8.27870621 C14.27,8.42670621 14.089,8.49970621 13.902,8.47570621 C13.72,8.44870621 13.566,8.32170621 13.505,8.14770621 C13.293,7.54770621 12.986,7.04270621 12.593,6.64770621 C12.114,6.16770621 10.803,5.13470621 8.951,5.92070621 C8.146,6.26070621 7.446,7.11070621 7.168,8.08270621 L7.168,8.08270621 Z" id="Fill-5" fill="#FFFFFF"></path>
    </g>
</svg>