<?xml version="1.0" encoding="UTF-8"?>
<svg width="24px" height="24px" viewBox="0 0 24 24" version="1.1" xmlns="http://www.w3.org/2000/svg" xmlns:xlink="http://www.w3.org/1999/xlink">
    <title>Icon-Architecture/16/Arch_Bottlerocket_16</title>
    <g id="Icon-Architecture/16/Arch_Bottlerocket_16" stroke="none" stroke-width="1" fill="none" fill-rule="evenodd">
        <g id="Icon-Architecture-BG/16/Compute" fill="#ED7100">
            <rect id="Rectangle" x="0" y="0" width="24" height="24"></rect>
        </g>
        <g id="Icon-Service/16/Bottlerocket" transform="translate(7.000000, 4.000000)" fill="#FFFFFF">
            <path d="M10,8.18675051 L9,7.18675051 L9,9.75575051 L10,10.6457505 L10,8.18675051 Z M7.559,3.66075051 L5.563,1.08175051 L3.255,3.63975051 C3.828,3.54975051 4.531,3.47975051 5.324,3.47975051 C6.211,3.47975051 6.967,3.56175051 7.559,3.66075051 L7.559,3.66075051 Z M2,9.75575051 L2,7.18675051 L1,8.18675051 L1,10.6457505 L2,9.75575051 Z M11,7.97975051 L11,11.7597505 C11,11.9577505 10.885,12.1357505 10.705,12.2157505 C10.639,12.2457505 10.569,12.2597505 10.5,12.2597505 C10.38,12.2597505 10.261,12.2167505 10.168,12.1327505 L9,11.0927505 L9,11.2837505 C9,12.2187505 8.239,12.9797505 7.304,12.9797505 L7,12.9797505 L7,13.9797505 L6,13.9797505 L6,12.4797505 C6,12.2037505 6.224,11.9797505 6.5,11.9797505 L7.304,11.9797505 C7.687,11.9797505 8,11.6667505 8,11.2837505 L8,4.77075051 C7.427,4.63775051 6.505,4.47975051 5.324,4.47975051 C4.382,4.47975051 3.583,4.58775051 3,4.70175051 L3,11.2837505 C3,11.6667505 3.313,11.9797505 3.696,11.9797505 L4.5,11.9797505 C4.776,11.9797505 5,12.2037505 5,12.4797505 L5,13.9797505 L4,13.9797505 L4,12.9797505 L3.696,12.9797505 C2.761,12.9797505 2,12.2187505 2,11.2837505 L2,11.0927505 L0.832,12.1327505 C0.739,12.2167505 0.62,12.2597505 0.5,12.2597505 C0.431,12.2597505 0.361,12.2457505 0.295,12.2157505 C0.115,12.1357505 0,11.9577505 0,11.7597505 L0,7.97975051 C0,7.84675051 0.053,7.71975051 0.146,7.62575051 L2,5.77275051 L2,4.94875051 C1.999,4.94875051 1.989,4.95175051 1.989,4.95175051 C1.935,4.97075051 1.879,4.97975051 1.824,4.97975051 C1.66,4.97975051 1.502,4.89875051 1.407,4.75575051 C1.281,4.56575051 1.3,4.31475051 1.453,4.14475051 L4.953,0.265750505 C5.222,-0.0812494946 5.906,-0.104249495 6.216,0.290750505 L9.22,4.17375051 C9.356,4.34975051 9.358,4.59475051 9.228,4.77475051 C9.169,4.85475051 9.088,4.91075051 9,4.94375051 L9,5.77275051 L10.854,7.62575051 C10.947,7.71975051 11,7.84675051 11,7.97975051 L11,7.97975051 Z M5,7.97975051 L6,7.97975051 L6,6.97975051 L5,6.97975051 L5,7.97975051 Z M6.5,8.97975051 L4.5,8.97975051 C4.224,8.97975051 4,8.75575051 4,8.47975051 L4,6.47975051 C4,6.20375051 4.224,5.97975051 4.5,5.97975051 L6.5,5.97975051 C6.776,5.97975051 7,6.20375051 7,6.47975051 L7,8.47975051 C7,8.75575051 6.776,8.97975051 6.5,8.97975051 L6.5,8.97975051 Z M7,13.9797505 L8,13.9797505 L8,15.4797505 C8,15.7557505 7.776,15.9797505 7.5,15.9797505 L3.5,15.9797505 C3.224,15.9797505 3,15.7557505 3,15.4797505 L3,13.9797505 L4,13.9797505 L4,14.9797505 L7,14.9797505 L7,13.9797505 Z" id="Bottlerocket_Icon_16_Squid"></path>
        </g>
    </g>
</svg>