<svg width="24" height="24" viewBox="0 0 24 24" fill="none" xmlns="http://www.w3.org/2000/svg">
<g clip-path="url(#clip0_1_282)">
<rect width="24" height="24" fill="white"/>
<rect width="24" height="24" fill="#ED7100"/>
<path d="M20 6.5C20 5.12 18.88 4 17.5 4C16.12 4 15 5.12 15 6.5C15 6.74 15.04 6.97 15.11 7.19L12 10.47L8.89 7.19C8.95 6.97 9 6.74 9 6.5C9 5.12 7.88 4 6.5 4C5.12 4 4 5.12 4 6.5C4 7.31 4.4 8.03 5 8.49V16.28C4.41 16.63 4 17.26 4 18C4 19.1 4.9 20 6 20C7.1 20 8 19.1 8 18C8 17.49 7.8 17.03 7.49 16.68L9.32 14.75L10.42 16.79C10.16 17.13 10 17.54 10 18C10 19.1 10.9 20 12 20C13.1 20 14 19.1 14 18C14 17.54 13.84 17.13 13.58 16.79L14.68 14.75L16.51 16.68C16.2 17.03 16 17.49 16 18C16 19.1 16.9 20 18 20C19.1 20 20 19.1 20 18C20 17.26 19.59 16.63 19 16.28V8.49C19.6 8.03 20 7.32 20 6.5ZM17.5 5C18.33 5 19 5.67 19 6.5C19 7.33 18.33 8 17.5 8C16.67 8 16 7.33 16 6.5C16 5.67 16.67 5 17.5 5ZM15.61 8.11C15.91 8.46 16.29 8.72 16.74 8.86L14.47 13.06L12.7 11.19L15.62 8.11H15.61ZM11.31 11.19L9.54 13.06L7.27 8.86C7.71 8.72 8.1 8.45 8.4 8.11L11.32 11.19H11.31ZM6.65 16.12C6.45 16.05 6.23 16 6 16V8.95C6.06 8.96 6.12 8.96 6.19 8.97L8.82 13.83L6.65 16.12ZM12.79 16.16C12.55 16.06 12.28 16 12 16C11.72 16 11.46 16.06 11.21 16.16L10.04 13.99L12 11.92L13.96 13.99L12.79 16.16ZM18 19C17.45 19 17 18.55 17 18C17 17.45 17.45 17 18 17C18.55 17 19 17.45 19 18C19 18.55 18.55 19 18 19ZM18 16C17.77 16 17.56 16.05 17.35 16.12L15.18 13.83L17.81 8.97C17.87 8.97 17.94 8.97 18 8.95V16Z" fill="white"/>
</g>
<defs>
<clipPath id="clip0_1_282">
<rect width="24" height="24" fill="white"/>
</clipPath>
</defs>
</svg>
