<?xml version="1.0" encoding="UTF-8"?>
<svg width="24px" height="24px" viewBox="0 0 24 24" version="1.1" xmlns="http://www.w3.org/2000/svg" xmlns:xlink="http://www.w3.org/1999/xlink">
    <title>Icon-Architecture/16/Arch_AWS-Outposts-servers_16</title>
    <g id="Icon-Architecture/16/Arch_AWS-Outposts-servers_16" stroke="none" stroke-width="1" fill="none" fill-rule="evenodd">
        <g id="Icon-Architecture-BG/16/Compute" transform="translate(0.000000, 0.000000)" fill="#ED7100">
            <rect id="Rectangle" x="0" y="0" width="24" height="24"></rect>
        </g>
        <g id="Icon-Service/16/AWS-Outposts-servers_16" transform="translate(4.000000, 5.220000)" fill="#FFFFFF">
            <path d="M7,10.7842549 L9,10.7842549 L9,9.78425489 L7,9.78425489 L7,10.7842549 Z M5,10.7842549 L6,10.7842549 L6,9.78425489 L5,9.78425489 L5,10.7842549 Z M10,10.7842549 L13,10.7842549 L13,9.78425489 L10,9.78425489 L10,10.7842549 Z M15,9.28425489 C15,9.00825489 14.775,8.78425489 14.5,8.78425489 L14,8.78425489 L8,8.78425489 L7,8.78425489 L6,8.78425489 L3.5,8.78425489 C3.225,8.78425489 3,9.00825489 3,9.28425489 L3,11.2842549 C3,11.5602549 3.225,11.7842549 3.5,11.7842549 L14.5,11.7842549 C14.775,11.7842549 15,11.5602549 15,11.2842549 L15,9.28425489 Z M16,9.28425489 L16,11.2842549 C16,12.1112549 15.327,12.7842549 14.5,12.7842549 L3.5,12.7842549 C2.673,12.7842549 2,12.1112549 2,11.2842549 L2,9.28425489 C2,8.45725489 2.673,7.78425489 3.5,7.78425489 L6,7.78425489 L7,7.78425489 L8,7.78425489 L14,7.78425489 L14.5,7.78425489 C15.327,7.78425489 16,8.45725489 16,9.28425489 L16,9.28425489 Z M1.974,6.78825489 L1.839,7.78025489 C0.751,7.63225489 0.065,6.79425489 0.004,5.53625489 L0,5.39025489 C0,4.35425489 0.526,3.55025489 1.43,3.17225489 C1.438,1.96825489 2.248,0.72325489 3.318,0.26925489 C4.575,-0.26174511 5.905,0.00225489 6.878,0.97625489 C7.1,1.19925489 7.291,1.45425489 7.451,1.74225489 C7.798,1.56925489 8.196,1.52825489 8.583,1.63925489 C9.209,1.82225489 9.645,2.35125489 9.79,3.08325489 C10.956,3.42825489 11.547,4.38825489 11.547,5.94225489 L10.547,5.94225489 C10.547,4.20525489 9.703,4.06125489 9.249,3.98325489 C8.983,3.93725489 8.802,3.68925489 8.839,3.42325489 C8.806,3.02525489 8.605,2.68825489 8.302,2.59925489 C8.072,2.53125489 7.824,2.62225489 7.665,2.83725489 C7.556,2.98625489 7.375,3.05825489 7.188,3.03525489 C7.006,3.00825489 6.853,2.88125489 6.791,2.70625489 C6.646,2.29525489 6.437,1.95125489 6.17,1.68325489 C5.845,1.35825489 4.956,0.66225489 3.709,1.19025489 C3.004,1.48925489 2.43,2.38725489 2.43,3.19125489 C2.43,3.28425489 2.436,3.37725489 2.446,3.46725489 C2.475,3.71625489 2.315,3.94825489 2.073,4.00925489 C1.583,4.13425489 1,4.47525489 1,5.39025489 C1.028,6.02525489 1.219,6.68625489 1.974,6.78825489 L1.974,6.78825489 Z" id="Fill-5"></path>
        </g>
    </g>
</svg>