<?xml version="1.0" encoding="UTF-8"?>
<svg width="24px" height="24px" viewBox="0 0 24 24" version="1.1" xmlns="http://www.w3.org/2000/svg" xmlns:xlink="http://www.w3.org/1999/xlink">
    <title>Icon-Architecture/16/Arch_AWS-SimSpace-Weaver_16</title>
    <g id="Icon-Architecture/16/Arch_AWS-SimSpace-Weaver_16" stroke="none" stroke-width="1" fill="none" fill-rule="evenodd">
        <g id="Icon-Architecture-BG/16/Compute" fill="#ED7100">
            <rect id="Rectangle" x="0" y="0" width="24" height="24"></rect>
        </g>
        <path d="M19,15.92425 L17.505,16.70725 L16,15.88325 L16,13.86325 L17.504,13.01725 L19,13.83625 L19,15.92425 Z M18.565,19.02525 L12,19.02525 L12,16.02525 L15,16.02525 L15,16.18025 C15,16.36225 15.1,16.53125 15.26,16.61825 L17.26,17.71225 C17.335,17.75325 17.417,17.77425 17.5,17.77425 C17.579,17.77425 17.659,17.75525 17.731,17.71625 L17.836,17.66225 L18.565,19.02525 Z M5.403,19.02525 L6.165,17.66025 L6.26,17.71225 C6.335,17.75325 6.417,17.77425 6.5,17.77425 C6.579,17.77425 6.659,17.75525 6.731,17.71625 L8.731,16.67025 C8.896,16.58425 9,16.41325 9,16.22725 L9,16.02525 L11,16.02525 L11,19.02525 L5.403,19.02525 Z M5,13.86325 L6.504,13.01725 L8,13.83625 L8,15.92425 L6.505,16.70725 L5,15.88325 L5,13.86325 Z M9.269,12.07725 L11,13.09025 L11,15.02525 L9,15.02525 L9,13.53925 C9,13.35725 8.9,13.18825 8.74,13.10125 L8.708,13.08325 L9.269,12.07725 Z M12,5.06725 L14.498,6.41025 L11.714,7.63625 L9.548,6.38525 L12,5.06725 Z M12,12.06825 L12,12.02525 L12,8.60325 L15,7.28125 L15,10.72325 L12,12.06825 Z M9,10.76025 L9,7.22325 L11,8.37925 L11,11.93125 L9,10.76025 Z M15.387,13.06125 L15.255,13.13525 C15.098,13.22325 15,13.39025 15,13.57025 L15,15.02525 L12,15.02525 L12,13.16325 L14.777,11.91925 L15.387,13.06125 Z M19.74,13.10125 L17.74,12.00725 C17.588,11.92425 17.405,11.92525 17.255,12.01025 L16.259,12.57025 L15.691,11.50925 L15.704,11.50325 C15.885,11.42325 16,11.24425 16,11.04725 L16,6.38125 C16,6.19625 15.898,6.02725 15.736,5.94025 L12.236,4.05925 C12.09,3.98025 11.91,3.98025 11.764,4.05925 L8.264,5.94025 C8.102,6.02725 8,6.19625 8,6.38125 L8,11.04725 C8,11.22525 8.094,11.38925 8.247,11.47925 L8.406,11.57125 L7.83,12.60325 L6.74,12.00725 C6.588,11.92425 6.405,11.92525 6.255,12.01025 L4.255,13.13525 C4.098,13.22325 4,13.39025 4,13.57025 L4,16.18025 C4,16.36225 4.1,16.53125 4.26,16.61825 L5.287,17.18025 L4.117,19.27825 C4.031,19.43125 4.032,19.61825 4.12,19.77125 C4.208,19.92325 4.368,20.01825 4.544,20.02225 L19.399,20.02525 C19.575,20.02525 19.738,19.93225 19.828,19.78125 C19.919,19.63125 19.923,19.44425 19.84,19.28925 L18.722,17.19825 L19.731,16.67025 C19.896,16.58425 20,16.41325 20,16.22725 L20,13.53925 C20,13.35725 19.9,13.18825 19.74,13.10125 L19.74,13.10125 Z" id="Fill-7" fill="#FFFFFF"></path>
    </g>
</svg>