<?xml version="1.0" encoding="UTF-8"?>
<svg width="48px" height="48px" viewBox="0 0 48 48" version="1.1" xmlns="http://www.w3.org/2000/svg" xmlns:xlink="http://www.w3.org/1999/xlink">
    <title>Icon-Resource/Machine-Learning/Res_Amazon-SageMaker_Geospatial-ML_48</title>
    <g id="Icon-Resource/Machine-Learning/Res_Amazon-SageMaker_Geospatial-ML_48" stroke="none" stroke-width="1" fill="none" fill-rule="evenodd">
        <path d="M31,35.5 C31,33.019 33.019,31 35.5,31 C37.981,31 40,33.019 40,35.5 C40,37.981 37.981,40 35.5,40 C33.019,40 31,37.981 31,35.5 L31,35.5 Z M42,35.5 C42,31.916 39.084,29 35.5,29 C31.916,29 29,31.916 29,35.5 C29,39.084 31.916,42 35.5,42 C36.932,42 38.252,41.529 39.328,40.742 L44.293,45.707 L45.707,44.293 L40.742,39.328 C41.529,38.252 42,36.932 42,35.5 L42,35.5 Z M8.646,36.795 C10.345,36.298 12.368,35.888 14.616,35.589 C15.59,38.783 16.954,41.42 18.595,43.238 C14.655,42.129 11.201,39.856 8.646,36.795 L8.646,36.795 Z M18.595,4.762 C16.954,6.58 15.589,9.217 14.616,12.411 C12.368,12.112 10.345,11.703 8.645,11.206 C11.2,8.145 14.655,5.871 18.595,4.762 L18.595,4.762 Z M39.354,11.205 C37.655,11.702 35.632,12.112 33.384,12.411 C32.41,9.217 31.046,6.58 29.405,4.762 C33.345,5.871 36.799,8.144 39.354,11.205 L39.354,11.205 Z M33.912,14.362 C36.469,14.009 38.737,13.512 40.624,12.899 C42.579,15.816 43.764,19.278 43.949,23 L34.976,23 C34.909,19.894 34.536,16.979 33.912,14.362 L33.912,14.362 Z M25,14.985 C27.409,14.956 29.733,14.827 31.905,14.6 C32.531,17.139 32.906,19.997 32.976,23 L25,23 L25,14.985 Z M13.024,25 C13.091,28.106 13.464,31.021 14.088,33.638 C11.531,33.991 9.263,34.488 7.376,35.101 C5.422,32.184 4.236,28.722 4.051,25 L13.024,25 Z M13.024,23 L4.051,23 C4.236,19.278 5.421,15.816 7.376,12.899 C9.263,13.512 11.532,14.009 14.088,14.362 C13.464,16.98 13.091,19.894 13.024,23 L13.024,23 Z M23,14.985 L23,23 L15.024,23 C15.094,19.997 15.469,17.139 16.095,14.6 C18.267,14.827 20.591,14.956 23,14.985 L23,14.985 Z M23,4.139 L23,12.984 C20.806,12.956 18.663,12.844 16.651,12.644 C18.111,8.048 20.406,4.81 23,4.139 L23,4.139 Z M25,4.139 C27.594,4.81 29.889,8.048 31.349,12.644 C29.337,12.844 27.194,12.956 25,12.984 L25,4.139 Z M23,33.015 C20.591,33.044 18.267,33.173 16.095,33.4 C15.469,30.861 15.094,28.003 15.024,25 L23,25 L23,33.015 Z M16.651,35.356 C18.663,35.156 20.806,35.044 23,35.016 L23,43.861 C20.406,43.19 18.111,39.952 16.651,35.356 L16.651,35.356 Z M25,43.955 L25,25 L43.954,25 C43.847,27.173 43.415,29.293 42.622,31.311 L44.483,32.042 C45.49,29.481 46,26.776 46,24 C46,11.869 36.131,2 24,2 C11.869,2 2,11.869 2,24 C2,36.131 11.869,46 24,46 C26.676,46 29.29,45.525 31.771,44.588 L31.064,42.717 C29.121,43.451 27.084,43.853 25,43.955 L25,43.955 Z" id="Fill-1" fill="#01A88D"></path>
    </g>
</svg>