<?xml version="1.0" encoding="UTF-8"?>
<svg width="48px" height="48px" viewBox="0 0 48 48" version="1.1" xmlns="http://www.w3.org/2000/svg" xmlns:xlink="http://www.w3.org/1999/xlink">
    <title>Icon-Resource/Machine-Learning/Res_Amazon-Textract_Analyze-Lending_48</title>
    <g id="Icon-Resource/Machine-Learning/Res_Amazon-Textract_Analyze-Lending_48" stroke="none" stroke-width="1" fill="none" fill-rule="evenodd">
        <path d="M12,34 C16.411,34 20,30.411 20,26 C20,21.589 16.411,18 12,18 C7.589,18 4,21.589 4,26 C4,30.411 7.589,34 12,34 L12,34 Z M20.338,31.509 C19.594,32.63 18.631,33.593 17.509,34.337 L22.586,39.414 C23.342,40.169 24.658,40.169 25.414,39.414 C25.792,39.036 26,38.534 26,38 C26,37.466 25.792,36.963 25.414,36.585 L20.338,31.509 Z M12,36 C6.486,36 2,31.514 2,26 C2,20.486 6.486,16 12,16 C17.514,16 22,20.486 22,26 C22,27.287 21.747,28.514 21.302,29.645 L26.828,35.171 C27.584,35.927 28,36.932 28,38 C28,39.068 27.584,40.073 26.828,40.828 C26.073,41.583 25.068,42 24,42 C22.932,42 21.927,41.583 21.172,40.828 L15.646,35.302 C14.514,35.747 13.287,36 12,36 L12,36 Z M29,26 L36,26 L36,24 L29,24 L29,26 Z M24,21 L36,21 L36,19 L24,19 L24,21 Z M30,36 L36,36 L36,34 L30,34 L30,36 Z M27,31 L36,31 L36,29 L27,29 L27,31 Z M34,14 L37.586,14 L34,10.414 L34,14 Z M40.707,14.293 C40.895,14.48 41,14.735 41,15 L41,45 C41,45.552 40.553,46 40,46 L12,46 C11.447,46 11,45.552 11,45 L11,38 L13,38 L13,44 L39,44 L39,16 L33,16 C32.447,16 32,15.552 32,15 L32,9 L13,9 L13,14 L11,14 L11,8 C11,7.448 11.447,7 12,7 L33,7 C33.266,7 33.52,7.105 33.707,7.293 L40.707,14.293 Z M46,12 L46,40 C46,40.552 45.553,41 45,41 L43,41 L43,39 L44,39 L44,12.414 L35.586,4 L18,4 L18,5 L16,5 L16,3 C16,2.448 16.447,2 17,2 L36,2 C36.266,2 36.52,2.105 36.707,2.293 L45.707,11.293 C45.895,11.48 46,11.735 46,12 L46,12 Z" id="Fill-1" fill="#01A88D"></path>
    </g>
</svg>