<?xml version="1.0" encoding="UTF-8"?>
<svg width="64px" height="64px" viewBox="0 0 64 64" version="1.1" xmlns="http://www.w3.org/2000/svg" xmlns:xlink="http://www.w3.org/1999/xlink">
    <title>Icon-Architecture/48/Arch_AWS-Thinkbox-Krakatoa_48</title>
    <g id="Icon-Architecture/48/Arch_AWS-Thinkbox-Krakatoa_48" stroke="none" stroke-width="1" fill="none" fill-rule="evenodd">
        <g id="Icon-Architecture-BG/48/Compute" fill="#ED7100">
            <rect id="Rectangle" x="0" y="0" width="64" height="64"></rect>
        </g>
        <g id="Icon-Service/48/AWS-ThinkBox-Krakatoa_48" transform="translate(13.000000, 10.000000)" fill="#FFFFFF">
            <path d="M18.0001392,2.78325 L18.0001392,6.00025 L20.0001392,6.00025 L20.0001392,2.78325 L22.4791392,4.29825 L23.5211392,2.59125 L19.5211392,0.14625 C19.2011392,-0.04875 18.7991392,-0.04875 18.4791392,0.14625 L14.4791392,2.59125 L15.5211392,4.29825 L18.0001392,2.78325 Z M16.0001392,44.00025 L22.0001392,44.00025 L22.0001392,42.00025 L16.0001392,42.00025 L16.0001392,44.00025 Z M24.6971392,38.00025 L19.0001392,34.20125 L13.3031392,38.00025 L24.6971392,38.00025 Z M38.0002783,12.00025 L38.0002783,16.00025 L36.0001392,16.00025 L36.0001392,13.15925 C27.0741392,14.71125 20.4201392,21.24425 20.0001392,29.04425 L20.0001392,32.46525 L22.0001392,33.79825 L22.0001392,30.96425 C22.2241392,25.82425 25.8351392,22.41725 30.8391392,22.63225 C34.9631392,22.81225 38.1721392,26.31325 37.9931392,30.43825 C37.8491392,33.75725 35.1021392,36.35925 31.8121392,36.35925 C31.7221392,36.35925 31.6311392,36.35725 31.5401392,36.35325 C28.7011392,36.22925 26.4931392,33.82025 26.6161392,30.98225 C26.7201392,28.60825 28.6281392,26.89625 31.0431392,27.00125 L30.9571392,28.99925 C29.6901392,28.95025 28.6681392,29.81225 28.6141392,31.06925 C28.5391392,32.80525 29.8911392,34.27925 31.6271392,34.35525 C33.9511392,34.45025 35.8951392,32.65825 35.9951392,30.35125 C36.1261392,27.32825 33.7741392,24.76225 30.7511392,24.63025 C30.6321392,24.62525 30.5131392,24.62225 30.3951392,24.62225 C26.7211392,24.62225 24.1681392,27.14825 23.9991392,31.00725 L24.0001392,35.13125 L28.5551392,38.16825 C28.9211392,38.41225 29.0851392,38.86825 28.9571392,39.28925 C28.8291392,39.71125 28.4401392,40.00025 28.0001392,40.00025 L10.0001392,40.00025 C9.56013916,40.00025 9.17113916,39.71125 9.04313916,39.28925 C8.91513916,38.86825 9.07913916,38.41225 9.44513916,38.16825 L14.0001392,35.13125 L14.0001392,30.96425 C13.8271392,27.02525 11.1171392,24.45725 7.24913916,24.63025 C4.22613916,24.76225 1.87413916,27.32825 2.00513916,30.35125 C2.10513916,32.65825 4.02013916,34.44825 6.37413916,34.35525 C8.10913916,34.27925 9.46113916,32.80525 9.38613916,31.06925 C9.33113916,29.81225 8.36413916,28.95225 7.04313916,28.99925 L6.95713916,27.00125 C9.38413916,26.89625 11.2801392,28.60725 11.3841392,30.98225 C11.5071392,33.82025 9.29913916,36.22925 6.46113916,36.35325 C6.37013916,36.35725 6.27813916,36.35925 6.18813916,36.35925 C2.89713916,36.35925 0.151139163,33.75725 0.00713916304,30.43825 C-0.171860837,26.31325 3.03713916,22.81225 7.16113916,22.63225 C12.1401392,22.41025 15.7761392,25.82325 15.9991392,30.92025 L16.0001392,33.79825 L18.0001392,32.46525 L18.0001392,30.00025 L18.0001392,29.00025 C17.5861392,21.24725 10.9301392,14.71125 2.00013916,13.15925 L2.00013916,16.00025 L0,16.00025 L0,12.00025 C0,11.71325 0.123139163,11.44025 0.338139163,11.25025 C0.383139163,11.21125 0.439139163,11.19525 0.490139163,11.16525 L0.479139163,11.14625 L4.47913916,8.70225 L5.52113916,10.40925 L3.74813916,11.49325 C10.1351392,12.98725 15.3111392,16.86425 18.0001392,21.91125 L18.0001392,20.00025 C18.0001392,14.26425 15.2281392,9.16425 11.0521392,7.12325 L8.49813916,8.58925 L7.50213916,6.85525 L10.5021392,5.13325 C10.7731392,4.97725 11.1031392,4.95725 11.3931392,5.08025 C14.9411392,6.59525 17.6331392,9.78225 19.0001392,13.80625 C20.3661392,9.78125 23.0591392,6.59525 26.6071392,5.08025 C26.8971392,4.95725 27.2281392,4.97725 27.4981392,5.13325 L30.4981392,6.85525 L29.5021392,8.58925 L26.9481392,7.12325 C22.7721392,9.16325 20.0001392,14.26425 20.0001392,20.00025 L20.0001392,21.93025 C22.6901392,16.86625 27.8651392,12.98725 34.2521392,11.49325 L32.4791392,10.40925 L33.5211392,8.70225 L37.5211392,11.14625 L37.5101392,11.16525 C37.5611392,11.19525 37.6171392,11.21125 37.6621392,11.25025 C37.8771392,11.44025 38.0002783,11.71325 38.0002783,12.00025 L38.0002783,12.00025 Z M36.0001392,22.00025 L38.0001392,22.00025 L38.0001392,19.00025 L36.0001392,19.00025 L36.0001392,22.00025 Z M0.000139163035,22.00025 L2.00013916,22.00025 L2.00013916,19.00025 L0.000139163035,19.00025 L0.000139163035,22.00025 Z" id="AWS-ThinkBox-Krakatoa_48_Squid"></path>
        </g>
    </g>
</svg>