<?xml version="1.0" encoding="UTF-8"?>
<svg width="64px" height="64px" viewBox="0 0 64 64" version="1.1" xmlns="http://www.w3.org/2000/svg" xmlns:xlink="http://www.w3.org/1999/xlink">
    <title>Icon-Architecture/48/Arch_AWS-Thinkbox-Stoke_48</title>
    <g id="Icon-Architecture/48/Arch_AWS-Thinkbox-Stoke_48" stroke="none" stroke-width="1" fill="none" fill-rule="evenodd">
        <g id="Icon-Architecture-BG/48/Compute" fill="#ED7100">
            <rect id="Rectangle" x="0" y="0" width="64" height="64"></rect>
        </g>
        <g id="Icon-Service/48/AWS-ThinkBox-Stoke_48" transform="translate(12.000000, 10.000000)" fill="#FFFFFF">
            <path d="M29.355,7.31875 L25.947,5.35075 L26.947,3.61875 L30.355,5.58775 L29.355,7.31875 Z M10.418,7.31875 L9.418,5.58675 L12.827,3.61875 L13.827,5.35075 L10.418,7.31875 Z M38,17.26175 C37.304,15.20075 36.428,13.10375 35.375,10.97275 L38,12.63475 L38,17.26175 Z M20.697,26.36875 C20.31,25.99075 19.689,25.99075 19.302,26.36875 C19.085,26.57875 14,31.59975 14,37.58575 L14,37.84775 C14,37.89375 14.01,37.93975 14.011,37.98575 C13.361,36.64775 13,35.10875 13,33.48575 C13,25.87575 18.033,18.18775 20,15.47375 C21.966,18.18775 27,25.87575 27,33.48575 C27,35.10975 26.638,36.65075 25.987,37.98775 C25.988,37.94175 26,37.89475 26,37.84775 L26,37.58575 C26,31.59975 20.914,26.57875 20.697,26.36875 L20.697,26.36875 Z M10.157,18.29175 L11.942,19.43375 L13.02,17.74875 L10.947,16.42275 C13.914,9.83675 18.286,4.45775 20,2.48475 C21.717,4.45975 26.099,9.84675 29.066,16.44675 L27,17.78775 L28.089,19.46575 L29.855,18.31975 C31.13,21.57875 32,25.06775 32,28.54975 C32,32.01975 30.613,35.28475 28.295,37.62475 C28.748,36.33275 29,34.93575 29,33.48575 C29,23.35275 21.109,13.59375 20.773,13.18375 C20.394,12.71975 19.605,12.71975 19.226,13.18375 C18.89,13.59375 11,23.35275 11,33.48575 C11,34.93675 11.252,36.33375 11.705,37.62575 C9.386,35.28575 8,32.02075 8,28.54975 C8,25.05875 8.874,21.55975 10.157,18.29175 L10.157,18.29175 Z M2,12.63475 L4.625,10.97275 C3.571,13.10375 2.695,15.20075 2,17.26175 L2,12.63475 Z M40,12.08575 C40,11.74275 39.824,11.42275 39.535,11.23975 L33.241,7.25375 C32.851,7.00675 32.345,7.05775 32.014,7.37575 C31.682,7.69375 31.61,8.19675 31.838,8.59575 C35.817,15.53475 37.892,22.11475 38,28.16075 L38,32.63775 L31.938,36.13375 C33.254,33.88575 34,31.27175 34,28.54975 C34,24.63575 33.016,20.76175 31.587,17.19475 L33.544,15.92375 L32.455,14.24575 L30.786,15.32975 C26.975,6.96475 21.089,0.68275 20.725,0.29775 C20.346,-0.09925 19.653,-0.09925 19.274,0.29775 C18.91,0.68175 13.03,6.95875 9.219,15.31775 L7.539,14.24275 L6.46,15.92675 L8.418,17.17975 C6.986,20.75075 6,24.62975 6,28.54975 C6,31.28475 6.751,33.91175 8.08,36.16775 L2,32.63975 L2,28.16075 C2.107,22.11475 4.182,15.53475 8.161,8.59575 C8.389,8.19675 8.317,7.69375 7.985,7.37575 C7.654,7.05875 7.148,7.00775 6.758,7.25375 L0.464,11.23975 C0.175,11.42275 0,11.74275 0,12.08575 L0.005,33.21575 C0.005,33.57175 0.195,33.90175 0.503,34.07975 L17.498,43.94975 L18.54,42.24275 C17.318,41.46075 16,39.55675 16,37.84775 L16,37.58575 C16,33.68175 18.691,30.08175 20,28.56275 C21.308,30.08175 24,33.68175 24,37.58575 L24,37.84775 C24,39.46475 22.634,41.42575 21.359,42.24275 L22.399,43.95075 L39.494,34.08175 C39.803,33.90275 39.994,33.57275 39.994,33.21575 L40,12.08575 Z" id="AWS-ThinkBox-Stoke_48_Squid"></path>
        </g>
    </g>
</svg>