<svg width="64" height="64" viewBox="0 0 64 64" fill="none" xmlns="http://www.w3.org/2000/svg">
<g id="Icon-Architecture/48/Arch_AWS-Thinkbox-Sequoia_48">
<g id="Icon-Architecture-BG/48/Compute">
<rect id="Rectangle" width="64" height="64" fill="#ED7100"/>
</g>
<g id="Icon-Service/48/AWS-ThinkBox-Sequoia_48">
<path id="AWS-ThinkBox-Sequoia_48_Squid" fill-rule="evenodd" clip-rule="evenodd" d="M25.317 34.0203L26.839 34.8883L25.849 36.6252L23.814 35.4653C22.878 36.3153 21.892 37.1463 20.809 37.9433L32 44.8682L43.19 37.9433C42.105 37.1453 41.119 36.3123 40.18 35.4613L38.134 36.6252L37.146 34.8873L38.678 34.0163C37.795 33.1063 36.979 32.1703 36.25 31.2013L32.5 33.3663C32.345 33.4563 32.172 33.5003 32 33.5003C31.827 33.5003 31.654 33.4563 31.5 33.3663L27.75 31.2013C27.019 32.1723 26.203 33.1093 25.317 34.0203V34.0203ZM28.889 29.5493L32 31.3453L35.11 29.5493C33.728 27.3953 32.679 25.1063 32 22.6562C31.32 25.1052 30.271 27.3953 28.889 29.5493V29.5493ZM17.331 30.2572C20.933 27.0132 23 22.9103 23 19.0003H25C25 21.8943 25.641 24.4803 26.855 26.4813L25.144 27.5193C24.605 26.6283 24.166 25.6432 23.826 24.5842C22.92 26.7842 21.519 28.9062 19.66 30.7952L23.521 32.9962C28.535 27.9982 31 22.0593 31 14.9813C31 14.4293 31.447 13.9813 32 13.9813C32.552 13.9813 33 14.4293 33 14.9813C33 22.0583 35.463 27.9952 40.475 32.9932L44.338 30.7942C42.48 28.9052 41.08 26.7842 40.173 24.5842C39.834 25.6432 39.394 26.6283 38.855 27.5193L37.144 26.4813C38.358 24.4803 39 21.8943 39 19.0003H41C41 22.9103 43.066 27.0132 46.669 30.2572C46.908 30.4722 47.028 30.7893 46.994 31.1083C46.96 31.4273 46.773 31.7103 46.494 31.8693L42.007 34.4223C43.096 35.3733 44.273 36.2933 45.563 37.1743C45.843 37.3653 46.007 37.6843 46 38.0223C45.992 38.3613 45.813 38.6723 45.526 38.8513L32.526 46.8953C32.365 46.9943 32.182 47.0442 32 47.0442C31.817 47.0442 31.634 46.9943 31.473 46.8953L18.473 38.8513C18.186 38.6723 18.007 38.3613 18 38.0223C17.992 37.6843 18.156 37.3653 18.436 37.1743C19.725 36.2943 20.901 35.3753 21.988 34.4243L17.505 31.8693C17.225 31.7103 17.04 31.4272 17.005 31.1072C16.971 30.7882 17.091 30.4722 17.331 30.2572V30.2572ZM43.796 16.5683L39.899 14.3183L38.899 16.0503L42.796 18.3003L43.796 16.5683ZM25.1 16.0503L24.1 14.3183L20.203 16.5683L21.203 18.3003L25.1 16.0503ZM51.64 21.3003L47.327 18.6073L46.268 20.3043L49.164 22.1113L46.503 23.6383L47.497 25.3733L50 23.8793V40.3862L47.447 39.1052L46.552 40.8953L48.892 42.0643L32 51.8452L15.107 42.0643L17.447 40.8953L16.552 39.1052L14 40.3862V23.8793L16.503 25.3733L17.497 23.6383L14.836 22.1113L17.731 20.3043L16.672 18.6073L12.359 21.3003C12.064 21.4833 11.998 21.8073 12 22.1533V42.0053C12.002 42.3603 12.191 42.6872 12.499 42.8652L31.499 53.8652C31.654 53.9552 31.827 54.0003 32 54.0003C32.172 54.0003 32.345 53.9552 32.501 53.8652L51.501 42.8652C51.808 42.6872 51.998 42.3603 52 42.0053V22.1533C52.002 21.8073 51.935 21.4833 51.64 21.3003V21.3003ZM32 40.0213C32.172 40.0213 32.345 39.9772 32.5 39.8882L35.289 38.2772L34.289 36.5452L32 37.8672L29.711 36.5452L28.711 38.2772L31.5 39.8882C31.654 39.9772 31.827 40.0213 32 40.0213V40.0213ZM28.533 14.2463L27.504 12.5312L31.485 10.1432C31.801 9.95225 32.198 9.95225 32.514 10.1432L36.496 12.5312L35.466 14.2463L32 12.1662L28.533 14.2463Z" fill="white"/>
</g>
</g>
</svg>
