<?xml version="1.0" encoding="UTF-8"?>
<svg width="64px" height="64px" viewBox="0 0 64 64" version="1.1" xmlns="http://www.w3.org/2000/svg" xmlns:xlink="http://www.w3.org/1999/xlink">
    <title>Icon-Architecture/48/Arch_AWS-Thinkbox-XMesh_48</title>
    <g id="Icon-Architecture/48/Arch_AWS-Thinkbox-XMesh_48" stroke="none" stroke-width="1" fill="none" fill-rule="evenodd">
        <g id="Icon-Architecture-BG/48/Compute" fill="#ED7100">
            <rect id="Rectangle" x="0" y="0" width="64" height="64"></rect>
        </g>
        <g id="Icon-Service/48/AWS-ThinkBox-XMesh_48" transform="translate(13.000000, 10.000000)" fill="#FFFFFF">
            <path d="M29.195,22.688251 L25.993,24.547251 L32.576,29.183251 C32.841,29.370251 33,29.675251 33,30.000251 L33,34.234251 L36,32.434251 L36,27.517251 L29.195,22.688251 Z M19.549,26.616251 L31,34.146251 L31,30.519251 L23.565,25.284251 C23.287,25.088251 23.128,24.763251 23.142,24.422251 C23.157,24.082251 23.344,23.772251 23.639,23.602251 L35.033,16.986251 L31.927,15.123251 L6.526,30.850251 C6.365,30.950251 6.182,31.000251 6,31.000251 C5.822,31.000251 5.643,30.953251 5.485,30.857251 L2,28.766251 L2,32.434251 L5.975,34.819251 L18.45,26.616251 C18.784,26.396251 19.216,26.396251 19.549,26.616251 L19.549,26.616251 Z M9.074,20.532251 L12.004,18.618251 L5.5,14.866251 C5.19,14.688251 5,14.357251 5,14.000251 L5,9.76725098 L2,11.566251 L2,16.424251 L9.074,20.532251 Z M18.498,16.413251 L7,9.73725098 L7,13.422251 L14.413,17.699251 C14.714,17.873251 14.903,18.190251 14.913,18.537251 C14.922,18.885251 14.751,19.212251 14.46,19.402251 L2.883,26.964251 L5.992,28.829251 L31.431,13.078251 C31.661,12.936251 31.937,12.893251 32.2,12.958251 C32.391,13.005251 32.561,13.107251 32.693,13.250251 L36,15.234251 L36,11.566251 L31.991,9.16125098 L19.502,16.413251 C19.191,16.594251 18.808,16.594251 18.498,16.413251 L18.498,16.413251 Z M37.502,17.865251 L31.096,21.584251 L37.579,26.185251 C37.842,26.372251 38,26.676251 38,27.000251 L38,33.000251 C38,33.351251 37.815,33.677251 37.514,33.857251 L32.514,36.857251 C32.355,36.953251 32.177,37.000251 32,37.000251 C31.808,37.000251 31.617,36.945251 31.45,36.835251 L19,28.648251 L6.549,36.835251 C6.227,37.046251 5.816,37.055251 5.485,36.857251 L0.485,33.857251 C0.184,33.677251 0,33.351251 0,33.000251 L0,27.000251 C0,26.662251 0.17,26.348251 0.453,26.163251 L7.199,21.756251 L0.498,17.865251 C0.189,17.686251 0,17.356251 0,17.000251 L0,11.000251 C0,10.649251 0.184,10.323251 0.485,10.143251 L5.485,7.14325098 C5.798,6.95425098 6.187,6.95225098 6.502,7.13525098 L19,14.392251 L31.498,7.13525098 C31.811,6.95325098 32.201,6.95425098 32.514,7.14325098 L37.514,10.143251 C37.815,10.323251 38,10.649251 38,11.000251 L38,17.000251 C38,17.356251 37.81,17.686251 37.502,17.865251 L37.502,17.865251 Z M15,4.56525098 L18.982,2.16625098 L22.053,4.00125098 L18.485,6.14325098 C18.184,6.32325098 18,6.64925098 18,7.00025098 L18,11.000251 L20,11.000251 L20,7.56625098 L23,5.76625098 L23,8.00025098 L25,8.00025098 L25,4.00025098 C25,3.64825098 24.815,3.32225098 24.512,3.14225098 L19.493,0.142250982 C19.177,-0.0477490183 18.78,-0.0477490183 18.465,0.144250982 L13.484,3.14425098 C13.183,3.32425098 13,3.64925098 13,4.00025098 L13,8.00025098 L15,8.00025098 L15,4.56525098 Z M23,36.000251 L25,36.000251 L25,40.000251 C25,40.351251 24.816,40.676251 24.515,40.856251 L19.535,43.856251 C19.377,43.952251 19.198,44.000251 19.019,44.000251 C18.841,44.000251 18.664,43.953251 18.507,43.858251 L13.487,40.858251 C13.184,40.678251 13,40.352251 13,40.000251 L13,36.000251 L15,36.000251 L15,38.234251 L18,36.434251 L18,33.000251 L20,33.000251 L20,37.000251 C20,37.351251 19.815,37.677251 19.514,37.857251 L15.946,39.999251 L19.017,41.834251 L23,39.435251 L23,36.000251 Z" id="AWS-ThinkBox-Mesh_48_Squid"></path>
        </g>
    </g>
</svg>