<?xml version="1.0" encoding="UTF-8"?>
<svg width="64px" height="64px" viewBox="0 0 64 64" version="1.1" xmlns="http://www.w3.org/2000/svg" xmlns:xlink="http://www.w3.org/1999/xlink">
    <title>Icon-Architecture/48/Arch_Amazon-Deadline-Cloud_48</title>
    <g id="Icon-Architecture/48/Arch_Amazon-Deadline-Cloud_48" stroke="none" stroke-width="1" fill="none" fill-rule="evenodd">
        <g id="Icon-Architecture-BG/48/Media-Services" fill="#ED7100">
            <rect id="Rectangle" x="0" y="0" width="64" height="64"></rect>
        </g>
        <g id="Icon-Service/48/Amazon-Deadline-Cloud_48" transform="translate(13.000000, 10.000000)" fill="#FFFFFF">
            <path d="M27,31.382 L24,32.882 L21,31.382 L21,27.618 L24,26.118 L27,27.618 L27,31.382 Z M17,20.618 L20,19.118 L23,20.618 L23,24.382 L20,25.882 L17,24.382 L17,20.618 Z M28.447,26.106 L25,24.382 L25,20 C25,19.621 24.786,19.275 24.447,19.106 L20.447,17.106 C20.166,16.965 19.834,16.965 19.553,17.106 L15.553,19.106 C15.214,19.275 15,19.621 15,20 L15,25 C15,25.379 15.214,25.725 15.553,25.895 L19,27.618 L19,32 C19,32.379 19.214,32.725 19.553,32.895 L23.553,34.895 C23.693,34.965 23.847,35 24,35 C24.153,35 24.307,34.965 24.447,34.895 L28.447,32.895 C28.786,32.725 29,32.379 29,32 L29,27 C29,26.621 28.786,26.275 28.447,26.106 L28.447,26.106 Z M19.524,6.149 L32.524,14.149 C32.82,14.331 33,14.653 33,15 L33,29 C33,29.347 32.82,29.67 32.524,29.852 L31,30.79 L31,28.442 L31,27 L31,15.559 L19,8.174 L7,15.559 L7,28.442 L19,35.826 L19.871,35.29 L21.977,36.343 L19.524,37.852 C19.363,37.951 19.182,38 19,38 C18.818,38 18.637,37.951 18.476,37.852 L5.476,29.852 C5.18,29.67 5,29.347 5,29 L5,15 C5,14.653 5.18,14.331 5.476,14.149 L18.476,6.149 C18.798,5.95 19.202,5.95 19.524,6.149 L19.524,6.149 Z M36,31.439 L19,41.828 L2,31.439 L2,12.561 L19,2.172 L36,12.561 L36,31.439 Z M37.521,11.147 L19.521,0.147 C19.201,-0.049 18.799,-0.049 18.479,0.147 L0.479,11.147 C0.182,11.329 0,11.652 0,12 L0,32 C0,32.348 0.182,32.672 0.479,32.854 L18.479,43.854 C18.639,43.951 18.819,44 19,44 C19.181,44 19.361,43.951 19.521,43.854 L37.521,32.854 C37.818,32.672 38,32.348 38,32 L38,12 C38,11.652 37.818,11.329 37.521,11.147 L37.521,11.147 Z" id="Fill-3"></path>
        </g>
    </g>
</svg>