<?xml version="1.0" encoding="UTF-8"?>
<svg width="64px" height="64px" viewBox="0 0 64 64" version="1.1" xmlns="http://www.w3.org/2000/svg" xmlns:xlink="http://www.w3.org/1999/xlink">
    <title>Icon-Architecture/48/Arch_Amazon-Interactive-Video-Service_48</title>
    <g id="Icon-Architecture/48/Arch_Amazon-Interactive-Video-Service_48" stroke="none" stroke-width="1" fill="none" fill-rule="evenodd">
        <g id="Icon-Architecture-BG/48/Media-Services" fill="#ED7100">
            <rect id="Rectangle" x="0" y="0" width="64" height="64"></rect>
        </g>
        <g id="Icon-Service/48/Amazon-Interactive-Video-Service_48" transform="translate(10.000000, 10.000000)" fill="#FFFFFF">
            <path d="M2,26.49325 L2,17.85625 L9.479,22.17425 L2,26.49325 Z M12.479,22.17425 C12.479,21.81725 12.289,21.48725 11.979,21.30825 L1.5,15.25825 C1.191,15.07925 0.809,15.07925 0.5,15.25825 C0.19,15.43625 0,15.76625 0,16.12425 L0,28.22525 C0,28.58225 0.19,28.91225 0.5,29.09125 C0.654,29.18125 0.827,29.22525 1,29.22525 C1.173,29.22525 1.346,29.18125 1.5,29.09125 L11.979,23.04025 C12.289,22.86225 12.479,22.53225 12.479,22.17425 L12.479,22.17425 Z M28,41.61825 L28,32.98025 L35.479,37.29925 L28,41.61825 Z M37.979,36.43225 L27.5,30.38225 C27.191,30.20325 26.809,30.20325 26.5,30.38225 C26.19,30.56125 26,30.89125 26,31.24825 L26,43.34925 C26,43.70725 26.19,44.03725 26.5,44.21625 C26.654,44.30525 26.827,44.34925 27,44.34925 C27.173,44.34925 27.346,44.30525 27.5,44.21625 L37.979,38.16525 C38.289,37.98625 38.479,37.65625 38.479,37.29925 C38.479,36.94125 38.289,36.61125 37.979,36.43225 L37.979,36.43225 Z M42,26.49325 L34.521,22.17525 L42,17.85625 L42,26.49325 Z M18,29.51525 L18,14.83425 L30.714,22.17525 L18,29.51525 Z M16,11.36825 L8.521,7.05025 L16,2.73225 L16,11.36825 Z M16,41.62025 L8.521,37.30225 L16,32.98425 L16,41.62025 Z M43.5,15.25825 C43.191,15.07925 42.809,15.07925 42.5,15.25825 L32.617,20.96425 L18,12.52525 L18,1.00025 C18,0.64225 17.81,0.31225 17.5,0.13425 C17.191,-0.04475 16.809,-0.04475 16.5,0.13425 L6.021,6.18425 C5.711,6.36325 5.521,6.69325 5.521,7.05025 C5.521,7.40825 5.711,7.73825 6.021,7.91625 L16,13.67825 L16,30.67525 L6.021,36.43625 C5.711,36.61525 5.521,36.94525 5.521,37.30225 C5.521,37.66025 5.711,37.99025 6.021,38.16825 L16.5,44.21925 C16.654,44.30825 16.827,44.35225 17,44.35225 C17.173,44.35225 17.346,44.30825 17.5,44.21925 C17.81,44.04025 18,43.71025 18,43.35225 L18,31.82525 L32.617,23.38625 L42.5,29.09125 C42.809,29.27025 43.191,29.27025 43.5,29.09125 C43.81,28.91225 44,28.58225 44,28.22525 L44,16.12425 C44,15.76725 43.81,15.43725 43.5,15.25825 L43.5,15.25825 Z M28,2.73225 L35.479,7.05025 L28,11.36825 L28,2.73225 Z M26.5,13.96725 C26.654,14.05625 26.827,14.10025 27,14.10025 C27.173,14.10025 27.346,14.05625 27.5,13.96725 L37.979,7.91625 C38.289,7.73825 38.479,7.40825 38.479,7.05025 C38.479,6.69325 38.289,6.36325 37.979,6.18425 L27.5,0.13425 C27.191,-0.04475 26.809,-0.04475 26.5,0.13425 C26.19,0.31225 26,0.64225 26,1.00025 L26,13.10025 C26,13.45825 26.19,13.78825 26.5,13.96725 L26.5,13.96725 Z" id="Amazon-Interactive-Video-Service_Icon_48_Squid"></path>
        </g>
    </g>
</svg>