<?xml version="1.0" encoding="UTF-8"?>
<svg width="64px" height="64px" viewBox="0 0 64 64" version="1.1" xmlns="http://www.w3.org/2000/svg" xmlns:xlink="http://www.w3.org/1999/xlink">
    <title>Icon-Architecture/48/Arch_AWS-Thinkbox-Deadline_48</title>
    <g id="Icon-Architecture/48/Arch_AWS-Thinkbox-Deadline_48" stroke="none" stroke-width="1" fill="none" fill-rule="evenodd">
        <g id="Icon-Architecture-BG/48/Compute" fill="#ED7100">
            <rect id="Rectangle" x="0" y="0" width="64" height="64"></rect>
        </g>
        <g id="Icon-Service/48/AWS-ThinkBox-Deadline_48" transform="translate(12.000000, 10.000000)" fill="#FFFFFF">
            <path d="M38,32.395289 L21,41.342289 L21,38.621289 L21,33.339289 L29.466,28.883289 C29.577,28.825289 29.668,28.741289 29.748,28.649289 L32.354,30.285289 L33.417,28.590289 L30,26.446289 L30,17.895289 L38,13.660289 L38,32.395289 Z M11,36.342289 L11,27.836289 L16.045,25.165289 L16.045,26.998289 C16.045,27.359289 16.239,27.692289 16.554,27.869289 C16.706,27.955289 16.876,27.998289 17.045,27.998289 C17.225,27.998289 17.403,27.950289 17.563,27.853289 L19,26.983289 L19,32.132289 L11,36.342289 Z M2,30.337289 L2,11.602289 L19,2.65528899 L19,5.37728899 L19,11.132289 L10.535,15.587289 L7.272,13.741289 L6.288,15.482289 L9,17.016289 L9,26.631289 L2,30.337289 Z M22.518,24.854289 C22.817,24.673289 23,24.349289 23,23.999289 L23,21.601289 L28,18.954289 L28,27.395289 L21,31.079289 L21,25.772289 L22.518,24.854289 Z M18,21.475289 L21,19.743289 L21,23.435289 L18,25.224289 L18,21.475289 Z M16.539,20.039289 C16.233,20.218289 16,20.546289 16,20.901289 L16,22.902289 L11,25.573289 L11,17.602289 L19,13.392289 L19,18.597289 L16.539,20.039289 Z M28,8.65528899 L28,16.690289 L23,19.338289 L23,17.998289 C23,17.640289 22.809,17.309289 22.497,17.130289 C22.187,16.952289 21.805,16.955289 21.494,17.135289 L21,17.425289 L21,12.339289 L28,8.65528899 Z M39.516,11.142289 C39.404,11.075289 39.281,11.039289 39.156,11.019289 L35.169,8.69328899 L34.161,10.420289 L36.864,11.998289 L30,15.632289 L30,6.99928899 C30,6.64828899 29.816,6.32428899 29.517,6.14328899 C29.217,5.96228899 28.846,5.95028899 28.534,6.11428899 L21,10.079289 L21,5.37728899 L21,2.73128899 L23.292,4.05428899 L24.292,2.32228899 L20.5,0.132288989 L20.499,0.135288989 C20.203,-0.035711011 19.839,-0.046711011 19.534,0.114288989 L0.534,10.114289 C0.206,10.287289 0,10.627289 0,10.999289 L0,31.999289 C0,32.349289 0.184,32.674289 0.484,32.855289 C0.493,32.861289 0.503,32.862289 0.512,32.867289 L0.51,32.870289 L4.846,35.312289 L5.826,33.569289 L3.086,32.026289 L9,28.895289 L9,37.999289 C9,38.349289 9.184,38.673289 9.483,38.854289 C9.642,38.950289 9.82,38.999289 10,38.999289 C10.16,38.999289 10.319,38.960289 10.466,38.883289 L19,34.392289 L19,38.621289 L19,41.256289 L16.506,39.798289 L15.496,41.525289 L19.495,43.862289 L19.496,43.860289 C19.651,43.951289 19.825,43.999289 20,43.999289 C20.16,43.999289 20.319,43.960289 20.466,43.883289 L39.466,33.883289 C39.794,33.710289 40,33.370289 40,32.999289 L40,11.999289 C40,11.648289 39.816,11.323289 39.516,11.142289 L39.516,11.142289 Z" id="AWS-ThinkBox-Deadline_48_Squid"></path>
        </g>
    </g>
</svg>