<?xml version="1.0" encoding="UTF-8"?>
<svg width="64px" height="64px" viewBox="0 0 64 64" version="1.1" xmlns="http://www.w3.org/2000/svg" xmlns:xlink="http://www.w3.org/1999/xlink">
    <title>Icon-Architecture/48/Arch_AWS-Thinkbox-Frost_48</title>
    <g id="Icon-Architecture/48/Arch_AWS-Thinkbox-Frost_48" stroke="none" stroke-width="1" fill="none" fill-rule="evenodd">
        <g id="Icon-Architecture-BG/48/Compute" fill="#ED7100">
            <rect id="Rectangle" x="0" y="0" width="64" height="64"></rect>
        </g>
        <g id="Icon-Service/48/AWS-ThinkBox-Frost_48" transform="translate(12.562500, 10.000000)" fill="#FFFFFF">
            <path d="M27.488,36.321 L20.488,32.529 L20.488,28.566 L24.444,26.193 L27.488,27.976 L27.488,36.321 Z M11.488,36.321 L11.488,27.917 L14.482,26.162 L18.488,28.566 L18.488,32.529 L11.488,36.321 Z M3.548,22 L10.775,17.984 L13.488,19.573 L13.488,24.426 L10.775,26.016 L3.548,22 Z M11.488,7.699 L18.488,11.588 L18.488,15.433 L14.482,17.837 L11.488,16.083 L11.488,7.699 Z M19.488,26.834 L15.488,24.433 L15.488,19.566 L19.488,17.166 L23.488,19.566 L23.488,24.433 L19.488,26.834 Z M27.488,7.699 L27.488,16.023 L24.444,17.807 L20.488,15.433 L20.488,11.588 L27.488,7.699 Z M35.428,22 L28.148,26.045 L25.488,24.486 L25.488,19.513 L28.148,17.955 L35.428,22 Z M38.101,27.705 L33.952,29.446 L30.152,27.219 L37.973,22.874 C38.291,22.697 38.488,22.363 38.488,22 C38.488,21.636 38.291,21.302 37.973,21.126 L30.152,16.78 L33.952,14.553 L38.101,16.295 L38.875,14.451 L36.108,13.29 L38.697,11.773 L37.685,10.048 L35.097,11.564 L35.436,8.584 L33.45,8.357 L32.941,12.828 L29.488,14.851 L29.488,6 C29.488,5.645 29.3,5.318 28.995,5.138 C28.69,4.958 28.311,4.953 28.003,5.126 L20.488,9.3 L20.488,5.499 L24.088,2.8 L22.888,1.2 L20.488,3 L20.488,0 L18.488,0 L18.488,3 L16.088,1.2 L14.888,2.8 L18.488,5.499 L18.488,9.3 L10.973,5.126 C10.666,4.954 10.287,4.958 9.981,5.138 C9.676,5.318 9.488,5.645 9.488,6 L9.488,14.91 L5.934,12.828 L5.425,8.357 L3.438,8.584 L3.778,11.565 L1.189,10.048 L0.177,11.773 L2.766,13.29 L0,14.45 L0.773,16.295 L4.924,14.554 L8.771,16.809 L1.003,21.126 C0.685,21.302 0.488,21.636 0.488,22 C0.488,22.363 0.685,22.697 1.003,22.874 L8.771,27.19 L4.924,29.446 L0.773,27.704 L0,29.549 L2.766,30.709 L0.177,32.226 L1.189,33.952 L3.778,32.435 L3.438,35.416 L5.425,35.642 L5.934,31.171 L9.488,29.089 L9.488,38 C9.488,38.352 9.674,38.678 9.976,38.859 C10.279,39.039 10.654,39.046 10.965,38.879 L18.488,34.803 L18.488,38.5 L14.888,41.2 L16.088,42.8 L18.488,41 L18.488,44 L20.488,44 L20.488,41 L22.888,42.8 L24.088,41.2 L20.488,38.5 L20.488,34.803 L28.011,38.879 C28.161,38.96 28.324,39 28.488,39 C28.665,39 28.842,38.953 29,38.859 C29.302,38.678 29.488,38.352 29.488,38 L29.488,29.148 L32.941,31.172 L33.45,35.642 L35.436,35.416 L35.097,32.435 L37.685,33.952 L38.697,32.226 L36.108,30.709 L38.875,29.549 L38.101,27.705 Z" id="AWS-ThinkBox-Frost_48_Squid"></path>
        </g>
    </g>
</svg>