<?xml version="1.0" encoding="UTF-8"?>
<svg width="40px" height="40px" viewBox="0 0 40 40" version="1.1" xmlns="http://www.w3.org/2000/svg" xmlns:xlink="http://www.w3.org/1999/xlink">
    <title>Icon-Architecture/32/Arch_Amazon-Q_32</title>
    <g id="Icon-Architecture/32/Arch_Amazon-Q_32" stroke="none" stroke-width="1" fill="none" fill-rule="evenodd">
        <g id="Icon-Architecture-BG/32/Machine-Learning" fill="#01A88D">
            <rect id="Rectangle" x="0" y="0" width="40" height="40"></rect>
        </g>
        <g id="Icon-Service/32/Amazon-Q_32" transform="translate(8.000000, 6.800000)" fill="#FFFFFF">
            <path d="M13.229,13.08475 L13.229,14.53875 L11.999,15.29975 L10.752,14.53675 L10.752,13.08575 L11.999,12.32975 L13.229,13.08475 Z M12.703,25.41475 C12.261,25.64775 11.735,25.64875 11.295,25.41575 L1.797,20.38275 C1.305,20.12275 1,19.61475 1,19.05775 L1,7.51375 C1,6.95675 1.306,6.44775 1.799,6.18775 L11.299,1.17275 C11.518,1.05775 11.759,0.99975 12,0.99975 C12.24,0.99975 12.481,1.05775 12.7,1.17275 L22.2,6.18675 C22.693,6.44775 23,6.95675 23,7.51375 L23,19.03675 C23,19.14975 22.979,19.25775 22.955,19.36475 L14.229,14.52275 L14.229,12.80475 C14.229,12.63075 14.139,12.46975 13.991,12.37875 L12.261,11.31675 C12.101,11.21875 11.9,11.21875 11.74,11.31575 L9.993,12.37775 C9.843,12.46875 9.752,12.62975 9.752,12.80475 L9.752,14.81675 C9.752,14.99075 9.843,15.15275 9.992,15.24375 L11.739,16.31275 C11.819,16.36175 11.909,16.38675 12,16.38675 C12.09,16.38675 12.182,16.36175 12.262,16.31175 L13.743,15.39675 L22.416,20.20875 C22.348,20.26175 22.283,20.31975 22.205,20.36075 L12.703,25.41475 Z M22.667,5.30275 L13.167,0.28875 C12.436,-0.09625 11.563,-0.09625 10.833,0.28875 L1.333,5.30275 C0.51,5.73675 0,6.58475 0,7.51375 L0,19.05775 C0,19.98575 0.509,20.83275 1.329,21.26675 L10.828,26.29975 C11.194,26.49375 11.596,26.59075 11.998,26.59075 C12.401,26.59075 12.804,26.49275 13.171,26.29775 L22.674,21.24375 C23.492,20.80875 24,19.96275 24,19.03675 L24,7.51375 C24,6.58475 23.489,5.73675 22.667,5.30275 L22.667,5.30275 Z" id="Fill-5"></path>
        </g>
    </g>
</svg>