<svg width="40" height="40" viewBox="0 0 40 40" fill="none" xmlns="http://www.w3.org/2000/svg">
<g clip-path="url(#clip0_448_4437)">
<rect width="40" height="40" fill="#01A88D"/>
<path fill-rule="evenodd" clip-rule="evenodd" d="M20 7L9 13.4167V26.2679L20 32.6846L31 26.2679V13.4167L20 7ZM32 13.4167C32 13.061 31.8111 12.7321 31.5039 12.5529L20.5039 6.13622C20.1925 5.95459 19.8075 5.95459 19.4961 6.13622L8.49613 12.5529C8.18891 12.7321 8 13.061 8 13.4167V26.2679C8 26.6236 8.18891 26.9525 8.49613 27.1317L19.4961 33.5484C19.8075 33.73 20.1925 33.73 20.5039 33.5484L31.5039 27.1317C31.8111 26.9525 32 26.6236 32 26.2679V13.4167Z" fill="white"/>
<path fill-rule="evenodd" clip-rule="evenodd" d="M20.0002 11.9896L24.3137 14.416L25.3336 13.8423L20.4905 11.1181C20.1861 10.9468 19.8144 10.9468 19.51 11.1181L14.6667 13.8424L15.6866 14.4161L20.0002 11.9896ZM28 15.2925L20 19.7951L12 15.3423V15.295V16.4424L20 20.9424L27.0002 17.0048V23.7574L20.0002 27.6949L13.0002 23.7574V19.9629L12.0002 19.4004V23.7575C12.0002 24.1187 12.1951 24.4519 12.51 24.629L19.51 28.5665C19.8144 28.7378 20.1861 28.7378 20.4905 28.5665L27.4905 24.629C27.8054 24.4519 28.0002 24.1187 28.0002 23.7574L28 15.2925Z" fill="white"/>
</g>
<defs>
<clipPath id="clip0_448_4437">
<rect width="40" height="40" fill="white"/>
</clipPath>
</defs>
</svg>
