<svg width="40" height="40" viewBox="0 0 40 40" fill="none" xmlns="http://www.w3.org/2000/svg">
<rect width="40" height="40" fill="#01A88D"/>
<path d="M21 22.0001H22V31.5001C22 31.7105 21.8682 31.898 21.6709 31.9698L16.1709 33.9698C16.1152 33.9903 16.0576 34.0001 16 34.0001C15.9062 34.0001 15.8125 33.9737 15.7314 33.9219L10.2314 30.4219C10.0869 30.3301 10 30.171 10 30.0001V24.8467L6.32422 23.4683C6.12891 23.3951 6 23.2086 6 23.0001V17.0001C6 16.7916 6.12891 16.605 6.32422 16.5318L10 15.1534V10.0001C10 9.83112 10.0859 9.67341 10.2275 9.58112L15.6025 6.08112C15.7285 5.99958 15.8848 5.97809 16.0273 6.02399L21.6523 7.82379C21.8594 7.88971 22 8.08258 22 8.29986V17.0001H21V8.66462L15.9492 7.0489L15 7.66688V12.0001H14V8.31794L11 10.2711V15.1534L14.4716 16.4552L17 15.191V13.0001H18V15.5001C18 15.6895 17.8926 15.8624 17.7236 15.9473L15 17.3091V21.1705L18.1973 22.5406L17.8027 23.4595L14.5162 22.051L12.7236 22.9473L12.2764 22.0528L14 21.191V17.3467L10.5 16.0342L7 17.3467V22.6534L10.6758 24.0318C10.8711 24.105 11 24.2916 11 24.5001V29.7257L12.0883 30.4182L15.3027 29.0406L15.6973 29.9596L13.1101 31.0684L16.0606 32.9459L21 31.15V22.0001ZM18 28.0001V25.5001C18 25.3321 17.916 25.1754 17.7754 25.0826C17.6348 24.9893 17.458 24.9732 17.3027 25.0406L13.8027 26.5406L14.1973 27.4595L17 26.2584V28.0001L18 28.0001ZM34 19.5001C34 20.8785 32.8789 22.0001 31.5 22.0001C30.2924 22.0001 29.2828 21.1398 29.0505 20.0001H19V19.0001H29.0505C29.2828 17.8604 30.2924 17.0001 31.5 17.0001C32.8789 17.0001 34 18.1216 34 19.5001ZM33 19.5001C33 18.6729 32.3271 18.0001 31.5 18.0001C30.6729 18.0001 30 18.6729 30 19.5001C30 20.3272 30.6729 21.0001 31.5 21.0001C32.3271 21.0001 33 20.3272 33 19.5001ZM28.5 17.0001H24V16.0001H28V13.0001H26C25.8184 13.0001 25.6504 12.9014 25.5625 12.7423C25.4746 12.5836 25.4795 12.3892 25.5762 12.2349L28.0762 8.23494C28.2578 7.94295 28.7422 7.94295 28.9238 8.23494L31.4238 12.2349C31.5205 12.3892 31.5254 12.5836 31.4375 12.7423C31.3496 12.9014 31.1816 13.0001 31 13.0001H29V16.5001C29 16.7764 28.7764 17.0001 28.5 17.0001ZM28 12.0001H30.0977L28.5 9.44343L26.9023 12.0001H28ZM31 27.5001V31.5001C31 31.7764 30.7764 32.0001 30.5 32.0001H26.5C26.2236 32.0001 26 31.7764 26 31.5001V27.5001C26 27.2237 26.2236 27.0001 26.5 27.0001H28V23.0001H24V22.0001H28.5C28.7764 22.0001 29 22.2237 29 22.5001V27.0001H30.5C30.7764 27.0001 31 27.2237 31 27.5001ZM30 28.0001H27V31.0001H30V28.0001Z" fill="white"/>
</svg>
