<?xml version="1.0" encoding="UTF-8"?>
<svg width="74px" height="74px" viewBox="0 0 74 74" version="1.1" xmlns="http://www.w3.org/2000/svg" xmlns:xlink="http://www.w3.org/1999/xlink">
    <title>Icon-Architecture-Category/48/Analytics_48</title>
    <g id="Icon-Architecture-Category/48/Analytics_48" stroke="none" stroke-width="1" fill="none" fill-rule="evenodd">
        <rect id="Rectangle" fill="#8C4FFF" x="5" y="5" width="64" height="64"></rect>
        <rect id="#879196-Border" stroke="#879196" stroke-width="2" x="1" y="1" width="72" height="72"></rect>
        <g id="Icon-Category/48/Analytics_48" transform="translate(15.000000, 20.000000)" fill="#FFFFFF">
            <path d="M34.0000834,8 L34.0000834,14 L32.0000834,14 L32.0000834,10.587 L23.7400834,19.673 C23.3840834,20.063 22.7870834,20.11 22.3750834,19.781 L18.0740834,16.34 L10.7070834,23.707 L9.29308344,22.293 L17.2930834,14.293 C17.6540834,13.932 18.2290834,13.901 18.6250834,14.219 L22.8920834,17.633 L30.7390834,9 L27.0000834,9 L27.0000834,7 L33.0000834,7 C33.5530834,7 34.0000834,7.448 34.0000834,8 L34.0000834,8 Z M39.4340834,32 L4.56608344,32 L2.76708344,29 L5.00008344,29 L39.0000834,29 L41.2330834,29 L39.4340834,32 Z M6.00008344,3.21 C6.00008344,2.543 6.54308344,2 7.21108344,2 L35.7890834,2 C36.7620834,2 38.0000834,2.82 38.0000834,3.21 L38.0000834,27 L6.00008344,27 L6.00008344,3.21 Z M43.8700834,27.507 C43.6920834,27.194 43.3600834,27 43.0000834,27 L40.0000834,27 L40.0000834,3.21 C40.0000834,1.28 37.4660834,0 35.7890834,0 L7.21108344,0 C5.44008344,0 4.00008344,1.44 4.00008344,3.21 L4.00008344,27 L1.00008344,27 C0.640083444,27 0.308083444,27.194 0.130083444,27.507 C-0.047916556,27.821 -0.042916556,28.206 0.143083444,28.515 L3.14308344,33.515 C3.32308344,33.816 3.64808344,34 4.00008344,34 L40.0000834,34 C40.3520834,34 40.6770834,33.816 40.8570834,33.515 L43.8570834,28.515 C44.0430834,28.206 44.0480834,27.821 43.8700834,27.507 L43.8700834,27.507 Z" id="Analytics_Category-Icon_48_Squid-"></path>
        </g>
    </g>
</svg>