<?xml version="1.0" encoding="UTF-8"?>
<svg width="74px" height="74px" viewBox="0 0 74 74" version="1.1" xmlns="http://www.w3.org/2000/svg" xmlns:xlink="http://www.w3.org/1999/xlink">
    <title>Icon-Architecture-Category/48/Robotics_48</title>
    <g id="Icon-Architecture-Category/48/Robotics_48" stroke="none" stroke-width="1" fill="none" fill-rule="evenodd">
        <rect id="Rectangle" fill="#DD344C" x="5" y="5" width="64" height="64"></rect>
        <rect id="#879196-Border-Copy-21" stroke="#879196" stroke-width="2" x="1" y="1" width="72" height="72"></rect>
        <g id="Icon-Category/48/Robotics_48" transform="translate(15.000000, 15.000000)" fill="#FFFFFF">
            <path d="M13.707,5.606 L12.291,4.193 C14.988,1.492 18.575,0.002 22.393,3.55271368e-15 L22.404,3.55271368e-15 C26.217,3.55271368e-15 29.802,1.483 32.5,4.177 L31.086,5.592 C28.766,3.275 25.683,2 22.404,2 L22.394,2 C19.111,2.002 16.026,3.283 13.707,5.606 L13.707,5.606 Z M29.815,7.072 L28.401,8.486 C25.091,5.176 19.706,5.176 16.395,8.486 L14.981,7.072 C19.071,2.982 25.726,2.982 29.815,7.072 L29.815,7.072 Z M42,39.232 L41,39.989 L41,32.043 L42,32.819 L42,39.232 Z M38,41.966 L39,41.966 L39,28.999 L38,28.999 L38,41.966 Z M5,41.967 L6,41.967 L6,29 L5,29 L5,41.967 Z M2,39.232 L2,32.819 L3,32.043 L3,39.989 L2,39.232 Z M22,15 C29.981,15 36,21.018 36,29 L36,42 L8,42 L8,29 C8,21.018 14.019,15 22,15 L22,15 Z M21,11 C21,10.448 21.448,10 22,10 L23,10 C23.552,10 24,10.448 24,11 L24,13.125 C23.346,13.05 22.682,13 22,13 C21.661,13 21.332,13.028 21,13.047 L21,11 Z M41,29.51 L41,28 C41,27.447 40.553,27 40,27 L37.875,27 C37.101,20.232 32.433,15.023 26,13.483 L26,11 C26,9.345 24.654,8 23,8 L22,8 C20.346,8 19,9.345 19,11 L19,13.269 C12.054,14.485 6.938,19.885 6.125,27 L4,27 C3.447,27 3,27.447 3,28 L3,29.51 L0.387,31.54 C0.143,31.73 0,32.021 0,32.33 L0,39.73 C0,40.043 0.146,40.338 0.396,40.527 L3,42.497 L3,42.966 C3,43.519 3.447,43.966 4,43.966 L40,43.966 C40.553,43.966 41,43.519 41,42.966 L41,42.497 L43.603,40.527 C43.853,40.338 44,40.043 44,39.73 L44,32.33 C44,32.021 43.857,31.73 43.613,31.54 L41,29.51 Z M29,27 C30.103,27 31,27.897 31,29.006 C30.997,30.105 30.1,31 29,31 C27.897,31 27,30.103 27,29 C27,27.897 27.897,27 29,27 L29,27 Z M29,33 C31.199,33 32.993,31.21 33,29 C33,26.794 31.206,25 29,25 C26.794,25 25,26.794 25,29 C25,31.205 26.794,33 29,33 L29,33 Z M14.945,27.055 C16.048,27.055 16.945,27.952 16.945,29.061 C16.941,30.16 16.044,31.055 14.945,31.055 C13.843,31.055 12.945,30.158 12.945,29.055 C12.945,27.952 13.843,27.055 14.945,27.055 L14.945,27.055 Z M14.945,33.055 C17.144,33.055 18.937,31.266 18.945,29.055 C18.945,26.849 17.151,25.055 14.945,25.055 C12.739,25.055 10.945,26.849 10.945,29.055 C10.945,31.26 12.739,33.055 14.945,33.055 L14.945,33.055 Z" id="Robotics_Category-Icon_48_Squid"></path>
        </g>
    </g>
</svg>