<?xml version="1.0" encoding="UTF-8"?>
<svg width="74px" height="74px" viewBox="0 0 74 74" version="1.1" xmlns="http://www.w3.org/2000/svg" xmlns:xlink="http://www.w3.org/1999/xlink">
    <title>Icon-Architecture-Category/48/Networking-Content-Delivery_48</title>
    <g id="Icon-Architecture-Category/48/Networking-Content-Delivery_48" stroke="none" stroke-width="1" fill="none" fill-rule="evenodd">
        <rect id="Rectangle" fill="#8C4FFF" x="5" y="5" width="64" height="64"></rect>
        <rect id="#879196-Border-Copy-19" stroke="#879196" stroke-width="2" x="1" y="1" width="72" height="72"></rect>
        <g id="Icon-Category/48/Networking-Content-Delivery_48" transform="translate(17.000000, 15.000000)" fill="#FFFFFF">
            <path d="M33.821,25 L7.791,25 C4.489,25 2,22.41 2,19.113 C2.002,18.876 2.13,13.318 8.922,13.318 C9.474,13.318 9.922,12.87 9.922,12.318 C9.922,2.177 17.651,2.002 17.976,2 C21.995,2 24.301,3.707 25.235,7.371 C25.31,7.667 25.516,7.912 25.794,8.037 C26.073,8.162 26.393,8.153 26.663,8.013 C27.662,7.498 28.56,7.981 29.14,8.478 C30.296,9.466 31.161,11.478 30.609,13.133 C30.507,13.438 30.558,13.773 30.746,14.034 C30.934,14.295 31.236,14.449 31.557,14.449 C36.391,14.449 39,17.2 39,19.789 C39,23.084 37.161,25 33.821,25 M34.25,35.5 C34.25,36.878 33.129,38 31.75,38 C30.371,38 29.25,36.878 29.25,35.5 C29.25,34.122 30.371,33 31.75,33 C33.129,33 34.25,34.122 34.25,35.5 M22.75,39.5 C22.75,40.878 21.629,42 20.25,42 C18.871,42 17.75,40.878 17.75,39.5 C17.75,38.122 18.871,37 20.25,37 C21.629,37 22.75,38.122 22.75,39.5 M8.75,38 C7.371,38 6.25,36.878 6.25,35.5 C6.25,34.122 7.371,33 8.75,33 C10.129,33 11.25,34.122 11.25,35.5 C11.25,36.878 10.129,38 8.75,38 M32.764,12.5 C32.948,10.318 31.844,8.159 30.44,6.958 C29.35,6.025 28.076,5.644 26.867,5.855 C25.519,1.969 22.533,0 17.976,0 C17.879,0 8.455,0.132 7.943,11.351 C0.093,11.899 0,19.034 0,19.108 C0,23.477 3.422,27 7.791,27 L16.145,27 L10.842,31.54 C10.214,31.207 9.509,31 8.75,31 C6.268,31 4.25,33.019 4.25,35.5 C4.25,37.981 6.268,40 8.75,40 C11.231,40 13.25,37.981 13.25,35.5 C13.25,34.509 12.918,33.601 12.374,32.856 L19.25,26.899 L19.25,35.121 C17.25,35.578 15.75,37.363 15.75,39.5 C15.75,41.981 17.768,44 20.25,44 C22.731,44 24.75,41.981 24.75,39.5 C24.75,37.363 23.25,35.578 21.25,35.121 L21.25,26.899 L28.126,32.856 C27.582,33.601 27.25,34.509 27.25,35.5 C27.25,37.981 29.268,40 31.75,40 C34.231,40 36.25,37.981 36.25,35.5 C36.25,33.019 34.231,31 31.75,31 C30.991,31 30.286,31.207 29.658,31.54 L24.354,27 L33.821,27 C38.316,27 41,24.241 41,19.789 C41,16.472 38.124,12.96 32.764,12.5" id="Networking-Content-Delivery_Category-Icon_48_Squid"></path>
        </g>
    </g>
</svg>