<?xml version="1.0" encoding="UTF-8"?>
<svg width="74px" height="74px" viewBox="0 0 74 74" version="1.1" xmlns="http://www.w3.org/2000/svg" xmlns:xlink="http://www.w3.org/1999/xlink">
    <title>Icon-Architecture-Category/48/Games_48</title>
    <g id="Icon-Architecture-Category/48/Games_48" stroke="none" stroke-width="1" fill="none" fill-rule="evenodd">
        <rect id="Rectangle" fill="#8C4FFF" x="5" y="5" width="64" height="64"></rect>
        <rect id="#879196-Border-Copy-12" stroke="#879196" stroke-width="2" x="1" y="1" width="72" height="72"></rect>
        <g id="Icon-Category/48/Games_48" transform="translate(15.000000, 22.000000)" fill="#FFFFFF">
            <path d="M36.521,11.5 C36.521,12.328 35.849,13 35.021,13 C34.193,13 33.521,12.328 33.521,11.5 C33.521,10.672 34.193,10 35.021,10 C35.849,10 36.521,10.672 36.521,11.5 L36.521,11.5 Z M33.521,6.5 C33.521,5.672 34.193,5 35.021,5 C35.849,5 36.521,5.672 36.521,6.5 C36.521,7.328 35.849,8 35.021,8 C34.193,8 33.521,7.328 33.521,6.5 L33.521,6.5 Z M37.52,7.5 C38.349,7.5 39.02,8.172 39.02,9 C39.02,9.828 38.349,10.5 37.52,10.5 C36.692,10.5 36.02,9.828 36.02,9 C36.02,8.172 36.692,7.5 37.52,7.5 L37.52,7.5 Z M31.021,9 C31.021,8.172 31.693,7.5 32.521,7.5 C33.349,7.5 34.021,8.172 34.021,9 C34.021,9.828 33.349,10.5 32.521,10.5 C31.693,10.5 31.021,9.828 31.021,9 L31.021,9 Z M8.021,10 L6.021,10 L6.021,8 L8.021,8 L8.021,6 L10.021,6 L10.021,8 L12.021,8 L12.021,10 L10.021,10 L10.021,12 L8.021,12 L8.021,10 Z M42.021,24.037 C42.014,24.443 41.856,28 38.421,28 C35.439,28 32.693,21.41 30.859,16.972 C32.105,17.625 33.519,18 35.021,18 C37.847,18 40.37,16.688 42.021,14.644 L42.021,24.037 Z M5.599,28 C2.166,28 2.007,24.443 2,24.05 L2,14.644 C3.652,16.688 6.174,18 9,18 C10.502,18 11.916,17.625 13.162,16.972 C11.328,21.411 8.581,28 5.599,28 L5.599,28 Z M9,2 C12.86,2 16,5.14 16,9 C16,12.86 12.86,16 9,16 C5.141,16 2,12.86 2,9 C2,5.14 5.141,2 9,2 L9,2 Z M27.542,13.999 L16.479,13.999 C17.439,12.568 18,10.849 18,9 C18,7.151 17.439,5.43 16.478,3.999 L27.543,3.999 C26.583,5.43 26.021,7.151 26.021,9 C26.021,10.849 26.583,12.568 27.542,13.999 L27.542,13.999 Z M35.021,2 C38.88,2 42.021,5.14 42.021,9 C42.021,12.86 38.88,16 35.021,16 C31.162,16 28.021,12.86 28.021,9 C28.021,5.14 31.162,2 35.021,2 L35.021,2 Z M35.021,0 C32.885,0 30.923,0.751 29.378,1.999 L14.644,1.999 C13.099,0.751 11.137,0 9,0 C4.038,0 0,4.038 0,9 L0,24.059 C0.019,26.114 1.213,30 5.599,30 C9.945,30 12.781,23.134 15.06,17.618 C15.292,17.056 15.517,16.511 15.734,15.999 L28.287,15.999 C28.505,16.511 28.73,17.056 28.962,17.618 C31.241,23.135 34.077,30 38.421,30 C42.808,30 44.002,26.114 44.021,24.05 L44.021,9 C44.021,4.038 39.984,0 35.021,0 L35.021,0 Z" id="Fill-3"></path>
        </g>
    </g>
</svg>