<?xml version="1.0" encoding="UTF-8"?>
<svg width="74px" height="74px" viewBox="0 0 74 74" version="1.1" xmlns="http://www.w3.org/2000/svg" xmlns:xlink="http://www.w3.org/1999/xlink">
    <title>Icon-Architecture-Category/48/Migration-Transfer_48</title>
    <g id="Icon-Architecture-Category/48/Migration-Transfer_48" stroke="none" stroke-width="1" fill="none" fill-rule="evenodd">
        <rect id="Rectangle" fill="#01A88D" x="5" y="5" width="64" height="64"></rect>
        <rect id="#879196-Border-Copy-17" stroke="#879196" stroke-width="2" x="1" y="1" width="72" height="72"></rect>
        <g id="Icon-Category/48/Migration-Transfer_48" transform="translate(15.000000, 15.000000)" fill="#FFFFFF">
            <path d="M29.98,33.631 L21.505,22.562 L13.031,33.631 L18,33.631 C18.552,33.631 19,34.079 19,34.631 L19,41.631 L24,41.631 L24,34.631 C24,34.079 24.447,33.631 25,33.631 L29.98,33.631 Z M32.799,34.023 C33.031,34.325 33.071,34.733 32.902,35.074 C32.734,35.415 32.386,35.631 32.005,35.631 L26,35.631 L26,42.631 C26,43.183 25.552,43.631 25,43.631 L18,43.631 C17.447,43.631 17,43.183 17,42.631 L17,35.631 L11.005,35.631 C10.625,35.631 10.277,35.415 10.109,35.074 C9.94,34.733 9.98,34.325 10.211,34.023 L20.711,20.309 C21.09,19.815 21.92,19.815 22.299,20.309 L32.799,34.023 Z M44,20.894 C44,26.12 40.932,29.631 36.368,29.631 L32,29.631 L32,27.631 L36.368,27.631 C40.52,27.631 42,24.151 42,20.894 C42,18.172 40.23,15.262 35.262,15.262 C34.955,15.262 34.664,15.12 34.474,14.878 C34.285,14.635 34.217,14.319 34.292,14.02 C34.734,12.255 34.374,10.634 33.305,9.575 C32.247,8.526 30.643,8.184 28.911,8.632 C28.652,8.7 28.38,8.661 28.151,8.526 C27.921,8.39 27.756,8.169 27.691,7.911 C26.447,3.025 22.106,2 18.684,2 C18.322,2.002 9.737,2.184 9.737,13.157 C9.737,13.71 9.29,14.157 8.737,14.157 C2.117,14.157 2.001,20.333 2,20.596 C2,24.408 5.084,27.631 8.737,27.631 L11,27.631 L11,29.631 L8.737,29.631 C4.001,29.631 -3.55271368e-15,25.492 -3.55271368e-15,20.593 C-3.55271368e-15,17.818 1.651,12.692 7.757,12.196 C8.278,0.143 18.578,0 18.684,0 C24.143,0 27.895,2.301 29.356,6.508 C31.43,6.223 33.346,6.8 34.713,8.154 C36.037,9.467 36.641,11.302 36.442,13.311 C41.993,13.782 44,17.597 44,20.894 L44,20.894 Z" id="Migration-Transfer_Category-Icon_48_Squid"></path>
        </g>
    </g>
</svg>