<?xml version="1.0" encoding="UTF-8"?>
<svg width="74px" height="74px" viewBox="0 0 74 74" version="1.1" xmlns="http://www.w3.org/2000/svg" xmlns:xlink="http://www.w3.org/1999/xlink">
    <title>Icon-Architecture-Category/48/End-User-Computing_48</title>
    <g id="Icon-Architecture-Category/48/End-User-Computing_48" stroke="none" stroke-width="1" fill="none" fill-rule="evenodd">
        <rect id="Rectangle" fill="#01A88D" x="5" y="5" width="64" height="64"></rect>
        <rect id="#879196-Border-Copy-11" stroke="#879196" stroke-width="2" x="1" y="1" width="72" height="72"></rect>
        <g id="Icon-Category/48/End-User-Computing_48" transform="translate(15.000000, 15.000000)" fill="#FFFFFF">
            <path d="M31.9995939,40 L36.9995939,40 L36.9995939,38 L31.9995939,38 L31.9995939,40 Z M4.9995939,3.263 C4.9995939,2.567 5.6865939,2 6.5285939,2 L39.4705939,2 C40.3125939,2 40.9995939,2.567 40.9995939,3.263 L40.9995939,7 L42.9995939,7 L42.9995939,3.263 C42.9995939,1.464 41.4165939,0 39.4705939,0 L6.5285939,0 C4.5825939,0 2.9995939,1.464 2.9995939,3.263 L2.9995939,28 L0.999593898,28 C0.614593898,28 0.265593898,28.22 0.0985938983,28.567 C-0.0674061017,28.913 -0.0214061017,29.325 0.218593898,29.625 L4.2185939,34.625 C4.4085939,34.862 4.6955939,35 4.9995939,35 L21.9995939,35 L21.9995939,33 L5.4795939,33 L3.0805939,30 L21.9995939,30 L21.9995939,28 L4.9995939,28 L4.9995939,3.263 Z M43.0005939,34 L42.9995939,11 L25.9995939,11 L25.9995939,34 L43.0005939,34 Z M25.9995939,42 L43.0005939,42 L43.0005939,36 L25.9995939,36 L25.9995939,42 Z M44.9995939,11 L44.9995939,34 L44.9995939,36 L44.9995939,42 C44.9995939,43.103 44.1025939,44 42.9995939,44 L25.9995939,44 C24.8965939,44 23.9995939,43.103 23.9995939,42 L23.9995939,11 C23.9995939,9.897 24.8965939,9 25.9995939,9 L42.9995939,9 C44.1025939,9 44.9995939,9.897 44.9995939,11 L44.9995939,11 Z M34.9415939,21.075 C34.9415939,21.065 34.9405939,21.056 34.9405939,21.046 L34.9375939,20.833 C34.9375939,19.732 34.3865939,18.703 33.4235939,18.009 C32.0155939,16.993 29.9605939,16.828 27.7885939,17.551 L28.4215939,19.449 C29.9535939,18.938 31.3865939,19.007 32.2535939,19.631 C32.6945939,19.95 32.9375939,20.376 32.9375939,20.833 L32.9415939,21.082 C32.9455939,21.34 32.9555939,21.74 32.9485939,21.855 C32.9065939,22.143 32.9915939,22.435 33.1815939,22.654 C33.3715939,22.874 33.6475939,23 33.9375939,23 C34.0845939,23 37.5295939,23.029 37.6045939,25.53 C37.6235939,26.143 37.3815939,26.741 36.9215939,27.214 C36.4375939,27.714 35.7745939,28 35.1045939,28 L27.9995939,28 L27.9995939,30 L35.1045939,30 C36.3125939,30 37.4975939,29.492 38.3565939,28.607 C39.1955939,27.742 39.6395939,26.628 39.6045939,25.47 C39.5145939,22.487 36.9045939,21.355 34.9415939,21.075 L34.9415939,21.075 Z M22.9995939,11.889 L22.9995939,13 L20.9995939,13 L20.9995939,11.889 C20.9995939,10.007 19.1945939,8.293 17.2125939,8.293 C15.2775939,8.293 13.7035939,9.844 13.7035939,11.75 C13.7035939,12.127 13.7765939,12.509 13.9275939,12.917 C14.0565939,13.268 13.9785939,13.662 13.7265939,13.938 C13.4745939,14.213 13.0875939,14.327 12.7285939,14.228 C12.3715939,14.132 12.0775939,14.087 11.8025939,14.087 C9.8665939,14.087 8.2925939,15.638 8.2925939,17.543 C8.2925939,19.449 9.8665939,21 11.8025939,21 L21.9995939,21 L21.9995939,23 L11.8025939,23 C8.7645939,23 6.2925939,20.552 6.2925939,17.543 C6.2925939,14.563 8.7175939,12.134 11.7155939,12.087 C11.7075939,11.975 11.7035939,11.862 11.7035939,11.75 C11.7035939,8.741 14.1755939,6.293 17.2125939,6.293 C20.2955939,6.293 22.9995939,8.908 22.9995939,11.889 L22.9995939,11.889 Z" id="End-User-Computing_Category-Icon_48_Squid--"></path>
        </g>
    </g>
</svg>