<?xml version="1.0" encoding="UTF-8"?>
<svg width="74px" height="74px" viewBox="0 0 74 74" version="1.1" xmlns="http://www.w3.org/2000/svg" xmlns:xlink="http://www.w3.org/1999/xlink">
    <title>Icon-Architecture-Category/48/Business-Applications_48</title>
    <g id="Icon-Architecture-Category/48/Business-Applications_48" stroke="none" stroke-width="1" fill="none" fill-rule="evenodd">
        <rect id="Rectangle" fill="#DD344C" x="5" y="5" width="64" height="64"></rect>
        <rect id="#879196-Border-Copy-5" stroke="#879196" stroke-width="2" x="1" y="1" width="72" height="72"></rect>
        <g id="Icon-Category/48/Business-Application_48" transform="translate(15.000000, 15.000000)" fill="#FFFFFF">
            <path d="M38.5195939,42 L5.4805939,42 L3.0815939,39 L40.9185939,39 L38.5195939,42 Z M5.9995939,19.158 C5.9995939,18.52 6.5195939,18 7.1585939,18 L9.9995939,18 L9.9995939,37 L5.9995939,37 L5.9995939,19.158 Z M13.9995939,14 C14.5525939,14 14.9995939,13.552 14.9995939,13 L14.9995939,9 L17.9995939,9 L17.9995939,37 L11.9995939,37 L11.9995939,14 L13.9995939,14 Z M19.9995939,37 L23.9995939,37 L23.9995939,6 L19.9995939,6 L19.9995939,37 Z M28.9995939,9 L28.9995939,13 C28.9995939,13.552 29.4475939,14 29.9995939,14 L31.9995939,14 L31.9995939,37 L25.9995939,37 L25.9995939,9 L28.9995939,9 Z M36.8415939,18 C37.4805939,18 37.9995939,18.52 37.9995939,19.158 L37.9995939,37 L33.9995939,37 L33.9995939,18 L36.8415939,18 Z M43.9015939,37.567 C43.7345939,37.22 43.3845939,37 42.9995939,37 L39.9995939,37 L39.9995939,19.158 C39.9995939,17.417 38.5825939,16 36.8415939,16 L33.9995939,16 L33.9995939,13 C33.9995939,12.448 33.5525939,12 32.9995939,12 L30.9995939,12 L30.9995939,8 C30.9995939,7.448 30.5525939,7 29.9995939,7 L25.9995939,7 L25.9995939,5 C25.9995939,4.448 25.5525939,4 24.9995939,4 L22.9995939,4 L22.9995939,0 L20.9995939,0 L20.9995939,4 L18.9995939,4 C18.4475939,4 17.9995939,4.448 17.9995939,5 L17.9995939,7 L13.9995939,7 C13.4475939,7 12.9995939,7.448 12.9995939,8 L12.9995939,12 L10.9995939,12 C10.4475939,12 9.9995939,12.448 9.9995939,13 L9.9995939,16 L7.1585939,16 C5.4165939,16 3.9995939,17.417 3.9995939,19.158 L3.9995939,37 L0.999593898,37 C0.615593898,37 0.265593898,37.22 0.0985938983,37.567 C-0.0674061017,37.913 -0.0214061017,38.325 0.218593898,38.625 L4.2185939,43.625 C4.4095939,43.862 4.6965939,44 4.9995939,44 L38.9995939,44 C39.3035939,44 39.5905939,43.862 39.7815939,43.625 L43.7815939,38.625 C44.0215939,38.325 44.0675939,37.913 43.9015939,37.567 L43.9015939,37.567 Z" id="Business-Application_Category-Icon_48_Squid--"></path>
        </g>
    </g>
</svg>