<?xml version="1.0" encoding="UTF-8"?>
<svg width="74px" height="74px" viewBox="0 0 74 74" version="1.1" xmlns="http://www.w3.org/2000/svg" xmlns:xlink="http://www.w3.org/1999/xlink">
    <title>Icon-Architecture-Category/48/Serverless_48</title>
    <g id="Icon-Architecture-Category/48/Serverless_48" stroke="none" stroke-width="1" fill="none" fill-rule="evenodd">
        <rect id="#879196-Border-Copy-23" stroke="#879196" stroke-width="2" x="1" y="1" width="72" height="72"></rect>
        <rect id="Rectangle" fill="#8C4FFF" x="5" y="5" width="64" height="64"></rect>
        <g id="Icon-Category/48/Serverless_48" transform="translate(15.000000, 22.000000)" fill="#FFFFFF">
            <path d="M44.6242816,20.647 C44.6242816,23.023 43.7912816,25.253 42.2782816,26.926 C40.5622816,28.824 38.1402816,29.827 35.2732816,29.827 C29.4702816,29.827 25.6372816,26.104 22.3742816,22.307 C22.0462816,21.925 21.3172816,21.06 21.0492816,20.74 C19.4702816,18.858 17.9692816,17.067 16.3252816,15.709 L16.3302816,20.499 L14.3302816,20.501 L14.3232816,13.501 C14.3232816,13.236 14.4282816,12.981 14.6152816,12.793 C14.8032816,12.606 15.0572816,12.501 15.3222816,12.5 L22.3292816,12.493 L22.3312816,14.493 L17.9782816,14.498 C19.5522816,15.873 20.9952816,17.557 22.3892816,19.225 C22.7562816,19.665 23.5302816,20.598 23.6912816,20.772 C26.9602816,24.304 30.2052816,27.827 35.2732816,27.827 C37.5592816,27.827 39.4682816,27.052 40.7952816,25.584 C41.9582816,24.299 42.6242816,22.499 42.6242816,20.647 C42.6242816,17.316 40.5562816,13.956 35.9352816,13.956 C30.9772816,13.956 27.8752816,16.265 25.1072816,19.202 C24.8402816,18.897 24.5722816,18.593 24.3042816,18.283 C24.1342816,18.087 23.9602816,17.891 23.7882816,17.695 C26.6892816,14.668 30.2462816,12.026 35.7152816,11.958 C35.4412816,9.151 33.5592816,7.5 30.5612816,7.5 L29.8742816,7.5 C29.5112816,7.5 29.1762816,7.303 28.9992816,6.984 C27.2702816,3.863 23.9992816,2 20.2492816,2 C14.7352816,2 10.2492816,6.486 10.2492816,12 C10.2492816,12.552 9.80228163,13 9.24928163,13 C7.22428163,13 5.34528163,13.814 3.95928163,15.293 C2.57428163,16.771 1.88428163,18.704 2.01628163,20.735 C2.26228163,24.528 5.56328163,27.5 9.53228163,27.5 L11.1382816,27.5 C11.5072816,27.5 11.8792816,27.473 12.2452816,27.42 C13.0462816,27.303 13.7592816,27.094 14.3652816,26.797 C16.4112816,25.795 18.0822816,24.153 19.7232816,22.306 C19.7692816,22.359 19.8132816,22.409 19.8592816,22.462 C20.2532816,22.916 20.6542816,23.366 21.0552816,23.816 C19.3552816,25.709 17.5192816,27.479 15.2452816,28.593 C14.4522816,28.981 13.5402816,29.252 12.5332816,29.399 C12.0712816,29.466 11.6032816,29.5 11.1382816,29.5 L9.53228163,29.5 C4.51228163,29.5 0.334281629,25.707 0.0202816287,20.864 C-0.147718371,18.275 0.732281629,15.811 2.50028163,13.925 C4.02128163,12.302 6.09028163,11.283 8.28628163,11.051 C8.77128163,4.876 13.9512816,0 20.2492816,0 C24.5282816,0 28.2962816,2.044 30.4462816,5.5 L30.5612816,5.5 C34.7292816,5.5 37.4902816,8.071 37.7312816,12.104 C42.4542816,12.912 44.6242816,16.907 44.6242816,20.647" id="Serverless_48"></path>
        </g>
    </g>
</svg>