<?xml version="1.0" encoding="UTF-8"?>
<svg width="74px" height="74px" viewBox="0 0 74 74" version="1.1" xmlns="http://www.w3.org/2000/svg" xmlns:xlink="http://www.w3.org/1999/xlink">
    <title>Icon-Architecture-Category/48/Contact-Center_48</title>
    <g id="Icon-Architecture-Category/48/Contact-Center_48" stroke="none" stroke-width="1" fill="none" fill-rule="evenodd">
        <rect id="Rectangle" fill="#DD344C" x="5" y="5" width="64" height="64"></rect>
        <rect id="#879196-Border-Copy-6" stroke="#879196" stroke-width="2" x="1" y="1" width="72" height="72"></rect>
        <g id="Icon-Category/48/Contact-Center_48" transform="translate(16.650000, 14.900000)" fill="#FFFFFF">
            <path d="M2.66230657,42.032 C6.63430657,35.062 13.0963066,30.907 20.2163066,30.831 C24.0953066,30.75 27.9183066,32.007 31.2663066,34.353 C33.9013066,36.199 36.2323066,38.855 38.0693066,42.091 L2.66230657,42.032 Z M9.63430657,17.743 C9.63430657,11.876 14.4073066,7.102 20.2743066,7.102 C26.1413066,7.102 30.9153066,11.876 30.9153066,17.743 C30.9153066,19.778 30.3223066,21.758 29.2403066,23.456 C28.7933066,23.191 28.2783066,23.029 27.7223066,23.029 L24.6783066,23.029 C23.0233066,23.029 21.6783066,24.375 21.6783066,26.029 C21.6783066,26.845 22.0073066,27.583 22.5373066,28.124 C21.7953066,28.285 21.0383066,28.384 20.2743066,28.384 C14.4073066,28.384 9.63430657,23.611 9.63430657,17.743 L9.63430657,17.743 Z M7.36730657,22.029 L6.77830657,22.029 C5.44930657,22.029 4.36730657,20.973 4.36730657,19.675 L4.36730657,17.383 C4.36730657,16.085 5.44930657,15.029 6.77830657,15.029 L7.36730657,15.029 L7.36730657,22.029 Z M20.3333066,2 C27.0813066,2 32.9033066,6.727 34.2263066,13.056 C34.1353066,13.05 34.0493066,13.029 33.9563066,13.029 L32.3673066,13.029 C32.2443066,13.029 32.1293066,13.058 32.0203066,13.099 C30.1643066,8.422 25.6043066,5.102 20.2743066,5.102 C14.9583066,5.102 10.4063066,8.406 8.54230657,13.064 C8.48330657,13.054 8.42930657,13.029 8.36730657,13.029 L6.77830657,13.029 C6.66530657,13.029 6.55830657,13.054 6.44630657,13.062 C7.80630657,6.711 13.6423066,2 20.3333066,2 L20.3333066,2 Z M36.3673066,17.383 L36.3673066,19.675 C36.3673066,20.973 35.2853066,22.029 33.9563066,22.029 L33.3673066,22.029 L33.3673066,15.029 L33.9563066,15.029 C35.2853066,15.029 36.3673066,16.085 36.3673066,17.383 L36.3673066,17.383 Z M31.7013066,26.029 L30.7223066,26.029 C30.7223066,25.7 30.6553066,25.389 30.5573066,25.093 C30.9173066,24.59 31.2293066,24.059 31.5093066,23.513 C31.6813066,23.816 31.9933066,24.029 32.3673066,24.029 L33.9563066,24.029 C34.1343066,24.029 34.3033066,23.998 34.4763066,23.977 C33.9983066,25.098 33.1183066,26.029 31.7013066,26.029 L31.7013066,26.029 Z M27.7223066,27.029 L24.6783066,27.029 C24.1263066,27.029 23.6783066,26.58 23.6783066,26.029 C23.6783066,25.478 24.1263066,25.029 24.6783066,25.029 L27.7223066,25.029 C28.2733066,25.029 28.7223066,25.478 28.7223066,26.029 C28.7223066,26.58 28.2733066,27.029 27.7223066,27.029 L27.7223066,27.029 Z M40.6303066,42.649 C38.5473066,38.456 35.7053066,35.021 32.4143066,32.715 C30.1543066,31.132 27.6943066,30.015 25.1393066,29.397 C25.4073066,29.285 25.6703066,29.16 25.9313066,29.029 L27.7223066,29.029 C28.6053066,29.029 29.3923066,28.638 29.9413066,28.029 L31.7013066,28.029 C34.7383066,28.029 36.4393066,25.525 36.8333066,22.948 C37.7653066,22.149 38.3673066,20.985 38.3673066,19.675 L38.3673066,17.383 C38.3673066,15.866 37.5753066,14.531 36.3793066,13.751 L36.3733066,13.666 C35.2553066,5.875 28.3593066,-3.55271368e-15 20.3333066,-3.55271368e-15 C12.4253066,-3.55271368e-15 5.54330657,5.78 4.34630657,13.352 L4.21730657,13.852 C3.10130657,14.643 2.36730657,15.927 2.36730657,17.383 L2.36730657,19.675 C2.36730657,22.075 4.34630657,24.029 6.77830657,24.029 L8.36730657,24.029 C8.67130657,24.029 8.93430657,23.886 9.11830657,23.672 C10.4983066,26.26 12.7523066,28.311 15.4833066,29.435 C9.06430657,31.026 3.50730657,35.701 0.103306572,42.586 C-0.0496934283,42.896 -0.0316934283,43.262 0.150306572,43.556 C0.332306572,43.849 0.653306572,44.029 0.998306572,44.029 L39.7323066,44.094 L39.7343066,44.094 C40.0803066,44.094 40.4013066,43.915 40.5843066,43.621 C40.7663066,43.327 40.7843066,42.959 40.6303066,42.649 L40.6303066,42.649 Z" id="Fill-4"></path>
        </g>
    </g>
</svg>