<?xml version="1.0" encoding="UTF-8"?>
<svg width="74px" height="74px" viewBox="0 0 74 74" version="1.1" xmlns="http://www.w3.org/2000/svg" xmlns:xlink="http://www.w3.org/1999/xlink">
    <title>Icon-Architecture-Category/48/Compute_48</title>
    <g id="Icon-Architecture-Category/48/Compute_48" stroke="none" stroke-width="1" fill="none" fill-rule="evenodd">
        <rect id="Rectangle" fill="#ED7100" x="5" y="5" width="64" height="64"></rect>
        <rect id="#879196-Border-Copy-6" stroke="#879196" stroke-width="2" x="1" y="1" width="72" height="72"></rect>
        <g id="Icon-Category/48/Compute_48" transform="translate(15.000000, 15.000000)" fill="#FFFFFF">
            <path d="M14,14.125 C14,14.056 14.056,14 14.125,14 L29.875,14 C29.944,14 30,14.056 30,14.125 L30,29.875 C30,29.944 29.944,30 29.875,30 L14.125,30 C14.056,30 14,29.944 14,29.875 L14,14.125 Z M14.125,32 L29.875,32 C31.047,32 32,31.047 32,29.875 L32,14.125 C32,12.953 31.047,12 29.875,12 L14.125,12 C12.953,12 12,12.953 12,14.125 L12,29.875 C12,31.047 12.953,32 14.125,32 L14.125,32 Z M7,37 L37,37 L37,7 L7,7 L7,37 Z M39,6 C39,5.448 38.553,5 38,5 L35,5 L35,0 L33,0 L33,5 L29,5 L29,0 L27,0 L27,5 L23,5 L23,0 L21,0 L21,5 L17,5 L17,0 L15,0 L15,5 L11,5 L11,0 L9,0 L9,5 L6,5 C5.447,5 5,5.448 5,6 L5,9 L0,9 L0,11 L5,11 L5,15 L0,15 L0,17 L5,17 L5,21 L0,21 L0,23 L5,23 L5,27 L0,27 L0,29 L5,29 L5,33 L0,33 L0,35 L5,35 L5,38 C5,38.552 5.447,39 6,39 L9,39 L9,44 L11,44 L11,39 L15,39 L15,44 L17,44 L17,39 L21,39 L21,44 L23,44 L23,39 L27,39 L27,44 L29,44 L29,39 L33,39 L33,44 L35,44 L35,39 L38,39 C38.553,39 39,38.552 39,38 L39,35 L44,35 L44,33 L39,33 L39,29 L44,29 L44,27 L39,27 L39,23 L44,23 L44,21 L39,21 L39,17 L44,17 L44,15 L39,15 L39,11 L44,11 L44,9 L39,9 L39,6 Z" id="Fill-1"></path>
        </g>
    </g>
</svg>