<?xml version="1.0" encoding="UTF-8"?>
<svg width="74px" height="74px" viewBox="0 0 74 74" version="1.1" xmlns="http://www.w3.org/2000/svg" xmlns:xlink="http://www.w3.org/1999/xlink">
    <title>Icon-Architecture-Category/48/Internet-of-Things_48</title>
    <g id="Icon-Architecture-Category/48/Internet-of-Things_48" stroke="none" stroke-width="1" fill="none" fill-rule="evenodd">
        <rect id="Rectangle" fill="#7AA116" x="5" y="5" width="64" height="64"></rect>
        <rect id="#879196-Border-Copy-13" stroke="#879196" stroke-width="2" x="1" y="1" width="72" height="72"></rect>
        <g id="Icon-Category/48/IoT_48" transform="translate(15.000000, 15.000000)" fill="#FFFFFF">
            <path d="M37,27.5 C34.243,27.5 32,25.257 32,22.5 C32,19.743 34.243,17.5 37,17.5 C39.757,17.5 42,19.743 42,22.5 C42,25.257 39.757,27.5 37,27.5 M28,38.366 L28,24 L30.166,24 C30.855,27.141 33.656,29.5 37,29.5 C37.059,29.5 37.115,29.493 37.173,29.491 C35.408,33.626 32.068,36.782 28,38.366 M23,39.46 L23,13.92 C26.046,13.481 28.459,11.079 28.914,8.038 C32.266,9.591 35.022,12.234 36.698,15.515 C33.146,15.667 30.276,18.474 30.025,22 L27,22 C26.447,22 26,22.448 26,23 L26,39.008 C25.027,39.25 24.023,39.399 23,39.46 M18,39.008 L18,23 C18,22.448 17.553,22 17,22 L13.975,22 C13.724,18.474 10.854,15.667 7.302,15.515 C8.978,12.234 11.734,9.591 15.086,8.038 C15.541,11.079 17.954,13.481 21,13.92 L21,39.46 C19.977,39.399 18.973,39.25 18,39.008 M6.827,29.491 C6.885,29.493 6.941,29.5 7,29.5 C10.344,29.5 13.145,27.141 13.834,24 L16,24 L16,38.366 C11.932,36.782 8.592,33.626 6.827,29.491 M2,22.5 C2,19.743 4.243,17.5 7,17.5 C9.757,17.5 12,19.743 12,22.5 C12,25.257 9.757,27.5 7,27.5 C4.243,27.5 2,25.257 2,22.5 M22,2 C24.757,2 27,4.243 27,7 C27,9.757 24.757,12 22,12 C19.243,12 17,9.757 17,7 C17,4.243 19.243,2 22,2 M39.031,15.803 C37.12,11.286 33.452,7.66 28.894,5.829 C28.334,2.526 25.46,0 22,0 C18.54,0 15.666,2.526 15.106,5.829 C10.548,7.66 6.88,11.286 4.969,15.803 C2.097,16.676 0,19.347 0,22.5 C0,25.484 1.881,28.031 4.516,29.036 C6.412,34.533 10.704,38.688 16,40.498 L16,44 L18,44 L18,41.055 C18.977,41.27 19.979,41.406 21,41.46 L21,44 L23,44 L23,41.46 C24.021,41.406 25.023,41.27 26,41.055 L26,44 L28,44 L28,40.498 C33.296,38.688 37.588,34.533 39.484,29.036 C42.119,28.031 44,25.484 44,22.5 C44,19.347 41.903,16.676 39.031,15.803" id="IoT_Category-Icon_48_Squid--"></path>
        </g>
    </g>
</svg>