<?xml version="1.0" encoding="UTF-8"?>
<svg width="74px" height="74px" viewBox="0 0 74 74" version="1.1" xmlns="http://www.w3.org/2000/svg" xmlns:xlink="http://www.w3.org/1999/xlink">
    <title>Icon-Architecture-Category/48/Quantum-Technologies_48</title>
    <g id="Icon-Architecture-Category/48/Quantum-Technologies_48" stroke="none" stroke-width="1" fill="none" fill-rule="evenodd">
        <rect id="Rectangle" fill="#ED7100" x="5" y="5" width="64" height="64"></rect>
        <rect id="#879196-Border-Copy-20" stroke="#879196" stroke-width="2" x="1" y="1" width="72" height="72"></rect>
        <g id="Icon-Category/48/Quantum-Technologies_48" transform="translate(17.000000, 15.000000)" fill="#FFFFFF">
            <path d="M38.32,32 C38.271,32.084 38.201,32.154 38.142,32.23 C37.5,31.484 36.559,31 35.5,31 C33.934,31 32.622,32.04 32.175,33.459 C31.15,33.344 30.051,33.133 28.901,32.843 C29.295,31.069 29.587,29.129 29.771,27.064 C31.467,25.872 33.002,24.648 34.341,23.42 C37.827,27.027 39.303,30.297 38.32,32 M35.5,36 C34.673,36 34,35.327 34,34.5 C34,33.673 34.673,33 35.5,33 C36.327,33 37,33.673 37,34.5 C37,35.327 36.327,36 35.5,36 M21,42 C19.029,42 16.93,39.074 15.549,34.234 C17.314,33.683 19.142,32.972 20.995,32.119 C22.854,32.973 24.687,33.667 26.454,34.221 C25.072,39.069 22.971,42 21,42 M10.809,33.336 C7.11,33.93 4.512,33.443 3.679,32 C3.511,31.709 3.422,31.367 3.393,30.989 C3.429,30.99 3.463,31 3.5,31 C5.429,31 7,29.43 7,27.5 C7,26.602 6.65,25.791 6.092,25.17 C6.566,24.587 7.077,24 7.648,23.411 C8.99,24.643 10.528,25.869 12.228,27.064 C12.413,29.131 12.706,31.074 13.099,32.85 C12.316,33.046 11.547,33.218 10.809,33.336 M3.5,26 C4.327,26 5,26.673 5,27.5 C5,28.327 4.327,29 3.5,29 C2.673,29 2,28.327 2,27.5 C2,26.673 2.673,26 3.5,26 M3.679,12 C4.512,10.556 7.109,10.068 10.809,10.664 C11.547,10.782 12.316,10.954 13.099,11.15 C12.705,12.931 12.411,14.878 12.226,16.95 C10.567,18.126 9.035,19.354 7.678,20.601 C4.178,16.986 2.694,13.706 3.679,12 M21,2 C21.88,2 22.662,2.574 23.257,3.2 C23.094,3.603 23,4.04 23,4.5 C23,6.214 24.24,7.637 25.869,7.936 C26.079,8.52 26.274,9.129 26.455,9.765 C24.687,10.317 22.855,11.028 21,11.883 C19.146,11.029 17.315,10.318 15.549,9.766 C16.93,4.926 19.029,2 21,2 M26.5,3 C27.327,3 28,3.673 28,4.5 C28,5.327 27.327,6 26.5,6 C25.673,6 25,5.327 25,4.5 C25,3.673 25.673,3 26.5,3 M29.942,19.547 C31.018,20.365 31.998,21.186 32.884,22 C31.999,22.812 31.021,23.632 29.947,24.449 C29.98,23.647 30,22.832 30,22 C30,21.173 29.977,20.356 29.942,19.547 M23.348,13.03 C24.571,12.517 25.773,12.074 26.945,11.704 C27.211,12.901 27.427,14.162 27.594,15.476 C26.916,15.046 26.219,14.621 25.5,14.206 C24.785,13.792 24.066,13.404 23.348,13.03 M14.404,15.48 C14.575,14.139 14.797,12.88 15.058,11.706 C16.228,12.075 17.429,12.517 18.651,13.03 C17.933,13.404 17.215,13.792 16.5,14.206 C15.786,14.618 15.088,15.044 14.404,15.48 M12.052,24.449 C10.977,23.631 9.999,22.811 9.112,21.997 C10.016,21.17 10.997,20.349 12.052,19.547 C12.019,20.351 12,21.167 12,22 C12,22.832 12.019,23.647 12.052,24.449 M18.65,30.97 C17.429,31.483 16.228,31.925 15.058,32.294 C14.797,31.121 14.576,29.863 14.405,28.524 C15.083,28.954 15.78,29.379 16.5,29.794 C17.213,30.206 17.931,30.597 18.65,30.97 M27.594,28.524 C27.424,29.86 27.204,31.114 26.944,32.285 C25.778,31.916 24.581,31.477 23.358,30.965 C24.073,30.592 24.788,30.206 25.5,29.794 C26.219,29.379 26.917,28.954 27.594,28.524 M24.5,28.062 C23.341,28.731 22.175,29.347 21.016,29.907 C19.843,29.343 18.667,28.736 17.5,28.062 C16.312,27.376 15.199,26.67 14.148,25.956 C14.054,24.688 14,23.371 14,22 C14,20.631 14.054,19.315 14.147,18.05 C15.219,17.32 16.336,16.61 17.5,15.938 C18.665,15.266 19.836,14.647 21,14.084 C22.164,14.647 23.335,15.266 24.5,15.938 C25.688,16.624 26.803,17.331 27.854,18.046 C27.949,19.334 28,20.655 28,22 C28,23.371 27.945,24.688 27.851,25.956 C26.8,26.67 25.687,27.376 24.5,28.062 M31.19,10.664 C34.885,10.071 37.486,10.556 38.32,12 C39.303,13.703 37.827,16.973 34.341,20.58 C33,19.349 31.461,18.123 29.76,16.928 C29.573,14.897 29.274,12.96 28.87,11.158 C29.664,10.958 30.444,10.784 31.19,10.664 M40.052,11 C38.761,8.765 35.506,7.944 30.872,8.689 C30.069,8.819 29.23,9.006 28.378,9.221 C28.229,8.699 28.072,8.191 27.905,7.7 C29.135,7.158 30,5.929 30,4.5 C30,2.57 28.429,1 26.5,1 C25.758,1 25.074,1.235 24.507,1.629 C23.17,0.318 21.893,0 21,0 C17.853,0 15.185,3.568 13.59,9.213 C12.748,9.002 11.921,8.817 11.128,8.689 C6.496,7.942 3.239,8.765 1.947,11 C0.374,13.725 2.129,17.816 6.216,22.02 C5.534,22.724 4.926,23.426 4.372,24.124 C4.091,24.051 3.802,24 3.5,24 C1.57,24 3.55271368e-15,25.57 3.55271368e-15,27.5 C3.55271368e-15,28.644 0.559,29.652 1.411,30.291 C1.327,31.303 1.496,32.217 1.947,33 C2.927,34.697 5.042,35.579 8.03,35.579 C8.977,35.579 10.013,35.49 11.128,35.311 C11.921,35.183 12.748,34.998 13.59,34.787 C15.185,40.432 17.853,44 21,44 C24.148,44 26.817,40.428 28.413,34.777 C29.728,35.109 30.982,35.342 32.152,35.463 C32.573,36.923 33.906,38 35.5,38 C37.429,38 39,36.43 39,34.5 C39,34.407 38.979,34.32 38.972,34.229 C39.419,33.881 39.781,33.47 40.052,33 C41.623,30.28 39.876,26.196 35.801,22 C39.876,17.804 41.623,13.72 40.052,11" id="Quantum-Technologies_Category-Icon_48_Squid"></path>
        </g>
    </g>
</svg>