<?xml version="1.0" encoding="UTF-8"?>
<svg width="74px" height="74px" viewBox="0 0 74 74" version="1.1" xmlns="http://www.w3.org/2000/svg" xmlns:xlink="http://www.w3.org/1999/xlink">
    <title>Icon-Architecture-Category/48/Cloud-Financial-Management_48</title>
    <g id="Icon-Architecture-Category/48/Cloud-Financial-Management_48" stroke="none" stroke-width="1" fill="none" fill-rule="evenodd">
        <rect id="Rectangle" fill="#7AA116" x="5" y="5" width="64" height="64"></rect>
        <rect id="#879196-Border-Copy-3" stroke="#879196" stroke-width="2" x="1" y="1" width="72" height="72"></rect>
        <g id="Icon-Category/48/Cloud-Financial-Management_48" transform="translate(19.000000, 15.000000)" fill="#FFFFFF">
            <path d="M15,40 L20,40 L20,38 L15,38 L15,40 Z M6,40 L11,40 L11,38 L6,38 L6,40 Z M15,35 L20,35 L20,33 L15,33 L15,35 Z M6,35 L11,35 L11,33 L6,33 L6,35 Z M15,29 L20,29 L20,27 L15,27 L15,29 Z M6,29 L11,29 L11,27 L6,27 L6,29 Z M26,38 L29,38 L29,29 L26,29 L26,38 Z M30,27 L25,27 C24.447,27 24,27.448 24,28 L24,39 C24,39.552 24.447,40 25,40 L30,40 C30.553,40 31,39.552 31,39 L31,28 C31,27.448 30.553,27 30,27 L30,27 Z M7,23 L29,23 L29,18 L7,18 L7,23 Z M6,16 C5.447,16 5,16.448 5,17 L5,24 C5,24.552 5.447,25 6,25 L30,25 C30.553,25 31,24.552 31,24 L31,17 C31,16.448 30.553,16 30,16 L6,16 Z M34,42 L2,42 L2,12 L10,12 L10,13 C10,13.552 10.447,14 11,14 L25,14 C25.553,14 26,13.552 26,13 L26,12 L34,12 L34,42 Z M11.382,2 L20,2 C21.85,2 24,3.311 24,5 L24,10 L24,12 L12,12 L12,10 L12,5 C12,3.687 11.755,2.716 11.382,2 L11.382,2 Z M6.25,6.094 L6.25,4.969 C6.25,3.729 6.916,2 8,2 C8.495,2 10,2 10,5 L10,6.094 L6.25,6.094 Z M35,10 L26,10 L26,5 C26,2.053 22.838,0 20,0 L8,0 C5.684,0 4.25,2.579 4.25,4.969 L4.25,7.094 C4.25,7.646 4.697,8.094 5.25,8.094 L10,8.094 L10,10 L1,10 C0.447,10 0,10.448 0,11 L0,43 C0,43.552 0.447,44 1,44 L35,44 C35.553,44 36,43.552 36,43 L36,11 C36,10.448 35.553,10 35,10 L35,10 Z" id="Fill-1"></path>
        </g>
    </g>
</svg>