<?xml version="1.0" encoding="UTF-8"?>
<svg width="74px" height="74px" viewBox="0 0 74 74" version="1.1" xmlns="http://www.w3.org/2000/svg" xmlns:xlink="http://www.w3.org/1999/xlink">
    <title>Icon-Architecture-Category/48/Security-Identity-Compliance_48</title>
    <g id="Icon-Architecture-Category/48/Security-Identity-Compliance_48" stroke="none" stroke-width="1" fill="none" fill-rule="evenodd">
        <rect id="Rectangle" fill="#DD344C" x="5" y="5" width="64" height="64"></rect>
        <rect id="#879196-Border-Copy-23" stroke="#879196" stroke-width="2" x="1" y="1" width="72" height="72"></rect>
        <g id="Icon-Category/48/Security-Identity-Compliance_48" transform="translate(21.000000, 16.000000)" fill="#FFFFFF">
            <path d="M30,25.107 C30,25.744 29.841,40.714 16,40.714 C2.188,40.714 2.001,24.715 2,24.035 L2,7.466 L16,2.071 L30,7.466 L30,25.107 Z M31.359,5.847 L16.359,0.066 C16.129,-0.022 15.871,-0.022 15.641,0.066 L0.641,5.847 C0.255,5.996 0,6.366 0,6.78 L0,24.035 C0,24.222 0.183,42.714 16,42.714 C31.817,42.714 32,25.283 32,25.107 L32,6.78 C32,6.366 31.745,5.996 31.359,5.847 L31.359,5.847 Z M26,25.098 C25.989,26.244 25.639,35.971 17,36.67 L17,6.743 L26,10.211 L26,25.098 Z M6,24.021 L6,10.211 L15,6.743 L15,36.667 C6.344,35.903 6.009,25.268 6,24.021 L6,24.021 Z M15.641,4.353 L4.641,8.592 C4.255,8.741 4,9.111 4,9.525 L4,24.028 C4.011,25.531 4.437,38.714 16,38.714 C20.789,38.714 24.374,36.503 26.367,32.318 C27.888,29.127 27.994,25.759 28,25.107 L28,9.525 C28,9.111 27.745,8.741 27.359,8.592 L16.359,4.353 C16.129,4.264 15.871,4.264 15.641,4.353 L15.641,4.353 Z" id="Security-Identity-Compliance_Category-Icon_48_Squid"></path>
        </g>
    </g>
</svg>