<?xml version="1.0" encoding="UTF-8"?>
<svg width="74px" height="74px" viewBox="0 0 74 74" version="1.1" xmlns="http://www.w3.org/2000/svg" xmlns:xlink="http://www.w3.org/1999/xlink">
    <title>Icon-Architecture-Category/48/Developer-Tools_48</title>
    <g id="Icon-Architecture-Category/48/Developer-Tools_48" stroke="none" stroke-width="1" fill="none" fill-rule="evenodd">
        <rect id="Rectangle" fill="#C925D1" x="5" y="5" width="64" height="64"></rect>
        <rect id="#879196-Border-Copy-10" stroke="#879196" stroke-width="2" x="1" y="1" width="72" height="72"></rect>
        <g id="Icon-Category/48/Dev-Tools_48" transform="translate(15.000000, 14.000000)" fill="#FFFFFF">
            <path d="M42.0184887,37.7552949 C42.0184887,37.3052949 41.8434887,36.8832949 41.5254887,36.5652949 L26.0564887,21.0972949 C25.9304887,20.9712949 25.7644887,20.9022949 25.5864887,20.9022949 C25.4094887,20.9022949 25.2424887,20.9712949 25.1164887,21.0972949 L21.0964887,25.1162949 C20.8374887,25.3762949 20.8374887,25.7972949 21.0974887,26.0572949 L36.5654887,41.5252949 C37.2214887,42.1802949 38.2894887,42.1812949 38.9454887,41.5252949 L41.5254887,38.9452949 C41.8424887,38.6272949 42.0184887,38.2042949 42.0184887,37.7552949 L42.0184887,37.7552949 Z M10.6294887,12.5642949 L20.7454887,22.6402949 L22.6404887,20.7452949 L13.1574887,11.2242949 C12.7684887,10.8332949 12.4744887,10.3512949 12.3074887,9.82929486 L10.9064887,5.45829486 C10.7784887,5.06129486 10.4864887,4.73329486 10.1054887,4.56029486 L5.30748868,2.38429486 C4.74748868,2.13029486 4.07948868,2.25229486 3.64448868,2.68729486 L2.68748868,3.64429486 C2.25248868,4.07929486 2.13048868,4.74729486 2.38448868,5.30729486 L4.56048868,10.1052949 C4.73348868,10.4862949 5.06048868,10.7772949 5.45848868,10.9052949 L10.6294887,12.5642949 Z M42.9394887,35.1512949 C43.6344887,35.8462949 44.0184887,36.7712949 44.0184887,37.7552949 C44.0184887,38.7382949 43.6344887,39.6632949 42.9394887,40.3592949 L40.3594887,42.9392949 C39.6414887,43.6562949 38.6984887,44.0162949 37.7554887,44.0162949 C36.8124887,44.0162949 35.8694887,43.6572949 35.1514887,42.9392949 L19.6824887,27.4712949 C18.7654887,26.5522949 18.6624887,25.1272949 19.3664887,24.0902949 L9.55948868,14.3212949 L4.84748868,12.8102949 C3.91348868,12.5102949 3.14448868,11.8252949 2.73948868,10.9322949 L0.562488683,6.13329486 C-0.0325113166,4.81829486 0.252488683,3.25029486 1.27348868,2.23029486 L2.23048868,1.27329486 C3.24948868,0.253294857 4.81748868,-0.0337051432 6.13348868,0.563294857 L10.9314887,2.73929486 C11.8254887,3.14429486 12.5094887,3.91229486 12.8104887,4.84729486 L14.2114887,9.21929486 C14.2834887,9.44129486 14.4094887,9.64729486 14.5754887,9.81429486 L24.0914887,19.3692949 C25.1164887,18.6922949 26.5844887,18.7952949 27.4714887,19.6832949 L42.9394887,35.1512949 Z M23.7284887,15.6802949 L29.0504887,9.98429486 C29.2534887,9.76729486 29.3494887,9.47129486 29.3124887,9.17529486 C29.0604887,7.19829486 29.7194887,5.26029486 31.1204887,3.85929486 C32.6674887,2.31129486 34.8834887,1.69229486 36.9634887,2.14029486 L33.1824887,5.92229486 C32.5294887,6.57529486 32.1694887,7.44329486 32.1694887,8.36729486 C32.1694887,9.29129486 32.5294887,10.1602949 33.1824887,10.8132949 C34.5324887,12.1612949 36.7264887,12.1602949 38.0744887,10.8132949 L41.8554887,7.03129486 C42.3014887,9.11329486 41.6834887,11.3292949 40.1364887,12.8752949 C38.7354887,14.2762949 36.7964887,14.9352949 34.8194887,14.6842949 C34.5094887,14.6412949 34.2044887,14.7502949 33.9864887,14.9692949 L29.9774887,18.9782949 L31.3914887,20.3922949 L35.0664887,16.7172949 C37.4864887,16.8812949 39.8284887,16.0132949 41.5504887,14.2892949 C44.0504887,11.7892949 44.7064887,7.96129486 43.1804887,4.76329486 C43.0404887,4.47029486 42.7674887,4.26329486 42.4474887,4.20829486 C42.1324887,4.15329486 41.8014887,4.25629486 41.5714887,4.48629486 L36.6604887,9.39929486 C36.0914887,9.96829486 35.1644887,9.96629486 34.5964887,9.39929486 C34.0284887,8.83029486 34.0284887,7.90529486 34.5964887,7.33629486 L39.5084887,2.42429486 C39.7384887,2.19429486 39.8414887,1.86829486 39.7874887,1.54729486 C39.7324887,1.22829486 39.5254887,0.954294857 39.2324887,0.815294857 C36.0354887,-0.709705143 32.2064887,-0.0557051432 29.7054887,2.44529486 C27.9774887,4.17429486 27.1084887,6.52229486 27.2814887,8.95029486 L22.2674887,14.3152949 L23.7284887,15.6802949 Z M19.7424887,31.6662949 L16.7144887,35.0342949 C16.8904887,37.4652949 16.0214887,39.8182949 14.2894887,41.5502949 C12.6884887,43.1512949 10.5414887,43.9962949 8.36748868,43.9962949 C7.14448868,43.9962949 5.91348868,43.7302949 4.76348868,43.1812949 C4.47048868,43.0412949 4.26348868,42.7682949 4.20848868,42.4482949 C4.15348868,42.1282949 4.25748868,41.8012949 4.48748868,41.5712949 L9.39848868,36.6592949 C9.67448868,36.3832949 9.82648868,36.0172949 9.82648868,35.6282949 C9.82648868,35.2392949 9.67448868,34.8732949 9.39848868,34.5972949 C8.83048868,34.0302949 7.90548868,34.0292949 7.33548868,34.5972949 L2.42448868,39.5092949 C2.19448868,39.7382949 1.86148868,39.8412949 1.54848868,39.7872949 C1.22848868,39.7332949 0.955488683,39.5262949 0.815488683,39.2332949 C-0.710511317,36.0352949 -0.0545113166,32.2072949 2.44548868,29.7062949 C4.17348868,27.9782949 6.52848868,27.1092949 8.94948868,27.2802949 L14.3154887,22.2672949 L15.6804887,23.7292949 L9.98448868,29.0502949 C9.76648868,29.2542949 9.46948868,29.3512949 9.17548868,29.3122949 C7.19948868,29.0582949 5.25948868,29.7192949 3.85948868,31.1202949 C2.31248868,32.6672949 1.69448868,34.8822949 2.14048868,36.9642949 L5.92148868,33.1832949 C7.26948868,31.8362949 9.46248868,31.8342949 10.8124887,33.1832949 C11.4654887,33.8362949 11.8264887,34.7042949 11.8264887,35.6282949 C11.8264887,36.5522949 11.4654887,37.4212949 10.8124887,38.0742949 L7.03148868,41.8552949 C9.10948868,42.3002949 11.3284887,41.6832949 12.8754887,40.1362949 C14.2764887,38.7352949 14.9354887,36.7972949 14.6834887,34.8202949 C14.6474887,34.5312949 14.7374887,34.2412949 14.9314887,34.0252949 L18.2534887,30.3292949 L19.7424887,31.6662949 Z" id="Dev-Tools_Category-Icon_48_Squid--"></path>
        </g>
    </g>
</svg>