<?xml version="1.0" encoding="UTF-8"?>
<svg width="74px" height="74px" viewBox="0 0 74 74" version="1.1" xmlns="http://www.w3.org/2000/svg" xmlns:xlink="http://www.w3.org/1999/xlink">
    <title>Icon-Architecture-Category/48/Blockchain_48</title>
    <g id="Icon-Architecture-Category/48/Blockchain_48" stroke="none" stroke-width="1" fill="none" fill-rule="evenodd">
        <rect id="Rectangle" fill="#ED7100" x="5" y="5" width="64" height="64"></rect>
        <rect id="#879196-Border-Copy-4" stroke="#879196" stroke-width="2" x="1" y="1" width="72" height="72"></rect>
        <g id="Icon-Category/48/Blockchain_48" transform="translate(15.000000, 30.000000)" fill="#FFFFFF">
            <path d="M42,12 L32.324,12 C32.246,11.996 32.104,11.944 32,11.89 L32,8 L27,8 L27,12 L17.324,12 C17.246,11.996 17.104,11.944 17,11.89 L17,8 L12,8 L12,11.89 C11.897,11.945 11.756,11.996 11.681,12 L2,12 L2,2 L11.818,2 C11.864,2.004 11.941,2.037 12,2.072 L12,6 L17,6 L17,2.072 C17.058,2.037 17.133,2.004 17.171,2 L27,2 L27,6 L32,6 L32,2.072 C32.058,2.037 32.133,2.004 32.171,2 L42,2 L42,12 Z M42.167,0 L32.171,0 C31.265,0 30,0.72 30,1.893 L30,4 L29,4 L29,1.893 C29,0.849 28.178,0 27.167,0 L17.171,0 C16.265,0 15,0.72 15,1.893 L15,4 L14,4 L14,1.893 C14,0.72 12.735,0 11.829,0 L1.833,0 C0.822,0 0,0.849 0,1.893 L0,12.143 C0,13.167 0.819,14 1.827,14 L11.681,14 C12.49,14 14,13.362 14,12.143 L14,10 L15,10 L15,12.143 C15,13.362 16.51,14 17.319,14 L27.173,14 C28.181,14 29,13.167 29,12.143 L29,10 L30,10 L30,12.143 C30,13.362 31.51,14 32.319,14 L42.173,14 C43.181,14 44,13.167 44,12.143 L44,1.893 C44,0.849 43.178,0 42.167,0 L42.167,0 Z M35,9 L39,9 L39,5 L35,5 L35,9 Z M34.774,11 L39.226,11 C40.204,11 41,10.204 41,9.226 L41,4.774 C41,3.796 40.204,3 39.226,3 L34.774,3 C33.796,3 33,3.796 33,4.774 L33,9.226 C33,10.204 33.796,11 34.774,11 L34.774,11 Z M20,9 L24,9 L24,5 L20,5 L20,9 Z M24.226,3 L19.774,3 C18.796,3 18,3.796 18,4.774 L18,9.226 C18,10.204 18.796,11 19.774,11 L24.226,11 C25.204,11 26,10.204 26,9.226 L26,4.774 C26,3.796 25.204,3 24.226,3 L24.226,3 Z M5,9 L9,9 L9,5 L5,5 L5,9 Z M9.226,3 L4.774,3 C3.796,3 3,3.796 3,4.774 L3,9.226 C3,10.204 3.796,11 4.774,11 L9.226,11 C10.204,11 11,10.204 11,9.226 L11,4.774 C11,3.796 10.204,3 9.226,3 L9.226,3 Z" id="Blockchain_Category-Icon_48_Squid--"></path>
        </g>
    </g>
</svg>