<?xml version="1.0" encoding="UTF-8"?>
<svg width="74px" height="74px" viewBox="0 0 74 74" version="1.1" xmlns="http://www.w3.org/2000/svg" xmlns:xlink="http://www.w3.org/1999/xlink">
    <title>Icon-Architecture-Category/48/Media-Services_48</title>
    <g id="Icon-Architecture-Category/48/Media-Services_48" stroke="none" stroke-width="1" fill="none" fill-rule="evenodd">
        <rect id="Rectangle" fill="#ED7100" x="5" y="5" width="64" height="64"></rect>
        <rect id="#879196-Border-Copy-16" stroke="#879196" stroke-width="2" x="1" y="1" width="72" height="72"></rect>
        <g id="Icon-Category/48/Media-Services_48" transform="translate(15.000000, 19.000000)" fill="#FFFFFF">
            <path d="M22.474,18.062 L11.165,24.864 C11.149,24.874 11.112,24.9 11.056,24.869 C11,24.839 11,24.797 11,24.776 L11,11.223 C11,11.202 11,11.16 11.056,11.13 C11.074,11.121 11.089,11.116 11.104,11.116 C11.137,11.116 11.166,11.136 11.203,11.16 L22.474,17.937 L22.99,17.08 L22.474,18.062 Z M23.505,16.223 L12.273,9.47 C11.626,9.039 10.796,8.999 10.112,9.367 C9.426,9.734 9,10.445 9,11.223 L9,24.776 C9,25.554 9.426,26.265 10.112,26.632 C10.428,26.802 10.775,26.885 11.117,26.885 C11.515,26.885 11.907,26.772 12.235,26.553 L23.544,19.751 C24.131,19.36 24.482,18.705 24.482,18 C24.482,17.294 24.131,16.639 23.505,16.223 L23.505,16.223 Z M42,26.894 C42,26.952 41.953,27 41.895,27 L38.974,27 L38.974,8.999 L41.895,8.999 C41.953,8.999 42,9.047 42,9.105 L42,26.894 Z M30,21 L30,32.789 C30,33.457 29.457,34 28.789,34 L3.211,34 C2.543,34 2,33.457 2,32.789 L2,3.21 C2,2.542 2.543,2 3.211,2 L28.789,2 C29.457,2 30,2.542 30,3.21 L30,14.999 L33.762,14.999 L37,10.552 L37,25.447 L33.762,21 L30,21 Z M41.895,6.999 L37.072,6.999 L32.739,13 L32,13 L32,3.21 C32,1.44 30.56,-3.55271368e-15 28.789,-3.55271368e-15 L3.211,-3.55271368e-15 C1.441,-3.55271368e-15 -3.55271368e-15,1.44 -3.55271368e-15,3.21 L-3.55271368e-15,32.789 C-3.55271368e-15,34.559 1.441,35.999 3.211,35.999 L28.789,35.999 C30.56,35.999 32,34.559 32,32.789 L32,22.999 L32.739,22.999 L37.072,29 L41.895,29 C43.056,29 44,28.055 44,26.894 L44,9.105 C44,7.944 43.056,6.999 41.895,6.999 L41.895,6.999 Z" id="Media-Services_Category-Icon_48_Squid"></path>
        </g>
    </g>
</svg>