<?xml version="1.0" encoding="UTF-8"?>
<svg width="74px" height="74px" viewBox="0 0 74 74" version="1.1" xmlns="http://www.w3.org/2000/svg" xmlns:xlink="http://www.w3.org/1999/xlink">
    <title>Icon-Architecture-Category/48/Application-Integration_48</title>
    <g id="Icon-Architecture-Category/48/Application-Integration_48" stroke="none" stroke-width="1" fill="none" fill-rule="evenodd">
        <rect id="Rectangle" fill="#E7157B" x="5" y="5" width="64" height="64"></rect>
        <rect id="#879196-Border-Copy" stroke="#879196" stroke-width="2" x="1" y="1" width="72" height="72"></rect>
        <g id="Icon-Category/48/Application-Integration_48" transform="translate(15.000000, 15.000000)" fill="#FFFFFF">
            <path d="M42,21 L35.866,21 C36.106,20.413 36.232,19.778 36.232,19.124 C36.232,17.596 35.546,16.174 34.349,15.222 C33.151,14.269 31.59,13.928 30.072,14.278 C28.311,14.686 26.882,16.081 26.433,17.833 C26.154,18.921 26.234,20.021 26.635,21 L22,21 L22,13.953 C22,13.544 21.751,13.177 21.372,13.025 C20.992,12.873 20.559,12.967 20.276,13.263 C19.517,14.059 18.417,14.37 17.329,14.09 C16.309,13.829 15.464,12.964 15.227,11.937 C15.01,11.001 15.209,10.085 15.787,9.357 C16.357,8.64 17.209,8.228 18.124,8.228 C18.94,8.228 19.704,8.558 20.276,9.158 C20.559,9.454 20.992,9.548 21.372,9.396 C21.751,9.244 22,8.876 22,8.468 L22,2 L41,2 C41.552,2 42,2.449 42,3 L42,21 Z M42,41 C42,41.551 41.552,42 41,42 L22,42 L22,36.325 C22.979,36.727 24.078,36.806 25.167,36.528 C26.919,36.079 28.314,34.65 28.723,32.888 C29.074,31.369 28.73,29.81 27.778,28.613 C26.827,27.415 25.404,26.728 23.876,26.728 C23.222,26.728 22.588,26.854 22,27.095 L22,23 L28.507,23 C28.916,23 29.283,22.751 29.436,22.372 C29.587,21.992 29.493,21.559 29.197,21.276 C28.401,20.518 28.092,19.415 28.37,18.329 C28.632,17.309 29.497,16.464 30.523,16.226 C31.464,16.009 32.376,16.209 33.104,16.788 C33.821,17.358 34.232,18.209 34.232,19.124 C34.232,19.94 33.902,20.705 33.303,21.276 C33.007,21.559 32.913,21.993 33.064,22.372 C33.217,22.751 33.584,23 33.993,23 L42,23 L42,41 Z M2,41 L2,23 L6.135,23 C5.734,23.979 5.654,25.079 5.933,26.168 C6.382,27.919 7.811,29.314 9.572,29.722 C9.963,29.813 10.355,29.857 10.745,29.857 C11.869,29.857 12.959,29.485 13.849,28.778 C15.046,27.826 15.732,26.404 15.732,24.876 C15.732,24.222 15.606,23.587 15.366,23 L20,23 L20,28.968 C20,29.376 20.249,29.744 20.628,29.896 C21.009,30.048 21.441,29.954 21.724,29.658 C22.296,29.058 23.06,28.728 23.876,28.728 C24.791,28.728 25.643,29.14 26.213,29.857 C26.791,30.585 26.99,31.501 26.773,32.437 C26.536,33.464 25.691,34.329 24.671,34.59 C23.582,34.869 22.483,34.559 21.724,33.763 C21.441,33.467 21.009,33.373 20.628,33.525 C20.249,33.677 20,34.044 20,34.453 L20,42 L3,42 C2.448,42 2,41.551 2,41 L2,41 Z M3,2 L20,2 L20,6.595 C19.412,6.354 18.778,6.228 18.124,6.228 C16.596,6.228 15.173,6.915 14.222,8.113 C13.27,9.31 12.926,10.869 13.277,12.387 C13.686,14.15 15.081,15.579 16.833,16.028 C17.922,16.307 19.021,16.227 20,15.825 L20,21 L13.493,21 C13.084,21 12.717,21.249 12.564,21.628 C12.413,22.007 12.507,22.441 12.803,22.724 C13.402,23.295 13.732,24.06 13.732,24.876 C13.732,25.791 13.321,26.642 12.604,27.212 C11.877,27.791 10.962,27.992 10.023,27.774 C8.997,27.536 8.132,26.691 7.87,25.672 C7.592,24.585 7.901,23.482 8.697,22.724 C8.993,22.441 9.087,22.008 8.936,21.628 C8.783,21.249 8.416,21 8.007,21 L2,21 L2,3 C2,2.449 2.448,2 3,2 L3,2 Z M41,0 L3,0 C1.346,0 0,1.346 0,3 L0,41 C0,42.654 1.346,44 3,44 L41,44 C42.654,44 44,42.654 44,41 L44,3 C44,1.346 42.654,0 41,0 L41,0 Z" id="Application-Integration_Category-Icon_48_Squid--"></path>
        </g>
    </g>
</svg>