<?xml version="1.0" encoding="UTF-8"?>
<svg width="74px" height="74px" viewBox="0 0 74 74" version="1.1" xmlns="http://www.w3.org/2000/svg" xmlns:xlink="http://www.w3.org/1999/xlink">
    <title>Icon-Architecture-Category/48/Front-End-Web-Mobile_48</title>
    <g id="Icon-Architecture-Category/48/Front-End-Web-Mobile_48" stroke="none" stroke-width="1" fill="none" fill-rule="evenodd">
        <rect id="Rectangle" fill="#DD344C" x="5" y="5" width="64" height="64"></rect>
        <rect id="#879196-Border-Copy-18" stroke="#879196" stroke-width="2" x="1" y="1" width="72" height="72"></rect>
        <g id="Icon-Category/48/Mobile_48" transform="translate(15.000000, 15.000000)" fill="#FFFFFF">
            <path d="M31,40 L37,40 L37,38 L31,38 L31,40 Z M26,42 L42.001,42 L42.001,36 L26,36 L26,42 Z M26,13 L26,34 L42.001,34 L42,13 L26,13 Z M44,13 L44,42 C44,43.103 43.103,44 42,44 L26,44 C24.897,44 24,43.103 24,42 L24,13 C24,11.897 24.897,11 26,11 L42,11 C43.103,11 44,11.897 44,13 L44,13 Z M7,7 L24,7 L24,9 L26,9 L26,6 C26,5.448 25.553,5 25,5 L6,5 C5.447,5 5,5.448 5,6 L5,35 C5,35.552 5.447,36 6,36 L22,36 L22,34 L7,34 L7,7 Z M3.148,39 L22,39 L22,41 L3.148,41 C1.412,41 0,39.557 0,37.782 L0,3.218 C0,1.443 1.412,0 3.148,0 L27.852,0 C29.588,0 31,1.443 31,3.218 L31,9 L29,9 L29,3.218 C29,2.546 28.484,2 27.852,2 L3.148,2 C2.516,2 2,2.546 2,3.218 L2,37.782 C2,38.454 2.516,39 3.148,39 L3.148,39 Z" id="Fill-1"></path>
        </g>
    </g>
</svg>