<?xml version="1.0" encoding="UTF-8"?>
<svg width="24px" height="24px" viewBox="0 0 24 24" version="1.1" xmlns="http://www.w3.org/2000/svg" xmlns:xlink="http://www.w3.org/1999/xlink">
    <title>Icon-Architecture/16/Arch_AWS-IoT-TwinMaker_16</title>
    <g id="Icon-Architecture/16/Arch_AWS-IoT-TwinMaker_16" stroke="none" stroke-width="1" fill="none" fill-rule="evenodd">
        <g id="Icon-Architecture-BG/16/Internet-of-Things" fill="#7AA116">
            <rect id="Rectangle" x="0" y="0" width="24" height="24"></rect>
        </g>
        <g id="Icon-Service/16/AWS-IoT-TwinMaker_16" transform="translate(4.000000, 4.000000)" fill="#FFFFFF">
            <path d="M2.991,14.975165 L8.991,14.975165 L8.991,8.97516501 L2.991,8.97516501 L2.991,14.975165 Z M15.98,7.26416501 C15.98,9.48416501 14.105,10.170165 13.53,10.327165 L12.991,10.455165 L12.991,10.975165 L11.991,10.975165 L11.991,8.97516501 L12.991,8.97516501 L12.991,9.42816501 L13.283,9.35816501 C13.906,9.18716501 14.98,8.68216501 14.98,7.26416501 C14.98,5.62816501 13.57,5.21616501 12.965,5.11516501 C12.692,5.06916501 12.509,4.81216501 12.554,4.54016501 C12.501,3.88516501 12.176,3.37116501 11.658,3.21616501 C11.237,3.09016501 10.782,3.24716501 10.503,3.61516501 C10.393,3.76016501 10.214,3.83316501 10.03,3.80616501 C9.85,3.77916501 9.698,3.65516501 9.636,3.48316501 C9.419,2.88916501 9.106,2.39016501 8.707,2.00116501 C8.217,1.52216501 6.866,0.500165012 4.971,1.27816501 C3.9,1.71816501 3.03,3.03316501 3.03,4.20916501 C3.03,4.34516501 3.039,4.47716501 3.055,4.60816501 C3.086,4.85916501 2.925,5.09416501 2.679,5.15416501 C2.052,5.30916501 1,5.78716501 1,7.24116501 C1,7.33416501 1.004,7.42316501 1.013,7.50916501 C1.07,8.10416501 1.446,8.64716501 1.991,8.99916501 L1.991,8.47516501 C1.991,8.19916501 2.215,7.97516501 2.491,7.97516501 L4.991,7.97516501 L4.991,6.47516501 C4.991,6.19916501 5.215,5.97516501 5.491,5.97516501 L6.991,5.97516501 L6.991,6.97516501 L5.991,6.97516501 L5.991,7.97516501 L9.491,7.97516501 C9.768,7.97516501 9.991,8.19916501 9.991,8.47516501 L9.991,15.475165 C9.991,15.751165 9.768,15.975165 9.491,15.975165 L2.491,15.975165 C2.215,15.975165 1.991,15.751165 1.991,15.475165 L1.991,10.130165 C0.895,9.67416501 0.125,8.71516501 0.017,7.60516501 C0.006,7.48816501 0,7.36716501 0,7.24116501 C0,5.84716501 0.751,4.77616501 2.031,4.30716501 C2.03,4.27516501 2.03,4.24216501 2.03,4.20916501 C2.03,2.61216501 3.131,0.954165012 4.59,0.353165012 C6.291,-0.343834988 8.09,0.00316501208 9.404,1.28516501 C9.753,1.62416501 10.049,2.02516501 10.286,2.48116501 C10.776,2.17616501 11.374,2.08816501 11.945,2.25816501 C12.774,2.50616501 13.344,3.22416501 13.51,4.21016501 C14.766,4.54016501 15.98,5.48316501 15.98,7.26416501 L15.98,7.26416501 Z M7.991,6.97516501 L9.991,6.97516501 L9.991,5.97516501 L7.991,5.97516501 L7.991,6.97516501 Z M12.991,7.97516501 L12.991,6.47516501 C12.991,6.19916501 12.768,5.97516501 12.491,5.97516501 L10.991,5.97516501 L10.991,6.97516501 L11.991,6.97516501 L11.991,7.97516501 L12.991,7.97516501 Z M11.991,11.975165 L12.991,11.975165 L12.991,13.475165 C12.991,13.751165 12.768,13.975165 12.491,13.975165 L10.991,13.975165 L10.991,12.975165 L11.991,12.975165 L11.991,11.975165 Z" id="Fill-1"></path>
        </g>
    </g>
</svg>