<?xml version="1.0" encoding="UTF-8"?>
<svg width="24px" height="24px" viewBox="0 0 24 24" version="1.1" xmlns="http://www.w3.org/2000/svg" xmlns:xlink="http://www.w3.org/1999/xlink">
    <title>Icon-Architecture/16/Arch_AWS-IoT-ExpressLink_16</title>
    <g id="Icon-Architecture/16/Arch_AWS-IoT-ExpressLink_16" stroke="none" stroke-width="1" fill="none" fill-rule="evenodd">
        <g id="Icon-Architecture-BG/16/Internet-of-Things" fill="#7AA116">
            <rect id="Rectangle" x="0" y="0" width="24" height="24"></rect>
        </g>
        <g id="Icon-Service/16/AWS-IoT-ExpressLink_16" transform="translate(4.000000, 4.050000)" fill="#FFFFFF">
            <path d="M11.055,6.4294173 C11.055,6.1534173 10.831,5.9294173 10.555,5.9294173 L10.055,5.9294173 L10.055,4.9294173 L9.055,4.9294173 L9.055,5.9294173 L8.055,5.9294173 L8.055,4.9294173 L7.055,4.9294173 L7.055,5.9294173 L6.055,5.9294173 L6.055,4.9294173 L5.055,4.9294173 L5.055,5.9294173 L4.555,5.9294173 C4.279,5.9294173 4.055,6.1534173 4.055,6.4294173 L4.055,6.9294173 L3.055,6.9294173 L3.055,7.9294173 L4.055,7.9294173 L4.055,8.9294173 L3.055,8.9294173 L3.055,9.9294173 L4.055,9.9294173 L4.055,10.9294173 L3.055,10.9294173 L3.055,11.9294173 L4.055,11.9294173 L4.055,12.4294173 C4.055,12.7054173 4.279,12.9294173 4.555,12.9294173 L5.994,12.9294173 L5.994,11.9294173 L5.055,11.9294173 L5.055,6.9294173 L10.055,6.9294173 L10.055,11.9294173 L9.019,11.9294173 L9.019,12.9294173 L10.555,12.9294173 C10.831,12.9294173 11.055,12.7054173 11.055,12.4294173 L11.055,11.9294173 L12.055,11.9294173 L12.055,10.9294173 L11.055,10.9294173 L11.055,9.9294173 L12.055,9.9294173 L12.055,8.9294173 L11.055,8.9294173 L11.055,7.9294173 L12.055,7.9294173 L12.055,6.9294173 L11.055,6.9294173 L11.055,6.4294173 Z M9.055,15.9294173 L10.055,15.9294173 L10.055,13.9294173 L9.055,13.9294173 L9.055,15.9294173 Z M7.055,14.9294173 L8.055,14.9294173 L8.055,10.9294173 L7.055,10.9294173 L7.055,14.9294173 Z M5.055,15.9294173 L6.055,15.9294173 L6.055,13.9294173 L5.055,13.9294173 L5.055,15.9294173 Z M16.014,6.9774173 C16.014,9.2954173 14.29,9.7844173 13.763,9.8804173 L13.585,8.8954173 C14.119,8.8004173 15.014,8.4234173 15.014,6.9774173 C15.014,6.5564173 14.895,6.0014173 13.964,5.4304173 C13.461,5.1214173 12.988,5.0194173 12.808,4.9904173 C12.676,4.9684173 12.559,4.8954173 12.482,4.7864173 C12.405,4.6784173 12.373,4.5434173 12.396,4.4114173 C12.345,3.7964173 12.029,3.3044173 11.527,3.1524173 C11.112,3.0264173 10.659,3.1744173 10.38,3.5334173 C10.269,3.6774173 10.081,3.7484173 9.909,3.7214173 C9.73,3.6944173 9.579,3.5714173 9.516,3.4014173 C9.303,2.8274173 8.995,2.3454173 8.603,1.9694173 C8.119,1.5074173 6.789,0.512417298 4.914,1.2704173 C3.844,1.7014173 3.005,2.9444173 3.005,4.0974173 C3.005,4.2264173 3.013,4.3544173 3.029,4.4804173 C3.061,4.7324173 2.898,4.9694173 2.651,5.0294173 C2.034,5.1794173 1,5.6384173 1,7.0374173 C1,8.0264173 1.478,8.4274173 1.838,8.6434173 L1.323,9.5004173 C0.446,8.9734173 0,8.1444173 0,7.0374173 C0,5.6794173 0.742,4.6374173 2.006,4.1794173 C2.005,4.1524173 2.005,4.1244173 2.005,4.0974173 C2.005,2.5404173 3.095,0.926417298 4.539,0.342417298 C6.217,-0.333582702 7.994,0.00341729822 9.294,1.2464173 C9.638,1.5754173 9.929,1.9644173 10.163,2.4054173 C10.652,2.1064173 11.247,2.0214173 11.817,2.1954173 C12.628,2.4404173 13.185,3.1364173 13.351,4.0874173 C13.742,4.1944173 14.141,4.3664173 14.488,4.5784173 C15.515,5.2084173 16.014,5.9924173 16.014,6.9774173 L16.014,6.9774173 Z" id="Fill-1"></path>
        </g>
    </g>
</svg>