<?xml version="1.0" encoding="UTF-8"?>
<svg width="24px" height="24px" viewBox="0 0 24 24" version="1.1" xmlns="http://www.w3.org/2000/svg" xmlns:xlink="http://www.w3.org/1999/xlink">
    <title>Icon-Architecture/16/Arch_AWS-IoT-FleetWise_16</title>
    <g id="Icon-Architecture/16/Arch_AWS-IoT-FleetWise_16" stroke="none" stroke-width="1" fill="none" fill-rule="evenodd">
        <g id="Icon-Architecture-BG/16/Internet-of-Things" fill="#7AA116">
            <rect id="Rectangle" x="0" y="0" width="24" height="24"></rect>
        </g>
        <g id="Icon-Service/16/AWS-IoT-FleetWise_16" transform="translate(4.400000, 4.500000)" fill="#FFFFFF">
            <path d="M12.659,9.48803276 C12.401,6.69403276 10.045,4.49803276 7.185,4.49803276 C4.509,4.49803276 2.276,6.42003276 1.787,8.95503276 C1.361,8.55803276 1.07,7.98003276 1.013,7.36603276 C1.004,7.28003276 1,7.18903276 1,7.09603276 C1,6.44003276 1.473,5.51903276 2.361,5.49503276 C2.613,5.48803276 2.821,5.29403276 2.845,5.04303276 L2.872,4.75803276 C2.875,4.72203276 2.875,4.68503276 2.87,4.64903276 C2.855,4.51703276 2.847,4.38203276 2.847,4.24603276 C2.847,3.05403276 3.7,1.72303276 4.747,1.28003276 C6.599,0.496032761 7.91,1.52703276 8.388,2.00703276 C8.781,2.40003276 9.087,2.90503276 9.299,3.50603276 C9.361,3.68103276 9.514,3.80703276 9.697,3.83403276 C9.883,3.85903276 10.064,3.78503276 10.173,3.63703276 C10.442,3.27403276 10.874,3.11903276 11.273,3.23303276 C11.778,3.38003276 12.109,3.91603276 12.159,4.59703276 C12.124,4.86303276 12.305,5.10903276 12.57,5.15403276 C13.162,5.25603276 14.539,5.67203276 14.539,7.33003276 C14.539,9.13403276 12.999,9.44103276 12.659,9.48803276 L12.659,9.48803276 Z M8.685,14.2220328 L8.685,11.2160328 C8.685,10.8270328 8.942,10.4980328 9.246,10.4980328 L11.634,10.4980328 C11.44,12.2290328 10.274,13.6550328 8.685,14.2220328 L8.685,14.2220328 Z M3.447,7.49803276 C4.255,6.29303276 5.628,5.49803276 7.185,5.49803276 C8.742,5.49803276 10.115,6.29303276 10.923,7.49803276 L3.447,7.49803276 Z M6.685,14.4470328 L6.685,11.2160328 C6.685,10.2690328 5.845,9.49803276 4.814,9.49803276 L2.735,9.49803276 C2.774,9.15103276 2.848,8.81703276 2.961,8.49803276 L11.409,8.49803276 C11.522,8.81703276 11.595,9.15103276 11.634,9.49803276 L9.246,9.49803276 C8.385,9.49803276 7.685,10.2690328 7.685,11.2160328 L7.685,14.4470328 C7.519,14.4660328 7.356,14.4980328 7.185,14.4980328 C7.014,14.4980328 6.851,14.4660328 6.685,14.4470328 L6.685,14.4470328 Z M2.735,10.4980328 L4.814,10.4980328 C5.294,10.4980328 5.685,10.8200328 5.685,11.2160328 L5.685,14.2220328 C4.095,13.6550328 2.93,12.2290328 2.735,10.4980328 L2.735,10.4980328 Z M15.539,7.33003276 C15.539,5.53803276 14.349,4.58703276 13.118,4.25203276 C12.954,3.24503276 12.385,2.51603276 11.553,2.27303276 C10.999,2.11103276 10.428,2.20203276 9.954,2.49803276 C9.723,2.04203276 9.436,1.64103276 9.097,1.30103276 C7.803,0.00303276116 6.032,-0.348967239 4.357,0.359032761 C2.926,0.964032761 1.847,2.63603276 1.847,4.24603276 C1.847,4.35103276 1.851,4.45503276 1.858,4.55903276 C0.699,4.84103276 0,6.01603276 0,7.09603276 C0,7.22303276 0.006,7.34403276 0.017,7.46003276 C0.122,8.58303276 0.764,9.58603276 1.691,10.1110328 C1.752,13.0910328 4.191,15.4980328 7.185,15.4980328 C10.048,15.4980328 12.406,13.2970328 12.659,10.4980328 L12.685,10.4980328 L12.685,10.4880328 C13.704,10.3840328 15.539,9.60803276 15.539,7.33003276 L15.539,7.33003276 Z" id="Fill-7"></path>
        </g>
    </g>
</svg>