<?xml version="1.0" encoding="UTF-8"?>
<svg width="80px" height="80px" viewBox="0 0 80 80" version="1.1" xmlns="http://www.w3.org/2000/svg" xmlns:xlink="http://www.w3.org/1999/xlink">
    <title>Icon-Architecture/64/Arch_Amazon-Simple-Storage-Service-Glacier_64</title>
    <g id="Icon-Architecture/64/Arch_Amazon-Simple-Storage-Service-Glacier_64" stroke="none" stroke-width="1" fill="none" fill-rule="evenodd">
        <g id="Icon-Architecture-BG/64/Storage" fill="#7AA116">
            <rect id="Rectangle" x="0" y="0" width="80" height="80"></rect>
        </g>
        <g id="Icon-Service/64/Amazon-Simple-Storage-Service-Glacier_64" transform="translate(13.000000, 12.000000)" fill="#FFFFFF">
            <path d="M2.066,8.912 C2.909,11.867 12.648,15 25.5,15 C38.33,15 48.058,11.878 48.929,8.927 L48.993,8.477 C48.92,7.16 41.364,2 25.5,2 C9.633,2 2.079,7.161 2.006,8.478 L2.066,8.912 Z M48.219,28.189 L47.836,30.892 C51.196,31.719 51.799,31.214 51.8050132,31.209 C51.806,31.185 51.76,30.308 48.219,28.189 L48.219,28.189 Z M32.678,53.558 L32.93,55.542 C30.533,55.846 28.031,56 25.494,56 C17.861,56 5.775,54.309 5.641,49.777 L0.093,9.253 C0.048,9.058 0.021,8.859 0.011,8.657 L0.008,8.636 L0.009,8.636 C0.007,8.59 0,8.546 0,8.5 C0,5.034 9.933,0 25.5,0 C41.066,0 51,5.034 51,8.5 C51,8.547 50.991,8.593 50.989,8.64 L50.99,8.64 L50.988,8.65 C50.979,8.869 50.947,9.082 50.897,9.292 L48.521,26.054 C51.868,27.964 53.51,29.456 53.769,30.84 C53.883,31.451 53.732,32.024 53.334,32.499 C52.848,33.077 52.048,33.365 50.866,33.365 C49.985,33.365 48.887,33.202 47.553,32.883 L47.425,33.787 L45.445,33.507 L45.608,32.355 C39.443,30.534 30.986,26.681 26.927,24.76 C26.51,25.106 25.983,25.322 25.401,25.322 C24.077,25.322 22.999,24.244 22.999,22.919 C22.999,21.594 24.077,20.516 25.401,20.516 C26.726,20.516 27.804,21.594 27.804,22.919 C27.804,22.933 27.8,22.947 27.8,22.961 C31.25,24.59 39.773,28.501 45.892,30.352 L48.441,12.373 C44.022,15.399 34.555,17 25.5,17 C16.429,17 6.947,15.394 2.538,12.359 L7.631,49.565 C7.637,49.61 7.64,49.656 7.64,49.701 C7.64,51.217 14.419,54 25.494,54 C27.947,54 30.365,53.851 32.678,53.558 L32.678,53.558 Z M50.966,45.869 L53.337,48.239 L51.922,49.653 L49.269,47 L44.516,47 L46.775,50.917 L50.587,51.99 L50.045,53.914 L46.871,53.021 L46.004,56.259 L44.072,55.741 L45.079,51.98 L42.725,47.897 L40.402,51.914 L41.379,55.753 L39.442,56.246 L38.628,53.051 L35.391,53.918 L34.874,51.986 L38.633,50.979 L40.935,47 L36.246,47 L33.517,49.662 L32.121,48.23 L34.482,45.927 L32.112,43.557 L33.526,42.143 L36.382,45 L41.053,45 L38.669,40.877 L34.862,39.806 L35.403,37.881 L38.578,38.774 L39.445,35.537 L41.377,36.055 L40.368,39.822 L42.725,43.898 L45.045,39.875 L44.069,36.042 L46.006,35.549 L46.821,38.745 L50.057,37.878 L50.575,39.809 L46.809,40.818 L44.399,45 L48.993,45 L51.931,42.134 L53.328,43.566 L50.966,45.869 Z" id="Amazon-Simple-Storage-Service-Glacier_64_Squid"></path>
        </g>
    </g>
</svg>