<?xml version="1.0" encoding="UTF-8"?>
<svg width="80px" height="80px" viewBox="0 0 80 80" version="1.1" xmlns="http://www.w3.org/2000/svg" xmlns:xlink="http://www.w3.org/1999/xlink">
    <title>Icon-Architecture/64/Arch_Amazon-FSx-for-OpenZFS_64</title>
    <g id="Icon-Architecture/64/Arch_Amazon-FSx-for-OpenZFS_64" stroke="none" stroke-width="1" fill="none" fill-rule="evenodd">
        <g id="Icon-Architecture-BG/64/Storage" fill="#7AA116">
            <rect id="Rectangle" x="0" y="0" width="80" height="80"></rect>
        </g>
        <path d="M55,45.006 L55,43.006 L45,43.006 L45,45.006 L52.287,45.006 L45.016,53.006 L45,53.006 L45,55.006 L55,55.006 L55,53.006 L47.707,53.006 L55,45.006 Z M12,44.278 L13.953,44.278 L13.953,35.678 L21.403,35.678 L21.403,33.886 L13.953,33.886 L13.953,27.186 L22.766,27.186 L22.766,25.393 L12,25.393 L12,44.278 Z M35.998,44.377 L38.614,44.377 L42.257,39.056 L42.333,38.949 L41.136,37.259 L35.998,44.377 Z M31.858,34.514 L29,33.418 C28.075,33.069 27.354,32.737 26.854,32.432 C26.377,32.139 26.032,31.811 25.824,31.457 C25.619,31.103 25.516,30.627 25.516,30.042 C25.516,28.988 25.851,28.201 26.544,27.637 C27.234,27.072 28.254,26.786 29.575,26.786 C30.953,26.786 32.558,27.105 34.344,27.736 L34.596,27.824 L34.596,26.074 L34.483,26.024 C33.708,25.682 32.876,25.413 32.005,25.225 C31.134,25.036 30.29,24.94 29.494,24.94 C27.73,24.94 26.282,25.418 25.193,26.361 C24.094,27.312 23.536,28.568 23.536,30.095 C23.536,31.223 23.877,32.186 24.545,32.956 C25.203,33.715 26.243,34.374 27.637,34.917 L30.735,36.119 C31.775,36.518 32.531,36.969 32.988,37.461 C33.434,37.938 33.659,38.524 33.659,39.202 C33.659,40.344 33.25,41.222 32.408,41.885 C31.567,42.549 30.417,42.885 28.988,42.885 C27.449,42.885 25.736,42.549 23.896,41.883 L23.644,41.792 L23.644,43.539 L23.752,43.59 C25.32,44.347 27.126,44.731 29.12,44.731 C31.06,44.731 32.653,44.221 33.847,43.218 C35.053,42.205 35.665,40.863 35.665,39.229 C35.665,38.104 35.354,37.151 34.743,36.399 C34.136,35.656 33.167,35.023 31.858,34.514 L31.858,34.514 Z M42.47,33.524 L39.179,28.825 L36.478,28.825 L41.102,35.343 L42.47,33.524 Z M45.102,41.006 L47.812,41.006 L44.412,36.171 L49.683,28.825 L47.096,28.825 L42.986,34.695 L41.824,36.307 L45.102,41.006 Z M58,45.006 L64,45.006 L64,43.006 L58,43.006 L58,45.006 Z M58,55.006 L64,55.006 L64,53.006 L58,53.006 L58,55.006 Z M58,50.006 L68,50.006 L68,48.006 L58,48.006 L58,50.006 Z" id="Fill-1" fill="#FFFFFF"></path>
    </g>
</svg>