<?xml version="1.0" encoding="UTF-8"?>
<svg width="80px" height="80px" viewBox="0 0 80 80" version="1.1" xmlns="http://www.w3.org/2000/svg" xmlns:xlink="http://www.w3.org/1999/xlink">
    <title>Icon-Architecture/64/Arch_Amazon-File-Cache_64</title>
    <g id="Icon-Architecture/64/Arch_Amazon-File-Cache_64" stroke="none" stroke-width="1" fill="none" fill-rule="evenodd">
        <g id="Icon-Architecture-BG/64/Storage" fill="#7AA116">
            <rect id="Rectangle" x="0" y="0" width="80" height="80"></rect>
        </g>
        <path d="M43,43.4 C42.448,43.4 42,42.951 42,42.4 C42,41.849 42.448,41.4 43,41.4 C43.552,41.4 44,41.849 44,42.4 C44,42.951 43.552,43.4 43,43.4 L43,43.4 Z M43,39.4 C41.346,39.4 40,40.746 40,42.4 C40,44.054 41.346,45.4 43,45.4 C44.654,45.4 46,44.054 46,42.4 C46,40.746 44.654,39.4 43,39.4 L43,39.4 Z M52.293,52.879 L49.707,50.293 C49.451,50.038 49.078,49.939 48.733,50.036 C48.386,50.132 48.117,50.408 48.03,50.757 L47.219,54 L38.781,54 L37.97,50.757 C37.883,50.408 37.614,50.132 37.267,50.036 C36.92,49.939 36.548,50.038 36.293,50.293 L33.707,52.879 L33.061,48.354 L36.707,44.707 C36.895,44.52 37,44.265 37,44 C37,36.247 41.287,30.477 43.001,28.479 C44.717,30.471 49,36.225 49,44 C49,44.265 49.105,44.52 49.293,44.707 L52.939,48.354 L52.293,52.879 Z M50.996,43.582 C50.814,33.306 43.99,26.568 43.696,26.282 C43.308,25.906 42.692,25.906 42.304,26.282 C42.01,26.568 35.186,33.306 35.004,43.582 L31.293,47.293 C31.07,47.516 30.966,47.83 31.01,48.142 L32.01,55.142 C32.063,55.517 32.324,55.829 32.684,55.949 C33.042,56.07 33.439,55.975 33.707,55.707 L36.458,52.956 L37.03,55.243 C37.142,55.688 37.541,56 38,56 L48,56 C48.459,56 48.858,55.688 48.97,55.243 L49.542,52.956 L52.293,55.707 C52.483,55.898 52.739,56 53,56 C53.105,56 53.213,55.983 53.316,55.949 C53.676,55.829 53.937,55.517 53.99,55.142 L54.99,48.142 C55.034,47.83 54.93,47.516 54.707,47.293 L50.996,43.582 Z M47,66 L49,66 L49,60 L47,60 L47,66 Z M37,66 L39,66 L39,60 L37,60 L37,66 Z M42,68 L44,68 L44,58 L42,58 L42,68 Z M61,21 L18,21 C17.447,21 17,21.448 17,22 L17,54.5 C17,55.327 16.327,56 15.5,56 C14.673,56 14,55.327 14,54.5 L14,14 L26.586,14 L30.293,17.707 C30.48,17.895 30.734,18 31,18 L61,18 L61,21 Z M67,21 L63,21 L63,17 C63,16.448 62.553,16 62,16 L31.414,16 L27.707,12.293 C27.52,12.106 27.266,12 27,12 L13,12 C12.447,12 12,12.448 12,13 L12,54.5 C12,56.43 13.57,58 15.5,58 L29,58 L29,56 L18.649,56 C18.867,55.544 19,55.039 19,54.5 L19,23 L66,23 L66,56 L57,56 L57,58 L67,58 C67.553,58 68,57.552 68,57 L68,22 C68,21.448 67.553,21 67,21 L67,21 Z" id="Fill-1" fill="#FFFFFF"></path>
    </g>
</svg>