<?xml version="1.0" encoding="UTF-8"?>
<svg width="80px" height="80px" viewBox="0 0 80 80" version="1.1" xmlns="http://www.w3.org/2000/svg" xmlns:xlink="http://www.w3.org/1999/xlink">
    <title>Icon-Architecture/64/Arch_Amazon-EFS_64</title>
    <g id="Icon-Architecture/64/Arch_Amazon-EFS_64" stroke="none" stroke-width="1" fill="none" fill-rule="evenodd">
        <g id="Icon-Architecture-BG/64/Storage" fill="#7AA116">
            <rect id="Rectangle" x="0" y="0" width="80" height="80"></rect>
        </g>
        <g id="Icon-Service/64/Amazon-EFS_64" transform="translate(11.982214, 12.000000)" fill="#FFFFFF">
            <path d="M19.3953463,12.0244294 C25.6594582,9.40433587 30.0955374,12.8504589 31.7115663,14.4525162 C33.0295898,15.7615629 34.0576082,17.4336226 34.7676209,19.4196936 C34.890623,19.7657059 35.1956285,20.0167149 35.558635,20.0717168 C35.9266415,20.1227187 36.287648,19.9787135 36.5076519,19.684703 C37.295666,18.6366656 38.4496866,18.0356441 39.6707084,18.0356441 C41.495741,18.0356441 43.7077805,19.4206936 43.9367846,23.323833 C43.962785,23.7748491 44.2877909,24.1508625 44.7297987,24.2438659 C49.2628797,25.1958999 51.5619207,27.7109897 51.5619207,31.7161327 C51.5619207,35.4382657 49.8578903,37.7383478 46.4988303,38.5533769 L46.9688387,40.4964463 C51.2209147,39.4664095 53.5619565,36.3482982 53.5619565,31.7161327 C53.5619565,27.0009643 50.8359078,23.7348477 45.865819,22.455802 C45.3238094,18.0276438 42.4267576,16.0355727 39.6707084,16.0355727 C38.3536849,16.0355727 37.0976625,16.4835887 36.061644,17.3006179 C35.3006304,15.6505589 34.3156128,14.2205079 33.1215915,13.0324654 C29.1575207,9.10732526 23.7404239,8.04028715 18.6233326,10.1793635 C14.2472544,12.0154291 10.9471955,17.0766099 10.9471955,21.9547841 C10.9471955,22.1947927 10.9551956,22.4418015 10.9701959,22.6968106 C6.95312416,24.0188578 4.58208182,27.3119754 4.58208182,31.6581306 C4.58208182,31.8771385 4.592082,32.0951463 4.60408222,32.3071538 C4.81108591,36.065288 7.32113073,39.3154041 10.9991964,40.5854495 L11.6512081,38.6943819 C8.74615618,37.6913461 6.76312077,35.140255 6.60111788,32.20115 C6.59211772,32.0251438 6.58211754,31.8421372 6.58211754,31.6581306 C6.58211754,26.5749491 10.1551813,24.9278903 12.2842194,24.3988714 C12.7732281,24.276867 13.0952338,23.8098504 13.0362328,23.3088325 C12.9762317,22.8138148 12.9472312,22.370799 12.9472312,21.9547841 C12.9472312,17.9026394 15.7802818,13.5414836 19.3953463,12.0244294 L19.3953463,12.0244294 Z M39.9997143,33.0011786 C39.9997143,32.6041644 39.9147128,32.3051538 39.75871,32.1591485 C39.5877069,32.0001429 39.2897016,31.9851423 39.0666976,31.9991428 L25.9994643,32.0011429 C25.4474544,32.0011429 24.9994464,31.5531269 24.9994464,31.0011072 C24.9994464,30.7300975 24.8984446,29.9710704 24.7824425,29.5000536 L21.3233808,29.5000536 C21.170378,29.96007 21.0063751,30.7410979 20.999375,31.0051073 C20.9853747,31.5471267 20.5413668,32.0011429 19.9993571,32.0011429 L16.9993036,32.0011429 C16.7062983,31.9821422 16.4112931,32.0001429 16.24129,32.1591485 C16.0852872,32.3051538 15.9992857,32.6041644 15.9992857,33.0011786 L15.9992857,47.0016786 L39.9997143,47.0016786 L39.9997143,33.0011786 Z M41.99975,35.00125 L41.99975,42.2295082 L44.5817961,35.00125 L41.99975,35.00125 Z M41.941749,48.3387264 L41.9327488,48.3357263 C41.7947463,48.7217401 41.4347399,49.0017501 40.9997321,49.0017501 L14.9992678,49.0017501 C14.447258,49.0017501 13.99925,48.5537341 13.99925,48.0017143 L13.99925,33.0011786 C13.99925,31.7751348 14.4752585,31.0721097 14.8742656,30.6980964 C15.2572725,30.3400836 15.9372846,29.9210686 17.0663048,30.0040716 L19.1163414,30.0020715 C19.2943445,28.9670345 19.7383525,27.4999821 20.8073716,27.4999821 L25.3594528,27.4999821 C25.4204539,27.4999821 25.482455,27.5059824 25.5434561,27.5169827 C26.4844729,27.692989 26.8174789,29.0280367 26.935481,30.0010715 L38.9996964,30.0010715 C40.0567153,29.9280689 40.7417275,30.3400836 41.1247344,30.6980964 C41.5247415,31.0721097 41.99975,31.7751348 41.99975,33.0011786 L45.9998214,33.0011786 C46.3258272,33.0011786 46.6298327,33.1591843 46.817836,33.4251938 C47.0048394,33.6912033 47.0508402,34.0312154 46.9418382,34.3372263 L41.941749,48.3387264 Z M53.9999643,52.5868781 L46.3938285,44.9806065 L44.9798032,46.394657 L52.584939,53.9999286 L47.0818407,53.9999286 L47.0818407,56 L54.9999821,56 C55.552992,56 56,55.551984 56,54.9999643 L56,47.0816815 L53.9999643,47.0816815 L53.9999643,52.5868781 Z M10.64219,44.9456052 L2.00003571,52.7488839 L2.00003571,47.0816815 L0,47.0816815 L0,54.9999643 C0,55.551984 0.448008,56 1.00001786,56 L9.91917713,56 L9.91917713,53.9999286 L3.59906427,53.9999286 L11.982214,46.4296582 L10.64219,44.9456052 Z M54.9999821,0 L46.0818229,0 L46.0818229,2.00007143 L52.7489419,2.00007143 L44.9448026,10.6423801 L46.4288291,11.9824279 L53.9999643,3.59912854 L53.9999643,9.91935426 L56,9.91935426 L56,1.00003572 C56,0.448016001 55.552992,0 54.9999821,0 L54.9999821,0 Z M2.00003571,9.91935426 L0,9.91935426 L0,1.00003572 C0,0.448016001 0.448008,0 1.00001786,0 L9.91917713,0 L9.91917713,2.00007143 L3.41406097,2.00007143 L12.0192146,10.6053788 L10.6051894,12.0194293 L2.00003571,3.41512197 L2.00003571,9.91935426 Z" id="Amazon-EFS_Icon_64_Squid"></path>
        </g>
    </g>
</svg>