<?xml version="1.0" encoding="UTF-8"?>
<svg width="80px" height="80px" viewBox="0 0 80 80" version="1.1" xmlns="http://www.w3.org/2000/svg" xmlns:xlink="http://www.w3.org/1999/xlink">
    <title>Icon-Architecture/64/Arch_Amazon-FSx-for-WFS_64</title>
    <g id="Icon-Architecture/64/Arch_Amazon-FSx-for-WFS_64" stroke="none" stroke-width="1" fill="none" fill-rule="evenodd">
        <g id="Icon-Architecture-BG/64/Storage" fill="#7AA116">
            <rect id="Rectangle" x="0" y="0" width="80" height="80"></rect>
        </g>
        <g id="Icon-Service/64/Amazon-FSx-for-WFS_64" transform="translate(12.000000, 26.000000)" fill="#FFFFFF">
            <path d="M41,26 L54.001,26 L54.001,25 L41,25 L41,26 Z M42,23 L53,23 L53,16 L42,16 L42,23 Z M56,24 L56,26 C56,27.103 55.103,28 54,28 L41,28 C39.897,28 39,27.103 39,26 L39,24 C39,23.448 39.447,23 40,23 L40,15 C40,14.448 40.447,14 41,14 L54,14 C54.553,14 55,14.448 55,15 L55,23 C55.553,23 56,23.448 56,24 L56,24 Z M42.413,4.675 L39.944,4.675 L35.22,11.669 L33.955,13.485 L38,19.494 L38,15.625 L36.436,13.316 L42.413,4.675 Z M27.333,23 L29.837,23 L34.014,16.674 L32.885,15.022 L27.333,23 Z M34.171,10.117 L30.494,4.675 L27.889,4.675 L32.855,11.935 L34.171,10.117 Z M22.827,11.546 L19.5,10.224 C18.4,9.793 17.556,9.391 16.965,9.014 C16.374,8.638 15.949,8.219 15.689,7.756 C15.431,7.294 15.301,6.687 15.301,5.934 C15.301,4.601 15.726,3.575 16.576,2.854 C17.426,2.134 18.649,1.774 20.246,1.774 C21.884,1.774 23.76,2.161 25.875,2.935 L25.875,1.29 C24.983,0.882 24.035,0.564 23.029,0.339 C22.023,0.113 21.064,0 20.152,0 C18.142,0 16.519,0.554 15.285,1.661 C14.052,2.769 13.436,4.214 13.436,5.999 C13.436,7.311 13.809,8.412 14.555,9.304 C15.301,10.197 16.473,10.965 18.069,11.61 L21.677,13.062 C22.92,13.556 23.822,14.115 24.382,14.738 C24.941,15.362 25.222,16.115 25.222,16.996 C25.222,18.437 24.709,19.576 23.683,20.415 C22.656,21.253 21.282,21.672 19.562,21.672 C17.737,21.672 15.736,21.264 13.56,20.447 L13.56,22.092 C15.363,22.995 17.416,23.446 19.717,23.446 C21.936,23.446 23.724,22.855 25.082,21.672 C26.439,20.49 27.119,18.942 27.119,17.028 C27.119,15.717 26.776,14.625 26.093,13.755 C25.408,12.884 24.32,12.148 22.827,11.546 L22.827,11.546 Z M0,0.548 L12.098,0.548 L12.098,2.257 L1.835,2.257 L1.835,10.804 L10.512,10.804 L10.512,12.513 L1.835,12.513 L1.835,22.898 L0,22.898 L0,0.548 Z" id="Amazon-FSx-for-WFS_Icon_64_Squid"></path>
        </g>
    </g>
</svg>