<?xml version="1.0" encoding="UTF-8"?>
<svg width="80px" height="80px" viewBox="0 0 80 80" version="1.1" xmlns="http://www.w3.org/2000/svg" xmlns:xlink="http://www.w3.org/1999/xlink">
    <title>Icon-Architecture/64/Arch_Amazon-S3-on-Outposts_64</title>
    <g id="Icon-Architecture/64/Arch_Amazon-S3-on-Outposts_64" stroke="none" stroke-width="1" fill="none" fill-rule="evenodd">
        <g id="Icon-Architecture-BG/64/Storage" fill="#7AA116">
            <rect id="Rectangle" x="0" y="0" width="80" height="80"></rect>
        </g>
        <g id="Icon-Service/64/Amazon-S3-On-Outposts_64" transform="translate(12.000000, 12.000000)" fill="#FFFFFF">
            <path d="M53.682,39.59 C53.452,39.353 53.013,38.988 52.208,38.482 L52.091,39.352 C52.879,39.535 53.379,39.587 53.682,39.59 L53.682,39.59 Z M51.905,25.597 C51.768,24.407 46.233,21.714 37.569,21.714 C28.906,21.714 23.371,24.407 23.235,25.597 L23.254,25.75 C23.726,27.106 29.447,29.034 37.569,29.034 C45.693,29.034 51.413,27.106 51.885,25.75 L51.905,25.597 Z M51.528,28.552 C48.462,30.186 42.889,31.034 37.569,31.034 C32.249,31.034 26.676,30.186 23.612,28.552 L25.071,39.388 C26.074,39.732 27.016,40.31 27.84,41.123 C28.352,41.628 28.791,42.216 29.155,42.879 C29.929,42.463 30.84,42.355 31.713,42.613 C33.075,43.016 34.016,44.172 34.317,45.767 C34.917,45.949 35.524,46.225 36.057,46.562 C37.725,47.617 38.57,48.99 38.57,50.644 C38.57,51.992 38.203,53.109 37.519,54 L37.569,54 C40.125,54 42.678,53.735 44.756,53.254 C45.561,53.069 46.272,52.855 46.87,52.619 C48.044,52.154 48.397,51.74 48.428,51.632 C48.428,51.588 48.429,51.561 48.435,51.517 L49.876,40.816 C45.773,39.546 40.298,37.015 37.985,35.912 C37.832,35.965 37.671,36 37.5,36 C36.673,36 36,35.327 36,34.5 C36,33.673 36.673,33 37.5,33 C38.21,33 38.804,33.497 38.958,34.161 C40.822,35.047 46.153,37.521 50.148,38.801 L51.528,28.552 Z M36.57,50.644 C36.57,49.996 36.39,49.139 34.988,48.252 C34.454,47.915 33.797,47.656 33.232,47.56 C32.719,47.474 32.364,47.01 32.402,46.502 C32.307,45.47 31.841,44.736 31.146,44.531 C30.579,44.365 29.965,44.584 29.584,45.091 C29.365,45.385 29.004,45.539 28.636,45.48 C28.272,45.425 27.968,45.175 27.843,44.829 C27.513,43.911 27.039,43.143 26.435,42.546 C25.889,42.007 24.639,41.01 22.869,41.01 C22.245,41.01 21.559,41.133 20.816,41.443 C19.209,42.112 17.902,44.121 17.902,45.919 C17.902,46.125 17.913,46.329 17.938,46.528 C17.999,47.029 17.678,47.497 17.189,47.62 C16.061,47.903 14.716,48.675 14.716,50.742 C14.716,52.436 15.663,53.354 16.458,53.826 C16.649,53.94 16.884,53.999 17.139,54 L33.048,54.016 C33.107,54.016 33.215,54.015 33.362,54.014 C34.028,53.998 36.57,53.733 36.57,50.644 L36.57,50.644 Z M15.902,45.937 L15.902,45.919 C15.902,43.3 17.683,40.582 20.046,39.597 C21.026,39.188 22.026,39.007 23.003,39.026 L21.282,26.239 L21.315,26.235 C21.313,26.226 21.307,26.218 21.305,26.21 C21.294,26.17 21.286,26.128 21.282,26.086 L21.241,25.771 C21.235,25.728 21.232,25.685 21.232,25.642 C21.232,23.957 23.151,22.539 26,21.51 L26,3.565 C26,2.702 25.298,2 24.435,2 L3.566,2 C2.703,2 2,2.702 2,3.565 L2,48.435 C2,49.298 2.703,50 3.566,50 L12.765,50 C12.996,48.105 14.119,46.649 15.902,45.937 L15.902,45.937 Z M17.137,56 C16.524,55.999 15.936,55.842 15.437,55.546 C14.588,55.042 13.276,53.953 12.859,52 L7,52 L7,56 L5,56 L5,52 L3.566,52 C1.6,52 0,50.401 0,48.435 L0,3.565 C0,1.599 1.6,0 3.566,0 L24.435,0 C26.401,0 28,1.599 28,3.565 L28,20.89 C30.845,20.139 34.252,19.714 37.569,19.714 C45.459,19.714 53.908,22.096 53.908,25.642 C53.908,25.685 53.905,25.728 53.899,25.771 L53.858,26.086 C53.853,26.128 53.845,26.17 53.834,26.21 C53.832,26.218 53.827,26.226 53.825,26.235 L53.858,26.239 L52.498,36.327 C54.681,37.583 55.719,38.565 55.904,39.553 C55.995,40.045 55.87,40.526 55.548,40.907 C55.166,41.362 54.578,41.589 53.711,41.589 C53.192,41.589 52.561,41.5 51.824,41.338 L50.424,51.729 C50.382,52.831 49.434,53.756 47.605,54.479 C46.913,54.752 46.107,54.995 45.206,55.203 C42.985,55.716 40.273,56 37.569,56 C36.676,56 34.252,55.996 33.351,56 L17.137,56 Z M7,21 L22,21 L22,19 L7,19 L7,21 Z M7,28 L18,28 L18,26 L7,26 L7,28 Z M7,14 L22,14 L22,12 L7,12 L7,14 Z" id="Fill-1"></path>
        </g>
    </g>
</svg>