<?xml version="1.0" encoding="UTF-8"?>
<svg width="80px" height="80px" viewBox="0 0 80 80" version="1.1" xmlns="http://www.w3.org/2000/svg" xmlns:xlink="http://www.w3.org/1999/xlink">
    <title>Icon-Architecture/64/Arch_AWS-IoT-FleetWise_64</title>
    <g id="Icon-Architecture/64/Arch_AWS-IoT-FleetWise_64" stroke="none" stroke-width="1" fill="none" fill-rule="evenodd">
        <g id="Icon-Architecture-BG/64/Internet-of-Things" fill="#7AA116">
            <rect id="Rectangle" x="0" y="0" width="80" height="80"></rect>
        </g>
        <g id="Icon-Service/64/AWS-IoT-FleetWise_64" transform="translate(12.000000, 12.000000)" fill="#FFFFFF">
            <path d="M28,48.2895239 L28,42.5185239 C28,40.5725239 29.583,38.9895239 31.529,38.9895239 L35.819,38.9895239 C35.089,43.3145239 32.044,46.8535239 28,48.2895239 M22,48.8085239 L22,42.5185239 C22,39.4705239 19.52,36.9895239 16.471,36.9895239 L12,36.9895239 C12,36.3065239 12.071,35.6415239 12.181,34.9895239 L14.769,34.9885239 C16.82,34.9885239 18.773,34.0745239 19.993,32.5445239 C20.947,31.3465239 22.392,30.6595239 23.955,30.6595239 C25.518,30.6595239 26.962,31.3465239 27.917,32.5455239 C29.138,34.0755239 31.09,34.9885239 33.142,34.9895239 L35.819,34.9895239 C35.929,35.6415239 36,36.3065239 36,36.9895239 L31.529,36.9895239 C28.48,36.9895239 26,39.4705239 26,42.5185239 L26,48.8085239 C25.348,48.9185239 24.683,48.9895239 24,48.9895239 C23.317,48.9895239 22.652,48.9185239 22,48.8085239 M12.181,38.9895239 L16.471,38.9895239 C18.417,38.9895239 20,40.5725239 20,42.5185239 L20,48.2895239 C15.956,46.8535239 12.911,43.3145239 12.181,38.9895239 M24,24.9895239 C29.213,24.9895239 33.647,28.3365239 35.3,32.9895239 L33.142,32.9895239 C31.693,32.9885239 30.325,32.3565239 29.48,31.2985239 C28.144,29.6215239 26.13,28.6595239 23.955,28.6595239 C21.779,28.6595239 19.766,29.6215239 18.429,31.2985239 C17.585,32.3565239 16.217,32.9885239 14.769,32.9885239 L12.7,32.9895239 C14.353,28.3365239 18.787,24.9895239 24,24.9895239 M24,22.9895239 C16.28,22.9895239 10,29.2695239 10,36.9895239 C10,44.7095239 16.28,50.9895239 24,50.9895239 C31.72,50.9895239 38,44.7095239 38,36.9895239 C38,29.2695239 31.72,22.9895239 24,22.9895239 M45.897,34.9895239 L42.891,34.9825239 C41.885,25.4465239 33.798,17.9895239 24,17.9895239 C14.903,17.9895239 7.286,24.4195239 5.437,32.9715239 C3.575,31.3655239 2.294,28.9495239 2.05,26.3755239 C2.017,26.0305239 2,25.6705239 2,25.2975239 C2,22.5375239 4.045,18.6605239 7.885,18.5575239 C8.39,18.5445239 8.805,18.1575239 8.854,17.6555239 L8.956,16.6055239 C8.963,16.5335239 8.963,16.4605239 8.954,16.3885239 C8.891,15.8625239 8.858,15.3265239 8.858,14.7975239 C8.858,10.0205239 12.187,4.88152389 16.437,3.09652389 C23.794,0.00552389324 29.009,4.06752389 30.908,5.95752389 C32.453,7.49552389 33.659,9.45952389 34.491,11.7955239 C34.615,12.1425239 34.92,12.3935239 35.285,12.4485239 C35.653,12.5065239 36.015,12.3525239 36.235,12.0565239 C37.451,10.4255239 39.425,9.72152389 41.273,10.2645239 C43.471,10.9115239 44.916,13.1195239 45.153,16.1815239 C45.072,16.7205239 45.437,17.2255239 45.975,17.3165239 C48.388,17.7275239 54,19.4125239 54,26.1595239 C54,34.2015239 46.147,34.9645239 45.897,34.9895239 M24,53.9895239 C14.626,53.9895239 7,46.3635239 7,36.9895239 C7,27.6155239 14.626,19.9895239 24,19.9895239 C33.374,19.9895239 41,27.6155239 41,36.9895239 C41,46.3635239 33.374,53.9895239 24,53.9895239 M47.097,15.5035239 C46.663,11.8495239 44.729,9.19752389 41.838,8.34652389 C39.709,7.72152389 37.474,8.22952389 35.782,9.64252389 C34.896,7.66052389 33.735,5.94952389 32.318,4.53952389 C27.769,0.0125238932 21.543,-1.21847611 15.662,1.25252389 C10.644,3.36052389 6.858,9.18352389 6.858,14.7975239 C6.858,15.3695239 6.891,15.9485239 6.955,16.5175239 L6.944,16.6335239 C2.631,17.2515239 0,21.4525239 0,25.2975239 C0,25.7375239 0.021,26.1595239 0.06,26.5655239 C0.396,30.1205239 2.294,33.3355239 5.089,35.2295239 C5.036,35.8095239 5,36.3955239 5,36.9895239 C5,47.4665239 13.523,55.9895239 24,55.9895239 C34.477,55.9895239 43,47.4665239 43,36.9895239 C43,36.9875239 43,36.9845239 43,36.9825239 L45.976,36.9865239 C46.076,36.9785239 56,36.0635239 56,26.1595239 C56,18.4725239 49.939,16.1625239 47.097,15.5035239" id="Fill-1"></path>
        </g>
    </g>
</svg>