<?xml version="1.0" encoding="UTF-8"?>
<svg width="80px" height="80px" viewBox="0 0 80 80" version="1.1" xmlns="http://www.w3.org/2000/svg" xmlns:xlink="http://www.w3.org/1999/xlink">
    <title>Icon-Architecture/64/Arch_AWS-IoT-ExpressLink_64</title>
    <g id="Icon-Architecture/64/Arch_AWS-IoT-ExpressLink_64" stroke="none" stroke-width="1" fill="none" fill-rule="evenodd">
        <g id="Icon-Architecture-BG/64/Internet-of-Things" fill="#7AA116">
            <rect id="Rectangle" x="0" y="0" width="80" height="80"></rect>
        </g>
        <g id="Icon-Service/64/AWS-IoT-ExpressLink_64" transform="translate(12.000000, 11.950000)" fill="#FFFFFF">
            <path d="M50.91,16.3294285 C49.572,15.5114285 48.013,14.8724285 46.527,14.5274285 C46.097,11.1584285 44.247,8.68542853 41.492,7.85042853 C39.385,7.21142853 37.156,7.67342853 35.47,9.02742853 C34.603,7.17442853 33.47,5.57342853 32.088,4.25442853 C27.645,0.0114285285 21.567,-1.13957147 15.833,1.17042853 C10.919,3.15142853 7.213,8.63342853 7.213,13.9214285 C7.213,14.2084285 7.222,14.4964285 7.239,14.7844285 C4.552,15.6344285 0,18.0294285 0,24.4874285 C0,30.3384285 2.721,32.8424285 4.343,33.8144285 C5.746,34.6554285 7.277,35.0644285 9.024,35.0644285 L11.058,35.0644285 L11.058,33.0644285 L9.024,33.0644285 C7.193,33.0644285 6.062,32.5134285 5.37,32.0984285 C3.833,31.1774285 2,29.1094285 2,24.4874285 C2,18.9574285 6.047,17.1144285 8.498,16.5054285 C8.965,16.4174285 9.312,16.0074285 9.312,15.5214285 C9.312,15.4714285 9.308,15.4214285 9.302,15.3714285 C9.242,14.8924285 9.213,14.4044285 9.213,13.9214285 C9.213,9.47742853 12.449,4.69042853 16.581,3.02442853 C21.565,1.01642853 26.848,2.01542853 30.707,5.70142853 C32.209,7.13542853 33.381,8.96642853 34.188,11.1434285 C34.314,11.4834285 34.615,11.7294285 34.974,11.7844285 C35.339,11.8394285 35.693,11.6954285 35.916,11.4094285 C37.123,9.85542853 39.084,9.20942853 40.912,9.76442853 C42.99,10.3944285 44.358,12.4274285 44.589,15.2134285 C44.51,15.7524285 44.877,16.2564285 45.417,16.3454285 C46.88,16.5844285 48.502,17.2004285 49.865,18.0354285 C53.594,20.3164285 54.024,22.6874285 54.024,24.2714285 C54.024,32.7894285 46.333,33.0574285 46.024,33.0644285 L44.024,33.0644285 L44.024,35.0644285 L46.041,35.0644285 C46.14,35.0624285 56.024,34.7784285 56.024,24.2714285 C56.024,21.0344285 54.351,18.4354285 50.91,16.3294285 L50.91,16.3294285 Z M39.024,21.9064285 C39.024,20.8914285 38.198,20.0644285 37.182,20.0644285 L36.024,20.0644285 L36.024,17.0644285 L34.024,17.0644285 L34.024,20.0644285 L31.024,20.0644285 L31.024,17.0644285 L29.024,17.0644285 L29.024,20.0644285 L26.024,20.0644285 L26.024,17.0644285 L24.024,17.0644285 L24.024,20.0644285 L21.024,20.0644285 L21.024,17.0644285 L19.024,17.0644285 L19.024,20.0644285 L17.868,20.0644285 C16.851,20.0644285 16.024,20.8914285 16.024,21.9074285 L16.024,23.0644285 L13.024,23.0644285 L13.024,25.0644285 L16.024,25.0644285 L16.024,28.0644285 L13.024,28.0644285 L13.024,30.0644285 L16.024,30.0644285 L16.024,33.0644285 L13.024,33.0644285 L13.024,35.0644285 L16.024,35.0644285 L16.024,38.0644285 L13.024,38.0644285 L13.024,40.0644285 L16.024,40.0644285 L16.024,41.2224285 C16.024,42.2374285 16.85,43.0644285 17.866,43.0644285 L21.024,43.0644285 L21.024,41.0644285 L18.024,41.0644285 L18.024,40.0644285 L18.024,38.0644285 L18.024,35.0644285 L18.024,33.0644285 L18.024,30.0644285 L18.024,28.0644285 L18.024,25.0644285 L18.024,23.0644285 L18.024,22.0644285 L37.024,22.0644285 L37.024,41.0644285 L29.024,41.0644285 L29.024,43.0644285 L37.181,43.0644285 C38.197,43.0644285 39.024,42.2374285 39.024,41.2214285 L39.024,40.0644285 L42.024,40.0644285 L42.024,38.0644285 L39.024,38.0644285 L39.024,35.0644285 L42.024,35.0644285 L42.024,33.0644285 L39.024,33.0644285 L39.024,30.0644285 L42.024,30.0644285 L42.024,28.0644285 L39.024,28.0644285 L39.024,25.0644285 L42.024,25.0644285 L42.024,23.0644285 L39.024,23.0644285 L39.024,21.9064285 Z M34.024,51.0644285 L36.024,51.0644285 L36.024,44.0644285 L34.024,44.0644285 L34.024,51.0644285 Z M29.024,55.0644285 L31.024,55.0644285 L31.024,47.0644285 L29.024,47.0644285 L29.024,55.0644285 Z M24.024,52.0644285 L26.024,52.0644285 L26.024,38.0644285 L24.024,38.0644285 L24.024,52.0644285 Z M19.024,56.0644285 L21.024,56.0644285 L21.024,46.0644285 L19.024,46.0644285 L19.024,56.0644285 Z" id="Fill-8"></path>
        </g>
    </g>
</svg>