<?xml version="1.0" encoding="UTF-8"?>
<svg width="64px" height="64px" viewBox="0 0 64 64" version="1.1" xmlns="http://www.w3.org/2000/svg" xmlns:xlink="http://www.w3.org/1999/xlink">
    <title>Icon-Architecture/48/Arch_Amazon-WorkSpaces-Family_48</title>
    <g id="Icon-Architecture/48/Arch_Amazon-WorkSpaces-Family_48" stroke="none" stroke-width="1" fill="none" fill-rule="evenodd">
        <g id="Icon-Architecture-BG/48/End-User-Computing" fill="#01A88D">
            <rect id="Rectangle" x="0" y="0" width="64" height="64"></rect>
        </g>
        <path d="M31,54 L33,54 L33,49 L31,49 L31,54 Z M31,15 L33,15 L33,10 L31,10 L31,15 Z M48,33 L54,33 L54,31 L48,31 L48,33 Z M10,33 L16,33 L16,31 L10,31 L10,33 Z M12,29 L10,29 L10,11 C10,10.448 10.448,10 11,10 L29,10 L29,12 L12,12 L12,29 Z M54,11 L54,29 L52,29 L52,12 L35,12 L35,10 L53,10 C53.552,10 54,10.448 54,11 L54,11 Z M52,35 L54,35 L54,53 C54,53.552 53.553,54 53,54 L35.083,54 L35.083,52 L52,52 L52,35 Z M12,52 L28.917,52 L28.917,54 L11,54 C10.447,54 10,53.552 10,53 L10,35 L12,35 L12,52 Z M33,44.262 L33,32.574 L43,26.741 L43,38.427 L33,44.262 Z M21,26.741 L31,32.574 L31,44.262 L21,38.427 L21,26.741 Z M32.001,19.155 L42.017,24.999 L32,30.842 L21.996,25.007 L32.001,19.155 Z M31.495,17.133 L19.578,24.103 C19.32,24.225 19.115,24.454 19.032,24.744 C18.996,24.871 18.986,25.001 19,25.127 L19,39.002 C19,39.357 19.189,39.686 19.496,39.865 L31.496,46.867 C31.651,46.958 31.826,47.003 32,47.003 C32.174,47.003 32.349,46.958 32.504,46.867 L44.504,39.865 C44.811,39.686 45,39.357 45,39.002 L45,24.998 C45,24.643 44.811,24.314 44.504,24.135 L32.504,17.133 C32.192,16.95 31.807,16.951 31.495,17.133 L31.495,17.133 Z" id="Fill-1" fill="#FFFFFF"></path>
    </g>
</svg>