<?xml version="1.0" encoding="UTF-8"?>
<svg width="40px" height="40px" viewBox="0 0 40 40" version="1.1" xmlns="http://www.w3.org/2000/svg" xmlns:xlink="http://www.w3.org/1999/xlink">
    <title>Icon-Architecture-Group/32/Corporate-data-center_32</title>
    <g id="Icon-Architecture-Group/32/Corporate-data-center_32" stroke="none" stroke-width="1" fill="none" fill-rule="evenodd">
        <rect id="Rectangle" fill="#7D8998" x="0" y="0" width="40" height="40"></rect>
        <path d="M12,17 L15.5,17 C15.776,17 16,16.776 16,16.5 L16,7 L23,7 L23,16.5 C23,16.776 23.224,17 23.5,17 L27,17 L27,33 L12,33 L12,17 Z M28,33.5 L28,16.5 C28,16.224 27.776,16 27.5,16 L24,16 L24,6.5 C24,6.224 23.776,6 23.5,6 L15.5,6 C15.224,6 15,6.224 15,6.5 L15,16 L11.5,16 C11.224,16 11,16.224 11,16.5 L11,33.5 C11,33.776 11.224,34 11.5,34 L27.5,34 C27.776,34 28,33.776 28,33.5 L28,33.5 Z M24,31 L25,31 L25,29 L24,29 L24,31 Z M19,31 L20,31 L20,29 L19,29 L19,31 Z M14,31 L15,31 L15,29 L14,29 L14,31 Z M24,27 L25,27 L25,24 L24,24 L24,27 Z M19,27 L20,27 L20,24 L19,24 L19,27 Z M14,27 L15,27 L15,24 L14,24 L14,27 Z M24,22 L25,22 L25,19 L24,19 L24,22 Z M19,12 L20,12 L20,9 L19,9 L19,12 Z M19,17 L20,17 L20,14 L19,14 L19,17 Z M19,22 L20,22 L20,19 L19,19 L19,22 Z M14,22 L15,22 L15,19 L14,19 L14,22 Z" id="Fill-1" fill="#FFFFFF"></path>
    </g>
</svg>