<?xml version="1.0" encoding="UTF-8"?>
<svg width="40px" height="40px" viewBox="0 0 40 40" version="1.1" xmlns="http://www.w3.org/2000/svg" xmlns:xlink="http://www.w3.org/1999/xlink">
    <title>Icon-Architecture-Group/32/Spot-Fleet_32</title>
    <g id="Icon-Architecture-Group/32/Spot-Fleet_32" stroke="none" stroke-width="1" fill="none" fill-rule="evenodd">
        <rect id="Rectangle" fill="#ED7100" x="0" y="0" width="40" height="40"></rect>
        <path d="M7.1396,20 L5.9996,20 L5.9996,19 L7.1396,19 C7.2366,16.558 8.0276,14.233 9.4606,12.252 L10.2716,12.838 C8.9616,14.647 8.2356,16.77 8.1396,19 L8.9996,19 L8.9996,20 L8.1396,20 C8.2356,22.23 8.9616,24.353 10.2716,26.162 L9.4606,26.748 C8.0276,24.767 7.2366,22.442 7.1396,20 L7.1396,20 Z M26.7476,29.539 C24.7666,30.973 22.4426,31.764 19.9996,31.86 L19.9996,33 L18.9996,33 L18.9996,31.86 C16.5576,31.764 14.2336,30.973 12.2516,29.539 L12.8376,28.729 C14.6476,30.038 16.7696,30.765 18.9996,30.86 L18.9996,30 L19.9996,30 L19.9996,30.86 C22.2306,30.765 24.3526,30.038 26.1616,28.729 L26.7476,29.539 Z M12.2516,9.461 C14.2336,8.027 16.5576,7.236 18.9996,7.14 L18.9996,6 L19.9996,6 L19.9996,7.14 C22.4426,7.236 24.7666,8.027 26.7476,9.461 L26.1616,10.271 C24.3526,8.962 22.2306,8.235 19.9996,8.14 L19.9996,9 L18.9996,9 L18.9996,8.14 C16.7696,8.235 14.6476,8.962 12.8376,10.271 L12.2516,9.461 Z M32.9996,20 L31.8606,20 C31.7636,22.442 30.9726,24.767 29.5386,26.748 L28.7286,26.162 C30.0376,24.353 30.7646,22.23 30.8606,20 L29.9996,20 L29.9996,19 L30.8606,19 C30.7646,16.77 30.0376,14.647 28.7286,12.838 L29.5386,12.252 C30.9726,14.233 31.7636,16.558 31.8606,19 L32.9996,19 L32.9996,20 Z M26.7056,11.587 L30.4866,7.807 L31.1936,8.514 L27.4126,12.294 L26.7056,11.587 Z M12.2936,27.413 L8.5136,31.193 L7.8066,30.486 L11.5866,26.706 L12.2936,27.413 Z M24.1736,23.467 L31.1936,30.486 L30.4866,31.193 L23.4666,24.174 L24.1736,23.467 Z M14.8266,15.533 L7.8066,8.514 L8.5136,7.807 L15.5336,14.826 L14.8266,15.533 Z M24.9996,19 L24.9996,14 L19.9996,14 L19.9996,15 L18.9996,15 L18.9996,13.751 C18.9996,13.337 19.3366,13 19.7506,13 L25.2486,13 C25.6626,13 25.9996,13.337 25.9996,13.751 L25.9996,19.249 C25.9996,19.663 25.6626,20 25.2486,20 L23.9996,20 L23.9996,19 L24.9996,19 Z M13.9996,20 L13.9996,25 L18.9996,25 L18.9996,24 L19.9996,24 L19.9996,25.249 C19.9996,25.663 19.6626,26 19.2486,26 L13.7506,26 C13.3366,26 12.9996,25.663 12.9996,25.249 L12.9996,19.751 C12.9996,19.337 13.3366,19 13.7506,19 L14.9996,19 L14.9996,20 L13.9996,20 Z M16.9996,22 L21.9996,22 L21.9996,17 L16.9996,17 L16.9996,22 Z M22.9996,22.129 L22.9996,16.871 C22.9996,16.391 22.6096,16 22.1286,16 L16.8706,16 C16.3906,16 15.9996,16.391 15.9996,16.871 L15.9996,22.129 C15.9996,22.609 16.3906,23 16.8706,23 L22.1286,23 C22.6096,23 22.9996,22.609 22.9996,22.129 L22.9996,22.129 Z" id="Fill-1" fill="#FFFFFF"></path>
    </g>
</svg>