<?xml version="1.0" encoding="UTF-8"?>
<svg width="40px" height="40px" viewBox="0 0 40 40" version="1.1" xmlns="http://www.w3.org/2000/svg" xmlns:xlink="http://www.w3.org/1999/xlink">
    <title>Icon-Architecture-Group/32/Virtual-private-cloud-VPC_32</title>
    <g id="Icon-Architecture-Group/32/Virtual-private-cloud-VPC_32" stroke="none" stroke-width="1" fill="none" fill-rule="evenodd">
        <rect id="Rectangle" fill="#8C4FFF" x="0" y="0" width="40" height="40"></rect>
        <path d="M30.9707,21.0293596 L28.0267,19.7663596 L28.0267,30.2553596 C30.5717,29.9033596 30.9587,27.2873596 30.9747,27.1683596 L30.9707,21.0293596 Z M27.0267,30.2693596 L27.0267,19.7593596 L23.9917,21.0323596 L23.9917,27.2333596 C24.0047,27.2873596 24.4367,30.0003596 27.0267,30.2693596 L27.0267,30.2693596 Z M27.3327,18.5473596 C27.4567,18.4943596 27.5987,18.4953596 27.7237,18.5483596 L31.6677,20.2403596 C31.8517,20.3193596 31.9707,20.4993596 31.9707,20.6993596 L31.9707,27.2333596 C31.7877,28.6803596 30.6137,31.2963596 27.4437,31.2963596 C24.3687,31.2963596 23.1897,28.6843596 22.9957,27.3023596 L22.9917,20.6993596 C22.9917,20.4983596 23.1127,20.3163596 23.2977,20.2383596 L27.3327,18.5473596 Z M32.9827022,19.1843596 L27.5217,16.7783596 L21.9917,19.1053596 L21.9917,26.2333596 C21.9907,26.2753596 21.9377,29.1013596 23.6487,30.8563596 C24.5657,31.7973596 25.8427,32.2753596 27.4437,32.2753596 C29.0457,32.2753596 30.3307,31.7963596 31.2627,30.8533596 C32.9977,29.0953596 32.9827022,26.2683596 32.9827022,26.2403596 L32.9827022,19.1843596 Z M31.9797,31.5503596 C30.8527,32.6943596 29.3257,33.2753596 27.4437,33.2753596 C25.5597,33.2753596 24.0397,32.6943596 22.9267,31.5483596 C20.9217,29.4853596 20.9877,26.3513596 20.9917,26.2193596 L20.9917,18.7733596 C20.9917,18.5723596 21.1117,18.3903596 21.2967,18.3123596 L27.3317,15.7723596 C27.4587,15.7203596 27.6027,15.7193596 27.7277,15.7763596 L33.6837,18.4013596 C33.8657,18.4813596 33.9827,18.6603596 33.9827,18.8583596 L33.9827,26.2333596 C33.9847,26.3583596 34.0097,29.4883596 31.9797,31.5503596 L31.9797,31.5503596 Z M10.9917,24.2363596 L18.9917,24.2363596 L18.9917,25.2363596 L10.9917,25.2363596 C8.1807,25.2363596 6.1807,23.2203596 6.0127,20.2203596 C6.0007,20.1093596 5.9997,19.9753596 5.9997,19.8413596 C5.9997,17.3323596 7.3177,15.6183596 9.8167,14.8623596 C9.7977,14.6353596 9.7847,14.3963596 9.7847,14.2153596 C9.7847,11.2993596 11.3617,8.77035958 13.8017,7.77035958 C17.0997,6.42235958 20.8437,6.87635958 22.9077,8.87435958 C23.6527,9.59835958 24.2317,10.4163596 24.6677,11.3593596 C25.2767,10.9093596 26.0677,10.6983596 27.0167,10.7453596 C28.7967,10.8353596 30.1657,12.4583596 30.4497,14.7523596 C31.9477,14.8763596 32.9347,15.6353596 33.4597,17.0603596 L32.5227,17.4063596 C32.0947,16.2493596 31.3147,15.7333596 29.9917,15.7333596 C29.7267,15.7333596 29.5077,15.5273596 29.4917,15.2633596 C29.3537,12.9253596 28.0857,11.8003596 26.9657,11.7443596 C26.0207,11.6913596 25.3207,11.9633596 24.8867,12.5353596 C24.7757,12.6803596 24.6017,12.7523596 24.4137,12.7283596 C24.2337,12.7003596 24.0817,12.5773596 24.0187,12.4053596 C23.6147,11.3023596 23.0237,10.3823596 22.2117,9.59135958 C20.4237,7.86135958 17.1217,7.49235958 14.1807,8.69635958 C12.1177,9.54135958 10.7847,11.7073596 10.7847,14.2153596 C10.7847,14.4883596 10.8197,14.9113596 10.8507,15.1743596 C10.8807,15.4253596 10.7197,15.6583596 10.4747,15.7183596 C8.1687,16.2903596 6.9997,17.6773596 6.9997,19.8413596 C6.9997,19.9423596 6.9987,20.0423596 7.0087,20.1433596 C7.1497,22.6383596 8.7117,24.2363596 10.9917,24.2363596 L10.9917,24.2363596 Z" id="Fill-1" fill="#FFFFFF"></path>
    </g>
</svg>