<?xml version="1.0" encoding="UTF-8"?>
<svg width="64px" height="64px" viewBox="0 0 64 64" version="1.1" xmlns="http://www.w3.org/2000/svg" xmlns:xlink="http://www.w3.org/1999/xlink">
    <title>Icon-Architecture/48/Arch_AWS-IoT-TwinMaker_48</title>
    <g id="Icon-Architecture/48/Arch_AWS-IoT-TwinMaker_48" stroke="none" stroke-width="1" fill="none" fill-rule="evenodd">
        <g id="Icon-Architecture-BG/48/Internet-of-Things" fill="#7AA116">
            <rect id="Rectangle" x="0" y="0" width="64" height="64"></rect>
        </g>
        <g id="Icon-Service/48/AWS-IoT-TwinMaker_48" transform="translate(10.000000, 10.000000)" fill="#FFFFFF">
            <path d="M34.96,22.9934724 L34.96,20.9934724 L32.96,20.9934724 L32.96,18.9934724 L35.96,18.9934724 C36.513,18.9934724 36.96,19.4414724 36.96,19.9934724 L36.96,22.9934724 L34.96,22.9934724 Z M34.96,33.9934724 L36.96,33.9934724 L36.96,36.9934724 C36.96,37.5454724 36.513,37.9934724 35.96,37.9934724 L32.96,37.9934724 L32.96,35.9934724 L34.96,35.9934724 L34.96,33.9934724 Z M18.96,18.9934724 L21.96,18.9934724 L21.96,20.9934724 L19.96,20.9934724 L19.96,22.9934724 L17.96,22.9934724 L17.96,19.9934724 C17.96,19.4414724 18.407,18.9934724 18.96,18.9934724 L18.96,18.9934724 Z M24.96,20.9934724 L29.96,20.9934724 L29.96,18.9934724 L24.96,18.9934724 L24.96,20.9934724 Z M9.96,26.9934724 L24.96,26.9934724 L24.96,35.9934724 L24.96,37.9934724 L24.96,41.9934724 L9.96,41.9934724 L9.96,26.9934724 Z M44,21.1304724 C44,15.9884724 40.579,13.3214724 37.125,12.4474724 C36.746,9.46847235 35.178,7.32947235 32.848,6.66347235 C31.256,6.21047235 29.596,6.56447235 28.291,7.56847235 C27.616,6.07847235 26.75,4.78447235 25.707,3.70547235 C22.128,0.00747235136 17.229,-0.994527649 12.601,1.02447235 C8.662,2.74347235 5.692,7.47847235 5.692,12.0394724 C5.692,12.2564724 5.698,12.4734724 5.709,12.6894724 C3.526,13.4694724 0,15.5794724 0,21.0634724 C0,21.4194724 0.017,21.7624724 0.046,22.0924724 C0.413,26.1194724 3.866,29.4494724 7.96,29.9284724 L7.96,42.9934724 C7.96,43.5454724 8.407,43.9934724 8.96,43.9934724 L25.96,43.9934724 C26.513,43.9934724 26.96,43.5454724 26.96,42.9934724 L26.96,37.9934724 L29.96,37.9934724 L29.96,35.9934724 L26.96,35.9934724 L26.96,25.9934724 C26.96,25.4414724 26.513,24.9934724 25.96,24.9934724 L8.96,24.9934724 C8.407,24.9934724 7.96,25.4414724 7.96,25.9934724 L7.96,27.9104724 C4.877,27.4504724 2.314,24.9374724 2.038,21.9104724 C2.013,21.6394724 2,21.3564724 2,21.0634724 C2,16.4534724 5.069,14.9064724 6.954,14.3914724 L6.989,14.3844724 C7.489,14.2724724 7.824,13.8014724 7.765,13.2914724 C7.717,12.8844724 7.692,12.4634724 7.692,12.0394724 C7.692,8.28747235 10.2,4.25447235 13.401,2.85747235 C18.924,0.446472351 22.842,3.61947235 24.27,5.09647235 C25.439,6.30547235 26.353,7.85247235 26.984,9.69447235 C27.106,10.0484724 27.415,10.3054724 27.785,10.3594724 C28.157,10.4134724 28.524,10.2564724 28.743,9.95247235 C29.617,8.73447235 30.978,8.20947235 32.299,8.58647235 C33.928,9.05247235 35.003,10.7514724 35.187,13.1424724 C35.12,13.6694724 35.48,14.1584724 36.004,14.2514724 C37.807,14.5704724 42,15.8804724 42,21.1304724 C42,25.8494724 38.662,27.3434724 36.96,27.8004724 L36.96,25.9934724 L34.96,25.9934724 L34.96,28.9924724 L34.959,29.9924724 L34.96,29.9924724 L34.96,30.9934724 L36.96,30.9934724 L36.96,29.8564724 C39.8,29.2834724 44,26.9684724 44,21.1304724 L44,21.1304724 Z" id="Fill-4"></path>
        </g>
    </g>
</svg>