<?xml version="1.0" encoding="UTF-8"?>
<svg width="64px" height="64px" viewBox="0 0 64 64" version="1.1" xmlns="http://www.w3.org/2000/svg" xmlns:xlink="http://www.w3.org/1999/xlink">
    <title>Icon-Architecture/48/Arch_AWS-IoT-FleetWise_48</title>
    <g id="Icon-Architecture/48/Arch_AWS-IoT-FleetWise_48" stroke="none" stroke-width="1" fill="none" fill-rule="evenodd">
        <g id="Icon-Architecture-BG/48/Internet-of-Things" fill="#7AA116">
            <rect id="Rectangle" x="0" y="0" width="64" height="64"></rect>
        </g>
        <g id="Icon-Service/48/AWS-IoT-FleetWise_48" transform="translate(10.000000, 10.000000)" fill="#FFFFFF">
            <path d="M22,37.4682041 L22,33.5262041 C22,32.1292041 23.136,30.9932041 24.532,30.9932041 L27.768,30.9932041 C27.08,34.0092041 24.875,36.4472041 22,37.4682041 M18,37.9342041 L18,33.5262041 C18,31.0262041 15.967,28.9932041 13.468,28.9932041 L10,28.9932041 C10,28.6762041 10.017,28.3642041 10.049,28.0562041 L12.113,28.0552041 C13.704,28.0552041 15.259,27.2852041 16.379,25.9422041 C17.062,25.1222041 18.064,24.6522041 19.131,24.6522041 C20.197,24.6522041 21.2,25.1222041 21.885,25.9432041 C23.004,27.2852041 24.558,28.0552041 26.149,28.0562041 L27.951,28.0562041 C27.983,28.3642041 28,28.6772041 28,28.9932041 L24.532,28.9932041 C22.033,28.9932041 20,31.0262041 20,33.5262041 L20,37.9342041 C19.671,37.9712041 19.338,37.9932041 19,37.9932041 C18.662,37.9932041 18.329,37.9712041 18,37.9342041 M10.232,30.9932041 L13.468,30.9932041 C14.864,30.9932041 16,32.1292041 16,33.5262041 L16,37.4682041 C13.125,36.4472041 10.92,34.0092041 10.232,30.9932041 M19,19.9932041 C22.933,19.9932041 26.276,22.5332041 27.498,26.0562041 L26.149,26.0562041 C25.139,26.0552041 24.17,25.5602041 23.42,24.6622041 C22.355,23.3852041 20.792,22.6522041 19.131,22.6522041 C17.47,22.6522041 15.906,23.3852041 14.843,24.6612041 C14.093,25.5602041 13.124,26.0552041 12.113,26.0552041 L10.502,26.0562041 C11.724,22.5332041 15.067,19.9932041 19,19.9932041 M19,17.9932041 C12.935,17.9932041 8,22.9282041 8,28.9932041 C8,35.0592041 12.935,39.9932041 19,39.9932041 C25.065,39.9932041 30,35.0592041 30,28.9932041 C30,22.9282041 25.065,17.9932041 19,17.9932041 M35.922,27.9932041 L33.949,27.9882041 C33.428,20.1862041 26.932,13.9932041 19,13.9932041 C11.705,13.9932041 5.618,19.2292041 4.28,26.1382041 C3.046,24.8952041 2.209,23.1422041 2.038,21.2882041 C2.014,21.0162041 2,20.7332041 2,20.4402041 C2,18.3132041 3.516,15.3262041 6.361,15.2472041 C6.866,15.2342041 7.281,14.8462041 7.329,14.3432041 L7.409,13.5032041 C7.416,13.4332041 7.415,13.3622041 7.407,13.2912041 C7.358,12.8782041 7.334,12.4572041 7.334,12.0392041 C7.334,8.28820412 9.867,4.25620412 13.102,2.85920412 C18.688,0.444204121 22.651,3.62120412 24.096,5.09920412 C25.277,6.30920412 26.199,7.85520412 26.837,9.69720412 C26.959,10.0492041 27.268,10.3042041 27.636,10.3592041 C28.002,10.4132041 28.373,10.2582041 28.592,9.95620412 C29.47,8.74620412 30.894,8.21220412 32.212,8.59120412 C33.853,9.06320412 34.935,10.7612041 35.119,13.1432041 C35.054,13.6702041 35.413,14.1592041 35.938,14.2512041 C37.761,14.5712041 42,15.8812041 42,21.1302041 C42,27.3732041 36.085,27.9742041 35.922,27.9932041 M19,41.9932041 C11.832,41.9932041 6,36.1622041 6,28.9932041 C6,21.8252041 11.832,15.9932041 19,15.9932041 C26.168,15.9932041 32,21.8252041 32,28.9932041 C32,36.1622041 26.168,41.9932041 19,41.9932041 M37.058,12.4452041 C36.676,9.47820412 35.103,7.34220412 32.766,6.66920412 C31.149,6.20420412 29.465,6.56120412 28.142,7.57620412 C27.459,6.08220412 26.583,4.78320412 25.525,3.70220412 C21.918,0.00820412079 16.977,-0.993795879 12.309,1.02320412 C8.332,2.74120412 5.334,7.47620412 5.334,12.0392041 C5.334,12.4732041 5.356,12.9102041 5.4,13.3412041 C2.041,13.9472041 0,17.3352041 0,20.4402041 C0,20.7962041 0.016,21.1392041 0.046,21.4702041 C0.313,24.3602041 1.813,26.9782041 4.023,28.5292041 C4.019,28.6852041 4,28.8372041 4,28.9932041 C4,37.2642041 10.729,43.9932041 19,43.9932041 C26.936,43.9932041 33.434,37.7942041 33.95,29.9872041 L36.002,29.9902041 C38.769,29.7602041 44,27.6132041 44,21.1302041 C44,15.9842041 40.544,13.3172041 37.058,12.4452041" id="Fill-3"></path>
        </g>
    </g>
</svg>