<?xml version="1.0" encoding="UTF-8"?>
<svg width="64px" height="64px" viewBox="0 0 64 64" version="1.1" xmlns="http://www.w3.org/2000/svg" xmlns:xlink="http://www.w3.org/1999/xlink">
    <title>Icon-Architecture/48/Arch_AWS-IoT-ExpressLink_48</title>
    <g id="Icon-Architecture/48/Arch_AWS-IoT-ExpressLink_48" stroke="none" stroke-width="1" fill="none" fill-rule="evenodd">
        <g id="Icon-Architecture-BG/48/Internet-of-Things" fill="#7AA116">
            <rect id="Rectangle" x="0" y="0" width="64" height="64"></rect>
        </g>
        <g id="Icon-Service/48/AWS-IoT-ExpressLink_48" transform="translate(10.000000, 10.100000)" fill="#FFFFFF">
            <path d="M39.939,12.7546734 C38.924,12.1316734 37.748,11.6416734 36.614,11.3596734 C36.232,8.72267341 34.75,6.78967341 32.559,6.12567341 C30.935,5.63367341 29.232,5.94667341 27.895,6.91367341 C27.226,5.54967341 26.369,4.36467341 25.336,3.37767341 C21.815,0.00967341388 16.999,-0.905326586 12.455,0.929673414 C8.552,2.50467341 5.61,6.86367341 5.61,11.0676734 C5.61,11.2386734 5.614,11.4106734 5.622,11.5816734 C3.46,12.3056734 0,14.2546734 0,19.2976734 C0,23.9646734 2.183,25.9716734 3.485,26.7526734 C4.251,27.2116734 5.926,27.8946734 7.403,27.8946734 L9,27.8946734 L9,25.8946734 L7.403,25.8946734 C6.408,25.8946734 5.09,25.3826734 4.514,25.0376734 C3.367,24.3496734 2,22.7956734 2,19.2976734 C2,15.1666734 5.005,13.7706734 6.852,13.3026734 C6.872,13.2996734 6.891,13.2956734 6.91,13.2916734 C7.412,13.1766734 7.745,12.7006734 7.68,12.1906734 C7.633,11.8226734 7.61,11.4446734 7.61,11.0676734 C7.61,7.68867341 10.067,4.05067341 13.203,2.78367341 C18.675,0.574673414 22.543,3.47367341 23.954,4.82267341 C25.098,5.91767341 25.991,7.31567341 26.608,8.98067341 C26.734,9.32067341 27.035,9.56667341 27.394,9.62067341 C27.759,9.67867341 28.114,9.53167341 28.335,9.24467341 C29.215,8.10867341 30.647,7.63567341 31.979,8.03967341 C33.524,8.50767341 34.505,9.97367341 34.683,12.0696734 C34.621,12.5986734 34.985,13.0876734 35.515,13.1736734 C36.041,13.2596734 37.421,13.5566734 38.894,14.4596734 C41.7,16.1796734 42.024,17.9486734 42.024,19.1296734 C42.024,25.5596734 36.208,25.8846734 36,25.8946734 L35,25.8946734 L35,27.8946734 L36.036,27.8946734 C38.798,27.7946734 44.024,25.8346734 44.024,19.1296734 C44.024,16.5246734 42.688,14.4396734 39.939,12.7546734 L39.939,12.7546734 Z M31,17.5506734 C31,16.6376734 30.256,15.8946734 29.343,15.8946734 L29,15.8946734 L29,13.8946734 L27,13.8946734 L27,15.8946734 L25,15.8946734 L25,13.8946734 L23,13.8946734 L23,15.8946734 L21,15.8946734 L21,13.8946734 L19,13.8946734 L19,15.8946734 L17,15.8946734 L17,13.8946734 L15,13.8946734 L15,15.8946734 L14.655,15.8946734 C13.742,15.8946734 13,16.6376734 13,17.5506734 L13,17.8946734 L11.024,17.8946734 L11.024,19.8946734 L13,19.8946734 L13,21.8946734 L11.024,21.8946734 L11.024,23.8946734 L13,23.8946734 L13,25.8946734 L11.024,25.8946734 L11.024,27.8946734 L13,27.8946734 L13,29.8946734 L11.024,29.8946734 L11.024,31.8946734 L13,31.8946734 L13,32.2386734 C13,33.1516734 13.742,33.8946734 14.655,33.8946734 L17,33.8946734 L17,31.8946734 L15,31.8946734 L15,17.8946734 L29,17.8946734 L29,31.8946734 L23.024,31.8946734 L23.024,33.8946734 L29.343,33.8946734 C30.256,33.8946734 31,33.1516734 31,32.2386734 L31,31.8946734 L33,31.8946734 L33,29.8946734 L31,29.8946734 L31,27.8946734 L33,27.8946734 L33,25.8946734 L31,25.8946734 L31,23.8946734 L33,23.8946734 L33,21.8946734 L31,21.8946734 L31,19.8946734 L33,19.8946734 L33,17.8946734 L31,17.8946734 L31,17.5506734 Z M27,39.8946734 L29,39.8946734 L29,34.8946734 L27,34.8946734 L27,39.8946734 Z M23,42.8946734 L25,42.8946734 L25,36.8946734 L23,36.8946734 L23,42.8946734 Z M19,40.8946734 L21,40.8946734 L21,29.8946734 L19,29.8946734 L19,40.8946734 Z M15,43.8946734 L17,43.8946734 L17,35.8946734 L15,35.8946734 L15,43.8946734 Z" id="Fill-6"></path>
        </g>
    </g>
</svg>