<svg width="24" height="24" viewBox="0 0 24 24" fill="none" xmlns="http://www.w3.org/2000/svg">
<g id="Icon-Architecture/16/Arch_AWS-Thinkbox-Sequoia_16">
<g id="Icon-Architecture-BG/16/Compute">
<rect id="Rectangle" width="24" height="24" fill="#ED7100"/>
</g>
<g id="Icon-Service/16/AWS-ThinkBox-Sequoia_16">
<path id="AWS-ThinkBox-Sequoia_16_Squid" fill-rule="evenodd" clip-rule="evenodd" d="M19 8.5V15.5C19 15.684 18.899 15.853 18.737 15.94L12.237 19.44C12.163 19.48 12.081 19.5 12 19.5C11.919 19.5 11.837 19.48 11.763 19.44L5.263 15.94C5.101 15.853 5 15.684 5 15.5V8.5C5 8.316 5.101 8.147 5.263 8.06L6.763 7.252L7.237 8.133L6 8.799V15.201L12 18.432L18 15.201V8.799L16.763 8.133L17.237 7.252L18.737 8.06C18.899 8.147 19 8.316 19 8.5V8.5ZM9.237 7.056L8.763 6.175L11.763 4.56C11.911 4.48 12.089 4.48 12.237 4.56L15.237 6.175L14.763 7.056L12 5.568L9.237 7.056ZM12 10.772C12.469 11.971 13.267 13.022 14.388 13.918L12 15.411L9.612 13.918C10.733 13.022 11.531 11.971 12 10.772V10.772ZM11.735 16.424C11.816 16.475 11.908 16.5 12 16.5C12.092 16.5 12.184 16.475 12.265 16.424L15.541 14.376C15.685 14.287 15.772 14.131 15.776 13.963C15.779 13.794 15.697 13.635 15.559 13.54C13.529 12.154 12.5 10.29 12.5 8C12.5 7.724 12.276 7.5 12 7.5C11.724 7.5 11.5 7.724 11.5 8C11.5 10.29 10.471 12.154 8.441 13.54C8.303 13.635 8.221 13.794 8.224 13.963C8.228 14.131 8.315 14.287 8.459 14.376L11.735 16.424Z" fill="white"/>
</g>
</g>
</svg>
