<?xml version="1.0" encoding="UTF-8"?>
<svg width="24px" height="24px" viewBox="0 0 24 24" version="1.1" xmlns="http://www.w3.org/2000/svg" xmlns:xlink="http://www.w3.org/1999/xlink">
    <title>Icon-Architecture/16/Arch_AWS-Thinkbox-Frost_16</title>
    <g id="Icon-Architecture/16/Arch_AWS-Thinkbox-Frost_16" stroke="none" stroke-width="1" fill="none" fill-rule="evenodd">
        <g id="Icon-Architecture-BG/16/Compute" fill="#ED7100">
            <rect id="Rectangle" x="0" y="0" width="24" height="24"></rect>
        </g>
        <g id="Icon-Service/16/AWS-ThinkBox-Frost_16" transform="translate(3.999990, 4.000000)" fill="#FFFFFF">
            <path d="M11.5950212,9.749 L9.86702122,8.768 C9.94702122,8.524 10.0000212,8.27 10.0000212,8 C10.0000212,7.734 9.94802122,7.482 9.87002122,7.242 L11.5890212,6.275 L13.7110212,8.002 L11.5950212,9.749 Z M10.6190212,13.291 L8.00002122,12.163 L8.00002122,10.449 C8.54602122,10.338 9.02002122,10.042 9.37302122,9.639 L11.1010212,10.619 L10.6190212,13.291 Z M4.38202122,13.293 L3.90302122,10.596 L5.62002122,9.63 C5.97502122,10.039 6.45102122,10.337 7.00002122,10.449 L7.00002122,12.178 L4.38202122,13.293 Z M1.29502122,7.997 L3.42602122,6.263 L5.13302122,7.232 C5.05402122,7.476 5.00002122,7.73 5.00002122,8 C5.00002122,8.266 5.05302122,8.518 5.13002122,8.758 L3.43302122,9.713 L1.29502122,7.997 Z M4.38702122,2.708 L7.00002122,3.822 L7.00002122,5.551 C6.45402122,5.662 5.98102122,5.957 5.62702122,6.361 L3.93202122,5.399 L4.38702122,2.708 Z M7.50002122,9.5 C6.67302122,9.5 6.00002122,8.827 6.00002122,8 C6.00002122,7.173 6.67302122,6.5 7.50002122,6.5 C8.32702122,6.5 9.00002122,7.173 9.00002122,8 C9.00002122,8.827 8.32702122,9.5 7.50002122,9.5 L7.50002122,9.5 Z M10.6240212,2.707 L11.1290212,5.386 L9.38002122,6.37 C9.02602122,5.961 8.54902122,5.663 8.00002122,5.551 L8.00002122,3.837 L10.6240212,2.707 Z M15.0000323,7.999 C14.9990212,7.849 14.9320212,7.707 14.8160212,7.612 L12.5260212,5.749 L14.7190212,4.516 L14.2290212,3.644 L12.0490212,4.869 L11.4910212,1.907 C11.4630212,1.758 11.3690212,1.63 11.2350212,1.559 C11.1010212,1.486 10.9420212,1.481 10.8020212,1.541 L8.00002122,2.749 L8.00002122,0 L7.00002122,0 L7.00002122,2.735 L4.19702122,1.54 C4.05502122,1.48 3.89502122,1.488 3.76102122,1.561 C3.62602122,1.635 3.53202122,1.766 3.50702122,1.916 L3.00602122,4.874 L0.790021217,3.616 L0.296021217,4.486 L2.49302122,5.733 L0.185021217,7.612 C0.0680212175,7.707 -0.000978782548,7.851 1.04951351e-05,8.001 C0.00102121745,8.153 0.0700212175,8.295 0.188021217,8.39 L2.49302122,10.241 L0.282021217,11.484 L0.772021217,12.356 L2.98002122,11.115 L3.50802122,14.087 C3.53402122,14.238 3.62802122,14.367 3.76202122,14.44 C3.89702122,14.513 4.05502122,14.521 4.19702122,14.46 L7.00002122,13.265 L7.00002122,16 L8.00002122,16 L8.00002122,13.251 L10.8020212,14.459 C10.8660212,14.486 10.9330212,14.5 11.0000212,14.5 C11.0810212,14.5 11.1630212,14.48 11.2370212,14.44 C11.3710212,14.368 11.4650212,14.239 11.4920212,14.088 L12.0240212,11.143 L14.2100212,12.384 L14.7040212,11.514 L12.5260212,10.277 L14.8190212,8.386 C14.9340212,8.291 15.0010212,8.148 15.0000323,7.999 L15.0000323,7.999 Z" id="AWS-ThinkBox-Frost_16_Squid"></path>
        </g>
    </g>
</svg>