<?xml version="1.0" encoding="UTF-8"?>
<svg width="24px" height="24px" viewBox="0 0 24 24" version="1.1" xmlns="http://www.w3.org/2000/svg" xmlns:xlink="http://www.w3.org/1999/xlink">
    <title>Icon-Architecture/16/Arch_Amazon-Deadline-Cloud_16</title>
    <g id="Icon-Architecture/16/Arch_Amazon-Deadline-Cloud_16" stroke="none" stroke-width="1" fill="none" fill-rule="evenodd">
        <g id="Icon-Architecture-BG/16/Media-Services" fill="#ED7100">
            <rect id="Rectangle" x="0" y="0" width="24" height="24"></rect>
        </g>
        <g id="Icon-Service/16/Amazon-Deadline-Cloud_16" transform="translate(5.000000, 4.000000)" fill="#FFFFFF">
            <path d="M7,9.8875 L9,8.6655 L11,9.8875 L11,12.1045 L9,13.3265 L7,12.1045 L7,9.8875 Z M9.261,14.3395 L11.761,12.8115 C11.909,12.7205 12,12.5585 12,12.3845 L12,9.6075 C12,9.4325 11.909,9.2715 11.761,9.1805 L9.261,7.6525 C9.101,7.5545 8.899,7.5545 8.739,7.6525 L6.239,9.1805 C6.091,9.2715 6,9.4325 6,9.6075 L6,12.3845 C6,12.5585 6.091,12.7205 6.239,12.8115 L8.739,14.3395 C8.819,14.3875 8.909,14.4125 9,14.4125 C9.091,14.4125 9.181,14.3875 9.261,14.3395 L9.261,14.3395 Z M5,11.0215 L3,9.7995 L3,6.3595 L7,3.9155 L11,6.3595 L11,7.5435 L12,8.1545 L12,6.0795 C12,5.9055 11.909,5.7435 11.761,5.6525 L7.261,2.9025 C7.101,2.8045 6.899,2.8045 6.739,2.9025 L2.239,5.6525 C2.091,5.7435 2,5.9055 2,6.0795 L2,10.0795 C2,10.2535 2.091,10.4155 2.239,10.5065 L5,12.1935 L5,11.0215 Z M14,4.4715 L14,11.5225 C14,11.6965 13.909,11.8585 13.761,11.9495 L12.996,12.4165 C12.996,12.4055 13,12.3955 13,12.3845 L13,11.2415 L13,9.6075 L13,4.7525 L7,1.0855 L1,4.7525 L1,11.2415 L7,14.9085 L7.377,14.6785 L8.218,15.1925 C8.261,15.2185 8.31,15.2305 8.356,15.2525 L7.261,15.9215 C7.181,15.9705 7.091,15.9945 7,15.9945 C6.909,15.9945 6.819,15.9705 6.739,15.9215 L0.239,11.9495 C0.091,11.8585 0,11.6965 0,11.5225 L0,4.4715 C0,4.2975 0.091,4.1365 0.239,4.0455 L6.739,0.0735 C6.899,-0.0245 7.101,-0.0245 7.261,0.0735 L13.761,4.0455 C13.909,4.1365 14,4.2975 14,4.4715 L14,4.4715 Z" id="Fill-1"></path>
        </g>
    </g>
</svg>