<?xml version="1.0" encoding="UTF-8"?>
<svg width="24px" height="24px" viewBox="0 0 24 24" version="1.1" xmlns="http://www.w3.org/2000/svg" xmlns:xlink="http://www.w3.org/1999/xlink">
    <title>Icon-Architecture/16/Arch_Amazon-Interactive-Video-Service_16</title>
    <g id="Icon-Architecture/16/Arch_Amazon-Interactive-Video-Service_16" stroke="none" stroke-width="1" fill="none" fill-rule="evenodd">
        <g id="Icon-Architecture-BG/16/Media-Services" fill="#ED7100">
            <rect id="Rectangle" x="0" y="0" width="24" height="24"></rect>
        </g>
        <g id="Icon-Service/16/Amazon-Interactive-Video-Service_16" transform="translate(4.000000, 3.999550)" fill="#FFFFFF">
            <path d="M10,14.66275 L10,12.10075 L12.219,13.38175 L10,14.66275 Z M9.75,10.80175 C9.596,10.71275 9.404,10.71275 9.25,10.80175 C9.096,10.89175 9,11.05675 9,11.23475 L9,15.52875 C9,15.70775 9.096,15.87275 9.25,15.96175 C9.327,16.00675 9.414,16.02875 9.5,16.02875 C9.586,16.02875 9.673,16.00675 9.75,15.96175 L13.469,13.81475 C13.623,13.72575 13.719,13.56075 13.719,13.38175 C13.719,13.20375 13.623,13.03775 13.469,12.94875 L9.75,10.80175 Z M15,9.29575 L12.781,8.01475 L15,6.73375 L15,9.29575 Z M7,10.36875 L7,5.66175 L11.076,8.01475 L7,10.36875 Z M6,3.92875 L3.781,2.64775 L6,1.36675 L6,3.92875 Z M6,14.66375 L3.781,13.38275 L6,12.10175 L6,14.66375 Z M15.75,5.43475 C15.596,5.34575 15.404,5.34575 15.25,5.43475 L11.929,7.35175 L7,4.50675 L7,0.49975 C7,0.32175 6.904,0.15675 6.75,0.06675 C6.596,-0.02225 6.404,-0.02225 6.25,0.06675 L2.531,2.21475 C2.377,2.30375 2.281,2.46875 2.281,2.64775 C2.281,2.82675 2.377,2.99175 2.531,3.08075 L6,5.08275 L6,10.94775 L2.531,12.94975 C2.377,13.03875 2.281,13.20475 2.281,13.38275 C2.281,13.56175 2.377,13.72675 2.531,13.81575 L6.25,15.96375 C6.327,16.00775 6.414,16.03075 6.5,16.03075 C6.586,16.03075 6.673,16.00775 6.75,15.96375 C6.904,15.87375 7,15.70875 7,15.53075 L7,11.52275 L11.929,8.67775 L15.25,10.59475 C15.404,10.68375 15.596,10.68375 15.75,10.59475 C15.904,10.50575 16,10.34075 16,10.16175 L16,5.86775 C16,5.68875 15.904,5.52375 15.75,5.43475 L15.75,5.43475 Z M1,9.29575 L1,6.73375 L3.219,8.01475 L1,9.29575 Z M4.719,8.01475 C4.719,7.83575 4.623,7.67075 4.469,7.58175 L0.75,5.43375 C0.596,5.34575 0.404,5.34575 0.25,5.43375 C0.096,5.52375 0,5.68875 0,5.86775 L0,10.16175 C0,10.34075 0.096,10.50575 0.25,10.59475 C0.327,10.63975 0.414,10.66175 0.5,10.66175 C0.586,10.66175 0.673,10.63975 0.75,10.59475 L4.469,8.44775 C4.623,8.35875 4.719,8.19375 4.719,8.01475 L4.719,8.01475 Z M10,1.36675 L12.219,2.64775 L10,3.92875 L10,1.36675 Z M9.5,5.29475 C9.586,5.29475 9.673,5.27175 9.75,5.22775 L13.469,3.08075 C13.623,2.99175 13.719,2.82675 13.719,2.64775 C13.719,2.46875 13.623,2.30375 13.469,2.21475 L9.75,0.06675 C9.596,-0.02225 9.404,-0.02225 9.25,0.06675 C9.096,0.15675 9,0.32175 9,0.49975 L9,4.79475 C9,4.97375 9.096,5.13875 9.25,5.22775 C9.327,5.27175 9.414,5.29475 9.5,5.29475 L9.5,5.29475 Z" id="Amazon-Interactive-Video-Service_Icon_16_Squid"></path>
        </g>
    </g>
</svg>