<?xml version="1.0" encoding="UTF-8"?>
<svg width="80px" height="80px" viewBox="0 0 80 80" version="1.1" xmlns="http://www.w3.org/2000/svg" xmlns:xlink="http://www.w3.org/1999/xlink">
    <title>Icon-Architecture/64/Arch_Amazon-EKS-Distro_64</title>
    <g id="Icon-Architecture/64/Arch_Amazon-EKS-Distro_64" stroke="none" stroke-width="1" fill="none" fill-rule="evenodd">
        <g id="Icon-Architecture-BG/64/Containers" fill="#ED7100">
            <rect id="Rectangle" x="0" y="0" width="80" height="80"></rect>
        </g>
        <g id="Icon-Service/64/Amazon-EKS-Distro_64" transform="translate(12.000000, 12.000000)" fill="#FFFFFF">
            <path d="M39.931,44.813026 C37.246,44.813026 35.062,42.628026 35.062,39.943026 C35.062,37.258026 37.246,35.074026 39.931,35.074026 C42.616,35.074026 44.8,37.258026 44.8,39.943026 C44.8,42.628026 42.616,44.813026 39.931,44.813026 L39.931,44.813026 Z M39.931,33.074026 C36.143,33.074026 33.062,36.155026 33.062,39.943026 C33.062,43.731026 36.143,46.813026 39.931,46.813026 C43.719,46.813026 46.8,43.731026 46.8,39.943026 C46.8,36.155026 43.719,33.074026 39.931,33.074026 L39.931,33.074026 Z M53.931,42.204026 L51.749,42.204026 C51.295,42.204026 50.899,42.509026 50.783,42.948026 C50.532,43.895026 50.153,44.808026 49.657,45.662026 C49.428,46.054026 49.493,46.550026 49.814,46.871026 L51.358,48.416026 L48.404,51.371026 L46.859,49.826026 C46.537,49.503026 46.039,49.440026 45.649,49.668026 C44.794,50.166026 43.881,50.545026 42.936,50.795026 C42.497,50.911026 42.192,51.308026 42.192,51.762026 L42.192,53.943026 L37.67,53.943026 L37.67,51.762026 C37.67,51.303026 37.359,50.903026 36.913,50.792026 C35.908,50.540026 34.938,50.158026 34.029,49.657026 C33.649,49.446026 33.175,49.507026 32.859,49.807026 L31.169,51.407026 L28.011,48.416026 L29.621,46.890026 C29.965,46.565026 30.034,46.044026 29.786,45.641026 C29.263,44.788026 28.864,43.877026 28.6,42.935026 C28.479,42.503026 28.085,42.204026 27.637,42.204026 L25.931,42.204026 L25.931,37.945026 L25.949,37.945026 L28.13,37.907026 C28.578,37.899026 28.967,37.593026 29.08,37.159026 C29.332,36.192026 29.712,35.259026 30.209,34.387026 C30.431,33.999026 30.368,33.510026 30.055,33.191026 L28.491,31.596026 L31.463,28.567026 L31.478,28.584026 L32.994,30.137026 C33.318,30.468026 33.826,30.534026 34.22,30.298026 C35.074,29.792026 35.986,29.406026 36.931,29.151026 C37.368,29.034026 37.67,28.638026 37.67,28.186026 L37.67,25.943026 L42.192,25.943026 L42.192,28.125026 C42.192,28.579026 42.497,28.976026 42.936,29.092026 C43.881,29.342026 44.794,29.721026 45.649,30.218026 C46.042,30.447026 46.537,30.382026 46.859,30.061026 L48.404,28.516026 L51.358,31.471026 L49.814,33.016026 C49.493,33.336026 49.428,33.833026 49.657,34.225026 C50.153,35.079026 50.532,35.992026 50.783,36.939026 C50.899,37.377026 51.295,37.683026 51.749,37.683026 L53.931,37.683026 L53.931,42.204026 Z M25.445,53.862026 L2,41.398026 L2,14.570026 L22,2.75202604 L22,12.451026 L11.463,19.156026 C11.175,19.339026 11,19.658026 11,20.000026 L11,36.000026 C11,36.373026 11.208,36.714026 11.538,36.887026 L24.2,43.475026 C24.49,43.913026 24.986,44.204026 25.55,44.204026 L26.903,44.204026 C27.114,44.811026 27.372,45.404026 27.676,45.978026 L26.344,47.240026 C26.023,47.544026 25.838,47.973026 25.838,48.416026 C25.838,48.858026 26.023,49.287026 26.344,49.591026 L28.861,51.976026 L25.445,53.862026 Z M40.504,19.136026 L29,12.425026 L29,2.75202604 L49,14.570026 L49,26.483026 C48.416,26.262026 47.71,26.378026 47.259,26.833026 L45.972,28.119026 C45.397,27.828026 44.801,27.581026 44.192,27.379026 L44.192,25.563026 C44.192,24.670026 43.465,23.943026 42.573,23.943026 L41,23.943026 L41,20.000026 C41,19.644026 40.812,19.315026 40.504,19.136026 L40.504,19.136026 Z M54.312,35.683026 L52.494,35.683026 C52.293,35.073026 52.046,34.478026 51.755,33.902026 L53.04,32.617026 C53.347,32.311026 53.516,31.904026 53.516,31.471026 C53.516,31.038026 53.347,30.631026 53.041,30.326026 L51,28.285026 L51,14.000026 C51,13.646026 50.814,13.318026 50.509,13.139026 L28.509,0.139026042 C28.2,-0.0439739577 27.818,-0.0459739577 27.504,0.131026042 C27.193,0.309026042 27,0.641026042 27,1.00002604 L27,13.000026 C27,13.355026 27.189,13.684026 27.496,13.863026 L39,20.574026 L39,23.943026 L37.289,23.943026 C36.397,23.943026 35.67,24.670026 35.67,25.563026 L35.67,27.444026 C35.062,27.649026 34.468,27.900026 33.894,28.195026 L32.994,27.273026 C32.704,26.818026 32.252,26.519026 31.732,26.442026 C31.189,26.363026 30.66,26.530026 30.308,26.889026 L27.37,29.882026 L25.013,27.120026 L31.843,19.199026 L29.182,19.199026 L23,26.000026 L23,19.000026 L21,19.000026 L21,36.000026 L23,36.000026 L23,28.000026 L26.368,31.890026 C26.425,32.197026 26.568,32.492026 26.801,32.730026 L28.114,34.068026 C27.816,34.667026 27.564,35.286026 27.359,35.920026 L25.928,35.945026 C25.706,35.945026 25.334,35.945026 24.964,36.078026 C24.318,36.309026 23.931,36.855026 23.931,37.537026 L23.931,41.080026 L13,35.393026 L13,20.548026 L23.537,13.843026 C23.826,13.660026 24,13.341026 24,13.000026 L24,1.00002604 C24,0.641026042 23.808,0.309026042 23.496,0.131026042 C23.184,-0.0459739577 22.802,-0.0439739577 22.492,0.139026042 L0.492,13.139026 C0.187,13.318026 0,13.646026 0,14.000026 L0,42.000026 C0,42.369026 0.204,42.709026 0.531,42.882026 L24.984,55.882026 C25.131,55.960026 25.292,56.000026 25.453,56.000026 C25.619,56.000026 25.786,55.958026 25.937,55.875026 L30.472,53.372026 C31.062,53.657026 31.782,53.581026 32.283,53.107026 L33.718,51.748026 C34.349,52.053026 35.001,52.311026 35.67,52.519026 L35.67,54.324026 C35.67,55.217026 36.397,55.943026 37.289,55.943026 L42.573,55.943026 C43.465,55.943026 44.192,55.217026 44.192,54.324026 L44.192,52.507026 C44.801,52.306026 45.397,52.059026 45.972,51.768026 L47.258,53.054026 C47.868,53.665026 48.934,53.667026 49.548,53.054026 L53.04,49.562026 C53.347,49.255026 53.516,48.849026 53.516,48.416026 C53.516,47.983026 53.347,47.576026 53.041,47.271026 L51.755,45.984026 C52.046,45.409026 52.293,44.814026 52.494,44.204026 L54.312,44.204026 C55.204,44.204026 55.931,43.478026 55.931,42.585026 L55.931,37.301026 C55.931,36.409026 55.204,35.683026 54.312,35.683026 L54.312,35.683026 Z" id="Fill-1"></path>
        </g>
    </g>
</svg>