<?xml version="1.0" encoding="UTF-8"?>
<svg width="80px" height="80px" viewBox="0 0 80 80" version="1.1" xmlns="http://www.w3.org/2000/svg" xmlns:xlink="http://www.w3.org/1999/xlink">
    <title>Icon-Architecture/64/Arch_Amazon-EKS-Anywhere_64</title>
    <g id="Icon-Architecture/64/Arch_Amazon-EKS-Anywhere_64" stroke="none" stroke-width="1" fill="none" fill-rule="evenodd">
        <g id="Icon-Architecture-BG/64/Containers" fill="#ED7100">
            <rect id="Rectangle" x="0" y="0" width="80" height="80"></rect>
        </g>
        <g id="Icon-Service/64/Amazon-EKS-Anywhere_64" transform="translate(12.000000, 12.000000)" fill="#FFFFFF">
            <path d="M37.93,43.9712762 L39.93,43.9712762 L39.93,41.9712762 L37.93,41.9712762 L37.93,43.9712762 Z M36.93,45.9712762 L40.93,45.9712762 C41.483,45.9712762 41.93,45.5232762 41.93,44.9712762 L41.93,40.9712762 C41.93,40.4182762 41.483,39.9712762 40.93,39.9712762 L36.93,39.9712762 C36.377,39.9712762 35.93,40.4182762 35.93,40.9712762 L35.93,44.9712762 C35.93,45.5232762 36.377,45.9712762 36.93,45.9712762 L36.93,45.9712762 Z M46.93,43.9712762 L48.93,43.9712762 L48.93,41.9712762 L46.93,41.9712762 L46.93,43.9712762 Z M45.93,45.9712762 L49.93,45.9712762 C50.483,45.9712762 50.93,45.5232762 50.93,44.9712762 L50.93,40.9712762 C50.93,40.4182762 50.483,39.9712762 49.93,39.9712762 L45.93,39.9712762 C45.377,39.9712762 44.93,40.4182762 44.93,40.9712762 L44.93,44.9712762 C44.93,45.5232762 45.377,45.9712762 45.93,45.9712762 L45.93,45.9712762 Z M37.93,33.9712762 L39.93,33.9712762 L39.93,31.9712762 L37.93,31.9712762 L37.93,33.9712762 Z M36.93,35.9712762 L40.93,35.9712762 C41.483,35.9712762 41.93,35.5232762 41.93,34.9712762 L41.93,30.9712762 C41.93,30.4182762 41.483,29.9712762 40.93,29.9712762 L36.93,29.9712762 C36.377,29.9712762 35.93,30.4182762 35.93,30.9712762 L35.93,34.9712762 C35.93,35.5232762 36.377,35.9712762 36.93,35.9712762 L36.93,35.9712762 Z M46.93,33.9712762 L48.93,33.9712762 L48.93,31.9712762 L46.93,31.9712762 L46.93,33.9712762 Z M45.93,35.9712762 L49.93,35.9712762 C50.483,35.9712762 50.93,35.5232762 50.93,34.9712762 L50.93,30.9712762 C50.93,30.4182762 50.483,29.9712762 49.93,29.9712762 L45.93,29.9712762 C45.377,29.9712762 44.93,30.4182762 44.93,30.9712762 L44.93,34.9712762 C44.93,35.5232762 45.377,35.9712762 45.93,35.9712762 L45.93,35.9712762 Z M32.93,53.9712762 L53.93,53.9712762 L53.93,26.9712762 L32.93,26.9712762 L32.93,53.9712762 Z M25.444,53.8622762 L2,41.3982762 L2,14.5702762 L22,2.75127619 L22,12.4502762 L11.462,19.1552762 C11.174,19.3392762 11,19.6572762 11,19.9992762 L11,35.9992762 C11,36.3722762 11.208,36.7142762 11.538,36.8862762 L24.991,43.8862762 C25.279,44.0362762 25.624,44.0372762 25.912,43.8882762 L30.93,41.2952762 L30.93,50.8322762 L25.444,53.8622762 Z M40.503,19.1352762 L29,12.4252762 L29,2.75127619 L49,14.5702762 L49,24.9712762 L41,24.9712762 L41,19.9992762 C41,19.6442762 40.811,19.3142762 40.503,19.1352762 L40.503,19.1352762 Z M54.93,24.9712762 L51,24.9712762 L51,13.9992762 C51,13.6452762 50.813,13.3182762 50.508,13.1382762 L28.508,0.138276188 C28.199,-0.0437238122 27.817,-0.0457238122 27.503,0.130276188 C27.192,0.309276188 27,0.640276188 27,0.999276188 L27,12.9992762 C27,13.3542762 27.188,13.6842762 27.496,13.8632762 L39,20.5732762 L39,24.9712762 L31.93,24.9712762 C31.377,24.9712762 30.93,25.4182762 30.93,25.9712762 L30.93,34.0222762 L25.012,27.1202762 L31.842,19.1982762 L29.181,19.1982762 L23,25.9992762 L23,18.9992762 L21,18.9992762 L21,35.9992762 L23,35.9992762 L23,27.9992762 L29.668,35.7832762 L30.93,35.7832762 L30.93,39.0442762 L25.455,41.8732762 L13,35.3922762 L13,20.5482762 L23.537,13.8432762 C23.825,13.6592762 24,13.3412762 24,12.9992762 L24,0.999276188 C24,0.640276188 23.807,0.309276188 23.496,0.130276188 C23.183,-0.0457238122 22.801,-0.0437238122 22.491,0.138276188 L0.491,13.1382762 C0.186,13.3182762 0,13.6452762 0,13.9992762 L0,41.9992762 C0,42.3692762 0.204,42.7082762 0.53,42.8822762 L24.983,55.8822762 C25.13,55.9602762 25.292,55.9992762 25.453,55.9992762 C25.62,55.9992762 25.786,55.9572762 25.936,55.8742762 L30.93,53.1172762 L30.93,54.9712762 C30.93,55.5232762 31.377,55.9712762 31.93,55.9712762 L54.93,55.9712762 C55.483,55.9712762 55.93,55.5232762 55.93,54.9712762 L55.93,25.9712762 C55.93,25.4182762 55.483,24.9712762 54.93,24.9712762 L54.93,24.9712762 Z" id="Fill-1"></path>
        </g>
    </g>
</svg>