<?xml version="1.0" encoding="UTF-8"?>
<svg width="80px" height="80px" viewBox="0 0 80 80" version="1.1" xmlns="http://www.w3.org/2000/svg" xmlns:xlink="http://www.w3.org/1999/xlink">
    <title>Icon-Architecture/64/Arch_Amazon-EKS-Cloud_64</title>
    <g id="Icon-Architecture/64/Arch_Amazon-EKS-Cloud_64" stroke="none" stroke-width="1" fill="none" fill-rule="evenodd">
        <g id="Icon-Architecture-BG/64/Containers" fill="#ED7100">
            <rect id="Rectangle" x="0" y="0" width="80" height="80"></rect>
        </g>
        <g id="Icon-Service/64/Amazon-EKS-Cloud_64" transform="translate(12.000000, 12.000000)" fill="#FFFFFF">
            <path d="M49.239,49.377026 L27.737,49.355026 C25.133,49.352026 22.906,47.416026 22.667,44.949026 C22.647,44.743026 22.636,44.528026 22.636,44.305026 C22.636,40.929026 24.968,39.798026 26.391,39.422026 C26.849,39.328026 27.189,38.922026 27.189,38.441026 C27.189,38.394026 27.186,38.347026 27.179,38.300026 C27.145,38.004026 27.128,37.702026 27.128,37.396026 C27.128,34.613026 29.046,31.621026 31.494,30.584026 C35.745,28.786026 38.754,31.151026 39.852,32.253026 C40.751,33.154026 41.453,34.309026 41.938,35.684026 C42.062,36.033026 42.368,36.286026 42.734,36.340026 C43.097,36.394026 43.467,36.243026 43.686,35.945026 C44.322,35.085026 45.352,34.708026 46.307,34.988026 C47.477,35.330026 48.253,36.541026 48.393,38.238026 C48.342,38.756026 48.7,39.231026 49.218,39.320026 C50.587,39.556026 53.769,40.517026 53.769,44.356026 C53.769,48.839026 49.626,49.338026 49.239,49.377026 L49.239,49.377026 Z M25.444,53.862026 L2,41.398026 L2,14.570026 L22,2.75202604 L22,12.451026 L11.463,19.156026 C11.175,19.339026 11,19.658026 11,20.000026 L11,36.000026 C11,36.373026 11.208,36.714026 11.538,36.887026 L20.901,41.758026 L21.04,41.835026 C20.784,42.592026 20.636,43.415026 20.636,44.305026 C20.636,44.594026 20.651,44.872026 20.677,45.140026 C21.012,48.621026 24.113,51.351026 27.735,51.355026 L29.982,51.356026 L25.444,53.862026 Z M40.504,19.136026 L29,12.425026 L29,2.75202604 L49,14.570026 L49,34.467026 C48.431,33.803026 47.716,33.316026 46.868,33.068026 C45.616,32.703026 44.308,32.926026 43.245,33.637026 C42.718,32.567026 42.056,31.631026 41.268,30.841026 C41.182,30.755026 41.088,30.689026 41,30.606026 L41,20.000026 C41,19.644026 40.811,19.315026 40.504,19.136026 L40.504,19.136026 Z M51,37.726026 L51,14.000026 C51,13.646026 50.813,13.318026 50.509,13.139026 L28.509,0.139026042 C28.199,-0.0439739577 27.817,-0.0459739577 27.504,0.131026042 C27.192,0.309026042 27,0.641026042 27,1.00002604 L27,13.000026 C27,13.355026 27.188,13.684026 27.496,13.863026 L39,20.574026 L39,29.118026 C36.483,27.714026 33.537,27.548026 30.715,28.742026 C29.725,29.161026 28.827,29.828026 28.037,30.629026 L25.011,27.120026 L31.842,19.199026 L29.18,19.199026 L23,26.000026 L23,19.000026 L21,19.000026 L21,36.000026 L23,36.000026 L23,28.000026 L26.682,32.311026 C25.714,33.841026 25.128,35.633026 25.128,37.396026 C25.128,37.505026 25.13,37.614026 25.133,37.723026 C23.785,38.216026 22.712,39.027026 21.946,40.073026 L13,35.393026 L13,20.548026 L23.537,13.843026 C23.825,13.660026 24,13.341026 24,13.000026 L24,1.00002604 C24,0.641026042 23.807,0.309026042 23.496,0.131026042 C23.183,-0.0459739577 22.802,-0.0439739577 22.491,0.139026042 L0.491,13.139026 C0.186,13.318026 3.55271368e-15,13.646026 3.55271368e-15,14.000026 L3.55271368e-15,42.000026 C3.55271368e-15,42.369026 0.204,42.709026 0.53,42.882026 L24.983,55.882026 C25.131,55.960026 25.292,56.000026 25.453,56.000026 C25.62,56.000026 25.786,55.958026 25.936,55.875026 L34.114,51.360026 L49.319,51.374026 C51.551,51.192026 55.769,49.492026 55.769,44.356026 C55.769,40.678026 53.505,38.603026 51,37.726026 L51,37.726026 Z" id="Fill-1"></path>
        </g>
    </g>
</svg>