<?xml version="1.0" encoding="UTF-8"?>
<svg width="80px" height="80px" viewBox="0 0 80 80" version="1.1" xmlns="http://www.w3.org/2000/svg" xmlns:xlink="http://www.w3.org/1999/xlink">
    <title>Icon-Architecture/64/Arch_Red-Hat-OpenShift-Service-on-AWS_64</title>
    <g id="Icon-Architecture/64/Arch_Red-Hat-OpenShift-Service-on-AWS_64" stroke="none" stroke-width="1" fill="none" fill-rule="evenodd">
        <g id="Icon-Architecture-BG/64/Containers" fill="#ED7100">
            <rect id="Rectangle" x="0" y="0" width="80" height="80"></rect>
        </g>
        <g id="Icon-Service/64/Red-Hat-OpenShift-Service-on-AWS_64" transform="translate(11.500000, 13.000000)" fill="#FFFFFF">
            <path d="M48.0294313,15.7523629 C47.5824313,15.0313629 47.0914313,14.3513629 46.5574313,13.7163629 L53.1104313,10.9953629 C53.5104313,11.6243629 54.1034313,12.5713629 54.5684313,13.3743629 L48.0294313,15.7523629 Z M42.9604313,28.2753629 C42.9274313,25.7693629 42.3524313,23.2993629 41.2664313,21.0123629 L47.7454313,18.6533629 C48.7554313,20.9383629 49.4034313,23.3463629 49.6784313,25.8333629 L42.9604313,28.2753629 Z M52.5914313,26.9023629 L53.9934313,26.3923629 C54.0874313,30.1163629 53.3154313,33.8313629 51.7364313,37.2123629 C46.0714313,49.3633629 31.5764313,54.6413629 19.4254313,48.9753629 C16.0404313,47.3963629 13.0604313,45.0453629 10.7404313,42.1333629 L17.7064313,39.5963629 C19.0644313,40.8893629 20.6164313,41.9483629 22.3274313,42.7473629 C26.5454313,44.7143629 31.2824313,44.9193629 35.6644313,43.3233629 C40.0474313,41.7283629 43.5444313,38.5263629 45.5094313,34.3083629 C46.3094313,32.5983629 46.8004313,30.7903629 47.0084313,28.9323629 L52.5914313,26.9023629 Z M2.20643126,35.2293629 L8.68443126,32.8703629 C9.32043126,35.3163629 10.4674313,37.5793629 12.0564313,39.5253629 L5.33843126,41.9703629 C3.95643126,39.8933629 2.90543126,37.6323629 2.20643126,35.2293629 L2.20643126,35.2293629 Z M15.8394313,25.1463629 C15.8494313,25.8953629 15.9094313,26.6483629 16.0164313,27.4013629 L9.45543126,29.7913629 C9.30043126,29.0473629 9.18243126,28.3143629 9.10043126,27.5973629 L15.8394313,25.1463629 Z M38.9844313,20.9473629 C40.4754313,23.6223629 41.1444313,26.6293629 40.9194313,29.6443629 C40.8934313,29.9823629 41.0424313,30.3113629 41.3124313,30.5163629 C41.4884313,30.6493629 41.7014313,30.7193629 41.9164313,30.7193629 C42.0314313,30.7193629 42.1464313,30.6993629 42.2584313,30.6593629 L44.8864313,29.7033629 C44.6534313,30.9963629 44.2604313,32.2563629 43.6974313,33.4623629 C41.9574313,37.1973629 38.8604313,40.0313629 34.9794313,41.4443629 C31.1004313,42.8563629 26.9064313,42.6753629 23.1734313,40.9343629 C21.4844313,40.1463629 19.9704313,39.0713629 18.6754313,37.7423629 C18.4004313,37.4603629 17.9844313,37.3663629 17.6174313,37.5003629 L14.0734313,38.7913629 C12.2444313,36.7493629 10.9934313,34.2683629 10.4394313,31.5603629 L17.4824313,28.9963629 C17.9444313,28.8283629 18.2154313,28.3503629 18.1234313,27.8683629 C17.8594313,26.4983629 17.7784313,25.1223629 17.8804313,23.7773629 C17.9054313,23.4393629 17.7584313,23.1103629 17.4874313,22.9053629 C17.2164313,22.7003629 16.8614313,22.6483629 16.5414313,22.7623629 L14.4034313,23.5403629 C14.6354313,22.2333629 15.0244313,20.9753629 15.5784313,19.7863629 C19.1764313,12.0673629 28.3844313,8.71636289 36.1054313,12.3143629 C37.7644313,13.0893629 39.2744313,14.1663629 40.5924313,15.5133629 C40.8774313,15.8073629 41.3134313,15.8963629 41.6904313,15.7373629 L44.6084313,14.5253629 C45.2894313,15.2693629 45.8864313,16.1093629 46.4254313,17.0053629 L39.5154313,19.5213629 C39.2404313,19.6213629 39.0224313,19.8373629 38.9204313,20.1113629 C38.8184313,20.3863629 38.8414313,20.6913629 38.9844313,20.9473629 L38.9844313,20.9473629 Z M5.27643126,26.8603629 C5.18843126,23.1363629 5.96243126,19.4203629 7.53943126,16.0363629 C13.2064313,3.88836289 27.7004313,-1.38863711 39.8524313,4.27536289 C43.1184313,5.80036289 46.0144313,8.05836289 48.2994313,10.8273629 L41.5364313,13.6363629 C40.1684313,12.3373629 38.6284313,11.2853629 36.9514313,10.5023629 C28.2294313,6.43636289 17.8304313,10.2233629 13.7654313,18.9413629 C12.9804313,20.6263629 12.4934313,22.4323629 12.2814313,24.3123629 L5.27643126,26.8603629 Z M56.9004313,13.4813629 C56.2614313,12.1633629 54.4164313,9.32536289 54.3384313,9.20536289 C54.0744313,8.80036289 53.5604313,8.64336289 53.1164313,8.82736289 L50.2224313,10.0283629 C47.6944313,6.81436289 44.4174313,4.20036289 40.6984313,2.46336289 C27.5504313,-3.66763711 11.8594313,2.04236289 5.72643126,15.1913629 C3.81643126,19.2883629 2.99543126,23.8353629 3.35043126,28.3413629 C3.37543126,28.6533629 3.54443126,28.9353629 3.80643126,29.1043629 C4.06843126,29.2733629 4.39443126,29.3083629 4.68943126,29.2033629 L7.17343126,28.2993629 C7.29543126,29.2153629 7.47743126,30.1523629 7.70543126,31.0993629 L0.658431262,33.6653629 C0.175431262,33.8403629 -0.0945687376,34.3523629 0.0304312624,34.8493629 C0.841431262,38.0643629 2.22343126,41.0613629 4.13743126,43.7533629 C4.33043126,44.0233629 4.63643126,44.1743629 4.95343126,44.1743629 C5.06743126,44.1743629 5.18243126,44.1553629 5.29543126,44.1143629 L8.77943126,42.8473629 C11.3464313,46.2423629 14.7144313,48.9843629 18.5794313,50.7873629 C22.1664313,52.4593629 25.9404313,53.2513629 29.6584313,53.2513629 C39.5754313,53.2503629 49.0894313,47.6223629 53.5494313,38.0593629 C55.4614313,33.9633629 56.2804313,29.4173629 55.9174313,24.9103629 C55.8914313,24.5993629 55.7224313,24.3183629 55.4604313,24.1493629 C55.1974313,23.9813629 54.8724313,23.9453629 54.5784313,24.0513629 L51.9084313,25.0223629 L51.6094313,25.1313629 C51.2624313,22.4483629 50.4974313,19.8573629 49.3554313,17.3983629 L56.3424313,14.8563629 C56.6074313,14.7593629 56.8204313,14.5553629 56.9264313,14.2933629 C57.0334313,14.0303629 57.0234313,13.7353629 56.9004313,13.4813629 L56.9004313,13.4813629 Z" id="Fill-7"></path>
        </g>
    </g>
</svg>