<?xml version="1.0" encoding="UTF-8"?>
<svg width="80px" height="80px" viewBox="0 0 80 80" version="1.1" xmlns="http://www.w3.org/2000/svg" xmlns:xlink="http://www.w3.org/1999/xlink">
    <title>Icon-Architecture/64/Arch_Amazon-ECS-Anywhere_64</title>
    <g id="Icon-Architecture/64/Arch_Amazon-ECS-Anywhere_64" stroke="none" stroke-width="1" fill="none" fill-rule="evenodd">
        <g id="Icon-Architecture-BG/64/Containers" fill="#ED7100">
            <rect id="Rectangle" x="0" y="0" width="80" height="80"></rect>
        </g>
        <g id="Icon-Service/64/Amazon-ECS-Anywhere_64" transform="translate(15.000000, 12.000000)" fill="#FFFFFF">
            <path d="M47.954,38.3486787 L40.815,34.1805301 C41.557,32.2627998 41.98,30.1872689 41.98,28.0092177 C41.98,19.9523383 36.397,13.197063 28.92,11.4019549 L28.92,2.7912655 L47.954,14.3991623 L47.954,38.3486787 Z M24.973,53.9850152 L2,40.6533724 L2,14.3388563 L21.034,2.78624 L21.034,11.4019549 C13.557,13.1960579 7.974,19.9523383 7.974,28.0092177 C7.974,37.4330328 15.601,45.0999336 24.976,45.0999336 C29.548,45.0999336 33.696,43.2676368 36.755,40.307618 L42.564,43.7601356 L24.973,53.9850152 Z M33.958,26.9910517 C33.758,22.13642 32.805,17.4787879 31.373,14.3891113 C36.161,16.6706877 39.556,21.4147584 39.929,26.9910517 L33.958,26.9910517 Z M33.997,29.0012512 L39.93,29.0012512 C39.574,34.4669835 36.318,39.137682 31.687,41.4775541 C33.288,38.0582048 33.985,33.5322408 33.997,29.0012512 L33.997,29.0012512 Z M25.976,29.0012512 L31.982,29.0012512 C32.001,34.1956066 31.088,39.3969977 28.72,42.595225 C27.834,42.8253929 26.918,42.9761578 25.976,43.038474 L25.976,29.0012512 Z M21.277,42.6062811 C19.199,39.9668892 18.163,34.5835751 18.131,29.0012512 L23.976,29.0012512 L23.976,43.038474 C23.05,42.9771629 22.15,42.8304184 21.277,42.6062811 L21.277,42.6062811 Z M16.105,29.0012512 C16.137,33.7031077 16.873,38.2853574 18.328,41.5077071 C13.666,39.1778859 10.381,34.4911059 10.024,29.0012512 L16.105,29.0012512 Z M16.133,26.9910517 L10.025,26.9910517 C10.402,21.3584728 13.861,16.5721879 18.726,14.3187543 C17.172,17.6436242 16.3,22.2811544 16.133,26.9910517 L16.133,26.9910517 Z M23.976,26.9910517 L18.163,26.9910517 C18.366,21.5323551 19.525,16.19025 21.597,13.3297362 C22.37,13.1498233 23.164,13.035242 23.976,12.9809666 L23.976,26.9910517 Z M25.976,12.9809666 C26.81,13.0362471 27.625,13.1578641 28.416,13.3448127 C30.192,15.4253691 31.635,21.017744 31.926,26.9910517 L25.976,26.9910517 L25.976,12.9809666 Z M49.473,12.9739309 L28.438,0.145843008 C28.129,-0.0431157411 27.743,-0.0481412397 27.43,0.129761413 C27.114,0.307664065 26.92,0.642362275 26.92,1.00520328 L26.92,11.040119 C26.281,10.9667467 25.634,10.919507 24.976,10.919507 C24.319,10.919507 23.673,10.9657416 23.034,11.040119 L23.034,1.00520328 C23.034,0.642362275 22.84,0.308669165 22.525,0.129761413 C22.212,-0.0481412397 21.825,-0.0431157411 21.517,0.144837909 L0.483,12.9116147 C0.183,13.0935377 0,13.4201952 0,13.7719801 L0,41.2333149 C0,41.5931406 0.19,41.9248235 0.5,42.1037313 L24.473,56.0163217 C24.627,56.1057756 24.8,56.15 24.973,56.15 C25.145,56.15 25.318,56.1057756 25.474,56.0153166 L45.047,44.6395979 C45.354,44.4616952 45.544,44.1320225 45.546,43.774207 C45.548,43.4173966 45.36,43.0857137 45.055,42.9047957 L38.148,38.7999684 C38.847,37.9396031 39.463,37.0088807 39.987,36.0208677 L48.452,40.9639482 C48.607,41.0544071 48.78,41.0996366 48.954,41.0996366 C49.126,41.0996366 49.299,41.0554122 49.453,40.9659584 C49.763,40.7870506 49.954,40.4543626 49.954,40.0945369 L49.954,13.8332911 C49.954,13.4825113 49.771,13.156859 49.473,12.9739309 L49.473,12.9739309 Z" id="Fill-1"></path>
        </g>
    </g>
</svg>