<?xml version="1.0" encoding="UTF-8"?>
<svg width="80px" height="80px" viewBox="0 0 80 80" version="1.1" xmlns="http://www.w3.org/2000/svg" xmlns:xlink="http://www.w3.org/1999/xlink">
    <title>Icon-Architecture/64/Arch_AWS-Verified-Access_64</title>
    <g id="Icon-Architecture/64/Arch_AWS-Verified-Access_64" stroke="none" stroke-width="1" fill="none" fill-rule="evenodd">
        <g id="Icon-Architecture-BG/64/Networking-Content-Delivery" fill="#8C4FFF">
            <rect id="Rectangle" x="0" y="0" width="80" height="80"></rect>
        </g>
        <path d="M32.0660937,61.16 L31.3840937,63.041 C24.9460937,60.709 19.7800937,55.727 17.2130937,49.374 L19.0670937,48.625 C21.4220937,54.452 26.1600937,59.021 32.0660937,61.16 L32.0660937,61.16 Z M61.2590937,48.625 L63.1130937,49.374 C60.5200937,55.791 55.2940937,60.795 48.7720937,63.101 L48.1060937,61.216 C54.0870937,59.1 58.8800937,54.511 61.2590937,48.625 L61.2590937,48.625 Z M19.0670937,32.363 L17.2130937,31.614 C19.7350937,25.375 24.7900937,20.435 31.0810937,18.06 L31.7880937,19.931 C26.0160937,22.109 21.3800937,26.64 19.0670937,32.363 L19.0670937,32.363 Z M48.1060937,19.772 L48.7720937,17.887 C55.2940937,20.193 60.5200937,25.197 63.1130937,31.614 L61.2590937,32.363 C58.8800937,26.477 54.0870937,21.888 48.1060937,19.772 L48.1060937,19.772 Z M39.9980937,14 C41.6520937,14 42.9980937,15.346 42.9980937,17 C42.9980937,18.654 41.6520937,20 39.9980937,20 C38.3430937,20 36.9980937,18.654 36.9980937,17 C36.9980937,15.346 38.3430937,14 39.9980937,14 L39.9980937,14 Z M39.9980937,22 C42.7540937,22 44.9980937,19.757 44.9980937,17 C44.9980937,14.243 42.7540937,12 39.9980937,12 C37.2410937,12 34.9980937,14.243 34.9980937,17 C34.9980937,19.757 37.2410937,22 39.9980937,22 L39.9980937,22 Z M41.9170937,65.306 C40.6450937,66.364 38.7510937,66.19 37.6920937,64.919 C36.6330937,63.647 36.8070937,61.752 38.0790937,60.694 C38.6380937,60.228 39.3180937,60.001 39.9950937,60.001 C40.8560937,60.001 41.7110937,60.369 42.3030937,61.081 C43.3620937,62.352 43.1880937,64.247 41.9170937,65.306 L41.9170937,65.306 Z M36.7990937,59.157 C34.6800937,60.92 34.3910937,64.079 36.1550937,66.198 C37.1420937,67.385 38.5670937,67.998 40.0020937,67.9970012 C41.1290937,67.9970012 42.2630937,67.619 43.1960937,66.843 C45.3150937,65.079 45.6040937,61.92 43.8400937,59.802 C42.0770937,57.682 38.9190937,57.393 36.7990937,59.157 L36.7990937,59.157 Z M62.9980937,43 C61.3430937,43 59.9980937,41.654 59.9980937,40 C59.9980937,38.346 61.3430937,37 62.9980937,37 C64.6520937,37 65.9980937,38.346 65.9980937,40 C65.9980937,41.654 64.6520937,43 62.9980937,43 L62.9980937,43 Z M62.9980937,35 C60.2410937,35 57.9980937,37.243 57.9980937,40 C57.9980937,42.757 60.2410937,45 62.9980937,45 C65.7540937,45 67.9980937,42.757 67.9980937,40 C67.9980937,37.243 65.7540937,35 62.9980937,35 L62.9980937,35 Z M18.9170937,42.306 C17.6440937,43.364 15.7510937,43.19 14.6920937,41.919 C13.6340937,40.647 13.8070937,38.752 15.0790937,37.694 C16.3500937,36.637 18.2450937,36.81 19.3030937,38.081 C20.3620937,39.352 20.1880937,41.247 18.9170937,42.306 L18.9170937,42.306 Z M20.8400937,36.802 C19.0770937,34.681 15.9180937,34.394 13.7990937,36.157 C11.6800937,37.92 11.3910937,41.079 13.1550937,43.198 C14.1420937,44.385 15.5670937,44.997 17.0020937,44.997 C18.1290937,44.997 19.2630937,44.619 20.1960937,43.843 C22.3150937,42.079 22.6040937,38.92 20.8400937,36.802 L20.8400937,36.802 Z M38.2830937,47.128 L33.9160937,43.02 L35.2870937,41.563 L38.3730937,44.466 L45.5140937,38.596 L46.7840937,40.14 L38.2830937,47.128 Z M33.9980937,30.674 C33.9980937,29.2 35.4930937,28 37.3310937,28 L42.6660937,28 C44.5030937,28 45.9980937,29.2 45.9980937,30.674 L45.9980937,34 L33.9980937,34 L33.9980937,30.674 Z M29.9980937,51 L49.9980937,51 L49.9980937,36 L29.9980937,36 L29.9980937,51 Z M29.5520937,34 C28.6950937,34 27.9980937,34.697 27.9980937,35.555 L27.9980937,51.445 C27.9980937,52.303 28.6950937,53 29.5520937,53 L50.4430937,53 C51.3000937,53 51.9980937,52.303 51.9980937,51.445 L51.9980937,35.555 C51.9980937,34.697 51.3000937,34 50.4430937,34 L47.9980937,34 L47.9980937,30.674 C47.9980937,28.097 45.6060937,26 42.6660937,26 L37.3310937,26 C34.3900937,26 31.9980937,28.097 31.9980937,30.674 L31.9980937,34 L29.5520937,34 Z" id="Fill-3" fill="#FFFFFF"></path>
    </g>
</svg>