<?xml version="1.0" encoding="UTF-8"?>
<svg width="80px" height="80px" viewBox="0 0 80 80" version="1.1" xmlns="http://www.w3.org/2000/svg" xmlns:xlink="http://www.w3.org/1999/xlink">
    <title>Icon-Architecture/64/Arch_Amazon-VPC-Lattice_64</title>
    <g id="Icon-Architecture/64/Arch_Amazon-VPC-Lattice_64" stroke="none" stroke-width="1" fill="none" fill-rule="evenodd">
        <g id="Icon-Architecture-BG/64/Networking-Content-Delivery" fill="#8C4FFF">
            <rect id="Rectangle" x="0" y="0" width="80" height="80"></rect>
        </g>
        <path d="M49,43.943 C49,49.607 46.308,52.636 41,52.967 L41,27.806 L49,30.865 L49,43.943 Z M31,43.943 L31,30.865 L39,27.806 L39,52.957 C32.43,52.527 31,47.88 31,43.943 L31,43.943 Z M39.643,25.419 L29.643,29.242 C29.256,29.39 29,29.762 29,30.176 L29,43.943 C29,47.267 30.072,55 40,55 C47.094,55 51,51.073 51,43.943 L51,30.176 C51,29.762 50.744,29.39 50.357,29.242 L40.357,25.419 C40.127,25.331 39.873,25.331 39.643,25.419 L39.643,25.419 Z M54,43.943 C54,56.986 43.284,58 40,58 C26.675,58 26,46.29 26,43.943 L26,27.423 L40,22.07 L54,27.423 L54,43.943 Z M14,21 L21,21 L21,14 L14,14 L14,21 Z M59,21 L66,21 L66,14 L59,14 L59,21 Z M59,66 L66,66 L66,59 L59,59 L59,66 Z M14,66 L21,66 L21,59 L14,59 L14,66 Z M67,23 C67.553,23 68,22.552 68,22 L68,13 C68,12.447 67.553,12 67,12 L58,12 C57.447,12 57,12.447 57,13 L57,21.586 L53.496,25.09 L40.357,20.066 C40.127,19.978 39.873,19.978 39.643,20.066 L26.504,25.09 L23,21.586 L23,13 C23,12.447 22.553,12 22,12 L13,12 C12.447,12 12,12.447 12,13 L12,22 C12,22.552 12.447,23 13,23 L21.586,23 L24.48,25.894 C24.19,26.074 24,26.385 24,26.735 L24,43.943 C24,46.803 24.634,49.844 26.081,52.505 L21.586,57 L13,57 C12.447,57 12,57.447 12,58 L12,67 C12,67.552 12.447,68 13,68 L22,68 C22.553,68 23,67.552 23,67 L23,58.414 L27.188,54.226 C29.681,57.585 33.773,60 40,60 C46.7,60 50.6,57.41 52.868,54.282 L57,58.414 L57,67 C57,67.552 57.447,68 58,68 L67,68 C67.553,68 68,67.552 68,67 L68,58 C68,57.447 67.553,57 67,57 L58.414,57 L53.948,52.534 C55.817,48.981 56,45.23 56,43.943 L56,26.735 C56,26.385 55.81,26.074 55.52,25.894 L58.414,23 L67,23 Z" id="Fill-8" fill="#FFFFFF"></path>
    </g>
</svg>