<?xml version="1.0" encoding="UTF-8"?>
<svg width="80px" height="80px" viewBox="0 0 80 80" version="1.1" xmlns="http://www.w3.org/2000/svg" xmlns:xlink="http://www.w3.org/1999/xlink">
    <title>Icon-Architecture/64/Arch_AWS-Private-5G_64</title>
    <g id="Icon-Architecture/64/Arch_AWS-Private-5G_64" stroke="none" stroke-width="1" fill="none" fill-rule="evenodd">
        <g id="Icon-Architecture-BG/64/Networking-Content-Delivery" fill="#8C4FFF">
            <rect id="Rectangle" x="0" y="0" width="80" height="80"></rect>
        </g>
        <path d="M31.221,20.755 L22.224,13.918 L23.435,12.325 L32.432,19.162 L31.221,20.755 Z M48.179,20.73 L46.968,19.137 L55.964,12.3 L57.175,13.893 L48.179,20.73 Z M42,61.01 L45,61.01 L45,58.01 L42,58.01 L42,61.01 Z M35,61.01 L38,61.01 L38,58.01 L35,58.01 L35,61.01 Z M42,54.01 L45,54.01 L45,51.01 L42,51.01 L42,54.01 Z M35,54.01 L38,54.01 L38,51.01 L35,51.01 L35,54.01 Z M55.964,36.145 L46.968,29.308 L48.179,27.715 L57.175,34.552 L55.964,36.145 Z M50,26.01 L64,26.01 L64,24.01 L50,24.01 L50,26.01 Z M31.221,27.74 L32.432,29.333 L23.435,36.17 L22.224,34.577 L31.221,27.74 Z M17,26.01 L31,26.01 L31,24.01 L17,24.01 L17,26.01 Z M50,65.676 L50,58.56 C61.558,59.574 65.757,61.491 65.99,62.311 C65.526,63.344 59.978,64.98 50,65.676 L50,65.676 Z M48,65.802 C45.562,65.932 42.901,66.01 40,66.01 C37.1,66.01 34.439,65.932 32,65.802 L32,47.01 L48,47.01 L48,65.802 Z M30,56.586 C24.026,57.09 17.485,58.025 14.177,59.759 C15.659,47.865 26.065,38.775 39,38.323 L39,45.01 L30,45.01 L30,56.586 Z M30,65.677 C19.964,64.978 14.406,63.334 14.003,62.335 C14.207,61.524 18.406,59.598 30,58.598 L30,65.677 Z M36,24.01 C36,21.805 37.794,20.01 40,20.01 C42.206,20.01 44,21.805 44,24.01 C44,26.216 42.206,28.01 40,28.01 C37.794,28.01 36,26.216 36,24.01 L36,24.01 Z M65.706,59.688 C62.373,57.988 55.94,57.057 50,56.548 L50,45.01 L41,45.01 L41,38.324 C53.298,38.795 63.767,47.986 65.706,59.688 L65.706,59.688 Z M67.996,62.282 L67.999,62.281 C67.29,48.278 55.276,36.833 41,36.324 L41,29.92 C43.833,29.442 46,26.978 46,24.01 C46,20.702 43.309,18.01 40,18.01 C36.692,18.01 34,20.702 34,24.01 C34,26.978 36.167,29.442 39,29.92 L39,36.323 C24.159,36.807 12.384,47.9 12,61.983 L12.035,61.984 C12.013,62.098 12,62.214 12,62.332 C12,67.946 38.857,68.01 40,68.01 C41.144,68.01 68,67.946 68,62.332 C68,62.315 67.996,62.299 67.996,62.282 L67.996,62.282 Z" id="Fill-1" fill="#FFFFFF"></path>
    </g>
</svg>