<?xml version="1.0" encoding="UTF-8"?>
<svg width="80px" height="80px" viewBox="0 0 80 80" version="1.1" xmlns="http://www.w3.org/2000/svg" xmlns:xlink="http://www.w3.org/1999/xlink">
    <title>Icon-Architecture/64/Arch_AWS-Cloud-WAN_64</title>
    <g id="Icon-Architecture/64/Arch_AWS-Cloud-WAN_64" stroke="none" stroke-width="1" fill="none" fill-rule="evenodd">
        <g id="Icon-Architecture-BG/64/Networking-Content-Delivery" fill="#8C4FFF">
            <rect id="Rectangle" x="0" y="0" width="80" height="80"></rect>
        </g>
        <path d="M66,40 C66,37.794 64.206,36 62,36 C59.794,36 58,37.794 58,40 C58,42.206 59.794,44 62,44 C64.206,44 66,42.206 66,40 L66,40 Z M55.663,39 C55.485,36.19 54.578,33.577 53.11,31.357 C51.733,32.086 50.124,32.684 48.359,33.139 C48.737,34.95 48.959,36.924 49.016,39 L55.663,39 Z M55.663,41 L49.016,41 C48.964,42.924 48.764,44.755 48.434,46.454 C50.252,46.929 51.908,47.552 53.308,48.317 C54.656,46.169 55.493,43.676 55.663,41 L55.663,41 Z M52.138,49.967 C50.936,49.334 49.535,48.808 47.992,48.4 C47.275,51.062 46.221,53.293 44.936,54.909 C47.782,53.964 50.273,52.235 52.138,49.967 L52.138,49.967 Z M44,62 C44,59.794 42.206,58 40,58 C37.794,58 36,59.794 36,62 C36,64.206 37.794,66 40,66 C42.206,66 44,64.206 44,62 L44,62 Z M35.064,54.909 C33.779,53.293 32.725,51.062 32.008,48.399 C30.464,48.806 29.063,49.332 27.86,49.965 C29.726,52.234 32.218,53.963 35.064,54.909 L35.064,54.909 Z M31.566,46.454 C31.236,44.754 31.036,42.923 30.984,41 L24.337,41 C24.506,43.676 25.344,46.167 26.691,48.316 C28.091,47.551 29.748,46.928 31.566,46.454 L31.566,46.454 Z M24.337,39 L30.984,39 C31.041,36.924 31.263,34.95 31.641,33.139 C29.876,32.684 28.267,32.086 26.89,31.357 C25.422,33.577 24.515,36.19 24.337,39 L24.337,39 Z M28.124,29.74 C29.298,30.329 30.645,30.821 32.123,31.203 C32.835,28.717 33.844,26.625 35.064,25.091 C32.346,25.994 29.959,27.619 28.124,29.74 L28.124,29.74 Z M36,18 C36,20.206 37.794,22 40,22 C42.206,22 44,20.206 44,18 C44,15.794 42.206,14 40,14 C37.794,14 36,15.794 36,18 L36,18 Z M40,32.162 C42.057,32.162 44.053,31.973 45.916,31.633 C44.65,27.258 42.449,24.286 40,24.286 C37.551,24.286 35.35,27.258 34.084,31.633 C35.947,31.973 37.943,32.162 40,32.162 L40,32.162 Z M47.018,39 C46.96,37.087 46.744,35.257 46.395,33.574 C44.375,33.951 42.216,34.162 40,34.162 C37.784,34.162 35.625,33.951 33.605,33.574 C33.256,35.257 33.04,37.087 32.982,39 L47.018,39 Z M39.998,47.413 C37.901,47.413 35.867,47.609 33.973,47.962 C35.218,52.557 37.476,55.714 40,55.714 C42.524,55.714 44.782,52.558 46.027,47.963 C44.132,47.61 42.097,47.413 39.998,47.413 L39.998,47.413 Z M46.483,46.017 C46.784,44.45 46.965,42.757 47.018,41 L32.982,41 C33.035,42.757 33.216,44.449 33.517,46.017 C35.562,45.629 37.75,45.413 39.998,45.413 C42.248,45.413 44.438,45.629 46.483,46.017 L46.483,46.017 Z M44.936,25.091 C46.156,26.625 47.165,28.717 47.877,31.204 C49.355,30.821 50.702,30.329 51.876,29.74 C50.041,27.619 47.654,25.994 44.936,25.091 L44.936,25.091 Z M22,40 C22,37.794 20.206,36 18,36 C15.794,36 14,37.794 14,40 C14,42.206 15.794,44 18,44 C20.206,44 22,42.206 22,40 L22,40 Z M68,40 C68,43.309 65.309,46 62,46 C60.102,46 58.411,45.112 57.31,43.732 C55.851,50.508 50.508,55.851 43.733,57.311 C45.112,58.411 46,60.102 46,62 C46,65.309 43.309,68 40,68 C36.691,68 34,65.309 34,62 C34,60.102 34.888,58.411 36.267,57.311 C29.492,55.851 24.149,50.508 22.69,43.732 C21.589,45.112 19.898,46 18,46 C14.691,46 12,43.309 12,40 C12,36.691 14.691,34 18,34 C19.898,34 21.589,34.888 22.69,36.268 C24.149,29.492 29.492,24.149 36.267,22.689 C34.888,21.589 34,19.898 34,18 C34,14.691 36.691,12 40,12 C43.309,12 46,14.691 46,18 C46,19.898 45.112,21.589 43.733,22.689 C50.508,24.149 55.851,29.492 57.31,36.268 C58.411,34.888 60.102,34 62,34 C65.309,34 68,36.691 68,40 L68,40 Z M60.496,48.359 C58.249,53.848 53.849,58.248 48.359,60.496 C48.447,60.985 48.5,61.486 48.5,62 C48.5,62.205 48.484,62.406 48.469,62.607 C54.973,60.162 60.162,54.972 62.607,48.469 C62.406,48.484 62.205,48.5 62,48.5 C61.486,48.5 60.985,48.447 60.496,48.359 L60.496,48.359 Z M31.641,60.496 C26.151,58.248 21.751,53.848 19.504,48.359 C19.015,48.447 18.514,48.5 18,48.5 C17.795,48.5 17.594,48.484 17.393,48.469 C19.838,54.972 25.027,60.162 31.531,62.607 C31.516,62.406 31.5,62.205 31.5,62 C31.5,61.486 31.553,60.985 31.641,60.496 L31.641,60.496 Z M19.504,31.641 C21.751,26.152 26.151,21.752 31.641,19.504 C31.553,19.015 31.5,18.514 31.5,18 C31.5,17.795 31.516,17.594 31.531,17.393 C25.027,19.838 19.838,25.028 17.393,31.531 C17.594,31.516 17.795,31.5 18,31.5 C18.514,31.5 19.015,31.553 19.504,31.641 L19.504,31.641 Z M48.5,18 C48.5,17.795 48.484,17.594 48.469,17.393 C54.973,19.838 60.162,25.028 62.607,31.531 C62.406,31.516 62.205,31.5 62,31.5 C61.486,31.5 60.985,31.553 60.496,31.641 C58.249,26.152 53.849,21.752 48.359,19.504 C48.447,19.015 48.5,18.514 48.5,18 L48.5,18 Z" id="Fill-1" fill="#FFFFFF"></path>
    </g>
</svg>