<svg width="80" height="80" viewBox="0 0 80 80" fill="none" xmlns="http://www.w3.org/2000/svg">
<g clip-path="url(#clip0_20_133)">
<rect width="80" height="80" fill="#8C4FFF"/>
<path d="M67.9668 40.3119C67.9668 45.4828 65.2129 48.1405 62.9023 49.4599L61.9102 47.7226C64.6025 46.1864 65.9668 43.6928 65.9668 40.3119C65.9668 33.4086 59.7959 31.8095 57.9043 31.4833C57.3682 31.391 57.0039 30.8866 57.085 30.3485L57.0908 30.3148C57.0703 27.3173 55.8115 25.1908 53.6299 24.474C51.6875 23.8349 49.5459 24.54 48.3027 26.2275C48.084 26.5253 47.7129 26.6762 47.3506 26.6235C46.9844 26.5688 46.6777 26.3158 46.5547 25.9667C45.7334 23.6337 44.543 21.6728 43.0166 20.1381C41.1426 18.2533 36.001 14.2016 28.7451 17.2831C24.5508 19.0649 21.2656 24.1967 21.2656 28.9667L21.3642 30.6122C21.3926 31.0902 21.0781 31.5209 20.6152 31.64C18.1318 32.2773 13.9668 34.2406 13.9668 40.2284C13.9668 42.7646 14.751 44.9335 16.2978 46.6747C16.9111 47.3647 17.6299 47.9716 18.4336 48.4784L17.3672 50.1698C16.4043 49.5629 15.542 48.8339 14.8037 48.0028C12.9209 45.8852 11.9668 43.269 11.9668 40.2284C11.9668 33.3554 16.6152 30.8251 19.3213 29.936L19.2676 29.0258C19.2656 23.3627 23.0049 17.5487 27.9639 15.4423C33.7783 12.9731 39.9365 14.203 44.4346 18.7279C45.832 20.1332 46.9765 21.8388 47.8515 23.8124C49.6201 22.3432 52.0263 21.8412 54.2549 22.5741C57.0967 23.5077 58.8642 26.1386 59.0703 29.6816C61.9385 30.3588 67.9668 32.6918 67.9668 40.3119ZM55.9668 42.9872V50.9872H53.9668V43.9872H39.4104C38.7167 45.177 37.4409 45.9872 35.9668 45.9872C34.4927 45.9872 33.2169 45.177 32.5232 43.9872H23.9668V41.9872H31.9668C31.9668 40.5133 32.777 39.2374 33.9668 38.5435V31.9872C33.9668 31.435 34.4141 30.9872 34.9668 30.9872H45.9668C46.5195 30.9872 46.9668 31.435 46.9668 31.9872V39.9872H44.9668V32.9872H35.9668V37.9872C38.1728 37.9872 39.9668 39.7816 39.9668 41.9872H54.9668C55.5195 41.9872 55.9668 42.435 55.9668 42.9872ZM37.9668 41.9872C37.9668 40.8842 37.0693 39.9872 35.9668 39.9872C34.8643 39.9872 33.9668 40.8842 33.9668 41.9872C33.9668 43.0902 34.8643 43.9872 35.9668 43.9872C37.0693 43.9872 37.9668 43.0902 37.9668 41.9872ZM49.8247 52.9872H55.9668V54.9872H49.8247C49.4612 56.386 48.3657 57.4816 46.9668 57.8452V64.9872C46.9668 65.5395 46.5195 65.9872 45.9668 65.9872H34.9668C34.4141 65.9872 33.9668 65.5395 33.9668 64.9872V56.9872H35.9668V63.9872H44.9668V57.8452C43.5679 57.4816 42.4724 56.386 42.1089 54.9872H24.9668C24.4141 54.9872 23.9668 54.5395 23.9668 53.9872V45.9872H25.9668V52.9872H42.1089C42.5559 51.2669 44.1082 49.9872 45.9668 49.9872C47.8254 49.9872 49.3777 51.2669 49.8247 52.9872ZM47.9668 53.9872C47.9668 52.8842 47.0693 51.9872 45.9668 51.9872C44.8643 51.9872 43.9668 52.8842 43.9668 53.9872C43.9668 55.0902 44.8643 55.9872 45.9668 55.9872C47.0693 55.9872 47.9668 55.0902 47.9668 53.9872Z" fill="white"/>
</g>
<defs>
<clipPath id="clip0_20_133">
<rect width="80" height="80" fill="white"/>
</clipPath>
</defs>
</svg>
