<svg width="24" height="24" viewBox="0 0 24 24" fill="none" xmlns="http://www.w3.org/2000/svg">
<rect width="24" height="24" fill="#8C4FFF"/>
<path d="M18.7441 8.84205L17 7.86891V5.96315C17 5.78542 16.9053 5.62135 16.752 5.53151L14.248 4.06812C14.0957 3.97828 13.9033 3.9773 13.749 4.06519L11.5 5.34546L9.25098 4.06519C9.09668 3.9773 8.9043 3.97828 8.75196 4.06812L6.24805 5.5315C6.09473 5.62134 6 5.78541 6 5.96314V7.8689L4.25586 8.84204C4.09766 8.93042 4 9.09741 4 9.27856V13.7444C4 13.9255 4.09766 14.0925 4.25586 14.1809L6 15.1545V17.0598C6 17.2375 6.09473 17.4016 6.24805 17.4914L8.75196 18.9548C8.9043 19.0447 9.09669 19.0456 9.25098 18.9578L11.5 17.6775L13.749 18.9578C13.8252 19.0012 13.9111 19.0232 13.9961 19.0232C14.083 19.0232 14.1709 19.0002 14.248 18.9548L16.752 17.4914C16.9053 17.4016 17 17.2375 17 17.0598V15.1545L18.7441 14.1809C18.9023 14.0925 19 13.9255 19 13.7444V9.27856C19 9.09741 18.9023 8.93043 18.7441 8.84205ZM11.5 12.2307L10.8799 11.8709V11.1575L11.5 10.7937L12.1201 11.1575V11.8709L11.5 12.2307ZM9.00684 17.9461L7 16.7727V14.8611C7 14.6799 6.90234 14.513 6.74414 14.4246L5 13.4509V9.57203L6.74414 8.59889C6.90234 8.51051 7 8.34352 7 8.16237V6.25026L9.00684 5.07692L11 6.21132V9.92793L10.1269 10.4402C9.97363 10.53 9.87988 10.6941 9.87988 10.8714V12.159C9.87988 12.3372 9.97461 12.5022 10.1289 12.5916L11 13.097V16.8117L9.00684 17.9461ZM18 13.4509L16.2559 14.4246C16.0977 14.513 16 14.6799 16 14.8611V16.7727L13.9932 17.9461L12 16.8117V13.097L12.8711 12.5916C13.0254 12.5022 13.1201 12.3372 13.1201 12.1589V10.8713C13.1201 10.6941 13.0264 10.53 12.873 10.4402L12 9.92792V6.21131L13.9931 5.07691L16 6.25025V8.16236C16 8.34351 16.0976 8.5105 16.2558 8.59888L18 9.57202L18 13.4509Z" fill="white"/>
</svg>
