<?xml version="1.0" encoding="UTF-8"?>
<svg width="24px" height="24px" viewBox="0 0 24 24" version="1.1" xmlns="http://www.w3.org/2000/svg" xmlns:xlink="http://www.w3.org/1999/xlink">
    <title>Icon-Architecture/16/Arch_Amazon-Kinesis-Video-Streams_16</title>
    <g id="Icon-Architecture/16/Arch_Amazon-Kinesis-Video-Streams_16" stroke="none" stroke-width="1" fill="none" fill-rule="evenodd">
        <g id="Icon-Architecture-BG/16/Analytics" fill="#8C4FFF">
            <rect id="Rectangle" x="0" y="0" width="24" height="24"></rect>
        </g>
        <g id="Icon-Service/16/Amazon-Kinesis-Video-Streams" transform="translate(5.000000, 5.000000)" fill="#FFFFFF">
            <path d="M4.106,8.841 L4.118,8.841 C2.953,9.39 2.747,10.035 2.747,10.665 L1.747,10.665 C1.747,9.304 2.487,8.386 4.106,7.755 L4.106,8.841 Z M13.106,12.612 C13.106,12.738 13.003,12.841 12.877,12.841 L6.335,12.841 C6.209,12.841 6.106,12.738 6.106,12.612 L6.106,8.07 C6.106,7.944 6.209,7.841 6.335,7.841 L12.877,7.841 C13.003,7.841 13.106,7.944 13.106,8.07 L13.106,12.612 Z M12.877,6.841 L6.335,6.841 C5.657,6.841 5.106,7.392 5.106,8.07 L5.106,12.612 C5.106,13.29 5.657,13.841 6.335,13.841 L12.877,13.841 C13.555,13.841 14.106,13.29 14.106,12.612 L14.106,8.07 C14.106,7.392 13.555,6.841 12.877,6.841 L12.877,6.841 Z M14.107,4.833 L14.107,5.833 C2.49,5.833 1,7.225 1,8.438 L0,8.438 C0,7.002 1.001,5.921 4.854,5.333 C1.001,4.744 0,3.664 0,2.228 L1,2.228 C1,3.441 2.49,4.833 14.107,4.833 L14.107,4.833 Z M14.107,3.029 L14.107,4.029 C3.244,4.029 1.747,2.092 1.747,8.8817842e-16 L2.747,8.8817842e-16 C2.747,0.906 2.747,3.029 14.107,3.029 L14.107,3.029 Z M9.069,10.798 L9.069,9.884 L9.982,10.341 L9.069,10.798 Z M11.324,9.894 L8.793,8.628 C8.637,8.55 8.454,8.56 8.306,8.65 C8.159,8.741 8.069,8.902 8.069,9.075 L8.069,11.607 C8.069,11.78 8.159,11.941 8.306,12.032 C8.386,12.082 8.477,12.107 8.569,12.107 C8.645,12.107 8.722,12.089 8.793,12.054 L11.324,10.788 C11.493,10.703 11.6,10.53 11.6,10.341 C11.6,10.152 11.493,9.979 11.324,9.894 L11.324,9.894 Z" id="Amazon-Kinesis-Video-Streams_16_Squid"></path>
        </g>
    </g>
</svg>