<?xml version="1.0" encoding="UTF-8"?>
<svg width="24px" height="24px" viewBox="0 0 24 24" version="1.1" xmlns="http://www.w3.org/2000/svg" xmlns:xlink="http://www.w3.org/1999/xlink">
    <title>Icon-Architecture/16/Arch_Amazon-Managed-Service-for-Apache-Flink_16</title>
    <g id="Icon-Architecture/16/Arch_Amazon-Managed-Service-for-Apache-Flink_16" stroke="none" stroke-width="1" fill="none" fill-rule="evenodd">
        <g id="Icon-Architecture-BG/16/Analytics" fill="#8C4FFF">
            <rect id="Rectangle" x="0" y="0" width="24" height="24"></rect>
        </g>
        <g id="Icon-Service/16/Amazon-Managed-Service-for-Apache-Flink_16" transform="translate(4.000000, 4.000000)" fill="#FFFFFF">
            <path d="M8.618,4.31445928 C8.981,4.66345928 8.992,5.24245928 8.643,5.60545928 C8.294,5.96845928 7.715,5.97845928 7.352,5.63045928 C6.989,5.28145928 6.978,4.70245928 7.327,4.33945928 C7.506,4.15345928 7.746,4.06045928 7.985,4.06045928 C8.214,4.06045928 8.441,4.14445928 8.618,4.31445928 L8.618,4.31445928 Z M9.364,6.29845928 C10.096,5.53845928 10.072,4.32545928 9.311,3.59345928 C8.552,2.86245928 7.338,2.88545928 6.606,3.64645928 C5.875,4.40645928 5.898,5.62045928 6.659,6.35145928 C7.029,6.70845928 7.508,6.88445928 7.985,6.88445928 C8.487,6.88445928 8.989,6.68845928 9.364,6.29845928 L9.364,6.29845928 Z M6.872,7.73045928 C6.855,7.59245928 6.783,7.46845928 6.673,7.38645928 L6.07,6.94045928 C5.957,6.85645928 5.814,6.82545928 5.675,6.85245928 L4.44,7.09945928 L3.858,5.30345928 L5.014,4.77345928 C5.14,4.71545928 5.237,4.60645928 5.281,4.47445928 L5.508,3.78045928 C5.551,3.64745928 5.537,3.50245928 5.468,3.38045928 L4.847,2.27345928 L6.374,1.16645928 L7.227,2.09245928 C7.322,2.19545928 7.456,2.25345928 7.596,2.25345928 L7.598,2.25345928 L8.347,2.24945928 C8.486,2.24845928 8.618,2.19045928 8.712,2.08845928 L9.56,1.16845928 L11.087,2.27845928 L10.468,3.38045928 C10.399,3.50145928 10.385,3.64545928 10.427,3.77645928 L10.649,4.47845928 C10.692,4.61245928 10.789,4.72245928 10.917,4.78145928 L12.069,5.31045928 L11.485,7.10445928 L10.241,6.85545928 C10.102,6.82845928 9.961,6.85845928 9.847,6.94145928 L9.252,7.37745928 C9.14,7.46045928 9.067,7.58545928 9.051,7.72345928 L8.904,8.97645928 L7.016,8.97445928 L6.872,7.73045928 Z M9.846,9.53545928 L10.018,8.05545928 L10.261,7.87845928 L11.724,8.17245928 C11.975,8.22245928 12.22,8.07745928 12.299,7.83645928 L13.158,5.19645928 C13.236,4.95545928 13.122,4.69245928 12.891,4.58645928 L11.535,3.96445928 L11.445,3.68145928 L12.176,2.38045928 C12.301,2.15945928 12.239,1.88045928 12.034,1.73145928 L9.789,0.0974592779 C9.586,-0.0515407221 9.3,-0.0235407221 9.128,0.163459278 L8.124,1.25145928 L7.813,1.25245928 L6.808,0.161459278 C6.636,-0.0255407221 6.353,-0.0535407221 6.146,0.0954592779 L3.898,1.72545928 C3.693,1.87445928 3.632,2.15345928 3.757,2.37545928 L4.488,3.67845928 L4.398,3.95545928 L3.037,4.58045928 C2.806,4.68645928 2.692,4.94745928 2.77,5.18845928 L3.626,7.83045928 C3.703,8.07145928 3.944,8.21745928 4.2,8.16745928 L5.653,7.87645928 L5.903,8.06145928 L6.074,9.53145928 C6.103,9.78345928 6.317,9.97345928 6.57,9.97445928 L9.347,9.97745928 L9.348,9.97745928 C9.602,9.97745928 9.815,9.78745928 9.846,9.53545928 L9.846,9.53545928 Z M15.793,12.2444593 L15.999,12.0654593 L15.345,11.3104593 L15.137,11.4894593 C14.613,11.9464593 13.661,11.9474593 13.136,11.4884593 L12.726,11.1334593 C11.829,10.3484593 10.309,10.3474593 9.412,11.1314593 L8.999,11.4894593 C8.475,11.9464593 7.523,11.9474593 6.998,11.4884593 L6.589,11.1334593 C5.691,10.3484593 4.172,10.3474593 3.274,11.1314593 L2.861,11.4894593 C2.338,11.9464593 1.386,11.9474593 0.86,11.4884593 L0.654,11.3104593 L8.8817842e-16,12.0654593 L0.204,12.2424593 C1.101,13.0284593 2.62,13.0294593 3.517,12.2444593 L3.931,11.8864593 C4.454,11.4284593 5.407,11.4284593 5.932,11.8874593 L6.342,12.2424593 C7.24,13.0284593 8.759,13.0294593 9.655,12.2444593 L10.068,11.8864593 C10.593,11.4284593 11.546,11.4284593 12.07,11.8874593 L12.479,12.2424593 C12.929,12.6354593 13.533,12.8324593 14.138,12.8324593 C14.741,12.8324593 15.345,12.6364593 15.793,12.2444593 L15.793,12.2444593 Z M14.139,15.9794593 C13.534,15.9794593 12.929,15.7824593 12.479,15.3894593 L12.07,15.0344593 C11.546,14.5754593 10.593,14.5744593 10.068,15.0334593 L9.655,15.3904593 C8.759,16.1754593 7.24,16.1754593 6.342,15.3894593 L5.932,15.0344593 C5.407,14.5754593 4.454,14.5744593 3.931,15.0334593 L3.517,15.3904593 C2.62,16.1754593 1.101,16.1754593 0.204,15.3894593 L0.001,15.2134593 L0.653,14.4564593 L0.859,14.6344593 C1.386,15.0934593 2.337,15.0954593 2.861,14.6364593 L3.274,14.2784593 C4.172,13.4944593 5.691,13.4944593 6.589,14.2804593 L6.998,14.6344593 C7.523,15.0944593 8.475,15.0944593 8.999,14.6364593 L9.412,14.2784593 C10.309,13.4944593 11.829,13.4944593 12.726,14.2804593 L13.136,14.6344593 C13.661,15.0944593 14.613,15.0944593 15.137,14.6364593 L15.346,14.4564593 L15.998,15.2134593 L15.792,15.3914593 C15.345,15.7834593 14.741,15.9794593 14.139,15.9794593 L14.139,15.9794593 Z" id="Fill-3"></path>
        </g>
    </g>
</svg>