<?xml version="1.0" encoding="UTF-8"?>
<svg width="24px" height="24px" viewBox="0 0 24 24" version="1.1" xmlns="http://www.w3.org/2000/svg" xmlns:xlink="http://www.w3.org/1999/xlink">
    <title>Icon-Architecture/16/Arch_AWS-Entity-Resolution_16</title>
    <g id="Icon-Architecture/16/Arch_AWS-Entity-Resolution_16" stroke="none" stroke-width="1" fill="none" fill-rule="evenodd">
        <g id="Icon-Architecture-BG/16/Analytics" fill="#8C4FFF">
            <rect id="Rectangle" x="0" y="0" width="24" height="24"></rect>
        </g>
        <g id="Icon-Service/16/AWS-Entity-Resolution_16" transform="translate(4.000000, 4.000000)" fill="#FFFFFF">
            <path d="M14,12 C13.448,12 13,11.551 13,11 C13,10.449 13.448,10 14,10 C14.552,10 15,10.449 15,11 C15,11.551 14.552,12 14,12 L14,12 Z M9.585,12.794 C9.499,12.681 9.402,12.58 9.294,12.488 L11.105,8.929 L12.238,10.074 C12.091,10.352 12,10.664 12,11 C12,11.157 12.023,11.308 12.057,11.455 L9.585,12.794 Z M8,15 C7.448,15 7,14.551 7,14 C7,13.449 7.448,13 8,13 C8.552,13 9,13.449 9,14 C9,14.551 8.552,15 8,15 L8,15 Z M1,7 C1,6.449 1.448,6 2,6 C2.552,6 3,6.449 3,7 C3,7.551 2.552,8 2,8 C1.448,8 1,7.551 1,7 L1,7 Z M7.469,5.256 L10.364,8.181 L8.401,12.041 C8.271,12.014 8.137,12 8,12 C7.696,12 7.412,12.073 7.154,12.195 L3.661,8.111 C3.875,7.793 4,7.411 4,7 C4,6.892 3.985,6.788 3.968,6.685 L7.469,5.256 Z M6.694,3.052 C6.885,2.745 7,2.387 7,2 L12,2 C12,2.108 12.015,2.211 12.032,2.314 L7.71,4.078 L6.694,3.052 Z M4,2 C4,1.449 4.448,1 5,1 C5.552,1 6,1.449 6,2 C6,2.551 5.552,3 5,3 C4.448,3 4,2.551 4,2 L4,2 Z M14,1 C14.552,1 15,1.449 15,2 C15,2.551 14.552,3 14,3 C13.448,3 13,2.551 13,2 C13,1.449 13.448,1 14,1 L14,1 Z M10.842,7.242 L8.471,4.847 L12.434,3.229 C12.522,3.341 12.621,3.441 12.73,3.532 L10.842,7.242 Z M14,9 C13.597,9 13.222,9.122 12.907,9.328 L11.583,7.99 L13.632,3.963 C13.751,3.985 13.874,4 14,4 C15.103,4 16,3.103 16,2 C16,0.897 15.103,0 14,0 C13.263,0 12.625,0.405 12.278,1 L6.722,1 C6.375,0.405 5.737,0 5,0 C3.897,0 3,0.897 3,2 C3,3.103 3.897,4 5,4 C5.353,4 5.68,3.9 5.968,3.739 L6.708,4.487 L3.565,5.77 C3.198,5.305 2.637,5 2,5 C0.897,5 0,5.897 0,7 C0,8.103 0.897,9 2,9 C2.329,9 2.636,8.912 2.91,8.771 L6.383,12.833 C6.145,13.162 6,13.563 6,14 C6,15.103 6.897,16 8,16 C9.103,16 10,15.103 10,14 C10,13.905 9.985,13.813 9.972,13.721 L12.525,12.339 C12.891,12.742 13.414,13 14,13 C15.103,13 16,12.103 16,11 C16,9.897 15.103,9 14,9 L14,9 Z" id="Fill-3"></path>
        </g>
    </g>
</svg>