<?xml version="1.0" encoding="UTF-8"?>
<svg width="24px" height="24px" viewBox="0 0 24 24" version="1.1" xmlns="http://www.w3.org/2000/svg" xmlns:xlink="http://www.w3.org/1999/xlink">
    <title>Icon-Architecture/16/Arch_Amazon-DataZone_16</title>
    <g id="Icon-Architecture/16/Arch_Amazon-DataZone_16" stroke="none" stroke-width="1" fill="none" fill-rule="evenodd">
        <g id="Icon-Architecture-BG/16/Analytics" fill="#8C4FFF">
            <rect id="Rectangle" x="0" y="0" width="24" height="24"></rect>
        </g>
        <path d="M17.98125,16.49525 C17.98125,15.66825 17.30825,14.99525 16.48125,14.99525 C15.65425,14.99525 14.98125,15.66825 14.98125,16.49525 C14.98125,17.32225 15.65425,17.99525 16.48125,17.99525 C17.30825,17.99525 17.98125,17.32225 17.98125,16.49525 L17.98125,16.49525 Z M14.49425,14.99525 C14.63325,14.81125 14.79725,14.64725 14.98125,14.50825 L14.98125,9.48225 C14.79725,9.34325 14.63325,9.17925 14.49425,8.99525 L9.46825,8.99525 C9.32925,9.17925 9.16525,9.34325 8.98125,9.48225 L8.98125,14.50825 C9.16525,14.64725 9.32925,14.81125 9.46825,14.99525 L14.49425,14.99525 Z M8.98125,16.49525 C8.98125,15.66825 8.30825,14.99525 7.48125,14.99525 C6.65425,14.99525 5.98125,15.66825 5.98125,16.49525 C5.98125,17.32225 6.65425,17.99525 7.48125,17.99525 C8.30825,17.99525 8.98125,17.32225 8.98125,16.49525 L8.98125,16.49525 Z M7.48125,8.99525 C8.30825,8.99525 8.98125,8.32225 8.98125,7.49525 C8.98125,6.66825 8.30825,5.99525 7.48125,5.99525 C6.65425,5.99525 5.98125,6.66825 5.98125,7.49525 C5.98125,8.32225 6.65425,8.99525 7.48125,8.99525 L7.48125,8.99525 Z M14.98125,7.49525 C14.98125,8.32225 15.65425,8.99525 16.48125,8.99525 C17.30825,8.99525 17.98125,8.32225 17.98125,7.49525 C17.98125,6.66825 17.30825,5.99525 16.48125,5.99525 C15.65425,5.99525 14.98125,6.66825 14.98125,7.49525 L14.98125,7.49525 Z M18.98125,16.49525 C18.98125,17.87325 17.86025,18.99525 16.48125,18.99525 C15.10225,18.99525 13.98125,17.87325 13.98125,16.49525 C13.98125,16.32425 13.99925,16.15725 14.03225,15.99525 L9.93025,15.99525 C9.96325,16.15725 9.98125,16.32425 9.98125,16.49525 C9.98125,17.87325 8.86025,18.99525 7.48125,18.99525 C6.10225,18.99525 4.98125,17.87325 4.98125,16.49525 C4.98125,15.11725 6.10225,13.99525 7.48125,13.99525 C7.65225,13.99525 7.81925,14.01325 7.98125,14.04625 L7.98125,9.94425 C7.81925,9.97725 7.65225,9.99525 7.48125,9.99525 C6.10225,9.99525 4.98125,8.87325 4.98125,7.49525 C4.98125,6.11725 6.10225,4.99525 7.48125,4.99525 C8.86025,4.99525 9.98125,6.11725 9.98125,7.49525 C9.98125,7.66625 9.96325,7.83325 9.93025,7.99525 L14.03225,7.99525 C13.99925,7.83325 13.98125,7.66625 13.98125,7.49525 C13.98125,6.11725 15.10225,4.99525 16.48125,4.99525 C17.86025,4.99525 18.98125,6.11725 18.98125,7.49525 C18.98125,8.87325 17.86025,9.99525 16.48125,9.99525 C16.31025,9.99525 16.14325,9.97725 15.98125,9.94425 L15.98125,14.04625 C16.14325,14.01325 16.31025,13.99525 16.48125,13.99525 C17.86025,13.99525 18.98125,15.11725 18.98125,16.49525 L18.98125,16.49525 Z M6.33525,13.10425 L5.20725,11.97625 L6.33525,10.84825 L5.62725,10.14125 L4.14625,11.62225 C3.95125,11.81825 3.95125,12.13425 4.14625,12.32925 L5.62725,13.81125 L6.33525,13.10425 Z M11.97625,18.78425 L10.83425,17.64125 L10.12725,18.34925 L11.62325,19.84425 C11.72025,19.94225 11.84825,19.99125 11.97625,19.99125 C12.10425,19.99125 12.23225,19.94225 12.33025,19.84425 L13.82625,18.34925 L13.11925,17.64125 L11.97625,18.78425 Z M11.97625,5.20625 L13.11925,6.34925 L13.82625,5.64125 L12.33025,4.14625 C12.13425,3.95125 11.81825,3.95125 11.62325,4.14625 L10.12725,5.64125 L10.83425,6.34925 L11.97625,5.20625 Z M19.80625,12.32925 L18.33525,13.80125 L17.62725,13.09425 L18.74625,11.97625 L17.62725,10.85825 L18.33525,10.15125 L19.80625,11.62225 C20.00225,11.81825 20.00225,12.13425 19.80625,12.32925 L19.80625,12.32925 Z" id="Fill-8" fill="#FFFFFF"></path>
    </g>
</svg>