<?xml version="1.0" encoding="UTF-8"?>
<svg width="24px" height="24px" viewBox="0 0 24 24" version="1.1" xmlns="http://www.w3.org/2000/svg" xmlns:xlink="http://www.w3.org/1999/xlink">
    <title>Icon-Architecture/16/Arch_AWS-Glue-DataBrew_16</title>
    <g id="Icon-Architecture/16/Arch_AWS-Glue-DataBrew_16" stroke="none" stroke-width="1" fill="none" fill-rule="evenodd">
        <g id="Icon-Architecture-BG/16/Analytics" fill="#8C4FFF">
            <rect id="Rectangle" x="0" y="0" width="24" height="24"></rect>
        </g>
        <g id="Icon-Service/16/AWS-Glue-DataBrew_16" transform="translate(4.000000, 5.000000)" fill="#FFFFFF">
            <path d="M1,5.997 C1,5.721 1.225,5.497 1.5,5.497 C1.775,5.497 2,5.721 2,5.997 C2,6.273 1.775,6.497 1.5,6.497 C1.225,6.497 1,6.273 1,5.997 L1,5.997 Z M3,5.997 C3,5.17 2.327,4.497 1.5,4.497 C0.673,4.497 0,5.17 0,5.997 C0,6.824 0.673,7.497 1.5,7.497 C2.327,7.497 3,6.824 3,5.997 L3,5.997 Z M6.594,10.042 L7.469,10.527 C6.53,12.22 4.308,13.497 2.3,13.497 L1,13.497 L1,12.497 L2.3,12.497 C3.742,12.497 5.742,11.579 6.594,10.042 L6.594,10.042 Z M9.148,4.688 L8.266,4.217 C9.254,2.365 11.331,1.121 13.433,1.121 L14.301,1.121 L13.887,0.707 L14.594,0 L15.832,1.238 C16.027,1.434 16.027,1.75 15.832,1.945 L14.594,3.184 L13.887,2.476 L14.242,2.121 L13.485,2.121 C11.982,2.121 10.095,2.914 9.148,4.688 L9.148,4.688 Z M15.832,11.63 C16.027,11.825 16.027,12.142 15.832,12.337 L14.594,13.576 L13.887,12.869 L14.258,12.497 L12.56,12.497 C9.535,12.497 7.067,10.08 7.009,7.109 C6.956,4.48 5.05,2.497 2.575,2.497 L1,2.497 L1,1.497 L2.575,1.497 C5.559,1.497 7.945,3.953 8.009,7.089 C8.057,9.519 10.075,11.497 12.509,11.497 L14.285,11.497 L13.887,11.099 L14.594,10.392 L15.832,11.63 Z M4.061,8.292 L4.892,8.67 L4.515,9.5 L3.684,9.122 L4.061,8.292 Z M5.011,10.825 L6.216,8.173 L3.564,6.968 L2.359,9.62 L5.011,10.825 Z M10,8.217 L11,8.217 L11,6.217 L10,6.217 L10,8.217 Z M9,9.217 L12,9.217 L12,5.217 L9,5.217 L9,9.217 Z M14,8.217 L15,8.217 L15,6.217 L14,6.217 L14,8.217 Z M13,9.217 L16,9.217 L16,5.217 L13,5.217 L13,9.217 Z" id="Fill-1"></path>
        </g>
    </g>
</svg>