<?xml version="1.0" encoding="UTF-8"?>
<svg width="24px" height="24px" viewBox="0 0 24 24" version="1.1" xmlns="http://www.w3.org/2000/svg" xmlns:xlink="http://www.w3.org/1999/xlink">
    <title>Icon-Architecture/16/Arch_AWS-Clean-Rooms_16</title>
    <g id="Icon-Architecture/16/Arch_AWS-Clean-Rooms_16" stroke="none" stroke-width="1" fill="none" fill-rule="evenodd">
        <g id="Icon-Architecture-BG/16/Analytics" fill="#8C4FFF">
            <rect id="Rectangle" x="0" y="0" width="24" height="24"></rect>
        </g>
        <path d="M18.25,16.9771251 C17.837,16.9771251 17.5,16.6411251 17.5,16.2271251 C17.5,15.8131251 17.837,15.4771251 18.25,15.4771251 C18.663,15.4771251 19,15.8131251 19,16.2271251 C19,16.6411251 18.663,16.9771251 18.25,16.9771251 L18.25,16.9771251 Z M18.25,14.4771251 C17.95,14.4771251 17.671,14.5601251 17.424,14.6941251 L16.354,13.6231251 L15.646,14.3311251 L16.717,15.4011251 C16.583,15.6481251 16.5,15.9271251 16.5,16.2271251 C16.5,17.1921251 17.285,17.9771251 18.25,17.9771251 C19.215,17.9771251 20,17.1921251 20,16.2271251 C20,15.2621251 19.215,14.4771251 18.25,14.4771251 L18.25,14.4771251 Z M18.25,6.97712507 C18.663,6.97712507 19,7.31312507 19,7.72712507 C19,8.14112507 18.663,8.47712507 18.25,8.47712507 C17.837,8.47712507 17.5,8.14112507 17.5,7.72712507 C17.5,7.31312507 17.837,6.97712507 18.25,6.97712507 L18.25,6.97712507 Z M16.354,10.3311251 L17.424,9.26012507 C17.671,9.39412507 17.95,9.47712507 18.25,9.47712507 C19.215,9.47712507 20,8.69212507 20,7.72712507 C20,6.76212507 19.215,5.97712507 18.25,5.97712507 C17.285,5.97712507 16.5,6.76212507 16.5,7.72712507 C16.5,8.02712507 16.583,8.30612507 16.717,8.55312507 L15.646,9.62312507 L16.354,10.3311251 Z M5.75,16.9771251 C5.337,16.9771251 5,16.6411251 5,16.2271251 C5,15.8131251 5.337,15.4771251 5.75,15.4771251 C6.163,15.4771251 6.5,15.8131251 6.5,16.2271251 C6.5,16.6411251 6.163,16.9771251 5.75,16.9771251 L5.75,16.9771251 Z M7.646,13.6231251 L6.576,14.6941251 C6.329,14.5601251 6.05,14.4771251 5.75,14.4771251 C4.785,14.4771251 4,15.2621251 4,16.2271251 C4,17.1921251 4.785,17.9771251 5.75,17.9771251 C6.715,17.9771251 7.5,17.1921251 7.5,16.2271251 C7.5,15.9271251 7.417,15.6481251 7.283,15.4011251 L8.354,14.3311251 L7.646,13.6231251 Z M5,7.72712507 C5,7.31312507 5.337,6.97712507 5.75,6.97712507 C6.163,6.97712507 6.5,7.31312507 6.5,7.72712507 C6.5,8.14112507 6.163,8.47712507 5.75,8.47712507 C5.337,8.47712507 5,8.14112507 5,7.72712507 L5,7.72712507 Z M7.5,7.72712507 C7.5,6.76212507 6.715,5.97712507 5.75,5.97712507 C4.785,5.97712507 4,6.76212507 4,7.72712507 C4,8.69212507 4.785,9.47712507 5.75,9.47712507 C6.05,9.47712507 6.329,9.39412507 6.576,9.26012507 L7.646,10.3311251 L8.354,9.62312507 L7.283,8.55312507 C7.417,8.30612507 7.5,8.02712507 7.5,7.72712507 L7.5,7.72712507 Z M10,14.9771251 L14,14.9771251 L14,11.9771251 L10,11.9771251 L10,14.9771251 Z M11,9.53312507 C11,9.22712507 11.249,8.97712507 11.556,8.97712507 L12.436,8.97712507 C12.747,8.97712507 13,9.23012507 13,9.54112507 L13,10.9771251 L11,10.9771251 L11,9.53312507 Z M11.47,5.20312507 C11.611,5.06112507 11.799,4.98312507 12,4.98312507 C12.2,4.98312507 12.389,5.06112507 12.53,5.20312507 C12.822,5.49512507 12.822,5.97112507 12.53,6.26412507 C12.389,6.40512507 12.2,6.48312507 12,6.48312507 L11.999,6.48312507 C11.799,6.48312507 11.611,6.40512507 11.47,6.26412507 C11.178,5.97112507 11.178,5.49512507 11.47,5.20312507 L11.47,5.20312507 Z M12.53,18.7551251 C12.389,18.8971251 12.2,18.9751251 12,18.9751251 L11.999,18.9751251 C11.799,18.9751251 11.611,18.8971251 11.47,18.7551251 C11.178,18.4631251 11.178,17.9871251 11.47,17.6941251 C11.611,17.5531251 11.799,17.4751251 12,17.4751251 C12.2,17.4751251 12.389,17.5531251 12.53,17.6941251 C12.822,17.9871251 12.822,18.4631251 12.53,18.7551251 L12.53,18.7551251 Z M14.312,10.9771251 L14,10.9771251 L14,9.54112507 C14,8.70112507 13.332,8.01812507 12.5,7.98412507 L12.5,7.40212507 C12.775,7.32012507 13.029,7.17912507 13.237,6.97112507 C13.92,6.28812507 13.92,5.17812507 13.237,4.49612507 C12.575,3.83412507 11.423,3.83512507 10.763,4.49612507 C10.08,5.17812507 10.08,6.28812507 10.763,6.97012507 C10.97,7.17912507 11.225,7.32112507 11.5,7.40312507 L11.5,7.98312507 C10.669,8.01312507 10,8.69412507 10,9.53312507 L10,10.9771251 L9.697,10.9771251 C9.312,10.9771251 9,11.2901251 9,11.6741251 L9,15.2801251 C9,15.6641251 9.312,15.9771251 9.697,15.9771251 L11.5,15.9771251 L11.5,16.5691251 C11.227,16.6461251 10.969,16.7811251 10.763,16.9871251 C10.08,17.6701251 10.08,18.7801251 10.763,19.4621251 C11.092,19.7921251 11.531,19.9751251 11.999,19.9751251 L12,19.9751251 C12.467,19.9751251 12.907,19.7931251 13.237,19.4621251 C13.92,18.7801251 13.92,17.6691251 13.237,16.9871251 C13.03,16.7801251 12.773,16.6461251 12.5,16.5691251 L12.5,15.9771251 L14.5,15.9771251 C14.776,15.9771251 15,15.7531251 15,15.4771251 L15,11.6651251 C15,11.2861251 14.691,10.9771251 14.312,10.9771251 L14.312,10.9771251 Z" id="Fill-5" fill="#FFFFFF"></path>
    </g>
</svg>