<?xml version="1.0" encoding="UTF-8"?>
<svg width="24px" height="24px" viewBox="0 0 24 24" version="1.1" xmlns="http://www.w3.org/2000/svg" xmlns:xlink="http://www.w3.org/1999/xlink">
    <title>Icon-Architecture/16/Arch_Red-Hat-OpenShift-Service-on-AWS_16</title>
    <g id="Icon-Architecture/16/Arch_Red-Hat-OpenShift-Service-on-AWS_16" stroke="none" stroke-width="1" fill="none" fill-rule="evenodd">
        <g id="Icon-Architecture-BG/16/Containers" fill="#ED7100">
            <rect id="Rectangle" x="0" y="0" width="24" height="24"></rect>
        </g>
        <g id="Icon-Service/16/Red-Hat-OpenShift-Service-on-AWS_16" transform="translate(4.000000, 4.400000)" fill="#FFFFFF">
            <path d="M10.5897732,2.94043504 C11.1367732,3.19543504 11.6327732,3.54843504 12.0657732,3.99143504 L11.3507732,4.69043504 C11.0017732,4.33443504 10.6047732,4.05043504 10.1677732,3.84643504 C9.18377315,3.38743504 8.07677315,3.33943504 7.05377315,3.71243504 C6.02977315,4.08543504 5.21377315,4.83343504 4.75477315,5.81743504 C4.55077315,6.25543504 4.42877315,6.72843504 4.39177315,7.22243504 L3.39377315,7.14743504 C3.44077315,6.53343504 3.59277315,5.94343504 3.84877315,5.39543504 C4.41977315,4.16843504 5.43777315,3.23743504 6.71177315,2.77343504 C7.98577315,2.30943504 9.36377315,2.36843504 10.5897732,2.94043504 L10.5897732,2.94043504 Z M0.932773151,8.11943504 C0.830773151,6.82843504 1.06677315,5.52443504 1.61277315,4.35143504 C3.37177315,0.585435036 7.86577315,-1.05056496 11.6317732,0.705435036 C12.7417732,1.22343504 13.7187732,2.01343504 14.4547732,2.98943504 L13.6557732,3.59143504 C13.0187732,2.74543504 12.1717732,2.06043504 11.2087732,1.61143504 C7.94177315,0.0864350355 4.04377315,1.50743504 2.51977315,4.77443504 C2.04577315,5.79143504 1.84077315,6.92143504 1.92877315,8.04143504 L0.932773151,8.11943504 Z M14.4067732,10.475435 C12.8837732,13.743435 8.98677315,15.160435 5.71677315,13.638435 C4.90177315,13.258435 4.17377315,12.711435 3.58177315,12.037435 L5.09377315,11.486435 C5.46477315,11.820435 5.88177315,12.096435 6.33677315,12.309435 C7.56377315,12.882435 8.94177315,12.940435 10.2147732,12.477435 C11.4887732,12.012435 12.5067732,11.081435 13.0777732,9.85543504 C13.2857732,9.41043504 13.4057732,8.94043504 13.4777732,8.46143504 L15.0137732,7.88443504 C14.9917732,8.77743504 14.7867732,9.66243504 14.4067732,10.475435 L14.4067732,10.475435 Z M1.89877315,11.554435 C1.56377315,11.027435 1.29877315,10.461435 1.10877315,9.86243504 L2.70377315,9.28143504 C2.88677315,9.88643504 3.16977315,10.451435 3.54177315,10.956435 L1.89877315,11.554435 Z M11.9167732,7.97743504 C11.8607732,7.36943504 11.6857732,6.75043504 11.3847732,6.10743504 L11.4137732,6.09643504 L11.4257732,6.12443504 L12.1257732,5.83343504 L13.1587732,5.45043504 C13.4077732,6.05143504 13.5767732,6.67843504 13.6627732,7.32243504 L11.9167732,7.97743504 Z M15.9907732,7.12943504 C15.9787732,6.97443504 15.8947732,6.83443504 15.7637732,6.74943504 C15.6317732,6.66543504 15.4687732,6.64643504 15.3217732,6.70043504 L15.3177732,6.70243504 L15.2917732,6.71143504 L14.6187732,6.95643504 C14.5117732,6.29443504 14.3067732,5.65543504 14.0457732,5.03443504 L15.9487732,4.24343504 L15.5647732,3.31943504 L10.5087732,5.36543504 C10.3717732,5.41643504 10.2637732,5.52343504 10.2137732,5.66143504 C10.1627732,5.79743504 10.1747732,5.95043504 10.2457732,6.07743504 C10.7647732,7.00543504 10.9857732,7.85043504 10.9257732,8.65943504 C10.9127732,8.82943504 10.9877732,8.99443504 11.1247732,9.09643504 C11.2127732,9.16243504 11.3187732,9.19643504 11.4247732,9.19643504 C11.4847732,9.19643504 12.3727732,8.87443504 12.3727732,8.87443504 C12.3177732,9.06343504 12.2557732,9.25143504 12.1717732,9.43243504 C11.7127732,10.417435 10.8967732,11.164435 9.87277315,11.537435 C8.84977315,11.910435 7.74177315,11.862435 6.75977315,11.402435 C6.31477315,11.195435 5.91577315,10.912435 5.57377315,10.561435 C5.43777315,10.419435 5.22777315,10.371435 5.04477315,10.440435 L4.56377315,10.615435 C4.14277315,10.126435 3.83477315,9.55543504 3.65477315,8.93143504 L6.63577315,7.81543504 L6.28377315,6.87843504 L0.328773151,9.08243504 C0.0877731513,9.16943504 -0.0482268487,9.42543504 0.0157731513,9.67443504 C0.268773151,10.677435 0.698773151,11.610435 1.29477315,12.447435 C1.39077315,12.582435 1.54377315,12.657435 1.70177315,12.657435 C1.75977315,12.657435 1.81777315,12.648435 1.87277315,12.627435 L2.57777315,12.370435 C3.30277315,13.293435 4.22877315,14.047435 5.29477315,14.544435 C6.32177315,15.023435 7.40277315,15.250435 8.46877315,15.250435 C11.3097732,15.250435 14.0347732,13.637435 15.3137732,10.898435 C15.8607732,9.72443504 16.0957732,8.42043504 15.9907732,7.12943504 L15.9907732,7.12943504 Z" id="Fill-1"></path>
        </g>
    </g>
</svg>