<?xml version="1.0" encoding="UTF-8"?>
<svg width="24px" height="24px" viewBox="0 0 24 24" version="1.1" xmlns="http://www.w3.org/2000/svg" xmlns:xlink="http://www.w3.org/1999/xlink">
    <title>Icon-Architecture/16/Arch_Amazon-ECS-Anywhere_16</title>
    <g id="Icon-Architecture/16/Arch_Amazon-ECS-Anywhere_16" stroke="none" stroke-width="1" fill="none" fill-rule="evenodd">
        <g id="Icon-Architecture-BG/16/Containers" fill="#ED7100">
            <rect id="Rectangle" x="0" y="0" width="24" height="24"></rect>
        </g>
        <g id="Icon-Service/16/Amazon-ECS-Anywhere_16" transform="translate(4.000000, 4.000000)" fill="#FFFFFF">
            <path d="M13.993,9.93625843 L12.391,8.95625843 C12.452,8.64425843 12.488,8.32325843 12.488,7.99425843 C12.488,5.76325843 11.01,3.89225843 8.99,3.25025843 L8.99,1.37425843 L13.993,4.30325843 L13.993,9.93625843 Z M7.531,14.9432584 L1,11.6532584 L1,4.30325843 L5.987,1.37325843 L5.987,3.24925843 C3.966,3.89125843 2.488,5.76325843 2.488,7.99425843 C2.488,10.7502584 4.731,12.9942584 7.488,12.9942584 C8.808,12.9942584 10.001,12.4702584 10.895,11.6322584 L12.779,12.8492584 L7.531,14.9432584 Z M9.997,7.45325843 C9.906,6.22225843 9.54,5.11525843 8.958,4.28225843 C10.275,4.80525843 11.235,6.00625843 11.433,7.45325843 L9.997,7.45325843 Z M10.013,8.45325843 L11.442,8.45325843 C11.269,9.93425843 10.301,11.1702584 8.962,11.7042584 C9.57,10.8242584 9.945,9.69825843 10.013,8.45325843 L10.013,8.45325843 Z M5.029,8.45325843 C5.029,8.46125843 5.028,8.46825843 5.028,8.47625843 C5.069,9.72025843 5.406,10.8362584 5.975,11.6922584 C4.655,11.1502584 3.705,9.92025843 3.535,8.45325843 L5.029,8.45325843 Z M6.238,4.21425843 C5.607,5.09525843 5.194,6.22825843 5.071,7.45325843 L3.543,7.45325843 C3.752,5.92825843 4.813,4.68725843 6.238,4.21425843 L6.238,4.21425843 Z M6.076,7.45325843 C6.227,6.13125843 6.756,4.95325843 7.55,4.21325843 C8.337,4.86125843 8.875,6.06225843 8.994,7.45325843 L6.076,7.45325843 Z M7.474,11.8672584 C6.615,11.1862584 6.08,9.94425843 6.029,8.45325843 L9.006,8.45325843 C8.925,9.69125843 8.487,11.0432584 7.474,11.8672584 L7.474,11.8672584 Z M14.746,3.58525843 L8.743,0.071258427 C8.589,-0.018741573 8.397,-0.019741573 8.241,0.069258427 C8.086,0.158258427 7.99,0.323258427 7.99,0.502258427 L7.99,3.04425843 C7.823,3.02725843 7.66,2.99425843 7.488,2.99425843 C7.316,2.99425843 7.154,3.02725843 6.987,3.04425843 L6.987,0.499258427 C6.987,0.320258427 6.891,0.155258427 6.735,0.065258427 C6.581,-0.022741573 6.389,-0.021741573 6.234,0.068258427 L0.247,3.58525843 C0.094,3.67525843 8.8817842e-16,3.83925843 8.8817842e-16,4.01725843 L8.8817842e-16,11.9612584 C8.8817842e-16,12.1502584 0.106,12.3232584 0.275,12.4082584 L7.283,15.9382584 C7.353,15.9732584 7.431,15.9912584 7.508,15.9912584 C7.57,15.9912584 7.634,15.9792584 7.693,15.9562584 L14.05,13.4192584 C14.223,13.3502584 14.344,13.1892584 14.362,13.0032584 C14.38,12.8172584 14.293,12.6362584 14.136,12.5352584 L11.563,10.8722584 C11.768,10.5832584 11.95,10.2762584 12.091,9.94525843 L14.232,11.2542584 C14.312,11.3032584 14.402,11.3282584 14.493,11.3282584 C14.577,11.3282584 14.662,11.3062584 14.737,11.2642584 C14.895,11.1752584 14.993,11.0082584 14.993,10.8282584 L14.993,4.01725843 C14.993,3.83925843 14.899,3.67525843 14.746,3.58525843 L14.746,3.58525843 Z" id="Fill-7"></path>
        </g>
    </g>
</svg>