<?xml version="1.0" encoding="UTF-8"?>
<svg width="48px" height="48px" viewBox="0 0 48 48" version="1.1" xmlns="http://www.w3.org/2000/svg" xmlns:xlink="http://www.w3.org/1999/xlink">
    <title>Icon-Resource/Networking-and-Content-Delivery/Res_Amazon-VPC_Virtual-private-cloud-VPC_48</title>
    <g id="Icon-Resource/Networking-and-Content-Delivery/Res_Amazon-VPC_Virtual-private-cloud-VPC_48" stroke="none" stroke-width="1" fill="none" fill-rule="evenodd">
        <path d="M40,25.976844 L36.499,24.507844 L36.499,38.877844 C39.906,38.147844 39.998,34.179844 40,33.994844 L40,25.976844 Z M34.499,38.922844 L34.499,24.507844 L31,25.976844 L31,34.003844 C31.008,34.465844 31.183,38.338844 34.499,38.922844 L34.499,38.922844 Z M35.112,22.081844 C35.358,21.976844 35.638,21.977844 35.886,22.080844 L41.387,24.389844 C41.759,24.545844 42,24.908844 42,25.311844 L42,34.003844 C41.978,36.430844 40.562,41.003844 35.37,41.003844 C30.393,41.003844 29.026,36.431844 29,34.014844 L29,25.311844 C29,24.908844 29.241,24.545844 29.613,24.389844 L35.112,22.081844 Z M44,22.791844 L35.492,19.091844 L26.9998912,22.667844 L26.9998912,33.024844 C26.999,33.089844 26.963,38.008844 29.807,40.893844 C31.187,42.293844 33.059,43.003844 35.37,43.003844 C43.808,43.003844 43.996,33.424844 44,33.017844 L44,22.791844 Z M46,22.135844 L46,33.024844 C45.973,37.172844 43.716,45.003844 35.37,45.003844 C32.498,45.003844 30.145,44.089844 28.373,42.287844 C24.941,38.796844 24.996,33.242844 25,33.007844 L25,22.003844 C25,21.601844 25.241,21.237844 25.612,21.081844 L35.111,17.081844 C35.363,16.975844 35.647,16.977844 35.897,17.086844 L45.398,21.218844 C45.764,21.377844 46,21.737844 46,22.135844 L46,22.135844 Z M11,30.003844 L22,30.003844 L22,32.003844 L11,32.003844 C6.216,32.003844 2.271,28.482844 2.02,23.987844 C2.002,23.812844 2,23.598844 2,23.384844 C2,18.085844 5.654,16.037844 7.919,15.277844 C7.902,15.062844 7.891,14.842844 7.891,14.625844 C7.891,10.038844 10.658,5.70084404 14.621,4.07884404 C19.58,2.04984404 25.235,2.93684404 28.695,6.28484404 C29.718,7.28184404 30.604,8.59584404 31.343,10.205844 C32.299,9.42184404 33.392,9.00384404 34.523,9.00384404 C37.234,9.00384404 40.281,11.295844 40.9,15.061844 C43.069,15.343844 44.936,16.638844 45.896,18.581844 L44.104,19.468844 C43.34,17.924844 41.806,17.003844 40,17.003844 C39.471,17.003844 39.033,16.590844 39.002,16.062844 C38.807,12.761844 36.275,11.003844 34.523,11.003844 C33.55,11.003844 32.582,11.573844 31.797,12.607844 C31.575,12.898844 31.217,13.049844 30.852,12.992844 C30.49,12.937844 30.187,12.690844 30.062,12.347844 C29.327,10.345844 28.398,8.78884404 27.302,7.71984404 C24.407,4.91684404 19.614,4.19584404 15.379,5.92984404 C11.775,7.40484404 9.891,11.420844 9.891,14.625844 C9.891,15.025844 9.947,15.502844 9.993,15.885844 C10.053,16.385844 9.73,16.852844 9.24,16.974844 C7.283,17.458844 4,18.936844 4,23.384844 C4,23.534844 3.998,23.684844 4.013,23.835844 C4.209,27.311844 7.276,30.003844 11,30.003844 L11,30.003844 Z" id="Fill-1" fill="#8C4FFF"></path>
    </g>
</svg>