<?xml version="1.0" encoding="UTF-8"?>
<svg width="48px" height="48px" viewBox="0 0 48 48" version="1.1" xmlns="http://www.w3.org/2000/svg" xmlns:xlink="http://www.w3.org/1999/xlink">
    <title>Icon-Architecture-Category/32/Media-Services_32</title>
    <g id="Icon-Architecture-Category/32/Media-Services_32" stroke="none" stroke-width="1" fill="none" fill-rule="evenodd">
        <rect id="Rectangle" fill="#ED7100" x="4" y="4" width="40" height="40"></rect>
        <rect id="#879196-Border-Copy-16" stroke="#879196" stroke-width="2" x="1" y="1" width="46" height="46"></rect>
        <g id="Icon-Category/32/Media-Services_32" transform="translate(10.000000, 13.000000)" fill="#FFFFFF">
            <path d="M14.592,11.094 L7.327,15.463 C7.238,15.523 7.153,15.496 7.112,15.474 C7.07,15.451 7,15.398 7,15.288 L7,6.575 C7,6.465 7.071,6.411 7.112,6.389 C7.133,6.378 7.165,6.365 7.206,6.365 C7.245,6.365 7.293,6.377 7.347,6.412 L14.572,10.756 C14.654,10.81 14.666,10.889 14.666,10.931 C14.666,10.973 14.654,11.052 14.592,11.094 L14.592,11.094 Z M15.108,9.911 L7.882,5.568 C7.512,5.32 7.035,5.296 6.64,5.507 C6.245,5.719 6,6.128 6,6.575 L6,15.288 C6,15.736 6.245,16.145 6.64,16.356 C6.821,16.453 7.021,16.5 7.216,16.5 C7.446,16.5 7.672,16.435 7.863,16.308 L15.127,11.939 C15.465,11.714 15.666,11.337 15.666,10.931 C15.666,10.526 15.465,10.149 15.108,9.911 L15.108,9.911 Z M27,16.789 C27,16.906 26.905,17 26.789,17 L25,17 L25,5 L26.789,5 C26.905,5 27,5.094 27,5.21 L27,16.789 Z M21.768,13 L19,13 L19,20.079 C19,20.587 18.587,21 18.079,21 L1.921,21 C1.413,21 1,20.587 1,20.079 L1,1.921 C1,1.413 1.413,1 1.921,1 L18.079,1 C18.587,1 19,1.413 19,1.921 L19,9 L21.768,9 L24,5.652 L24,16.348 L21.768,13 Z M26.789,4 L25,4 L24,4 L23.9,4 L21.233,8 L20,8 L20,1.921 C20,0.862 19.139,0 18.079,0 L1.921,0 C0.862,0 -1.77635684e-15,0.862 -1.77635684e-15,1.921 L-1.77635684e-15,20.079 C-1.77635684e-15,21.138 0.862,22 1.921,22 L18.079,22 C19.139,22 20,21.138 20,20.079 L20,14 L21.233,14 L23.9,18 L26.789,18 C27.457,18 28,17.457 28,16.789 L28,5.21 C28,4.543 27.457,4 26.789,4 L26.789,4 Z" id="Media-Services_Category-Icon_32_Squid"></path>
        </g>
    </g>
</svg>