<?xml version="1.0" encoding="UTF-8"?>
<svg width="48px" height="48px" viewBox="0 0 48 48" version="1.1" xmlns="http://www.w3.org/2000/svg" xmlns:xlink="http://www.w3.org/1999/xlink">
    <title>Icon-Architecture-Category/32/Business-Applications_32</title>
    <g id="Icon-Architecture-Category/32/Business-Applications_32" stroke="none" stroke-width="1" fill="none" fill-rule="evenodd">
        <rect id="Rectangle" fill="#DD344C" x="4" y="4" width="40" height="40"></rect>
        <rect id="#879196-Border-Copy-5" stroke="#879196" stroke-width="2" x="1" y="1" width="46" height="46"></rect>
        <g id="Icon-Category/32/Business-Application_32" transform="translate(10.000000, 10.000000)" fill="#FFFFFF">
            <path d="M25.1915021,27 L2.80850205,27 L1.30850205,24 L26.6915021,24 L25.1915021,27 Z M4.50050205,11.786 C4.50050205,11.353 4.85250205,11 5.28650205,11 L7.50050205,11 L7.50050205,23 L4.50050205,23 L4.50050205,11.786 Z M9.00050205,9 C9.27650205,9 9.50050205,8.776 9.50050205,8.5 L9.50050205,7 L11.5005021,7 L11.5005021,23 L8.50050205,23 L8.50050205,9 L9.00050205,9 Z M12.5005021,23 L15.5005021,23 L15.5005021,4 L12.5005021,4 L12.5005021,23 Z M18.5005021,7 L18.5005021,8.5 C18.5005021,8.776 18.7235021,9 19.0005021,9 L19.5005021,9 L19.5005021,23 L16.5005021,23 L16.5005021,7 L18.5005021,7 Z M22.7135021,11 C23.1475021,11 23.5005021,11.353 23.5005021,11.786 L23.5005021,23 L20.5005021,23 L20.5005021,11 L22.7135021,11 Z M27.9255021,23.237 C27.8345021,23.09 27.6725021,23 27.5005021,23 L24.5005021,23 L24.5005021,11.786 C24.5005021,10.801 23.6995021,10 22.7135021,10 L20.5005021,10 L20.5005021,8.5 C20.5005021,8.224 20.2765021,8 20.0005021,8 L19.5005021,8 L19.5005021,6.5 C19.5005021,6.224 19.2765021,6 19.0005021,6 L16.5005021,6 L16.5005021,3.5 C16.5005021,3.224 16.2765021,3 16.0005021,3 L14.5005021,3 L14.5005021,0 L13.5005021,0 L13.5005021,3 L12.0005021,3 C11.7235021,3 11.5005021,3.224 11.5005021,3.5 L11.5005021,6 L9.00050205,6 C8.72350205,6 8.50050205,6.224 8.50050205,6.5 L8.50050205,8 L8.00050205,8 C7.72350205,8 7.50050205,8.224 7.50050205,8.5 L7.50050205,10 L5.28650205,10 C4.30050205,10 3.50050205,10.801 3.50050205,11.786 L3.50050205,23 L0.500502054,23 C0.327502054,23 0.166502054,23.09 0.0745020543,23.237 C-0.0164979457,23.385 -0.0244979457,23.569 0.0525020543,23.724 L2.05250205,27.724 C2.13750205,27.893 2.31050205,28 2.50050205,28 L25.5005021,28 C25.6895021,28 25.8625021,27.893 25.9475021,27.724 L27.9475021,23.724 C28.0245021,23.569 28.0165021,23.385 27.9255021,23.237 L27.9255021,23.237 Z" id="Business-Application_Category-Icon_32_Squid--"></path>
        </g>
    </g>
</svg>