<?xml version="1.0" encoding="UTF-8"?>
<svg width="48px" height="48px" viewBox="0 0 48 48" version="1.1" xmlns="http://www.w3.org/2000/svg" xmlns:xlink="http://www.w3.org/1999/xlink">
    <title>Icon-Architecture-Category/32/Satellite_32</title>
    <g id="Icon-Architecture-Category/32/Satellite_32" stroke="none" stroke-width="1" fill="none" fill-rule="evenodd">
        <rect id="Rectangle" fill="#C925D1" x="4" y="4" width="40" height="40"></rect>
        <rect id="#879196-Border-Copy-22" stroke="#879196" stroke-width="2" x="1" y="1" width="46" height="46"></rect>
        <g id="Icon-Category/32/Satellite_32" transform="translate(10.000000, 11.000000)" fill="#FFFFFF">
            <path d="M23.0467316,16.319 C21.5377316,17.202 19.7437316,18.058 17.7307316,18.83 C13.6897316,20.38 9.02973157,21.435 5.48973157,21.486 C7.16773157,24.184 10.1507316,25.99 13.5557316,25.99 C18.7937316,25.99 23.0557316,21.729 23.0557316,16.49 C23.0557316,16.432 23.0477316,16.377 23.0467316,16.319 M3.82373157,20.416 C3.33273157,19.202 3.05573157,17.879 3.05573157,16.49 C3.05573157,16.375 3.06873157,16.263 3.07273157,16.148 C1.80373157,17.177 1.05673157,18.129 1.00273157,18.828 C0.981731569,19.115 1.07673157,19.352 1.30673157,19.572 C1.76073157,20.008 2.64073157,20.291 3.82373157,20.416 M4.05573157,16.49 C4.05573157,17.919 4.38173157,19.27 4.94873157,20.486 C8.01873157,20.547 12.5357316,19.751 17.3727316,17.897 C19.6437316,17.026 21.5007316,16.106 22.9597316,15.213 C22.3317316,10.578 18.3597316,6.99 13.5557316,6.99 C8.31773157,6.99 4.05573157,11.252 4.05573157,16.49 M24.3927316,7.153 C23.9717316,6.733 23.2887316,6.736 22.8697316,7.153 C22.4507316,7.573 22.4507316,8.256 22.8697316,8.675 C23.2897316,9.094 23.9727316,9.094 24.3927316,8.675 C24.8117316,8.256 24.8117316,7.573 24.3927316,7.153 M27.3637316,9.583 C27.8977316,10.095 28.1007316,10.748 27.9537316,11.472 C27.6917316,12.767 26.2637316,14.266 24.0167316,15.724 C24.0347316,15.978 24.0557316,16.232 24.0557316,16.49 C24.0557316,22.28 19.3457316,26.99 13.5557316,26.99 C9.56573157,26.99 6.08973157,24.753 4.31373157,21.467 C2.66573157,21.372 1.35473157,21.005 0.612731569,20.293 C0.171731569,19.868 -0.038268431,19.335 0.005731569,18.752 C0.095731569,17.589 1.17873157,16.255 3.20573157,14.788 C4.02473157,9.807 8.34673157,5.99 13.5557316,5.99 C18.7047316,5.99 22.9907316,9.719 23.8787316,14.617 C25.7777316,13.316 26.8037316,12.116 26.9737316,11.274 C27.0527316,10.886 26.9567316,10.578 26.6717316,10.304 C26.4577316,10.113 25.3437316,9.492 25.0557316,9.49 L25.0557316,9.418 C24.6567316,9.796 24.1457316,9.989 23.6317316,9.989 C23.0997316,9.989 22.5677316,9.787 22.1627316,9.383 L22.1627316,9.382 C21.3547316,8.573 21.3547316,7.256 22.1627316,6.446 C22.9727316,5.638 24.2897316,5.636 25.0997316,6.446 C25.6817316,7.029 25.8377316,7.872 25.5827316,8.601 C26.2997316,8.841 27.1917316,9.417 27.3637316,9.583 M23.0967316,3.99 C24.1027316,3.99 25.0517316,4.468 25.7007316,5.3 L26.4897316,4.685 C25.6497316,3.608 24.4117316,2.99 23.0967316,2.99 C21.7787316,2.99 20.5407316,3.61 19.6997316,4.689 L20.4887316,5.303 C21.1387316,4.469 22.0897316,3.99 23.0967316,3.99 M28.5387316,3.252 L27.6507316,3.711 C26.7857316,2.039 25.0407316,1 23.0977316,1 C21.1507316,1 19.4037316,2.042 18.5387316,3.719 L17.6507316,3.261 C18.6877316,1.25 20.7747316,-1.77635684e-15 23.0977316,-1.77635684e-15 C25.4167316,-1.77635684e-15 27.5017316,1.246 28.5387316,3.252" id="Satellite_Category-Icon_32_Squid"></path>
        </g>
    </g>
</svg>