<?xml version="1.0" encoding="UTF-8"?>
<svg width="48px" height="48px" viewBox="0 0 48 48" version="1.1" xmlns="http://www.w3.org/2000/svg" xmlns:xlink="http://www.w3.org/1999/xlink">
    <title>Icon-Architecture-Category/32/Robotics_32</title>
    <g id="Icon-Architecture-Category/32/Robotics_32" stroke="none" stroke-width="1" fill="none" fill-rule="evenodd">
        <rect id="Rectangle" fill="#DD344C" x="4" y="4" width="40" height="40"></rect>
        <rect id="#879196-Border-Copy-21" stroke="#879196" stroke-width="2" x="1" y="1" width="46" height="46"></rect>
        <g id="Icon-Category/32/Robotics_32" transform="translate(11.000000, 10.000000)" fill="#FFFFFF">
            <path d="M18,16.9955019 C18.552,16.9955019 19,17.4445019 19,17.9955019 C19,18.5465019 18.552,18.9955019 18,18.9955019 C17.448,18.9955019 17,18.5465019 17,17.9955019 C17,17.4445019 17.448,16.9955019 18,16.9955019 L18,16.9955019 Z M18,19.9955019 C19.103,19.9955019 20,19.0985019 20,17.9955019 C20,16.8925019 19.103,15.9955019 18,15.9955019 C16.897,15.9955019 16,16.8925019 16,17.9955019 C16,19.0985019 16.897,19.9955019 18,19.9955019 L18,19.9955019 Z M10,16.9955019 C10.552,16.9955019 11,17.4445019 11,17.9955019 C11,18.5465019 10.552,18.9955019 10,18.9955019 C9.448,18.9955019 9,18.5465019 9,17.9955019 C9,17.4445019 9.448,16.9955019 10,16.9955019 L10,16.9955019 Z M10,19.9955019 C11.103,19.9955019 12,19.0985019 12,17.9955019 C12,16.8925019 11.103,15.9955019 10,15.9955019 C8.897,15.9955019 8,16.8925019 8,17.9955019 C8,19.0985019 8.897,19.9955019 10,19.9955019 L10,19.9955019 Z M8.233,3.35550191 L7.526,2.64950191 C11.05,-0.880498086 16.787,-0.882498086 20.316,2.63950191 L19.609,3.34750191 C16.472,0.213501914 11.369,0.217501914 8.233,3.35550191 L8.233,3.35550191 Z M9.256,4.49950191 C11.83,1.92650191 16.016,1.92650191 18.59,4.49950191 L17.883,5.20650191 C15.699,3.02350191 12.146,3.02350191 9.963,5.20650191 L9.256,4.49950191 Z M27,25.1445019 L26,25.9015019 L26,20.1045019 L27,20.8805019 L27,25.1445019 Z M25,26.9955019 L24,26.9955019 L24,18.9905019 C24,18.6535019 23.982,18.3225019 23.953,17.9955019 L25,17.9955019 L25,26.9955019 Z M3,17.9955019 L4.047,17.9955019 C4.018,18.3225019 4,18.6535019 4,18.9905019 L4,26.9955019 L3,26.9955019 L3,17.9955019 Z M1,25.1445019 L1,20.8805019 L2,20.1045019 L2,25.9015019 L1,25.1445019 Z M14,9.99050191 C19.131,9.99050191 23,13.8595019 23,18.9905019 L23,26.9955019 L5,26.9955019 L5,18.9905019 C5,13.8595019 8.869,9.99050191 14,9.99050191 L14,9.99050191 Z M13,6.78150191 C13,6.34850191 13.353,5.99550191 13.786,5.99550191 L14.214,5.99550191 C14.647,5.99550191 15,6.34850191 15,6.78150191 L15,9.03750191 C14.672,9.00850191 14.339,8.99050191 14,8.99050191 C13.661,8.99050191 13.328,9.00850191 13,9.03750191 L13,6.78150191 Z M26,18.8385019 L26,17.4955019 C26,17.2195019 25.776,16.9955019 25.5,16.9955019 L23.814,16.9955019 C23.06,12.9595019 20.035,9.93350191 16,9.17750191 L16,6.78150191 C16,5.79650191 15.199,4.99550191 14.214,4.99550191 L13.786,4.99550191 C12.801,4.99550191 12,5.79650191 12,6.78150191 L12,9.17750191 C7.965,9.93350191 4.94,12.9595019 4.186,16.9955019 L2.5,16.9955019 C2.224,16.9955019 2,17.2195019 2,17.4955019 L2,18.8385019 L0.193,20.2415019 C0.071,20.3355019 0,20.4815019 0,20.6365019 L0,25.3935019 C0,25.5505019 0.073,25.6975019 0.198,25.7925019 L2,27.1555019 L2,27.4955019 C2,27.7715019 2.224,27.9955019 2.5,27.9955019 L25.5,27.9955019 C25.776,27.9955019 26,27.7715019 26,27.4955019 L26,27.1555019 L27.802,25.7925019 C27.927,25.6975019 28,25.5505019 28,25.3935019 L28,20.6365019 C28,20.4815019 27.929,20.3355019 27.807,20.2415019 L26,18.8385019 Z" id="Robotics_Category-Icon_32_Squid"></path>
        </g>
    </g>
</svg>