<?xml version="1.0" encoding="UTF-8"?>
<svg width="48px" height="48px" viewBox="0 0 48 48" version="1.1" xmlns="http://www.w3.org/2000/svg" xmlns:xlink="http://www.w3.org/1999/xlink">
    <title>Icon-Architecture-Category/32/Internet-of-Things_32</title>
    <g id="Icon-Architecture-Category/32/Internet-of-Things_32" stroke="none" stroke-width="1" fill="none" fill-rule="evenodd">
        <rect id="Rectangle" fill="#7AA116" x="4" y="4" width="40" height="40"></rect>
        <rect id="#879196-Border-Copy-13" stroke="#879196" stroke-width="2" x="1" y="1" width="46" height="46"></rect>
        <g id="Icon-Category/32/IoT_32" transform="translate(11.000000, 10.000000)" fill="#FFFFFF">
            <path d="M22.5,17 C20.57,17 19,15.43 19,13.5 C19,11.57 20.57,10 22.5,10 C22.833,10 23.148,10.062 23.454,10.149 C23.455,10.152 23.457,10.156 23.458,10.159 L23.472,10.154 C24.927,10.579 26,11.91 26,13.5 C26,15.43 24.43,17 22.5,17 M17,23.402 L17,13.958 L18.046,13.958 C18.279,16.222 20.176,18 22.5,18 C22.675,18 22.841,17.968 23.011,17.948 C21.797,20.552 19.623,22.484 17,23.402 M14,23.981 L14,8.949 C16.244,8.697 18,6.81 18,4.5 C18,4.33 17.969,4.168 17.95,4.003 C20.187,5.05 21.975,6.826 23.014,9.052 C22.843,9.032 22.676,9 22.5,9 C20.204,9 18.326,10.776 18.055,13 L16.5,13 C16.224,13 16,13.182 16,13.458 L16,23.701 C15.353,23.857 14.684,23.95 14,23.981 M11,23.701 L11,13.458 C11,13.182 10.776,13 10.5,13 L8.945,13 C8.674,10.776 6.796,9 4.5,9 C4.324,9 4.158,9.032 3.988,9.052 C5.03,6.833 6.833,5.03 9.052,3.988 C9.032,4.158 9,4.325 9,4.5 C9,6.81 10.756,8.697 13,8.949 L13,23.981 C12.316,23.95 11.647,23.857 11,23.701 M3.989,17.948 C4.159,17.968 4.325,18 4.5,18 C6.824,18 8.721,16.222 8.954,13.958 L10,13.958 L10,23.402 C7.377,22.484 5.203,20.552 3.989,17.948 M1,13.5 C1,11.91 2.073,10.579 3.528,10.154 L3.542,10.159 C3.543,10.156 3.545,10.152 3.546,10.149 C3.852,10.062 4.167,10 4.5,10 C6.43,10 8,11.57 8,13.5 C8,15.43 6.43,17 4.5,17 C2.57,17 1,15.43 1,13.5 M13.5,1 C15.43,1 17,2.57 17,4.5 C17,6.43 15.43,8 13.5,8 C11.57,8 10,6.43 10,4.5 C10,4.167 10.062,3.852 10.148,3.547 C10.152,3.545 10.155,3.544 10.159,3.542 L10.154,3.528 C10.579,2.073 11.91,1 13.5,1 M24.206,9.341 C23.042,6.34 20.699,3.962 17.682,2.784 L17.668,2.82 C17,1.17 15.387,0 13.5,0 C11.622,0 10.014,1.158 9.34,2.796 C6.35,3.961 3.961,6.35 2.797,9.34 C1.158,10.013 0,11.622 0,13.5 C0,15.387 1.17,17 2.82,17.667 L2.784,17.682 C4.078,20.997 6.747,23.436 10,24.462 L10,28 L11,28 L11,24.727 C11.649,24.869 12.318,24.952 13,24.981 L13,28 L14,28 L14,24.981 C14.682,24.952 15.351,24.869 16,24.727 L16,28 L17,28 L17,24.462 C20.253,23.436 22.922,20.997 24.216,17.682 L24.18,17.667 C25.83,17 27,15.387 27,13.5 C27,11.623 25.843,10.015 24.206,9.341" id="IoT_Category-Icon_32_Squid--"></path>
        </g>
    </g>
</svg>