<?xml version="1.0" encoding="UTF-8"?>
<svg width="48px" height="48px" viewBox="0 0 48 48" version="1.1" xmlns="http://www.w3.org/2000/svg" xmlns:xlink="http://www.w3.org/1999/xlink">
    <title>Icon-Architecture-Category/32/Serverless_32</title>
    <g id="Icon-Architecture-Category/32/Serverless_32" stroke="none" stroke-width="1" fill="none" fill-rule="evenodd">
        <rect id="#879196-Border-Copy-23" stroke="#879196" stroke-width="2" x="1" y="1" width="46" height="46"></rect>
        <rect id="Rectangle" fill="#8C4FFF" x="4" y="4" width="40" height="40"></rect>
        <g id="Icon-Category/32/Serverless_32" transform="translate(10.000000, 15.000000)" fill="#FFFFFF">
            <path d="M28.1235784,13.003 C28.1235784,15.838 26.1265784,18.708 22.3095784,18.708 C18.5865784,18.708 16.1435784,16.494 13.8795784,14.107 C13.6815784,13.898 13.0465784,13.206 12.9725784,13.125 C11.9785784,12.039 11.0285784,11.019 10.0165784,10.2 L10.0195784,13.5 L9.01957842,13.501 L9.01457842,9.001 C9.01457842,8.868 9.06657842,8.741 9.16057842,8.647 C9.25457842,8.553 9.38157842,8.5 9.51357842,8.5 L14.0195784,8.496 L14.0195784,9.496 L10.7385784,9.499 C11.7705784,10.348 12.7205784,11.368 13.7105784,12.449 C13.7575784,12.501 14.3555784,13.148 14.5335784,13.343 C16.6325784,15.639 18.9585784,17.708 22.3095784,17.708 C25.6165784,17.708 27.1235784,15.269 27.1235784,13.003 C27.1235784,10.886 25.7485784,8.608 22.7285784,8.608 C19.3015784,8.608 17.2555784,10.306 15.3795784,12.38 C15.2745784,12.261 15.1715784,12.143 15.0655784,12.023 C14.9505784,11.89 14.8325784,11.756 14.7165784,11.623 C16.6785784,9.472 18.9545784,7.608 22.7285784,7.608 L22.7355784,7.608 C22.6215784,6.05 21.6785784,4.5 19.3105784,4.5 L18.8725784,4.5 C18.6905784,4.5 18.5225784,4.401 18.4355784,4.242 C17.3105784,2.212 15.1855784,1 12.7475784,1 C9.16357842,1 6.24757842,3.916 6.24757842,7.5 C6.24757842,7.776 6.02357842,8 5.74757842,8 C4.30757842,8 2.96057842,8.643 2.05357842,9.765 C1.14557842,10.886 0.802578419,12.358 1.11057842,13.803 C1.56857842,15.945 3.57157842,17.5 5.87257842,17.5 L6.94957842,17.5 C7.19157842,17.5 7.43357842,17.483 7.67357842,17.448 C8.19757842,17.372 8.66557842,17.234 9.06157842,17.039 C10.3005784,16.433 11.3195784,15.47 12.3085784,14.379 C12.3785784,14.459 12.4475784,14.537 12.5185784,14.618 C12.6675784,14.791 12.8215784,14.961 12.9735784,15.134 C11.9525784,16.25 10.8475784,17.278 9.50257842,17.937 C9.01257842,18.178 8.44457842,18.346 7.81757842,18.437 C7.53057842,18.479 7.24057842,18.5 6.94957842,18.5 L5.87257842,18.5 C3.10257842,18.5 0.688578419,16.612 0.132578419,14.012 C-0.238421581,12.271 0.177578419,10.493 1.27557842,9.136 C2.27157842,7.905 3.70457842,7.15 5.26357842,7.02 C5.51157842,3.107 8.77257842,0 12.7475784,0 C15.4505784,0 17.8245784,1.303 19.1605784,3.5 L19.3105784,3.5 C21.9205784,3.5 23.6365784,5.133 23.7425784,7.683 C26.7445784,8.144 28.1235784,10.654 28.1235784,13.003" id="Serverless_32"></path>
        </g>
    </g>
</svg>