<?xml version="1.0" encoding="UTF-8"?>
<svg width="48px" height="48px" viewBox="0 0 48 48" version="1.1" xmlns="http://www.w3.org/2000/svg" xmlns:xlink="http://www.w3.org/1999/xlink">
    <title>Icon-Architecture-Category/32/Contact-Center_32</title>
    <g id="Icon-Architecture-Category/32/Contact-Center_32" stroke="none" stroke-width="1" fill="none" fill-rule="evenodd">
        <rect id="Rectangle" fill="#DD344C" x="4" y="4" width="40" height="40"></rect>
        <rect id="#879196-Border-Copy-6" stroke="#879196" stroke-width="2" x="1" y="1" width="46" height="46"></rect>
        <g id="Icon-Category/32/Contact-Center_32" transform="translate(11.120000, 10.000000)" fill="#FFFFFF">
            <path d="M1.324071,26.925 C3.883071,22.29 8.125071,19.52 12.807071,19.469 C15.371071,19.434 17.800071,20.232 19.969071,21.751 C21.730071,22.985 23.281071,24.777 24.485071,26.964 L1.324071,26.925 Z M5.883071,10.961 C5.883071,7.101 9.023071,3.961 12.883071,3.961 C16.742071,3.961 19.883071,7.101 19.883071,10.961 C19.883071,12.381 19.455071,13.701 18.726071,14.806 C18.481071,14.308 17.974071,13.961 17.383071,13.961 L15.383071,13.961 C14.555071,13.961 13.883071,14.634 13.883071,15.461 C13.883071,16.288 14.555071,16.961 15.383071,16.961 L16.469071,16.961 C15.419071,17.592 14.194071,17.961 12.883071,17.961 C9.023071,17.961 5.883071,14.821 5.883071,10.961 L5.883071,10.961 Z M4.883071,13.961 L4.478071,13.961 C3.598071,13.961 2.883071,13.245 2.883071,12.366 L2.883071,10.556 C2.883071,9.677 3.598071,8.961 4.478071,8.961 L4.883071,8.961 L4.883071,13.961 Z M12.885071,1 C17.215071,1 20.964071,3.995 21.891071,8.039 C21.696071,7.993 21.496071,7.961 21.287071,7.961 L20.383071,7.961 C20.353071,7.961 20.328071,7.973 20.300071,7.978 C19.114071,5.041 16.239071,2.961 12.883071,2.961 C9.526071,2.961 6.651071,5.041 5.465071,7.978 C5.437071,7.973 5.412071,7.961 5.383071,7.961 L4.478071,7.961 C4.274071,7.961 4.077071,7.991 3.885071,8.036 C4.833071,3.985 8.590071,1 12.885071,1 L12.885071,1 Z M22.883071,12.366 C22.883071,13.245 22.167071,13.961 21.287071,13.961 L20.883071,13.961 L20.883071,8.961 L21.287071,8.961 C22.167071,8.961 22.883071,9.677 22.883071,10.556 L22.883071,12.366 Z M19.883071,15.961 L19.118071,15.961 C19.433071,15.569 19.713071,15.147 19.951071,14.699 C20.036071,14.853 20.194071,14.961 20.383071,14.961 L21.287071,14.961 C21.402071,14.961 21.512071,14.942 21.623071,14.927 C21.281071,15.541 20.633071,15.961 19.883071,15.961 L19.883071,15.961 Z M17.383071,15.961 L16.883071,15.961 L15.383071,15.961 C15.107071,15.961 14.883071,15.737 14.883071,15.461 C14.883071,15.185 15.107071,14.961 15.383071,14.961 L17.383071,14.961 C17.658071,14.961 17.883071,15.185 17.883071,15.461 C17.883071,15.737 17.658071,15.961 17.383071,15.961 L17.383071,15.961 Z M25.760071,27.242 C24.435071,24.577 22.632071,22.395 20.543071,20.931 C18.855071,19.75 16.972071,18.984 15.047071,18.656 C16.213071,18.327 17.270071,17.741 18.156071,16.961 L19.883071,16.961 C21.374071,16.961 22.604071,15.865 22.834071,14.437 C23.467071,13.963 23.883071,13.215 23.883071,12.366 L23.883071,10.556 C23.883071,9.794 23.546071,9.114 23.021071,8.639 L23.020071,8.634 C22.313071,3.712 17.956071,1.77635684e-15 12.885071,1.77635684e-15 C7.887071,1.77635684e-15 3.539071,3.652 2.779071,8.448 L2.726071,8.654 C2.211071,9.129 1.883071,9.802 1.883071,10.556 L1.883071,12.366 C1.883071,13.797 3.047071,14.961 4.478071,14.961 L5.383071,14.961 C5.571071,14.961 5.729071,14.853 5.815071,14.699 C6.832071,16.615 8.605071,18.064 10.734071,18.66 C6.274071,19.426 2.374071,22.503 0.0520709974,27.202 C-0.0249290026,27.357 -0.0159290026,27.54 0.0750709974,27.687 C0.166070997,27.834 0.326070997,27.923 0.499070997,27.924 L25.311071,27.965 L25.312071,27.965 C25.485071,27.965 25.646071,27.876 25.737071,27.729 C25.829071,27.582 25.837071,27.398 25.760071,27.242 L25.760071,27.242 Z" id="Fill-9"></path>
        </g>
    </g>
</svg>