<?xml version="1.0" encoding="UTF-8"?>
<svg width="48px" height="48px" viewBox="0 0 48 48" version="1.1" xmlns="http://www.w3.org/2000/svg" xmlns:xlink="http://www.w3.org/1999/xlink">
    <title>Icon-Architecture-Category/32/Machine-Learning_32</title>
    <g id="Icon-Architecture-Category/32/Machine-Learning_32" stroke="none" stroke-width="1" fill="none" fill-rule="evenodd">
        <rect id="Rectangle" fill="#01A88D" x="4" y="4" width="40" height="40"></rect>
        <rect id="#879196-Border-Copy-14" stroke="#879196" stroke-width="2" x="1" y="1" width="46" height="46"></rect>
        <g id="Icon-Category/32/Machine-Learning_32" transform="translate(10.000000, 10.000000)" fill="#FFFFFF">
            <path d="M19.012,13.6968705 C19.012,11.5468705 17.651,9.62287049 15.623,8.90887049 L15.955,7.96587049 C18.382,8.81987049 20.012,11.1228705 20.012,13.6968705 C20.012,16.2668705 18.385,18.5688705 15.963,19.4248705 L15.629,18.4818705 C17.653,17.7668705 19.012,15.8428705 19.012,13.6968705 L19.012,13.6968705 Z M27.406,16.4458705 L25.439,21.2248705 C25.387,21.3518705 25.284,21.4518705 25.156,21.5008705 C25.028,21.5498705 24.884,21.5438705 24.76,21.4848705 L23.192,20.7318705 C22.567,21.5548705 21.836,22.2878705 21.014,22.9168705 L21.775,24.4848705 C21.834,24.6078705 21.841,24.7508705 21.792,24.8798705 C21.743,25.0088705 21.644,25.1118705 21.517,25.1638705 L16.747,27.1528705 C16.686,27.1778705 16.62,27.1908705 16.555,27.1908705 C16.486,27.1908705 16.416,27.1758705 16.352,27.1478705 C16.226,27.0918705 16.129,26.9868705 16.083,26.8568705 L15.368,24.8218705 L16.312,24.4898705 L16.851,26.0258705 L20.644,24.4448705 L19.932,22.9798705 C19.825,22.7598705 19.894,22.4948705 20.093,22.3538705 C21.079,21.6548705 21.931,20.7998705 22.624,19.8138705 C22.766,19.6138705 23.031,19.5448705 23.25,19.6508705 L24.716,20.3548705 L26.28,16.5548705 L24.744,16.0238705 C24.513,15.9438705 24.373,15.7078705 24.414,15.4668705 C24.616,14.2768705 24.615,13.0698705 24.407,11.8798705 C24.365,11.6388705 24.502,11.4028705 24.733,11.3218705 L26.267,10.7828705 L24.686,6.99087049 L23.219,7.70287049 C23,7.80987049 22.734,7.74287049 22.593,7.54287049 C21.892,6.55687049 21.037,5.70587049 20.053,5.01487049 C19.853,4.87387049 19.783,4.60987049 19.889,4.38887049 L20.596,2.91887049 L16.795,1.35487049 L16.261,2.89687049 L15.316,2.56987049 L16.024,0.527870491 C16.069,0.397870491 16.165,0.291870491 16.291,0.234870491 C16.415,0.178870491 16.559,0.176870491 16.687,0.228870491 L21.466,2.19587049 C21.593,2.24787049 21.694,2.34987049 21.742,2.47887049 C21.791,2.60687049 21.786,2.74987049 21.727,2.87387049 L20.971,4.44687049 C21.793,5.07087049 22.526,5.79987049 23.156,6.62187049 L24.725,5.85987049 C24.85,5.79987049 24.993,5.79387049 25.12,5.84187049 C25.249,5.89087049 25.352,5.98987049 25.406,6.11687049 L27.394,10.8868705 C27.447,11.0138705 27.445,11.1568705 27.389,11.2828705 C27.332,11.4088705 27.228,11.5058705 27.098,11.5508705 L25.456,12.1278705 C25.598,13.1528705 25.6,14.1878705 25.464,15.2148705 L27.107,15.7828705 C27.238,15.8278705 27.343,15.9248705 27.4,16.0498705 C27.456,16.1758705 27.458,16.3188705 27.406,16.4458705 L27.406,16.4458705 Z M10.749,18.7498705 L10.75,15.8918705 C10.75,15.7088705 10.65,15.5398705 10.49,15.4518705 L8,14.0988705 L8,11.5068705 L10.758,9.84987049 C10.908,9.75987049 11,9.59687049 11,9.42187049 L11,4.70987049 L10,4.70987049 L10,9.13887049 L7.488,10.6488705 L4,8.97087049 L4,5.55387049 L7,3.37987049 L7,7.70987049 L8,7.70987049 L8,2.70987049 L7.925,2.70987049 L10.15,1.09687049 L13,2.70987049 L12.999,13.4218705 L10.572,12.0128705 L10.07,12.8788705 L12.999,14.5778705 L12.999,17.4538705 L10.749,18.7498705 Z M12.999,24.9448705 L10.116,26.6318705 L7.664,25.2238705 L10.728,23.3868705 L10.214,22.5298705 L6.67,24.6538705 L4,23.1208705 L4,19.9098705 L7.011,18.1758705 L6.511,17.3098705 L3.617,18.9768705 L1.001,17.2188705 L1,14.6768705 L3.88,13.0178705 L3.38,12.1518705 L1,13.5228705 L1.001,11.5068705 L3.653,9.91287049 L7,11.5238705 L7,13.9008705 L3.277,15.7618705 L3.724,16.6568705 L7.312,14.8628705 L9.75,16.1888705 L9.749,19.3258705 L6.385,21.2638705 L6.885,22.1308705 L12.999,18.6078705 L12.999,24.9448705 Z M10.373,0.0688704906 C10.201,-0.0321295094 9.988,-0.0211295094 9.826,0.0958704906 L3.207,4.89487049 C3.077,4.98887049 3,5.13887049 3,5.29987049 L3,9.13887049 L0.243,10.7958705 C0.093,10.8858705 0.001,11.0488705 0.001,11.2238705 L0.001,11.5058705 C1.77635684e-15,11.5158705 1.77635684e-15,11.5258705 1.77635684e-15,11.5358705 L1.77635684e-15,17.1738705 C1.77635684e-15,17.1838705 1.77635684e-15,17.1938705 0.001,17.2038705 L0.001,17.4858705 C0.001,17.6528705 0.084,17.8078705 0.223,17.9008705 L3,19.7668705 L3,23.4108705 C3,23.5898705 3.096,23.7558705 3.251,23.8438705 L9.87,27.6428705 C9.948,27.6878705 10.033,27.7098705 10.119,27.7098705 C10.206,27.7098705 10.294,27.6868705 10.372,27.6408705 L13.752,25.6628705 C13.906,25.5728705 13.999,25.4088705 13.999,25.2308705 L14,2.47887049 C14,2.30087049 13.907,2.13687049 13.753,2.04787049 L10.373,0.0688704906 Z" id="Machine-Learning_Category-Icon_32_Squid"></path>
        </g>
    </g>
</svg>