<?xml version="1.0" encoding="UTF-8"?>
<svg width="48px" height="48px" viewBox="0 0 48 48" version="1.1" xmlns="http://www.w3.org/2000/svg" xmlns:xlink="http://www.w3.org/1999/xlink">
    <title>Icon-Architecture-Category/32/Storage_32</title>
    <g id="Icon-Architecture-Category/32/Storage_32" stroke="none" stroke-width="1" fill="none" fill-rule="evenodd">
        <rect id="Rectangle" fill="#7AA116" x="4" y="4" width="40" height="40"></rect>
        <rect id="#879196-Border-Copy-24" stroke="#879196" stroke-width="2" x="1" y="1" width="46" height="46"></rect>
        <g id="Icon-Category/32/Storage_32" transform="translate(12.000000, 10.000000)" fill="#FFFFFF">
            <path d="M16,20.5 C16,20.776 15.775,21 15.5,21 L8.5,21 C8.225,21 8,20.776 8,20.5 L8,19.5 C8,19.224 8.225,19 8.5,19 L15.5,19 C15.775,19 16,19.224 16,19.5 L16,20.5 Z M15.5,18 L8.5,18 C7.673,18 7,18.673 7,19.5 L7,20.5 C7,21.327 7.673,22 8.5,22 L15.5,22 C16.327,22 17,21.327 17,20.5 L17,19.5 C17,18.673 16.327,18 15.5,18 L15.5,18 Z M7,10 L17,10 L17,9 L7,9 L7,10 Z M7,4 L10,4 L10,3 L7,3 L7,4 Z M7,7 L10,7 L10,6 L7,6 L7,7 Z M23,26.088 C23,26.591 22.503,27 22,27 L1.912,27 C1.409,27 1,26.591 1,26.088 L1,16 L23,16 L23,26.088 Z M5,1 L13,1 L13,6.5 C13,6.776 13.224,7 13.5,7 L19,7 L19,15 L5,15 L5,1 Z M14,1.707 L18.293,6 L14,6 L14,1.707 Z M23.412,15 L20,15 L20,6.5 L19.98,6.5 C19.98,6.37 19.949,6.242 19.854,6.146 L13.854,0.146 C13.758,0.051 13.63,0.02 13.5,0.02 L13.5,0 L4.5,0 C4.224,0 4,0.224 4,0.5 L4,15 L0.5,15 C0.224,15 0,15.224 0,15.5 L0,26.088 C0,27.143 0.857,28 1.912,28 L22,28 C23.055,28 23.912,27.143 23.912,26.088 L23.912,15.5 C23.912,15.224 23.688,15 23.412,15 L23.412,15 Z" id="Storage_Category-Icon_32_Squid"></path>
        </g>
    </g>
</svg>