<?xml version="1.0" encoding="UTF-8"?>
<svg width="48px" height="48px" viewBox="0 0 48 48" version="1.1" xmlns="http://www.w3.org/2000/svg" xmlns:xlink="http://www.w3.org/1999/xlink">
    <title>Icon-Architecture-Category/32/Quantum-Technologies_32</title>
    <g id="Icon-Architecture-Category/32/Quantum-Technologies_32" stroke="none" stroke-width="1" fill="none" fill-rule="evenodd">
        <rect id="Rectangle" fill="#ED7100" x="4" y="4" width="40" height="40"></rect>
        <rect id="#879196-Border-Copy-20" stroke="#879196" stroke-width="2" x="1" y="1" width="46" height="46"></rect>
        <g id="Icon-Category/32/Quantum-Technologies_32" transform="translate(11.000000, 10.000000)" fill="#FFFFFF">
            <path d="M24.759,20.5 C24.649,20.69 24.494,20.854 24.312,21.002 C23.96,20.694 23.504,20.5 23,20.5 C22.178,20.5 21.47,21 21.163,21.712 C20.371,21.682 19.502,21.561 18.572,21.348 C18.887,20.125 19.124,18.776 19.269,17.33 C20.451,16.48 21.504,15.598 22.407,14.711 C24.606,17.095 25.463,19.28 24.759,20.5 M23,23.5 C22.482,23.5 22.069,23.099 22.02,22.594 L22.012,22.444 C22.042,21.92 22.468,21.5 23,21.5 C23.552,21.5 24,21.949 24,22.5 C24,23.051 23.552,23.5 23,23.5 M13.5,27 C12.091,27 10.627,25.165 9.662,22.067 C10.883,21.728 12.171,21.267 13.501,20.667 C14.816,21.259 16.106,21.724 17.338,22.068 C16.373,25.166 14.909,27 13.5,27 M2.242,20.5 C2.077,20.214 1.996,19.878 1.996,19.5 C1.998,19.5 1.999,19.5 2,19.5 C3.103,19.5 4,18.603 4,17.5 C4,16.962 3.784,16.477 3.439,16.117 C3.778,15.651 4.163,15.183 4.596,14.714 C5.499,15.6 6.551,16.481 7.732,17.33 C7.877,18.78 8.114,20.132 8.431,21.358 C5.267,22.07 2.947,21.72 2.242,20.5 M2,16.5 C2.552,16.5 3,16.949 3,17.5 C3,18.051 2.552,18.5 2,18.5 C1.448,18.5 1,18.051 1,17.5 C1,16.949 1.448,16.5 2,16.5 M2.241,7.5 C2.947,6.279 5.267,5.929 8.431,6.642 C8.114,7.867 7.877,9.218 7.733,10.667 C6.564,11.506 5.504,12.388 4.589,13.284 C2.393,10.902 1.538,8.719 2.241,7.5 M13.5,1 C14.08,1 14.595,1.301 15.013,1.675 C14.697,2.029 14.5,2.49 14.5,3 C14.5,4.103 15.398,5 16.5,5 C16.669,5 16.831,4.973 16.988,4.933 C17.11,5.254 17.225,5.587 17.332,5.932 C16.113,6.271 14.825,6.741 13.5,7.339 C12.172,6.74 10.882,6.27 9.662,5.931 C10.628,2.834 12.091,1 13.5,1 M17.5,3 C17.5,3.551 17.052,4 16.5,4 C15.948,4 15.5,3.551 15.5,3 C15.5,2.449 15.948,2 16.5,2 C17.052,2 17.5,2.449 17.5,3 M19.371,11.977 C20.256,12.65 21.032,13.33 21.717,14 C21.032,14.67 20.256,15.35 19.371,16.023 C19.41,15.362 19.438,14.69 19.438,14 C19.438,13.316 19.411,12.643 19.371,11.977 M14.684,7.904 C15.707,7.475 16.683,7.142 17.604,6.885 C17.847,7.834 18.039,8.852 18.178,9.92 C17.628,9.558 17.064,9.201 16.469,8.858 C15.871,8.513 15.276,8.2 14.684,7.904 M8.813,9.928 C8.953,8.824 9.154,7.812 9.392,6.884 C10.315,7.142 11.29,7.474 12.317,7.904 C11.724,8.201 11.129,8.513 10.531,8.858 C9.938,9.201 9.368,9.561 8.813,9.928 M7.629,16.023 C6.743,15.349 5.967,14.67 5.283,13.999 C5.979,13.318 6.771,12.645 7.628,11.991 C7.589,12.647 7.563,13.314 7.563,14 C7.563,14.69 7.59,15.362 7.629,16.023 M12.317,20.096 C11.291,20.526 10.315,20.859 9.392,21.116 C9.154,20.188 8.953,19.176 8.813,18.073 C9.365,18.437 9.934,18.797 10.531,19.142 C11.125,19.485 11.721,19.798 12.317,20.096 M18.188,18.073 C18.048,19.17 17.85,20.176 17.613,21.099 C16.677,20.836 15.704,20.497 14.711,20.084 C15.294,19.792 15.88,19.482 16.469,19.142 C17.067,18.797 17.635,18.437 18.188,18.073 M15.969,18.276 C15.135,18.757 14.317,19.185 13.519,19.561 C12.688,19.173 11.854,18.75 11.031,18.276 C10.192,17.791 9.406,17.292 8.677,16.785 C8.603,15.899 8.563,14.97 8.563,14 C8.563,13.033 8.603,12.106 8.676,11.224 C9.422,10.705 10.206,10.2 11.031,9.724 C11.871,9.239 12.696,8.809 13.5,8.43 C14.304,8.809 15.129,9.239 15.969,9.724 C16.806,10.208 17.589,10.706 18.317,11.21 C18.395,12.118 18.438,13.05 18.438,14 C18.438,14.97 18.398,15.899 18.323,16.785 C17.594,17.292 16.809,17.791 15.969,18.276 M24.759,7.5 C25.463,8.72 24.606,10.905 22.407,13.289 C21.503,12.402 20.45,11.52 19.268,10.669 C19.124,9.243 18.892,7.885 18.572,6.641 C21.735,5.93 24.053,6.28 24.759,7.5 M25.624,7 C24.627,5.271 21.837,4.882 18.302,5.686 C18.17,5.256 18.03,4.84 17.875,4.445 C18.258,4.081 18.5,3.569 18.5,3 C18.5,1.897 17.603,1 16.5,1 C16.275,1 16.062,1.046 15.86,1.115 C15.127,0.394 14.324,0 13.5,0 C11.503,0 9.772,2.222 8.7,5.687 C5.164,4.881 2.373,5.271 1.376,7 C0.377,8.729 1.436,11.34 3.901,14 C3.405,14.533 2.964,15.066 2.582,15.597 C2.397,15.54 2.204,15.5 2,15.5 C0.898,15.5 1.77635684e-15,16.397 1.77635684e-15,17.5 C1.77635684e-15,18.243 0.412,18.885 1.014,19.229 C0.967,19.891 1.081,20.488 1.376,21 C2.046,22.161 3.522,22.722 5.488,22.722 C6.45,22.722 7.538,22.575 8.699,22.311 C9.771,25.777 11.503,28 13.5,28 C15.497,28 17.23,25.777 18.3,22.312 C19.265,22.534 20.177,22.666 21.021,22.705 C21.125,23.71 21.968,24.5 23,24.5 C24.103,24.5 25,23.603 25,22.5 C25,22.264 24.951,22.041 24.876,21.831 C25.184,21.595 25.439,21.321 25.624,21 C26.623,19.271 25.565,16.66 23.1,14 C25.565,11.34 26.623,8.729 25.624,7" id="Quantum-Technologies_Category-Icon_32_Squid"></path>
        </g>
    </g>
</svg>