<?xml version="1.0" encoding="UTF-8"?>
<svg width="48px" height="48px" viewBox="0 0 48 48" version="1.1" xmlns="http://www.w3.org/2000/svg" xmlns:xlink="http://www.w3.org/1999/xlink">
    <title>Icon-Architecture-Category/32/Developer-Tools_32</title>
    <g id="Icon-Architecture-Category/32/Developer-Tools_32" stroke="none" stroke-width="1" fill="none" fill-rule="evenodd">
        <rect id="Rectangle" fill="#C925D1" x="4" y="4" width="40" height="40"></rect>
        <rect id="#879196-Border-Copy-10" stroke="#879196" stroke-width="2" x="1" y="1" width="46" height="46"></rect>
        <g id="Icon-Category/32/Dev-Tools_32" transform="translate(11.000000, 11.000000)" fill="#FFFFFF">
            <path d="M24.9481889,21.7103909 L16.5441889,13.3063909 C16.3241889,13.0853909 16.0311889,12.9643909 15.7201889,12.9643909 C15.4091889,12.9643909 15.1161889,13.0853909 14.8961889,13.3063909 L13.3051889,14.8973909 C13.0861889,15.1173909 12.9641889,15.4103909 12.9641889,15.7213909 C12.9641889,16.0323909 13.0861889,16.3243909 13.3051889,16.5443909 L21.7101889,24.9493909 C22.5601889,25.7993909 23.9441889,25.8013909 24.7971889,24.9493909 L24.9481889,24.7973909 C25.7991889,23.9463909 25.7991889,22.5613909 24.9481889,21.7103909 L24.9481889,21.7103909 Z M6.3971889,7.7643909 L12.7231889,14.0643909 L14.0641889,12.7243909 L8.1101889,6.7463909 C7.8831889,6.5173909 7.7111889,6.2353909 7.6131889,5.9303909 L6.7451889,3.2243909 C6.6561889,2.9453909 6.4521889,2.7163909 6.1861889,2.5963909 L3.2161889,1.2503909 C2.8241889,1.0733909 2.3581889,1.1573909 2.0531889,1.4603909 L1.4601889,2.0543909 C1.1561889,2.3573909 1.0721889,2.8253909 1.2491889,3.2163909 L2.5951889,6.1863909 C2.7171889,6.4533909 2.9461889,6.6563909 3.2231889,6.7463909 L6.3971889,7.7643909 Z M25.6551889,21.0033909 C26.8961889,22.2443909 26.8961889,24.2633909 25.6551889,25.5043909 L25.5051889,25.6553909 C24.9021889,26.2573909 24.1031889,26.5883909 23.2531889,26.5883909 C22.4031889,26.5883909 21.6041889,26.2573909 21.0031889,25.6563909 L12.5981889,17.2523909 C12.1891889,16.8423909 11.9641889,16.2993909 11.9641889,15.7213909 C11.9641889,15.4293909 12.0211889,15.1473909 12.1311889,14.8863909 L5.8621889,8.6433909 L2.9191889,7.6983909 C2.3731889,7.5233909 1.9231889,7.1233909 1.6851889,6.6003909 L0.339188897,3.6293909 C-0.00981110341,2.8613909 0.156188897,1.9443909 0.753188897,1.3473909 L1.3461889,0.753390895 C1.9431889,0.157390895 2.8561889,-0.0116091049 3.6291889,0.339390895 L6.5981889,1.6853909 C7.1211889,1.9223909 7.5211889,2.3713909 7.6971889,2.9183909 L8.5661889,5.6253909 C8.6151889,5.7803909 8.7031889,5.9243909 8.8191889,6.0413909 L14.8951889,12.1403909 C15.6801889,11.8323909 16.6371889,11.9843909 17.2511889,12.5993909 L25.6551889,21.0033909 Z M26.1381889,2.6043909 C25.9791889,2.5773909 25.8151889,2.6283909 25.7001889,2.7433909 L22.6591889,5.7843909 C22.2731889,6.1693909 21.6011889,6.1703909 21.2141889,5.7843909 C20.8161889,5.3853909 20.8161889,4.7373909 21.2141889,4.3383909 L24.2551889,1.2983909 C24.3701889,1.1833909 24.4221889,1.0203909 24.3941889,0.860390895 C24.3661889,0.700390895 24.2631889,0.563390895 24.1171889,0.493390895 C22.1811889,-0.429609105 19.8671889,-0.0336091049 18.3551889,1.4803909 C17.3001889,2.5353909 16.7731889,3.9723909 16.8901889,5.4543909 L13.3441889,9.0013909 L14.0521889,9.7083909 L17.7651889,5.9933909 C17.8751889,5.8843909 17.9271889,5.7303909 17.9081889,5.5773909 C17.7481889,4.3163909 18.1691889,3.0813909 19.0621889,2.1873909 C20.1001889,1.1483909 21.6101889,0.764390895 22.9981889,1.1413909 L20.5071889,3.6323909 C19.7191889,4.4203909 19.7191889,5.7033909 20.5071889,6.4913909 C21.2701889,7.2543909 22.6021889,7.2533909 23.3661889,6.4913909 L25.8571889,4.0003909 C26.2321889,5.3873909 25.8491889,6.8973909 24.8111889,7.9363909 C23.9171889,8.8303909 22.6761889,9.2473909 21.4221889,9.0893909 C21.2621889,9.0733909 21.1141889,9.1233909 21.0051889,9.2323909 L18.0451889,12.1913909 L18.7521889,12.8983909 L21.5441889,10.1073909 C23.0241889,10.2243909 24.4641889,9.6983909 25.5181889,8.6433909 C27.0311889,7.1303909 27.4271889,4.8153909 26.5051889,2.8813909 C26.4351889,2.7353909 26.2991889,2.6313909 26.1381889,2.6043909 L26.1381889,2.6043909 Z M13.0281889,18.6713909 L10.1071889,21.5463909 C10.2231889,23.0283909 9.6971889,24.4643909 8.6421889,25.5193909 C7.6751889,26.4873909 6.3771889,26.9983909 5.0611889,26.9993909 C4.3221889,26.9993909 3.5771889,26.8373909 2.8811889,26.5053909 C2.7341889,26.4353909 2.6321889,26.2983909 2.6031889,26.1383909 C2.5761889,25.9793909 2.6281889,25.8153909 2.7431889,25.7003909 L5.7841889,22.6603909 C6.1811889,22.2613909 6.1811889,21.6133909 5.7841889,21.2143909 C5.3971889,20.8283909 4.7251889,20.8303909 4.3391889,21.2143909 L1.2981889,24.2553909 C1.1821889,24.3703909 1.0191889,24.4223909 0.859188897,24.3943909 C0.699188897,24.3673909 0.562188897,24.2633909 0.493188897,24.1173909 C-0.429811103,22.1833909 -0.0328111034,19.8683909 1.4791889,18.3553909 C2.5331889,17.3013909 3.9681889,16.7773909 5.4511889,16.8913909 L8.6421889,13.6483909 L9.3551889,14.3503909 L5.9961889,17.7633909 C5.8861889,17.8743909 5.7351889,17.9283909 5.5761889,17.9093909 C4.3171889,17.7463909 3.0801889,18.1683909 2.1861889,19.0623909 C1.1481889,20.1013909 0.765188897,21.6113909 1.1401889,22.9983909 L3.6321889,20.5073909 C4.3941889,19.7443909 5.7261889,19.7423909 6.4911889,20.5073909 C7.2781889,21.2953909 7.2781889,22.5783909 6.4911889,23.3663909 L4.0001889,25.8573909 C5.3881889,26.2343909 6.8971889,25.8513909 7.9351889,24.8123909 C8.8291889,23.9183909 9.2501889,22.6823909 9.0901889,21.4213909 C9.0701889,21.2673909 9.1241889,21.1113909 9.2351889,21.0023909 L12.3271889,17.9593909 L13.0281889,18.6713909 Z" id="Dev-Tools_Category-Icon_32_Squid--"></path>
        </g>
    </g>
</svg>