<?xml version="1.0" encoding="UTF-8"?>
<svg width="48px" height="48px" viewBox="0 0 48 48" version="1.1" xmlns="http://www.w3.org/2000/svg" xmlns:xlink="http://www.w3.org/1999/xlink">
    <title>Icon-Architecture-Category/32/Blockchain_32</title>
    <g id="Icon-Architecture-Category/32/Blockchain_32" stroke="none" stroke-width="1" fill="none" fill-rule="evenodd">
        <rect id="Rectangle" fill="#ED7100" x="4" y="4" width="40" height="40"></rect>
        <rect id="#879196-Border-Copy-4" stroke="#879196" stroke-width="2" x="1" y="1" width="46" height="46"></rect>
        <g id="Icon-Category/32/Blockchain_32" transform="translate(10.000000, 20.000000)" fill="#FFFFFF">
            <path d="M27,7 L21,7 L21,5 L17,5 L17,7 L11,7 L11,5 L7,5 L7,7 L1,7 L1,1 L7,1 L7,3 L11,3 L11,1 L17,1 L17,3 L21,3 L21,1 L27,1 L27,7 Z M26.975,0.044 L20.991,0.044 C20.425,0.044 20,0.497 20,1.054 L20,2 L18,2 L18,1.054 C18,0.497 17.54,0 16.975,0 L10.991,0 C10.425,0 10,0.443 10,1 L10,2 L8,2 L8,1 C8,0.443 7.575,0 7.009,0 L1,0 C0.435,0 0,0.497 0,1.054 L0,7.082 C0,7.638 0.46,8 1.025,8 L7.009,8 C7.564,8 8,7.647 8,7.082 L8,6 L10,6 L10,6.991 C10,7.557 10.436,8 10.991,8 L16.975,8 C17.54,8 18,7.547 18,6.991 L18,6 L20,6 L20,7.082 C20,7.647 20.436,8 20.991,8 L26.975,8 C27.54,8 28,7.638 28,7.082 L28,1.054 C28,0.497 27.54,0.044 26.975,0.044 L26.975,0.044 Z M25,2.931 L25.069,5 L22.998,5 L22.931,3 L25,2.931 Z M22.931,6 L25.069,6 C25.582,6 26,5.583 26,5.069 L26,2.931 C26,2.417 25.582,2 25.069,2 L22.931,2 C22.418,2 22,2.417 22,2.931 L22,5.069 C22,5.583 22.418,6 22.931,6 L22.931,6 Z M12.998,5 L12.931,3 L15,2.931 L15.069,5 L12.998,5 Z M15.069,2 L12.931,2 C12.418,2 12,2.417 12,2.931 L12,5.069 C12,5.583 12.418,6 12.931,6 L15.069,6 C15.582,6 16,5.583 16,5.069 L16,2.931 C16,2.417 15.582,2 15.069,2 L15.069,2 Z M5,5.002 L3,5.069 L2.931,3 L5,2.931 L5,5.002 Z M5.069,2 L2.931,2 C2.418,2 2,2.417 2,2.931 L2,5.069 C2,5.583 2.418,6 2.931,6 L5.069,6 C5.582,6 6,5.583 6,5.069 L6,2.931 C6,2.417 5.582,2 5.069,2 L5.069,2 Z" id="Blockchain_Category-Icon_32_Squid--"></path>
        </g>
    </g>
</svg>