<?xml version="1.0" encoding="UTF-8"?>
<svg width="48px" height="48px" viewBox="0 0 48 48" version="1.1" xmlns="http://www.w3.org/2000/svg" xmlns:xlink="http://www.w3.org/1999/xlink">
    <title>Icon-Architecture-Category/32/Application-Integration_32</title>
    <g id="Icon-Architecture-Category/32/Application-Integration_32" stroke="none" stroke-width="1" fill="none" fill-rule="evenodd">
        <rect id="Rectangle" fill="#E7157B" x="4" y="4" width="40" height="40"></rect>
        <rect id="#879196-Border-Copy" stroke="#879196" stroke-width="2" x="1" y="1" width="46" height="46"></rect>
        <g id="Icon-Category/32/Application-Integration_32" transform="translate(10.000000, 10.000000)" fill="#FFFFFF">
            <path d="M27,13 L22.692,13 C22.898,12.585 23.007,12.127 23.007,11.651 C23.007,10.598 22.476,9.632 21.586,9.066 C20.673,8.487 19.557,8.434 18.517,8.921 C17.963,9.181 17.511,9.623 17.244,10.166 C16.779,11.112 16.779,12.143 17.202,13 L13,13 L13,7.808 C13,7.604 12.876,7.42 12.686,7.344 C12.498,7.268 12.278,7.315 12.139,7.463 C11.626,7.998 10.694,8.382 9.606,7.849 C9.271,7.684 8.987,7.393 8.825,7.05 C8.487,6.329 8.518,5.561 8.91,4.942 C9.594,3.866 11.25,3.693 12.138,4.626 C12.279,4.774 12.498,4.82 12.686,4.746 C12.876,4.669 13,4.486 13,4.281 L13,1 L25.5,1 C26.327,1 27,1.673 27,2.5 L27,13 Z M27,25.5 C27,26.327 26.327,27 25.5,27 L13,27 L13,21.967 C13.856,22.391 14.887,22.39 15.835,21.925 C16.378,21.658 16.819,21.207 17.079,20.653 C17.566,19.616 17.514,18.498 16.934,17.585 C16.368,16.694 15.402,16.163 14.349,16.163 C13.872,16.163 13.414,16.271 13,16.477 L13,14 L18.184,14 C18.388,14 18.572,13.875 18.647,13.686 C18.724,13.496 18.677,13.279 18.528,13.138 C17.992,12.626 17.608,11.692 18.143,10.606 C18.307,10.272 18.598,9.988 18.942,9.826 C19.662,9.487 20.43,9.517 21.05,9.911 C21.648,10.292 22.007,10.942 22.007,11.651 C22.007,12.215 21.778,12.743 21.364,13.138 C21.217,13.279 21.17,13.497 21.246,13.686 C21.322,13.875 21.506,14 21.71,14 L27,14 L27,25.5 Z M1,25.5 L1,14 L4.023,14 C3.601,14.857 3.602,15.888 4.066,16.834 C4.332,17.376 4.783,17.819 5.338,18.079 C5.809,18.3 6.296,18.41 6.772,18.41 C7.348,18.41 7.908,18.25 8.407,17.934 C9.297,17.368 9.828,16.402 9.828,15.349 C9.828,14.873 9.72,14.415 9.514,14 L12,14 L12,17.46 C12,17.665 12.124,17.848 12.314,17.924 C12.501,18 12.72,17.953 12.862,17.805 C13.754,16.872 15.406,17.043 16.09,18.121 C16.482,18.739 16.513,19.507 16.175,20.228 C16.013,20.571 15.729,20.863 15.394,21.027 C14.305,21.561 13.373,21.178 12.862,20.641 C12.72,20.493 12.501,20.447 12.314,20.522 C12.124,20.598 12,20.782 12,20.986 L12,27 L2.5,27 C1.673,27 1,26.327 1,25.5 L1,25.5 Z M1,2.5 C1,1.673 1.673,1 2.5,1 L12,1 L12,3.299 C11.586,3.093 11.128,2.985 10.651,2.985 C9.598,2.985 8.632,3.516 8.066,4.406 C7.486,5.319 7.434,6.438 7.921,7.475 C8.181,8.028 8.622,8.479 9.165,8.746 C10.112,9.211 11.144,9.212 12,8.789 L12,13 L8.531,13 C8.327,13 8.144,13.125 8.067,13.314 C7.991,13.503 8.038,13.721 8.186,13.862 C8.6,14.257 8.828,14.785 8.828,15.349 C8.828,16.058 8.47,16.708 7.871,17.089 C7.251,17.482 6.484,17.512 5.764,17.174 C5.419,17.012 5.128,16.728 4.964,16.394 C4.431,15.308 4.813,14.374 5.35,13.862 C5.498,13.721 5.545,13.504 5.469,13.314 C5.394,13.125 5.209,13 5.005,13 L1,13 L1,2.5 Z M25.5,0 L2.5,0 C1.121,0 0,1.122 0,2.5 L0,25.5 C0,26.878 1.121,28 2.5,28 L25.5,28 C26.879,28 28,26.878 28,25.5 L28,2.5 C28,1.122 26.879,0 25.5,0 L25.5,0 Z" id="Application-Integration_Category-Icon_32_Squid--"></path>
        </g>
    </g>
</svg>