<?xml version="1.0" encoding="UTF-8"?>
<svg width="48px" height="48px" viewBox="0 0 48 48" version="1.1" xmlns="http://www.w3.org/2000/svg" xmlns:xlink="http://www.w3.org/1999/xlink">
    <title>Icon-Architecture-Category/32/Migration-Transfer_32</title>
    <g id="Icon-Architecture-Category/32/Migration-Transfer_32" stroke="none" stroke-width="1" fill="none" fill-rule="evenodd">
        <rect id="Rectangle" fill="#01A88D" x="4" y="4" width="40" height="40"></rect>
        <rect id="#879196-Border-Copy-17" stroke="#879196" stroke-width="2" x="1" y="1" width="46" height="46"></rect>
        <g id="Icon-Category/32/Migration-Transfer_32" transform="translate(10.000000, 10.000000)" fill="#FFFFFF">
            <path d="M19.398,20.763 L13.5,14.022 L7.601,20.763 L11.5,20.763 C11.776,20.763 12,20.987 12,21.263 L12,26.763 L15,26.763 L15,21.263 C15,20.987 15.223,20.763 15.5,20.763 L19.398,20.763 Z M20.876,20.934 C21.005,21.081 21.036,21.291 20.955,21.47 C20.874,21.648 20.696,21.763 20.5,21.763 L16,21.763 L16,27.263 C16,27.539 15.776,27.763 15.5,27.763 L11.5,27.763 C11.223,27.763 11,27.539 11,27.263 L11,21.763 L6.5,21.763 C6.303,21.763 6.126,21.648 6.044,21.47 C5.963,21.291 5.994,21.081 6.124,20.934 L13.124,12.934 C13.313,12.716 13.686,12.716 13.876,12.934 L20.876,20.934 Z M28,13.289 C28,16.615 26.13,18.763 23.237,18.763 L21,18.763 L21,17.763 L23.237,17.763 C26.011,17.763 27,15.452 27,13.289 C27,11.47 25.825,9.526 22.526,9.526 C22.372,9.526 22.226,9.455 22.131,9.334 C22.037,9.213 22.003,9.054 22.041,8.905 C22.337,7.72 22.092,6.629 21.369,5.911 C20.652,5.201 19.571,4.967 18.406,5.268 C18.278,5.303 18.141,5.283 18.026,5.215 C17.912,5.147 17.829,5.036 17.796,4.908 C16.974,1.678 14.119,1 11.868,1 C11.628,1.001 5.973,1.112 5.973,8.316 C5.973,8.592 5.75,8.816 5.473,8.816 C1.071,8.816 1.001,12.922 1,13.096 C1,15.626 3.048,17.763 5.473,17.763 L6,17.763 L6,18.763 L5.473,18.763 C2.506,18.763 0,16.168 0,13.096 C0,13.044 0.058,8.138 4.981,7.831 C5.245,0.092 11.8,-1.77635684e-15 11.868,-1.77635684e-15 C15.358,-1.77635684e-15 17.741,1.487 18.631,4.2 C19.965,3.986 21.202,4.338 22.073,5.201 C22.923,6.045 23.294,7.241 23.126,8.546 C26.709,8.788 28,11.204 28,13.289 L28,13.289 Z" id="Migration-Transfer_Category-Icon_32_Squid"></path>
        </g>
    </g>
</svg>