<?xml version="1.0" encoding="UTF-8"?>
<svg width="48px" height="48px" viewBox="0 0 48 48" version="1.1" xmlns="http://www.w3.org/2000/svg" xmlns:xlink="http://www.w3.org/1999/xlink">
    <title>Icon-Architecture-Category/32/End-User-Computing_32</title>
    <g id="Icon-Architecture-Category/32/End-User-Computing_32" stroke="none" stroke-width="1" fill="none" fill-rule="evenodd">
        <rect id="Rectangle" fill="#01A88D" x="4" y="4" width="40" height="40"></rect>
        <rect id="#879196-Border-Copy-11" stroke="#879196" stroke-width="2" x="1" y="1" width="46" height="46"></rect>
        <g id="Icon-Category/32/End-User-Computing_32" transform="translate(10.000000, 10.000000)" fill="#FFFFFF">
            <path d="M19.0001593,25 L24.0001593,25 L24.0001593,24 L19.0001593,24 L19.0001593,25 Z M3.00015928,1.992 C3.00015928,1.445 3.47615928,1 4.06015928,1 L23.9401593,1 C24.5241593,1 25.0001593,1.445 25.0001593,1.992 L25.0001593,4 L26.0001593,4 L26.0001593,1.992 C26.0001593,0.894 25.0761593,0 23.9401593,0 L4.06015928,0 C2.92415928,0 2.00015928,0.894 2.00015928,1.992 L2.00015928,17 L0.500159281,17 C0.315159281,17 0.146159281,17.102 0.0601592807,17.264 C-0.0278407193,17.427 -0.0188407193,17.624 0.0841592807,17.777 L2.08415928,20.777 C2.17715928,20.917 2.33315928,21 2.50015928,21 L14.0001593,21 L14.0001593,20 L2.76815928,20 L1.43515928,18 L2.00015928,18 L3.00015928,18 L14.0001593,18 L14.0001593,17 L3.00015928,17 L3.00015928,1.992 Z M27.0001593,21 L27.0001593,6.5 C27.0001593,6.224 26.7751593,6 26.5001593,6 L16.5001593,6 C16.2251593,6 16.0001593,6.224 16.0001593,6.5 L16.0001593,21 L27.0001593,21 Z M27.0001593,22 L16.0001593,22 L16.0001593,26.5 C16.0001593,26.776 16.2251593,27 16.5001593,27 L26.5001593,27 C26.7751593,27 27.0001593,26.776 27.0001593,26.5 L27.0001593,22 Z M28.0001593,6.5 L28.0001593,21 L28.0001593,22 L28.0001593,26.5 C28.0001593,27.327 27.3271593,28 26.5001593,28 L16.5001593,28 C15.6731593,28 15.0001593,27.327 15.0001593,26.5 L15.0001593,22 L15.0001593,21 L15.0001593,6.5 C15.0001593,5.673 15.6731593,5 16.5001593,5 L26.5001593,5 C27.3271593,5 28.0001593,5.673 28.0001593,6.5 L28.0001593,6.5 Z M20.7051593,10.97 C20.6001593,10.392 20.3271593,9.523 19.6711593,8.899 C19.1881593,8.442 18.3131593,7.957 16.9011593,8.242 L17.0991593,9.223 C17.8361593,9.073 18.4381593,9.178 18.8761593,9.532 C19.5941593,10.111 19.7651593,11.238 19.7731593,11.427 C19.7501593,11.582 19.8021593,11.739 19.9111593,11.851 C20.0211593,11.962 20.1791593,12.019 20.3331593,11.996 C20.3501593,11.993 22.0371593,11.784 22.9371593,12.574 C23.3151593,12.907 23.5001593,13.373 23.5001593,14 C23.5001593,15.077 22.1811593,16 21.1011593,16 L17.0001593,16 L17.0001593,17 L21.1011593,17 C22.6731593,17 24.5001593,15.689 24.5001593,14 C24.5001593,13.08 24.1951593,12.346 23.5931593,11.819 C22.7091593,11.046 21.4221593,10.955 20.7051593,10.97 L20.7051593,10.97 Z M10.2791593,3.863 C9.68815928,4.443 9.34915928,5.298 9.34915928,6.209 C9.34915928,6.501 9.40515928,6.797 9.52115928,7.114 C9.58515928,7.289 9.54515928,7.486 9.41915928,7.624 C9.29315928,7.762 9.09815928,7.817 8.92015928,7.768 C8.64815928,7.694 8.42215928,7.66 8.20715928,7.66 C6.71515928,7.66 5.50015928,8.858 5.50015928,10.33 C5.50015928,11.802 6.71515928,13 8.20715928,13 L14.0001593,13 L14.0001593,14 L8.20715928,14 C6.16315928,14 4.50015928,12.354 4.50015928,10.33 C4.50015928,8.25 6.27415928,6.539 8.38015928,6.665 C8.35915928,6.513 8.34915928,6.361 8.34915928,6.209 C8.34915928,5.032 8.79715928,3.916 9.57915928,3.149 C10.3351593,2.405 11.3591593,2.025 12.5581593,2.048 C13.6551593,2.068 15.1451593,2.377 16.0041593,3.732 L15.1601593,4.268 C14.5381593,3.288 13.3921593,3.063 12.5391593,3.048 C11.6141593,3.02 10.8491593,3.304 10.2791593,3.863 L10.2791593,3.863 Z" id="End-User-Computing_Category-Icon_32_Squid--"></path>
        </g>
    </g>
</svg>