<?xml version="1.0" encoding="UTF-8"?>
<svg width="48px" height="48px" viewBox="0 0 48 48" version="1.1" xmlns="http://www.w3.org/2000/svg" xmlns:xlink="http://www.w3.org/1999/xlink">
    <title>Icon-Architecture-Category/32/Analytics_32</title>
    <g id="Icon-Architecture-Category/32/Analytics_32" stroke="none" stroke-width="1" fill="none" fill-rule="evenodd">
        <rect id="Rectangle" fill="#8C4FFF" x="4" y="4" width="40" height="40"></rect>
        <rect id="#879196-Border" stroke="#879196" stroke-width="2" x="1" y="1" width="46" height="46"></rect>
        <g id="Icon-Category/32/Analytics_32" transform="translate(10.000000, 13.000000)" fill="#FFFFFF">
            <path d="M22.0002629,4.44 L22.0002629,8.94 L21.0002629,8.94 L21.0002629,5.647 L14.8542629,11.794 C14.6582629,11.989 14.3422629,11.989 14.1462629,11.794 L11.5002629,9.147 L6.85426293,13.794 L6.14626293,13.086 L11.1462629,8.086 C11.3422629,7.891 11.6582629,7.891 11.8542629,8.086 L14.5002629,10.733 L20.2932629,4.94 L17.0002629,4.94 L17.0002629,3.94 L21.5002629,3.94 C21.7762629,3.94 22.0002629,4.164 22.0002629,4.44 L22.0002629,4.44 Z M24.8622629,20.94 L3.32526293,20.94 L1.60926293,18.94 L26.4462629,18.94 L24.8622629,20.94 Z M3.00026293,2.01 C3.00026293,1.453 3.45326293,0.94 4.01026293,0.94 L23.9902629,0.94 C24.5472629,0.94 25.0002629,1.453 25.0002629,2.01 L25.0002629,17.94 L3.00026293,17.94 L3.00026293,2.01 Z M27.9522629,18.286 C27.8692629,18.111 27.6932629,18 27.5002629,18 L26.0002629,18 L26.0002629,2.01 C26.0002629,0.901 25.0992629,-1.77635684e-15 23.9902629,-1.77635684e-15 L4.01026293,-1.77635684e-15 C2.90126293,-1.77635684e-15 2.00026293,0.901 2.00026293,2.01 L2.00026293,18 L0.500262935,18 C0.304262935,18 0.125262935,18.115 0.0442629348,18.294 C-0.0367370652,18.474 -0.00473706524,18.684 0.125262935,18.831 L2.72526293,21.771 C2.82026293,21.878 2.95626293,21.94 3.10026293,21.94 L25.1002629,21.94 C25.2502629,21.94 25.3922629,21.873 25.4872629,21.756 L27.8882629,18.816 C28.0102629,18.667 28.0342629,18.46 27.9522629,18.286 L27.9522629,18.286 Z" id="Analytics_Category-Icon_32_Squid-"></path>
        </g>
    </g>
</svg>