<?xml version="1.0" encoding="UTF-8"?>
<svg width="48px" height="48px" viewBox="0 0 48 48" version="1.1" xmlns="http://www.w3.org/2000/svg" xmlns:xlink="http://www.w3.org/1999/xlink">
    <title>Icon-Architecture-Category/32/Front-End-Web-Mobile_32</title>
    <g id="Icon-Architecture-Category/32/Front-End-Web-Mobile_32" stroke="none" stroke-width="1" fill="none" fill-rule="evenodd">
        <rect id="Rectangle" fill="#DD344C" x="4" y="4" width="40" height="40"></rect>
        <rect id="#879196-Border-Copy-18" stroke="#879196" stroke-width="2" x="1" y="1" width="46" height="46"></rect>
        <g id="Icon-Category/32/Mobile_32" transform="translate(10.000000, 10.000000)" fill="#FFFFFF">
            <path d="M20,25 L23,25 L23,24 L20,24 L20,25 Z M27,26.5 L27,23 L16,23 L16,26.5 C16,26.776 16.225,27 16.5,27 L26.5,27 C26.775,27 27,26.776 27,26.5 L27,26.5 Z M16,8.5 L16,22 L27,22 L27,8.5 C27,8.224 26.775,8 26.5,8 L16.5,8 C16.225,8 16,8.224 16,8.5 L16,8.5 Z M28,8.5 L28,26.5 C28,27.327 27.327,28 26.5,28 L16.5,28 C15.673,28 15,27.327 15,26.5 L15,8.5 C15,7.673 15.673,7 16.5,7 L26.5,7 C27.327,7 28,7.673 28,8.5 L28,8.5 Z M4,4 L16,4 L16,6 L17,6 L17,3.5 C17,3.224 16.776,3 16.5,3 L3.5,3 C3.224,3 3,3.224 3,3.5 L3,22.5 C3,22.776 3.224,23 3.5,23 L14,23 L14,22 L4,22 L4,4 Z M1.907,25 L14,25 L14,26 L1.907,26 C0.855,26 0,25.121 0,24.041 L0,1.959 C0,0.879 0.855,0 1.907,0 L18.093,0 C19.145,0 20,0.879 20,1.959 L20,6 L19,6 L19,1.959 C19,1.43 18.593,1 18.093,1 L1.907,1 C1.407,1 1,1.43 1,1.959 L1,24.041 C1,24.57 1.407,25 1.907,25 L1.907,25 Z" id="Fill-3"></path>
        </g>
    </g>
</svg>