<svg width="40" height="40" viewBox="0 0 40 40" fill="none" xmlns="http://www.w3.org/2000/svg">
<rect width="40" height="40" fill="#E7157B"/>
<path d="M33 24.3179C31.6768 24.3179 30.6006 23.2417 30.6006 21.9189C30.6006 21.6426 30.377 21.4189 30.1006 21.4189C29.8242 21.4189 29.6006 21.6426 29.6006 21.9189C29.6006 23.2417 28.5244 24.3179 27.2021 24.3179C26.9258 24.3179 26.7021 24.5415 26.7021 24.8179C26.7021 25.0942 26.9258 25.3179 27.2021 25.3179C28.5244 25.3179 29.6006 26.394 29.6006 27.7168C29.6006 27.9932 29.8242 28.2168 30.1006 28.2168C30.377 28.2168 30.6006 27.9932 30.6006 27.7168C30.6006 26.3941 31.6768 25.3179 33 25.3179C33.2764 25.3179 33.5 25.0942 33.5 24.8179C33.5 24.5415 33.2764 24.3179 33 24.3179ZM30.1006 25.9439C29.8193 25.4858 29.4326 25.0991 28.9746 24.8179C29.4326 24.5366 29.8193 24.1499 30.1006 23.6919C30.3818 24.1499 30.7686 24.5366 31.2266 24.8179C30.7686 25.0991 30.3818 25.4858 30.1006 25.9439ZM27.4209 17.6397C27.6973 17.6397 27.9209 17.416 27.9209 17.1397C27.9209 15.1733 29.5205 13.5737 31.4863 13.5737C31.7627 13.5737 31.9863 13.3501 31.9863 13.0737C31.9863 12.7974 31.7627 12.5737 31.4863 12.5737C29.5205 12.5737 27.9209 10.9741 27.9209 9.0083C27.9209 8.73193 27.6973 8.5083 27.4209 8.5083C27.1445 8.5083 26.9209 8.73193 26.9209 9.0083C26.9209 10.9741 25.3213 12.5737 23.3545 12.5737C23.0781 12.5737 22.8545 12.7974 22.8545 13.0737C22.8545 13.3501 23.0781 13.5737 23.3545 13.5737C25.3213 13.5737 26.9209 15.1733 26.9209 17.1397C26.9209 17.416 27.1445 17.6397 27.4209 17.6397ZM25.4307 13.0737C26.2842 12.6362 26.9834 11.9375 27.4209 11.0845C27.8584 11.9375 28.5566 12.6362 29.4101 13.0737C28.5566 13.5112 27.8584 14.21 27.4209 15.0635C26.9834 14.21 26.2842 13.5112 25.4307 13.0737ZM23.417 25.5923C23.041 25.2417 22.8603 25.0601 22.8603 24.7617C22.8603 21.7943 22.8569 13.2924 17.3445 11.8427C17.0828 11.1467 16.4155 10.6475 15.6289 10.6475C14.8423 10.6475 14.175 11.1466 13.9133 11.8427C8.40086 13.2924 8.39745 21.7942 8.39745 24.7617C8.39745 25.0601 8.21679 25.2417 7.84081 25.5923C7.27538 26.1201 6.49998 26.8433 6.49998 28.5C6.49998 28.7764 6.72361 29 6.99998 29H13.0434C13.3859 30.1092 14.4084 30.9229 15.6289 30.9229C16.8494 30.9229 17.8719 30.1092 18.2143 29H24.2578C24.5342 29 24.7578 28.7764 24.7578 28.5C24.7578 26.8433 23.9824 26.1201 23.417 25.5923ZM15.6289 29.9229C14.97 29.9229 14.4033 29.5458 14.1152 29H17.1426C16.8545 29.5458 16.2878 29.9229 15.6289 29.9229ZM7.5332 28C7.65429 27.1333 8.09472 26.7227 8.52246 26.3237C8.93262 25.9414 9.39746 25.5083 9.39746 24.7617C9.39746 19.5523 10.043 12.627 15.6289 12.627C21.2148 12.627 21.8604 19.5522 21.8604 24.7617C21.8604 25.5083 22.3252 25.9414 22.7354 26.3237C23.1631 26.7227 23.6035 27.1333 23.7246 28H7.5332Z" fill="white"/>
</svg>
