<?xml version="1.0" encoding="UTF-8"?>
<svg width="64px" height="64px" viewBox="0 0 64 64" version="1.1" xmlns="http://www.w3.org/2000/svg" xmlns:xlink="http://www.w3.org/1999/xlink">
    <title>Icon-Architecture/48/Arch_Amazon-Kinesis-Video-Streams_48</title>
    <g id="Icon-Architecture/48/Arch_Amazon-Kinesis-Video-Streams_48" stroke="none" stroke-width="1" fill="none" fill-rule="evenodd">
        <g id="Icon-Architecture-BG/48/Analytics" fill="#8C4FFF">
            <rect id="Rectangle" x="0" y="0" width="64" height="64"></rect>
        </g>
        <g id="Icon-Service/48/Amazon-Kinesis-Video-Streams" transform="translate(10.000000, 10.000000)" fill="#FFFFFF">
            <path d="M17,26.986 L17,29.044 C7.82,31.191 7,34.637 7,38 L5,38 C5,33.661 6.48,29.337 17,26.986 L17,26.986 Z M17,32.393 L17,34.591 C12.011,37.079 11.999,40.387 12,43.876 L12,44 L9.99998339,44 L9.99998339,43.877 C9.999,40.107 10.02,35.448 17,32.393 L17,32.393 Z M41,40.999 C41,41.551 40.551,42 39.999,42 L22.001,42 C21.449,42 21,41.551 21,40.999 L21,29 C21,28.448 21.449,28 22.001,28 L39.999,28 C40.551,28 41,28.448 41,29 L41,40.999 Z M39.999,26 L22.001,26 C20.347,26 19,27.346 19,29 L19,40.999 C19,42.653 20.347,44 22.001,44 L39.999,44 C41.653,44 43,42.653 43,40.999 L43,29 C43,27.346 41.653,26 39.999,26 L39.999,26 Z M43,21 L43,23 C15.411,23 2,25.616 2,31 L0,31 C0,27.385 2.747,23.715 19.012,22 C2.747,20.285 0,16.614 0,13 L2,13 C2,18.383 15.411,21 43,21 L43,21 Z M43,17 L43,19 C11.218,19 5,14.233 5,6 L7,6 C7,11.566 9.779,17 43,17 L43,17 Z M43,13 L43,15 C28.552,15 19.21,13.443 14.44,10.24 C9.998,7.257 9.999,3.301 9.99997,0.123 L9.99997,0 L12,0 L12,0.124 C11.999,3.244 11.999,6.191 15.556,8.58 C19.984,11.554 28.961,13 43,13 L43,13 Z M30,36.381 L30,33.618 L32.764,34.999 L30,36.381 Z M35.447,34.105 L29.447,31.105 C29.137,30.951 28.769,30.966 28.475,31.149 C28.18,31.331 28,31.653 28,32 L28,37.999 C28,38.346 28.18,38.668 28.475,38.85 C28.635,38.949 28.817,38.999 29,38.999 C29.153,38.999 29.306,38.964 29.447,38.894 L35.447,35.894 C35.786,35.724 36,35.378 36,34.999 C36,34.62 35.786,34.274 35.447,34.105 L35.447,34.105 Z" id="Amazon-Kinesis-Video-Streams_48_Squid"></path>
        </g>
    </g>
</svg>