<?xml version="1.0" encoding="UTF-8"?>
<svg width="64px" height="64px" viewBox="0 0 64 64" version="1.1" xmlns="http://www.w3.org/2000/svg" xmlns:xlink="http://www.w3.org/1999/xlink">
    <title>Icon-Architecture/48/Arch_Amazon-Kinesis-Data-Streams_48</title>
    <g id="Icon-Architecture/48/Arch_Amazon-Kinesis-Data-Streams_48" stroke="none" stroke-width="1" fill="none" fill-rule="evenodd">
        <g id="Icon-Architecture-BG/48/Analytics" fill="#8C4FFF">
            <rect id="Rectangle" x="0" y="0" width="64" height="64"></rect>
        </g>
        <g id="Icon-Service/48/Amazon-Kinesis-Data-Streams" transform="translate(11.000000, 10.000000)" fill="#FFFFFF">
            <path d="M33,39.001 L34,39.001 L34,38.001 L33,38.001 L33,39.001 Z M36,37.001 L36,40.001 C36,40.553 35.553,41.001 35,41.001 L32,41.001 C31.448,41.001 31,40.553 31,40.001 L31,37.001 C31,36.449 31.448,36.001 32,36.001 L35,36.001 C35.553,36.001 36,36.449 36,37.001 L36,37.001 Z M31,34.001 L34,34.001 L34,32.001 L31,32.001 L31,34.001 Z M37,31.001 L38,31.001 L38,30.001 L37,30.001 L37,31.001 Z M41,34.501 C41,33.145 40.633,31.874 40,30.775 L40,32.001 C40,32.553 39.553,33.001 39,33.001 L36,33.001 C35.448,33.001 35,32.553 35,32.001 L35,29.001 C35,28.449 35.448,28.001 36,28.001 L37.226,28.001 C36.127,27.369 34.857,27.001 33.5,27.001 C32.144,27.001 30.873,27.369 29.775,28.001 L34,28.001 L34,30.001 L27.514,30.001 C27.06,30.604 26.696,31.276 26.438,32.001 L30,32.001 L30,34.001 L26.026,34.001 C26.015,34.167 26,34.332 26,34.501 C26,35.015 26.053,35.516 26.152,36.001 L29,36.001 L29,38.001 L26.872,38.001 C27.059,38.353 27.276,38.685 27.514,39.001 L29,39.001 L29,40.487 C30.255,41.433 31.811,42.001 33.5,42.001 C34.857,42.001 36.127,41.633 37.226,41.001 L37,41.001 L37,39.001 L39.487,39.001 C39.725,38.685 39.942,38.353 40.128,38.001 L37,38.001 L37,36.001 L40.849,36.001 C40.948,35.516 41,35.015 41,34.501 L41,34.501 Z M43,34.501 C43,39.739 38.739,44.001 33.5,44.001 C28.262,44.001 24,39.739 24,34.501 C24,29.263 28.262,25.001 33.5,25.001 C38.739,25.001 43,29.263 43,34.501 L43,34.501 Z M26.646,25.601 C8.695,27.162 5,31.688 5,38 L7,38 C7,33.8 8.412,29.579 24.467,27.825 C25.088,26.986 25.821,26.238 26.646,25.601 L26.646,25.601 Z M10,43.876 L10,44 L12,44 L12,43.876 C11.999,39.591 12.006,35.169 22.402,32.742 C22.521,31.99 22.713,31.264 22.973,30.569 C10.006,33.284 9.999,39.146 10,43.876 L10,43.876 Z M2,13 L0,13 C0,16.614 2.747,20.285 19.012,22 C2.747,23.715 0,27.386 0,31 L2,31 C2,25.617 15.412,23 43,23 L43,21 C15.412,21 2,18.383 2,13 L2,13 Z M7,6 L5,6 C5,14.233 11.218,19 43,19 L43,17 C9.78,17 7,11.566 7,6 L7,6 Z M43,13 L43,15 C28.551,15 19.209,13.443 14.441,10.241 C9.998,7.257 9.999,3.302 9.99997,0.124 L9.99997,0 L12,0 L12,0.124 C11.999,3.244 11.999,6.191 15.556,8.58 C19.985,11.554 28.961,13 43,13 L43,13 Z" id="Amazon-Kinesis-Data-Streams_Icon_48_Squid"></path>
        </g>
    </g>
</svg>