<?xml version="1.0" encoding="UTF-8"?>
<svg width="64px" height="64px" viewBox="0 0 64 64" version="1.1" xmlns="http://www.w3.org/2000/svg" xmlns:xlink="http://www.w3.org/1999/xlink">
    <title>Icon-Architecture/48/Arch_Amazon-Managed-Service-for-Apache-Flink_48</title>
    <g id="Icon-Architecture/48/Arch_Amazon-Managed-Service-for-Apache-Flink_48" stroke="none" stroke-width="1" fill="none" fill-rule="evenodd">
        <g id="Icon-Architecture-BG/48/Analytics" fill="#8C4FFF">
            <rect id="Rectangle" x="0" y="0" width="64" height="64"></rect>
        </g>
        <g id="Icon-Service/48/Amazon-Managed-Service-for-Apache-Flink_48" transform="translate(11.400000, 12.000000)" fill="#FFFFFF">
            <path d="M24.044,12 C24.044,13.92 22.482,15.481 20.563,15.481 C18.643,15.481 17.081,13.92 17.081,12 C17.081,10.08 18.643,8.519 20.563,8.519 C22.482,8.519 24.044,10.08 24.044,12 L24.044,12 Z M26.044,12 C26.044,8.978 23.585,6.519 20.563,6.519 C17.54,6.519 15.081,8.978 15.081,12 C15.081,15.022 17.54,17.481 20.563,17.481 C23.585,17.481 26.044,15.022 26.044,12 L26.044,12 Z M19.479,21.236 C19.507,20.748 19.178,20.312 18.701,20.204 C17.772,19.994 16.89,19.627 16.08,19.116 C15.667,18.854 15.126,18.929 14.8,19.296 L14.289,19.869 L12.694,18.274 L13.267,17.764 C13.631,17.438 13.707,16.897 13.446,16.484 C12.937,15.677 12.572,14.795 12.362,13.862 C12.254,13.384 11.786,13.055 11.33,13.083 L10.563,13.127 L10.563,10.873 L11.333,10.917 C11.786,10.94 12.256,10.616 12.365,10.139 C12.576,9.209 12.941,8.329 13.452,7.522 C13.713,7.109 13.637,6.567 13.273,6.242 L12.694,5.726 L14.289,4.131 L14.804,4.708 C15.129,5.074 15.671,5.148 16.083,4.889 C16.891,4.38 17.772,4.015 18.7,3.806 C19.178,3.698 19.507,3.262 19.479,2.773 L19.436,2 L21.69,2 L21.647,2.774 C21.618,3.262 21.947,3.699 22.424,3.807 C23.353,4.017 24.232,4.381 25.039,4.891 C25.45,5.149 25.993,5.076 26.319,4.711 L26.836,4.131 L28.431,5.726 L27.855,6.24 C27.49,6.565 27.414,7.107 27.675,7.521 C28.185,8.328 28.551,9.208 28.761,10.139 C28.869,10.616 29.334,10.94 29.793,10.917 L30.563,10.873 L30.563,13.127 L29.795,13.083 C29.334,13.055 28.871,13.384 28.763,13.862 C28.553,14.791 28.188,15.673 27.678,16.482 C27.417,16.896 27.493,17.437 27.857,17.762 L28.432,18.274 L26.837,19.869 L26.327,19.298 C26.001,18.931 25.455,18.858 25.047,19.118 C24.239,19.629 23.357,19.994 22.425,20.205 C21.947,20.313 21.618,20.749 21.647,21.237 L21.69,22 L19.436,22 L19.479,21.236 Z M23.477,23.687 C23.665,23.486 23.763,23.217 23.747,22.943 L23.69,21.934 C24.272,21.751 24.835,21.518 25.375,21.235 L26.049,21.99 C26.232,22.195 26.491,22.316 26.767,22.324 C27.051,22.348 27.309,22.226 27.502,22.031 L30.594,18.939 C30.788,18.745 30.895,18.479 30.887,18.204 C30.879,17.929 30.758,17.669 30.553,17.486 L29.794,16.81 C30.076,16.27 30.31,15.707 30.491,15.126 L31.506,15.185 C31.775,15.201 32.05,15.102 32.249,14.913 C32.449,14.724 32.563,14.461 32.563,14.186 L32.563,9.814 C32.563,9.539 32.449,9.276 32.249,9.087 C32.05,8.898 31.776,8.798 31.506,8.815 L30.489,8.874 C30.307,8.293 30.074,7.731 29.792,7.192 L30.553,6.514 C30.758,6.331 30.879,6.071 30.887,5.796 C30.895,5.521 30.788,5.255 30.594,5.061 L27.502,1.969 C27.307,1.774 27.048,1.668 26.767,1.676 C26.491,1.684 26.232,1.805 26.049,2.01 L25.367,2.773 C24.829,2.493 24.269,2.26 23.69,2.078 L23.747,1.057 C23.763,0.782 23.665,0.513 23.476,0.313 C23.287,0.113 23.024,0 22.749,0 L18.377,0 C18.102,0 17.839,0.113 17.65,0.313 C17.461,0.513 17.363,0.782 17.379,1.057 L17.437,2.077 C16.857,2.258 16.295,2.491 15.756,2.772 L15.076,2.01 C14.894,1.805 14.634,1.684 14.358,1.676 C14.099,1.67 13.817,1.774 13.623,1.969 L10.531,5.061 C10.337,5.255 10.231,5.521 10.238,5.796 C10.246,6.071 10.367,6.331 10.572,6.514 L11.335,7.193 C11.053,7.732 10.819,8.294 10.637,8.874 L9.619,8.815 C9.347,8.797 9.075,8.898 8.876,9.087 C8.676,9.276 8.563,9.539 8.563,9.814 L8.563,14.186 C8.563,14.461 8.676,14.724 8.876,14.913 C9.075,15.102 9.348,15.202 9.619,15.185 L10.633,15.126 C10.815,15.708 11.048,16.271 11.329,16.812 L10.572,17.486 C10.367,17.669 10.246,17.929 10.238,18.204 C10.231,18.479 10.337,18.745 10.531,18.939 L13.623,22.031 C13.817,22.226 14.096,22.345 14.358,22.324 C14.634,22.316 14.894,22.195 15.076,21.99 L15.752,21.233 C16.292,21.516 16.856,21.75 17.437,21.932 L17.379,22.943 C17.363,23.218 17.461,23.487 17.65,23.687 C17.839,23.887 18.102,24 18.377,24 L22.749,24 C23.024,24 23.287,23.887 23.477,23.687 L23.477,23.687 Z M8.765,28.378 L9.84,27.447 C11.308,26.164 13.978,26.164 15.447,27.451 L16.515,28.375 C18.746,30.328 22.519,30.329 24.748,28.378 L25.822,27.448 C27.289,26.164 29.959,26.165 31.43,27.451 L32.497,28.375 C34.731,30.329 38.503,30.329 40.731,28.378 L41.266,27.915 L39.957,26.403 L39.418,26.87 C37.949,28.152 35.279,28.152 33.811,26.866 L32.743,25.942 C30.511,23.99 26.739,23.99 24.509,25.939 L23.436,26.869 C21.967,28.153 19.296,28.153 17.827,26.866 L16.76,25.942 C14.529,23.989 10.756,23.988 8.527,25.938 L7.452,26.87 C5.984,28.152 3.315,28.152 1.844,26.866 L1.309,26.403 L0,27.915 L0.531,28.375 C1.648,29.352 3.15,29.84 4.651,29.84 C6.151,29.84 7.651,29.353 8.765,28.378 L8.765,28.378 Z M8.765,38.512 L9.84,37.581 C11.308,36.297 13.978,36.297 15.447,37.584 L16.515,38.508 C18.746,40.461 22.519,40.462 24.748,38.511 L25.822,37.581 C27.289,36.298 29.959,36.298 31.43,37.584 L32.497,38.508 C34.731,40.462 38.503,40.461 40.731,38.511 L41.266,38.048 L39.957,36.536 L39.418,37.003 C37.949,38.285 35.279,38.286 33.811,37 L32.743,36.075 C30.511,34.124 26.739,34.123 24.509,36.072 L23.436,37.002 C21.967,38.287 19.296,38.286 17.827,36.999 L16.76,36.076 C14.529,34.123 10.756,34.122 8.527,36.072 L7.452,37.003 C5.984,38.285 3.315,38.286 1.844,37 L1.309,36.536 L0,38.048 L0.531,38.508 C1.648,39.485 3.15,39.974 4.651,39.974 C6.151,39.974 7.651,39.486 8.765,38.512 L8.765,38.512 Z M4.652,34.907 C3.15,34.907 1.648,34.418 0.531,33.441 L0,32.981 L1.309,31.469 L1.844,31.933 C3.316,33.22 5.985,33.218 7.452,31.936 L8.527,31.005 C10.756,29.054 14.529,29.056 16.76,31.009 L17.827,31.932 C19.297,33.219 21.968,33.218 23.436,31.936 L24.51,31.006 C26.738,29.056 30.513,29.055 32.743,31.009 L33.81,31.933 C35.282,33.22 37.951,33.218 39.418,31.936 L39.957,31.469 L41.266,32.981 L40.731,33.444 C38.504,35.395 34.732,35.396 32.497,33.441 L31.431,32.518 C29.958,31.231 27.289,31.23 25.822,32.514 L24.748,33.444 C22.518,35.396 18.745,35.395 16.515,33.441 L15.447,32.518 C13.978,31.23 11.308,31.23 9.84,32.514 L8.765,33.445 C7.651,34.419 6.152,34.907 4.652,34.907 L4.652,34.907 Z" id="Fill-1"></path>
        </g>
    </g>
</svg>