<?xml version="1.0" encoding="UTF-8"?>
<svg width="64px" height="64px" viewBox="0 0 64 64" version="1.1" xmlns="http://www.w3.org/2000/svg" xmlns:xlink="http://www.w3.org/1999/xlink">
    <title>Icon-Architecture/48/Arch_Amazon-DataZone_48</title>
    <g id="Icon-Architecture/48/Arch_Amazon-DataZone_48" stroke="none" stroke-width="1" fill="none" fill-rule="evenodd">
        <g id="Icon-Architecture-BG/48/Analytics" fill="#8C4FFF">
            <rect id="Rectangle" x="0" y="0" width="64" height="64"></rect>
        </g>
        <path d="M26.6765,17.737 L25.2625,16.323 L31.2925,10.293 C31.4805,10.106 31.7345,10 31.9995,10 C32.2655,10 32.5195,10.106 32.7065,10.293 L38.7365,16.323 L37.3225,17.737 L31.9995,12.414 L26.6765,17.737 Z M53.9995,32 C53.9995,32.265 53.8945,32.52 53.7065,32.707 L47.6765,38.737 L46.2625,37.323 L51.5855,32 L46.2625,26.677 L47.6765,25.263 L53.7065,31.293 C53.8945,31.481 53.9995,31.735 53.9995,32 L53.9995,32 Z M37.2625,46.323 L38.6765,47.737 L32.7065,53.707 C32.5195,53.895 32.2655,54 31.9995,54 C31.7345,54 31.4805,53.895 31.2925,53.707 L25.3225,47.737 L26.7365,46.323 L31.9995,51.586 L37.2625,46.323 Z M17.7365,37.323 L16.3225,38.737 L10.2925,32.707 C9.9025,32.317 9.9025,31.684 10.2925,31.293 L16.2625,25.323 L17.6765,26.737 L12.4135,32 L17.7365,37.323 Z M42.4695,45.03 C41.0905,45.03 39.9695,43.908 39.9695,42.53 C39.9695,41.152 41.0905,40.03 42.4695,40.03 C43.8485,40.03 44.9695,41.152 44.9695,42.53 C44.9695,43.908 43.8485,45.03 42.4695,45.03 L42.4695,45.03 Z M25.2075,40.03 C24.8795,39.541 24.4585,39.12 23.9695,38.792 L23.9695,25.268 C24.4585,24.94 24.8795,24.519 25.2075,24.03 L38.7315,24.03 C39.0595,24.519 39.4805,24.94 39.9695,25.268 L39.9695,38.792 C39.4805,39.12 39.0595,39.541 38.7315,40.03 L25.2075,40.03 Z M21.4695,45.03 C20.0905,45.03 18.9695,43.908 18.9695,42.53 C18.9695,41.152 20.0905,40.03 21.4695,40.03 C22.8485,40.03 23.9695,41.152 23.9695,42.53 C23.9695,43.908 22.8485,45.03 21.4695,45.03 L21.4695,45.03 Z M18.9695,21.53 C18.9695,20.152 20.0905,19.03 21.4695,19.03 C22.8485,19.03 23.9695,20.152 23.9695,21.53 C23.9695,22.908 22.8485,24.03 21.4695,24.03 C20.0905,24.03 18.9695,22.908 18.9695,21.53 L18.9695,21.53 Z M42.4695,19.03 C43.8485,19.03 44.9695,20.152 44.9695,21.53 C44.9695,22.908 43.8485,24.03 42.4695,24.03 C41.0905,24.03 39.9695,22.908 39.9695,21.53 C39.9695,20.152 41.0905,19.03 42.4695,19.03 L42.4695,19.03 Z M42.4695,38.03 C42.2985,38.03 42.1355,38.062 41.9695,38.081 L41.9695,25.979 C42.1355,25.998 42.2985,26.03 42.4695,26.03 C44.9505,26.03 46.9695,24.011 46.9695,21.53 C46.9695,19.049 44.9505,17.03 42.4695,17.03 C39.9885,17.03 37.9695,19.049 37.9695,21.53 C37.9695,21.701 38.0015,21.864 38.0205,22.03 L25.9185,22.03 C25.9375,21.864 25.9695,21.701 25.9695,21.53 C25.9695,19.049 23.9505,17.03 21.4695,17.03 C18.9885,17.03 16.9695,19.049 16.9695,21.53 C16.9695,24.011 18.9885,26.03 21.4695,26.03 C21.6405,26.03 21.8035,25.998 21.9695,25.979 L21.9695,38.081 C21.8035,38.062 21.6405,38.03 21.4695,38.03 C18.9885,38.03 16.9695,40.049 16.9695,42.53 C16.9695,45.011 18.9885,47.03 21.4695,47.03 C23.9505,47.03 25.9695,45.011 25.9695,42.53 C25.9695,42.359 25.9375,42.196 25.9185,42.03 L38.0205,42.03 C38.0015,42.196 37.9695,42.359 37.9695,42.53 C37.9695,45.011 39.9885,47.03 42.4695,47.03 C44.9505,47.03 46.9695,45.011 46.9695,42.53 C46.9695,40.049 44.9505,38.03 42.4695,38.03 L42.4695,38.03 Z" id="Fill-3" fill="#FFFFFF"></path>
    </g>
</svg>