<?xml version="1.0" encoding="UTF-8"?>
<svg width="64px" height="64px" viewBox="0 0 64 64" version="1.1" xmlns="http://www.w3.org/2000/svg" xmlns:xlink="http://www.w3.org/1999/xlink">
    <title>Icon-Architecture/48/Arch_AWS-Entity-Resolution_48</title>
    <g id="Icon-Architecture/48/Arch_AWS-Entity-Resolution_48" stroke="none" stroke-width="1" fill="none" fill-rule="evenodd">
        <g id="Icon-Architecture-BG/48/Analytics" fill="#8C4FFF">
            <rect id="Rectangle" x="0" y="0" width="64" height="64"></rect>
        </g>
        <g id="Icon-Service/48/AWS-Entity-Resolution_48" transform="translate(10.000000, 10.000000)" fill="#FFFFFF">
            <path d="M39,32 C37.346,32 36,30.654 36,29 C36,27.346 37.346,26 39,26 C40.654,26 42,27.346 42,29 C42,30.654 40.654,32 39,32 L39,32 Z M25.875,34.923 L31.294,23.463 L34.574,26.724 C34.219,27.41 34,28.176 34,29 C34,29.676 34.138,30.319 34.382,30.908 L26.893,35.901 C26.598,35.531 26.262,35.197 25.875,34.923 L25.875,34.923 Z M23,42 C21.346,42 20,40.654 20,39 C20,37.346 21.346,36 23,36 C24.654,36 26,37.346 26,39 C26,40.654 24.654,42 23,42 L23,42 Z M2,20 C2,18.346 3.346,17 5,17 C6.654,17 8,18.346 8,20 C8,21.654 6.654,23 5,23 C3.346,23 2,21.654 2,20 L2,20 Z M21.517,13.74 L29.789,21.966 L24.045,34.114 C23.708,34.042 23.359,34 23,34 C22.175,34 21.407,34.22 20.72,34.576 L9.11,22.836 C9.669,22.029 10,21.053 10,20 C10,19.595 9.939,19.207 9.847,18.83 L21.517,13.74 Z M17.576,7 C17.716,6.682 17.828,6.349 17.899,6 L34.101,6 C34.106,6.022 34.115,6.042 34.119,6.063 L21.964,11.364 L17.576,7 Z M13,8 C11.346,8 10,6.654 10,5 C10,3.346 11.346,2 13,2 C14.654,2 16,3.346 16,5 C16,6.654 14.654,8 13,8 L13,8 Z M39,2 C40.654,2 42,3.346 42,5 C42,6.654 40.654,8 39,8 C37.346,8 36,6.654 36,5 C36,3.346 37.346,2 39,2 L39,2 Z M30.696,20.048 L23.489,12.881 L34.934,7.889 C35.218,8.288 35.565,8.634 35.951,8.934 L30.696,20.048 Z M39,24 C37.794,24 36.701,24.447 35.837,25.16 L32.201,21.544 L37.744,9.82 C38.148,9.926 38.564,10 39,10 C41.757,10 44,7.757 44,5 C44,2.243 41.757,0 39,0 C36.586,0 34.566,1.721 34.101,4 L17.899,4 C17.434,1.721 15.414,0 13,0 C10.243,0 8,2.243 8,5 C8,7.757 10.243,10 13,10 C14.314,10 15.503,9.48 16.396,8.648 L19.992,12.224 L8.992,17.021 C8.079,15.802 6.637,15 5,15 C2.243,15 0,17.243 0,20 C0,22.757 2.243,25 5,25 C5.981,25 6.89,24.706 7.663,24.216 L19.158,35.84 C18.446,36.704 18,37.796 18,39 C18,41.757 20.243,44 23,44 C25.757,44 28,41.757 28,39 C28,38.546 27.92,38.114 27.806,37.696 L35.503,32.564 C36.406,33.45 37.639,34 39,34 C41.757,34 44,31.757 44,29 C44,26.243 41.757,24 39,24 L39,24 Z" id="Fill-1"></path>
        </g>
    </g>
</svg>