<?xml version="1.0" encoding="UTF-8"?>
<svg width="64px" height="64px" viewBox="0 0 64 64" version="1.1" xmlns="http://www.w3.org/2000/svg" xmlns:xlink="http://www.w3.org/1999/xlink">
    <title>Icon-Architecture/48/Arch_Amazon-Kinesis-Data-Firehose_48</title>
    <g id="Icon-Architecture/48/Arch_Amazon-Kinesis-Data-Firehose_48" stroke="none" stroke-width="1" fill="none" fill-rule="evenodd">
        <g id="Icon-Architecture-BG/48/Analytics" fill="#8C4FFF">
            <rect id="Rectangle" x="0" y="0" width="64" height="64"></rect>
        </g>
        <g id="Icon-Service/48/Amazon-Kinesis-Data-Firehose" transform="translate(11.000000, 12.000000)" fill="#FFFFFF">
            <path d="M32.0641793,22 C35.3301793,22 39.0891793,22.755 42.3791793,24.072 L41.6371793,25.928 C38.5741793,24.703 35.0851793,24 32.0641793,24 L32.0641793,22 Z M41.4251793,22.812 C40.2451793,21.965 35.2581793,21 32.0641793,21 L32.0641793,19 C35.4271793,19 40.2831793,17.952 41.4521793,17.169 L42.5651793,18.831 C41.9371793,19.251 40.8231793,19.648 39.5051793,19.986 C40.8211793,20.32 41.9481793,20.726 42.5911793,21.188 L41.4251793,22.812 Z M42.3661793,15.934 C40.3491793,16.706 36.3301793,18 32.0641793,18 L32.0641793,16 C34.9451793,16 38.4391793,15.295 41.6511793,14.066 L42.3661793,15.934 Z M28.0081793,22.198 L21.0081793,23.753 L21.0081793,16.247 L28.0081793,17.802 L28.0081793,22.198 Z M19.0081793,26 L17.0081793,26 L17.0081793,14 L19.0081793,14 L19.0081793,15 L19.0081793,25 L19.0081793,26 Z M29.2251793,16.024 L21.0081793,14.198 L21.0081793,13 C21.0081793,12.448 20.5611793,12 20.0081793,12 L16.0081793,12 C15.4791793,12 15.0571793,12.415 15.0221793,12.935 C3.51817933,12.065 2.00817933,7.724 2.00817933,4 L2.00817933,0 L0.00817932921,0 L0.00817932921,4 C0.00817932921,12.674 8.30817933,14.468 15.0081793,14.938 L15.0081793,15.935 C8.91917933,15.574 4.31917933,13.699 1.49517933,12.126 L0.522179329,13.874 C3.54917933,15.559 8.48717933,17.572 15.0081793,17.938 L15.0081793,18.955 C10.2391793,18.767 5.19017933,18.069 1.26317933,17.033 L0.753179329,18.967 C2.24517933,19.36 3.90017933,19.703 5.63017933,19.994 C3.92417933,20.286 2.27617933,20.631 0.753179329,21.033 L1.26317933,22.967 C5.33117933,21.894 10.2841793,21.206 15.0081793,21.036 L15.0081793,22.062 C8.53817933,22.426 3.58117933,24.438 0.525179329,26.125 L1.49217933,27.875 C4.34417933,26.301 8.96717933,24.425 15.0081793,24.065 L15.0081793,25.068 C1.99117933,26.09 0.00817932921,32.94 0.00817932921,37 L0.00617932921,37.304 C-0.00582067079,39.729 0.00117932921,39.989 0.0141793292,40.107 L2.00517933,39.926 C1.99817933,39.778 1.99917933,38.899 2.00617933,37.315 L2.00817933,37 C2.00817933,29.775 8.85317933,27.583 15.0231793,27.072 C15.0621793,27.589 15.4811793,28 16.0081793,28 L20.0081793,28 C20.5611793,28 21.0081793,27.552 21.0081793,27 L21.0081793,25.802 L29.2251793,23.976 C29.6831793,23.875 30.0081793,23.469 30.0081793,23 L30.0081793,17 C30.0081793,16.531 29.6831793,16.125 29.2251793,16.024 L29.2251793,16.024 Z" id="Amazon-Kinesis-Data-Firehose_Icon_48_Squid"></path>
        </g>
    </g>
</svg>