<svg width="64" height="64" viewBox="0 0 64 64" fill="none" xmlns="http://www.w3.org/2000/svg">
<rect width="64" height="64" fill="#8C4FFF"/>
<path d="M51.4473 25.1174L46 22.3938V17.012C46 16.6648 45.8203 16.3425 45.5244 16.1604L39.0137 12.1487C38.7031 11.9568 38.3096 11.95 37.9932 12.1321L32 15.5608L26.0068 12.1321C25.6904 11.95 25.2969 11.9568 24.9863 12.1487L18.4756 16.1604C18.1797 16.3425 18 16.6648 18 17.012V22.3938L12.5527 25.1174C12.2139 25.2869 12 25.6331 12 26.012V38.012C12 38.3909 12.2139 38.7371 12.5527 38.9065L18 41.6301V47.012C18 47.3591 18.1797 47.6814 18.4756 47.8635L24.9863 51.8753C25.2969 52.0662 25.6904 52.0725 26.0068 51.8919L32 48.4631L37.9932 51.8919C38.1465 51.9797 38.3184 52.0237 38.4893 52.0237C38.6709 52.0237 38.8535 51.9739 39.0137 51.8753L45.5244 47.8635C45.8203 47.6814 46 47.3591 46 47.012V41.6301L51.4473 38.9065C51.7861 38.7371 52 38.3909 52 38.012V26.012C52 25.6331 51.7861 25.2869 51.4473 25.1174ZM32 34.3767L29.96 33.1931V30.8479L32 29.6507L34.04 30.8479V33.1931L32 34.3767ZM25.5293 49.8606L20 46.4534V41.012C20 40.6331 19.7861 40.2869 19.4473 40.1174L14 37.3938V26.6301L19.4473 23.9065C19.7861 23.7371 20 23.3909 20 23.012V17.5706L25.5293 14.1633L31 17.2926V27.9187L28.4541 29.4129C28.1475 29.5921 27.96 29.9207 27.96 30.2752V33.7693C27.96 34.1257 28.1494 34.4553 28.458 34.634L31 36.1088V46.7313L25.5293 49.8606ZM50 37.3938L44.5527 40.1174C44.2139 40.2869 44 40.6331 44 41.012V46.4534L38.4707 49.8606L33 46.7313V36.1088L35.542 34.6341C35.8506 34.4553 36.04 34.1258 36.04 33.7693V30.2752C36.04 29.9207 35.8525 29.5921 35.5459 29.4129L33 27.9187V17.2926L38.4707 14.1634L44 17.5706V23.012C44 23.3909 44.2139 23.7371 44.5527 23.9065L50 26.6302V37.3938Z" fill="white"/>
</svg>
