<?xml version="1.0" encoding="UTF-8"?>
<svg width="64px" height="64px" viewBox="0 0 64 64" version="1.1" xmlns="http://www.w3.org/2000/svg" xmlns:xlink="http://www.w3.org/1999/xlink">
    <title>Icon-Architecture/48/Arch_AWS-Glue-DataBrew_48</title>
    <g id="Icon-Architecture/48/Arch_AWS-Glue-DataBrew_48" stroke="none" stroke-width="1" fill="none" fill-rule="evenodd">
        <g id="Icon-Architecture-BG/48/Analytics" fill="#8C4FFF">
            <rect id="Rectangle" x="0" y="0" width="64" height="64"></rect>
        </g>
        <g id="Icon-Service/48/AWS-Glue-DataBrew_48" transform="translate(10.000000, 10.000000)" fill="#FFFFFF">
            <path d="M4,22 C4,22.551 3.552,23 3,23 C2.448,23 2,22.551 2,22 C2,21.449 2.448,21 3,21 C3.552,21 4,21.449 4,22 L4,22 Z M0,22 C0,23.654 1.346,25 3,25 C4.654,25 6,23.654 6,22 C6,20.346 4.654,19 3,19 C1.346,19 0,20.346 0,22 L0,22 Z M44,3.291 L44,40.709 C44,42.524 42.524,44 40.71,44 L3.29,44 C1.476,44 0,42.524 0,40.709 L0,27 L2,27 L2,40.709 C2,41.421 2.579,42 3.29,42 L40.71,42 C41.421,42 42,41.421 42,40.709 L42,3.291 C42,2.579 41.421,2 40.71,2 L3.29,2 C2.579,2 2,2.579 2,3.291 L2,17 L0,17 L0,3.291 C0,1.476 1.476,0 3.29,0 L40.71,0 C42.524,0 44,1.476 44,3.291 L44,3.291 Z M4,34 L7.524,34 C11.891,34 16.899,31.135 18.927,27.477 L20.677,28.447 C18.289,32.753 12.636,36 7.524,36 L4,36 L4,34 Z M34.545,7 L36.407,7 L35.114,5.707 L36.528,4.293 L39.742,7.506 C39.93,7.694 40.035,7.948 40.035,8.213 C40.035,8.479 39.93,8.733 39.742,8.92 L36.528,12.133 L35.114,10.719 L36.834,9 L34.545,9 C30.692,9 25.679,11.109 23.163,15.82 L21.399,14.877 C23.915,10.166 29.198,7 34.545,7 L34.545,7 Z M22.035,21.667 C22.124,28.467 27.733,34 34.538,34 L36.545,34 L35.114,32.57 L36.528,31.156 L39.742,34.369 C39.93,34.557 40.035,34.811 40.035,35.076 C40.035,35.341 39.93,35.596 39.742,35.783 L36.528,38.996 L35.114,37.582 L36.697,36 L34.538,36 C26.645,36 20.139,29.582 20.035,21.693 C19.942,14.575 14.447,9 7.524,9 L4,9 L4,7 L7.524,7 C15.555,7 21.929,13.442 22.035,21.667 L22.035,21.667 Z M10,16 C9.448,16 9,15.551 9,15 C9,14.449 9.448,14 10,14 C10.552,14 11,14.449 11,15 C11,15.551 10.552,16 10,16 L10,16 Z M10,12 C8.346,12 7,13.346 7,15 C7,16.654 8.346,18 10,18 C11.654,18 13,16.654 13,15 C13,13.346 11.654,12 10,12 L10,12 Z M12.305,24.356 L14.162,25.201 L13.317,27.059 L11.46,26.214 L12.305,24.356 Z M8.812,27.208 L14.31,29.708 L16.811,24.208 L11.311,21.708 L8.812,27.208 Z M35.999,16 L39.024,16 L39.003,25 L35.989,25 L35.999,16 Z M33.987,27 L40.997,27 L41.03,14 L34.001,14 L33.987,27 Z M26.999,18 L30.024,18 L30.003,25 L26.989,25 L26.999,18 Z M24.987,27 L31.997,27 L32.03,16 L25.001,16 L24.987,27 Z" id="Fill-5"></path>
        </g>
    </g>
</svg>