<?xml version="1.0" encoding="UTF-8"?>
<svg width="48px" height="48px" viewBox="0 0 48 48" version="1.1" xmlns="http://www.w3.org/2000/svg" xmlns:xlink="http://www.w3.org/1999/xlink">
    <title>Icon-Resource/Database/Res_Amazon-RDS_Optimized-Writes_48</title>
    <g id="Icon-Resource/Database/Res_Amazon-RDS_Optimized-Writes_48" stroke="none" stroke-width="1" fill="none" fill-rule="evenodd">
        <path d="M43.7578,17.0608 L36.5518,14.2328 L35.4938,16.9278 L42.6928,19.7748 L43.7578,17.0608 Z M41.9618,21.6358 L34.7628,18.7898 L29.2508,32.8318 L31.8248,33.8418 L35.9598,23.7808 L37.8098,24.5418 L33.6868,34.5728 L36.4568,35.6598 L41.9618,21.6358 Z M29.3918,42.8538 L35.1518,37.2958 L29.0528,34.9018 L29.3918,42.8538 Z M45.9848,16.8608 L37.9528,37.3218 C37.8598,37.5598 37.6808,37.7328 37.4678,37.8398 L29.1818,45.8368 C28.9918,46.0198 28.7408,46.1168 28.4868,46.1168 C28.3618,46.1168 28.2368,46.0938 28.1158,46.0458 C27.7508,45.8998 27.5048,45.5528 27.4878,45.1598 L27.0008,33.7348 L27.0248,33.7338 C26.9428,33.5068 26.9358,33.2578 27.0248,33.0318 L35.0558,12.5708 C35.2568,12.0568 35.8368,11.8028 36.3518,12.0058 L45.4188,15.5648 C45.6658,15.6618 45.8638,15.8528 45.9708,16.0958 C46.0758,16.3388 46.0808,16.6138 45.9848,16.8608 L45.9848,16.8608 Z M4.0138,8.1618 C4.0138,10.1628 8.6508,12.3218 16.1418,12.3218 C23.7198,12.3218 28.9998,10.1288 28.9998,8.1618 C28.9998,6.1928 23.7198,3.9998 16.1418,3.9998 C8.6508,3.9998 4.0138,6.1608 4.0138,8.1618 L4.0138,8.1618 Z M24.6918,42.9968 L25.2368,44.9198 C22.6888,45.6428 19.5878,46.0238 16.2708,46.0238 C7.7358,46.0238 1.9998,43.5478 1.9998,39.8628 L1.9998,8.0248 L2.0268,8.0248 C2.1678,4.4168 7.7978,1.9998 16.1418,1.9998 C23.4398,1.9998 30.8138,4.0708 30.9838,8.0248 L30.9998,8.0248 L30.9998,17.0248 L28.9998,17.0248 L28.9998,11.4088 C26.2868,13.3298 21.1938,14.3218 16.1418,14.3218 C10.6578,14.3218 6.3548,13.2748 3.9998,11.5358 L3.9998,39.8628 C3.9998,41.9088 8.5898,44.0238 16.2708,44.0238 C19.4058,44.0238 22.3188,43.6678 24.6918,42.9968 L24.6918,42.9968 Z M7.9998,23.0248 L19.9998,23.0248 L19.9998,21.0248 L7.9998,21.0248 L7.9998,23.0248 Z M6.9998,27.0248 L26.9998,27.0248 L26.9998,25.0248 L6.9998,25.0248 L6.9998,27.0248 Z M9.9998,31.0248 L15.9998,31.0248 L15.9998,29.0248 L9.9998,29.0248 L9.9998,31.0248 Z M18.9998,31.0248 L23.9998,31.0248 L23.9998,29.0248 L18.9998,29.0248 L18.9998,31.0248 Z" id="Fill-1" fill="#C925D1"></path>
    </g>
</svg>