<?xml version="1.0" encoding="UTF-8"?>
<svg width="48px" height="48px" viewBox="0 0 48 48" version="1.1" xmlns="http://www.w3.org/2000/svg" xmlns:xlink="http://www.w3.org/1999/xlink">
    <title>Icon-Resource/Database/Res_Amazon-Aurora_Trusted-Language-Extensions-for-PostgreSQL_48</title>
    <g id="Icon-Resource/Database/Res_Amazon-Aurora_Trusted-Language-Extensions-for-PostgreSQL_48" stroke="none" stroke-width="1" fill="none" fill-rule="evenodd">
        <path d="M26.033,30 L35.033,30 L35.033,28 L26.033,28 L26.033,30 Z M20.413,25.327 C19.064,25.327 18.391,24.375 18.391,22.471 C18.391,21.53 18.558,20.834 18.892,20.38 C19.226,19.927 19.739,19.7 20.431,19.7 C21.099,19.7 21.728,19.904 22.317,20.312 L22.317,24.664 C21.717,25.106 21.082,25.327 20.413,25.327 L20.413,25.327 Z M21.739,28.566 C21.354,28.957 20.736,29.152 19.887,29.152 C19.048,29.152 18.102,28.976 17.047,28.625 L17.047,30.053 C17.981,30.518 18.972,30.75 20.02,30.75 C21.396,30.75 22.459,30.376 23.204,29.628 C23.95,28.88 24.323,27.82 24.323,26.449 L24.323,18.391 L22.623,18.391 L22.453,19.173 C21.728,18.482 20.872,18.136 19.887,18.136 C19.161,18.136 18.532,18.323 17.999,18.697 C17.467,19.071 17.059,19.589 16.775,20.253 C16.492,20.916 16.351,21.678 16.351,22.539 C16.351,23.854 16.665,24.905 17.294,25.693 C17.923,26.481 18.765,26.874 19.818,26.874 C20.747,26.874 21.58,26.557 22.317,25.922 L22.317,26.653 C22.317,27.537 22.125,28.174 21.739,28.566 L21.739,28.566 Z M9.007,20.363 C9.63,19.932 10.31,19.717 11.046,19.717 C11.771,19.717 12.307,19.958 12.653,20.44 C12.998,20.922 13.171,21.661 13.171,22.658 C13.171,23.667 12.995,24.418 12.645,24.911 C12.293,25.403 11.755,25.65 11.029,25.65 C10.315,25.65 9.641,25.429 9.007,24.987 L9.007,20.363 Z M9.007,26.296 C9.335,26.591 9.721,26.82 10.162,26.984 C10.604,27.149 11.063,27.231 11.539,27.231 C12.287,27.231 12.938,27.033 13.494,26.636 C14.05,26.239 14.475,25.693 14.77,24.996 C15.063,24.298 15.211,23.497 15.211,22.59 C15.211,21.23 14.891,20.148 14.251,19.343 C13.61,18.539 12.752,18.136 11.676,18.136 C11.154,18.136 10.652,18.233 10.171,18.425 C9.689,18.618 9.25,18.896 8.854,19.258 L8.666,18.391 L7,18.391 L7,30.546 L9.007,30.546 L9.007,26.296 Z M32.033,4.65 L36.88,9 L32.033,9 L32.033,4.65 Z M39.701,8.844 L32.359,2.256 C32.176,2.091 31.937,2 31.691,2 L8.033,2 C7.48,2 7.033,2.448 7.033,3 L7.033,15 L9.033,15 L9.033,4 L30.033,4 L30.033,10 C30.033,10.552 30.48,11 31.033,11 L38.033,11 L38.033,44 L9.033,44 L9.033,34 L7.033,34 L7.033,45 C7.033,45.552 7.48,46 8.033,46 L39.033,46 C39.586,46 40.033,45.552 40.033,45 L40.033,9.588 C40.033,9.304 39.912,9.034 39.701,8.844 L39.701,8.844 Z" id="Fill-1" fill="#C925D1"></path>
    </g>
</svg>