<?xml version="1.0" encoding="UTF-8"?>
<svg width="48px" height="48px" viewBox="0 0 48 48" version="1.1" xmlns="http://www.w3.org/2000/svg" xmlns:xlink="http://www.w3.org/1999/xlink">
    <title>Icon-Resource/Database/Res_Amazon-DocumentDB_Elastic-Clusters_48</title>
    <g id="Icon-Resource/Database/Res_Amazon-DocumentDB_Elastic-Clusters_48" stroke="none" stroke-width="1" fill="none" fill-rule="evenodd">
        <path d="M27.9229,34.009 C30.9139,33.502 31.9999,32.53 31.9999,32.001 L31.9999,29.52 C30.0539,30.437 26.9669,30.806 23.9999,30.806 C21.0329,30.806 17.9459,30.437 15.9999,29.52 L15.9999,32.001 C15.9999,32.53 17.0859,33.502 20.0769,34.009 C20.7399,34.121 21.4439,34.205 22.1699,34.257 C22.4669,34.279 22.7669,34.295 23.0699,34.305 C23.6839,34.328 24.3189,34.328 24.9279,34.305 C25.2339,34.295 25.5329,34.279 25.8279,34.257 C26.5559,34.205 27.2599,34.121 27.9229,34.009 L27.9229,34.009 Z M15.9999,27.094 C16.1199,27.593 18.5929,28.806 23.9999,28.806 C29.4009,28.806 31.8739,27.597 31.9999,27.09 L31.9999,23.953 C30.0129,24.908 26.8599,25.29 23.9999,25.29 C21.1409,25.29 17.9869,24.908 15.9999,23.953 L15.9999,27.094 Z M15.9999,21.506 C16.1059,22.01 18.6419,23.29 23.9999,23.29 C29.3589,23.29 31.8949,22.01 31.9999,21.501 L31.9999,18.357 C30.0799,19.321 27.0349,19.774 23.9999,19.774 C20.9649,19.774 17.9199,19.321 15.9999,18.357 L15.9999,21.506 Z M16.0189,15.905 C16.2279,16.458 18.8139,17.774 23.9999,17.774 C29.1829,17.774 31.7689,16.459 31.9809,15.903 C31.7849,15.076 29.0569,13.677 23.9999,13.677 C18.9389,13.677 16.2109,15.078 16.0189,15.905 L16.0189,15.905 Z M28.2569,35.981 C27.5309,36.104 26.7629,36.196 25.9729,36.252 C25.6539,36.275 25.3289,36.293 24.9999,36.304 C24.6719,36.317 24.3379,36.322 23.9999,36.322 C23.6619,36.322 23.3279,36.317 22.9979,36.304 C22.6709,36.293 22.3459,36.275 22.0259,36.252 C21.2369,36.196 20.4689,36.104 19.7429,35.981 C16.0929,35.362 13.9999,33.911 13.9999,32.001 L13.9999,15.998 C13.9999,15.973 14.0069,15.949 14.0079,15.924 C14.0069,15.903 13.9999,15.883 13.9999,15.861 L14.0139,15.861 C14.1609,13.391 18.2199,11.677 23.9999,11.677 C29.7799,11.677 33.8389,13.391 33.9859,15.861 L33.9999,15.861 C33.9999,15.883 33.9929,15.903 33.9929,15.924 C33.9929,15.949 33.9999,15.973 33.9999,15.998 L33.9999,32.001 C33.9999,33.911 31.9069,35.362 28.2569,35.981 L28.2569,35.981 Z M44.9999,2 L38.9999,2 L38.9999,4 L42.5859,4 L36.5429,10.043 L37.9569,11.457 L43.9999,5.414 L43.9999,9 L45.9999,9 L45.9999,3 C45.9999,2.447 45.5529,2 44.9999,2 L44.9999,2 Z M1.9999,20 L3.9999,20 L3.9999,13 L1.9999,13 L1.9999,20 Z M1.9999,33 L3.9999,33 L3.9999,26 L1.9999,26 L1.9999,33 Z M43.9999,22 L45.9999,22 L45.9999,15 L43.9999,15 L43.9999,22 Z M43.9999,35 L45.9999,35 L45.9999,28 L43.9999,28 L43.9999,35 Z M3.9999,4 L6.9999,4 L6.9999,2 L2.9999,2 C2.4469,2 1.9999,2.447 1.9999,3 L1.9999,7 L3.9999,7 L3.9999,4 Z M12.9999,4 L19.9999,4 L19.9999,2 L12.9999,2 L12.9999,4 Z M25.9999,4 L32.9999,4 L32.9999,2 L25.9999,2 L25.9999,4 Z M14.9999,46 L21.9999,46 L21.9999,44 L14.9999,44 L14.9999,46 Z M27.9999,46 L34.9999,46 L34.9999,44 L27.9999,44 L27.9999,46 Z M43.9999,43.999 L40.9999,44 L40.9999,46 L44.9999,45.999 C45.5529,45.999 45.9999,45.551 45.9999,44.999 L45.9999,41 L43.9999,41 L43.9999,43.999 Z M11.4569,37.957 L5.4139,44 L8.9999,44 L8.9999,46 L2.9999,46 C2.4469,46 1.9999,45.552 1.9999,45 L1.9999,39 L3.9999,39 L3.9999,42.586 L10.0429,36.543 L11.4569,37.957 Z" id="Fill-1" fill="#C925D1"></path>
    </g>
</svg>