<?xml version="1.0" encoding="UTF-8"?>
<svg width="80px" height="80px" viewBox="0 0 80 80" version="1.1" xmlns="http://www.w3.org/2000/svg" xmlns:xlink="http://www.w3.org/1999/xlink">
    <title>Icon-Architecture/64/Arch_AWS-Marketplace_Light_64</title>
    <g id="Icon-Architecture/64/Arch_AWS-Marketplace_Light_64" stroke="none" stroke-width="1" fill="none" fill-rule="evenodd">
        <rect id="Rectangle" fill="#232F3E" x="0" y="0" width="80" height="80"></rect>
        <g id="Icon-Service/64/AWS-Marketplace_64" transform="translate(16.000000, 15.500000)" fill="#FFFFFF">
            <path d="M32.98,45.00025 C32.98,46.37825 31.859,47.50025 30.48,47.50025 C29.101,47.50025 27.98,46.37825 27.98,45.00025 C27.98,43.62225 29.101,42.50025 30.48,42.50025 C31.859,42.50025 32.98,43.62225 32.98,45.00025 L32.98,45.00025 Z M39.97,14.50025 C39.495,14.50025 39.084,14.83525 38.99,15.30125 L34.693,36.50025 L4.799,36.50025 L1.96,22.30425 L0,22.69625 L3,37.69625 C3.093,38.16425 3.503,38.50025 3.98,38.50025 L31.021,38.50025 L29.861,40.56325 C27.673,40.86825 25.98,42.73025 25.98,45.00025 C25.98,47.48125 27.999,49.50025 30.48,49.50025 C32.961,49.50025 34.98,47.48125 34.98,45.00025 C34.98,43.06425 33.745,41.42425 32.026,40.79125 L33.314,38.50025 L35.51,38.50025 C35.986,38.50025 36.396,38.16525 36.491,37.69925 L40.788,16.50025 L48.98,16.50025 L48.98,14.50025 L39.97,14.50025 Z M10.48,47.50025 C9.101,47.50025 7.98,46.37825 7.98,45.00025 C7.98,43.62225 9.101,42.50025 10.48,42.50025 C11.859,42.50025 12.98,43.62225 12.98,45.00025 C12.98,46.37825 11.859,47.50025 10.48,47.50025 L10.48,47.50025 Z M10.48,40.50025 C7.999,40.50025 5.98,42.51925 5.98,45.00025 C5.98,47.48125 7.999,49.50025 10.48,49.50025 C12.961,49.50025 14.98,47.48125 14.98,45.00025 C14.98,42.51925 12.961,40.50025 10.48,40.50025 L10.48,40.50025 Z M10.98,2.15525 L16.98,5.61925 L10.98,9.08325 L4.98,5.61925 L10.98,2.15525 Z M26.98,2.15525 L32.98,5.61925 L26.98,9.08325 L20.98,5.61925 L26.98,2.15525 Z M27.98,17.74325 L27.98,10.81525 L33.98,7.35125 L33.98,14.27925 L27.98,17.74325 Z M19.98,31.64425 L19.98,24.71525 L25.98,21.25125 L25.98,28.18025 L19.98,31.64425 Z M11.98,21.25125 L17.98,24.71525 L17.98,31.64425 L11.98,28.18025 L11.98,21.25125 Z M17.98,14.27925 L11.98,17.74325 L11.98,10.81525 L17.98,7.35125 L17.98,14.27925 Z M25.98,17.74325 L19.98,14.27925 L19.98,7.35125 L25.98,10.81525 L25.98,17.74325 Z M18.98,22.98325 L12.942,19.49725 L18.98,16.01125 L25.018,19.49725 L18.98,22.98325 Z M3.98,7.35125 L9.98,10.81525 L9.98,17.74325 L3.98,14.27925 L3.98,7.35125 Z M2.48,15.72325 L9.98,20.05325 L9.98,28.75725 C9.98,29.11425 10.17,29.44425 10.48,29.62325 L18.48,34.24225 C18.634,34.33125 18.807,34.37525 18.98,34.37525 C19.153,34.37525 19.326,34.33125 19.48,34.24225 L27.48,29.62325 C27.79,29.44425 27.98,29.11425 27.98,28.75725 L27.98,20.05325 L35.48,15.72325 C35.79,15.54425 35.98,15.21425 35.98,14.85625 L35.98,5.61925 C35.98,5.26125 35.79,4.93125 35.48,4.75225 L27.48,0.13425 C27.171,-0.04475 26.789,-0.04475 26.48,0.13425 L18.98,4.46425 L11.48,0.13425 C11.171,-0.04475 10.789,-0.04475 10.48,0.13425 L2.48,4.75225 C2.17,4.93125 1.98,5.26125 1.98,5.61925 L1.98,14.85625 C1.98,15.21425 2.17,15.54425 2.48,15.72325 L2.48,15.72325 Z" id="Fill-1"></path>
        </g>
    </g>
</svg>