<?xml version="1.0" encoding="UTF-8"?>
<svg width="24px" height="24px" viewBox="0 0 24 24" version="1.1" xmlns="http://www.w3.org/2000/svg" xmlns:xlink="http://www.w3.org/1999/xlink">
    <title>Icon-Architecture/16/Arch_Amazon-Cloud-Directory_16</title>
    <g id="Icon-Architecture/16/Arch_Amazon-Cloud-Directory_16" stroke="none" stroke-width="1" fill="none" fill-rule="evenodd">
        <g id="Icon-Architecture-BG/16/Security-Identity-Compliance" fill="#DD344C">
            <rect id="Rectangle" x="0" y="0" width="24" height="24"></rect>
        </g>
        <g id="Icon-Service/16/Amazon-Cloud-Directory_16" transform="translate(7.000000, 4.000000)" fill="#FFFFFF">
            <path d="M7.5,12.437 C7.225,12.437 7,12.213 7,11.937 C7,11.662 7.225,11.437 7.5,11.437 C7.775,11.437 8,11.662 8,11.937 C8,12.213 7.775,12.437 7.5,12.437 M3.5,12.437 C3.225,12.437 3,12.213 3,11.937 C3,11.662 3.225,11.437 3.5,11.437 C3.775,11.437 4,11.662 4,11.937 C4,12.213 3.775,12.437 3.5,12.437 M5.5,6.437 C5.775,6.437 6,6.661 6,6.937 C6,7.212 5.775,7.436 5.5,7.436 C5.225,7.436 5,7.212 5,6.937 C5,6.661 5.225,6.437 5.5,6.437 M8,10.53 L8,9.437 C8,9.161 7.776,8.937 7.5,8.937 L6,8.937 L6,8.344 C6.581,8.137 7,7.587 7,6.937 C7,6.109 6.327,5.437 5.5,5.437 C4.673,5.437 4,6.109 4,6.937 C4,7.587 4.419,8.137 5,8.344 L5,8.937 L3.5,8.937 C3.224,8.937 3,9.161 3,9.437 L3,10.53 C2.419,10.737 2,11.287 2,11.937 C2,12.764 2.673,13.437 3.5,13.437 C4.327,13.437 5,12.764 5,11.937 C5,11.287 4.581,10.737 4,10.53 L4,9.937 L7,9.937 L7,10.53 C6.419,10.737 6,11.287 6,11.937 C6,12.764 6.673,13.437 7.5,13.437 C8.327,13.437 9,12.764 9,11.937 C9,11.287 8.581,10.737 8,10.53 M5.501,14.854 C2.753,14.854 1,13.975 1,13.516 L1,3.338 C2.256,3.966 4.38,4.059 5.5,4.059 C6.62,4.059 8.744,3.966 10,3.338 L10,13.516 C10,13.975 8.248,14.854 5.501,14.854 M5.5,1 C8.68,1 10,1.671 10,2.031 C10,2.389 8.68,3.059 5.5,3.059 C2.32,3.059 1,2.389 1,2.031 C1,1.671 2.32,1 5.5,1 M5.5,0 C3.848,0 0.002,0.198 0,2.029 L0,13.516 C0,15.034 2.834,15.854 5.501,15.854 C8.167,15.854 11,15.034 11,13.516 L11,2.031 C11,0.198 7.153,0 5.5,0" id="Amazon-Cloud-Directory_16_Squid"></path>
        </g>
    </g>
</svg>