<?xml version="1.0" encoding="UTF-8"?>
<svg width="24px" height="24px" viewBox="0 0 24 24" version="1.1" xmlns="http://www.w3.org/2000/svg" xmlns:xlink="http://www.w3.org/1999/xlink">
    <title>Icon-Architecture/16/Arch_AWS-Network-Firewall_16</title>
    <g id="Icon-Architecture/16/Arch_AWS-Network-Firewall_16" stroke="none" stroke-width="1" fill="none" fill-rule="evenodd">
        <g id="Icon-Architecture-BG/16/Security-Identity-Compliance" fill="#DD344C">
            <rect id="Rectangle" x="0" y="0" width="24" height="24"></rect>
        </g>
        <g id="Icon-Service/16/AWS-Network-Firewall_16" transform="translate(3.935000, 4.160000)" fill="#FFFFFF">
            <path d="M15.0704937,11.8383916 L11.5704937,11.8383916 L11.0704937,11.8383916 L11.0704937,9.83839165 L13.5704937,9.83839165 L15.0704937,9.83839165 L15.0704937,11.8383916 Z M11.0704937,14.8383916 L7.07049371,14.8383916 L7.07049371,12.8383916 L10.0704937,12.8383916 L10.5704937,12.8383916 L11.0704937,12.8383916 L11.0704937,14.8383916 Z M4.23649371,9.84839165 L4.04749371,9.84739165 C2.94849371,9.84739165 1.93949371,9.29339165 1.34949371,8.36539165 C0.897493713,7.65439165 0.889493713,6.69739165 1.34149371,5.90939165 C1.82849371,5.17039165 1.81049371,4.22339165 1.68749371,3.49639165 C1.97849371,3.78039165 2.23149371,4.14239165 2.36049371,4.37239165 C2.45549371,4.54239165 2.62849371,4.64039165 2.83749371,4.62739165 C3.03149371,4.61139165 3.20049371,4.48439165 3.26649371,4.29939165 C3.71449371,3.07139165 3.58349371,2.10139165 3.30249371,1.40439165 C4.40049371,1.90239165 5.79349371,2.96139165 5.79349371,5.12439165 C5.79349371,5.26039165 5.84849371,5.39139165 5.94749371,5.48539165 C6.04549371,5.57939165 6.17649371,5.64039165 6.31449371,5.62439165 C6.66949371,5.60939165 7.28149371,5.36839165 7.63149371,4.63939165 C7.85549371,4.98839165 8.07049371,5.53239165 8.07049371,6.33839165 L8.07049371,8.83839165 L5.57049371,8.83839165 C5.29449371,8.83839165 5.07049371,9.06239165 5.07049371,9.33839165 L5.07049371,9.85139165 C4.76949371,9.85239165 4.40349371,9.85039165 4.23649371,9.84839165 L4.23649371,9.84839165 Z M10.0704937,11.8383916 L6.57049371,11.8383916 L6.07049371,11.8383916 L6.07049371,9.83839165 L8.57049371,9.83839165 L10.0704937,9.83839165 L10.0704937,11.8383916 Z M13.0704937,8.83839165 L10.5704937,8.83839165 L10.0704937,8.83839165 L9.07049371,8.83839165 L9.07049371,6.83839165 L13.0704937,6.83839165 L13.0704937,8.83839165 Z M15.5704937,8.83839165 L14.0704937,8.83839165 L14.0704937,6.33839165 C14.0704937,6.06239165 13.8464937,5.83839165 13.5704937,5.83839165 L9.03249371,5.83839165 C8.84349371,3.96339165 7.67449371,3.27039165 7.62049371,3.23939165 C7.47349371,3.15839165 7.29649371,3.15539165 7.14749371,3.23339165 C6.99849371,3.31039165 6.89849371,3.45739165 6.88149371,3.62439165 C6.85249371,3.88839165 6.79449371,4.08339165 6.72249371,4.22639165 C6.14749371,0.658391649 2.20049371,0.0123916494 2.15749371,0.00539164942 C1.92849371,-0.0276083506 1.71449371,0.0933916494 1.62449371,0.299391649 C1.53349371,0.506391649 1.59249371,0.749391649 1.77049371,0.891391649 C1.78149371,0.899391649 2.63149371,1.59739165 2.54849371,2.94439165 C2.13849371,2.50239165 1.57449371,2.07339165 0.924493713,2.07339165 C0.757493713,2.07339165 0.603493713,2.15639165 0.509493713,2.29339165 C0.417493713,2.43039165 0.398493713,2.60539165 0.460493713,2.75939165 C0.643493713,3.22239165 1.01149371,4.59239165 0.533493713,5.32239165 C0.517493713,5.34239165 0.476493713,5.40739165 0.464493713,5.43039165 C-0.169506287,6.53539165 -0.153506287,7.86639165 0.506493713,8.90239165 C1.28049371,10.1203916 2.60449371,10.8473916 4.04749371,10.8473916 L4.23049371,10.8483916 C4.49549371,10.8503916 4.71449371,10.8513916 4.89349371,10.8513916 C4.96149371,10.8513916 5.01349371,10.8503916 5.07049371,10.8503916 L5.07049371,12.3383916 C5.07049371,12.6143916 5.29449371,12.8383916 5.57049371,12.8383916 L6.07049371,12.8383916 L6.07049371,15.3383916 C6.07049371,15.6143916 6.29449371,15.8383916 6.57049371,15.8383916 L11.5704937,15.8383916 C11.8464937,15.8383916 12.0704937,15.6143916 12.0704937,15.3383916 L12.0704937,12.8383916 L15.5704937,12.8383916 C15.8464937,12.8383916 16.0704937,12.6143916 16.0704937,12.3383916 L16.0704937,9.33839165 C16.0704937,9.06239165 15.8464937,8.83839165 15.5704937,8.83839165 L15.5704937,8.83839165 Z" id="Fill-7"></path>
        </g>
    </g>
</svg>