<?xml version="1.0" encoding="UTF-8"?>
<svg width="24px" height="24px" viewBox="0 0 24 24" version="1.1" xmlns="http://www.w3.org/2000/svg" xmlns:xlink="http://www.w3.org/1999/xlink">
    <title>Icon-Architecture/16/Arch_Amazon-Security-Lake_16</title>
    <g id="Icon-Architecture/16/Arch_Amazon-Security-Lake_16" stroke="none" stroke-width="1" fill="none" fill-rule="evenodd">
        <g id="Icon-Architecture-BG/16/Security-Identity-Compliance" fill="#DD344C">
            <rect id="Rectangle" x="0" y="0" width="24" height="24"></rect>
        </g>
        <path d="M14.864,10.7980055 C14.296,10.7980055 13.833,10.3360055 13.833,9.76700551 L12.833,9.76700551 C12.833,10.3360055 12.37,10.7980055 11.801,10.7980055 C11.233,10.7980055 10.77,10.3360055 10.77,9.76700551 L9.77,9.76700551 C9.77,10.3360055 9.308,10.7980055 8.74,10.7980055 L8.74,11.7980055 C9.35,11.7980055 9.898,11.5270055 10.27,11.1000055 C10.643,11.5270055 11.191,11.7980055 11.801,11.7980055 C12.412,11.7980055 12.96,11.5270055 13.333,11.1000055 C13.706,11.5270055 14.254,11.7980055 14.864,11.7980055 C15.474,11.7980055 16.022,11.5270055 16.394,11.1000055 C16.767,11.5270055 17.315,11.7980055 17.926,11.7980055 C19.046,11.7980055 19.957,10.8870055 19.957,9.76700551 L18.957,9.76700551 C18.957,10.3360055 18.494,10.7980055 17.926,10.7980055 C17.357,10.7980055 16.894,10.3360055 16.894,9.76700551 L15.894,9.76700551 C15.894,10.3360055 15.432,10.7980055 14.864,10.7980055 M17.926,14.3450055 C17.357,14.3450055 16.894,13.8820055 16.894,13.3140055 L15.894,13.3140055 C15.894,13.8820055 15.432,14.3450055 14.864,14.3450055 C14.296,14.3450055 13.833,13.8820055 13.833,13.3140055 L12.833,13.3140055 C12.833,13.8820055 12.37,14.3450055 11.801,14.3450055 C11.233,14.3450055 10.77,13.8820055 10.77,13.3140055 L9.77,13.3140055 C9.77,13.8820055 9.308,14.3450055 8.74,14.3450055 L8.74,15.3450055 C9.35,15.3450055 9.898,15.0740055 10.27,14.6470055 C10.643,15.0740055 11.191,15.3450055 11.801,15.3450055 C12.412,15.3450055 12.96,15.0740055 13.333,14.6470055 C13.706,15.0740055 14.254,15.3450055 14.864,15.3450055 C15.474,15.3450055 16.022,15.0740055 16.394,14.6470055 C16.767,15.0740055 17.315,15.3450055 17.926,15.3450055 C19.046,15.3450055 19.957,14.4340055 19.957,13.3140055 L18.957,13.3140055 C18.957,13.8820055 18.494,14.3450055 17.926,14.3450055 M14.708,16.2510055 L15.643,16.6050055 C15.225,17.7080055 13.845,20.2740055 10.056,20.2740055 C5.525,20.2740055 4,16.5730055 4,14.8850055 L4,6.32900551 C4,6.11300551 4.138,5.92200551 4.343,5.85400551 L9.9,4.02500551 C10.003,3.99100551 10.113,3.99200551 10.216,4.02600551 L15.659,5.85500551 C15.863,5.92300551 16,6.11400551 16,6.32900551 L16,8.07700551 L15,8.07700551 L15,6.68900551 L10.054,5.02700551 L5,6.69100551 L5,14.8850055 C5,15.7560055 5.899,19.2740055 10.056,19.2740055 C13.108,19.2740055 14.281,17.3800055 14.708,16.2510055" id="Fill-1" fill="#FFFFFF"></path>
    </g>
</svg>