<?xml version="1.0" encoding="UTF-8"?>
<svg width="24px" height="24px" viewBox="0 0 24 24" version="1.1" xmlns="http://www.w3.org/2000/svg" xmlns:xlink="http://www.w3.org/1999/xlink">
    <title>Icon-Architecture/16/Arch_AWS-Private-Certificate-Authority_16</title>
    <g id="Icon-Architecture/16/Arch_AWS-Private-Certificate-Authority_16" stroke="none" stroke-width="1" fill="none" fill-rule="evenodd">
        <g id="Icon-Architecture-BG/16/Security-Identity-Compliance" fill="#DD344C">
            <rect id="Rectangle" x="0" y="0" width="24" height="24"></rect>
        </g>
        <path d="M11.771,11.52 L14.104,9.187 L13.397,8.48 L11.417,10.459 L10.604,9.646 L9.897,10.353 L11.064,11.52 C11.162,11.618 11.29,11.666 11.417,11.666 C11.545,11.666 11.673,11.618 11.771,11.52 M15,10 C15,11.654 13.655,13 12,13 C10.346,13 9,11.654 9,10 C9,8.346 10.346,7 12,7 C13.655,7 15,8.346 15,10 M16,10 C16,7.794 14.207,6 12,6 C9.794,6 8,7.794 8,10 C8,12.206 9.794,14 12,14 C14.207,14 16,12.206 16,10 M20,19.5 L20,4.5 C20,4.224 19.777,4 19.5,4 L4.5,4 C4.224,4 4,4.224 4,4.5 L4,19.5 C4,19.776 4.224,20 4.5,20 L15,20 L15,19 L5,19 L5,5 L19,5 L19,19 L18,19 L18,20 L19.5,20 C19.777,20 20,19.776 20,19.5 M14.5,18 C14.438,18 14.375,17.988 14.315,17.964 L12,17.039 L9.686,17.964 C9.533,18.025 9.357,18.006 9.22,17.914 C9.083,17.821 9,17.666 9,17.5 L9,15 L10,15 L10,16.762 L11.815,16.036 C11.934,15.988 12.067,15.988 12.186,16.036 L14,16.762 L14,15 L15,15 L15,17.5 C15,17.666 14.918,17.821 14.781,17.914 C14.697,17.971 14.599,18 14.5,18" id="Fill-1" fill="#FFFFFF"></path>
    </g>
</svg>