<?xml version="1.0" encoding="UTF-8"?>
<svg width="24px" height="24px" viewBox="0 0 24 24" version="1.1" xmlns="http://www.w3.org/2000/svg" xmlns:xlink="http://www.w3.org/1999/xlink">
    <title>Icon-Architecture/16/Arch_AWS-Payment-Cryptography_16</title>
    <g id="Icon-Architecture/16/Arch_AWS-Payment-Cryptography_16" stroke="none" stroke-width="1" fill="none" fill-rule="evenodd">
        <g id="Icon-Architecture-BG/16/Security-Identity-Compliance" fill="#DD344C">
            <rect id="Rectangle" x="0" y="0" width="24" height="24"></rect>
        </g>
        <g id="Icon-Service/16/AWS-Payment-Cryptography_16" transform="translate(4.000000, 4.000000)" fill="#FFFFFF">
            <path d="M16,9 L16,14.071 C16,15.135 15.135,16 14.071,16 L1.929,16 C0.865,16 0,15.135 0,14.071 L0,5.929 C0,4.865 0.865,4 1.929,4 L6,4 L6,5 L1.929,5 C1.417,5 1,5.417 1,5.929 L1,14.071 C1,14.583 1.417,15 1.929,15 L14.071,15 C14.583,15 15,14.583 15,14.071 L15,9 L16,9 Z M3,13 L5,13 L5,12 L3,12 L3,13 Z M6,13 L8,13 L8,12 L6,12 L6,13 Z M4,9 L6,9 L6,8 L4,8 L4,9 Z M3,7.5 L3,9.5 C3,9.776 3.224,10 3.5,10 L6.5,10 C6.776,10 7,9.776 7,9.5 L7,7.5 C7,7.224 6.776,7 6.5,7 L3.5,7 C3.224,7 3,7.224 3,7.5 L3,7.5 Z M9,13 L11,13 L11,12 L9,12 L9,13 Z M9.5,1 C10.327,1 11,1.673 11,2.5 C11,3.327 10.327,4 9.5,4 C8.673,4 8,3.327 8,2.5 C8,1.673 8.673,1 9.5,1 L9.5,1 Z M9.5,5 C10.009,5 10.482,4.845 10.877,4.583 L12.293,6 L11.146,7.146 L11.854,7.854 L13,6.707 L14.146,7.854 L14.854,7.146 L11.584,3.876 C11.846,3.481 12,3.009 12,2.5 C12,1.122 10.879,0 9.5,0 C8.121,0 7,1.122 7,2.5 C7,3.878 8.121,5 9.5,5 L9.5,5 Z" id="Fill-6"></path>
        </g>
    </g>
</svg>