<?xml version="1.0" encoding="UTF-8"?>
<svg width="24px" height="24px" viewBox="0 0 24 24" version="1.1" xmlns="http://www.w3.org/2000/svg" xmlns:xlink="http://www.w3.org/1999/xlink">
    <title>Icon-Architecture/16/Arch_Amazon-Verified-Permissions_16</title>
    <g id="Icon-Architecture/16/Arch_Amazon-Verified-Permissions_16" stroke="none" stroke-width="1" fill="none" fill-rule="evenodd">
        <g id="Icon-Architecture-BG/16/Security-Identity-Compliance" fill="#DD344C">
            <rect id="Rectangle" x="0" y="0" width="24" height="24"></rect>
        </g>
        <path d="M19,14 L19,13 L15,13 L15,11 L14,11 L14,19 L15,19 L15,17 L19,17 L19,16 L15,16 L15,14 L19,14 Z M11.232,7.076 L9.292,9.017 L8.499,8.223 L7.792,8.93 L8.938,10.077 C9.032,10.171 9.159,10.224 9.292,10.224 C9.425,10.224 9.552,10.171 9.646,10.077 L11.939,7.783 L11.232,7.076 Z M10.659,13.456 L9.722,14.393 L8.785,13.456 L8.078,14.163 L9.015,15.1 L8.078,16.037 L8.785,16.744 L9.722,15.807 L10.659,16.744 L11.366,16.037 L10.429,15.1 L11.366,14.163 L10.659,13.456 Z M6,19 L13,19 L13,20 L5.5,20 C5.224,20 5,19.776 5,19.5 L5,4.5 C5,4.224 5.224,4 5.5,4 L16.5,4 C16.776,4 17,4.224 17,4.5 L17,10 L16,10 L16,5 L6,5 L6,19 Z" id="Fill-7" fill="#FFFFFF"></path>
    </g>
</svg>