<svg width="24" height="24" viewBox="0 0 24 24" fill="none" xmlns="http://www.w3.org/2000/svg">
<g id="Icon-Architecture/16/Arch_AWS-Security-Incident-Response_16">
<g id="Icon-Architecture-BG/16/Security-Identity-Compliance">
<rect id="Rectangle" width="24" height="24" fill="#DD344C"/>
</g>
<g id="Icon-Service/16/AWS-Security-Incident-Response_16">
<path id="Vector" d="M5 12.105C5 13.8101 5.66406 15.4131 6.87012 16.6186L6.16309 17.3257C4.76856 15.9316 4 14.0771 4 12.105C4 8.03368 7.31152 4.72167 11.3828 4.72167C12.4808 4.72167 13.5521 4.96856 14.5328 5.43188L14.2705 4.20996L15.249 4L15.7656 6.40918C15.8203 6.6665 15.667 6.92285 15.4141 6.99512L13.0049 7.68311L12.7295 6.7212L14.0974 6.33064C13.2523 5.93293 12.3294 5.72169 11.3828 5.72169C7.86328 5.72167 5 8.58544 5 12.105ZM16.9102 6.76854L16.1953 7.46776C17.3867 8.68651 18.0322 10.2969 18.0127 12.0019C17.9727 15.4966 15.1162 18.312 11.6309 18.312C11.6055 18.312 11.5811 18.312 11.5566 18.3115C10.6103 18.3006 9.68988 18.079 8.85004 17.6718L10.2217 17.2969L9.95801 16.332L7.54199 16.9927C7.28808 17.062 7.13183 17.3164 7.18359 17.5742L7.67187 19.9888L8.65234 19.7905L8.40484 18.5663C9.37945 19.0403 10.4474 19.2991 11.5449 19.3115C11.5742 19.312 11.6016 19.312 11.6309 19.312C15.6621 19.3115 18.9658 16.0552 19.0127 12.0137C19.0352 10.041 18.2881 8.17821 16.9102 6.76854ZM14.6348 8.47655C14.8408 8.54344 14.9805 8.73534 14.9805 8.95214V13.4331C14.9805 14.4316 14.1348 16.4937 11.5225 16.4937C8.88867 16.4937 8.00195 14.3921 8.00195 13.4331V8.95214C8.00195 8.73437 8.14257 8.5415 8.35058 8.47558L11.3711 7.51708C11.4727 7.48632 11.5791 7.48632 11.6768 7.51806L14.6348 8.47655ZM11.0225 15.4426V8.67663L9.00195 9.31787V13.4331C9.00195 13.8055 9.38885 15.196 11.0225 15.4426ZM13.9805 9.31591L12.0225 8.68127V15.4426C13.621 15.1963 13.9805 13.8289 13.9805 13.4331V9.31591Z" fill="white"/>
</g>
</g>
</svg>
