<?xml version="1.0" encoding="UTF-8"?>
<svg width="40px" height="40px" viewBox="0 0 40 40" version="1.1" xmlns="http://www.w3.org/2000/svg" xmlns:xlink="http://www.w3.org/1999/xlink">
    <title>Icon-Architecture/32/Arch_AWS-B2B-Data-Interchange_32</title>
    <g id="Icon-Architecture/32/Arch_AWS-B2B-Data-Interchange_32" stroke="none" stroke-width="1" fill="none" fill-rule="evenodd">
        <g id="Icon-Architecture-BG/32/Application-Integration" fill="#E7157B">
            <rect id="Rectangle" x="0" y="0" width="40" height="40"></rect>
        </g>
        <g id="Icon-Service/32/AWS-B2B-Data-Interchange_32" transform="translate(6.000000, 6.000000)" fill="#FFFFFF">
            <path d="M22,14 L22,9 L17,9 L17,14 L18,14 L18,15 L16.5,15 C16.224,15 16,14.776 16,14.5 L16,8.5 C16,8.224 16.224,8 16.5,8 L22.5,8 C22.776,8 23,8.224 23,8.5 L23,14.5 C23,14.776 22.776,15 22.5,15 L21,15 L21,14 L22,14 Z M14.5,25 L10.722,25 L12.36,26.639 L11.653,27.346 L9.153,24.846 C8.958,24.65 8.958,24.334 9.153,24.139 L11.653,21.639 L12.36,22.346 L10.706,24 L14.5,24 C16.981,24 19,21.981 19,19.5 L19,10.999 L20,10.999 L20,19.5 C20,22.533 17.532,25 14.5,25 L14.5,25 Z M12.291,12 L8.499,12 C6.018,12 3.999,14.019 3.999,16.5 L3.999,25.001 L2.999,25.001 L2.999,16.5 C2.999,13.467 5.467,11 8.499,11 L12.291,11 L10.645,9.354 L11.352,8.646 L13.852,11.146 C14.047,11.342 14.047,11.658 13.852,11.854 L11.352,14.354 L10.645,13.646 L12.291,12 Z M6.999,21.501 L6.999,27.5 C6.999,27.776 6.775,28 6.499,28 L0.5,28 C0.224,28 0,27.776 0,27.5 L0,21.501 C0,21.225 0.224,21.001 0.5,21.001 L2,21.001 L2,22.001 L1,22.001 L1,27 L5.999,27 L5.999,22.001 L4.999,22.001 L4.999,21.001 L6.499,21.001 C6.775,21.001 6.999,21.225 6.999,21.501 L6.999,21.501 Z M24,1.712 L26.284,4 L24,4 L24,1.712 Z M27.854,4.156 L23.85,0.146 C23.756,0.053 23.629,0 23.496,0 L7.5,0 C7.224,0 7,0.224 7,0.5 L7,8 L8,8 L8,1 L23,1 L23,4.5 C23,4.776 23.224,5 23.5,5 L27,5 L26.99,27 L18,27 L18,28 L27.49,28 C27.767,28 27.99,27.776 27.99,27.5 L28,4.51 C28,4.377 27.947,4.25 27.854,4.156 L27.854,4.156 Z" id="Fill-5"></path>
        </g>
    </g>
</svg>