<?xml version="1.0" encoding="UTF-8"?>
<svg width="80px" height="80px" viewBox="0 0 80 80" version="1.1" xmlns="http://www.w3.org/2000/svg" xmlns:xlink="http://www.w3.org/1999/xlink">
    <title>Icon-Architecture/64/Arch_Amazon-WorkSpaces-Family_64</title>
    <g id="Icon-Architecture/64/Arch_Amazon-WorkSpaces-Family_64" stroke="none" stroke-width="1" fill="none" fill-rule="evenodd">
        <g id="Icon-Architecture-BG/64/End-User-Computing" fill="#01A88D">
            <rect id="Rectangle" x="0" y="0" width="80" height="80"></rect>
        </g>
        <path d="M39,68 L41,68 L41,61 L39,61 L39,68 Z M39,19 L41,19 L41,12.159 L39,12.159 L39,19 Z M59,41 L68,41 L68,39 L59,39 L59,41 Z M12,41 L21,41 L21,39 L12,39 L12,41 Z M14,36 L12,36 L12,13 C12,12.448 12.447,12 13,12 L36,12 L36,14 L14,14 L14,36 Z M68,13 L68,36 L66,36 L66,14 L44,14 L44,12 L67,12 C67.553,12 68,12.448 68,13 L68,13 Z M66,44 L68,44 L68,67 C68,67.552 67.553,68 67,68 L44,68 L44,66 L66,66 L66,44 Z M14,66 L36,66 L36,68 L13,68 C12.447,68 12,67.552 12,67 L12,44 L14,44 L14,66 Z M41,55.288 L41,40.583 L54,33.216 L54,47.92 L41,55.288 Z M26,33.216 L39,40.583 L39,55.288 L26,47.92 L26,33.216 Z M40.001,24.145 L52.974,31.499 L40,38.851 L27.043,31.508 L40.001,24.145 Z M39.506,22.126 L24.598,30.596 C24.338,30.713 24.128,30.937 24.038,31.223 C23.994,31.364 23.982,31.508 24,31.648 L24,48.502 C24,48.862 24.194,49.195 24.507,49.372 L39.507,57.874 C39.66,57.961 39.83,58.004 40,58.004 C40.17,58.004 40.34,57.961 40.493,57.874 L55.493,49.372 C55.806,49.195 56,48.862 56,48.502 L56,31.498 C56,31.137 55.806,30.805 55.493,30.628 L40.493,22.125 C40.186,21.952 39.812,21.953 39.506,22.126 L39.506,22.126 Z" id="Fill-4" fill="#FFFFFF"></path>
    </g>
</svg>