<?xml version="1.0" encoding="UTF-8"?>
<svg width="64px" height="64px" viewBox="0 0 64 64" version="1.1" xmlns="http://www.w3.org/2000/svg" xmlns:xlink="http://www.w3.org/1999/xlink">
    <title>Icon-Architecture/48/Arch_AWS-re:Post_48</title>
    <g id="Icon-Architecture/48/Arch_AWS-re:Post_48" stroke="none" stroke-width="1" fill="none" fill-rule="evenodd">
        <g id="Icon-Architecture-BG/48/Customer-Enablement" fill="#C925D1">
            <rect id="Rectangle" x="0" y="0" width="64" height="64"></rect>
        </g>
        <g id="Icon-Service/48/AWS-re:Post_48" transform="translate(10.000000, 11.000000)" fill="#FFFFFF">
            <path d="M20.7488361,28 L31.7488361,28 L31.7488361,26 L20.7488361,26 L20.7488361,28 Z M20.7488361,16 L30.7488361,16 L30.7488361,14 L20.7488361,14 L20.7488361,16 Z M20.7488361,10 L34.7488361,10 L34.7488361,8 L20.7488361,8 L20.7488361,10 Z M31.4538361,41 C31.8798361,38.702 33.7488361,36.967 35.9818361,36.967 C36.8068361,36.967 37.6158361,37.207 38.3218361,37.66 C39.4598361,38.39 40.2498361,39.618 40.5088361,41 L31.4538361,41 Z M32.1258361,31 L26.7488361,31 C26.1958361,31 25.7488361,31.448 25.7488361,32 L25.7488361,34.036 L23.7368361,31.394 C23.5468361,31.146 23.2528361,31 22.9408361,31 L20.2488361,31 C18.8168361,31 17.4558361,30.302 16.6058361,29.132 C15.7468361,27.95 15.5228361,26.447 15.9908361,25.007 C16.5658361,23.237 18.3588361,22 20.3488361,22 L37.1898361,22 C39.1628361,22 40.8878361,23.183 41.4848361,24.944 C42.2978361,27.343 41.1318361,29.42 39.5028361,30.383 C38.7498361,29.234 37.4558361,28.471 35.9828361,28.471 C34.2588361,28.471 32.7778361,29.514 32.1258361,31 L32.1258361,31 Z M12.3818361,22 C7.06383614,22 2.52283614,18.029 2.04383614,12.96 C1.77583614,10.122 2.68583614,7.396 4.60683614,5.285 C6.50483614,3.197 9.19983614,2 11.9988361,2 L30.7598361,2 C36.0688361,2 40.4988361,5.809 41.0638361,10.86 C41.4628361,14.414 39.9318361,17.868 37.0758361,20 L20.3488361,20 C18.4678361,20 16.7548361,20.755 15.5458361,22 L12.3818361,22 Z M35.9828361,34.895 C34.7628361,34.895 33.7698361,33.903 33.7698361,32.683 C33.7698361,31.463 34.7628361,30.471 35.9828361,30.471 C37.2018361,30.471 38.1938361,31.463 38.1938361,32.683 C38.1938361,33.903 37.2018361,34.895 35.9828361,34.895 L35.9828361,34.895 Z M39.4018361,35.976 C39.2418361,35.873 39.0718361,35.792 38.9048361,35.705 C39.6968361,34.938 40.1938361,33.87 40.1938361,32.683 C40.1938361,32.553 40.1668361,32.431 40.1558361,32.304 C43.0788361,30.843 44.4608361,27.493 43.3788361,24.302 C42.7698361,22.504 41.3638361,21.135 39.6118361,20.463 C42.1668361,17.903 43.4638361,14.31 43.0518361,10.637 C42.3728361,4.573 37.0878361,0 30.7598361,0 L11.9988361,0 C8.63783614,0 5.40483614,1.436 3.12783614,3.938 C0.855836141,6.435 -0.264163859,9.792 0.0528361406,13.149 C0.627836141,19.233 6.04383614,24 12.3818361,24 L14.2518361,24 C14.1988361,24.131 14.1328361,24.254 14.0878361,24.389 C13.4198361,26.444 13.7488361,28.602 14.9878361,30.308 C16.2118361,31.994 18.1788361,33 20.2488361,33 L22.4458361,33 L25.9528361,37.606 C26.1458361,37.859 26.4428361,38 26.7488361,38 C26.8548361,38 26.9628361,37.983 27.0678361,37.948 C27.4748361,37.811 27.7488361,37.429 27.7488361,37 L27.7488361,33 L31.8018361,33 C31.8818361,34.056 32.3378361,35.005 33.0548361,35.701 C30.8708361,36.852 29.3618361,39.239 29.3618361,42 C29.3618361,42.552 29.8088361,43 30.3618361,43 L41.6028361,43 C42.1558361,43 42.6028361,42.552 42.6028361,42 C42.6028361,39.514 41.4068361,37.262 39.4018361,35.976 L39.4018361,35.976 Z M8.07183614,17 C8.49183614,14.96 10.1648361,13.431 12.1598361,13.431 C12.9058361,13.431 13.6378361,13.648 14.2778361,14.059 C15.2858361,14.705 15.9928361,15.782 16.2458361,17 L8.07183614,17 Z M12.1608361,7.027 C13.2438361,7.027 14.1248361,7.908 14.1248361,8.992 C14.1248361,10.075 13.2438361,10.957 12.1608361,10.957 C11.0768361,10.957 10.1948361,10.075 10.1948361,8.992 C10.1948361,7.908 11.0768361,7.027 12.1608361,7.027 L12.1608361,7.027 Z M18.3478361,18 C18.3478361,15.679 17.2298361,13.576 15.3578361,12.375 C15.1448361,12.239 14.9218361,12.122 14.6958361,12.014 C15.5618361,11.286 16.1248361,10.209 16.1248361,8.992 C16.1248361,6.806 14.3458361,5.027 12.1608361,5.027 C9.97383614,5.027 8.19483614,6.806 8.19483614,8.992 C8.19483614,10.209 8.75783614,11.286 9.62483614,12.014 C7.47383614,13.044 5.97083614,15.337 5.97083614,18 C5.97083614,18.552 6.41883614,19 6.97083614,19 L17.3478361,19 C17.9008361,19 18.3478361,18.552 18.3478361,18 L18.3478361,18 Z" id="Fill-3"></path>
        </g>
    </g>
</svg>