<?xml version="1.0" encoding="UTF-8"?>
<svg width="64px" height="64px" viewBox="0 0 64 64" version="1.1" xmlns="http://www.w3.org/2000/svg" xmlns:xlink="http://www.w3.org/1999/xlink">
    <title>Icon-Architecture/48/Arch_AWS-Managed-Services_48</title>
    <g id="Icon-Architecture/48/Arch_AWS-Managed-Services_48" stroke="none" stroke-width="1" fill="none" fill-rule="evenodd">
        <g id="Icon-Architecture-BG/48/Customer-Enablement" fill="#C925D1">
            <rect id="Rectangle" x="0" y="0" width="64" height="64"></rect>
        </g>
        <g id="Icon-Service/48/AWS-Managed-Services" transform="translate(10.000000, 11.000000)" fill="#FFFFFF">
            <path d="M26.442,35.035 L26.967,36.965 C25.452,37.377 23.438,37.633 21.713,37.633 C14.609,37.633 7.976,33.638 4.814,27.455 L6.595,26.545 C9.419,32.066 15.352,35.633 21.713,35.633 C23.25,35.633 25.106,35.398 26.442,35.035 L26.442,35.035 Z M35.998,21.293 L38.998,18.293 C39.388,17.902 40.021,17.902 40.412,18.293 L43.412,21.293 L41.998,22.707 L40.575,21.285 C40.422,22.717 40.13,24.033 39.642,25.347 L37.767,24.652 C38.135,23.66 38.376,22.66 38.525,21.594 L37.412,22.707 L35.998,21.293 Z M7.41,15.723 L4.41,18.709 C4.215,18.903 3.96,19 3.705,19 C3.45,19 3.194,18.903 3,18.709 L0,15.723 L1.41,14.305 L2.861,15.75 C3.999,6.759 11.858,0 21.705,0 C28.69,0 35.32,4.139 38.595,10.545 L36.814,11.455 C33.878,5.711 27.947,2 21.705,2 C13.135,2 6.254,7.686 4.947,15.353 L6,14.305 L7.41,15.723 Z M21.727,21.948 C19.877,21.948 18.371,20.442 18.371,18.591 C18.371,16.741 19.877,15.235 21.727,15.235 C23.579,15.235 25.085,16.741 25.085,18.591 C25.085,20.442 23.579,21.948 21.727,21.948 L21.727,21.948 Z M21.727,13.235 C18.774,13.235 16.371,15.638 16.371,18.591 C16.371,21.545 18.774,23.948 21.727,23.948 C24.681,23.948 27.085,21.545 27.085,18.591 C27.085,15.638 24.681,13.235 21.727,13.235 L21.727,13.235 Z M26.163,25.63 C25.363,26.136 24.49,26.497 23.568,26.705 C23.091,26.813 22.762,27.25 22.791,27.738 L22.833,28.483 L20.622,28.483 L20.665,27.737 C20.693,27.249 20.364,26.812 19.887,26.704 C18.967,26.496 18.095,26.135 17.295,25.629 C16.881,25.368 16.339,25.441 16.014,25.808 L15.515,26.368 L13.952,24.804 L14.51,24.306 C14.875,23.98 14.951,23.439 14.69,23.026 C14.185,22.225 13.825,21.353 13.618,20.433 C13.51,19.956 13.044,19.635 12.586,19.654 L11.837,19.697 L11.837,17.485 L12.588,17.528 C13.042,17.543 13.511,17.228 13.621,16.751 C13.83,15.832 14.191,14.961 14.696,14.163 C14.957,13.75 14.88,13.208 14.516,12.883 L13.952,12.379 L15.515,10.815 L16.018,11.378 C16.342,11.743 16.883,11.818 17.297,11.559 C18.096,11.056 18.968,10.695 19.887,10.487 C20.364,10.379 20.693,9.943 20.665,9.454 L20.622,8.7 L22.834,8.7 L22.791,9.455 C22.762,9.943 23.091,10.38 23.568,10.488 C24.485,10.696 25.356,11.056 26.156,11.56 C26.566,11.821 27.11,11.745 27.435,11.38 L27.94,10.815 L29.504,12.379 L28.941,12.881 C28.577,13.206 28.501,13.747 28.761,14.16 C29.265,14.959 29.628,15.83 29.836,16.751 C29.944,17.228 30.395,17.543 30.868,17.528 L31.619,17.485 L31.619,19.697 L30.869,19.654 C30.395,19.622 29.944,19.955 29.837,20.433 C29.63,21.351 29.268,22.223 28.763,23.024 C28.503,23.437 28.579,23.978 28.943,24.304 L29.504,24.804 L27.94,26.367 L27.443,25.81 C27.117,25.444 26.575,25.37 26.163,25.63 L26.163,25.63 Z M28.605,28.53 L31.667,25.469 C31.861,25.275 31.967,25.009 31.96,24.734 C31.952,24.458 31.831,24.199 31.626,24.016 L30.88,23.351 C31.157,22.82 31.386,22.267 31.565,21.697 L32.562,21.754 C32.841,21.768 33.106,21.671 33.305,21.483 C33.505,21.294 33.619,21.031 33.619,20.756 L33.619,16.427 C33.619,16.152 33.505,15.889 33.305,15.7 C33.106,15.511 32.842,15.415 32.562,15.428 L31.563,15.485 C31.383,14.915 31.155,14.363 30.879,13.833 L31.626,13.166 C31.831,12.983 31.952,12.723 31.96,12.449 C31.967,12.174 31.861,11.908 31.667,11.713 L28.605,8.652 C28.411,8.457 28.141,8.346 27.87,8.36 C27.594,8.368 27.335,8.488 27.152,8.694 L26.483,9.444 C25.953,9.168 25.402,8.939 24.834,8.76 L24.89,7.757 C24.906,7.482 24.808,7.213 24.619,7.014 C24.43,6.813 24.168,6.7 23.892,6.7 L19.563,6.7 C19.288,6.7 19.025,6.813 18.837,7.014 C18.647,7.213 18.549,7.482 18.565,7.757 L18.622,8.759 C18.052,8.938 17.501,9.166 16.971,9.442 L16.303,8.694 C16.121,8.488 15.861,8.368 15.586,8.36 C15.301,8.348 15.045,8.457 14.85,8.652 L11.789,11.713 C11.594,11.908 11.488,12.174 11.496,12.449 C11.504,12.723 11.625,12.983 11.83,13.166 L12.579,13.835 C12.302,14.365 12.073,14.916 11.893,15.485 L10.893,15.428 C10.621,15.414 10.349,15.511 10.15,15.7 C9.95,15.889 9.837,16.152 9.837,16.427 L9.837,20.756 C9.837,21.031 9.95,21.294 10.15,21.483 C10.349,21.671 10.622,21.769 10.893,21.754 L11.888,21.697 C12.068,22.268 12.296,22.822 12.574,23.353 L11.83,24.015 C11.625,24.199 11.504,24.458 11.496,24.734 C11.488,25.009 11.594,25.275 11.789,25.469 L14.85,28.53 C15.045,28.725 15.326,28.83 15.586,28.823 C15.861,28.815 16.121,28.694 16.303,28.489 L16.966,27.745 C17.498,28.023 18.051,28.252 18.622,28.432 L18.565,29.426 C18.549,29.7 18.647,29.969 18.836,30.169 C19.025,30.369 19.288,30.483 19.563,30.483 L23.892,30.483 C24.168,30.483 24.43,30.369 24.62,30.169 C24.808,29.969 24.906,29.7 24.89,29.426 L24.834,28.434 C25.405,28.254 25.959,28.025 26.491,27.747 L27.152,28.489 C27.335,28.694 27.594,28.815 27.87,28.823 C28.117,28.833 28.411,28.725 28.605,28.53 L28.605,28.53 Z M36.512,34.446 C36.313,34.653 36.045,34.77 35.756,34.776 C35.486,34.768 35.196,34.674 34.989,34.475 C34.781,34.276 34.664,34.008 34.658,33.72 C34.653,33.432 34.759,33.159 34.959,32.952 C35.158,32.744 35.426,32.627 35.714,32.621 L35.736,32.621 C36.015,32.621 36.28,32.727 36.482,32.922 C36.911,33.333 36.923,34.017 36.512,34.446 L36.512,34.446 Z M35.675,30.621 C34.853,30.638 34.087,30.973 33.517,31.566 C32.948,32.159 32.642,32.937 32.659,33.759 C32.674,34.581 33.01,35.347 33.602,35.917 C34.18,36.472 34.935,36.776 35.734,36.776 C35.755,36.776 35.775,36.776 35.796,36.776 C36.618,36.76 37.384,36.424 37.954,35.831 C39.13,34.608 39.091,32.656 37.869,31.48 C37.276,30.91 36.489,30.594 35.675,30.621 L35.675,30.621 Z M40.646,36.488 L39.072,36.172 C38.799,36.117 38.51,36.181 38.285,36.346 L37.419,36.98 C37.194,37.144 37.048,37.394 37.016,37.67 L36.83,39.255 L34.567,39.253 L34.384,37.682 C34.352,37.407 34.209,37.158 33.986,36.993 L33.109,36.345 C32.881,36.176 32.594,36.11 32.318,36.168 L30.758,36.48 L30.061,34.327 L31.524,33.656 C31.778,33.539 31.971,33.322 32.058,33.057 L32.387,32.048 C32.473,31.782 32.445,31.492 32.308,31.248 L31.521,29.848 L33.353,28.519 L34.432,29.691 C34.622,29.896 34.888,30.013 35.168,30.013 L35.173,30.013 L36.264,30.007 C36.542,30.005 36.806,29.889 36.994,29.684 L38.064,28.523 L39.894,29.854 L39.11,31.248 C38.974,31.49 38.945,31.777 39.029,32.042 L39.354,33.062 C39.44,33.33 39.634,33.55 39.89,33.667 L41.346,34.336 L40.646,36.488 Z M42.99,32.89 L41.126,32.034 L41.067,31.849 L42.074,30.059 C42.322,29.617 42.2,29.059 41.79,28.761 L38.52,26.382 C38.109,26.083 37.542,26.138 37.197,26.513 L35.818,28.009 L35.604,28.011 L34.221,26.51 C33.878,26.136 33.306,26.08 32.899,26.378 L29.627,28.752 C29.215,29.05 29.093,29.609 29.341,30.051 L30.349,31.845 L30.292,32.02 L28.419,32.88 C27.958,33.092 27.728,33.615 27.884,34.097 L29.13,37.943 C29.287,38.426 29.778,38.714 30.278,38.616 L32.276,38.216 L32.448,38.343 L32.683,40.367 C32.742,40.871 33.169,41.251 33.675,41.252 L37.718,41.256 L37.719,41.256 C38.226,41.256 38.653,40.876 38.713,40.372 L38.952,38.336 L39.111,38.22 L41.126,38.624 C41.617,38.722 42.115,38.435 42.273,37.953 L43.524,34.109 C43.681,33.626 43.452,33.102 42.99,32.89 L42.99,32.89 Z" id="AWS-Managed-Services_Icon_48_Squid"></path>
        </g>
    </g>
</svg>