<?xml version="1.0" encoding="UTF-8"?>
<svg width="64px" height="64px" viewBox="0 0 64 64" version="1.1" xmlns="http://www.w3.org/2000/svg" xmlns:xlink="http://www.w3.org/1999/xlink">
    <title>Icon-Architecture/48/Arch_AWS-IQ_48</title>
    <g id="Icon-Architecture/48/Arch_AWS-IQ_48" stroke="none" stroke-width="1" fill="none" fill-rule="evenodd">
        <g id="Icon-Architecture-BG/48/Customer-Enablement" fill="#C925D1">
            <rect id="Rectangle" x="0" y="0" width="64" height="64"></rect>
        </g>
        <g id="Icon-Service/48/AWS-IQ_48" transform="translate(9.999912, 10.000000)" fill="#FFFFFF">
            <path d="M16.0571824,28.264 L17.3251824,29.812 L9.62418236,36.113 L4.61918236,32.463 L5.79718236,30.847 L9.55418236,33.587 L16.0571824,28.264 Z M6.00018236,7 C6.00018236,4.243 8.24418236,2 11.0011824,2 C13.7581824,2 16.0001824,4.243 16.0001824,7 C16.0001824,9.755 13.7621824,11.996 11.0081824,12 L10.9981824,12 C8.24218236,11.998 6.00018236,9.756 6.00018236,7 L6.00018236,7 Z M11.0371824,14 C11.0721824,13.993 14.2481824,13.911 16.8501824,15.8 L18.0261824,14.182 C17.0551824,13.477 16.0361824,13.001 15.0801824,12.677 C16.8451824,11.405 18.0001824,9.337 18.0001824,7 C18.0001824,3.14 14.8611824,0 11.0011824,0 C7.14118236,0 4.00018236,3.14 4.00018236,7 C4.00018236,9.347 5.16518236,11.423 6.94418236,12.694 C-0.0288176351,15.099 -0.00181763507,22.925 8.83342791e-05,23.017 L2.00018236,22.986 C1.99618236,22.63 2.00318236,14.254 11.0371824,14 L11.0371824,14 Z M21.0001824,37 L21.0001824,25.881 L20.8071824,25.769 C23.0741824,24.028 26.0651824,23 29.0001824,23 C31.3031824,23 33.2971824,23.62 35.4661824,25.01 C39.1261824,27.353 41.6621824,32.082 41.9691824,37 L21.0001824,37 Z M2.00018236,36.881 L2.00018236,27.038 L10.5001824,22 L19.0001824,27.038 L19.0001824,36.881 L10.5001824,42 L2.00018236,36.881 Z M22.0001824,13.912 C22.0001824,10.081 25.1401824,6.965 28.9991824,6.965 C32.8581824,6.965 35.9971824,10.081 35.9971824,13.912 C35.9971824,17.743 32.8581824,20.86 28.9991824,20.86 C25.1401824,20.86 22.0001824,17.743 22.0001824,13.912 L22.0001824,13.912 Z M44.0001824,38 C44.0001824,32.078 41.0041824,26.18 36.5441824,23.326 C35.4731824,22.639 34.4151824,22.12 33.3441824,21.743 C36.1161824,20.216 37.9971824,17.28 37.9971824,13.912 C37.9971824,8.979 33.9611824,4.965 28.9991824,4.965 C24.0371824,4.965 20.0001824,8.979 20.0001824,13.912 C20.0001824,17.234 21.8341824,20.133 24.5451824,21.677 C22.4671824,22.3 20.5281824,23.338 18.9531824,24.704 L10.5001824,20 L0.000182364925,25.881 L0.000182364925,38.038 L10.5001824,44 L19.3261824,39 L44.0001824,39 L44.0001824,38 Z" id="AWS-IQ_48_Squid"></path>
        </g>
    </g>
</svg>