<?xml version="1.0" encoding="UTF-8"?>
<svg width="64px" height="64px" viewBox="0 0 64 64" version="1.1" xmlns="http://www.w3.org/2000/svg" xmlns:xlink="http://www.w3.org/1999/xlink">
    <title>Icon-Architecture/48/Arch_AWS-Professional-Services_48</title>
    <g id="Icon-Architecture/48/Arch_AWS-Professional-Services_48" stroke="none" stroke-width="1" fill="none" fill-rule="evenodd">
        <g id="Icon-Architecture-BG/48/Customer-Enablement" fill="#C925D1">
            <rect id="Rectangle" x="0" y="0" width="64" height="64"></rect>
        </g>
        <g id="Icon-Service/48/AWS-Professional-Services_48" transform="translate(10.000000, 10.000000)" fill="#FFFFFF">
            <path d="M37.217,35.354 C36.982,35.584 36.874,35.915 36.93,36.239 L37.761,41.085 L33.409,38.797 C33.263,38.721 33.104,38.683 32.944,38.683 C32.783,38.683 32.624,38.721 32.478,38.797 L28.126,41.085 L28.957,36.239 C29.013,35.915 28.905,35.584 28.67,35.354 L25.15,31.922 L30.015,31.216 C30.341,31.168 30.622,30.964 30.768,30.668 L32.944,26.26 L35.12,30.669 C35.266,30.964 35.547,31.168 35.873,31.216 L40.738,31.922 L37.217,35.354 Z M43.838,30.915 C43.72,30.553 43.407,30.289 43.03,30.234 L36.681,29.312 L33.84,23.558 C33.504,22.874 32.383,22.875 32.047,23.558 L29.207,29.312 L22.857,30.234 C22.48,30.289 22.167,30.553 22.049,30.915 C21.932,31.277 22.029,31.674 22.302,31.94 L26.898,36.419 L25.813,42.745 C25.748,43.12 25.903,43.499 26.21,43.723 C26.52,43.947 26.927,43.976 27.264,43.799 L32.944,40.812 L38.623,43.799 C38.77,43.875 38.93,43.914 39.089,43.914 C39.296,43.914 39.503,43.849 39.677,43.723 C39.985,43.499 40.139,43.12 40.074,42.745 L38.989,36.419 L43.585,31.94 C43.858,31.674 43.955,31.277 43.838,30.915 L43.838,30.915 Z M9.413,11.193 C9.413,6.124 13.538,2 18.608,2 C23.676,2 27.8,6.124 27.8,11.193 C27.8,16.262 23.676,20.386 18.608,20.386 C13.538,20.386 9.413,16.262 9.413,11.193 L9.413,11.193 Z M18.578,22.467 C21.568,22.467 24.497,23.317 27.05,24.926 C27.379,25.134 27.701,25.353 28.016,25.584 L29.199,23.972 C28.848,23.713 28.487,23.468 28.117,23.234 C26.702,22.343 25.183,21.66 23.604,21.195 C27.272,19.355 29.8,15.568 29.8,11.193 C29.8,5.021 24.779,0 18.608,0 C12.435,0 7.413,5.021 7.413,11.193 C7.413,15.57 9.944,19.357 13.613,21.196 C5.776,23.488 0,31.039 0,40 C0,40.552 0.447,41 1,41 L24,41 L24,39 L2.027,39 C2.519,29.796 9.754,22.467 18.578,22.467 L18.578,22.467 Z" id="AWS-Professional-Services_48_Squid"></path>
        </g>
    </g>
</svg>