<?xml version="1.0" encoding="UTF-8"?>
<svg width="64px" height="64px" viewBox="0 0 64 64" version="1.1" xmlns="http://www.w3.org/2000/svg" xmlns:xlink="http://www.w3.org/1999/xlink">
    <title>Icon-Architecture/48/Arch_AWS-rePost-Private_48</title>
    <g id="Icon-Architecture/48/Arch_AWS-rePost-Private_48" stroke="none" stroke-width="1" fill="none" fill-rule="evenodd">
        <g id="Icon-Architecture-BG/48/Customer-Enablement" fill="#C925D1">
            <rect id="Rectangle" x="0" y="0" width="64" height="64"></rect>
        </g>
        <g id="Icon-Service/48/AWS-rePost-Private_48" transform="translate(10.000000, 10.000000)" fill="#FFFFFF">
            <path d="M15.001,25.00025 L30,25.00025 L30,23.00025 L15.001,23.00025 L15.001,25.00025 Z M22.399,39.99025 L23.399,41.72325 L19.687,43.86625 C19.533,43.95525 19.36,44.00025 19.187,44.00025 C19.014,44.00025 18.841,43.95625 18.687,43.86625 L0.5,33.36625 C0.191,33.18825 0,32.85725 0,32.50025 L0,11.50025 C0,11.14325 0.191,10.81225 0.5,10.63425 L18.687,0.13425 C18.995,-0.04475 19.378,-0.04475 19.687,0.13425 L37.873,10.63425 C38.183,10.81225 38.373,11.14325 38.373,11.50025 L38.373,12.98125 L36.373,12.98125 L36.373,12.07725 L19.187,2.15525 L2,12.07725 L2,31.92325 L19.187,41.84525 L22.399,39.99025 Z M29.292,42.00025 C29.738,38.82625 32.27,36.38625 35.317,36.38625 C36.408,36.38625 37.477,36.70325 38.41,37.30225 C39.992,38.31725 41.063,40.06125 41.339,42.00025 L29.292,42.00025 Z M30.377,30.00025 L24,30.00025 C23.448,30.00025 23,30.44825 23,31.00025 L23,34.58525 L18.707,30.29325 C18.52,30.10525 18.266,30.00025 18,30.00025 L15,30.00025 C11.692,30.00025 9,27.30925 9,24.00025 C9,20.69125 11.692,18.00025 15,18.00025 L36,18.00025 C39.309,18.00025 42,20.69125 42,24.00025 C42,25.84325 41.152,27.54525 39.747,28.67225 C38.892,27.09025 37.238,26.00025 35.317,26.00025 C32.891,26.00025 30.864,27.71825 30.377,30.00025 L30.377,30.00025 Z M35.317,34.10725 C33.633,34.10725 32.263,32.73725 32.263,31.05425 C32.263,29.37025 33.633,28.00025 35.317,28.00025 C37,28.00025 38.37,29.37025 38.37,31.05425 C38.37,32.73725 37,34.10725 35.317,34.10725 L35.317,34.10725 Z M39.491,35.61825 C39.138,35.39225 38.767,35.20425 38.389,35.03825 C39.585,34.11325 40.37,32.68025 40.37,31.05425 C40.37,30.93425 40.343,30.82225 40.335,30.70425 C42.605,29.23625 44,26.73425 44,24.00025 C44,19.58925 40.411,16.00025 36,16.00025 L15,16.00025 C10.589,16.00025 7,19.58925 7,24.00025 C7,28.41125 10.589,32.00025 15,32.00025 L17.586,32.00025 L23.293,37.70625 C23.485,37.89725 23.741,37.99925 24,37.99925 C24.129,37.99925 24.259,37.97425 24.383,37.92325 C24.757,37.76825 25,37.40325 25,36.99925 L25,32.00025 L30.359,32.00025 C30.594,33.23325 31.285,34.29525 32.242,35.03625 C29.3,36.32725 27.223,39.40925 27.223,43.00025 C27.223,43.55225 27.67,44.00025 28.223,44.00025 L42.41,44.00025 C42.963,44.00025 43.41,43.55225 43.41,43.00025 C43.41,39.95325 41.945,37.19325 39.491,35.61825 L39.491,35.61825 Z" id="Fill-3"></path>
        </g>
    </g>
</svg>