<?xml version="1.0" encoding="UTF-8"?>
<svg width="64px" height="64px" viewBox="0 0 64 64" version="1.1" xmlns="http://www.w3.org/2000/svg" xmlns:xlink="http://www.w3.org/1999/xlink">
    <title>Icon-Architecture/48/Arch_AWS-Activate_48</title>
    <g id="Icon-Architecture/48/Arch_AWS-Activate_48" stroke="none" stroke-width="1" fill="none" fill-rule="evenodd">
        <g id="Icon-Architecture-BG/48/Customer-Enablement" fill="#C925D1">
            <rect id="Rectangle" x="0" y="0" width="64" height="64"></rect>
        </g>
        <g id="Icon-Service/48/AWS-Activate_48" transform="translate(11.000000, 9.999600)" fill="#FFFFFF">
            <path d="M42.834,22.121 C42.834,30.648 37.728,37.992 30.42,41.296 L30.42,39.079 C36.591,35.923 40.834,29.515 40.834,22.121 C40.834,13.091 34.512,5.524 26.064,3.574 L25.12,1.362 C35.144,2.969 42.834,11.652 42.834,22.121 L42.834,22.121 Z M12.42,39.082 L12.42,41.3 C5.109,37.996 0,30.651 0,22.121 C0,11.655 7.687,2.973 17.706,1.363 L16.762,3.576 C8.318,5.529 2,13.093 2,22.121 C2,29.517 6.246,35.927 12.42,39.082 L12.42,39.082 Z M14.42,44 L16.42,44 L16.42,29 L14.42,29 L14.42,44 Z M26.42,44 L28.42,44 L28.42,29 L26.42,29 L26.42,44 Z M20.42,41 L22.42,41 L22.42,24 L20.42,24 L20.42,41 Z M21.522,3.425 L29.246,21.494 L22.133,16.069 C21.816,15.827 21.369,15.805 21.021,16.001 C20.98,16.024 20.941,16.05 20.904,16.078 L13.799,21.495 L21.522,3.425 Z M10.773,25.379 C10.954,25.52 11.171,25.59 11.388,25.59 C11.602,25.59 11.814,25.522 11.994,25.386 L21.524,18.12 L31.051,25.385 C31.414,25.661 31.913,25.659 32.271,25.379 C32.63,25.1 32.755,24.615 32.577,24.197 L22.494,0.607 C22.336,0.239 21.975,0 21.574,0 L21.472,0 C21.071,0 20.71,0.239 20.552,0.607 L10.468,24.197 C10.29,24.615 10.415,25.1 10.773,25.379 L10.773,25.379 Z" id="AWS-Activate_48_Squid"></path>
        </g>
    </g>
</svg>