<?xml version="1.0" encoding="UTF-8"?>
<svg width="80px" height="80px" viewBox="0 0 80 80" version="1.1" xmlns="http://www.w3.org/2000/svg" xmlns:xlink="http://www.w3.org/1999/xlink">
    <title>Icon-Architecture/64/Arch_Amazon-MemoryDB-for-Redis_64</title>
    <g id="Icon-Architecture/64/Arch_Amazon-MemoryDB-for-Redis_64" stroke="none" stroke-width="1" fill="none" fill-rule="evenodd">
        <g id="Icon-Architecture-BG/64/Database" fill="#C925D1">
            <rect id="Rectangle" x="0" y="0" width="80" height="80"></rect>
        </g>
        <g id="Icon-Service/64/Amazon-MemoryDB-for-Redis_64" transform="translate(12.000000, 12.000000)" fill="#FFFFFF">
            <path d="M18.979,13.248 C8.823,13.248 2,10.34 2,7.624 C2,4.909 8.823,2 18.979,2 C29.015,2 35.012,4.86 35.012,7.624 C35.012,10.389 29.015,13.248 18.979,13.248 L18.979,13.248 Z M34.409,28.731 C36.349,28.731 38.285,28.948 40.161,29.376 L40.606,27.426 C39.422,27.156 38.216,26.974 37,26.861 L37,7.955 L36.978,7.955 C36.987,7.844 37.012,7.737 37.012,7.624 C37.012,3.136 29.597,0 18.979,0 C9.548,0 0,2.619 0,7.624 C0,7.738 0.031,7.844 0.04,7.955 L0,7.955 L0,48.313 C0,51.193 3.13,53.518 8.814,54.859 L9.273,52.913 C4.788,51.853 2,50.091 2,48.313 L2,38.706 C3.295,39.751 5.198,40.639 7.648,41.319 L8.183,39.393 C4.312,38.317 2,36.713 2,35.101 L2,25.361 C5.073,27.896 11.256,29.271 17.417,29.526 L17.499,27.528 C7.797,27.126 2,24.242 2,21.687 L2,11.213 C5.284,13.869 12.152,15.248 18.979,15.248 C26.309,15.248 32.109,13.753 35,11.352 L35,26.748 C34.803,26.744 34.606,26.731 34.409,26.731 C24.06,26.731 14.612,32.43 9.75,41.602 L11.518,42.539 C16.031,34.022 24.802,28.731 34.409,28.731 L34.409,28.731 Z M47.637,32.374 C46.003,31.398 44.262,30.604 42.461,30.014 L43.084,28.113 C45.026,28.75 46.902,29.606 48.663,30.657 L47.637,32.374 Z M37.788,53.955 C37.613,52.831 37.149,51.804 36.469,50.953 L47.808,40.232 C51.43,43.748 53.681,48.761 53.938,53.955 L37.788,53.955 Z M31.471,50.541 C33.558,50.541 35.301,52.003 35.751,53.955 L27.192,53.955 C27.642,52.003 29.385,50.541 31.471,50.541 L31.471,50.541 Z M49.275,38.845 L52.95,35.371 L51.575,33.917 L34.988,49.6 C33.978,48.932 32.77,48.541 31.471,48.541 C28.278,48.541 25.632,50.894 25.155,53.955 L13.864,53.955 C14.379,43.191 23.169,34.596 33.901,34.596 C36.787,34.596 39.57,35.194 42.175,36.375 L43.001,34.554 C40.135,33.254 37.073,32.596 33.901,32.596 C21.737,32.596 11.84,42.626 11.84,54.955 L11.84,55.955 L55.962,55.955 L55.962,54.955 C55.962,48.909 53.474,42.956 49.275,38.845 L49.275,38.845 Z" id="Fill-1"></path>
        </g>
    </g>
</svg>