<svg width="80" height="80" viewBox="0 0 80 80" fill="none" xmlns="http://www.w3.org/2000/svg">
<rect width="80" height="80" fill="#C925D1"/>
<path d="M42 65.6468C39.9202 65.8672 37.595 66 35 66C22.6025 66 16 63.0962 16 61V50.2209C19.6022 52.7973 27.5102 54 35 54C37.3406 54 39.7219 53.8826 42 53.6425V51.6468C39.9202 51.8672 37.595 52 35 52C22.6025 52 16 49.0962 16 47V35.2209C19.6022 37.7973 27.5102 39 35 39C37.3406 39 39.7219 38.8826 42 38.6425V36.6468C39.9202 36.8672 37.595 37 35 37C22.6025 37 16 34.0962 16 32V22.2209C19.6022 24.7973 27.5102 26 35 26C42.4898 26 50.3977 24.7973 54 22.2209V26H56V19C56 14.1904 45.1143 12 35 12C24.8857 12 14 14.1904 14 19V61C14 65.8096 24.8857 68 35 68C37.3406 68 39.7212 67.8811 42 67.6412V65.6468ZM35 14C47.3975 14 54 16.9038 54 19C54 21.0962 47.3975 24 35 24C22.6025 24 16 21.0962 16 19C16 16.9038 22.6025 14 35 14ZM56 34H48V32H56V34ZM62 38H48V36H62V38ZM53.8079 55L48 46H50.3842L55 53.1527L59.6158 46H62L56.1921 55L62 64H59.6158L55 56.8473L50.3842 64H48L53.8079 55ZM62 42H48V40H62V42ZM65 28H45C44.4473 28 44 28.4477 44 29V67C44 67.5523 44.4473 68 45 68H65C65.5527 68 66 67.5523 66 67V29C66 28.4477 65.5527 28 65 28ZM64 66H46V30H64V66Z" fill="white"/>
</svg>
