<?xml version="1.0" encoding="UTF-8"?>
<svg width="80px" height="80px" viewBox="0 0 80 80" version="1.1" xmlns="http://www.w3.org/2000/svg" xmlns:xlink="http://www.w3.org/1999/xlink">
    <title>Icon-Architecture/64/Arch_AWS-Glue-DataBrew_64</title>
    <g id="Icon-Architecture/64/Arch_AWS-Glue-DataBrew_64" stroke="none" stroke-width="1" fill="none" fill-rule="evenodd">
        <g id="Icon-Architecture-BG/64/Analytics" fill="#8C4FFF">
            <rect id="Rectangle" x="0" y="0" width="80" height="80"></rect>
        </g>
        <g id="Icon-Service/64/AWS-Glue-DataBrew_64" transform="translate(12.000000, 12.000000)" fill="#FFFFFF">
            <path d="M6,28 C6,29.103 5.103,30 4,30 C2.897,30 2,29.103 2,28 C2,26.897 2.897,26 4,26 C5.103,26 6,26.897 6,28 L6,28 Z M0,28 C0,30.206 1.794,32 4,32 C6.206,32 8,30.206 8,28 C8,25.794 6.206,24 4,24 C1.794,24 0,25.794 0,28 L0,28 Z M56,3.945 L56,52.055 C56,54.23 54.23,56 52.056,56 L3.944,56 C1.77,56 0,54.23 0,52.055 L0,34 L2,34 L2,52.055 C2,53.127 2.872,54 3.944,54 L52.056,54 C53.128,54 54,53.127 54,52.055 L54,3.945 C54,2.873 53.128,2 52.056,2 L3.944,2 C2.872,2 2,2.873 2,3.945 L2,22 L0,22 L0,3.945 C0,1.77 1.77,0 3.944,0 L52.056,0 C54.23,0 56,1.77 56,3.945 L56,3.945 Z M9.389,44 C15.098,44 21.646,40.251 24.299,35.466 L26.049,36.436 C23.026,41.888 15.864,46 9.389,46 L5,46 L5,44 L9.389,44 Z M44.129,9 L48.66,9 L46.177,6.517 L47.591,5.103 L51.723,9.234 C51.91,9.421 52.016,9.676 52.016,9.941 C52.016,10.206 51.91,10.46 51.723,10.648 L47.591,14.779 L46.177,13.365 L48.542,11 L44.129,11 C39.091,11 32.534,13.758 29.244,19.919 L27.48,18.977 C30.667,13.009 37.357,9 44.129,9 L44.129,9 Z M22.401,14.428 C25.857,17.918 27.761,22.559 27.759,27.495 C27.758,31.903 29.474,36.048 32.591,39.166 C35.708,42.283 39.854,44 44.263,44 L48.54,44 L46.149,41.61 L47.563,40.196 L51.695,44.327 C51.883,44.515 51.988,44.769 51.988,45.034 C51.988,45.299 51.883,45.554 51.695,45.741 L47.563,49.873 L46.149,48.458 L48.608,46 L44.263,46 C39.319,46 34.672,44.075 31.177,40.58 C27.682,37.084 25.757,32.437 25.759,27.494 C25.76,23.089 24.063,18.948 20.98,15.835 C17.893,12.717 13.776,11 9.39,11 L5,11 L5,9 L9.39,9 C14.314,9 18.936,10.928 22.401,14.428 L22.401,14.428 Z M14,21 C12.897,21 12,20.103 12,19 C12,17.897 12.897,17 14,17 C15.103,17 16,17.897 16,19 C16,20.103 15.103,21 14,21 L14,21 Z M14,15 C11.794,15 10,16.794 10,19 C10,21.206 11.794,23 14,23 C16.206,23 18,21.206 18,19 C18,16.794 16.206,15 14,15 L14,15 Z M18.301,31.974 L16.979,34.883 L14.069,33.56 L15.392,30.651 L18.301,31.974 Z M11.421,34.553 L17.971,37.531 L20.949,30.981 L14.399,28.003 L11.421,34.553 Z M45.999,19 L50.03,19 L50.002,33 L45.986,33 L45.999,19 Z M43.984,35 L51.998,35 L52.034,17 L44.001,17 L43.984,35 Z M33.999,21 L38.03,21 L38.002,33 L33.986,33 L33.999,21 Z M31.984,35 L39.998,35 L40.034,19 L32.001,19 L31.984,35 Z" id="Fill-7"></path>
        </g>
    </g>
</svg>