<?xml version="1.0" encoding="UTF-8"?>
<svg width="80px" height="80px" viewBox="0 0 80 80" version="1.1" xmlns="http://www.w3.org/2000/svg" xmlns:xlink="http://www.w3.org/1999/xlink">
    <title>Icon-Architecture/64/Arch_AWS-Clean-Rooms_64</title>
    <g id="Icon-Architecture/64/Arch_AWS-Clean-Rooms_64" stroke="none" stroke-width="1" fill="none" fill-rule="evenodd">
        <g id="Icon-Architecture-BG/64/Analytics" fill="#8C4FFF">
            <rect id="Rectangle" x="0" y="0" width="80" height="80"></rect>
        </g>
        <path d="M65.11775,60.122 C63.98475,61.255 62.00875,61.255 60.87575,60.122 C59.70575,58.952 59.70575,57.049 60.87575,55.879 C61.44175,55.312 62.19475,55 62.99675,55 C63.79875,55 64.55175,55.312 65.11775,55.879 C66.28775,57.049 66.28775,58.952 65.11775,60.122 L65.11775,60.122 Z M62.99675,53 C62.00075,53 61.05075,53.291 60.23975,53.829 L55.70375,49.293 L54.28975,50.707 L58.82575,55.244 C57.54275,57.184 57.75475,59.829 59.46175,61.536 C60.40575,62.48 61.66075,63 62.99675,63 C64.33275,63 65.58775,62.48 66.53175,61.536 C68.48075,59.586 68.48075,56.414 66.53175,54.465 C65.58775,53.52 64.33275,53 62.99675,53 L62.99675,53 Z M60.87575,19.879 C61.44175,19.312 62.19475,19 62.99675,19 C63.79875,19 64.55175,19.312 65.11775,19.879 C66.28775,21.049 66.28775,22.952 65.11775,24.122 C63.98475,25.255 62.00875,25.255 60.87575,24.122 C59.70575,22.952 59.70575,21.049 60.87575,19.879 L60.87575,19.879 Z M55.70375,30.707 L60.23975,26.171 C61.05075,26.71 62.00075,27 62.99675,27 C64.33275,27 65.58775,26.48 66.53175,25.536 C68.48075,23.586 68.48075,20.414 66.53175,18.465 C65.58775,17.52 64.33275,17 62.99675,17 C61.66075,17 60.40575,17.52 59.46175,18.465 C57.75475,20.172 57.54275,22.817 58.82575,24.757 L54.28975,29.293 L55.70375,30.707 Z M19.11775,60.122 C17.98475,61.255 16.00875,61.255 14.87575,60.122 C13.70575,58.952 13.70575,57.049 14.87575,55.879 C15.44175,55.312 16.19475,55 16.99675,55 C17.79875,55 18.55175,55.312 19.11775,55.879 C20.28775,57.049 20.28775,58.952 19.11775,60.122 L19.11775,60.122 Z M24.28975,49.293 L19.75375,53.829 C18.94275,53.291 17.99275,53 16.99675,53 C15.66075,53 14.40575,53.52 13.46175,54.465 C11.51275,56.414 11.51275,59.586 13.46175,61.536 C14.40575,62.48 15.66075,63 16.99675,63 C18.33275,63 19.58775,62.48 20.53175,61.536 C22.23875,59.829 22.45075,57.184 21.16775,55.244 L25.70375,50.707 L24.28975,49.293 Z M39.99675,41 C40.82375,41 41.49675,41.673 41.49675,42.5 C41.49675,43.328 40.82375,44 39.99675,44 C39.16975,44 38.49675,43.328 38.49675,42.5 C38.49675,41.673 39.16975,41 39.99675,41 L39.99675,41 Z M39.02775,45.847 L39.02775,49 L41.02775,49 L41.02775,45.828 C42.45275,45.384 43.49675,44.069 43.49675,42.5 C43.49675,40.571 41.92675,39 39.99675,39 C38.06675,39 36.49675,40.571 36.49675,42.5 C36.49675,44.092 37.57075,45.424 39.02775,45.847 L39.02775,45.847 Z M14.87575,24.122 C13.70575,22.952 13.70575,21.049 14.87575,19.879 C15.44175,19.312 16.19475,19 16.99675,19 C17.79875,19 18.55175,19.312 19.11775,19.879 C20.28775,21.049 20.28775,22.952 19.11775,24.122 C17.98475,25.255 16.00875,25.255 14.87575,24.122 L14.87575,24.122 Z M20.53175,18.465 C19.58775,17.52 18.33275,17 16.99675,17 C15.66075,17 14.40575,17.52 13.46175,18.465 C11.51275,20.414 11.51275,23.586 13.46175,25.536 C14.40575,26.48 15.66075,27 16.99675,27 C17.99275,27 18.94275,26.71 19.75375,26.171 L24.28975,30.707 L25.70375,29.293 L21.16775,24.757 C22.45075,22.817 22.23875,20.172 20.53175,18.465 L20.53175,18.465 Z M28.99675,52 L50.99675,52 L50.99675,37 L28.99675,37 L28.99675,52 Z M33.97275,30.953 C33.97275,29.325 35.32975,28 36.99675,28 L42.97275,28 C44.63975,28 45.99675,29.325 45.99675,30.953 L45.99675,35 L33.97275,35 L33.97275,30.953 Z M42.99675,63 C42.99675,64.655 41.65075,66 39.99675,66 C38.34275,66 36.99675,64.655 36.99675,63 C36.99675,61.346 38.34275,60 39.99675,60 C41.65075,60 42.99675,61.346 42.99675,63 L42.99675,63 Z M36.99675,17 C36.99675,15.346 38.34275,14 39.99675,14 C41.65075,14 42.99675,15.346 42.99675,17 C42.99675,18.655 41.65075,20 39.99675,20 C38.34275,20 36.99675,18.655 36.99675,17 L36.99675,17 Z M51.25375,35 L47.99675,35 L47.99675,30.953 C47.99675,28.222 45.74275,26 42.97275,26 L40.99675,26 L40.99675,21.899 C43.27575,21.435 44.99675,19.415 44.99675,17 C44.99675,14.244 42.75375,12 39.99675,12 C37.23975,12 34.99675,14.244 34.99675,17 C34.99675,19.415 36.71775,21.435 38.99675,21.899 L38.99675,26 L36.99675,26 C34.22675,26 31.97275,28.222 31.97275,30.953 L31.97275,35 L28.73975,35 C27.77875,35 26.99675,35.771 26.99675,36.718 L26.99675,52.283 C26.99675,53.23 27.77875,54 28.73975,54 L38.99675,54 L38.99675,58.101 C36.71775,58.566 34.99675,60.586 34.99675,63 C34.99675,65.757 37.23975,68 39.99675,68 C42.75375,68 44.99675,65.757 44.99675,63 C44.99675,60.586 43.27575,58.566 40.99675,58.101 L40.99675,54 L51.99675,54 C52.54975,54 52.99675,53.553 52.99675,53 L52.99675,36.718 C52.99675,35.771 52.21475,35 51.25375,35 L51.25375,35 Z" id="Fill-8" fill="#FFFFFF"></path>
    </g>
</svg>