<?xml version="1.0" encoding="UTF-8"?>
<svg width="80px" height="80px" viewBox="0 0 80 80" version="1.1" xmlns="http://www.w3.org/2000/svg" xmlns:xlink="http://www.w3.org/1999/xlink">
    <title>Icon-Architecture/64/Arch_Amazon-Kinesis-Video-Streams_64</title>
    <g id="Icon-Architecture/64/Arch_Amazon-Kinesis-Video-Streams_64" stroke="none" stroke-width="1" fill="none" fill-rule="evenodd">
        <g id="Icon-Architecture-BG/64/Analytics" fill="#8C4FFF">
            <rect id="Rectangle" x="0" y="0" width="80" height="80"></rect>
        </g>
        <g id="Icon-Architecture/64/Amazon-Kinesis-Video-Streams" transform="translate(13.000000, 12.000000)" fill="#FFFFFF">
            <path d="M24,33.553 L24,35.602 C9.938,38.908 8,44.719 8,50 L6,50 C6,44.23 8.077,37.18 24,33.553 L24,33.553 Z M24,38.76 L24,40.898 C14.007,44.854 14,51.011 14,56 L12,56 C12,50.879 12.009,43.191 24,38.76 L24,38.76 Z M52,49.575 C52,50.361 51.361,51 50.575,51 L29.425,51 C28.639,51 28,50.361 28,49.575 L28,36.424 C28,35.639 28.639,35 29.425,35 L50.575,35 C51.361,35 52,35.639 52,36.424 L52,49.575 Z M50.575,33 L29.425,33 C27.536,33 26,34.536 26,36.424 L26,49.575 C26,51.464 27.536,53 29.425,53 L50.575,53 C52.464,53 54,51.464 54,49.575 L54,36.424 C54,34.536 52.464,33 50.575,33 L50.575,33 Z M54,27 L54,29 C8.756,29 2,37.145 2,42 L0,42 C0,34.604 10.039,29.92 29.893,28 C10.039,26.079 0,21.395 0,14 L2,14 C2,18.855 8.756,27 54,27 L54,27 Z M54,23 L54,25 C11.703,25 6,15.395 6,6 L8,6 C8,14.406 13.465,23 54,23 L54,23 Z M54,19 L54,21 C35.663,21 23.728,18.641 17.51,13.788 C12,9.488 12,4.004 12,-3.55271368e-15 L14,-3.55271368e-15 C14,7.566 14,19 54,19 L54,19 Z M38,45.277 L38,40.723 L41.984,43 L38,45.277 Z M44.496,42.132 L37.496,38.132 C37.187,37.954 36.806,37.956 36.498,38.135 C36.189,38.314 36,38.643 36,39 L36,47 C36,47.356 36.189,47.686 36.498,47.865 C36.653,47.955 36.826,48 37,48 C37.171,48 37.343,47.956 37.496,47.868 L44.496,43.868 C44.808,43.69 45,43.359 45,43 C45,42.641 44.808,42.309 44.496,42.132 L44.496,42.132 Z" id="Amazon-Kinesis-Video-Streams_64_Squid"></path>
        </g>
    </g>
</svg>