<?xml version="1.0" encoding="UTF-8"?>
<svg width="80px" height="80px" viewBox="0 0 80 80" version="1.1" xmlns="http://www.w3.org/2000/svg" xmlns:xlink="http://www.w3.org/1999/xlink">
    <title>Icon-Architecture/64/Arch_Amazon-DataZone_64</title>
    <g id="Icon-Architecture/64/Arch_Amazon-DataZone_64" stroke="none" stroke-width="1" fill="none" fill-rule="evenodd">
        <g id="Icon-Architecture-BG/64/Analytics" fill="#8C4FFF">
            <rect id="Rectangle" x="0" y="0" width="80" height="80"></rect>
        </g>
        <path d="M32.70725,21.70725 L31.29325,20.29325 L39.29325,12.29325 C39.68425,11.90225 40.31625,11.90225 40.70725,12.29325 L48.70725,20.29325 L47.29325,21.70725 L40.00025,14.41425 L32.70725,21.70725 Z M67.70725,40.70725 L59.70725,48.70725 L58.29325,47.29325 L65.58625,40.00025 L58.29325,32.70725 L59.70725,31.29325 L67.70725,39.29325 C68.09825,39.68425 68.09825,40.31625 67.70725,40.70725 L67.70725,40.70725 Z M47.29325,58.29325 L48.70725,59.70725 L40.70725,67.70725 C40.51225,67.90225 40.25625,68.00025 40.00025,68.00025 C39.74425,68.00025 39.48825,67.90225 39.29325,67.70725 L31.29325,59.70725 L32.70725,58.29325 L40.00025,65.58625 L47.29325,58.29325 Z M21.70725,47.29325 L20.29325,48.70725 L12.29325,40.70725 C11.90225,40.31625 11.90225,39.68425 12.29325,39.29325 L20.29325,31.29325 L21.70725,32.70725 L14.41425,40.00025 L21.70725,47.29325 Z M53.50025,57.00025 C51.57025,57.00025 50.00025,55.43025 50.00025,53.50025 C50.00025,51.57025 51.57025,50.00025 53.50025,50.00025 C55.43025,50.00025 57.00025,51.57025 57.00025,53.50025 C57.00025,55.43025 55.43025,57.00025 53.50025,57.00025 L53.50025,57.00025 Z M48.60725,51.00025 L31.39325,51.00025 C30.86625,49.97325 30.02725,49.13425 29.00025,48.60725 L29.00025,31.39325 C30.02725,30.86625 30.86625,30.02725 31.39325,29.00025 L48.60725,29.00025 C49.13425,30.02725 49.97325,30.86625 51.00025,31.39325 L51.00025,48.60725 C49.97325,49.13425 49.13425,49.97325 48.60725,51.00025 L48.60725,51.00025 Z M26.50025,57.00025 C24.57025,57.00025 23.00025,55.43025 23.00025,53.50025 C23.00025,51.57025 24.57025,50.00025 26.50025,50.00025 C28.43025,50.00025 30.00025,51.57025 30.00025,53.50025 C30.00025,55.43025 28.43025,57.00025 26.50025,57.00025 L26.50025,57.00025 Z M23.00025,26.50025 C23.00025,24.57025 24.57025,23.00025 26.50025,23.00025 C28.43025,23.00025 30.00025,24.57025 30.00025,26.50025 C30.00025,28.43025 28.43025,30.00025 26.50025,30.00025 C24.57025,30.00025 23.00025,28.43025 23.00025,26.50025 L23.00025,26.50025 Z M53.50025,23.00025 C55.43025,23.00025 57.00025,24.57025 57.00025,26.50025 C57.00025,28.43025 55.43025,30.00025 53.50025,30.00025 C51.57025,30.00025 50.00025,28.43025 50.00025,26.50025 C50.00025,24.57025 51.57025,23.00025 53.50025,23.00025 L53.50025,23.00025 Z M53.50025,48.00025 C53.33125,48.00025 53.16525,48.01025 53.00025,48.02525 L53.00025,31.97525 C53.16525,31.99025 53.33125,32.00025 53.50025,32.00025 C56.53225,32.00025 59.00025,29.53325 59.00025,26.50025 C59.00025,23.46725 56.53225,21.00025 53.50025,21.00025 C50.46825,21.00025 48.00025,23.46725 48.00025,26.50025 C48.00025,26.66925 48.01025,26.83525 48.02525,27.00025 L31.97525,27.00025 C31.99025,26.83525 32.00025,26.66925 32.00025,26.50025 C32.00025,23.46725 29.53225,21.00025 26.50025,21.00025 C23.46825,21.00025 21.00025,23.46725 21.00025,26.50025 C21.00025,29.53325 23.46825,32.00025 26.50025,32.00025 C26.66925,32.00025 26.83525,31.99025 27.00025,31.97525 L27.00025,48.02525 C26.83525,48.01025 26.66925,48.00025 26.50025,48.00025 C23.46825,48.00025 21.00025,50.46725 21.00025,53.50025 C21.00025,56.53325 23.46825,59.00025 26.50025,59.00025 C29.53225,59.00025 32.00025,56.53325 32.00025,53.50025 C32.00025,53.33125 31.99025,53.16525 31.97525,53.00025 L48.02525,53.00025 C48.01025,53.16525 48.00025,53.33125 48.00025,53.50025 C48.00025,56.53325 50.46825,59.00025 53.50025,59.00025 C56.53225,59.00025 59.00025,56.53325 59.00025,53.50025 C59.00025,50.46725 56.53225,48.00025 53.50025,48.00025 L53.50025,48.00025 Z" id="Fill-5" fill="#FFFFFF"></path>
    </g>
</svg>