<svg width="80" height="80" viewBox="0 0 80 80" fill="none" xmlns="http://www.w3.org/2000/svg">
<rect width="80" height="80" fill="#8C4FFF"/>
<path d="M65.4473 31.1057L58 27.382V20.0002C58 19.6457 57.8125 19.3176 57.5068 19.1379L48.9931 14.1379C48.6836 13.9563 48.2998 13.9538 47.9902 14.132L40 18.7028L32.0098 14.132C31.7002 13.9548 31.3164 13.9572 31.0068 14.1379L22.4932 19.1379C22.1875 19.3176 22 19.6457 22 20.0002V27.382L14.5527 31.1057C14.2139 31.2751 14 31.6213 14 32.0002V48.0002C14 48.3791 14.2139 48.7253 14.5527 48.8947L22 52.6184V60.0002C22 60.3547 22.1875 60.6828 22.4932 60.8625L31.0068 65.8625C31.3154 66.0436 31.6992 66.0456 32.0098 65.8684L40 61.2976L47.9902 65.8684C48.1435 65.9562 48.3154 66.0002 48.4863 66.0002C48.6611 66.0002 48.8369 65.9543 48.9931 65.8625L57.5068 60.8625C57.8125 60.6828 58 60.3547 58 60.0002V52.6184L65.4473 48.8947C65.7861 48.7253 66 48.3791 66 48.0002V32.0002C66 31.6213 65.7861 31.2751 65.4473 31.1057ZM40 43.4768L37 41.7365V38.2873L40 36.5271L43 38.2873V41.7365L40 43.4768ZM31.5205 63.8444L24 59.4279V52.0002C24 51.6213 23.7861 51.2751 23.4473 51.1057L16 47.382V32.6184L23.4473 28.8947C23.7861 28.7253 24 28.3791 24 28.0002V20.5725L31.5205 16.156L39.0019 20.4357V34.7939L35.4941 36.8523C35.1875 37.0315 35 37.3596 35 37.7146V42.3122C35 42.6687 35.1894 42.9983 35.498 43.177L39.002 45.2099V59.5647L31.5205 63.8444ZM64 47.382L56.5527 51.1057C56.2138 51.2751 56 51.6213 56 52.0002V59.4279L48.4795 63.8444L41.0019 59.5669V45.2076L44.5019 43.1769C44.8105 42.9982 45 42.6686 45 42.3122V37.7145C45 37.3596 44.8125 37.0314 44.5058 36.8522L41.0019 34.7961V20.4335L48.4795 16.1559L56 20.5724V28.0002C56 28.3791 56.2139 28.7253 56.5527 28.8947L64 32.6183V47.382Z" fill="white"/>
</svg>
