<?xml version="1.0" encoding="UTF-8"?>
<svg width="80px" height="80px" viewBox="0 0 80 80" version="1.1" xmlns="http://www.w3.org/2000/svg" xmlns:xlink="http://www.w3.org/1999/xlink">
    <title>Icon-Architecture/64/Arch_AWS-Entity-Resolution_64</title>
    <g id="Icon-Architecture/64/Arch_AWS-Entity-Resolution_64" stroke="none" stroke-width="1" fill="none" fill-rule="evenodd">
        <g id="Icon-Architecture-BG/64/Analytics" fill="#8C4FFF">
            <rect id="Rectangle" x="0" y="0" width="80" height="80"></rect>
        </g>
        <g id="Icon-Service/64/AWS-Entity-Resolution_64" transform="translate(12.000000, 12.000000)" fill="#FFFFFF">
            <path d="M50,41 C47.794,41 46,39.206 46,37 C46,34.794 47.794,33 50,33 C52.206,33 54,34.794 54,37 C54,39.206 52.206,41 50,41 L50,41 Z M33.654,46.22 C33.305,45.79 32.896,45.412 32.442,45.093 L39.864,29.394 L44.697,34.201 C44.254,35.037 44,35.989 44,37 C44,37.846 44.178,38.65 44.495,39.38 L33.654,46.22 Z M29,54 C26.794,54 25,52.206 25,50 C25,47.794 26.794,46 29,46 C31.206,46 33,47.794 33,50 C33,52.206 31.206,54 29,54 L29,54 Z M2,25 C2,22.794 3.794,21 6,21 C8.206,21 10,22.794 10,25 C10,27.206 8.206,29 6,29 C3.794,29 2,27.206 2,25 L2,25 Z M27.444,17.042 L38.359,27.897 L30.636,44.233 C30.115,44.085 29.568,44 29,44 C28.063,44 27.178,44.222 26.387,44.607 L10.689,28.733 C11.507,27.707 12,26.411 12,25 C12,24.599 11.959,24.208 11.883,23.828 L27.444,17.042 Z M21.526,8.337 C21.705,7.914 21.831,7.465 21.91,7 L44.09,7 C44.122,7.186 44.162,7.369 44.21,7.549 L27.891,14.666 L21.526,8.337 Z M16,10 C13.794,10 12,8.206 12,6 C12,3.794 13.794,2 16,2 C18.206,2 20,3.794 20,6 C20,8.206 18.206,10 16,10 L16,10 Z M46.435,10.815 L39.266,25.979 L29.415,16.183 L45.039,9.369 C45.419,9.927 45.894,10.413 46.435,10.815 L46.435,10.815 Z M50,2 C52.206,2 54,3.794 54,6 C54,8.206 52.206,10 50,10 C47.794,10 46,8.206 46,6 C46,3.794 47.794,2 50,2 L50,2 Z M50,31 C48.428,31 47,31.612 45.929,32.605 L40.771,27.476 L48.216,11.729 C48.78,11.905 49.379,12 50,12 C53.309,12 56,9.309 56,6 C56,2.691 53.309,0 50,0 C47.033,0 44.569,2.167 44.09,5 L21.91,5 C21.431,2.167 18.967,0 16,0 C12.691,0 10,2.691 10,6 C10,9.309 12.691,12 16,12 C17.747,12 19.316,11.245 20.414,10.051 L25.919,15.526 L11.164,21.961 C10.119,20.192 8.199,19 6,19 C2.691,19 0,21.691 0,25 C0,28.309 2.691,31 6,31 C7.176,31 8.27,30.655 9.197,30.068 L24.738,45.783 C23.665,46.868 23,48.357 23,50 C23,53.309 25.691,56 29,56 C32.309,56 35,53.309 35,50 C35,49.285 34.868,48.601 34.637,47.964 L45.589,41.054 C46.687,42.247 48.255,43 50,43 C53.309,43 56,40.309 56,37 C56,33.691 53.309,31 50,31 L50,31 Z" id="Fill-5"></path>
        </g>
    </g>
</svg>