<?xml version="1.0" encoding="UTF-8"?>
<svg width="48px" height="48px" viewBox="0 0 48 48" version="1.1" xmlns="http://www.w3.org/2000/svg" xmlns:xlink="http://www.w3.org/1999/xlink">
    <title>Icon-Resource/IoT/Res_AWS-IoT-Core_Device-Advisor_48</title>
    <g id="Icon-Resource/IoT/Res_AWS-IoT-Core_Device-Advisor_48" stroke="none" stroke-width="1" fill="none" fill-rule="evenodd">
        <path d="M24.0683481,40.7777 C22.0333481,40.7777 20.2113481,40.0237 19.3123481,38.8087 L20.9203481,37.6187 C21.3463481,38.1957 22.4863481,38.7777 24.0683481,38.7777 C25.6533481,38.7777 26.7923481,38.1947 27.2173481,37.6187 L28.8273481,38.8057 C27.9293481,40.0227 26.1053481,40.7777 24.0683481,40.7777 M30.0903481,41.7607 L31.7003481,42.9497 C30.2833481,44.8667 27.3593481,46.0577 24.0683481,46.0577 C20.7803481,46.0577 17.8563481,44.8677 16.4393481,42.9527 L18.0473481,41.7627 C19.0623481,43.1357 21.4823481,44.0577 24.0683481,44.0577 C26.6563481,44.0577 29.0763481,43.1347 30.0903481,41.7607 M24.0683481,20.6007 C26.1053481,20.6007 27.9283481,21.3557 28.8273481,22.5707 L27.2173481,23.7597 C26.7923481,23.1827 25.6523481,22.6007 24.0683481,22.6007 C22.4863481,22.6007 21.3463481,23.1827 20.9203481,23.7587 L19.3123481,22.5697 C20.2113481,21.3547 22.0333481,20.6007 24.0683481,20.6007 M24.0683481,17.3197 C21.4823481,17.3197 19.0623481,18.2427 18.0473481,19.6147 L16.4393481,18.4247 C17.8573481,16.5097 20.7803481,15.3197 24.0683481,15.3197 C27.3593481,15.3197 30.2833481,16.5107 31.7003481,18.4277 L30.0903481,19.6167 C29.0763481,18.2427 26.6563481,17.3197 24.0683481,17.3197 M4.06534813,22.5107 L2.06534813,22.5107 C2.06534813,17.1477 5.60434813,15.0917 7.78634813,14.3357 L7.75534813,13.7937 C7.75334813,9.2847 10.7243481,4.6677 14.6653481,2.9937 C19.2813481,1.0337 24.1693481,2.0077 27.7413481,5.6017 C28.7883481,6.6537 29.6563481,7.9187 30.3323481,9.3717 C31.7433481,8.3167 33.5893481,7.9817 35.3063481,8.5447 C37.5673481,9.2867 38.9883481,11.3427 39.1993481,14.1147 C42.6933481,14.9807 46.1423481,17.5857 46.1423481,22.5757 L44.1423481,22.5757 C44.1423481,17.5107 39.8773481,16.2297 38.0433481,15.9137 C37.5043481,15.8207 37.1383481,15.3117 37.2253481,14.7707 C37.2263481,12.5787 36.2983481,10.9757 34.6813481,10.4447 C33.2623481,9.9777 31.6903481,10.4937 30.7773481,11.7317 C30.5583481,12.0287 30.1943481,12.1797 29.8253481,12.1277 C29.4593481,12.0727 29.1523481,11.8197 29.0293481,11.4707 C28.4003481,9.6847 27.4893481,8.1847 26.3233481,7.0117 C24.8943481,5.5737 20.9763481,2.4857 15.4463481,4.8347 C12.2543481,6.1907 9.75334813,10.1007 9.75334813,13.7357 L9.82934813,15.0057 C9.85734813,15.4827 9.54334813,15.9137 9.07934813,16.0327 C7.20734813,16.5127 4.06534813,17.9937 4.06534813,22.5107 M39.6453481,36.5467 C37.7373481,36.5467 36.0013481,35.4087 35.2213481,33.6487 C35.0613481,33.2867 34.7033481,33.0527 34.3073481,33.0527 L13.8413481,33.0527 C13.4463481,33.0527 13.0883481,33.2867 12.9273481,33.6487 C12.1483481,35.4087 10.4123481,36.5467 8.50434813,36.5467 C6.91334813,36.5467 5.48234813,35.4107 4.60234813,34.0527 L8.06934813,34.0527 C8.62234813,34.0527 9.06934813,33.6057 9.06934813,33.0527 L9.06934813,28.0527 C9.06934813,27.5007 8.62234813,27.0527 8.06934813,27.0527 L4.66834813,27.0527 C5.55434813,25.6527 6.99034813,24.4777 8.56534813,24.4777 C10.5113481,24.4777 12.2003481,25.6137 12.9713481,27.4417 C13.1283481,27.8127 13.4903481,28.0527 13.8923481,28.0527 L34.3193481,28.0527 C34.7213481,28.0527 35.0853481,27.8117 35.2413481,27.4417 C36.0113481,25.6137 37.6993481,24.4777 39.6463481,24.4777 C41.2223481,24.4777 42.6573481,25.6527 43.5443481,27.0527 L40.0693481,27.0527 C39.5163481,27.0527 39.0693481,27.5007 39.0693481,28.0527 L39.0693481,33.0527 C39.0693481,33.6057 39.5163481,34.0527 40.0693481,34.0527 L43.5463481,34.0527 C42.6673481,35.4107 41.2363481,36.5467 39.6453481,36.5467 M45.9643481,32.4737 C45.7763481,32.2097 45.4723481,32.0527 45.1483481,32.0527 L41.0693481,32.0527 L41.0693481,29.0527 L45.1383481,29.0527 C45.4633481,29.0527 45.7673481,28.8957 45.9553481,28.6317 C46.1423481,28.3667 46.1893481,28.0277 46.0823481,27.7217 C45.1663481,25.1157 42.6613481,22.4777 39.6463481,22.4777 C37.1473481,22.4777 34.8773481,23.8607 33.6913481,26.0527 L14.5203481,26.0527 C13.3343481,23.8607 11.0633481,22.4777 8.56534813,22.4777 C5.55134813,22.4777 3.04734813,25.1157 2.12934813,27.7207 C2.02134813,28.0267 2.06834813,28.3657 2.25634813,28.6307 C2.44334813,28.8957 2.74834813,29.0527 3.07234813,29.0527 L7.06934813,29.0527 L7.06934813,32.0527 L3.00034813,32.0527 C2.67534813,32.0527 2.37234813,32.2097 2.18434813,32.4737 C1.99734813,32.7377 1.94934813,33.0767 2.05534813,33.3827 C2.95134813,35.9487 5.45434813,38.5467 8.50434813,38.5467 C10.9803481,38.5467 13.2513481,37.1947 14.4583481,35.0527 L33.6913481,35.0527 C34.8983481,37.1947 37.1693481,38.5467 39.6453481,38.5467 C42.6953481,38.5467 45.1973481,35.9487 46.0923481,33.3827 C46.1993481,33.0767 46.1513481,32.7377 45.9643481,32.4737" id="Fill-1" fill="#7AA116"></path>
    </g>
</svg>