<?xml version="1.0" encoding="UTF-8"?>
<svg width="48px" height="48px" viewBox="0 0 48 48" version="1.1" xmlns="http://www.w3.org/2000/svg" xmlns:xlink="http://www.w3.org/1999/xlink">
    <title>Icon-Resource/IoT/Res_AWS-IoT-Device-Tester_48</title>
    <g id="Icon-Resource/IoT/Res_AWS-IoT-Device-Tester_48" stroke="none" stroke-width="1" fill="none" fill-rule="evenodd">
        <path d="M21,4.52292229 L21,7.03192229 C21,7.58492229 21.447,8.03192229 22,8.03192229 L26,8.03192229 C26.553,8.03192229 27,7.58492229 27,7.03192229 L27,4.57592229 C27.869,5.27292229 28.545,6.26692229 28.545,7.34092229 C28.545,9.01292229 27.538,10.2829223 26.54,10.7999223 C26.208,10.9719223 26,11.3149223 26,11.6879223 L26,28.3559223 C26,28.7289223 26.208,29.0709223 26.54,29.2429223 C27.538,29.7609223 28.545,31.0309223 28.545,32.7019223 C28.545,33.7759223 27.869,34.7709223 27,35.4679223 L27,33.0319223 C27,32.4799223 26.553,32.0319223 26,32.0319223 L22,32.0319223 C21.447,32.0319223 21,32.4799223 21,33.0319223 L21,35.4699223 C20.158,34.7779223 19.507,33.7859223 19.507,32.7019223 C19.507,31.0399223 20.497,29.7579223 21.478,29.2249223 C21.8,29.0499223 22,28.7119223 22,28.3459223 L22,11.6469223 C22,11.2799223 21.8,10.9429223 21.478,10.7679223 C20.497,10.2339223 19.507,8.95192229 19.507,7.29092229 C19.507,6.20692229 20.158,5.21492229 21,4.52292229 L21,4.52292229 Z M20,12.1979223 L20,27.7939223 C18.488,28.8689223 17.507,30.7669223 17.507,32.7019223 C17.507,35.2589223 19.593,37.3689223 21.653,38.1299223 C21.766,38.1719223 21.883,38.1919223 22,38.1919223 C22.201,38.1919223 22.401,38.1309223 22.571,38.0129223 C22.84,37.8259223 23,37.5199223 23,37.1919223 L23,34.0319223 L25,34.0319223 L25,37.1839223 C25,37.5119223 25.161,37.8189223 25.431,38.0059223 C25.7,38.1919223 26.043,38.2359223 26.352,38.1199223 C28.436,37.3369223 30.545,35.2249223 30.545,32.7019223 C30.545,30.7139223 29.563,28.8499223 28,27.7899223 L28,12.2539223 C29.563,11.1929223 30.545,9.32992229 30.545,7.34092229 C30.545,4.81792229 28.436,2.70592229 26.352,1.92292229 C26.043,1.80692229 25.7,1.85192229 25.431,2.03692229 C25.161,2.22392229 25,2.53092229 25,2.85892229 L25,6.03192229 L23,6.03192229 L23,2.79992229 C23,2.47292229 22.84,2.16692229 22.571,1.97992229 C22.302,1.79192229 21.958,1.74892229 21.653,1.86192229 C19.593,2.62392229 17.507,4.73292229 17.507,7.29092229 C17.507,9.22592229 18.488,11.1229223 20,12.1979223 L20,12.1979223 Z M17.254,22.2819223 C16.846,22.5869223 16.409,23.4599223 16.416,24.6569223 C16.422,25.8539223 16.867,26.7219223 17.279,27.0229223 L16.1,28.6379223 C15.069,27.8859223 14.424,26.3639223 14.416,24.6669223 C14.406,22.9719223 15.035,21.4439223 16.055,20.6809223 L17.254,22.2819223 Z M11.044,24.6369223 C11.055,26.7839223 11.875,28.3399223 12.682,28.9309223 L11.502,30.5449223 C9.999,29.4459223 9.057,27.1869223 9.044,24.6479223 C9.031,22.1079223 9.948,19.8389223 11.438,18.7259223 L12.636,20.3269223 C11.836,20.9259223 11.033,22.4899223 11.044,24.6369223 L11.044,24.6369223 Z M30.567,27.0229223 C30.979,26.7229223 31.424,25.8539223 31.431,24.6569223 C31.437,23.4609223 31,22.5869223 30.592,22.2819223 L31.791,20.6809223 C32.811,21.4439223 33.438,22.9709223 33.431,24.6669223 C33.421,26.3649223 32.776,27.8869223 31.747,28.6379223 L30.567,27.0229223 Z M36.802,24.6369223 C36.813,22.4909223 36.011,20.9259223 35.211,20.3269223 L36.408,18.7259223 C37.899,19.8409223 38.816,22.1099223 38.802,24.6479223 C38.789,27.1879223 37.847,29.4469223 36.344,30.5449223 L35.164,28.9299223 C35.972,28.3409223 36.791,26.7849223 36.802,24.6369223 L36.802,24.6369223 Z M44,43.0319223 C44,43.7099223 43.73,44.0319223 42.197,44.0319223 L5.803,44.0319223 C4.182,44.0319223 4.013,43.2479223 4,43.0319223 L4,42.0319223 L5,42.0319223 L7,42.0319223 L41,42.0319223 L43,42.0319223 L44,42.0319223 L44,43.0319223 Z M45,40.0319223 L43,40.0319223 L43,17.4349223 C43,15.3439223 41.491,15.0319223 40.592,15.0319223 L30,15.0319223 L30,17.0319223 L40.592,17.0319223 C40.867,17.0319223 40.975,17.0879223 40.969,17.0769223 C41,17.1429223 41,17.3389223 41,17.4349223 L41,40.0319223 L7,40.0319223 L7,17.4349223 C7,17.3369223 7,17.1359223 7.016,17.0929223 C7.017,17.0929223 7.111,17.0319223 7.408,17.0319223 L18,17.0319223 L18,15.0319223 L7.408,15.0319223 C6.509,15.0319223 5,15.3439223 5,17.4349223 L5,40.0319223 L3,40.0319223 C2.447,40.0319223 2,40.4799223 2,41.0319223 L2,43.0319223 C2,44.0699223 2.795,46.0319223 5.803,46.0319223 L42.197,46.0319223 C45.34,46.0319223 46,44.4009223 46,43.0319223 L46,41.0319223 C46,40.4799223 45.553,40.0319223 45,40.0319223 L45,40.0319223 Z" id="Fill-1" fill="#7AA116"></path>
    </g>
</svg>