<?xml version="1.0" encoding="UTF-8"?>
<svg width="24px" height="24px" viewBox="0 0 24 24" version="1.1" xmlns="http://www.w3.org/2000/svg" xmlns:xlink="http://www.w3.org/1999/xlink">
    <title>Icon-Architecture/16/Arch_Savings-Plans_16</title>
    <g id="Icon-Architecture/16/Arch_Savings-Plans_16" stroke="none" stroke-width="1" fill="none" fill-rule="evenodd">
        <g id="Icon-Architecture-BG/16/AWS-Cost-Management" fill="#7AA116">
            <rect id="Rectangle" x="0" y="0" width="24" height="24"></rect>
        </g>
        <g id="Icon-Service/16/AWS-Savings-Plans_16" transform="translate(5.000000, 4.500000)" fill="#FFFFFF">
            <path d="M8.004,4.5005495 L7.5,4.5005495 L3.996,4.5005495 C3.985,4.5085495 3.974,4.5175495 3.963,4.5255495 C3.23,5.0875495 1,6.7985495 1,9.8405495 C1,12.7145495 2.916,14.5005495 6,14.5005495 C9.084,14.5005495 11,12.7145495 11,9.8405495 C11,6.7985495 8.771,5.0875495 8.037,4.5255495 C8.026,4.5175495 8.015,4.5085495 8.004,4.5005495 L8.004,4.5005495 Z M2.822,1.4685495 L4.301,3.5005495 L7.5,3.5005495 L7.615,3.5005495 L9.135,1.4825495 L7.658,1.9745495 C7.511,2.0245495 7.351,2.0025495 7.223,1.9165495 L6,1.1015495 C5.567,1.3905495 4.778,1.9175495 4.749,1.9345495 C4.626,2.0045495 4.478,2.0205495 4.342,1.9745495 L2.822,1.4685495 Z M13.947,4.2765495 L13.053,4.7245495 C12.849,4.3155495 12.59,4.0775495 12.263,3.9945495 C11.664,3.8415495 10.92,4.2425495 10.684,4.4085495 C10.6,4.4675495 10.497,4.5005495 10.395,4.5005495 L9.539,4.5005495 C11.168,6.0445495 12,7.8355495 12,9.8405495 C12,13.2785495 9.645,15.5005495 6,15.5005495 C2.356,15.5005495 0,13.2785495 0,9.8405495 C0,7.5225495 1.107,5.4905495 3.279,3.7955495 L1.096,0.794549497 C0.968,0.618549497 0.968,0.380549497 1.097,0.205549497 C1.225,0.0305494967 1.452,-0.0434505033 1.658,0.0265494967 L4.428,0.949549497 C4.822,0.687549497 5.722,0.0845494967 5.722,0.0845494967 C5.89,-0.0274505033 6.109,-0.0274505033 6.277,0.0845494967 L7.574,0.948549497 L10.342,0.0265494967 C10.549,-0.0444505033 10.778,0.0305494967 10.906,0.208549497 C11.034,0.386549497 11.031,0.626549497 10.9,0.801549497 L8.866,3.5005495 L10.247,3.5005495 C10.602,3.2845495 11.549,2.7875495 12.501,3.0235495 C13.122,3.1775495 13.608,3.5995495 13.947,4.2765495 L13.947,4.2765495 Z M5,7.9895495 C5,8.6065495 5.56,8.9195495 6.083,9.0075495 C7.23,9.1995495 8,10.0045495 8,11.0115495 C8,12.1205495 7.103,13.0225495 6,13.0225495 C4.898,13.0225495 4,12.1205495 4,11.0115495 L5,11.0115495 C5,11.5685495 5.448,12.0225495 6,12.0225495 C6.552,12.0225495 7,11.5685495 7,11.0115495 C7,10.3945495 6.441,10.0815495 5.917,9.9935495 C4.771,9.8015495 4,8.9965495 4,7.9895495 C4,6.8805495 4.898,5.9785495 6,5.9785495 C7.103,5.9785495 8,6.8805495 8,7.9895495 L7,7.9895495 C7,7.4325495 6.552,6.9785495 6,6.9785495 C5.448,6.9785495 5,7.4325495 5,7.9895495 L5,7.9895495 Z" id="AWS-Savings-Plans_16_Squid"></path>
        </g>
    </g>
</svg>