<?xml version="1.0" encoding="UTF-8"?>
<svg width="48px" height="48px" viewBox="0 0 48 48" version="1.1" xmlns="http://www.w3.org/2000/svg" xmlns:xlink="http://www.w3.org/1999/xlink">
    <title>Icon-Resource/Storage/Res_Amazon-File-Cache_Hybrid-NFS-linked-datasets_48</title>
    <g id="Icon-Resource/Storage/Res_Amazon-File-Cache_Hybrid-NFS-linked-datasets_48" stroke="none" stroke-width="1" fill="none" fill-rule="evenodd">
        <path d="M15,34 L13,34 C11.346,34 10,32.654 10,31 L8,31 C8,33.757 10.243,36 13,36 L15,36 C17.757,36 20,33.757 20,31 C20,28.243 17.757,26 15,26 L15,28 C16.654,28 18,29.346 18,31 C18,32.654 16.654,34 15,34 L15,34 Z M7,28 L9,28 C10.654,28 12,29.346 12,31 L14,31 C14,28.243 11.757,26 9,26 L7,26 C4.243,26 2,28.243 2,31 C2,33.757 4.243,36 7,36 L7,34 C5.346,34 4,32.654 4,31 C4,29.346 5.346,28 7,28 L7,28 Z M10,18 L26,18 L22.4,20.7 L23.6,22.3 L29.6,17.8 C29.852,17.611 30,17.315 30,17 C30,16.685 29.852,16.389 29.6,16.2 L23.6,11.7 L22.4,13.3 L26,16 L9,16 C8.447,16 8,16.448 8,17 L8,24 L10,24 L10,18 Z M36,44 L10,44 L10,38.09 L8,38.09 L8,45 C8,45.552 8.447,46 9,46 L37,46 C37.553,46 38,45.552 38,45 L38,34 L36,34 L36,44 Z M46,3 L46,31 C46,31.552 45.553,32 45,32 L29,32 L32.6,34.7 L31.4,36.3 L25.4,31.8 C25.148,31.611 25,31.315 25,31 C25,30.685 25.148,30.389 25.4,30.2 L31.4,25.7 L32.6,27.3 L29,30 L44,30 L44,4 L18,4 L18,14 L16,14 L16,3 C16,2.448 16.447,2 17,2 L45,2 C45.553,2 46,2.448 46,3 L46,3 Z" id="Fill-1" fill="#7AA116"></path>
    </g>
</svg>