<svg width="48" height="48" viewBox="0 0 48 48" fill="none" xmlns="http://www.w3.org/2000/svg">
<g clip-path="url(#clip0_270_58)">
<path d="M44.2 26.22C43.98 25.07 42.66 23.85 39.97 22.32L41.67 9.65C41.67 9.65 41.67 9.61 41.68 9.58L41.73 9.19C41.73 9.19 41.73 9.1 41.73 9.06C41.73 4.9 31.26 2 21.86 2C12.46 2 2 4.9 2 9.06C2 9.1 2 9.15 2 9.19L2.05 9.58C2.05 9.58 2.05 9.59 2.05 9.6L6.27 40.95C6.34 43.09 9.48 44.4 13.08 45.14C13.08 45.09 13.05 45.05 13.05 44.99V43.09C9.89 42.36 8.27 41.38 8.27 40.87C8.27 40.83 8.27 40.78 8.27 40.74L4.44 12.27C4.67 12.4 4.92 12.53 5.17 12.66C5.33 12.74 5.49 12.81 5.66 12.88C5.81 12.95 5.96 13.01 6.11 13.07C6.3 13.15 6.49 13.22 6.68 13.29C6.82 13.34 6.97 13.39 7.12 13.44C7.87 13.7 8.68 13.93 9.54 14.14C9.67 14.17 9.79 14.2 9.92 14.23C10.2 14.3 10.49 14.36 10.78 14.42C10.88 14.44 10.98 14.46 11.07 14.48C12.07 14.68 13.11 14.84 14.19 14.98C14.28 14.99 14.37 15 14.47 15.01C14.83 15.05 15.19 15.1 15.55 15.13C15.58 15.13 15.61 15.13 15.64 15.13C16.81 15.25 18 15.33 19.2 15.38C19.28 15.38 19.36 15.38 19.45 15.39C20.26 15.42 21.06 15.44 21.86 15.44C22.27 15.44 22.69 15.44 23.1 15.42C23.11 15.42 23.12 15.42 23.13 15.42C23.5 15.42 23.87 15.4 24.24 15.39C24.35 15.39 24.45 15.39 24.56 15.38C24.93 15.36 25.29 15.35 25.66 15.33C25.66 15.33 25.67 15.33 25.68 15.33C26.43 15.28 27.17 15.22 27.9 15.15C28.01 15.14 28.12 15.13 28.24 15.12C28.56 15.09 28.87 15.05 29.19 15.01C29.35 14.99 29.5 14.97 29.66 14.95C29.96 14.91 30.26 14.87 30.56 14.83C30.68 14.81 30.81 14.79 30.93 14.77C31.45 14.69 31.96 14.6 32.47 14.5C32.66 14.46 32.85 14.43 33.04 14.39C33.28 14.34 33.51 14.29 33.74 14.24C33.94 14.19 34.14 14.15 34.34 14.1C34.55 14.05 34.76 14 34.97 13.94C35.33 13.84 35.68 13.74 36.01 13.64C36.18 13.59 36.33 13.53 36.49 13.48C36.7 13.41 36.91 13.34 37.11 13.26C37.27 13.2 37.43 13.14 37.58 13.08C37.78 13 37.98 12.91 38.17 12.83C38.3 12.77 38.43 12.72 38.55 12.66C38.81 12.53 39.07 12.4 39.3 12.26L37.52 25.54C32.96 24.11 26.88 21.34 24.12 20.04C24.12 20.02 24.12 20 24.12 19.99C24.12 18.89 23.22 17.99 22.12 17.99C21.02 17.99 20.12 18.89 20.12 19.99C20.12 21.09 21.02 21.99 22.12 21.99C22.46 21.99 22.77 21.9 23.05 21.75C26.18 23.23 32.5 26.1 37.24 27.55L36.95 29.7L38.93 29.97L39.18 28.09C40.2 28.33 41.04 28.45 41.72 28.45C42.71 28.45 43.38 28.2 43.8 27.69C44.15 27.27 44.29 26.75 44.19 26.21L44.2 26.22ZM39.23 9.9C39.13 9.99 39.01 10.08 38.89 10.17C38.85 10.2 38.82 10.23 38.78 10.26C38.64 10.36 38.48 10.45 38.31 10.55C38.27 10.58 38.23 10.6 38.18 10.63C37.99 10.73 37.78 10.83 37.56 10.93C37.52 10.95 37.49 10.97 37.45 10.98C37.2 11.09 36.94 11.2 36.66 11.31C36.64 11.31 36.62 11.33 36.6 11.33C33.52 12.49 28.35 13.46 21.88 13.46C13.46 13.46 7.25 11.82 4.96 10.25C4.96 10.25 4.96 10.25 4.95 10.24C4.78 10.13 4.64 10.01 4.52 9.9C4.5 9.88 4.48 9.86 4.46 9.84C4.36 9.74 4.27 9.65 4.21 9.55C4.19 9.52 4.17 9.48 4.15 9.45C4.1 9.37 4.06 9.29 4.04 9.21L4.01 9.01C4.15 7.22 11.48 4 21.88 4C32.28 4 39.61 7.22 39.75 9.01L39.72 9.21C39.7 9.29 39.65 9.38 39.6 9.47C39.58 9.5 39.57 9.53 39.55 9.56C39.49 9.65 39.41 9.73 39.32 9.82C39.29 9.85 39.27 9.88 39.24 9.91L39.23 9.9ZM39.46 26.1L39.68 24.47C41.4 25.52 41.98 26.15 42.16 26.43C41.87 26.49 41.13 26.51 39.47 26.11L39.46 26.1ZM26.06 42H15.06V40H26.06V42ZM24.06 38H17.06V36H24.06V38ZM24.06 46H17.06V44H24.06V46ZM29.77 37.46L28.34 36.06C30.65 33.7 33.75 32.4 37.05 32.4C37.86 32.4 38.67 32.48 39.45 32.64L39.06 34.6C38.4 34.47 37.73 34.4 37.05 34.4C34.29 34.4 31.7 35.49 29.76 37.46H29.77ZM43.62 38.86L45.77 36.71L44.36 35.3L37.98 41.68C37.7 41.57 37.39 41.5 37.07 41.5C35.69 41.5 34.57 42.62 34.57 44H30.14C30.63 40.61 33.55 38 37.07 38C37.65 38 38.2 38.08 38.74 38.21L40.33 36.62C39.32 36.22 38.22 36 37.07 36C32.11 36 28.07 40.04 28.07 45C28.07 45.55 28.52 46 29.07 46H45.07C45.62 46 46.07 45.55 46.07 45C46.07 42.62 45.14 40.47 43.63 38.86H43.62ZM36.56 44C36.56 43.72 36.78 43.5 37.06 43.5C37.34 43.5 37.56 43.72 37.56 44H36.56ZM39.56 44C39.56 43.68 39.49 43.37 39.38 43.09L42.2 40.27C43.14 41.28 43.78 42.57 43.99 44H39.56ZM41.34 35.34C40.91 35.14 40.47 34.97 40.01 34.84L40.59 32.92C41.13 33.08 41.67 33.29 42.18 33.52C42.46 33.65 42.73 33.79 43 33.94L41.51 35.43C41.45 35.4 41.4 35.36 41.34 35.34Z" fill="#7AA116"/>
</g>
<defs>
<clipPath id="clip0_270_58">
<rect width="44.06" height="44" fill="white" transform="translate(2 2)"/>
</clipPath>
</defs>
</svg>
