<?xml version="1.0" encoding="UTF-8"?>
<svg width="48px" height="48px" viewBox="0 0 48 48" version="1.1" xmlns="http://www.w3.org/2000/svg" xmlns:xlink="http://www.w3.org/1999/xlink">
    <title>Icon-Resource/Storage/Res_AWS-Backup_AWS-Backup-support-for-Amazon-FSx-for-NetApp-ONTAP_48</title>
    <g id="Icon-Resource/Storage/Res_AWS-Backup_AWS-Backup-support-for-Amazon-FSx-for-NetApp-ONTAP_48" stroke="none" stroke-width="1" fill="none" fill-rule="evenodd">
        <path d="M45.8105,21.4039 C45.1165,16.6469 42.6115,12.4449 38.7565,9.5709 C34.9035,6.6979 30.1615,5.4979 25.4015,6.1919 C21.3775,6.7789 17.7615,8.6739 14.9995,11.5719 L14.9995,8.0019 L12.9995,8.0019 L12.9995,14.0019 C12.9995,14.5539 13.4475,15.0019 13.9995,15.0019 L19.9995,15.0019 L19.9995,13.0019 L16.3955,13.0019 C18.8555,10.3969 22.0905,8.6959 25.6905,8.1709 C29.9135,7.5539 34.1335,8.6199 37.5615,11.1749 C40.9885,13.7289 43.2145,17.4639 43.8315,21.6929 C44.4485,25.9209 43.3815,30.1369 40.8275,33.5629 C37.7805,37.6519 33.1045,39.9979 27.9995,40.0019 L26.9995,40.0019 L26.9995,42.0019 L28.0005,42.0019 C33.7445,41.9979 39.0025,39.3579 42.4305,34.7579 C45.3035,30.9039 46.5045,26.1609 45.8105,21.4039 L45.8105,21.4039 Z M22.9995,35.5149 L14.8475,22.4719 C14.6115,22.0929 14.1505,21.9199 13.7245,22.0409 C13.2955,22.1639 12.9995,22.5559 12.9995,23.0019 L12.9995,40.0019 L14.9995,40.0019 L14.9995,26.4889 L23.1525,39.5319 C23.3375,39.8299 23.6615,40.0019 23.9995,40.0019 C24.0915,40.0019 24.1845,39.9889 24.2755,39.9639 C24.7045,39.8409 24.9995,39.4479 24.9995,39.0019 L24.9995,22.0019 L22.9995,22.0019 L22.9995,35.5149 Z M28.8075,19.2759 C28.7565,19.7939 29.1145,20.2679 29.6335,20.3569 C30.9465,20.5829 33.9995,21.5049 33.9995,25.1869 C33.9995,29.4849 30.0255,29.9649 29.6575,30.0019 L26.9995,30.0019 L26.9995,32.0019 L29.7385,31.9989 C31.9045,31.8229 35.9995,30.1729 35.9995,25.1869 C35.9995,21.3059 33.4045,19.2599 30.7345,18.5519 C30.3955,16.3609 29.1725,14.7769 27.3785,14.2519 C26.1675,13.8989 24.9095,14.1109 23.8815,14.7859 C23.6435,14.3079 23.3765,13.8559 23.0825,13.4319 L21.4405,14.5719 C21.9005,15.2359 22.2825,15.9929 22.5755,16.8229 C22.6995,17.1719 23.0045,17.4239 23.3715,17.4789 C23.7355,17.5309 24.1035,17.3819 24.3235,17.0839 C24.9285,16.2649 25.9095,15.9049 26.8175,16.1719 C27.9325,16.4979 28.6715,17.6539 28.8075,19.2759 L28.8075,19.2759 Z M8.3365,18.4649 C8.3365,18.7669 8.3545,19.0649 8.3905,19.3569 C8.4485,19.8399 8.1515,20.2949 7.6855,20.4339 C7.6525,20.4449 7.6195,20.4519 7.5855,20.4589 C6.2185,20.8229 3.9995,21.9119 3.9995,25.1369 C3.9995,25.3439 4.0085,25.5439 4.0275,25.7349 C4.2505,28.1139 6.3955,29.9779 8.9115,29.9809 L11.0005,29.9829 L10.9985,31.9829 L8.9095,31.9809 C5.3725,31.9769 2.3545,29.3169 2.0365,25.9249 C2.0125,25.6749 1.9995,25.4109 1.9995,25.1369 C1.9995,22.0979 3.6065,19.7669 6.3415,18.7569 C6.3385,18.6589 6.3365,18.5619 6.3365,18.4649 C6.3365,15.5579 7.9845,12.4779 10.4355,10.7999 L11.5645,12.4499 C9.6645,13.7509 8.3365,16.2239 8.3365,18.4649 L8.3365,18.4649 Z" id="Fill-1" fill="#7AA116"></path>
    </g>
</svg>