<?xml version="1.0" encoding="UTF-8"?>
<svg width="48px" height="48px" viewBox="0 0 48 48" version="1.1" xmlns="http://www.w3.org/2000/svg" xmlns:xlink="http://www.w3.org/1999/xlink">
    <title>Icon-Resource/Storage/Res_Amazon-Simple-Storage-Service_S3-Object-Lock_48</title>
    <g id="Icon-Resource/Storage/Res_Amazon-Simple-Storage-Service_S3-Object-Lock_48" stroke="none" stroke-width="1" fill="none" fill-rule="evenodd">
        <path d="M37.5,39.5 C37.5,39.943 37.305,40.336 37,40.611 L37,42 L35,42 L35,40.611 C34.695,40.336 34.5,39.943 34.5,39.5 C34.5,38.672 35.172,38 36,38 C36.828,38 37.5,38.672 37.5,39.5 L37.5,39.5 Z M25.194,28.307 C25.194,29.685 26.315,30.807 27.694,30.807 L27.694,32.807 C25.213,32.807 23.194,30.788 23.194,28.307 C23.194,25.825 25.213,23.807 27.694,23.807 C28.989,23.807 30.223,24.366 31.078,25.34 L29.574,26.66 C29.099,26.118 28.414,25.807 27.694,25.807 C26.315,25.807 25.194,26.928 25.194,28.307 L25.194,28.307 Z M21.416,4 C30.229,4 36.696,6.83 36.832,8.347 L36.812,8.501 C36.796,8.554 36.763,8.608 36.732,8.663 C36.71,8.703 36.695,8.742 36.665,8.783 C36.622,8.84 36.562,8.899 36.505,8.957 C36.466,8.997 36.435,9.036 36.389,9.076 C36.334,9.124 36.262,9.173 36.198,9.221 C36.124,9.276 36.058,9.331 35.972,9.386 C35.952,9.399 35.926,9.412 35.905,9.425 C33.855,10.698 28.568,12 21.416,12 C14.243,12 8.945,10.69 6.91,9.414 C6.896,9.405 6.878,9.396 6.864,9.387 C6.772,9.328 6.701,9.27 6.623,9.211 C6.564,9.167 6.498,9.122 6.447,9.078 C6.398,9.034 6.364,8.992 6.322,8.949 C6.269,8.894 6.211,8.838 6.171,8.784 C6.139,8.741 6.123,8.7 6.1,8.657 C6.071,8.605 6.038,8.552 6.023,8.501 L6.002,8.346 C6.141,6.829 12.606,4 21.416,4 L21.416,4 Z M39.127,22.281 C39.157,22.366 39.163,22.438 39.105,22.553 C39.094,22.577 39.03,22.619 38.919,22.656 C38.469,22.805 37.78,22.789 36.925,22.649 L37.188,20.701 C38.012,21.144 38.939,21.738 39.127,22.281 L39.127,22.281 Z M21.416,38.659 C14.107,38.659 9.853,36.822 9.726,36.074 C9.726,36.03 9.723,35.985 9.717,35.941 L6.415,11.417 C9.658,13.184 15.682,14.096 21.416,14.096 C27.151,14.096 33.176,13.184 36.42,11.417 L34.967,22.201 C31.722,21.299 27.36,19.465 23.985,17.856 C23.91,16.821 23.053,16 22,16 C20.897,16 20,16.897 20,18 C20,19.103 20.897,20 22,20 C22.413,20 22.797,19.874 23.116,19.659 C25.798,20.944 30.722,23.163 34.7,24.188 L34.474,25.867 L36.456,26.133 L36.663,24.597 C37.209,24.681 37.731,24.738 38.192,24.738 C38.711,24.738 39.17,24.68 39.55,24.554 C40.334,24.293 40.714,23.808 40.895,23.447 C41.187,22.863 41.229,22.232 41.016,21.623 C40.523,20.209 38.748,19.216 37.471,18.597 L38.781,8.866 C38.781,8.865 38.781,8.864 38.781,8.863 C38.781,8.862 38.781,8.862 38.781,8.862 L38.825,8.524 C38.831,8.481 38.834,8.438 38.834,8.395 C38.834,4.626 29.654,2 21.416,2 C13.179,2 4,4.626 4,8.395 C4,8.439 4.003,8.483 4.009,8.527 L4.054,8.865 C4.054,8.865 4.054,8.865 4.054,8.865 C4.054,8.865 4.054,8.866 4.054,8.866 L7.728,36.152 C7.853,39.457 15.955,40.659 21.416,40.659 C22.647,40.659 23.883,40.605 25.089,40.498 L24.911,38.505 C23.765,38.607 22.589,38.659 21.416,38.659 L21.416,38.659 Z M12.724,24 L15,20.016 L17.276,24 L12.724,24 Z M19.865,25.502 C20.044,25.194 20.045,24.813 19.868,24.504 L15.868,17.504 C15.513,16.881 14.487,16.881 14.132,17.504 L10.132,24.504 C9.955,24.813 9.956,25.194 10.135,25.502 C10.314,25.81 10.644,26 10.9999958,26 L18.9999958,26 C19.356,26 19.686,25.81 19.865,25.502 L19.865,25.502 Z M15,34 L19,34 L19,30 L15,30 L15,34 Z M14,36 L20,36 C20.553,36 21,35.552 21,35 L21,29 C21,28.448 20.553,28 20,28 L14,28 C13.447,28 13,28.448 13,29 L13,35 C13,35.552 13.447,36 14,36 L14,36 Z M42,44 L30,44 L30,36 L32,36 L40,36 L42,36 L42,44 Z M33,32 C33,30.897 33.897,30 35,30 L37,30 C38.103,30 39,30.897 39,32 L39,34 L33,34 L33,32 Z M43,34 L41,34 L41,32 C41,29.794 39.206,28 37,28 L35,28 C32.794,28 31,29.794 31,32 L31,34 L29,34 C28.447,34 28,34.448 28,35 L28,45 C28,45.552 28.447,46 29,46 L43,46 C43.553,46 44,45.552 44,45 L44,35 C44,34.448 43.553,34 43,34 L43,34 Z" id="Fill-1" fill="#7AA116"></path>
    </g>
</svg>