<?xml version="1.0" encoding="UTF-8"?>
<svg width="48px" height="48px" viewBox="0 0 48 48" version="1.1" xmlns="http://www.w3.org/2000/svg" xmlns:xlink="http://www.w3.org/1999/xlink">
    <title>Icon-Resource/Storage/Res_AWS-Backup_AWS-Backup-for-AWS-CloudFormation_48</title>
    <g id="Icon-Resource/Storage/Res_AWS-Backup_AWS-Backup-for-AWS-CloudFormation_48" stroke="none" stroke-width="1" fill="none" fill-rule="evenodd">
        <path d="M43.118,33.733 C43.307,33.441 43.487,33.146 43.658,32.845 C43.772,32.644 43.881,32.44 43.987,32.233 C44.153,31.913 44.311,31.589 44.457,31.261 C44.543,31.065 44.624,30.867 44.704,30.668 C44.845,30.316 44.977,29.962 45.095,29.603 C45.157,29.412 45.215,29.22 45.271,29.027 C45.381,28.652 45.479,28.275 45.563,27.894 C45.607,27.699 45.645,27.503 45.682,27.305 C45.753,26.921 45.813,26.536 45.859,26.148 C45.884,25.936 45.905,25.723 45.923,25.509 C45.954,25.137 45.973,24.763 45.98,24.387 C45.983,24.257 46,24.13 46,24 C46,23.878 45.984,23.76 45.981,23.638 C45.974,23.313 45.957,22.988 45.932,22.662 C45.909,22.358 45.882,22.056 45.844,21.756 C45.829,21.638 45.827,21.52 45.81,21.401 C45.787,21.243 45.746,21.092 45.719,20.935 C45.664,20.616 45.604,20.3 45.533,19.987 C45.468,19.704 45.393,19.424 45.316,19.145 C45.24,18.875 45.163,18.606 45.074,18.341 C44.965,18.008 44.842,17.683 44.714,17.359 C44.637,17.164 44.56,16.97 44.476,16.779 C44.31,16.397 44.127,16.024 43.934,15.656 C43.869,15.531 43.804,15.405 43.736,15.282 C43.511,14.876 43.27,14.482 43.014,14.096 C42.957,14.01 42.901,13.923 42.843,13.838 C42.575,13.447 42.29,13.068 41.99,12.698 C41.923,12.615 41.855,12.531 41.786,12.449 C41.497,12.105 41.193,11.772 40.876,11.448 C40.773,11.342 40.669,11.237 40.563,11.134 C40.274,10.852 39.974,10.58 39.664,10.316 C39.51,10.185 39.353,10.056 39.195,9.929 C39.046,9.811 38.909,9.682 38.756,9.568 C38.614,9.462 38.463,9.375 38.318,9.274 C38.131,9.142 37.94,9.015 37.747,8.89 C37.446,8.695 37.142,8.509 36.832,8.333 C36.64,8.225 36.445,8.121 36.249,8.019 C35.92,7.849 35.588,7.687 35.251,7.538 C35.062,7.454 34.871,7.376 34.679,7.299 C34.322,7.156 33.963,7.023 33.599,6.903 C33.411,6.841 33.221,6.784 33.03,6.729 C32.655,6.619 32.277,6.521 31.896,6.436 C31.699,6.393 31.5,6.354 31.301,6.317 C30.921,6.246 30.54,6.187 30.156,6.141 C29.938,6.115 29.72,6.094 29.5,6.076 C29.133,6.046 28.766,6.027 28.397,6.02 C28.264,6.017 28.134,6 28,6 C27.787,6 27.577,6.011 27.366,6.018 C27.277,6.021 27.189,6.021 27.101,6.025 C26.54,6.053 25.985,6.108 25.436,6.186 C25.424,6.187 25.413,6.187 25.401,6.189 C25.389,6.191 25.379,6.194 25.367,6.196 C21.873,6.701 18.652,8.208 16.036,10.551 C15.993,10.589 15.95,10.626 15.908,10.664 C15.597,10.948 15.293,11.24 15,11.548 L15,8 L13,8 L13,14 C13,14.552 13.447,15 14,15 L20,15 L20,13 L16.395,13 C16.509,12.879 16.63,12.765 16.748,12.648 C17.002,12.395 17.259,12.146 17.528,11.912 C17.722,11.743 17.923,11.583 18.125,11.424 C18.364,11.235 18.607,11.054 18.855,10.88 C19.088,10.717 19.324,10.558 19.565,10.407 C19.791,10.267 20.023,10.138 20.255,10.01 C20.526,9.86 20.796,9.707 21.076,9.573 C21.275,9.478 21.481,9.399 21.684,9.312 C22.746,8.857 23.862,8.518 25.02,8.299 C25.302,8.247 25.581,8.189 25.867,8.151 C26.111,8.118 26.355,8.102 26.6,8.08 C26.969,8.049 27.34,8.023 27.714,8.016 C27.925,8.012 28.135,8.013 28.345,8.017 C28.678,8.024 29.009,8.04 29.337,8.067 C29.529,8.083 29.721,8.102 29.912,8.125 C30.255,8.166 30.595,8.218 30.931,8.281 C31.11,8.314 31.287,8.349 31.464,8.388 C31.802,8.463 32.135,8.55 32.464,8.646 C32.637,8.696 32.81,8.748 32.981,8.804 C33.301,8.909 33.616,9.026 33.927,9.151 C34.103,9.221 34.278,9.293 34.451,9.37 C34.747,9.501 35.037,9.643 35.324,9.791 C35.502,9.883 35.68,9.978 35.856,10.077 C36.129,10.232 36.397,10.396 36.66,10.566 C36.833,10.678 37.004,10.793 37.174,10.912 C37.439,11.098 37.697,11.291 37.95,11.492 C38.092,11.605 38.231,11.72 38.368,11.837 C38.643,12.071 38.91,12.312 39.168,12.564 C39.262,12.655 39.353,12.748 39.445,12.842 C39.726,13.13 39.998,13.426 40.257,13.735 C40.317,13.806 40.375,13.879 40.433,13.951 C40.7,14.281 40.956,14.62 41.196,14.97 C41.246,15.043 41.295,15.118 41.343,15.192 C41.572,15.537 41.787,15.891 41.989,16.254 C42.048,16.361 42.105,16.47 42.162,16.578 C42.334,16.907 42.496,17.242 42.646,17.583 C42.72,17.752 42.789,17.924 42.857,18.095 C42.971,18.383 43.079,18.673 43.177,18.969 C43.255,19.206 43.326,19.447 43.393,19.689 C43.461,19.933 43.526,20.179 43.584,20.428 C43.648,20.711 43.702,20.998 43.752,21.287 C43.792,21.522 43.83,21.757 43.86,21.996 C43.895,22.272 43.919,22.547 43.94,22.822 C43.961,23.103 43.977,23.385 43.983,23.67 C43.988,23.898 43.986,24.125 43.982,24.352 C43.975,24.682 43.959,25.01 43.932,25.335 C43.916,25.529 43.897,25.721 43.874,25.914 C43.833,26.257 43.781,26.598 43.718,26.934 C43.685,27.111 43.65,27.288 43.611,27.463 C43.536,27.802 43.449,28.137 43.352,28.467 C43.302,28.639 43.251,28.81 43.195,28.98 C43.09,29.301 42.973,29.616 42.848,29.928 C42.777,30.104 42.706,30.279 42.629,30.453 C42.498,30.747 42.358,31.035 42.21,31.32 C42.116,31.502 42.02,31.683 41.919,31.861 C41.766,32.13 41.606,32.392 41.439,32.651 C41.323,32.83 41.204,33.008 41.08,33.184 C40.914,33.42 40.74,33.65 40.562,33.876 C40.379,34.109 40.188,34.332 39.995,34.552 C39.794,34.78 39.596,35.01 39.382,35.226 C39.253,35.358 39.115,35.478 38.981,35.605 C38.018,36.517 36.947,37.315 35.781,37.967 C35.709,38.007 35.64,38.052 35.567,38.091 C35.214,38.281 34.849,38.451 34.481,38.615 C34.326,38.684 34.17,38.753 34.013,38.817 C33.685,38.95 33.351,39.071 33.013,39.183 C32.783,39.259 32.55,39.326 32.316,39.391 C32.026,39.473 31.734,39.553 31.437,39.618 C31.105,39.69 30.768,39.744 30.43,39.795 C30.208,39.829 29.988,39.872 29.763,39.897 C29.182,39.96 28.594,39.999 28,40 C25.824,40 23.714,39.571 21.731,38.725 L20.946,40.565 C22.873,41.386 24.907,41.836 27,41.95 L27,42 L28.001,42 C28.57,41.999 29.133,41.965 29.691,41.914 C29.767,41.907 29.843,41.902 29.919,41.894 C30.478,41.835 31.029,41.749 31.574,41.641 C31.607,41.634 31.639,41.627 31.672,41.621 C35.948,40.744 39.75,38.352 42.43,34.756 C42.533,34.618 42.618,34.47 42.717,34.33 C42.855,34.134 42.988,33.935 43.118,33.733 L43.118,33.733 Z M19.535,25.236 L16.535,36.236 L18.464,36.763 L21.464,25.763 L19.535,25.236 Z M14.293,26.293 L10.293,30.293 C9.902,30.683 9.902,31.316 10.293,31.707 L14.293,35.707 L15.707,34.293 L12.414,31 L15.707,27.707 L14.293,26.293 Z M23.707,35.707 L27.707,31.707 C28.097,31.316 28.097,30.683 27.707,30.293 L23.707,26.293 L22.293,27.707 L25.586,31 L22.293,34.293 L23.707,35.707 Z M30,29.948 L30,31.965 C32.216,31.685 36,29.98 36,25.185 C36,21.303 33.404,19.257 30.734,18.55 C30.395,16.358 29.172,14.774 27.378,14.25 C26.168,13.896 24.909,14.109 23.882,14.782 C23.377,13.767 22.747,12.878 22,12.126 L22,15.52 C22.213,15.93 22.412,16.357 22.576,16.821 C22.699,17.17 23.004,17.422 23.371,17.477 C23.735,17.531 24.103,17.379 24.323,17.082 C24.928,16.262 25.909,15.902 26.817,16.17 C27.932,16.495 28.671,17.652 28.807,19.273 C28.756,19.791 29.114,20.266 29.633,20.355 C30.946,20.58 34,21.503 34,25.185 C34,28.891 31.049,29.756 30,29.948 L30,29.948 Z M8.337,18.462 C8.337,18.764 8.354,19.062 8.39,19.354 C8.448,19.837 8.151,20.292 7.685,20.432 C7.652,20.442 7.619,20.45 7.586,20.457 C6.218,20.82 4,21.909 4,25.135 C4,25.342 4.008,25.541 4.027,25.733 C4.223,27.818 5.895,29.506 8,29.894 L8,31.911 C4.869,31.498 2.326,29.018 2.036,25.922 C2.012,25.672 2,25.408 2,25.135 C2,22.096 3.606,19.764 6.341,18.754 C6.338,18.657 6.337,18.559 6.337,18.462 C6.337,15.28 8.299,12.009 11,10.473 L11,12.894 C9.429,14.243 8.337,16.407 8.337,18.462 L8.337,18.462 Z" id="Fill-1" fill="#7AA116"></path>
    </g>
</svg>