<?xml version="1.0" encoding="UTF-8"?>
<svg width="48px" height="48px" viewBox="0 0 48 48" version="1.1" xmlns="http://www.w3.org/2000/svg" xmlns:xlink="http://www.w3.org/1999/xlink">
    <title>Icon-Resource/Storage/Res_AWS-Backup_Audit-Manager_48</title>
    <g id="Icon-Resource/Storage/Res_AWS-Backup_Audit-Manager_48" stroke="none" stroke-width="1" fill="none" fill-rule="evenodd">
        <path d="M44,19 C44,17.897 43.103,17 42,17 C40.897,17 40,17.897 40,19 C40,20.103 40.897,21 42,21 C43.103,21 44,20.103 44,19 L44,19 Z M39.92,22.4 C38.773,21.696 38,20.441 38,19 C38,18.487 38.106,18 38.282,17.549 L26.537,9.066 C25.845,9.641 24.968,10 24,10 C23.032,10 22.155,9.641 21.463,9.066 L9.718,17.549 C9.894,18 10,18.487 10,19 C10,20.441 9.227,21.696 8.08,22.4 L12.834,38.017 C12.89,38.014 12.943,38 13,38 C14.859,38 16.411,39.28 16.858,41 L31.142,41 C31.589,39.28 33.141,38 35,38 C35.057,38 35.11,38.014 35.166,38.017 L39.92,22.4 Z M37,42 C37,40.897 36.103,40 35,40 C33.897,40 33,40.897 33,42 C33,43.103 33.897,44 35,44 C36.103,44 37,43.103 37,42 L37,42 Z M15,42 C15,40.897 14.103,40 13,40 C11.897,40 11,40.897 11,42 C11,43.103 11.897,44 13,44 C14.103,44 15,43.103 15,42 L15,42 Z M6,21 C7.103,21 8,20.103 8,19 C8,17.897 7.103,17 6,17 C4.897,17 4,17.897 4,19 C4,20.103 4.897,21 6,21 L6,21 Z M22,6 C22,7.103 22.897,8 24,8 C25.103,8 26,7.103 26,6 C26,4.897 25.103,4 24,4 C22.897,4 22,4.897 22,6 L22,6 Z M46,19 C46,21.206 44.206,23 42,23 C41.943,23 41.89,22.986 41.833,22.983 L37.08,38.6 C38.227,39.304 39,40.559 39,42 C39,44.206 37.206,46 35,46 C33.141,46 31.589,44.72 31.142,43 L16.858,43 C16.411,44.72 14.859,46 13,46 C10.794,46 9,44.206 9,42 C9,40.559 9.773,39.304 10.92,38.6 L6.166,22.983 C6.11,22.986 6.057,23 6,23 C3.794,23 2,21.206 2,19 C2,16.794 3.794,15 6,15 C6.968,15 7.845,15.359 8.538,15.934 L20.282,7.451 C20.106,7 20,6.513 20,6 C20,3.794 21.794,2 24,2 C26.206,2 28,3.794 28,6 C28,6.513 27.894,7 27.718,7.451 L39.462,15.934 C40.155,15.359 41.032,15 42,15 C44.206,15 46,16.794 46,19 L46,19 Z M35,26 C35,32.065 30.065,37 24,37 C17.935,37 13,32.065 13,26 L15,26 L16.963,26 L18.769,23.269 C18.963,22.975 19.291,22.801 19.653,22.822 C20.006,22.84 20.324,23.043 20.488,23.356 L22.718,27.607 L25.092,21.631 C25.238,21.264 25.586,21.017 25.98,21.001 C26.371,20.988 26.742,21.202 26.917,21.556 L29.12,26 L31,26 L31,28 L28.5,28 C28.12,28 27.772,27.785 27.604,27.444 L26.122,24.455 L23.773,30.369 C23.629,30.732 23.286,30.978 22.896,30.999 C22.879,31 22.861,31 22.844,31 C22.474,31 22.132,30.795 21.958,30.464 L19.503,25.784 L18.334,27.552 C18.149,27.832 17.836,28 17.5,28 L15.232,28 C16.145,32.002 19.725,35 24,35 C28.963,35 33,30.962 33,26 C33,21.038 28.963,17 24,17 C21.426,17 19.009,18.125 17.319,20 L19,20 L19,22 L15,22 C14.447,22 14,21.552 14,21 L14,17 L16,17 L16,18.477 C18.056,16.297 20.939,15 24,15 C30.065,15 35,19.935 35,26 L35,26 Z" id="Fill-1" fill="#7AA116"></path>
    </g>
</svg>