<?xml version="1.0" encoding="UTF-8"?>
<svg width="48px" height="48px" viewBox="0 0 48 48" version="1.1" xmlns="http://www.w3.org/2000/svg" xmlns:xlink="http://www.w3.org/1999/xlink">
    <title>Icon-Resource/Storage/Res_Amazon-Simple-Storage-Service_S3-Replication_48</title>
    <g id="Icon-Resource/Storage/Res_Amazon-Simple-Storage-Service_S3-Replication_48" stroke="none" stroke-width="1" fill="none" fill-rule="evenodd">
        <path d="M35.9688,7.5751 C34.7058,7.3321 33.4078,7.1501 32.1358,7.0201 C29.7558,5.9771 25.4428,5.0001 19.4068,5.0001 C8.7148,5.0001 4.0738,7.8121 4.0068,8.7411 L4.0278,8.8901 C4.2328,9.4211 5.6768,10.3991 9.3168,11.1291 C8.8018,11.6701 8.4278,12.2711 8.2358,12.9411 C6.8238,12.6251 5.4888,12.2171 4.4178,11.6831 L7.8418,36.1411 C7.8478,36.1871 7.8518,36.2341 7.8518,36.2801 C7.8928,36.4371 8.5448,37.1201 10.8698,37.7591 L11.1678,39.8881 C7.7108,39.0831 5.9128,37.8991 5.8528,36.3611 L2.0678,9.3141 C2.0548,9.2621 2.0538,9.2041 2.0438,9.1501 L2.0098,8.9021 L2.0038,8.8541 C2.0018,8.8071 1.9998,8.8111 1.9998,8.7631 C1.9998,5.0201 10.9688,3.0001 19.4068,3.0001 C26.8648,3.0001 34.3878,4.5691 35.9688,7.5751 L35.9688,7.5751 Z M41.8978,28.9801 L42.0318,27.9631 C43.0308,28.5721 43.5248,28.9941 43.7648,29.2521 C43.4468,29.2651 42.8648,29.2111 41.8978,28.9801 L41.8978,28.9801 Z M38.2368,41.4051 C38.2308,41.4491 38.2288,41.4801 38.2288,41.5241 C38.1998,41.6381 37.8338,42.0761 36.5738,42.5681 C35.9438,42.8141 35.1978,43.0361 34.3568,43.2271 C32.1778,43.7251 29.5048,44.0001 26.8288,44.0001 C19.7228,44.0001 15.6188,42.2641 15.4338,41.5371 C15.4338,41.4901 15.4298,41.4441 15.4238,41.3981 L12.0008,16.9451 C15.3108,18.6061 21.4688,19.2541 26.9898,19.2541 C32.3158,19.2541 38.2488,18.6111 41.4688,16.9701 L39.9518,28.4301 C36.0848,27.2031 31.0308,24.9241 28.7518,23.8631 C28.6028,22.9541 27.8178,22.2561 26.8658,22.2561 C25.8088,22.2561 24.9478,23.1161 24.9478,24.1741 C24.9478,25.2301 25.8088,26.0911 26.8658,26.0911 C27.2888,26.0911 27.6768,25.9491 27.9938,25.7171 C30.6868,26.9701 35.7758,29.2441 39.6868,30.4451 L38.2368,41.4051 Z M26.9898,10.2571 C36.5618,10.2571 41.8028,12.7141 41.8628,13.9971 L41.8498,14.0901 C41.6638,15.2621 36.7068,17.2541 26.9898,17.2541 C17.0728,17.2541 11.8048,15.2321 11.6018,14.0901 L11.5888,13.9971 C11.6568,13.0681 16.2968,10.2571 26.9898,10.2571 L26.9898,10.2571 Z M45.9548,29.1881 C45.7638,28.1601 44.6558,27.1371 42.3158,25.8151 L43.8588,14.1511 C43.8618,14.1071 43.8668,14.0651 43.8668,14.0201 C43.8668,10.2361 35.3768,8.2571 26.9898,8.2571 C18.5508,8.2571 9.58164,10.2761 9.58164,14.0201 C9.58164,14.0671 9.5808,14.0681 9.5838,14.1151 L9.5918,14.1591 L13.4348,41.6181 C13.5678,44.8311 21.4898,46.0001 26.8288,46.0001 C29.6508,46.0001 32.4828,45.7081 34.8008,45.1781 C35.7378,44.9651 36.5788,44.7141 37.3018,44.4301 C39.1998,43.6891 40.1838,42.7411 40.2258,41.6131 L41.6338,30.9701 C42.4518,31.1541 43.1408,31.2511 43.7058,31.2511 C44.5978,31.2511 45.1998,31.0221 45.5898,30.5621 C45.9178,30.1761 46.0478,29.6871 45.9548,29.1881 L45.9548,29.1881 Z" id="AWS-Amazon-Simple-Storage_S3-Replication_Resource-Icon_light-bg" fill="#7AA116"></path>
    </g>
</svg>