<?xml version="1.0" encoding="UTF-8"?>
<svg width="48px" height="48px" viewBox="0 0 48 48" version="1.1" xmlns="http://www.w3.org/2000/svg" xmlns:xlink="http://www.w3.org/1999/xlink">
    <title>Icon-Resource/Storage/Res_Amazon-Simple-Storage-Service_S3-Batch-Operations_48</title>
    <g id="Icon-Resource/Storage/Res_Amazon-Simple-Storage-Service_S3-Batch-Operations_48" stroke="none" stroke-width="1" fill="none" fill-rule="evenodd">
        <path d="M9.584,39.43 L13.421,35.593 L14.835,37.007 L10.302,41.54 C10.106,41.736 9.851,41.833 9.595,41.833 C9.344,41.833 9.093,41.74 8.898,41.552 L6.834,39.552 L8.227,38.115 L9.584,39.43 Z M14.835,27.34 L10.302,31.873 C10.106,32.069 9.851,32.166 9.595,32.166 C9.344,32.166 9.093,32.073 8.898,31.885 L6.834,29.885 L8.227,28.448 L9.584,29.763 L13.421,25.926 L14.835,27.34 Z M14.835,17.674 L10.302,22.207 C10.106,22.402 9.851,22.5 9.595,22.5 C9.344,22.5 9.093,22.406 8.898,22.218 L6.834,20.218 L8.227,18.782 L9.584,20.097 L13.421,16.26 L14.835,17.674 Z M14.835,8.007 L10.302,12.54 C10.106,12.736 9.851,12.833 9.595,12.833 C9.344,12.833 9.093,12.74 8.898,12.552 L6.834,10.552 L8.227,9.115 L9.584,10.43 L13.421,6.593 L14.835,8.007 Z M34,37 L36,37 L36,45 C36,45.552 35.553,46 35,46 L3,46 C2.447,46 2,45.552 2,45 L2,3 C2,2.448 2.447,2 3,2 L35,2 C35.553,2 36,2.448 36,3 L36,14 L34,14 L34,4 L4,4 L4,44 L34,44 L34,37 Z M25,26 L24,26 L24,24 L25,24 L25,20 L27,20 L27,24 L28,24 L28,26 L27,26 L27,31 L25,31 L25,26 Z M32,29 L31,29 L31,27 L32,27 L32,20 L34,20 L34,27 L35,27 L35,29 L34,29 L34,31 L32,31 L32,29 Z M39,24 L38,24 L38,22 L39,22 L39,20 L41,20 L41,22 L42,22 L42,24 L41,24 L41,31 L39,31 L39,24 Z M22,33 L44,33 L44,18 L22,18 L22,33 Z M45,16 L21,16 C20.447,16 20,16.448 20,17 L20,34 C20,34.552 20.447,35 21,35 L45,35 C45.553,35 46,34.552 46,34 L46,17 C46,16.448 45.553,16 45,16 L45,16 Z" id="Fill-1" fill="#7AA116"></path>
    </g>
</svg>