<?xml version="1.0" encoding="UTF-8"?>
<svg width="48px" height="48px" viewBox="0 0 48 48" version="1.1" xmlns="http://www.w3.org/2000/svg" xmlns:xlink="http://www.w3.org/1999/xlink">
    <title>Icon-Resource/Storage/Res_Amazon-File-Cache_On-premises-NFS-linked-datasets_48</title>
    <g id="Icon-Resource/Storage/Res_Amazon-File-Cache_On-premises-NFS-linked-datasets_48" stroke="none" stroke-width="1" fill="none" fill-rule="evenodd">
        <path d="M18,31 C18,29.346 16.654,28 15,28 L15,26 C17.757,26 20,28.243 20,31 C20,33.757 17.757,36 15,36 L13,36 C10.243,36 8,33.757 8,31 L10,31 C10,32.654 11.346,34 13,34 L15,34 C16.654,34 18,32.654 18,31 L18,31 Z M4,31 C4,32.654 5.346,34 7,34 L7,36 C4.243,36 2,33.757 2,31 C2,28.243 4.243,26 7,26 L9,26 C11.757,26 14,28.243 14,31 L12,31 C12,29.346 10.654,28 9,28 L7,28 C5.346,28 4,29.346 4,31 L4,31 Z M32,23 L34,23 L34,21 L32,21 L32,23 Z M38,23 L40,23 L40,21 L38,21 L38,23 Z M20,9 L22,9 L22,7 L20,7 L20,9 Z M14,9 L16,9 L16,7 L14,7 L14,9 Z M13,16 L41,16 L41,14 L13,14 L13,16 Z M10,12 L44,12 L44,4 L10,4 L10,12 Z M34,44 L41,44 L41,42 L34,42 L34,44 Z M13,44 L20,44 L20,42 L13,42 L13,44 Z M44.082,14 C45.14,14 46,13.14 46,12.083 L46,3.917 C46,2.86 45.14,2 44.082,2 L10,2 C8.897,2 8,2.897 8,4 L8,12.083 C8,13.14 8.86,14 9.918,14 L11,14 L11,16 L9.918,16 C8.86,16 8,16.86 8,17.917 L8,24 L10,24 L10,18 L44,18 L44,26 L22,26 L22,28 L41,28 L41,30 L22,30 L22,32 L44,32 L44,40 L10,40 L10,38 L8,38 L8,40 C8,41.103 8.897,42 10,42 L11,42 L11,45 C11,45.552 11.447,46 12,46 L21,46 C21.553,46 22,45.552 22,45 L22,42 L32,42 L32,45 C32,45.552 32.447,46 33,46 L42,46 C42.553,46 43,45.552 43,45 L43,42 L44,42 C45.103,42 46,41.103 46,40 L46,32 C46,30.897 45.103,30 44,30 L43,30 L43,28 L44.082,28 C45.14,28 46,27.14 46,26.083 L46,18 C46,16.897 45.103,16 44,16 L43,16 L43,14 L44.082,14 Z" id="Fill-1" fill="#7AA116"></path>
    </g>
</svg>