<?xml version="1.0" encoding="UTF-8"?>
<svg width="48px" height="48px" viewBox="0 0 48 48" version="1.1" xmlns="http://www.w3.org/2000/svg" xmlns:xlink="http://www.w3.org/1999/xlink">
    <title>Icon-Resource/Storage/Res_AWS-Backup_Vault-Lock_48</title>
    <g id="Icon-Resource/Storage/Res_AWS-Backup_Vault-Lock_48" stroke="none" stroke-width="1" fill="none" fill-rule="evenodd">
        <path d="M15.863,33.96 C21.978,38.517 30.658,37.251 35.217,31.136 C39.773,25.022 38.507,16.34 32.393,11.783 C26.479,7.376 18.176,8.429 13.513,14.035 L16.013,14.068 L15.986,16.068 L10.919,16 C10.654,15.997 10.401,15.888 10.216,15.698 C10.031,15.507 9.928,15.252 9.932,14.986 L10,9.986 L12,10.014 L11.963,12.775 C17.297,6.344 26.813,5.13 33.589,10.179 C40.587,15.396 42.036,25.334 36.82,32.332 C33.717,36.495 28.941,38.695 24.108,38.695 C20.818,38.695 17.503,37.676 14.668,35.564 C10.654,32.572 8.333,27.981 8.298,22.968 L10.298,22.955 C10.328,27.335 12.356,31.347 15.863,33.96 L15.863,33.96 Z M35,44 L39,44 L39,43 L35,43 L35,44 Z M9,44 L13,44 L13,43 L9,43 L9,44 Z M45,2 L3,2 C2.447,2 2,2.448 2,3 L2,11 L4,11 L4,4 L44,4 L44,41 L4,41 L4,33 L2,33 L2,42 C2,42.552 2.447,43 3,43 L7,43 L7,45 C7,45.552 7.447,46 8,46 L14,46 C14.552,46 15,45.552 15,45 L15,43 L33,43 L33,45 C33,45.552 33.447,46 34,46 L40,46 C40.552,46 41,45.552 41,45 L41,43 L45,43 C45.552,43 46,42.552 46,42 L46,3 C46,2.448 45.552,2 45,2 L45,2 Z M2,27 L4,27 L4,17 L2,17 L2,27 Z M20,28 L28,28 L28,22 L20,22 L20,28 Z M22,18 C22,16.897 22.897,16 24,16 C25.102,16 26,16.897 26,18 L26,20 L22,20 L22,18 Z M24,14 C21.794,14 20,15.794 20,18 L20,20 L19,20 C18.447,20 18,20.448 18,21 L18,29 C18,29.552 18.447,30 19,30 L29,30 C29.552,30 30,29.552 30,29 L30,21 C30,20.448 29.552,20 29,20 L28,20 L28,18 C28,15.794 26.206,14 24,14 L24,14 Z" id="Fill-1" fill="#7AA116"></path>
    </g>
</svg>