<?xml version="1.0" encoding="UTF-8"?>
<svg width="48px" height="48px" viewBox="0 0 48 48" version="1.1" xmlns="http://www.w3.org/2000/svg" xmlns:xlink="http://www.w3.org/1999/xlink">
    <title>Icon-Resource/Storage/Res_Amazon-Simple-Storage-Service_S3-Multi-Region-Access-Points_48</title>
    <g id="Icon-Resource/Storage/Res_Amazon-Simple-Storage-Service_S3-Multi-Region-Access-Points_48" stroke="none" stroke-width="1" fill="none" fill-rule="evenodd">
        <path d="M28.001,15 L29.408,12.186 L30.814,15 L28.001,15 Z M30.303,9.503 C30.133,9.164 29.787,8.95 29.408,8.95 C29.029,8.95 28.684,9.164 28.514,9.503 L25.488,15.553 C25.333,15.863 25.35,16.231 25.532,16.526 C25.714,16.82 26.036,17 26.383,17 L32.433,17 C32.779,17 33.101,16.821 33.283,16.526 C33.466,16.231 33.482,15.863 33.327,15.553 L30.303,9.503 Z M27,26 C25.897,26 25,25.103 25,24 C25,22.897 25.897,22 27,22 C28.103,22 29,22.897 29,24 C29,25.103 28.103,26 27,26 L27,26 Z M27,20 C24.794,20 23,21.794 23,24 C23,26.206 24.794,28 27,28 C29.206,28 31,26.206 31,24 C31,21.794 29.206,20 27,20 L27,20 Z M18,18 L21,18 L21,15 L18,15 L18,18 Z M23,14 C23,13.448 22.553,13 22,13 L17,13 C16.447,13 16,13.448 16,14 L16,19 C16,19.552 16.447,20 17,20 L22,20 C22.553,20 23,19.552 23,19 L23,14 Z M41.5,44 C40.121,44 39,42.878 39,41.5 C39,40.122 40.121,39 41.5,39 C42.879,39 44,40.122 44,41.5 C44,42.878 42.879,44 41.5,44 L41.5,44 Z M24.995,34.676 C22.459,32.443 13.264,23.869 12.94,16.694 C12.778,13.102 13.913,9.842 16.137,7.516 C18.335,5.216 21.4,4 25,4 C28.744,4 31.836,5.168 33.938,7.377 C36.077,9.623 37.107,12.843 36.918,16.69 C36.566,23.858 27.503,32.436 24.995,34.676 L24.995,34.676 Z M27,41.5 C27,42.878 25.879,44 24.5,44 C23.121,44 22,42.878 22,41.5 C22,40.122 23.121,39 24.5,39 C25.879,39 27,40.122 27,41.5 L27,41.5 Z M10,41.5 C10,42.878 8.879,44 7.5,44 C6.121,44 5,42.878 5,41.5 C5,40.122 6.121,39 7.5,39 C8.879,39 10,40.122 10,41.5 L10,41.5 Z M43,37.276 L43,30 C43,29.448 42.553,29 42,29 L33.162,29 C36.05,25.377 38.712,20.956 38.916,16.788 C39.132,12.381 37.912,8.649 35.388,5.998 C32.897,3.382 29.306,2 25,2 C20.841,2 17.275,3.43 14.69,6.134 C12.086,8.859 10.755,12.642 10.942,16.784 C11.13,20.954 13.819,25.376 16.742,29 L8,29 C7.447,29 7,29.448 7,30 L7,37.051 C4.756,37.303 3,39.19 3,41.5 C3,43.981 5.019,46 7.5,46 C9.981,46 12,43.981 12,41.5 C12,39.547 10.742,37.898 9,37.276 L9,31 L18.441,31 C20.641,33.461 22.722,35.353 23.736,36.236 L23.712,37.08 C21.606,37.455 20,39.288 20,41.5 C20,43.981 22.019,46 24.5,46 C26.981,46 29,43.981 29,41.5 C29,39.441 27.602,37.719 25.71,37.186 L25.724,36.697 C26.25,36.252 28.777,34.063 31.482,31 L41,31 L41,37.051 C38.756,37.303 37,39.19 37,41.5 C37,43.981 39.019,46 41.5,46 C43.981,46 46,43.981 46,41.5 C46,39.547 44.742,37.898 43,37.276 L43,37.276 Z" id="Fill-1" fill="#7AA116"></path>
    </g>
</svg>