<svg width="48" height="48" viewBox="0 0 48 48" fill="none" xmlns="http://www.w3.org/2000/svg">
<path d="M20.29 24.0598C19.74 24.0598 19.29 24.5098 19.29 25.0598V29.0598C19.29 29.6098 19.74 30.0598 20.29 30.0598H21.29V32.0598H17.29C16.74 32.0598 16.29 32.5098 16.29 33.0598V35.0598H15.29C14.74 35.0598 14.29 35.5098 14.29 36.0598V40.0598C14.29 40.6098 14.74 41.0598 15.29 41.0598H19.29C19.84 41.0598 20.29 40.6098 20.29 40.0598V36.0598C20.29 35.5098 19.84 35.0598 19.29 35.0598H18.29V34.0598H26.29V35.0598H25.29C24.74 35.0598 24.29 35.5098 24.29 36.0598V40.0598C24.29 40.6098 24.74 41.0598 25.29 41.0598H29.29C29.84 41.0598 30.29 40.6098 30.29 40.0598V36.0598C30.29 35.5098 29.84 35.0598 29.29 35.0598H28.29V33.0598C28.29 32.5098 27.84 32.0598 27.29 32.0598H23.29V30.0598H24.29C24.84 30.0598 25.29 29.6098 25.29 29.0598V25.0598C25.29 24.5098 24.84 24.0598 24.29 24.0598H20.29ZM18.29 39.0598H16.29V37.0598H18.29V39.0598ZM28.29 39.0598H26.29V37.0598H28.29V39.0598ZM23.29 28.0598H21.29V26.0598H23.29V28.0598ZM45.26 26.2598C45.05 25.1098 43.72 23.8898 41.02 22.3498L42.74 9.59977L42.79 9.20977C42.79 9.20977 42.79 9.11977 42.79 9.07977C42.79 4.90977 32.3 2.00977 22.89 2.00977C13.48 2.00977 3 4.89977 3 9.06977C3 9.10977 3 9.15977 3 9.19977L3.05 9.58977L7.28 41.0098C7.41 44.6898 16.89 46.0598 22.89 46.0598C26.2 46.0598 29.53 45.7098 32.25 45.0798C33.35 44.8298 34.33 44.5298 35.17 44.1998C37.34 43.3398 38.45 42.2698 38.5 41.0098L40.24 28.0798C41.19 28.2798 42.06 28.3998 42.78 28.3998C43.75 28.3998 44.47 28.1898 44.87 27.7298C45.22 27.3098 45.36 26.7898 45.26 26.2498V26.2598ZM22.9 3.99977C33.32 3.99977 40.66 7.22977 40.8 9.01977L40.77 9.22977C40.25 11.0098 33.25 13.4798 22.9 13.4798C12.55 13.4798 5.54 11.0098 5.03 9.22977L5 9.01977C5.14 7.22977 12.48 3.99977 22.89 3.99977H22.9ZM36.51 40.7998C36.51 40.7998 36.51 40.8898 36.51 40.9298C36.51 41.0798 36.13 41.6698 34.45 42.3398C33.7 42.6398 32.81 42.8998 31.81 43.1298C29.23 43.7298 26.07 44.0498 22.9 44.0498C14.43 44.0498 9.29 41.8798 9.29 40.9198C9.29 40.8798 9.29 40.8298 9.29 40.7898L5.44 12.2898C9.06 14.3998 16.15 15.4898 22.9 15.4898C29.65 15.4898 36.74 14.3998 40.36 12.2898L38.95 22.7698L38.57 25.5898C34.93 24.4198 29.82 22.3098 24.99 20.0098C24.93 18.8998 24.03 18.0198 22.91 18.0198C21.79 18.0198 20.81 18.9598 20.81 20.1198C20.81 21.2798 21.75 22.2198 22.91 22.2198C23.36 22.2198 23.78 22.0698 24.13 21.8198C28.46 23.8998 33.99 26.3498 38.31 27.5998L36.53 40.8098L36.51 40.7998ZM40.5 26.1598L40.72 24.4998C42.5 25.5898 43.05 26.2098 43.21 26.4798C42.74 26.6198 41.78 26.4898 40.49 26.1598H40.5Z" fill="#7AA116"/>
</svg>
