<?xml version="1.0" encoding="UTF-8"?>
<svg width="48px" height="48px" viewBox="0 0 48 48" version="1.1" xmlns="http://www.w3.org/2000/svg" xmlns:xlink="http://www.w3.org/1999/xlink">
    <title>Icon-Resource/Storage/Res_Amazon-Elastic-File-System_Elastic-Throughput_48</title>
    <g id="Icon-Resource/Storage/Res_Amazon-Elastic-File-System_Elastic-Throughput_48" stroke="none" stroke-width="1" fill="none" fill-rule="evenodd">
        <path d="M10.104,13 L11.433,13 C11.863,13 12.273,13.185 12.557,13.507 C12.842,13.829 12.975,14.259 12.921,14.686 L12.473,18.273 L17.036,12 L15,12 C14.664,12 14.35,11.831 14.165,11.55 C13.98,11.27 13.948,10.915 14.081,10.606 L16.483,5 L10.905,5 L10.104,13 Z M8.44,14.506 C8.156,14.193 8.017,13.772 8.059,13.351 L8.959,4.351 C9.036,3.581 9.677,3 10.452,3 L17.242,3 C17.748,3 18.215,3.252 18.494,3.675 C18.772,4.097 18.819,4.627 18.62,5.091 L16.516,10 L17.036,10 C17.791,10 18.474,10.418 18.818,11.092 C19.161,11.766 19.098,12.564 18.653,13.176 L11.808,22.588 C11.616,22.853 11.312,23 11,23 C10.876,23 10.751,22.978 10.631,22.93 C10.208,22.762 9.951,22.329 10.007,21.876 L10.867,15 L9.552,15 C9.129,15 8.724,14.82 8.44,14.506 L8.44,14.506 Z M19.618,31 L23.381,31 L21.5,27.236 L19.618,31 Z M17.105,31.553 L20.605,24.553 C20.945,23.875 22.054,23.875 22.394,24.553 L25.894,31.553 C26.049,31.863 26.033,32.231 25.85,32.526 C25.667,32.82 25.346,33 25,33 L18,33 C17.653,33 17.332,32.82 17.149,32.526 C16.966,32.231 16.95,31.863 17.105,31.553 L17.105,31.553 Z M33,35 C34.102,35 35,34.103 35,33 C35,31.897 34.102,31 33,31 C31.897,31 31,31.897 31,33 C31,34.103 31.897,35 33,35 L33,35 Z M33,37 C30.793,37 29,35.206 29,33 C29,30.794 30.793,29 33,29 C35.206,29 37,30.794 37,33 C37,35.206 35.206,37 33,37 L33,37 Z M8,35 L12,35 L12,31 L8,31 L8,35 Z M6,30 C6,29.448 6.447,29 7,29 L13,29 C13.552,29 14,29.448 14,30 L14,36 C14,36.552 13.552,37 13,37 L7,37 C6.447,37 6,36.552 6,36 L6,30 Z M45,19 L43,19 L43,21 L44,21 L44,44 L9,44 L9,43 L7,43 L7,45 C7,45.552 7.447,46 8,46 L45,46 C45.552,46 46,45.552 46,45 L46,20 C46,19.448 45.552,19 45,19 L45,19 Z M40,41 L3,41 C2.447,41 2,40.552 2,40 L2,17 C2,15.346 3.345,14 5,14 L6,14 L6,16 L5,16 C4.448,16 4,16.449 4,17 L4,39 L39,39 L39,17 C39,16.449 38.551,16 38,16 L34,16 C33.541,16 33.141,15.688 33.03,15.243 L32.219,12 L25.781,12 L24.969,15.243 C24.858,15.688 24.458,16 24,16 L21,16 L21,14 L23.218,14 L23.84,11.515 C24.063,10.623 24.861,10 25.781,10 L32.218,10 C33.138,10 33.936,10.623 34.159,11.515 L34.781,14 L38,14 C39.654,14 41,15.346 41,17 L41,40 C41,40.552 40.552,41 40,41 L40,41 Z" id="Fill-1" fill="#7AA116"></path>
    </g>
</svg>