<?xml version="1.0" encoding="UTF-8"?>
<svg width="48px" height="48px" viewBox="0 0 48 48" version="1.1" xmlns="http://www.w3.org/2000/svg" xmlns:xlink="http://www.w3.org/1999/xlink">
    <title>Icon-Resource/Storage/Res_AWS-Backup_Legal-Hold_48</title>
    <g id="Icon-Resource/Storage/Res_AWS-Backup_Legal-Hold_48" stroke="none" stroke-width="1" fill="none" fill-rule="evenodd">
        <path d="M25,30 L27,30 L27,22 L25,22 L25,30 Z M21,30 L23,30 L23,22 L21,22 L21,30 Z M34,26 C34,31.514 29.514,36 24,36 C18.486,36 14,31.514 14,26 L16,26 C16,30.411 19.589,34 24,34 C28.411,34 32,30.411 32,26 C32,21.589 28.411,18 24,18 C22.037,18 20.178,18.74 18.738,20 L20,20 L20,22 L17.074,22 C17.067,22.011 17.059,22.02 17.053,22.031 L16.998,22 L16,22 C15.447,22 15,21.552 15,21 L15,17 L17,17 L17,18.87 C18.848,17.062 21.354,16 24,16 C29.514,16 34,20.486 34,26 L34,26 Z M42,21 C40.897,21 40,20.103 40,19 C40,17.897 40.897,17 42,17 C43.103,17 44,17.897 44,19 C44,20.103 43.103,21 42,21 L42,21 Z M35.166,38.017 C35.11,38.014 35.057,38 35,38 C33.141,38 31.589,39.28 31.142,41 L16.858,41 C16.411,39.28 14.859,38 13,38 C12.943,38 12.89,38.014 12.834,38.017 L8.08,22.4 C9.227,21.696 10,20.441 10,19 C10,18.487 9.894,18 9.718,17.549 L21.463,9.066 C22.155,9.641 23.032,10 24,10 C24.968,10 25.845,9.641 26.537,9.066 L38.282,17.549 C38.106,18 38,18.487 38,19 C38,20.441 38.773,21.696 39.92,22.4 L35.166,38.017 Z M35,44 C33.897,44 33,43.103 33,42 C33,40.897 33.897,40 35,40 C36.103,40 37,40.897 37,42 C37,43.103 36.103,44 35,44 L35,44 Z M13,44 C11.897,44 11,43.103 11,42 C11,40.897 11.897,40 13,40 C14.103,40 15,40.897 15,42 C15,43.103 14.103,44 13,44 L13,44 Z M4,19 C4,17.897 4.897,17 6,17 C7.103,17 8,17.897 8,19 C8,20.103 7.103,21 6,21 C4.897,21 4,20.103 4,19 L4,19 Z M24,4 C25.103,4 26,4.897 26,6 C26,7.103 25.103,8 24,8 C22.897,8 22,7.103 22,6 C22,4.897 22.897,4 24,4 L24,4 Z M42,15 C41.032,15 40.155,15.359 39.462,15.934 L27.718,7.451 C27.894,7 28,6.513 28,6 C28,3.794 26.206,2 24,2 C21.794,2 20,3.794 20,6 C20,6.513 20.106,7 20.282,7.451 L8.538,15.934 C7.845,15.359 6.968,15 6,15 C3.794,15 2,16.794 2,19 C2,21.206 3.794,23 6,23 C6.057,23 6.11,22.986 6.166,22.983 L10.92,38.6 C9.773,39.304 9,40.559 9,42 C9,44.206 10.794,46 13,46 C14.859,46 16.411,44.72 16.858,43 L31.142,43 C31.589,44.72 33.141,46 35,46 C37.206,46 39,44.206 39,42 C39,40.559 38.227,39.304 37.08,38.6 L41.833,22.983 C41.89,22.986 41.943,23 42,23 C44.206,23 46,21.206 46,19 C46,16.794 44.206,15 42,15 L42,15 Z" id="Fill-1" fill="#7AA116"></path>
    </g>
</svg>