<?xml version="1.0" encoding="UTF-8"?>
<svg width="64px" height="64px" viewBox="0 0 64 64" version="1.1" xmlns="http://www.w3.org/2000/svg" xmlns:xlink="http://www.w3.org/1999/xlink">
    <title>Icon-Architecture/48/Arch_Bottlerocket_48</title>
    <g id="Icon-Architecture/48/Arch_Bottlerocket_48" stroke="none" stroke-width="1" fill="none" fill-rule="evenodd">
        <g id="Icon-Architecture-BG/48/Compute" fill="#ED7100">
            <rect id="Rectangle" x="0" y="0" width="64" height="64"></rect>
        </g>
        <g id="Icon-Service/48/Bottlerocket" transform="translate(18.000000, 10.000000)" fill="#FFFFFF">
            <path d="M15,25.77125 L15,22.88325 L17,21.88325 L17,24.61625 L15,25.77125 Z M11,21.88325 L13,22.88325 L13,25.77125 L11,24.61625 L11,21.88325 Z M14,19.38325 L15.764,20.26525 L14,21.14725 L12.236,20.26525 L14,19.38325 Z M14.447,17.37125 C14.166,17.23025 13.834,17.23025 13.553,17.37125 L9.553,19.37125 C9.214,19.54125 9,19.88625 9,20.26525 L9,25.19325 C9,25.55025 9.19,25.88025 9.5,26.05925 L13.5,28.36925 C13.654,28.45825 13.827,28.50225 14,28.50225 C14.173,28.50225 14.346,28.45825 14.5,28.36925 L18.5,26.05925 C18.81,25.88025 19,25.55025 19,25.19325 L19,20.26525 C19,19.88625 18.786,19.54125 18.447,19.37125 L14.447,17.37125 Z M13.999,2.06225 L20.72,9.95525 C18.905,9.42625 16.565,8.95325 14,8.95325 C11.478,8.95325 9.099,9.44825 7.25,9.99025 L13.999,2.06225 Z M4,13.26525 C4.149,13.26525 4.3,13.23225 4.44,13.16325 C4.485,13.14125 9.002,10.95325 14,10.95325 C19.185,10.95325 23.5,13.13225 23.543,13.15525 C23.97,13.37325 24.488,13.25825 24.784,12.88525 C25.08,12.51125 25.07,11.98025 24.762,11.61725 L15.426,0.65325 C14.734,-0.22775 13.241,-0.19775 12.599,0.62325 L3.238,11.61725 C2.932,11.97825 2.92,12.50425 3.211,12.87925 C3.405,13.12925 3.699,13.26525 4,13.26525 L4,13.26525 Z M12,42.26525 L16,42.26525 L16,41.26525 L12,41.26525 L12,42.26525 Z M8,41.26525 L10,41.26525 L10,43.26525 C10,43.81825 10.447,44.26525 11,44.26525 L17,44.26525 C17.553,44.26525 18,43.81825 18,43.26525 L18,41.26525 L20,41.26525 L20,39.26525 L8,39.26525 L8,41.26525 Z M22.928,28.78525 C22.998,27.83225 23,26.82625 23,25.82825 L23,20.20625 L26,24.10525 L26,31.92825 L22.928,28.78525 Z M22.508,31.21625 L26.285,35.08225 C26.477,35.27825 26.736,35.38225 27,35.38225 C27.127,35.38225 27.255,35.35825 27.377,35.30825 C27.754,35.15525 28,34.78925 28,34.38225 L28,23.76525 C28,23.54425 27.927,23.33125 27.793,23.15625 L23,16.92525 L23,14.26525 L21,14.26525 L21,25.82825 C21,31.41125 20.324,32.25325 18,32.25325 C17.447,32.25325 17,32.70125 17,33.25325 L17,38.26525 L19,38.26525 L19,34.18925 C21.012,33.91325 22.011,32.77125 22.508,31.21625 L22.508,31.21625 Z M2,31.92825 L2,24.10525 L5,20.20625 L5,25.82825 C5,26.82625 5.002,27.83225 5.072,28.78525 L2,31.92825 Z M9,34.18925 L9,38.26525 L11,38.26525 L11,33.25325 C11,32.70125 10.553,32.25325 10,32.25325 C7.676,32.25325 7,31.41125 7,25.82825 L7,14.26525 L5,14.26525 L5,16.92525 L0.207,23.15625 C0.073,23.33125 0,23.54425 0,23.76525 L0,34.38225 C0,34.78925 0.246,35.15525 0.623,35.30825 C0.745,35.35825 0.873,35.38225 1,35.38225 C1.264,35.38225 1.523,35.27825 1.715,35.08225 L5.492,31.21625 C5.989,32.77125 6.988,33.91325 9,34.18925 L9,34.18925 Z" id="Bottlerocket_Icon_48_Squid"></path>
        </g>
    </g>
</svg>