<?xml version="1.0" encoding="UTF-8"?>
<svg width="64px" height="64px" viewBox="0 0 64 64" version="1.1" xmlns="http://www.w3.org/2000/svg" xmlns:xlink="http://www.w3.org/1999/xlink">
    <title>Icon-Architecture/48/Arch_NICE-DCV_48</title>
    <g id="Icon-Architecture/48/Arch_NICE-DCV_48" stroke="none" stroke-width="1" fill="none" fill-rule="evenodd">
        <g id="Icon-Architecture-BG/48/Compute" transform="translate(-0.000000, 0.000000)" fill="#ED7100">
            <rect id="Rectangle" x="0" y="0" width="64" height="64"></rect>
        </g>
        <g id="Icon-Service/48/NICE-DCV_48" transform="translate(10.000000, 10.000000)" fill="#FFFFFF">
            <path d="M38.5095223,20.8700473 C34.8075223,23.1810473 29.6505223,25.5280473 23.9895223,27.4790473 C19.9745223,28.8640473 16.0435223,29.9270473 12.5435223,30.5970473 C15.5305223,38.0350473 20.9855223,42.8280473 26.3055223,41.9300473 C31.2915223,41.0880473 35.0105223,35.2090473 35.5595223,27.3000473 L37.5555223,27.4390473 C36.9315223,36.4260473 32.6465223,42.8880473 26.6375223,43.9020473 C26.1125223,43.9910473 25.5835223,44.0340473 25.0585223,44.0340473 C19.2575223,44.0340473 13.5875223,38.7520473 10.5425223,30.9450473 C9.83352234,31.0550473 9.14052234,31.1510473 8.48252234,31.2210473 C7.35652234,31.3410473 6.34552234,31.4010473 5.44652234,31.4010473 C2.36852234,31.4010473 0.619522335,30.6950473 0.126522335,29.2640473 C-0.485477665,27.4890473 1.11852234,25.3990473 5.03052234,22.8740473 L6.11352234,24.5550473 C2.44552234,26.9230473 1.91352234,28.3120473 2.01752234,28.6130473 C2.12952234,28.9350473 3.51552234,29.7400473 8.27052234,29.2330473 C8.78452234,29.1780473 9.31852234,29.1100473 9.86452234,29.0300473 C9.39652234,27.5580473 9.00952234,26.0200473 8.73852234,24.4150473 C6.70052234,12.3480473 11.4165223,1.45504726 19.2505223,0.133047262 C23.9145223,-0.658952738 28.8855223,2.11904726 32.5225223,7.55704726 L30.8605223,8.66804726 C27.6735223,3.90404726 23.4575223,1.44904726 19.5825223,2.10504726 C12.8375223,3.24404726 8.85752234,13.1020473 10.7105223,24.0820473 C10.9835223,25.6940473 11.3765223,27.2310473 11.8535223,28.6960473 C15.3315223,28.0490473 19.2865223,26.9850473 23.3375223,25.5880473 C28.8605223,23.6840473 33.8725223,21.4060473 37.4505223,19.1730473 C41.5085223,16.6410473 42.1045223,15.1530473 41.9935223,14.8310473 C41.8935223,14.5370473 40.7775223,13.8340473 36.8735223,14.1100473 L36.7335223,12.1150473 C40.9605223,11.8130473 43.3015223,12.4910473 43.8845223,14.1800473 C44.5215223,16.0270473 42.7635223,18.2160473 38.5095223,20.8700473" id="Fill-1"></path>
        </g>
    </g>
</svg>