<?xml version="1.0" encoding="UTF-8"?>
<svg width="64px" height="64px" viewBox="0 0 64 64" version="1.1" xmlns="http://www.w3.org/2000/svg" xmlns:xlink="http://www.w3.org/1999/xlink">
    <title>Icon-Architecture/48/Arch_AWS-Outposts-servers_48</title>
    <g id="Icon-Architecture/48/Arch_AWS-Outposts-servers_48" stroke="none" stroke-width="1" fill="none" fill-rule="evenodd">
        <g id="Icon-Architecture-BG/48/Compute" transform="translate(-0.000000, 0.000000)" fill="#ED7100">
            <rect id="Rectangle" x="0" y="0" width="64" height="64"></rect>
        </g>
        <g id="Icon-Service/48/AWS-Outposts-servers_48" transform="translate(10.000000, 18.000000)" fill="#FFFFFF">
            <path d="M11,24.9967401 L13,24.9967401 L13,22.9967401 L11,22.9967401 L11,24.9967401 Z M42,21.9967401 C42,21.4457401 41.552,20.9967401 41,20.9967401 L9,20.9967401 C8.448,20.9967401 8,21.4457401 8,21.9967401 L8,25.9967401 C8,26.5477401 8.448,26.9967401 9,26.9967401 L41,26.9967401 C41.552,26.9967401 42,26.5477401 42,25.9967401 L42,21.9967401 Z M44,21.9967401 L44,25.9967401 C44,27.6507401 42.654,28.9967401 41,28.9967401 L9,28.9967401 C7.346,28.9967401 6,27.6507401 6,25.9967401 L6,21.9967401 C6,20.3427401 7.346,18.9967401 9,18.9967401 L41,18.9967401 C42.654,18.9967401 44,20.3427401 44,21.9967401 L44,21.9967401 Z M15,24.9967401 L21,24.9967401 L21,22.9967401 L15,22.9967401 L15,24.9967401 Z M23,24.9967401 L39,24.9967401 L39,22.9967401 L23,22.9967401 L23,24.9967401 Z M6.115,9.48574013 C6.175,9.98374013 5.855,10.4497401 5.369,10.5737401 C4.111,10.8937401 2,11.8837401 2,14.9107401 C2,15.0117401 2.003,15.1097401 2.008,15.2057401 C2.074,16.5907401 2.569,18.9597401 5.134,19.3067401 L4.866,21.2887401 C1.987,20.8987401 0.172,18.6627401 0.01,15.3057401 C0.003,15.1787401 0,15.0467401 0,14.9107401 C0,12.0487401 1.504,9.85074013 4.068,8.88674013 C4.066,8.80974013 4.065,8.73274013 4.065,8.65474013 C4.065,5.37374013 6.266,1.96874013 9.183,0.732740125 C12.592,-0.712259875 16.204,0.006740125 18.843,2.65274013 C19.539,3.35174013 20.128,4.17674013 20.603,5.11574013 C21.57,4.50274013 22.745,4.31674013 23.873,4.64574013 C25.563,5.14074013 26.72,6.62174013 27.054,8.66974013 C28.843,9.09974013 32,10.4947401 32,16.4807401 L30,16.4807401 C30,11.1857401 27.27,10.7167401 25.958,10.4907401 C25.439,10.4017401 25.082,9.92874013 25.131,9.41174013 C25.005,7.92374013 24.329,6.86274013 23.312,6.56574013 C22.484,6.32474013 21.592,6.65074013 21.041,7.39774013 C20.82,7.69574013 20.453,7.84774013 20.089,7.79274013 C19.723,7.73874013 19.417,7.48674013 19.294,7.13774013 C18.857,5.90474013 18.229,4.87074013 17.426,4.06474013 C16.446,3.08074013 13.754,0.968740125 9.962,2.57474013 C7.813,3.48474013 6.065,6.21174013 6.065,8.65474013 C6.065,8.93674013 6.083,9.21374013 6.115,9.48574013 L6.115,9.48574013 Z" id="Fill-7"></path>
        </g>
    </g>
</svg>