<?xml version="1.0" encoding="UTF-8"?>
<svg width="64px" height="64px" viewBox="0 0 64 64" version="1.1" xmlns="http://www.w3.org/2000/svg" xmlns:xlink="http://www.w3.org/1999/xlink">
    <title>Icon-Architecture/48/Arch_AWS-SimSpace-Weaver_48</title>
    <g id="Icon-Architecture/48/Arch_AWS-SimSpace-Weaver_48" stroke="none" stroke-width="1" fill="none" fill-rule="evenodd">
        <g id="Icon-Architecture-BG/48/Compute" fill="#ED7100">
            <rect id="Rectangle" x="0" y="0" width="64" height="64"></rect>
        </g>
        <path d="M48,47.028519 L48,41.262519 L52,38.906519 L52,44.790519 L48,47.028519 Z M51.314,52.130519 L40.427,52.130519 L39.211,47.130519 L42,47.130519 L42,47.127519 L46.504,49.597519 C46.657,49.685519 46.829,49.729519 47,49.729519 C47.173,49.729519 47.347,49.684519 47.502,49.594519 C47.525,49.581519 47.543,49.561519 47.565,49.546519 L47.572,49.559519 L49.389,48.542519 L51.314,52.130519 Z M14.717,48.575519 L16.504,49.597519 C16.657,49.685519 16.829,49.729519 17,49.729519 C17.173,49.729519 17.347,49.684519 17.502,49.594519 C17.525,49.581519 17.543,49.561519 17.565,49.546519 L17.572,49.559519 L22,47.082519 L22,47.130519 L24.679,47.130519 L23.386,52.130519 L12.725,52.130519 L14.717,48.575519 Z M12,38.910519 L16,41.131519 L16,47.005519 L12,44.716519 L12,38.910519 Z M17.112,34.820519 L21.06,37.155519 L17.13,39.470519 L13.047,37.204519 L17.112,34.820519 Z M24.204,31.480519 L28.164,33.646519 L27.005,38.130519 L24,38.130519 L24,37.366519 C24.015,37.298519 24.027,37.229519 24.027,37.158519 C24.027,36.804519 23.841,36.477519 23.536,36.297519 L21.97,35.370519 L24.204,31.480519 Z M32.002,12.133519 L39.902,16.291519 L32.138,20.560519 L24.114,16.403519 L32.002,12.133519 Z M42.26,35.329519 L40.493,36.364519 C40.216,36.527519 40.044,36.814519 40.012,37.130519 L40,37.130519 L40,37.231519 C40,37.234519 39.999,37.236519 39.999,37.239519 C39.999,37.241519 40,37.243519 40,37.246519 L40,38.130519 L37.022,38.130519 L35.926,33.621519 L40.1,31.379519 L42.26,35.329519 Z M42,40.130519 L42,38.927519 L46,41.147519 L46,47.005519 L42,44.716519 L42,40.130519 Z M31.521,35.481519 C31.67,35.563519 31.835,35.604519 32,35.604519 C32.177,35.604519 32.353,35.557519 32.51,35.464519 C32.524,35.456519 32.534,35.443519 32.547,35.435519 L34.105,34.598519 L34.964,38.130519 L29.07,38.130519 L29.973,34.635519 L31.521,35.481519 Z M33,32.922519 L33,22.368519 L41,17.970519 L41,28.626519 L33,32.922519 Z M23,28.542519 L23,18.078519 L31,22.223519 L31,32.917519 L23,28.542519 Z M24,40.130519 L26.488,40.130519 L25.196,45.130519 L24,45.130519 L24,40.130519 Z M18,41.279519 L22,38.923519 L22,44.790519 L18,47.028519 L18,41.279519 Z M37.152,47.130519 L38.368,52.130519 L25.451,52.130519 L26.744,47.130519 L37.152,47.130519 Z M27.261,45.130519 L28.553,40.130519 L35.45,40.130519 L36.666,45.130519 L27.261,45.130519 Z M40,45.130519 L38.724,45.130519 L37.508,40.130519 L40,40.130519 L40,45.130519 Z M47.082,34.820519 L51.03,37.155519 L47.101,39.470519 L43.017,37.203519 L47.082,34.820519 Z M54,45.377519 L54,37.130519 L53.993,37.130519 C53.983,36.787519 53.802,36.472519 53.506,36.297519 L47.593,32.799519 C47.281,32.613519 46.892,32.613519 46.578,32.797519 L43.977,34.322519 L41.86,30.434519 L42.473,30.105519 C42.798,29.931519 43,29.592519 43,29.224519 L43,16.362519 C43.003,16.328519 43.013,16.296519 43.013,16.262519 C43.012,16.232519 43.003,16.205519 43,16.175519 L43,16.130519 L42.993,16.130519 C42.948,15.816519 42.763,15.537519 42.479,15.387519 L32.461,10.115519 C32.166,9.95951899 31.813,9.96151899 31.52,10.121519 L21.502,15.543519 C21.268,15.669519 21.101,15.883519 21.026,16.130519 L21,16.130519 L21,16.257519 C20.99,16.314519 20.977,16.371519 20.978,16.431519 C20.978,16.484519 20.991,16.534519 21,16.585519 L21,29.135519 C21,29.501519 21.199,29.837519 21.521,30.012519 L22.447,30.519519 L20.23,34.341519 L17.623,32.799519 C17.311,32.613519 16.921,32.613519 16.608,32.797519 L10.523,36.364519 C10.246,36.527519 10.074,36.814519 10.043,37.130519 L10,37.130519 L10,45.297519 C10,45.655519 10.192,45.986519 10.504,46.165519 L12.981,47.582519 L10.151,52.632519 C9.979,52.939519 9.981,53.313519 10.155,53.618519 C10.33,53.923519 10.651,54.114519 11.003,54.121519 L52.696,54.130519 L52.988,54.130519 C53.34,54.129519 53.665,53.944519 53.845,53.642519 C54.025,53.340519 54.033,52.966519 53.867,52.656519 L51.135,47.566519 L53.488,46.249519 C53.805,46.072519 54,45.739519 54,45.377519 L54,45.377519 Z" id="Fill-1" fill="#FFFFFF"></path>
    </g>
</svg>