<?xml version="1.0" encoding="UTF-8"?>
<svg width="64px" height="64px" viewBox="0 0 64 64" version="1.1" xmlns="http://www.w3.org/2000/svg" xmlns:xlink="http://www.w3.org/1999/xlink">
    <title>Icon-Architecture/48/Arch_AWS-Compute-Optimizer_48</title>
    <g id="Icon-Architecture/48/Arch_AWS-Compute-Optimizer_48" stroke="none" stroke-width="1" fill="none" fill-rule="evenodd">
        <g id="Icon-Architecture-BG/48/Compute" fill="#ED7100">
            <rect id="Rectangle" x="0" y="0" width="64" height="64"></rect>
        </g>
        <g id="Icon-Service/48/AWS-Compute-Optimizer_48" transform="translate(10.000000, 10.000000)" fill="#FFFFFF">
            <path d="M25,26.5110037 C27.847,26.1100037 30,23.6400037 30,20.6460037 C30,17.6520037 27.847,15.1820037 25,14.7820037 L25,12.7760037 C28.963,13.1880037 32,16.5460037 32,20.6460037 C32,24.7460037 28.963,28.1040037 25,28.5160037 L25,26.5110037 Z M26.472,3.00000367 L25,3.00000367 L25,1.00000367 L27.529,1.00000367 C27.805,1.00000367 28.067,1.11300367 28.256,1.31300367 C28.445,1.51300367 28.543,1.78200367 28.527,2.05600367 L28.4,4.32900367 C29.703,4.69000367 30.951,5.20500367 32.13,5.86700367 L33.643,4.16700367 C33.826,3.96200367 34.085,3.84100367 34.36,3.83300367 C34.639,3.81600367 34.901,3.93100367 35.096,4.12400367 L40.341,9.35800367 C40.536,9.55300367 40.642,9.81900367 40.635,10.0940037 C40.627,10.3690037 40.507,10.6280037 40.302,10.8120037 L38.607,12.3270037 C39.271,13.5020037 39.79,14.7510037 40.156,16.0540037 L42.425,15.9220037 C42.694,15.9130037 42.968,16.0040037 43.168,16.1930037 C43.368,16.3820037 43.482,16.6440037 43.482,16.9200037 L43.491,24.3290037 C43.491,24.6040037 43.379,24.8680037 43.179,25.0570037 C42.979,25.2450037 42.707,25.3440037 42.436,25.3290037 L40.174,25.2020037 C39.736,26.7790037 39.073,28.2790037 38.197,29.6700037 L36.504,28.6040037 C37.41,27.1650037 38.058,25.5960037 38.43,23.9390037 C38.537,23.4610037 39.011,23.1410037 39.461,23.1590037 L41.49,23.2730037 L41.483,17.9800037 L39.448,18.0990037 C38.957,18.1200037 38.523,17.7990037 38.416,17.3220037 C38.038,15.6640037 37.387,14.0980037 36.48,12.6660037 C36.219,12.2530037 36.294,11.7120037 36.658,11.3860037 L38.179,10.0260037 L34.433,6.28800367 L33.075,7.81300367 C32.75,8.17800367 32.208,8.25400367 31.796,7.99400367 C30.36,7.09100367 28.793,6.44500367 27.137,6.07300367 C26.659,5.96600367 26.33,5.52900367 26.357,5.04100367 L26.472,3.00000367 Z M16.045,41.8600037 L14.035,40.6540037 L17.626,37.7810037 L16.376,36.2190037 L12.205,39.5560037 L7.001,36.4330037 L7.001,30.4990037 L10.601,27.8000037 L9.401,26.2000037 L5.85,28.8620037 L2.001,27.3230037 L2,22.5640037 L6.478,19.8550037 L5.442,18.1440037 L2,20.2260037 L2.001,17.5750037 L5.988,15.1750037 L10.001,17.5680037 L10.001,20.5000037 L6.401,23.2000037 L7.601,24.8000037 L10.907,22.3200037 L13.001,24.4140037 L13.001,26.0000037 L15.001,26.0000037 L15.001,24.0000037 C15.001,23.7350037 14.896,23.4800037 14.708,23.2930037 L12.001,20.5860037 L12.001,17.5660037 L16.516,14.8570037 C16.816,14.6770037 17.001,14.3510037 17.001,14.0000037 L17.001,9.01100367 L15.001,9.01100367 L15.001,13.4330037 L10.999,15.8350037 L7.001,13.4510037 L7.001,7.53500367 L11.001,4.86800367 L11.001,10.0000037 L13.001,10.0000037 L13.001,3.53500367 L15.104,2.13200367 L21.001,4.65900367 L21.001,20.0000037 L18.6,18.2000037 L17.4,19.8000037 L21.001,22.5000037 L21.001,24.5190037 L11.376,32.2190037 L12.626,33.7810037 L21.001,27.0800037 L21.001,39.3820037 L16.045,41.8600037 Z M15.395,0.0810036693 C15.085,-0.0519963307 14.729,-0.0199963307 14.446,0.168003669 L5.446,6.16800367 C5.168,6.35300367 5.001,6.66500367 5.001,7 L5.001,13.4340037 L0.485,16.1530037 C0.185,16.3340037 0.001,16.6590037 0.001,17.0100037 L3.55271368e-15,21.7580037 L0.001,28 C0.001,28.4090037 0.25,28.7770037 0.63,28.9290037 L5.001,30.6770037 L5.001,37 C5.001,37.3510037 5.186,37.6770037 5.486,37.8570037 L15.486,43.8570037 C15.645,43.9520037 15.822,44 16.001,44 C16.154,44 16.307,43.9650037 16.448,43.8940037 L22.448,40.8940037 C22.787,40.7250037 23.001,40.3790037 23.001,40 L23.001,4 C23.001,3.60000367 22.763,3.23800367 22.395,3.08100367 L15.395,0.0810036693 Z M28.449,40.0000037 C28.274,39.9990037 28.141,39.9730037 28.061,39.9220037 C27.563,39.6090037 26.971,39.0030037 26.971,37.9000037 C26.971,36.8120037 27.503,36.1240037 28.553,35.8540037 C29.016,35.7350037 29.33,35.3050037 29.302,34.8280037 L29.272,34.3480037 C29.272,33.1180037 30.144,31.7480037 31.214,31.2930037 C31.708,31.0830037 32.165,31.0000037 32.58,31.0000037 C33.761,31.0000037 34.597,31.6790037 34.962,32.0460037 C35.365,32.4520037 35.695,32.9990037 35.917,33.6290037 C36.04,33.9780037 36.347,34.2310037 36.713,34.2860037 C37.077,34.3410037 37.446,34.1880037 37.665,33.8900037 C37.915,33.5510037 38.307,33.4920037 38.581,33.5810037 C38.963,33.7070037 39.188,34.1270037 39.2,34.7390037 C39.152,35.2560037 39.51,35.7270037 40.026,35.8160037 C40.764,35.9430037 42.001,36.3860037 42.001,37.9260037 C42.001,39.6830037 40.468,39.9580037 40.077,40.0000037 L28.449,40.0000037 Z M39.205,31.6820037 C38.552,31.4670037 37.858,31.5050037 37.247,31.7630037 C36.999,31.3440037 36.71,30.9680037 36.38,30.6360037 C34.758,29.0030037 32.533,28.5600037 30.433,29.4530037 C28.694,30.1900037 27.368,32.1770037 27.279,34.1880037 C25.819,34.8470037 24.971,36.1860037 24.971,37.9000037 C24.971,40.0210037 26.237,41.1370037 26.991,41.6130037 C27.396,41.8690037 27.885,41.9990037 28.447,42.0000037 L40.124,42.0000037 C40.148,42.0000037 40.173,41.9990037 40.197,41.9970037 C41.513,41.9010037 44.001,40.9270037 44.001,37.9260037 C44.001,35.7500037 42.631,34.5350037 41.136,34.0380037 C40.895,32.7030037 40.025,31.9510037 39.205,31.6820037 Z" id="AWS-Compute-Optimizer_Icon_48_Squid"></path>
        </g>
    </g>
</svg>