<?xml version="1.0" encoding="UTF-8"?>
<svg width="64px" height="64px" viewBox="0 0 64 64" version="1.1" xmlns="http://www.w3.org/2000/svg" xmlns:xlink="http://www.w3.org/1999/xlink">
    <title>Icon-Architecture/48/Arch_AWS-Parallel-Cluster_48</title>
    <g id="Icon-Architecture/48/Arch_AWS-Parallel-Cluster_48" stroke="none" stroke-width="1" fill="none" fill-rule="evenodd">
        <g id="Icon-Architecture-BG/48/Compute" fill="#ED7100">
            <rect id="Rectangle" x="0" y="0" width="64" height="64"></rect>
        </g>
        <g id="Icon-Service/48/AWS-ParallelClusters_48" transform="translate(10.000000, 13.000000)" fill="#FFFFFF">
            <path d="M28.2981273,36 L34.2981273,36 L34.2981273,30 L28.2981273,30 L28.2981273,36 Z M36.2981273,29 L36.2981273,37 C36.2981273,37.552 35.8501273,38 35.2981273,38 L27.2981273,38 C26.7451273,38 26.2981273,37.552 26.2981273,37 L26.2981273,29 C26.2981273,28.448 26.7451273,28 27.2981273,28 L35.2981273,28 C35.8501273,28 36.2981273,28.448 36.2981273,29 L36.2981273,29 Z M40.2981273,23 L32.2981273,23 C31.7451273,23 31.2981273,23.448 31.2981273,24 L31.2981273,26 C31.2981273,26.552 31.7451273,27 32.2981273,27 C32.8501273,27 33.2981273,26.552 33.2981273,26 L33.2981273,25 L39.2981273,25 L39.2981273,31 L38.2981273,31 C37.7451273,31 37.2981273,31.448 37.2981273,32 C37.2981273,32.552 37.7451273,33 38.2981273,33 L40.2981273,33 C40.8501273,33 41.2981273,32.552 41.2981273,32 L41.2981273,24 C41.2981273,23.448 40.8501273,23 40.2981273,23 L40.2981273,23 Z M8.29812728,8 L14.2981273,8 L14.2981273,2 L8.29812728,2 L8.29812728,8 Z M6.29812728,9 L6.29812728,1 C6.29812728,0.448 6.74512728,0 7.29812728,0 L15.2981273,0 C15.8501273,0 16.2981273,0.448 16.2981273,1 L16.2981273,9 C16.2981273,9.552 15.8501273,10 15.2981273,10 L7.29812728,10 C6.74512728,10 6.29812728,9.552 6.29812728,9 L6.29812728,9 Z M2.29812728,15 L10.2981273,15 C10.8501273,15 11.2981273,14.552 11.2981273,14 L11.2981273,12 C11.2981273,11.448 10.8501273,11 10.2981273,11 C9.74512728,11 9.29812728,11.448 9.29812728,12 L9.29812728,13 L3.29812728,13 L3.29812728,7 L4.29812728,7 C4.85012728,7 5.29812728,6.552 5.29812728,6 C5.29812728,5.448 4.85012728,5 4.29812728,5 L2.29812728,5 C1.74512728,5 1.29812728,5.448 1.29812728,6 L1.29812728,14 C1.29812728,14.552 1.74512728,15 2.29812728,15 L2.29812728,15 Z M42.9381273,22.252 C42.7871273,22.784 42.2271273,23.09 41.7041273,22.941 C41.1731273,22.791 40.8641273,22.238 41.0141273,21.707 C41.6251273,19.555 41.2311273,17.195 39.9871273,15.549 C38.8281273,14.017 37.0521273,13.207 34.8471273,13.207 C29.1551273,13.207 25.9911273,16.357 22.8931273,19.937 C24.8321273,22.144 26.8801273,24.293 29.4071273,25.507 C29.9051273,25.747 30.1151273,26.344 29.8761273,26.842 C29.7041273,27.2 29.3461273,27.409 28.9731273,27.409 C28.8291273,27.409 28.6811273,27.377 28.5421273,27.31 C25.7541273,25.971 23.5961273,23.753 21.5791273,21.468 C18.4991273,25.056 15.2091273,28.582 9.54312728,28.582 C6.32912728,28.582 3.58312728,27.274 1.81012728,24.9 C0.118127275,22.633 -0.429872725,19.719 0.345127275,17.105 C0.502127275,16.577 1.05812728,16.274 1.58812728,16.43 C2.11712728,16.587 2.42012728,17.144 2.26212728,17.673 C1.67512728,19.656 2.11612728,21.966 3.41312728,23.704 C4.79912728,25.56 6.97512728,26.582 9.54312728,26.582 C14.4231273,26.582 17.2901273,23.403 20.2491273,19.946 C18.0191273,17.382 15.8721273,15.003 13.0831273,13.881 C12.5701273,13.675 12.3221273,13.093 12.5281273,12.581 C12.7351273,12.067 13.3221273,11.821 13.8291273,12.026 C16.9621273,13.286 19.3231273,15.843 21.5661273,18.415 C24.7031273,14.82 28.4351273,11.207 34.8471273,11.207 C37.6621273,11.207 40.0541273,12.32 41.5821273,14.343 C43.1961273,16.479 43.7171273,19.509 42.9381273,22.252 L42.9381273,22.252 Z" id="AWS-ParallelCluster_Icon_48_Squid"></path>
        </g>
    </g>
</svg>