<svg width="64" height="64" viewBox="0 0 64 64" fill="none" xmlns="http://www.w3.org/2000/svg">
<g clip-path="url(#clip0_1_284)">
<rect width="64" height="64" fill="white"/>
<rect width="64" height="64" fill="#ED7100"/>
<path d="M18.5 23C17.12 23 16 21.88 16 20.5C16 19.12 17.12 18 18.5 18C19.88 18 21 19.12 21 20.5C21 21.88 19.88 23 18.5 23ZM16.5 42C15.12 42 14 43.12 14 44.5C14 45.88 15.12 47 16.5 47C17.88 47 19 45.88 19 44.5C19 43.12 17.88 42 16.5 42ZM30 44.5C30 45.88 31.12 47 32.5 47C33.88 47 35 45.88 35 44.5C35 43.12 33.88 42 32.5 42C31.12 42 30 43.12 30 44.5ZM54 44.5C54 48.08 51.08 51 47.5 51C43.92 51 41 48.08 41 44.5C41 42.88 41.6 41.4 42.59 40.26L37.23 36.69L35.51 38.75C37.58 39.84 39 42.01 39 44.5C39 48.08 36.08 51 32.5 51C28.92 51 26 48.08 26 44.5C26 42.28 27.12 40.32 28.82 39.15L26.77 36.69L21.41 40.26C22.39 41.4 23 42.88 23 44.5C23 48.08 20.08 51 16.5 51C12.92 51 10 48.08 10 44.5C10 41.39 12.2 38.78 15.13 38.15L16.85 27.81C13.51 27.06 11 24.07 11 20.5C11 16.36 14.36 13 18.5 13C22.64 13 26 16.36 26 20.5C26 22.43 25.26 24.18 24.07 25.51L32 30.8L39.93 25.51C38.73 24.18 38 22.43 38 20.5C38 16.36 41.36 13 45.5 13C49.64 13 53 16.36 53 20.5C53 24.07 50.49 27.06 47.15 27.81L48.87 38.15C51.8 38.78 54 41.39 54 44.5ZM46.83 38.04L45.15 27.99C44.94 27.99 44.73 27.96 44.53 27.94L38.52 35.15L44.19 38.93C44.98 38.46 45.87 38.14 46.83 38.05V38.04ZM33.46 38.08L35.55 35.57L32 33.2L28.45 35.57L30.69 38.26C31.27 38.09 31.87 38 32.5 38C32.83 38 33.15 38.03 33.46 38.08ZM19.82 38.92L25.49 35.14L19.48 27.93C19.27 27.96 19.07 27.97 18.86 27.98L17.18 38.03C18.14 38.13 19.03 38.44 19.82 38.91V38.92ZM21.58 27.33L27.16 34.02L30.2 31.99L22.48 26.84C22.19 27.02 21.9 27.18 21.59 27.32L21.58 27.33ZM41.53 26.85L33.81 32L36.85 34.03L42.43 27.34C42.12 27.2 41.82 27.04 41.54 26.86L41.53 26.85ZM40 20.5C40 23.53 42.47 26 45.5 26C48.53 26 51 23.53 51 20.5C51 17.47 48.53 15 45.5 15C42.47 15 40 17.47 40 20.5ZM18.5 26C21.53 26 24 23.53 24 20.5C24 17.47 21.53 15 18.5 15C15.47 15 13 17.47 13 20.5C13 23.53 15.47 26 18.5 26ZM21 44.5C21 42.02 18.98 40 16.5 40C14.02 40 12 42.02 12 44.5C12 46.98 14.02 49 16.5 49C18.98 49 21 46.98 21 44.5ZM32.5 40C30.02 40 28 42.02 28 44.5C28 46.98 30.02 49 32.5 49C34.98 49 37 46.98 37 44.5C37 42.02 34.98 40 32.5 40ZM52 44.5C52 42.02 49.98 40 47.5 40C45.02 40 43 42.02 43 44.5C43 46.98 45.02 49 47.5 49C49.98 49 52 46.98 52 44.5Z" fill="white"/>
</g>
<defs>
<clipPath id="clip0_1_284">
<rect width="64" height="64" fill="white"/>
</clipPath>
</defs>
</svg>
