<?xml version="1.0" encoding="UTF-8"?>
<svg width="64px" height="64px" viewBox="0 0 64 64" version="1.1" xmlns="http://www.w3.org/2000/svg" xmlns:xlink="http://www.w3.org/1999/xlink">
    <title>Icon-Architecture/48/Arch_Amazon-Lightsail-for-Research_48</title>
    <g id="Icon-Architecture/48/Arch_Amazon-Lightsail-for-Research_48" stroke="none" stroke-width="1" fill="none" fill-rule="evenodd">
        <g id="Icon-Architecture-BG/48/Compute" fill="#ED7100">
            <rect id="Rectangle" x="0" y="0" width="64" height="64"></rect>
        </g>
        <path d="M35.9885064,26.0494792 C35.0105064,24.7054792 33.4845064,23.9924792 31.9375064,23.9924792 C30.9185064,23.9924792 29.8895064,24.3024792 29.0035064,24.9464792 C26.7735064,26.5684792 26.2795064,29.7014792 27.9005064,31.9304792 C29.5225064,34.1614792 32.6545064,34.6564792 34.8855064,33.0344792 C37.1155064,31.4124792 37.6095064,28.2784792 35.9885064,26.0494792 L35.9885064,26.0494792 Z M36.8235064,33.9984792 L40.6935064,39.3204792 L39.0765064,40.4964792 L35.2055064,35.1744792 C34.1795064,35.7164792 33.0645064,35.9874792 31.9545064,35.9874792 C29.7885064,35.9874792 27.6515064,34.9884792 26.2835064,33.1074792 C25.1835064,31.5954792 24.7385064,29.7454792 25.0305064,27.8984792 C25.3215064,26.0514792 26.3145064,24.4284792 27.8275064,23.3294792 C30.9515064,21.0594792 35.3375064,21.7534792 37.6055064,24.8724792 C39.6765064,27.7194792 39.2755064,31.6124792 36.8235064,33.9984792 L36.8235064,33.9984792 Z M50.0005064,49.9944792 L14.0005064,49.9944792 L14.0005064,51.3944792 C14.0005064,51.7374792 14.1985064,51.9944792 14.3765064,51.9944792 L49.9315064,51.9944792 C49.9135064,51.9944792 50.0005064,51.8004792 50.0005064,51.3944792 L50.0005064,49.9944792 Z M52.0005064,48.9944792 L52.0005064,51.3944792 C52.0005064,53.3134792 50.8855064,53.9944792 49.9315064,53.9944792 L14.3765064,53.9944792 C13.0655064,53.9944792 12.0005064,52.8274792 12.0005064,51.3944792 L12.0005064,48.9944792 C12.0005064,48.4424792 12.4475064,47.9944792 13.0005064,47.9944792 L16.0005064,47.9944792 L16.0005064,30.9944792 C16.0005064,29.8914792 16.8975064,28.9944792 18.0005064,28.9944792 L23.0005064,28.9944792 L23.0005064,30.9944792 L18.0005064,30.9944792 L18.0005064,47.9944792 L46.0005064,47.9944792 L46.0005064,30.9944792 L41.0005064,30.9944792 L41.0005064,28.9944792 L46.0005064,28.9944792 C47.1025064,28.9944792 48.0005064,29.8914792 48.0005064,30.9944792 L48.0005064,47.9944792 L51.0005064,47.9944792 C51.5525064,47.9944792 52.0005064,48.4424792 52.0005064,48.9944792 L52.0005064,48.9944792 Z M54.0005067,30.3044792 L53.9975064,30.7594792 C53.9975064,30.8634792 53.9765064,33.8304792 51.9825064,36.3494792 L50.4145064,35.1084792 C51.9645064,33.1504792 51.9975064,30.7604792 51.9975064,30.7364792 L52.0005064,30.3044792 C52.0015064,25.3544792 48.6315064,24.1924792 46.0965064,23.7484792 C46.0525064,23.7414792 46.0095064,23.7304792 45.9675064,23.7174792 L45.7015064,23.6334792 C45.2345064,23.4854792 44.9435064,23.0224792 45.0125064,22.5374792 C45.2865064,20.6374792 44.5285064,19.1424792 42.9845064,18.5364792 C41.7835064,18.0684792 40.0515064,18.1964792 39.0875064,19.5954792 C38.8725064,19.9054792 38.4985064,20.0714792 38.1295064,20.0174792 C37.7565064,19.9664792 37.4425064,19.7114792 37.3195064,19.3554792 C36.7085064,17.5944792 35.8255064,16.1164792 34.6935064,14.9614792 C33.3115064,13.5494792 29.5185064,10.5154792 24.1695064,12.8214792 C20.7655064,14.2894792 18.6505064,17.2074792 18.6505064,20.4374792 L18.7265064,22.8664792 C18.7405064,23.3324792 18.4305064,23.7474792 17.9785064,23.8644792 L17.7845064,23.9154792 C15.1605064,24.5954792 12.4475064,25.2994792 12.0095064,30.0024792 C11.9955064,30.1514792 11.9995064,30.6234792 12.0115064,30.9694792 L10.0135064,31.0444792 C10.0095064,30.9574792 9.98350638,30.1874792 10.0165064,29.8184792 C10.5465064,24.1444792 14.0675064,22.8424792 16.7025064,22.1324792 L16.6505064,20.4684792 C16.6505064,16.3964792 19.2285064,12.7744792 23.3775064,10.9844792 C27.8805064,9.04347922 32.6425064,10.0084792 36.1235064,13.5624792 C37.1325064,14.5934792 37.9705064,15.8294792 38.6265064,17.2494792 C40.0385064,16.2334792 41.9485064,15.9834792 43.7145064,16.6744792 C45.4405064,17.3514792 47.1315064,19.0634792 47.0705064,21.9024792 C51.6705064,22.9044792 54.0015064,25.7294792 54.0005067,30.3044792 L54.0005067,30.3044792 Z" id="Fill-4" fill="#FFFFFF"></path>
    </g>
</svg>