<?xml version="1.0" encoding="UTF-8"?>
<svg width="64px" height="64px" viewBox="0 0 64 64" version="1.1" xmlns="http://www.w3.org/2000/svg" xmlns:xlink="http://www.w3.org/1999/xlink">
    <title>Icon-Architecture/48/Arch_AWS-Outposts-family_48</title>
    <g id="Icon-Architecture/48/Arch_AWS-Outposts-family_48" stroke="none" stroke-width="1" fill="none" fill-rule="evenodd">
        <g id="Icon-Architecture-BG/48/Compute" fill="#ED7100">
            <rect id="Rectangle" x="0" y="0" width="64" height="64"></rect>
        </g>
        <path d="M30,52.0167644 L33,52.0167644 L33,47.0167644 L30,47.0167644 L30,52.0167644 Z M23,52.0167644 L28,52.0167644 L28,46.0167644 C28,45.4647644 28.447,45.0167644 29,45.0167644 L34,45.0167644 C34.553,45.0167644 35,45.4647644 35,46.0167644 L35,52.0167644 L40,52.0167644 L40,28.0167644 L23,28.0167644 L23,36.0167644 L23,38.0167644 L23,52.0167644 Z M54,52.0167644 L54,54.0167644 L10,54.0167644 L10,52.0167644 L21,52.0167644 L21,38.0167644 L17.765,38.0167644 C14.162,38.0167644 11.021,35.5837644 10.294,32.2327644 C10.244,31.9987644 10.204,31.7627644 10.174,31.5207644 C10.124,31.1117644 10.099,30.6867644 10.099,30.2577644 C10.099,25.3837644 13.09,23.3047644 15.231,22.4397644 L11.509,21.0807644 L12.194,19.2017644 L18.139,21.3717644 C18.657,21.5607644 18.925,22.1357644 18.735,22.6537644 L16.565,28.5987644 L14.687,27.9127644 L16.013,24.2797644 C14.242,24.9787644 12.099,26.5817644 12.099,30.2577644 C12.099,30.6067644 12.119,30.9497644 12.158,31.2767644 C12.181,31.4557644 12.211,31.6347644 12.249,31.8097644 C12.777,34.2467644 15.097,36.0167644 17.765,36.0167644 L21,36.0167644 L21,27.0167644 C21,26.4647644 21.447,26.0167644 22,26.0167644 L41,26.0167644 C41.553,26.0167644 42,26.4647644 42,27.0167644 L42,52.0167644 L54,52.0167644 Z M34,35.0167644 L36,35.0167644 C36.553,35.0167644 37,34.5687644 37,34.0167644 L37,32.0167644 C37,31.4647644 36.553,31.0167644 36,31.0167644 L34,31.0167644 C33.447,31.0167644 33,31.4647644 33,32.0167644 L33,34.0167644 C33,34.5687644 33.447,35.0167644 34,35.0167644 L34,35.0167644 Z M27,35.0167644 L29,35.0167644 C29.553,35.0167644 30,34.5687644 30,34.0167644 L30,32.0167644 C30,31.4647644 29.553,31.0167644 29,31.0167644 L27,31.0167644 C26.447,31.0167644 26,31.4647644 26,32.0167644 L26,34.0167644 C26,34.5687644 26.447,35.0167644 27,35.0167644 L27,35.0167644 Z M34,42.0167644 L36,42.0167644 C36.553,42.0167644 37,41.5687644 37,41.0167644 L37,39.0167644 C37,38.4647644 36.553,38.0167644 36,38.0167644 L34,38.0167644 C33.447,38.0167644 33,38.4647644 33,39.0167644 L33,41.0167644 C33,41.5687644 33.447,42.0167644 34,42.0167644 L34,42.0167644 Z M29,42.0167644 C29.553,42.0167644 30,41.5687644 30,41.0167644 L30,39.0167644 C30,38.4647644 29.553,38.0167644 29,38.0167644 L27,38.0167644 C26.447,38.0167644 26,38.4647644 26,39.0167644 L26,41.0167644 C26,41.5687644 26.447,42.0167644 27,42.0167644 L29,42.0167644 Z M18.012,19.5177644 L16.088,18.9677644 C17.073,15.5257644 19.508,12.6147644 22.442,11.3717644 C26.966,9.45576435 31.757,10.4077644 35.26,13.9207644 C36.279,14.9437644 37.126,16.1697644 37.786,17.5777644 C39.084,16.6107644 40.732,16.2837644 42.304,16.7427644 C44.545,17.3977644 46.058,19.4207644 46.436,22.2167644 C49.818,23.0527644 53.163,25.5987644 53.163,30.5027644 C53.163,35.6897644 49.598,37.9627644 46.859,38.6947644 L50.213,40.2957644 L49.352,42.1007644 L43.641,39.3747644 C43.143,39.1367644 42.931,38.5397644 43.169,38.0417644 L45.895,32.3307644 L47.699,33.1917644 L45.955,36.8457644 C47.545,36.4977644 51.163,35.1907644 51.163,30.5027644 C51.163,25.5627644 47.079,24.3277644 45.324,24.0257644 C44.797,23.9357644 44.437,23.4477644 44.5,22.9197644 C44.322,20.7047644 43.296,19.1167644 41.742,18.6627644 C40.458,18.2887644 39.082,18.7877644 38.233,19.9367644 C38.013,20.2337644 37.643,20.3887644 37.281,20.3307644 C36.915,20.2767644 36.609,20.0237644 36.485,19.6757644 C35.872,17.9377644 34.983,16.4767644 33.844,15.3327644 C32.448,13.9337644 28.623,10.9267644 23.222,13.2137644 C20.866,14.2107644 18.821,16.6857644 18.012,19.5177644 L18.012,19.5177644 Z" id="Fill-3" fill="#FFFFFF"></path>
    </g>
</svg>