<?xml version="1.0" encoding="UTF-8"?>
<svg width="90px" height="90px" viewBox="0 0 90 90" version="1.1" xmlns="http://www.w3.org/2000/svg" xmlns:xlink="http://www.w3.org/1999/xlink">
    <title>Icon-Architecture-Category/64/Business-Applications_64</title>
    <g id="Icon-Architecture-Category/64/Business-Applications_64" stroke="none" stroke-width="1" fill="none" fill-rule="evenodd">
        <rect id="Rectangle" fill="#DD344C" x="5" y="5" width="80" height="80"></rect>
        <rect id="#879196-Border-Copy-4" stroke="#879196" stroke-width="2" x="1" y="1" width="88" height="88"></rect>
        <g id="Icon-Category/64/Business-Application_64" transform="translate(17.000000, 17.000000)" fill="#FFFFFF">
            <path d="M48.5861893,54 L7.41418926,54 L3.41418926,50 L52.5861893,50 L48.5861893,54 Z M6.00018926,24.826 C6.00018926,23.819 6.81918926,23 7.82618926,23 L12.0001893,23 L12.0001893,48 L6.00018926,48 L6.00018926,24.826 Z M17.0001893,18 C17.5531893,18 18.0001893,17.552 18.0001893,17 L18.0001893,11 L23.0001893,11 L23.0001893,48 L14.0001893,48 L14.0001893,18 L17.0001893,18 Z M25.0001893,48 L31.0001893,48 L31.0001893,7 L25.0001893,7 L25.0001893,48 Z M38.0001893,11 L38.0001893,17 C38.0001893,17.552 38.4471893,18 39.0001893,18 L42.0001893,18 L42.0001893,48 L33.0001893,48 L33.0001893,11 L38.0001893,11 Z M48.1741893,23 C49.1811893,23 50.0001893,23.819 50.0001893,24.826 L50.0001893,48 L44.0001893,48 L44.0001893,23 L48.1741893,23 Z M55.9241893,48.617 C55.7701893,48.244 55.4041893,48 55.0001893,48 L52.0001893,48 L52.0001893,24.826 C52.0001893,22.716 50.2831893,21 48.1741893,21 L44.0001893,21 L44.0001893,17 C44.0001893,16.448 43.5531893,16 43.0001893,16 L40.0001893,16 L40.0001893,10 C40.0001893,9.448 39.5531893,9 39.0001893,9 L33.0001893,9 L33.0001893,6 C33.0001893,5.448 32.5531893,5 32.0001893,5 L29.0001893,5 L29.0001893,0 L27.0001893,0 L27.0001893,5 L24.0001893,5 C23.4471893,5 23.0001893,5.448 23.0001893,6 L23.0001893,9 L17.0001893,9 C16.4471893,9 16.0001893,9.448 16.0001893,10 L16.0001893,16 L13.0001893,16 C12.4471893,16 12.0001893,16.448 12.0001893,17 L12.0001893,21 L7.82618926,21 C5.71718926,21 4.00018926,22.716 4.00018926,24.826 L4.00018926,48 L1.00018926,48 C0.596189258,48 0.231189258,48.244 0.0761892576,48.617 C-0.0788107424,48.991 0.00718925757,49.421 0.293189258,49.707 L6.29318926,55.707 C6.48118926,55.895 6.73418926,56 7.00018926,56 L49.0001893,56 C49.2661893,56 49.5201893,55.895 49.7071893,55.707 L55.7071893,49.707 C55.9931893,49.421 56.0791893,48.991 55.9241893,48.617 L55.9241893,48.617 Z" id="Business-Application_Category-Icon_64_Squid--"></path>
        </g>
    </g>
</svg>