<?xml version="1.0" encoding="UTF-8"?>
<svg width="90px" height="90px" viewBox="0 0 90 90" version="1.1" xmlns="http://www.w3.org/2000/svg" xmlns:xlink="http://www.w3.org/1999/xlink">
    <title>Icon-Architecture-Category/64/Games_64</title>
    <g id="Icon-Architecture-Category/64/Games_64" stroke="none" stroke-width="1" fill="none" fill-rule="evenodd">
        <rect id="Rectangle" fill="#8C4FFF" x="5" y="5" width="80" height="80"></rect>
        <rect id="#879196-Border-Copy-11" stroke="#879196" stroke-width="2" x="1" y="1" width="88" height="88"></rect>
        <g id="Icon-Category/64/Games_64" transform="translate(17.000000, 26.000000)" fill="#FFFFFF">
            <path d="M46.001,16 C46.001,17.103 45.104,18 44.001,18 C42.898,18 42.001,17.103 42.001,16 C42.001,14.897 42.898,14 44.001,14 C45.104,14 46.001,14.897 46.001,16 L46.001,16 Z M41.997,7.999 C41.997,6.896 42.895,5.999 43.997,5.999 C45.1,5.999 45.996,6.896 45.996,7.999 C45.996,9.101 45.1,9.998 43.997,9.998 C42.895,9.998 41.997,9.101 41.997,7.999 L41.997,7.999 Z M46,11.998 C46,10.895 46.897,9.998 48,9.998 C49.103,9.998 50,10.895 50,11.998 C50,13.101 49.103,13.998 48,13.998 C46.897,13.998 46,13.101 46,11.998 L46,11.998 Z M37.999,12.002 C37.999,10.9 38.896,10.003 39.998,10.003 C41.101,10.003 41.997,10.9 41.997,12.002 C41.997,13.104 41.101,14.001 39.998,14.001 C38.896,14.001 37.999,13.104 37.999,12.002 L37.999,12.002 Z M10.999,13 L6.998,13 L6.998,11 L10.999,11 L10.999,6.999 L12.999,6.999 L12.999,11 L17,11 L17,13 L12.999,13 L12.999,17.001 L10.999,17.001 L10.999,13 Z M53.999,31.388 C53.919,36.842 49.383,37 48.866,37 C44.522,37 40.701,28.386 38.128,22.455 C39.865,23.435 41.866,24 43.999,24 C48.171,24 51.848,21.858 53.999,18.619 L53.999,31.388 Z M7.133,37 C6.616,37 2.08,36.842 2,31.4 L2,18.619 C4.151,21.858 7.828,24 12,24 C14.133,24 16.134,23.435 17.871,22.455 C15.298,28.386 11.478,37 7.133,37 L7.133,37 Z M12,2 C17.514,2 22,6.486 22,12 C22,17.514 17.514,22 12,22 C6.486,22 2,17.514 2,12 C2,6.486 6.486,2 12,2 L12,2 Z M33.622,17.999 L22.377,17.999 C23.403,16.232 24,14.186 24,12 C24,8.925 22.828,6.126 20.919,4 L35.08,4 C33.171,6.126 31.999,8.925 31.999,12 C31.999,14.186 32.596,16.232 33.622,17.999 L33.622,17.999 Z M53.999,12 C53.999,17.514 49.513,22 43.999,22 C38.485,22 33.999,17.514 33.999,12 C33.999,6.486 38.485,2 43.999,2 C49.513,2 53.999,6.486 53.999,12 L53.999,12 Z M55.974,11.5 C55.709,5.116 50.447,0 43.999,0 C41.553,0 39.279,0.739 37.38,2 L18.619,2 C16.72,0.739 14.446,0 12,0 C5.552,0 0.29,5.116 0.025,11.5 L-3.55271368e-15,11.5 L-3.55271368e-15,31.409 C0.024,34.035 1.546,39 7.133,39 C12.877,39 16.915,29.689 19.862,22.891 C20.318,21.842 20.742,20.865 21.14,19.999 L34.86,19.999 C35.257,20.865 35.681,21.842 36.137,22.891 C39.084,29.689 43.122,39 48.866,39 C54.453,39 55.975,34.035 55.999,31.4 L55.999,11.5 L55.974,11.5 Z" id="Fill-1"></path>
        </g>
    </g>
</svg>