<?xml version="1.0" encoding="UTF-8"?>
<svg width="90px" height="90px" viewBox="0 0 90 90" version="1.1" xmlns="http://www.w3.org/2000/svg" xmlns:xlink="http://www.w3.org/1999/xlink">
    <title>Icon-Architecture-Category/64/Application-Integration_64</title>
    <g id="Icon-Architecture-Category/64/Application-Integration_64" stroke="none" stroke-width="1" fill="none" fill-rule="evenodd">
        <rect id="Rectangle" fill="#E7157B" x="5" y="5" width="80" height="80"></rect>
        <rect id="#879196-Border" stroke="#879196" stroke-width="2" x="1" y="1" width="88" height="88"></rect>
        <g id="Icon-Category/64/Application-Integration_64" transform="translate(17.000000, 17.000000)" fill="#FFFFFF">
            <path d="M54,27 L45.385,27 C45.796,26.171 46.013,25.254 46.013,24.302 C46.013,22.255 44.996,20.353 43.293,19.213 C41.553,18.048 39.389,17.861 37.36,18.698 C35.992,19.261 34.878,20.371 34.303,21.741 C33.553,23.532 33.61,25.413 34.399,27 L28,27 L28,17.154 C28,16.746 27.751,16.378 27.372,16.226 C26.991,16.075 26.559,16.168 26.276,16.464 C25.319,17.467 23.564,18.232 21.514,17.373 C20.628,17.001 19.911,16.282 19.547,15.398 C18.968,13.995 19.088,12.516 19.875,11.339 C20.644,10.192 21.924,9.508 23.302,9.508 C24.431,9.508 25.486,9.964 26.276,10.792 C26.559,11.087 26.991,11.181 27.372,11.029 C27.751,10.877 28,10.51 28,10.101 L28,2 L53,2 C53.552,2 54,2.449 54,3 L54,27 Z M54,53 C54,53.551 53.552,54 53,54 L28,54 L28,45.479 C29.587,46.268 31.467,46.326 33.26,45.574 C34.629,45 35.738,43.887 36.303,42.518 C37.14,40.487 36.951,38.324 35.786,36.583 C34.646,34.881 32.745,33.865 30.698,33.865 C29.746,33.865 28.829,34.082 28,34.494 L28,29 L36.366,29 C36.775,29 37.143,28.751 37.295,28.372 C37.446,27.992 37.353,27.559 37.057,27.276 C36.054,26.32 35.288,24.566 36.147,22.514 C36.52,21.627 37.239,20.911 38.122,20.546 C39.525,19.97 41.004,20.088 42.181,20.875 C43.328,21.643 44.013,22.924 44.013,24.302 C44.013,25.431 43.557,26.487 42.729,27.276 C42.433,27.558 42.339,27.992 42.49,28.372 C42.643,28.751 43.01,29 43.419,29 L54,29 L54,53 Z M2,53 L2,29 L8.042,29 C7.253,30.587 7.196,32.469 7.946,34.26 C8.521,35.629 9.635,36.739 11.003,37.302 C11.84,37.647 12.699,37.819 13.543,37.819 C14.745,37.819 15.914,37.471 16.937,36.787 C18.64,35.647 19.656,33.745 19.656,31.698 C19.656,30.746 19.439,29.829 19.027,29 L26,29 L26,36.458 C26,36.867 26.249,37.235 26.628,37.387 C27.008,37.539 27.441,37.444 27.724,37.149 C28.514,36.321 29.57,35.865 30.698,35.865 C32.076,35.865 33.356,36.549 34.125,37.696 C34.912,38.873 35.032,40.352 34.453,41.755 C34.089,42.639 33.372,43.358 32.486,43.729 C30.433,44.589 28.68,43.824 27.724,42.821 C27.441,42.525 27.008,42.431 26.628,42.583 C26.249,42.735 26,43.103 26,43.511 L26,54 L3,54 C2.448,54 2,53.551 2,53 L2,53 Z M3,2 L26,2 L26,8.136 C25.171,7.725 24.254,7.508 23.302,7.508 C21.255,7.508 19.354,8.524 18.214,10.227 C17.049,11.967 16.86,14.13 17.697,16.161 C18.262,17.53 19.371,18.644 20.74,19.217 C22.532,19.967 24.412,19.91 26,19.122 L26,27 L17.062,27 C16.653,27 16.286,27.249 16.134,27.628 C15.982,28.008 16.076,28.441 16.372,28.724 C17.2,29.514 17.656,30.57 17.656,31.698 C17.656,33.076 16.972,34.357 15.824,35.125 C14.648,35.913 13.169,36.034 11.765,35.453 C10.882,35.089 10.162,34.373 9.791,33.487 C8.931,31.435 9.696,29.681 10.699,28.724 C10.995,28.441 11.089,28.007 10.937,27.628 C10.785,27.249 10.418,27 10.009,27 L2,27 L2,3 C2,2.449 2.448,2 3,2 L3,2 Z M53,0 L3,0 C1.346,0 0,1.346 0,3 L0,53 C0,54.654 1.346,56 3,56 L53,56 C54.654,56 56,54.654 56,53 L56,3 C56,1.346 54.654,0 53,0 L53,0 Z" id="Application-Integration_Category-Icon_64_Squid--"></path>
        </g>
    </g>
</svg>