<?xml version="1.0" encoding="UTF-8"?>
<svg width="90px" height="90px" viewBox="0 0 90 90" version="1.1" xmlns="http://www.w3.org/2000/svg" xmlns:xlink="http://www.w3.org/1999/xlink">
    <title>Icon-Architecture-Category/64/Internet-of-Things_64</title>
    <g id="Icon-Architecture-Category/64/Internet-of-Things_64" stroke="none" stroke-width="1" fill="none" fill-rule="evenodd">
        <rect id="Rectangle" fill="#7AA116" x="5" y="5" width="80" height="80"></rect>
        <rect id="#879196-Border-Copy-12" stroke="#879196" stroke-width="2" x="1" y="1" width="88" height="88"></rect>
        <g id="Icon-Category/64/IoT_64" transform="translate(17.000000, 17.000000)" fill="#FFFFFF">
            <path d="M47.571,34.048 C44.026,34.048 41.142,31.164 41.142,27.619 C41.142,24.074 44.026,21.191 47.571,21.191 C51.116,21.191 54,24.074 54,27.619 C54,31.164 51.116,34.048 47.571,34.048 M35,47.676 L35,29 L39.265,29 C39.905,32.853 43.159,35.823 47.14,36.026 C44.899,41.547 40.44,45.722 35,47.676 M29,48.865 L29,16.792 C32.87,16.332 35.942,13.244 36.373,9.365 C40.831,11.348 44.466,14.871 46.59,19.253 C42.606,19.717 39.468,22.968 39.174,27 L34,27 C33.447,27 33,27.448 33,28 L33,48.292 C31.706,48.613 30.366,48.8 29,48.865 M23,48.292 L23,28.119 C23,27.575 22.564,27.131 22.019,27.119 L16.827,27.016 C16.539,22.977 13.398,19.718 9.41,19.253 C11.534,14.871 15.169,11.348 19.627,9.365 C20.057,13.244 23.13,16.332 27,16.792 L27,48.865 C25.634,48.8 24.294,48.613 23,48.292 M8.859,36.026 C12.836,35.824 16.087,32.845 16.731,29 L21,29 L21,47.676 C15.559,45.722 11.1,41.547 8.859,36.026 M2,27.619 C2,24.074 4.883,21.191 8.428,21.191 C11.973,21.191 14.857,24.074 14.857,27.619 C14.857,31.164 11.973,34.048 8.428,34.048 C4.883,34.048 2,31.164 2,27.619 M28,2 C31.545,2 34.428,4.884 34.428,8.429 C34.428,11.973 31.545,14.857 28,14.857 C24.455,14.857 21.571,11.973 21.571,8.429 C21.571,4.884 24.455,2 28,2 M56,27.619 C56,23.393 52.87,19.894 48.808,19.292 C46.445,13.809 41.971,9.409 36.42,7.187 L36.352,7.355 C35.822,3.214 32.283,0 28,0 C23.717,0 20.177,3.214 19.647,7.355 L19.58,7.187 C14.028,9.409 9.554,13.809 7.191,19.292 C3.13,19.894 0,23.393 0,27.619 C0,31.66 2.86,35.044 6.662,35.859 C9.068,42.602 14.423,47.675 21,49.802 L21,56 L23,56 L23,50.34 C24.3,50.632 25.636,50.806 27,50.865 L27,56 L29,56 L29,50.865 C30.363,50.806 31.7,50.632 33,50.34 L33,56 L35,56 L35,49.802 C41.577,47.675 46.931,42.602 49.338,35.859 C53.139,35.044 56,31.66 56,27.619" id="IoT_Category-Icon_64_Squid--"></path>
        </g>
    </g>
</svg>