<?xml version="1.0" encoding="UTF-8"?>
<svg width="90px" height="90px" viewBox="0 0 90 90" version="1.1" xmlns="http://www.w3.org/2000/svg" xmlns:xlink="http://www.w3.org/1999/xlink">
    <title>Icon-Architecture-Category/64/Contact-Center_64</title>
    <g id="Icon-Architecture-Category/64/Contact-Center_64" stroke="none" stroke-width="1" fill="none" fill-rule="evenodd">
        <rect id="Rectangle" fill="#DD344C" x="5" y="5" width="80" height="80"></rect>
        <rect id="#879196-Border-Copy-5" stroke="#879196" stroke-width="2" x="1" y="1" width="88" height="88"></rect>
        <g id="Icon-Category/64/Contact-Center_64" transform="translate(19.000000, 16.880000)" fill="#FFFFFF">
            <path d="M2.64964243,54.091 C7.80164243,44.747 16.3506424,39.161 25.7896424,39.061 C30.8486424,39.002 35.8466424,40.596 40.2146424,43.656 C43.7686424,46.146 46.8946424,49.76 49.3216424,54.169 L2.64964243,54.091 Z M12.0516424,22.601 C12.0516424,14.983 18.2506424,8.785 25.8686424,8.785 C33.4866424,8.785 39.6836424,14.983 39.6836424,22.601 C39.6836424,25.215 38.9626424,27.7 37.6036424,29.879 C37.0026424,29.392 36.2476424,29.088 35.4156424,29.088 L31.6096424,29.088 C29.6796424,29.088 28.1096424,30.658 28.1096424,32.589 C28.1096424,33.983 28.9356424,35.18 30.1186424,35.742 C28.7536424,36.182 27.3236424,36.417 25.8686424,36.417 C18.2506424,36.417 12.0516424,30.219 12.0516424,22.601 L12.0516424,22.601 Z M9.98764243,28.088 L8.76264243,28.088 C6.68064243,28.088 4.98764243,26.53 4.98764243,24.615 L4.98764243,21.56 C4.98764243,19.646 6.68064243,18.088 8.76264243,18.088 L9.98764243,18.088 L9.98764243,28.088 Z M25.9436424,2 C34.6376424,2 42.1706424,7.988 44.0796424,16.157 C43.7956424,16.116 43.5076424,16.088 43.2126424,16.088 L40.9876424,16.088 C40.7526424,16.088 40.5456424,16.182 40.3746424,16.317 C37.9386424,10.716 32.3566424,6.785 25.8686424,6.785 C19.4276424,6.785 13.8846424,10.66 11.4196424,16.196 C11.2876424,16.131 11.1446424,16.088 10.9876424,16.088 L8.76264243,16.088 C8.43864243,16.088 8.12264243,16.12 7.81264243,16.169 C9.72564243,8.01 17.2926424,2 25.9436424,2 L25.9436424,2 Z M46.9876424,24.615 C46.9876424,26.53 45.2946424,28.088 43.2126424,28.088 L41.9876424,28.088 L41.9876424,18.088 L43.2126424,18.088 C45.2946424,18.088 46.9876424,19.646 46.9876424,21.56 L46.9876424,24.615 Z M40.6106424,33.088 L38.8646424,33.088 C38.8886424,32.924 38.9156424,32.76 38.9156424,32.589 C38.9156424,32.281 38.8626424,31.988 38.7876424,31.704 C39.2846424,31.003 39.7176424,30.27 40.0886424,29.511 C40.2486424,29.85 40.5876424,30.088 40.9876424,30.088 L43.2126424,30.088 C43.7446424,30.088 44.2586424,30.014 44.7486424,29.885 C44.0806424,31.523 42.7476424,33.088 40.6106424,33.088 L40.6106424,33.088 Z M35.4156424,34.088 L31.6096424,34.088 C30.7826424,34.088 30.1096424,33.415 30.1096424,32.589 C30.1096424,31.761 30.7826424,31.088 31.6096424,31.088 L35.4156424,31.088 C36.2426424,31.088 36.9156424,31.761 36.9156424,32.589 C36.9156424,33.415 36.2426424,34.088 35.4156424,34.088 L35.4156424,34.088 Z M51.8706424,54.727 C49.2036424,49.361 45.5706424,44.966 41.3636424,42.019 C38.1596424,39.775 34.6226424,38.283 30.9766424,37.564 C32.0706424,37.19 33.1246424,36.698 34.1186424,36.088 L35.4156424,36.088 C36.3656424,36.088 37.2256424,35.705 37.8576424,35.088 L40.6106424,35.088 C44.3166424,35.088 46.6726424,31.872 47.1756424,28.585 C48.2886424,27.587 48.9876424,26.179 48.9876424,24.615 L48.9876424,21.56 C48.9876424,19.604 47.8956424,17.89 46.2626424,16.922 C44.6346424,7.245 35.9926424,0 25.9436424,0 C15.9226424,0 7.20364243,7.294 5.60364243,16.985 C4.03064243,17.964 2.98764243,19.648 2.98764243,21.56 L2.98764243,24.615 C2.98764243,27.633 5.57864243,30.088 8.76264243,30.088 L10.9876424,30.088 C11.3036424,30.088 11.5726424,29.932 11.7566424,29.704 C13.6246424,33.4 16.8936424,36.265 20.8696424,37.595 C12.2016424,39.347 4.65164243,45.446 0.103642426,54.645 C-0.0493575744,54.955 -0.0323575744,55.321 0.150642426,55.615 C0.332642426,55.909 0.653642426,56.088 0.998642426,56.088 L50.9726424,56.172 L50.9746424,56.172 C51.3206424,56.172 51.6416424,55.993 51.8246424,55.699 C52.0066424,55.404 52.0246424,55.037 51.8706424,54.727 L51.8706424,54.727 Z" id="Fill-1"></path>
        </g>
    </g>
</svg>