<?xml version="1.0" encoding="UTF-8"?>
<svg width="90px" height="90px" viewBox="0 0 90 90" version="1.1" xmlns="http://www.w3.org/2000/svg" xmlns:xlink="http://www.w3.org/1999/xlink">
    <title>Icon-Architecture-Category/64/Developer-Tools_64</title>
    <g id="Icon-Architecture-Category/64/Developer-Tools_64" stroke="none" stroke-width="1" fill="none" fill-rule="evenodd">
        <rect id="Rectangle" fill="#C925D1" x="5" y="5" width="80" height="80"></rect>
        <rect id="#879196-Border-Copy-9" stroke="#879196" stroke-width="2" x="1" y="1" width="88" height="88"></rect>
        <g id="Icon-Category/64/Dev-Tools_64" transform="translate(17.000000, 17.000000)" fill="#FFFFFF">
            <path d="M53.9784817,47.9479241 C53.9784817,47.4979241 53.8034817,47.0759241 53.4854817,46.7589241 L32.8744817,26.1479241 C32.7454817,26.0189241 32.5754817,25.9539241 32.4044817,25.9539241 C32.2344817,25.9539241 32.0644817,26.0189241 31.9344817,26.1479241 L26.1484817,31.9349241 C25.8884817,32.1939241 25.8884817,32.6159241 26.1484817,32.8759241 L46.7574817,53.4849241 C47.3944817,54.1199241 48.4994817,54.1209241 49.1374817,53.4849241 L53.4854817,49.1379241 C53.8024817,48.8199241 53.9784817,48.3969241 53.9784817,47.9479241 L53.9784817,47.9479241 Z M26.2214817,29.0329241 L29.0334817,26.2209241 L16.7244817,13.8649241 C16.2594817,13.3979241 15.9084817,12.8199241 15.7074817,12.1939241 L13.9164817,6.61192407 C13.7294817,6.02792407 13.3024817,5.54892407 12.7454817,5.29592407 L6.61748166,2.51692407 C5.79748166,2.14492407 4.81948166,2.32292407 4.18248166,2.95992407 L2.95848166,4.18292407 C2.32348166,4.81892407 2.14548166,5.79692407 2.51748166,6.61692407 L5.29548166,12.7449241 C5.54848166,13.3029241 6.02848166,13.7299241 6.61148166,13.9179241 L13.1524817,16.0159241 L26.2214817,29.0329241 Z M55.9784817,47.9479241 C55.9784817,48.9309241 55.5944817,49.8559241 54.8994817,50.5519241 L50.5514817,54.8989241 C49.8334817,55.6169241 48.8904817,55.9759241 47.9484817,55.9759241 C47.0044817,55.9759241 46.0614817,55.6169241 45.3434817,54.8989241 L24.7344817,34.2899241 C23.6954817,33.2509241 23.6954817,31.5599241 24.7344817,30.5209241 L24.8064817,30.4479241 L12.0824817,17.7729241 L5.99948166,15.8219241 C4.87948166,15.4619241 3.95948166,14.6419241 3.47348166,13.5719241 L0.695481659,7.44292407 C-0.0185183406,5.86892407 0.323481659,3.98992407 1.54448166,2.76892407 L2.76848166,1.54592407 C3.99248166,0.322924067 5.87348166,-0.0160759326 7.44348166,0.695924067 L13.5714817,3.47392407 C14.6424817,3.95992407 15.4614817,4.88092407 15.8214817,6.00092407 L17.6124817,11.5829241 C17.7164817,11.9089241 17.9004817,12.2099241 18.1424817,12.4529241 L30.4474817,24.8069241 L30.5204817,24.7339241 C31.5594817,23.6959241 33.2494817,23.6939241 34.2894817,24.7339241 L54.8994817,45.3439241 C55.5944817,46.0389241 55.9784817,46.9639241 55.9784817,47.9479241 L55.9784817,47.9479241 Z M29.1664817,19.7489241 L36.6034817,12.3119241 C36.8224817,12.0939241 36.9274817,11.7859241 36.8884817,11.4789241 C36.5554817,8.86692407 37.4264817,6.30792407 39.2774817,4.45692407 C41.4404817,2.29292407 44.5884817,1.50492407 47.4824817,2.30592407 L42.3034817,7.48392407 C41.5214817,8.26592407 41.0904817,9.30492407 41.0904817,10.4109241 C41.0904817,11.5169241 41.5214817,12.5569241 42.3034817,13.3389241 C43.0854817,14.1209241 44.1244817,14.5519241 45.2314817,14.5519241 C46.3364817,14.5519241 47.3764817,14.1209241 48.1584817,13.3389241 L53.3364817,8.16092407 C54.1374817,11.0479241 53.3484817,14.2009241 51.1854817,16.3649241 C49.3334817,18.2159241 46.7764817,19.0869241 44.1634817,18.7549241 C43.8544817,18.7129241 43.5474817,18.8209241 43.3304817,19.0399241 L37.6014817,24.7679241 L39.0154817,26.1819241 L44.4084817,20.7899241 C47.4624817,21.0369241 50.4254817,19.9529241 52.5994817,17.7799241 C55.7104817,14.6679241 56.5254817,9.90492407 54.6274817,5.92692407 C54.4884817,5.63392407 54.2144817,5.42692407 53.8944817,5.37192407 C53.5804817,5.31692407 53.2494817,5.42092407 53.0184817,5.65092407 L46.7444817,11.9249241 C45.9354817,12.7329241 44.5264817,12.7329241 43.7174817,11.9249241 C43.3134817,11.5199241 43.0904817,10.9829241 43.0904817,10.4109241 C43.0904817,9.83992407 43.3134817,9.30192407 43.7174817,8.89792407 L49.9924817,2.62392407 C50.2214817,2.39492407 50.3264817,2.06792407 50.2704817,1.74792407 C50.2154817,1.42792407 50.0084817,1.15492407 49.7154817,1.01492407 C45.7364817,-0.884075933 40.9744817,-0.0680759326 37.8634817,3.04292407 C35.6894817,5.21692407 34.6074817,8.17792407 34.8524817,11.2349241 L27.7514817,18.3349241 L29.1664817,19.7489241 Z M26.1824817,39.0159241 L20.7904817,44.4079241 C21.0354817,47.4639241 19.9534817,50.4259241 17.7794817,52.5999241 C15.7874817,54.5919241 13.1174817,55.6419241 10.4114817,55.6419241 C8.88948166,55.6419241 7.35848166,55.3109241 5.92648166,54.6279241 C5.63348166,54.4889241 5.42648166,54.2149241 5.37248166,53.8949241 C5.31648166,53.5749241 5.42048166,53.2479241 5.65048166,53.0189241 L11.9244817,46.7449241 C12.7584817,45.9099241 12.7584817,44.5519241 11.9244817,43.7179241 C11.0904817,42.8839241 9.73148166,42.8839241 8.89748166,43.7179241 L2.62448166,49.9919241 C2.39348166,50.2219241 2.05948166,50.3239241 1.74848166,50.2699241 C1.42748166,50.2159241 1.15448166,50.0089241 1.01448166,49.7159241 C-0.883518341,45.7369241 -0.0685183406,40.9739241 3.04248166,37.8639241 C5.21648166,35.6899241 8.17948166,34.6089241 11.2334817,34.8529241 L18.8764817,27.2099241 L20.2904817,28.6239241 L12.3114817,36.6029241 C12.0924817,36.8219241 11.7814817,36.9249241 11.4784817,36.8879241 C8.86448166,36.5519241 6.30748166,37.4269241 4.45748166,39.2779241 C2.29248166,41.4409241 1.50448166,44.5939241 2.30548166,47.4819241 L7.48348166,42.3039241 C9.09848166,40.6899241 11.7234817,40.6899241 13.3384817,42.3039241 C14.9524817,43.9179241 14.9524817,46.5449241 13.3384817,48.1589241 L8.16148166,53.3369241 C11.0454817,54.1389241 14.2014817,53.3499241 16.3654817,51.1859241 C18.2154817,49.3349241 19.0864817,46.7749241 18.7534817,44.1639241 C18.7144817,43.8569241 18.8204817,43.5499241 19.0394817,43.3309241 L24.7684817,37.6019241 L26.1824817,39.0159241 Z" id="Dev-Tools_Category-Icon_64_Squid--"></path>
        </g>
    </g>
</svg>