<?xml version="1.0" encoding="UTF-8"?>
<svg width="90px" height="90px" viewBox="0 0 90 90" version="1.1" xmlns="http://www.w3.org/2000/svg" xmlns:xlink="http://www.w3.org/1999/xlink">
    <title>Icon-Architecture-Category/64/Networking-Content-Delivery_64</title>
    <g id="Icon-Architecture-Category/64/Networking-Content-Delivery_64" stroke="none" stroke-width="1" fill="none" fill-rule="evenodd">
        <rect id="Rectangle" fill="#8C4FFF" x="5" y="5" width="80" height="80"></rect>
        <rect id="#879196-Border-Copy-18" stroke="#879196" stroke-width="2" x="1" y="1" width="88" height="88"></rect>
        <g id="Icon-Category/64/Networking-Content-Delivery_64" transform="translate(19.000000, 17.000000)" fill="#FFFFFF">
            <path d="M2,24.23 C2.002,23.915 2.156,16.516 11.162,16.516 C11.715,16.516 12.162,16.068 12.162,15.516 C12.162,2.214 22.345,2.002 22.775,2 C28.081,2 31.126,4.256 32.359,9.102 C32.435,9.397 32.64,9.643 32.918,9.768 C33.196,9.893 33.517,9.883 33.787,9.744 C35.283,8.971 36.616,9.81 37.279,10.377 C38.811,11.687 40.021,14.331 39.247,16.651 C39.145,16.957 39.196,17.292 39.384,17.552 C39.572,17.813 39.874,17.968 40.195,17.968 C46.932,17.968 50,21.358 50,24.509 C50,29.09 47.355,31.937 43.099,31.937 L9.71,31.937 C5.314,31.937 2,28.622 2,24.23 L2,24.23 Z M44.313,45.437 C44.313,47.366 42.742,48.937 40.813,48.937 C38.883,48.937 37.313,47.366 37.313,45.437 C37.313,43.507 38.883,41.937 40.813,41.937 C42.742,41.937 44.313,43.507 44.313,45.437 L44.313,45.437 Z M29.812,50.437 C29.812,52.366 28.242,53.937 26.312,53.937 C24.383,53.937 22.812,52.366 22.812,50.437 C22.812,48.507 24.383,46.937 26.312,46.937 C28.242,46.937 29.812,48.507 29.812,50.437 L29.812,50.437 Z M11.813,48.937 C9.883,48.937 8.312,47.366 8.312,45.437 C8.312,43.507 9.883,41.937 11.813,41.937 C13.742,41.937 15.313,43.507 15.313,45.437 C15.313,47.366 13.742,48.937 11.813,48.937 L11.813,48.937 Z M43.099,33.937 C48.506,33.937 52,30.236 52,24.509 C52,20.611 48.684,16.431 41.434,16.003 C41.784,13.209 40.381,10.398 38.58,8.857 C37.153,7.636 35.531,7.187 33.989,7.549 C32.34,2.538 28.572,0 22.775,0 C22.652,0 10.696,0.169 10.18,14.542 C0.119,15.095 0,24.132 0,24.227 C0,29.762 4.175,33.937 9.71,33.937 L22.192,33.937 L14.517,40.653 C13.717,40.199 12.795,39.937 11.813,39.937 C8.78,39.937 6.312,42.404 6.312,45.437 C6.312,48.469 8.78,50.937 11.813,50.937 C14.845,50.937 17.313,48.469 17.313,45.437 C17.313,44.116 16.844,42.903 16.065,41.954 L25.312,33.937 L25.312,45.032 C22.757,45.504 20.812,47.746 20.812,50.437 C20.812,53.469 23.28,55.937 26.312,55.937 C29.345,55.937 31.812,53.469 31.812,50.437 C31.812,47.746 29.868,45.504 27.312,45.032 L27.312,33.937 L36.56,41.954 C35.781,42.903 35.313,44.116 35.313,45.437 C35.313,48.469 37.78,50.937 40.813,50.937 C43.845,50.937 46.313,48.469 46.313,45.437 C46.313,42.404 43.845,39.937 40.813,39.937 C39.83,39.937 38.908,40.199 38.108,40.653 L30.433,33.937 L43.099,33.937 Z" id="Networking-Content-Delivery_Category-Icon_64_Squid"></path>
        </g>
    </g>
</svg>