<?xml version="1.0" encoding="UTF-8"?>
<svg width="90px" height="90px" viewBox="0 0 90 90" version="1.1" xmlns="http://www.w3.org/2000/svg" xmlns:xlink="http://www.w3.org/1999/xlink">
    <title>Icon-Architecture-Category/64/Media-Services_64</title>
    <g id="Icon-Architecture-Category/64/Media-Services_64" stroke="none" stroke-width="1" fill="none" fill-rule="evenodd">
        <rect id="Rectangle" fill="#ED7100" x="5" y="5" width="80" height="80"></rect>
        <rect id="#879196-Border-Copy-15" stroke="#879196" stroke-width="2" x="1" y="1" width="88" height="88"></rect>
        <g id="Icon-Category/64/Media-Services_64" transform="translate(17.000000, 23.000000)" fill="#FFFFFF">
            <path d="M28.875,21.854 L14.613,30.431 C14.439,30.545 14.285,30.491 14.208,30.451 C14.131,30.409 14,30.308 14,30.103 L14,12.999 C14,12.793 14.131,12.692 14.209,12.65 C14.248,12.629 14.309,12.605 14.386,12.605 C14.46,12.605 14.55,12.627 14.652,12.695 L28.836,21.222 C28.989,21.324 29.012,21.472 29.012,21.551 C29.012,21.629 28.989,21.777 28.875,21.854 L28.875,21.854 Z M29.906,19.533 L15.723,11.006 C14.986,10.516 14.046,10.469 13.265,10.887 C12.484,11.305 12,12.114 12,12.999 L12,30.103 C12,30.987 12.484,31.796 13.265,32.214 C13.624,32.406 14.018,32.5 14.405,32.5 C14.86,32.5 15.308,32.371 15.684,32.12 L29.945,23.543 C30.613,23.098 31.012,22.354 31.012,21.551 C31.012,20.749 30.613,20.003 29.906,19.533 L29.906,19.533 Z M54,33.605 C54,33.823 53.823,34 53.605,34 L50,34 L50,10 L53.605,10 C53.823,10 54,10.176 54,10.394 L54,33.605 Z M43.535,26 L38,26 L38,40.21 C38,41.197 37.163,42 36.135,42 L3.865,42 C2.837,42 2,41.197 2,40.21 L2,3.789 C2,2.802 2.837,2 3.865,2 L36.135,2 C37.163,2 38,2.802 38,3.789 L38,18 L43.535,18 L48,11.302 L48,32.697 L43.535,26 Z M53.605,8 L50,8 L48,8 L47.798,8 L42.465,16 L40,16 L40,3.789 C40,1.7 38.266,0 36.135,0 L3.865,0 C1.734,0 0,1.7 0,3.789 L0,40.21 C0,42.299 1.734,44 3.865,44 L36.135,44 C38.266,44 40,42.299 40,40.21 L40,28 L42.465,28 L47.798,36 L53.605,36 C54.926,36 56,34.925 56,33.605 L56,10.394 C56,9.074 54.926,8 53.605,8 L53.605,8 Z" id="Media-Services_Category-Icon_64_Squid"></path>
        </g>
    </g>
</svg>