<?xml version="1.0" encoding="UTF-8"?>
<svg width="90px" height="90px" viewBox="0 0 90 90" version="1.1" xmlns="http://www.w3.org/2000/svg" xmlns:xlink="http://www.w3.org/1999/xlink">
    <title>Icon-Architecture-Category/64/Satellite_64</title>
    <g id="Icon-Architecture-Category/64/Satellite_64" stroke="none" stroke-width="1" fill="none" fill-rule="evenodd">
        <rect id="Rectangle" fill="#C925D1" x="5" y="5" width="80" height="80"></rect>
        <rect id="#879196-Border-Copy-21" stroke="#879196" stroke-width="2" x="1" y="1" width="88" height="88"></rect>
        <g id="Icon-Category/64/Satellite_64" transform="translate(18.000000, 22.000000)" fill="#FFFFFF">
            <path d="M43.7056962,25.9847954 C40.7676962,27.7727954 37.1876962,29.5077954 33.1466962,31.0587954 C25.6556962,33.9337954 17.0216962,35.8917954 10.4276962,36.0007954 C13.6316962,41.0517954 19.2586962,44.4217954 25.6706962,44.4217954 C35.6256962,44.4217954 43.7256962,36.3227954 43.7256962,26.3677954 C43.7256962,26.2377954 43.7086962,26.1127954 43.7056962,25.9847954 M7.08969622,33.8767954 C6.14669622,31.5547954 5.61669622,29.0237954 5.61669622,26.3677954 C5.61669622,26.2337954 5.63469622,26.1037954 5.63769622,25.9707954 C3.41169622,27.8187954 2.10169622,29.5587954 2.00569622,30.8757954 C1.96469622,31.4377954 2.14869622,31.8967954 2.58869622,32.3187954 C3.41069622,33.1097954 4.97069622,33.6367954 7.08969622,33.8767954 M7.61669622,26.3677954 C7.61669622,29.1047954 8.24669622,31.6907954 9.34169622,34.0177954 C15.0436962,34.1267954 23.4446962,32.6407954 32.4306962,29.1917954 C37.0326962,27.4257954 40.7086962,25.5487954 43.5136962,23.7507954 C42.2386962,15.0337954 34.7336962,8.3127954 25.6706962,8.3127954 C15.7156962,8.3127954 7.61669622,16.4117954 7.61669622,26.3677954 M47.2686962,11.0467954 C47.2686962,10.2197954 46.5956962,9.5467954 45.7686962,9.5467954 C44.9406962,9.5467954 44.2676962,10.2197954 44.2676962,11.0467954 C44.2676962,11.8737954 44.9406962,12.5467954 45.7686962,12.5467954 C46.5956962,12.5467954 47.2686962,11.8737954 47.2686962,11.0467954 M51.0346962,13.7067954 C52.0796962,14.7197954 52.4576962,15.9567954 52.1766962,17.3257954 C51.7106962,19.5887954 49.3516962,22.1797954 45.6426962,24.7277954 C45.6856962,25.2697954 45.7256962,25.8137954 45.7256962,26.3677954 C45.7256962,37.4257954 36.7286962,46.4217954 25.6706962,46.4217954 C18.0866962,46.4217954 11.4746962,42.1887954 8.06669622,35.9617954 C5.01569622,35.7757954 2.58369622,35.0877954 1.20269622,33.7607954 C0.338696222,32.9297954 -0.0733037785,31.8807954 0.0106962215,30.7297954 C0.215696222,27.9377954 3.26169622,25.1467954 5.88669622,23.2387954 C7.39569622,13.6657954 15.6796962,6.3127954 25.6706962,6.3127954 C35.4076962,6.3127954 43.5386962,13.2907954 45.3446962,22.5067954 C48.3116962,20.3337954 49.9236962,18.3507954 50.2166962,16.9227954 C50.3596962,16.2267954 50.1916962,15.6737954 49.6886962,15.1847954 C49.0856962,14.6717954 48.3436962,14.2817954 47.5406962,14.0467954 C47.0186962,14.3567954 46.4176962,14.5467954 45.7686962,14.5467954 C43.8386962,14.5467954 42.2686962,12.9767954 42.2686962,11.0467954 C42.2686962,9.1167954 43.8386962,7.5467954 45.7686962,7.5467954 C47.6976962,7.5467954 49.2676962,9.1167954 49.2676962,11.0467954 C49.2676962,11.5457954 49.1596962,12.0177954 48.9716962,12.4467954 C49.7146962,12.7627954 50.4156962,13.1787954 51.0346962,13.7067954 M44.1916962,5.7487954 C45.4116962,5.3387954 46.7176962,5.4227954 47.8716962,5.9937954 C48.8136962,6.4597954 49.5906962,7.2347954 50.0566962,8.1777954 L51.8496962,7.2917954 C51.1886962,5.9577954 50.0916962,4.8597954 48.7586962,4.2007954 C47.1256962,3.3937954 45.2766962,3.2707954 43.5516962,3.8547954 C41.8256962,4.4387954 40.4326962,5.6587954 39.6256962,7.2917954 L41.4186962,8.1777954 C41.9886962,7.0247954 42.9736962,6.1617954 44.1916962,5.7487954 M54.8946962,5.6757954 L53.1036962,6.5657954 C52.3096962,4.9677954 50.9936962,3.6517954 49.3966962,2.8587954 C45.3376962,0.840795396 40.3896962,2.5027954 38.3696962,6.5657954 L36.5786962,5.6757954 C39.0876962,0.624795396 45.2366962,-1.4422046 50.2876962,1.0677954 C52.2716962,2.0537954 53.9086962,3.6907954 54.8946962,5.6757954" id="Satellite_Category-Icon_64_Squid"></path>
        </g>
    </g>
</svg>