<?xml version="1.0" encoding="UTF-8"?>
<svg width="90px" height="90px" viewBox="0 0 90 90" version="1.1" xmlns="http://www.w3.org/2000/svg" xmlns:xlink="http://www.w3.org/1999/xlink">
    <title>Icon-Architecture-Category/64/Robotics_64</title>
    <g id="Icon-Architecture-Category/64/Robotics_64" stroke="none" stroke-width="1" fill="none" fill-rule="evenodd">
        <rect id="Rectangle" fill="#DD344C" x="5" y="5" width="80" height="80"></rect>
        <rect id="#879196-Border-Copy-20" stroke="#879196" stroke-width="2" x="1" y="1" width="88" height="88"></rect>
        <g id="Icon-Category/64/Robotics_64" transform="translate(17.000000, 17.000000)" fill="#FFFFFF">
            <path d="M16.85,6.628 L15.434,5.215 C18.787,1.856 23.249,0.003 27.996,0 L28.01,0 C32.751,0 37.209,1.844 40.565,5.195 L39.153,6.61 C36.174,3.637 32.217,2 28.01,2 L27.997,2 C23.785,2.003 19.826,3.647 16.85,6.628 L16.85,6.628 Z M37.175,8.848 L35.761,10.262 C31.482,5.983 24.519,5.983 20.24,10.262 L18.826,8.848 C23.884,3.789 32.117,3.789 37.175,8.848 L37.175,8.848 Z M54,49.376 L52,50.889 L52,39.472 L54,41.025 L54,49.376 Z M10,36.336 C10,26.074 17.739,18.336 28,18.336 C38.262,18.336 46,26.074 46,36.336 L46,53.5 L10,53.5 L10,36.336 Z M6,53.5 L8,53.5 L8,36.5 L6,36.5 L6,53.5 Z M2,49.376 L2,41.025 L4,39.472 L4,50.889 L2,49.376 Z M26,14.024 C26,13.184 26.684,12.5 27.524,12.5 L28.477,12.5 C29.317,12.5 30,13.184 30,14.024 L30,16.431 C29.344,16.371 28.678,16.336 28,16.336 C27.323,16.336 26.657,16.371 26,16.431 L26,14.024 Z M48,53.5 L50,53.5 L50,36.5 L48,36.5 L48,53.5 Z M55.614,39.746 L52,36.94 L52,35.5 C52,34.948 51.553,34.5 51,34.5 L47.913,34.5 C47.155,25.365 40.773,18.353 32,16.709 L32,14.024 C32,12.081 30.419,10.5 28.477,10.5 L27.524,10.5 C25.581,10.5 24,12.081 24,14.024 L24,16.709 C15.228,18.353 8.846,25.365 8.087,34.5 L5,34.5 C4.448,34.5 4,34.948 4,35.5 L4,36.94 L0.387,39.746 C0.143,39.935 0,40.227 0,40.536 L0,49.874 C0,50.187 0.147,50.482 0.397,50.671 L4,53.398 L4,53.5 L4,54.5 L4,55.5 L52,55.5 L52,54.5 L52,53.5 L52,53.398 L55.604,50.671 C55.854,50.482 56,50.187 56,49.874 L56,40.536 C56,40.227 55.858,39.935 55.614,39.746 L55.614,39.746 Z M37.224,39.165 C36.093,39.604 34.906,39.42 34.042,38.676 C33.185,37.936 32.826,36.819 33.081,35.689 C33.325,34.616 34.208,33.73 35.281,33.485 C35.525,33.429 35.768,33.402 36.006,33.402 C36.685,33.402 37.329,33.625 37.869,34.055 C38.588,34.629 39,35.484 39,36.413 C38.998,37.649 38.285,38.754 37.224,39.165 L37.224,39.165 Z M39.116,32.492 C37.917,31.536 36.358,31.189 34.835,31.535 C33,31.954 31.546,33.411 31.13,35.247 C30.715,37.084 31.33,38.978 32.736,40.191 C33.663,40.99 34.806,41.403 35.994,41.403 C36.64,41.403 37.301,41.28 37.947,41.03 C39.77,40.324 40.996,38.47 41,36.403 C41,34.873 40.314,33.447 39.116,32.492 L39.116,32.492 Z M21.224,39.165 C20.094,39.604 18.906,39.42 18.042,38.676 C17.185,37.936 16.826,36.819 17.081,35.689 C17.325,34.616 18.208,33.73 19.281,33.485 C19.525,33.429 19.768,33.402 20.006,33.402 C20.685,33.402 21.329,33.625 21.869,34.055 C22.588,34.629 23,35.484 23,36.413 C22.998,37.649 22.285,38.754 21.224,39.165 L21.224,39.165 Z M23.116,32.492 C21.917,31.536 20.358,31.189 18.835,31.535 C17,31.954 15.546,33.411 15.13,35.247 C14.715,37.084 15.33,38.978 16.736,40.191 C17.663,40.99 18.806,41.403 19.994,41.403 C20.64,41.403 21.301,41.28 21.947,41.03 C23.77,40.324 24.996,38.47 25,36.403 C25,34.873 24.314,33.447 23.116,32.492 L23.116,32.492 Z" id="Robotics_Category-Icon_64_Squid"></path>
        </g>
    </g>
</svg>