<?xml version="1.0" encoding="UTF-8"?>
<svg width="90px" height="90px" viewBox="0 0 90 90" version="1.1" xmlns="http://www.w3.org/2000/svg" xmlns:xlink="http://www.w3.org/1999/xlink">
    <title>Icon-Architecture-Category/64/Blockchain_64</title>
    <g id="Icon-Architecture-Category/64/Blockchain_64" stroke="none" stroke-width="1" fill="none" fill-rule="evenodd">
        <rect id="Rectangle" fill="#ED7100" x="5" y="5" width="80" height="80"></rect>
        <rect id="#879196-Border-Copy-3" stroke="#879196" stroke-width="2" x="1" y="1" width="88" height="88"></rect>
        <g id="Icon-Category/64/Blockchain_64" transform="translate(18.000000, 37.000000)" fill="#FFFFFF">
            <path d="M53,15 L40.649,15 C40.49,15 40.157,14.867 40,14.752 L40,10 L34,10 L34,15 L21.649,15 C21.49,15 21.157,14.867 21,14.752 L21,10 L15,10 L15,14.752 C14.843,14.867 14.51,15 14.351,15 L2,15 L2,2 L14.443,2 C14.562,2 14.895,2.102 15,2.194 L15,7 L21,7 L21,2.194 C21.105,2.102 21.438,2 21.557,2 L34,2 L34,7 L40,7 L40,2.194 C40.105,2.102 40.382,2 40.5,2 L53,2 L53,15 Z M52.966,0 L40.557,0 C39.556,0 38.103,0.807 38.103,2.071 L38.103,5 L36,5 L36,2.071 C36,0.929 35.088,0 33.966,0 L21.557,0 C20.556,0 19.103,0.807 19.103,2.071 L19.103,5 L16.897,5 L16.897,2.071 C16.897,0.807 15.444,0 14.443,0 L2.034,0 C0.912,0 0,0.929 0,2.071 L0,14.929 C0,16.071 0.912,17 2.034,17 L14.351,17 C15.275,17 17,16.289 17,14.929 L17,12 L19,12 L19,14.929 C19,16.289 20.725,17 21.649,17 L33.966,17 C35.088,17 36,16.071 36,14.929 L36,12 L38,12 L38,14.929 C38,16.289 39.725,17 40.649,17 L52.966,17 C54.088,17 55,16.071 55,14.929 L55,2.071 C55,0.929 54.088,0 52.966,0 L52.966,0 Z M49,6 L49.022,11 L44,11.022 L43.978,6 L49,6 Z M43.978,13 L49.022,13 C50.113,13 51,12.113 51,11.022 L51,5.978 C51,4.887 50.113,4 49.022,4 L43.978,4 C42.887,4 42,4.887 42,5.978 L42,11.022 C42,12.113 42.887,13 43.978,13 L43.978,13 Z M25,11.022 L24.978,6 L30,6 L30.022,11 L25,11.022 Z M30.022,4 L24.978,4 C23.887,4 23,4.887 23,5.978 L23,11.022 C23,12.113 23.887,13 24.978,13 L30.022,13 C31.113,13 32,12.113 32,11.022 L32,5.978 C32,4.887 31.113,4 30.022,4 L30.022,4 Z M6,11.022 L6,6 L11,5.978 L11.022,11 L6,11.022 Z M11.022,4 L5.978,4 C4.887,4 4,4.887 4,5.978 L4,11.022 C4,12.113 4.887,13 5.978,13 L11.022,13 C12.113,13 13,12.113 13,11.022 L13,5.978 C13,4.887 12.113,4 11.022,4 L11.022,4 Z" id="Blockchain_Category-Icon_64_Squid--"></path>
        </g>
    </g>
</svg>