<?xml version="1.0" encoding="UTF-8"?>
<svg width="90px" height="90px" viewBox="0 0 90 90" version="1.1" xmlns="http://www.w3.org/2000/svg" xmlns:xlink="http://www.w3.org/1999/xlink">
    <title>Icon-Architecture-Category/64/Analytics_64</title>
    <g id="Icon-Architecture-Category/64/Analytics_64" stroke="none" stroke-width="1" fill="none" fill-rule="evenodd">
        <rect id="Rectangle" fill="#8C4FFF" x="5" y="5" width="80" height="80"></rect>
        <rect id="#879196-Border" stroke="#879196" stroke-width="2" x="1" y="1" width="88" height="88"></rect>
        <g id="Icon-Category/64/Analytics_64" transform="translate(17.000000, 23.000000)" fill="#FFFFFF">
            <path d="M44.00013,9 L44.00013,17 L42.00013,17 L42.00013,11.536 L30.75913,24.651 C30.58213,24.857 30.32913,24.982 30.05913,24.999 C29.78213,25.008 29.52113,24.918 29.32113,24.735 L23.52713,19.387 L13.20713,29.707 L11.79313,28.293 L22.79313,17.293 C23.17213,16.913 23.78413,16.901 24.17913,17.265 L29.91613,22.562 L40.68413,10 L35.00013,10 L35.00013,8 L43.00013,8 C43.55313,8 44.00013,8.448 44.00013,9 L44.00013,9 Z M49.48513,42 L6.51513003,42 L2.94313003,37 L5.00013003,37 L51.00013,37 L53.05713,37 L49.48513,42 Z M6.00013003,3.912 C6.00013003,2.857 6.91713003,2 8.04413003,2 L47.95613,2 C49.08313,2 50.00013,2.857 50.00013,3.912 L50.00013,35 L6.00013003,35 L6.00013003,3.912 Z M55.89013,35.542 C55.71813,35.209 55.37513,35 55.00013,35 L52.00013,35 L52.00013,3.912 C52.00013,1.755 50.18613,0 47.95613,0 L8.04413003,0 C5.81413003,0 4.00013003,1.755 4.00013003,3.912 L4.00013003,35 L1.00013003,35 C0.625130026,35 0.282130026,35.209 0.110130026,35.542 C-0.0608699744,35.875 -0.0308699744,36.276 0.187130026,36.581 L5.18713003,43.581 C5.37413003,43.844 5.67713003,44 6.00013003,44 L50.00013,44 C50.32313,44 50.62613,43.844 50.81313,43.581 L55.81313,36.581 C56.03113,36.276 56.06113,35.875 55.89013,35.542 L55.89013,35.542 Z" id="Analytics_Category-Icon_64_Squid-"></path>
        </g>
    </g>
</svg>