<?xml version="1.0" encoding="UTF-8"?>
<svg width="90px" height="90px" viewBox="0 0 90 90" version="1.1" xmlns="http://www.w3.org/2000/svg" xmlns:xlink="http://www.w3.org/1999/xlink">
    <title>Icon-Architecture-Category/64/End-User-Computing_64</title>
    <g id="Icon-Architecture-Category/64/End-User-Computing_64" stroke="none" stroke-width="1" fill="none" fill-rule="evenodd">
        <rect id="Rectangle" fill="#01A88D" x="5" y="5" width="80" height="80"></rect>
        <rect id="#879196-Border-Copy-10" stroke="#879196" stroke-width="2" x="1" y="1" width="88" height="88"></rect>
        <g id="Icon-Category/64/End-User-Computing_64" transform="translate(17.000000, 17.000000)" fill="#FFFFFF">
            <path d="M40.4336179,51 L47.4336179,51 L47.4336179,49 L40.4336179,49 L40.4336179,51 Z M5.43361786,3.926 C5.43361786,2.864 6.38461786,2 7.55461786,2 L49.3126179,2 C50.4826179,2 51.4336179,2.864 51.4336179,3.926 L51.4336179,8 L53.4336179,8 L53.4336179,3.926 C53.4336179,1.761 51.5846179,0 49.3126179,0 L7.55461786,0 C5.28261786,0 3.43361786,1.761 3.43361786,3.926 L3.43361786,36 L0.999617861,36 C0.612617861,36 0.258617861,36.225 0.0946178611,36.576 C-0.0703821389,36.927 -0.0163821389,37.342 0.231617861,37.64 L5.23161786,43.64 C5.42161786,43.868 5.70361786,44 5.99961786,44 L28.4336179,44 L28.4336179,42 L6.46861786,42 L3.13461786,38 L28.4336179,38 L28.4336179,36 L5.43361786,36 L5.43361786,3.926 Z M32.4336179,54 L54.4346179,54 L54.4346179,46 L32.4336179,46 L32.4336179,54 Z M32.4336179,12 L32.4336179,44 L54.4346179,44 L54.4336179,12 L32.4336179,12 Z M56.4336179,12 L56.4336179,54 C56.4336179,55.103 55.5366179,56 54.4336179,56 L32.4336179,56 C31.3306179,56 30.4336179,55.103 30.4336179,54 L30.4336179,12 C30.4336179,10.897 31.3306179,10 32.4336179,10 L54.4336179,10 C55.5366179,10 56.4336179,10.897 56.4336179,12 L56.4336179,12 Z M39.8866179,21.678 C41.1716179,22.769 41.1906179,24.517 41.1966179,24.517 C41.1966179,24.517 41.1976179,24.517 41.1976179,24.517 C41.1536179,24.816 41.2486179,25.12 41.4546179,25.341 C41.6626179,25.563 41.9576179,25.684 42.2616179,25.657 C42.2936179,25.656 45.3896179,25.447 46.9916179,26.937 C47.6246179,27.526 47.9336179,28.309 47.9336179,29.33 C47.9336179,31.182 45.8586179,33 43.7436179,33 L34.4336179,33 L34.4336179,35 L43.7436179,35 C46.9836179,35 49.9336179,32.297 49.9336179,29.33 C49.9336179,27.741 49.3996179,26.441 48.3456179,25.465 C46.7716179,24.007 44.4236179,23.701 43.1026179,23.653 C42.9396179,22.71 42.4966179,21.391 41.3986179,20.349 C39.7936179,18.828 37.3786179,18.375 34.2066179,19.01 L34.5996179,20.971 C36.9916179,20.494 38.7706179,20.731 39.8866179,21.678 L39.8866179,21.678 Z M17.4306179,17.763 C17.4306179,18.285 17.5316179,18.812 17.7376179,19.375 C17.8656179,19.726 17.7876179,20.119 17.5356179,20.395 C17.2826179,20.67 16.9006179,20.782 16.5366179,20.684 C16.0516179,20.552 15.6476179,20.491 15.2636179,20.491 C12.6006179,20.491 10.4336179,22.628 10.4336179,25.254 C10.4336179,27.88 12.6006179,30.017 15.2636179,30.017 L28.4326179,30 L28.4336179,32 L15.4336179,32 C11.6656179,32 8.43361786,28.983 8.43361786,25.254 C8.43361786,21.455 11.6096179,18.362 15.4756179,18.495 C15.4456179,18.249 15.4306179,18.005 15.4306179,17.763 C15.4306179,14.097 18.6376179,11 22.4336179,11 C26.1626179,11 29.4336179,14.271 29.4336179,18 L27.4336179,18 C27.4336179,15.336 25.0966179,13 22.4336179,13 C19.7216179,13 17.4306179,15.181 17.4306179,17.763 L17.4306179,17.763 Z" id="End-User-Computing_Category-Icon_64_Squid--"></path>
        </g>
    </g>
</svg>