<?xml version="1.0" encoding="UTF-8"?>
<svg width="90px" height="90px" viewBox="0 0 90 90" version="1.1" xmlns="http://www.w3.org/2000/svg" xmlns:xlink="http://www.w3.org/1999/xlink">
    <title>Icon-Architecture-Category/64/Security-Identity-Compliance_64</title>
    <g id="Icon-Architecture-Category/64/Security-Identity-Compliance_64" stroke="none" stroke-width="1" fill="none" fill-rule="evenodd">
        <rect id="Rectangle" fill="#DD344C" x="5" y="5" width="80" height="80"></rect>
        <rect id="#879196-Border-Copy-22" stroke="#879196" stroke-width="2" x="1" y="1" width="88" height="88"></rect>
        <g id="Icon-Category/64/Security-Identity-Compliance_64" transform="translate(24.000000, 17.000000)" fill="#FFFFFF">
            <path d="M40,33.14175 C40,33.19575 39.964,38.57875 37.563,43.85775 C34.417,50.77675 28.845,54.28575 21,54.28575 C13.164,54.28575 7.593,50.54275 4.442,43.16175 C2.035,37.52075 2,31.77075 2,31.71475 L2,9.39375 L21,2.07175 L40,9.39375 L40,33.14175 Z M41.359,7.77375 L21.359,0.06675 C21.129,-0.02225 20.871,-0.02225 20.641,0.06675 L0.641,7.77375 C0.255,7.92275 0,8.29375 0,8.70675 L0,31.71475 C0,31.95975 0.24,56.28575 21,56.28575 C41.76,56.28575 42,33.37375 42,33.14275 L42,8.70675 C42,8.29375 41.745,7.92275 41.359,7.77375 L41.359,7.77375 Z M35,33.13475 C34.986,34.74575 34.495,48.54875 22,49.25175 L22,7.81575 L35,12.82575 L35,33.13475 Z M7,31.71475 L7,12.82575 L20,7.81575 L20,49.24675 C7.158,48.45075 7,32.41375 7,31.71475 L7,31.71475 Z M20.641,5.42575 L5.641,11.20575 C5.255,11.35475 5,11.72475 5,12.13875 L5,31.71475 C5,32.51375 5.182,51.28575 21,51.28575 C27.384,51.28575 32.16,48.34975 34.813,42.79675 C36.854,38.52275 36.993,34.01175 37,33.14275 L37,12.13875 C37,11.72475 36.745,11.35475 36.359,11.20575 L21.359,5.42575 C21.129,5.33675 20.871,5.33675 20.641,5.42575 L20.641,5.42575 Z" id="Security-Identity-Compliance_Category-Icon_64_Squid"></path>
        </g>
    </g>
</svg>