<?xml version="1.0" encoding="UTF-8"?>
<svg width="90px" height="90px" viewBox="0 0 90 90" version="1.1" xmlns="http://www.w3.org/2000/svg" xmlns:xlink="http://www.w3.org/1999/xlink">
    <title>Icon-Architecture-Category/64/Serverless_64</title>
    <g id="Icon-Architecture-Category/64/Serverless_64" stroke="none" stroke-width="1" fill="none" fill-rule="evenodd">
        <rect id="#879196-Border-Copy-22" stroke="#879196" stroke-width="2" x="1" y="1" width="88" height="88"></rect>
        <rect id="Rectangle" fill="#8C4FFF" x="5" y="5" width="80" height="80"></rect>
        <g id="Icon-Category/64/Serverless_64" transform="translate(17.000000, 26.000000)" fill="#FFFFFF">
            <path d="M56.2512103,26.005 C56.2512103,31.675 52.2562103,37.416 44.6222103,37.416 C37.0752103,37.416 32.2242103,33.008 27.6882103,28.303 C27.5152103,28.124 25.9682103,26.44 25.7922103,26.247 C23.8922103,24.167 22.0742103,22.209 20.1222103,20.575 L20.1282103,26.999 L18.1282103,27.001 L18.1192103,18.001 C18.1182103,17.449 18.5652103,17.001 19.1182103,17 L28.1272103,16.991 L28.1292103,18.991 L21.3502103,18.998 C23.4412103,20.741 25.3882103,22.84 27.2692103,24.898 C27.3902103,25.03 28.6212103,26.359 28.9962103,26.774 C33.1442103,31.354 37.8162103,35.416 44.6222103,35.416 C51.2372103,35.416 54.2512103,30.538 54.2512103,26.005 C54.2512103,21.773 51.5012103,17.217 45.4642103,17.217 C38.5902103,17.217 34.4952103,20.628 30.7352103,24.79 C30.5522103,24.58 30.3692103,24.374 30.1862103,24.162 C29.9302103,23.867 29.6682103,23.572 29.4092103,23.276 C33.3412103,18.962 37.8972103,15.217 45.4642103,15.217 L45.4782103,15.217 C45.2492103,12.099 43.3612103,9 38.6262103,9 L37.7512103,9 C37.3882103,9 37.0532103,8.803 36.8762103,8.484 C34.6272103,4.424 30.3742103,2 25.5012103,2 C18.3332103,2 12.5012103,7.832 12.5012103,15 C12.5012103,15.552 12.0542103,16 11.5012103,16 C8.84721029,16 6.38521029,17.067 4.56821029,19.005 C2.75321029,20.942 1.84921029,23.474 2.02221029,26.135 C2.34421029,31.106 6.66621029,35 11.8612103,35 L13.9042103,35 C14.3882103,35 14.8752103,34.965 15.3542103,34.895 C16.3992103,34.743 17.3342103,34.468 18.1312103,34.078 C20.5692103,32.883 22.5852103,31.001 24.5342103,28.858 C24.6902103,29.037 24.8452103,29.212 25.0032103,29.394 C25.2852103,29.719 25.5762103,30.041 25.8612103,30.367 C23.8462103,32.561 21.6592103,34.576 19.0112103,35.874 C18.0262103,36.356 16.8932103,36.693 15.6412103,36.875 C15.0672103,36.958 14.4832103,37 13.9042103,37 L11.8612103,37 C5.61521029,37 0.416210291,32.284 0.0252102906,26.265 C-0.183789709,23.046 0.912210291,19.982 3.10821029,17.638 C5.05321029,15.563 7.71721029,14.282 10.5312103,14.042 C11.0272103,6.215 17.5522103,0 25.5012103,0 C30.9042103,0 35.6542103,2.605 38.3262103,7 L38.6262103,7 C43.8462103,7 47.2772103,10.266 47.4902103,15.367 C53.4932103,16.289 56.2512103,21.309 56.2512103,26.005" id="Serverless_64"></path>
        </g>
    </g>
</svg>