<?xml version="1.0" encoding="UTF-8"?>
<svg width="90px" height="90px" viewBox="0 0 90 90" version="1.1" xmlns="http://www.w3.org/2000/svg" xmlns:xlink="http://www.w3.org/1999/xlink">
    <title>Icon-Architecture-Category/64/Machine-Learning_64</title>
    <g id="Icon-Architecture-Category/64/Machine-Learning_64" stroke="none" stroke-width="1" fill="none" fill-rule="evenodd">
        <rect id="Rectangle" fill="#01A88D" x="5" y="5" width="80" height="80"></rect>
        <rect id="#879196-Border-Copy-13" stroke="#879196" stroke-width="2" x="1" y="1" width="88" height="88"></rect>
        <g id="Icon-Category/64/Machine-Learning_64" transform="translate(17.000000, 17.000000)" fill="#FFFFFF">
            <path d="M27,34.607531 L27,27.169531 L21.65,24.066531 L22.654,22.336531 L27,24.856531 L27,4.63953102 L21.52,2.11053102 L16,4.89453102 L16,12.000531 L14,12.000531 L14,5.90253102 L9,8.42453102 L8.999,16.064531 L15.003,19.425531 L20.999,16.098531 L20.999,8.00053102 L22.999,8.00053102 L22.999,16.687531 C22.999,17.050531 22.802,17.385531 22.484,17.561531 L16.001,21.159531 L16,26.000531 L22.477,29.744531 C22.799,29.919531 22.999,30.256531 22.999,30.622531 L22.999,36.912531 L27,34.607531 Z M27,36.915531 L14.712,43.994531 L13.714,42.260531 L20.999,38.064531 L20.999,31.216531 L15.035,27.973531 L8.363,31.815531 L7.365,30.082531 L14,26.261531 L14.001,21.156531 L8.029,17.814531 L2.002,21.159531 L2.001,25.653531 L7.242,22.634531 L8.24,24.368531 L2.001,27.961531 L2.002,33.499531 L7.978,37.204531 L13.985,33.743531 L14.983,35.476531 L9,39.000531 L8.999,46.254531 L14.394,49.523531 L21.96,44.985531 L22.989,46.700531 L16.327,50.695531 L21.563,53.869531 L27,51.360531 L27,36.915531 Z M29,4.00053102 L29,52.000531 C29,52.390531 28.773,52.744531 28.419,52.908531 L21.919,55.908531 C21.786,55.969531 21.643,56.000531 21.5,56.000531 C21.32,56.000531 21.141,55.951531 20.981,55.855531 L7.48,47.672531 C7.182,47.491531 6.999,47.167531 6.999,46.817531 L7,39.000531 L0.475,34.906531 C0.181,34.723531 0.002,34.402531 0.002,34.056531 L0.002,33.445531 C0.001,33.425531 0,33.404531 0,33.384531 L0,21.242531 C0,21.222531 0.001,21.201531 0.002,21.181531 L0.002,20.570531 C0.002,20.207531 0.199,19.872531 0.517,19.695531 L6.999,16.098531 L7,7.80953102 C7,7.43153102 7.213,7.08653102 7.55,6.91653102 L21.05,0.107531022 C21.322,-0.0304689781 21.643,-0.0354689781 21.919,0.0915310219 L28.419,3.09153102 C28.773,3.25553102 29,3.60953102 29,4.00053102 L29,4.00053102 Z M55.91,32.900531 C55.797,32.649531 55.585,32.456531 55.325,32.366531 L51.886,31.175531 C52.173,29.028531 52.168,26.863531 51.87,24.717531 L55.306,23.510531 C55.564,23.419531 55.775,23.225531 55.887,22.973531 C55.999,22.722531 56.003,22.436531 55.896,22.182531 L51.77,12.280531 C51.664,12.026531 51.458,11.827531 51.201,11.730531 C50.945,11.633531 50.658,11.646531 50.41,11.766531 L47.124,13.360531 C45.809,11.639531 44.276,10.114531 42.553,8.81053102 L44.133,5.51753102 C44.252,5.26953102 44.264,4.98253102 44.165,4.72653102 C44.066,4.46953102 43.866,4.26453102 43.612,4.15953102 L33.692,0.0765310219 C33.438,-0.0274689781 33.152,-0.0224689781 32.9,0.0895310219 C32.649,0.202531022 32.457,0.414531022 32.366,0.674531022 L30.897,4.91553102 L32.788,5.56953102 L33.91,2.32953102 L41.872,5.60653102 L40.39,8.69553102 C40.178,9.13653102 40.316,9.66553102 40.717,9.94653102 C42.766,11.385531 44.543,13.154531 45.997,15.202531 C46.28,15.600531 46.809,15.740531 47.249,15.523531 L50.331,14.027531 L53.644,21.974531 L50.422,23.106531 C49.961,23.268531 49.685,23.740531 49.769,24.221531 C50.2,26.695531 50.207,29.205531 49.786,31.681531 C49.705,32.163531 49.983,32.633531 50.445,32.793531 L53.67,33.910531 L50.394,41.871531 L47.313,40.393531 C46.873,40.181531 46.343,40.320531 46.062,40.719531 C44.623,42.768531 42.853,44.545531 40.8,46.001531 C40.4,46.284531 40.265,46.814531 40.479,47.253531 L41.973,50.331531 L34.026,53.643531 L32.893,50.418531 L31.006,51.081531 L32.49,55.305531 C32.581,55.565531 32.775,55.775531 33.026,55.887531 C33.156,55.945531 33.295,55.974531 33.434,55.974531 C33.564,55.974531 33.695,55.948531 33.818,55.897531 L43.72,51.769531 C43.974,51.664531 44.173,51.458531 44.271,51.200531 C44.367,50.943531 44.354,50.657531 44.234,50.409531 L42.641,47.128531 C44.365,45.812531 45.894,44.279531 47.198,42.556531 L50.482,44.132531 C50.73,44.251531 51.018,44.264531 51.273,44.165531 C51.53,44.066531 51.735,43.866531 51.84,43.612531 L55.923,33.692531 C56.027,33.437531 56.022,33.151531 55.91,32.900531 L55.91,32.900531 Z M39,28.000531 C39,23.544531 36.01,19.587531 31.728,18.376531 L32.272,16.451531 C37.411,17.905531 41,22.654531 41,28.000531 C41,33.353531 37.404,38.104531 32.256,39.552531 L31.715,37.628531 C36.004,36.420531 39,32.461531 39,28.000531 L39,28.000531 Z" id="Machine-Learning_Category-Icon_64_Squid"></path>
        </g>
    </g>
</svg>