<svg width="24" height="24" viewBox="0 0 24 24" fill="none" xmlns="http://www.w3.org/2000/svg">
<g id="Icon-Architecture/16/Arch_Amazon-API-Gateway_16">
<g id="Icon-Architecture-BG/16/Networking-Content-Delivery">
<rect id="Rectangle" width="24" height="24" fill="#8C4FFF"/>
</g>
<g id="Icon-Service/16/Amazon-API-Gateway_16">
<path id="Amazon-API-Gateway_Icon_16_Squid" fill-rule="evenodd" clip-rule="evenodd" d="M6 6.76752L8 5.43447V18.5659L6 17.2329V6.76752ZM5 6.49951V17.4999C5 17.6669 5.084 17.8239 5.223 17.9159L8.223 19.916C8.307 19.972 8.403 20 8.5 20C8.581 20 8.662 19.981 8.736 19.941C8.898 19.854 9 19.685 9 19.5V16.9999H10V15.9999H9V7.99956H10V6.99952H9V4.49943C9 4.31543 8.898 4.14542 8.736 4.05942C8.574 3.97241 8.377 3.98141 8.223 4.08342L5.223 6.08349C5.084 6.17649 5 6.3325 5 6.49951ZM19 17.2329L17 18.5659V5.43447L19 6.76752V17.2329ZM19.777 6.08349L16.777 4.08342C16.623 3.98141 16.426 3.97241 16.264 4.05942C16.102 4.14542 16 4.31543 16 4.49943V6.99952H15V7.99956H16V15.9999H15V16.9999H16V19.5C16 19.685 16.102 19.854 16.264 19.941C16.338 19.981 16.419 20 16.5 20C16.597 20 16.693 19.972 16.777 19.916L19.777 17.9159C19.916 17.8239 20 17.6669 20 17.4999V6.49951C20 6.3325 19.916 6.17649 19.777 6.08349ZM13 7.99956H14V6.99952H13V7.99956ZM11 7.99956H12V6.99952H11V7.99956ZM13 16.9999H14V15.9999H13V16.9999ZM11 16.9999H12V15.9999H11V16.9999ZM13.18 14.8848L10.18 12.3847C10.065 12.2887 10 12.1487 10 11.9997C10 11.8517 10.065 11.7107 10.18 11.6157L13.18 9.1156L13.82 9.88463L11.281 11.9997L13.82 14.1158L13.18 14.8848Z" fill="white"/>
</g>
</g>
</svg>
