<svg width="24" height="24" viewBox="0 0 24 24" fill="none" xmlns="http://www.w3.org/2000/svg">
<g clip-path="url(#clip0_20_130)">
<rect width="24" height="24" fill="#8C4FFF"/>
<path d="M19.915 11.0727H18.915C18.915 9.5009 17.4912 9.09856 16.8789 8.99895C16.7471 8.97747 16.6299 8.90422 16.5518 8.79583C16.4746 8.68792 16.4434 8.55315 16.4658 8.42181C16.4639 7.81146 16.1846 7.3349 15.6992 7.1679C15.2451 7.01311 14.7236 7.16448 14.4326 7.53948C14.3213 7.68303 14.1406 7.7553 13.9629 7.72698C13.7832 7.69964 13.6328 7.57757 13.5693 7.40764C13.3545 6.83098 13.0449 6.34856 12.6514 5.97258C12.1641 5.50871 10.8262 4.51067 8.93653 5.27141C7.87696 5.69768 7.01563 6.96868 7.01563 8.10491L7.04297 8.51897C7.05859 8.76116 6.89746 8.97942 6.66211 9.03655C6.04102 9.18743 5 9.64983 5 11.0507H4C4 9.68938 4.74707 8.64397 6.01953 8.18645L6.0166 8.13665C6.01562 6.54485 7.11133 4.92815 8.56348 4.34368C10.2471 3.66496 12.0352 4.00432 13.3408 5.24846C13.6875 5.57903 13.9805 5.96965 14.2178 6.41448C14.749 6.09368 15.4072 6.01116 16.0234 6.2221C16.8183 6.49505 17.331 7.18255 17.4414 8.09661C18.7012 8.42522 19.915 9.34563 19.915 11.0727ZM14.8747 15.9872H16.9668V16.9872H14.8747C14.7236 17.4108 14.3904 17.7441 13.9668 17.8951V19.4872C13.9668 19.7636 13.7432 19.9872 13.4668 19.9872H9.46679C9.19042 19.9872 8.96679 19.7636 8.96679 19.4872V17.9872H9.96679V18.9872H12.9668V17.8951C12.5432 17.7441 12.21 17.4108 12.0589 16.9872H6.4668C6.19043 16.9872 5.9668 16.7636 5.9668 16.4872V13.9872H6.9668V15.9872H12.0589C12.266 15.4065 12.8158 14.9872 13.4668 14.9872C14.1178 14.9872 14.6676 15.4065 14.8747 15.9872ZM12.9668 16.4872C12.9668 16.7631 13.1914 16.9872 13.4668 16.9872C13.7422 16.9872 13.9668 16.7631 13.9668 16.4872C13.9668 16.2113 13.7422 15.9872 13.4668 15.9872C13.1914 15.9872 12.9668 16.2113 12.9668 16.4872ZM16.9668 12.4872V14.9872H15.9668V12.9872H10.8747C10.6676 13.568 10.1178 13.9872 9.4668 13.9872C8.8158 13.9872 8.26599 13.568 8.0589 12.9872H5.9668V11.9872H8.0589C8.20996 11.5636 8.54321 11.2304 8.9668 11.0793V9.48723C8.9668 9.21086 9.19043 8.98723 9.4668 8.98723H13.4668C13.7432 8.98723 13.9668 9.21086 13.9668 9.48723V10.9872H12.9668V9.98723H9.9668V11.0793C10.3904 11.2304 10.7236 11.5636 10.8747 11.9872H16.4668C16.7432 11.9872 16.9668 12.2109 16.9668 12.4872ZM9.9668 12.4872C9.9668 12.2113 9.74219 11.9872 9.4668 11.9872C9.19141 11.9872 8.9668 12.2113 8.9668 12.4872C8.9668 12.7631 9.19141 12.9872 9.4668 12.9872C9.74219 12.9872 9.9668 12.7631 9.9668 12.4872Z" fill="white"/>
</g>
<defs>
<clipPath id="clip0_20_130">
<rect width="24" height="24" fill="white"/>
</clipPath>
</defs>
</svg>
