<?xml version="1.0" encoding="UTF-8"?>
<svg width="24px" height="24px" viewBox="0 0 24 24" version="1.1" xmlns="http://www.w3.org/2000/svg" xmlns:xlink="http://www.w3.org/1999/xlink">
    <title>Icon-Architecture/16/Arch_Amazon-VPC-Lattice_16</title>
    <g id="Icon-Architecture/16/Arch_Amazon-VPC-Lattice_16" stroke="none" stroke-width="1" fill="none" fill-rule="evenodd">
        <g id="Icon-Architecture-BG/16/Networking-Content-Delivery" fill="#8C4FFF">
            <rect id="Rectangle" x="0" y="0" width="24" height="24"></rect>
        </g>
        <path d="M12.536,16.197 L12.536,7.727 L15,8.555 L15,13.64 C15,14.15 14.549,15.93 12.536,16.197 L12.536,16.197 Z M9,13.64 L9,8.557 L11.536,7.722 L11.536,16.197 C9.484,15.93 9,14.12 9,13.64 L9,13.64 Z M5,6 L6,6 L6,5 L5,5 L5,6 Z M18,6 L19,6 L19,5 L18,5 L18,6 Z M18,19 L19,19 L19,18 L18,18 L18,19 Z M5,19 L6,19 L6,18 L5,18 L5,19 Z M16,8.707 L17.707,7 L19.5,7 C19.776,7 20,6.777 20,6.5 L20,4.5 C20,4.224 19.776,4 19.5,4 L17.5,4 C17.223,4 17,4.224 17,4.5 L17,6.293 L15.594,7.699 L12.195,6.557 C12.093,6.523 11.982,6.522 11.88,6.556 L8.406,7.7 L7,6.293 L7,4.5 C7,4.224 6.776,4 6.5,4 L4.5,4 C4.223,4 4,4.224 4,4.5 L4,6.5 C4,6.777 4.223,7 4.5,7 L6.293,7 L8,8.707 L8,13.64 C8,13.991 8.098,14.473 8.324,14.969 L6.293,17 L4.5,17 C4.223,17 4,17.224 4,17.5 L4,19.5 C4,19.777 4.223,20 4.5,20 L6.5,20 C6.776,20 7,19.777 7,19.5 L7,17.707 L8.865,15.842 C9.495,16.616 10.508,17.251 12.036,17.251 C13.548,17.251 14.542,16.63 15.158,15.865 L17,17.707 L17,19.5 C17,19.777 17.223,20 17.5,20 L19.5,20 C19.776,20 20,19.777 20,19.5 L20,17.5 C20,17.224 19.776,17 19.5,17 L17.707,17 L15.69,14.983 C15.907,14.488 16,14.004 16,13.64 L16,8.707 Z" id="Fill-1" fill="#FFFFFF"></path>
    </g>
</svg>