<?xml version="1.0" encoding="UTF-8"?>
<svg width="24px" height="24px" viewBox="0 0 24 24" version="1.1" xmlns="http://www.w3.org/2000/svg" xmlns:xlink="http://www.w3.org/1999/xlink">
    <title>Icon-Architecture/16/Arch_AWS-Verified-Access_16</title>
    <g id="Icon-Architecture/16/Arch_AWS-Verified-Access_16" stroke="none" stroke-width="1" fill="none" fill-rule="evenodd">
        <g id="Icon-Architecture-BG/16/Networking-Content-Delivery" fill="#8C4FFF">
            <rect id="Rectangle" x="0" y="0" width="24" height="24"></rect>
        </g>
        <path d="M14.405,5.959 L14.776,5.03 C16.713,5.802 18.253,7.361 19.002,9.306 L18.068,9.666 C17.419,7.979 16.084,6.628 14.405,5.959 L14.405,5.959 Z M18.073,14.321 L19.007,14.678 C18.246,16.668 16.669,18.246 14.678,19.007 L14.321,18.073 C16.046,17.414 17.414,16.046 18.073,14.321 L18.073,14.321 Z M9.594,18.04 L9.223,18.969 C7.318,18.209 5.79,16.681 5.03,14.775 L5.96,14.405 C6.617,16.057 7.942,17.381 9.594,18.04 L9.594,18.04 Z M5.96,9.593 L5.03,9.223 C5.791,7.317 7.319,5.79 9.223,5.03 L9.594,5.959 C7.943,6.617 6.618,7.942 5.96,9.593 L5.96,9.593 Z M12,19 C11.726,19 11.503,18.777 11.503,18.503 C11.503,18.229 11.726,18.006 12,18.006 C12.274,18.006 12.496,18.229 12.496,18.503 C12.496,18.777 12.274,19 12,19 L12,19 Z M12,17.006 C11.173,17.006 10.503,17.676 10.503,18.503 C10.503,19.329 11.173,20 12,20 C12.826,20 13.496,19.329 13.496,18.503 C13.496,17.676 12.826,17.006 12,17.006 L12,17.006 Z M18.499,12.5 C18.223,12.5 17.998,12.276 17.998,12 C17.998,11.723 18.223,11.499 18.499,11.499 C18.775,11.499 19,11.723 19,12 C19,12.276 18.775,12.5 18.499,12.5 L18.499,12.5 Z M18.499,10.499 C17.67,10.499 16.998,11.171 16.998,12 C16.998,12.828 17.67,13.5 18.499,13.5 C19.328,13.5 20,12.828 20,12 C20,11.171 19.328,10.499 18.499,10.499 L18.499,10.499 Z M5,12 C5,11.726 5.222,11.504 5.495,11.504 C5.769,11.504 5.991,11.726 5.991,12 C5.991,12.273 5.769,12.495 5.495,12.495 C5.222,12.495 5,12.273 5,12 L5,12 Z M6.991,12 C6.991,11.174 6.321,10.504 5.495,10.504 C4.669,10.504 4,11.174 4,12 C4,12.826 4.669,13.495 5.495,13.495 C6.321,13.495 6.991,12.826 6.991,12 L6.991,12 Z M12,5 C12.273,5 12.495,5.222 12.495,5.495 C12.495,5.768 12.273,5.991 12,5.991 C11.726,5.991 11.504,5.768 11.504,5.495 C11.504,5.222 11.726,5 12,5 L12,5 Z M12,6.991 C12.826,6.991 13.495,6.321 13.495,5.495 C13.495,4.669 12.826,4 12,4 C11.174,4 10.504,4.669 10.504,5.495 C10.504,6.321 11.174,6.991 12,6.991 L12,6.991 Z M11,10 L13,10 L13,9 L11,9 L11,10 Z M10,14 L14,14 L14,11 L10,11 L10,14 Z M9.5,10 C9.223,10 9,10.223 9,10.5 L9,14.5 C9,14.776 9.223,15 9.5,15 L14.5,15 C14.776,15 15,14.776 15,14.5 L15,10.5 C15,10.223 14.776,10 14.5,10 L14,10 L14,9 C14,8.448 13.551,8 13,8 L11,8 C10.448,8 10,8.448 10,9 L10,10 L9.5,10 Z" id="Fill-1" fill="#FFFFFF"></path>
    </g>
</svg>