<?xml version="1.0" encoding="UTF-8"?>
<svg width="24px" height="24px" viewBox="0 0 24 24" version="1.1" xmlns="http://www.w3.org/2000/svg" xmlns:xlink="http://www.w3.org/1999/xlink">
    <title>Icon-Architecture/16/Arch_AWS-Cloud-WAN_16</title>
    <g id="Icon-Architecture/16/Arch_AWS-Cloud-WAN_16" stroke="none" stroke-width="1" fill="none" fill-rule="evenodd">
        <g id="Icon-Architecture-BG/16/Networking-Content-Delivery" fill="#8C4FFF">
            <rect id="Rectangle" x="0" y="0" width="24" height="24"></rect>
        </g>
        <path d="M18.986,11.975 C18.986,11.424 18.538,10.975 17.986,10.975 C17.434,10.975 16.986,11.424 16.986,11.975 C16.986,12.526 17.434,12.975 17.986,12.975 C18.538,12.975 18.986,12.526 18.986,11.975 M15.907,12.464 L12.474,12.464 L12.474,15.901 C14.267,15.676 15.683,14.259 15.907,12.464 M12.965,17.976 C12.965,17.435 12.525,16.995 11.984,16.995 C11.443,16.995 11.003,17.435 11.003,17.976 C11.003,18.517 11.443,18.958 11.984,18.958 C12.525,18.958 12.965,18.517 12.965,17.976 M11.474,15.899 L11.474,12.464 L8.061,12.464 C8.285,14.253 9.691,15.666 11.474,15.899 M8.063,11.464 L11.474,11.464 L11.474,8.049 C9.697,8.281 8.294,9.685 8.063,11.464 M11.003,5.981 C11.003,6.522 11.443,6.963 11.984,6.963 C12.525,6.963 12.965,6.522 12.965,5.981 C12.965,5.44 12.525,5 11.984,5 C11.443,5 11.003,5.44 11.003,5.981 M12.474,8.047 L12.474,11.464 L15.905,11.464 C15.673,9.678 14.26,8.271 12.474,8.047 M6.964,11.975 C6.964,11.434 6.523,10.994 5.981,10.994 C5.44,10.994 5,11.434 5,11.975 C5,12.516 5.44,12.956 5.981,12.956 C6.523,12.956 6.964,12.516 6.964,11.975 M19.986,11.975 C19.986,13.078 19.089,13.975 17.986,13.975 C17.492,13.975 17.045,13.788 16.695,13.49 C16.203,15.014 15.007,16.205 13.48,16.691 C13.778,17.038 13.965,17.484 13.965,17.976 C13.965,19.069 13.077,19.958 11.984,19.958 C10.891,19.958 10.003,19.069 10.003,17.976 C10.003,17.484 10.19,17.038 10.488,16.691 C8.955,16.203 7.755,15.003 7.267,13.471 C6.92,13.769 6.474,13.956 5.981,13.956 C4.888,13.956 4,13.068 4,11.975 C4,10.882 4.888,9.994 5.981,9.994 C6.474,9.994 6.919,10.181 7.266,10.479 C7.754,8.948 8.951,7.748 10.482,7.259 C10.187,6.913 10.003,6.47 10.003,5.981 C10.003,4.889 10.891,4 11.984,4 C13.077,4 13.965,4.889 13.965,5.981 C13.965,6.47 13.781,6.913 13.486,7.259 C15.01,7.746 16.205,8.938 16.696,10.46 C17.045,10.162 17.492,9.975 17.986,9.975 C19.089,9.975 19.986,10.872 19.986,11.975 M17.337,14.9 C16.856,15.776 16.159,16.512 15.328,17.061 C15.409,17.355 15.465,17.658 15.465,17.976 C15.465,18.044 15.449,18.108 15.445,18.175 C16.752,17.441 17.792,16.298 18.423,14.931 C18.279,14.952 18.136,14.975 17.986,14.975 C17.763,14.975 17.547,14.946 17.337,14.9 M6.898,15.319 C6.604,15.399 6.3,15.456 5.981,15.456 C5.914,15.456 5.851,15.44 5.785,15.437 C6.427,16.581 7.378,17.532 8.523,18.175 C8.519,18.108 8.503,18.044 8.503,17.976 C8.503,17.658 8.559,17.355 8.64,17.061 C7.947,16.604 7.355,16.012 6.898,15.319 M6.897,8.631 C7.354,7.938 7.945,7.346 8.638,6.889 C8.559,6.598 8.503,6.297 8.503,5.981 C8.503,5.91 8.519,5.843 8.524,5.773 C7.378,6.415 6.426,7.368 5.783,8.514 C5.85,8.51 5.913,8.494 5.981,8.494 C6.3,8.494 6.603,8.551 6.897,8.631 M15.33,6.889 C15.41,6.598 15.465,6.297 15.465,5.981 C15.465,5.91 15.449,5.843 15.444,5.773 C16.752,6.506 17.793,7.651 18.424,9.019 C18.28,8.998 18.136,8.975 17.986,8.975 C17.763,8.975 17.547,9.003 17.338,9.05 C16.857,8.174 16.161,7.438 15.33,6.889" id="Fill-8" fill="#FFFFFF"></path>
    </g>
</svg>