<?xml version="1.0" encoding="UTF-8"?>
<svg width="24px" height="24px" viewBox="0 0 24 24" version="1.1" xmlns="http://www.w3.org/2000/svg" xmlns:xlink="http://www.w3.org/1999/xlink">
    <title>Icon-Architecture/16/Arch_AWS-Private-5G_16</title>
    <g id="Icon-Architecture/16/Arch_AWS-Private-5G_16" stroke="none" stroke-width="1" fill="none" fill-rule="evenodd">
        <g id="Icon-Architecture-BG/16/Networking-Content-Delivery" fill="#8C4FFF">
            <rect id="Rectangle" x="0" y="0" width="24" height="24"></rect>
        </g>
        <path d="M14.142,7.791 L14.859,7.093 L15.859,8.119 L15.142,8.817 L14.142,7.791 Z M7.084,8.381 L8.112,7.354 L8.819,8.062 L7.791,9.088 L7.084,8.381 Z M6,5.919 L9,5.919 L9,4.919 L6,4.919 L6,5.919 Z M14,5.919 L17,5.919 L17,4.919 L14,4.919 L14,5.919 Z M14,18.03 L14,13.919 L9,13.919 L9,18.006 C7.14,17.865 5.887,17.597 5.507,17.401 C5.683,14.344 8.283,11.975 11.503,11.975 C14.591,11.975 17.236,14.436 17.489,17.498 C17.118,17.671 15.936,17.912 14,18.03 L14,18.03 Z M13,18.075 C12.548,18.09 12.075,18.101 11.559,18.101 C11.005,18.101 10.492,18.085 10,18.064 L10,14.919 L13,14.919 L13,18.075 Z M10.475,6.16 C10.475,5.608 10.923,5.16 11.475,5.16 C12.027,5.16 12.475,5.608 12.475,6.16 C12.475,6.711 12.027,7.16 11.475,7.16 C10.923,7.16 10.475,6.711 10.475,6.16 L10.475,6.16 Z M11.997,11 L11.987,8.085 C12.841,7.857 13.475,7.084 13.475,6.16 C13.475,5.057 12.578,4.16 11.475,4.16 C10.372,4.16 9.475,5.057 9.475,6.16 C9.475,7.093 10.121,7.873 10.987,8.092 L10.997,10.999 C7.408,11.241 4.595,14.028 4.5,17.563 C4.5,19.027 10.38,19.101 11.559,19.101 C14.726,19.101 18.5,18.852 18.5,17.663 L18.499,17.638 C18.326,14.131 15.456,11.254 11.997,11 L11.997,11 Z" id="Fill-7" fill="#FFFFFF"></path>
    </g>
</svg>