<?xml version="1.0" encoding="UTF-8"?>
<svg width="80px" height="80px" viewBox="0 0 80 80" version="1.1" xmlns="http://www.w3.org/2000/svg" xmlns:xlink="http://www.w3.org/1999/xlink">
    <title>Icon-Architecture/64/Arch_AWS-WAF_64</title>
    <g id="Icon-Architecture/64/Arch_AWS-WAF_64" stroke="none" stroke-width="1" fill="none" fill-rule="evenodd">
        <g id="Icon-Architecture-BG/64/Security-Identity-Compliance" fill="#DD344C">
            <rect id="Rectangle" x="0" y="0" width="80" height="80"></rect>
        </g>
        <g id="Icon-Service/64/AWS-WAF_64" transform="translate(11.999500, 12.000000)" fill="#FFFFFF">
            <path d="M2.396,29 L-3.55271368e-15,29 L-3.55271368e-15,27 L2.399,27 C2.599,21.941 4.239,17.128 7.208,13.025 L8.829,14.198 C6.108,17.957 4.598,22.366 4.399,27 L7,27 L7,29 L4.396,29 C4.582,33.662 6.093,38.097 8.829,41.876 L7.208,43.049 C4.224,38.926 2.583,34.085 2.396,29 L2.396,29 Z M43.01,48.828 C38.898,51.805 34.072,53.445 29,53.639 L29,56 L27,56 L27,53.639 C21.928,53.445 17.1,51.805 12.988,48.828 L14.16,47.208 C17.93,49.937 22.352,51.447 27,51.639 L27,49 L29,49 L29,51.639 C33.648,51.446 38.069,49.936 41.838,47.208 L43.01,48.828 Z M12.988,7.246 C17.1,4.269 21.928,2.629 27,2.436 L27,0 L29,0 L29,2.436 C34.072,2.629 38.898,4.27 43.01,7.246 L41.838,8.866 C38.069,6.138 33.648,4.628 29,4.436 L29,7 L27,7 L27,4.436 C22.352,4.627 17.93,6.138 14.16,8.866 L12.988,7.246 Z M56,27 L56,29 L53.602,29 C53.416,34.085 51.774,38.926 48.791,43.049 L47.169,41.876 C49.905,38.097 51.417,33.662 51.602,29 L49,29 L49,27 L51.599,27 C51.4,22.366 49.89,17.957 47.169,14.198 L48.791,13.025 C51.759,17.128 53.399,21.941 53.599,27 L56,27 Z M42.972,11.65 L50.812,3.81 L52.226,5.224 L44.386,13.064 L42.972,11.65 Z M13.026,44.424 L5.186,52.264 L3.772,50.85 L11.612,43.01 L13.026,44.424 Z M15.252,16.667 L0.412,1.827 L1.826,0.413 L16.667,15.253 L15.252,16.667 Z M40.707,39.293 L55.586,54.173 L54.172,55.587 L39.292,40.708 L40.707,39.293 Z M19.664,28.735 C19.739,28.602 19.82,28.468 19.905,28.334 C21.586,25.693 21.104,22.089 20.57,19.912 C22.011,20.859 23.31,22.816 23.753,23.638 C23.942,23.986 24.309,24.197 24.712,24.161 C25.107,24.13 25.446,23.87 25.578,23.497 C27.067,19.267 26.31,16.087 25.26,14.026 C26.533,14.767 27.519,15.833 28.172,17.192 C29.588,20.134 29.273,24.161 27.348,27.7 C24.719,32.536 25.246,37.606 25.844,40.334 C24.343,39.687 23.007,38.956 21.854,38.152 C18.827,36.042 17.864,31.907 19.664,28.735 L19.664,28.735 Z M33.094,28.398 C33.029,28.807 33.221,29.214 33.579,29.422 C33.936,29.629 34.386,29.596 34.709,29.336 C34.79,29.271 36.43,27.917 37.224,24.642 C38.181,26.034 39.182,28.843 37.85,34.003 C36.532,39.108 30.28,40.544 28.049,40.897 C27.51,38.964 26.417,33.599 29.106,28.655 C31.014,25.145 31.52,21.176 30.564,17.901 C32.374,20.027 33.901,23.373 33.094,28.398 L33.094,28.398 Z M17.922,27.75 C15.62,31.81 16.844,37.099 20.71,39.793 C22.46,41.013 24.58,42.072 27.01,42.941 C27.121,42.981 27.234,43 27.347,43 C27.368,43 27.386,42.989 27.406,42.988 L27.407,42.997 C27.832,42.964 37.826,42.096 39.786,34.503 C42.308,24.737 37.257,21.84 37.041,21.721 C36.748,21.561 36.393,21.557 36.096,21.712 C35.799,21.868 35.6,22.162 35.566,22.495 C35.495,23.17 35.384,23.771 35.25,24.302 C34.558,16.634 28.479,13.514 27.25,12.959 C25.99,11.994 24.458,11.331 22.682,11.016 C22.236,10.935 21.794,11.168 21.604,11.578 C21.412,11.987 21.521,12.477 21.867,12.768 C22.017,12.895 25.133,15.597 24.244,20.739 C23.083,19.216 21.235,17.38 19.061,17.38 C18.731,17.38 18.423,17.543 18.237,17.815 C18.05,18.087 18.01,18.434 18.128,18.741 C18.15,18.795 20.188,24.166 18.217,27.261 C18.113,27.425 18.014,27.589 17.922,27.75 L17.922,27.75 Z" id="AWS-WAF_Icon_64_Squid"></path>
        </g>
    </g>
</svg>