<?xml version="1.0" encoding="UTF-8"?>
<svg width="80px" height="80px" viewBox="0 0 80 80" version="1.1" xmlns="http://www.w3.org/2000/svg" xmlns:xlink="http://www.w3.org/1999/xlink">
    <title>Icon-Architecture/64/Arch_Amazon-Cloud-Directory_64</title>
    <g id="Icon-Architecture/64/Arch_Amazon-Cloud-Directory_64" stroke="none" stroke-width="1" fill="none" fill-rule="evenodd">
        <g id="Icon-Architecture-BG/64/Security-Identity-Compliance" fill="#DD344C">
            <rect id="Rectangle" x="0" y="0" width="80" height="80"></rect>
        </g>
        <g id="Icon-Service/64/Amazon-Cloud-Directory_64" transform="translate(21.000000, 13.000000)" fill="#FFFFFF">
            <path d="M29,45.031 C27.897,45.031 27,44.134 27,43.031 C27,41.928 27.897,41.031 29,41.031 C30.103,41.031 31,41.928 31,43.031 C31,44.134 30.103,45.031 29,45.031 M21,43.031 C21,44.134 20.103,45.031 19,45.031 C17.897,45.031 17,44.134 17,43.031 C17,41.928 17.897,41.031 19,41.031 C20.103,41.031 21,41.928 21,43.031 M11,43.031 C11,44.134 10.103,45.031 9,45.031 C7.897,45.031 7,44.134 7,43.031 C7,41.928 7.897,41.031 9,41.031 C10.103,41.031 11,41.928 11,43.031 M15,24.031 C15,21.825 16.794,20.031 19,20.031 C21.206,20.031 23,21.825 23,24.031 C23,26.237 21.206,28.031 19,28.031 C16.794,28.031 15,26.237 15,24.031 M30,39.173 L30,34.031 C30,33.479 29.553,33.031 29,33.031 L20,33.031 L20,29.941 C22.833,29.462 25,26.998 25,24.031 C25,20.722 22.309,18.031 19,18.031 C15.691,18.031 13,20.722 13,24.031 C13,26.998 15.167,29.462 18,29.941 L18,33.031 L9,33.031 C8.447,33.031 8,33.479 8,34.031 L8,39.173 C6.279,39.62 5,41.173 5,43.031 C5,45.237 6.794,47.031 9,47.031 C11.206,47.031 13,45.237 13,43.031 C13,41.173 11.721,39.62 10,39.173 L10,35.031 L18,35.031 L18,39.173 C16.279,39.62 15,41.173 15,43.031 C15,45.237 16.794,47.031 19,47.031 C21.206,47.031 23,45.237 23,43.031 C23,41.173 21.721,39.62 20,39.173 L20,35.031 L28,35.031 L28,39.173 C26.279,39.62 25,41.173 25,43.031 C25,45.237 26.794,47.031 29,47.031 C31.206,47.031 33,45.237 33,43.031 C33,41.173 31.721,39.62 30,39.173 M19,52.031 C9.309,52.031 2,49.882 2,47.031 L2,10.426 C5.322,12.904 12.268,14.062 18.852,14.062 C25.562,14.062 32.639,12.896 36,10.401 L36,47.031 C36,49.882 28.691,52.031 19,52.031 M18.852,2 C29.109,2 36,4.601 36,7.031 C36,9.461 29.109,12.062 18.852,12.062 C8.771,12.062 2,9.461 2,7.031 C2,4.601 8.771,2 18.852,2 M18.852,0 C9.772,0 0.001,2.2 0,7.031 L0,47.031 C0,52.192 9.814,54.031 19,54.031 C28.186,54.031 38,52.192 38,47.031 L38,7.031 C38,2.2 28.074,0 18.852,0" id="Amazon-Cloud-Directory_64_Squid"></path>
        </g>
    </g>
</svg>