<?xml version="1.0" encoding="UTF-8"?>
<svg width="80px" height="80px" viewBox="0 0 80 80" version="1.1" xmlns="http://www.w3.org/2000/svg" xmlns:xlink="http://www.w3.org/1999/xlink">
    <title>Icon-Architecture/64/Arch_AWS-Payment-Cryptography_64</title>
    <g id="Icon-Architecture/64/Arch_AWS-Payment-Cryptography_64" stroke="none" stroke-width="1" fill="none" fill-rule="evenodd">
        <g id="Icon-Architecture-BG/64/Security-Identity-Compliance" fill="#DD344C">
            <rect id="Rectangle" x="0" y="0" width="80" height="80"></rect>
        </g>
        <g id="Icon-Service/64/AWS-Payment-Cryptography_64" transform="translate(12.000000, 11.750000)" fill="#FFFFFF">
            <path d="M32.515,8.65943079 C32.492,8.65943079 32.468,8.65943079 32.444,8.66043079 C32.024,8.67943079 31.635,8.86043079 31.351,9.17143079 C31.067,9.48143079 30.92,9.88443079 30.939,10.3044308 C30.957,10.7254308 31.139,11.1134308 31.45,11.3974308 C32.089,11.9834308 33.088,11.9414308 33.676,11.2994308 C34.262,10.6584308 34.218,9.65943079 33.577,9.07343079 L33.577,9.07343079 C33.285,8.80543079 32.91,8.65943079 32.515,8.65943079 L32.515,8.65943079 Z M32.512,13.8094308 C31.649,13.8094308 30.784,13.4994308 30.099,12.8724308 C29.394,12.2274308 28.983,11.3474308 28.941,10.3924308 C28.899,9.43843079 29.231,8.52543079 29.876,7.82043079 C30.521,7.11643079 31.402,6.70443079 32.356,6.66243079 C33.306,6.61543079 34.223,6.95243079 34.927,7.59743079 C36.382,8.92843079 36.483,11.1954308 35.152,12.6494308 C34.447,13.4194308 33.481,13.8094308 32.512,13.8094308 L32.512,13.8094308 Z M50.694,31.0124308 L54,31.2104308 L54,27.7144308 L40.117,15.0604308 C39.789,14.7614308 39.698,14.2834308 39.891,13.8844308 C41.477,10.6194308 40.712,6.62543079 38.032,4.17043079 C36.221,2.51343079 33.785,1.75043079 31.35,2.07243079 C28.915,2.39643079 26.751,3.79343079 25.411,5.90743079 C23.586,8.78543079 23.789,12.6684308 25.907,15.3484308 C28.236,18.2984308 32.119,19.3374308 35.567,17.9374308 C35.921,17.7914308 36.332,17.8644308 36.618,18.1254308 L39.23,20.5174308 C39.426,20.6964308 39.542,20.9464308 39.554,21.2114308 L39.675,23.9554308 L42.419,23.8344308 C42.684,23.8284308 42.943,23.9174308 43.138,24.0954308 L45.092,25.8844308 C45.288,26.0634308 45.405,26.3134308 45.416,26.5784308 L45.537,29.3224308 L48.282,29.2014308 C48.546,29.1984308 48.805,29.2844308 49,29.4624308 L50.694,31.0124308 Z M55,33.2724308 C54.981,33.2724308 54.96,33.2724308 54.941,33.2704308 L50.22,32.9874308 C49.991,32.9734308 49.774,32.8824308 49.605,32.7274308 L47.955,31.2174308 L44.626,31.3644308 C44.099,31.3894308 43.608,30.9614308 43.583,30.4094308 L43.437,27.0804308 L42.093,25.8504308 L38.764,25.9974308 C38.23,26.0124308 37.745,25.5934308 37.721,25.0424308 L37.575,21.7134308 L35.718,20.0134308 C31.596,21.4044308 27.088,20.0734308 24.336,16.5874308 C21.661,13.1994308 21.413,8.47643079 23.722,4.83543079 C25.379,2.22243079 28.064,0.492430787 31.086,0.0894307872 C34.107,-0.309569213 37.134,0.638430787 39.382,2.69543079 C42.524,5.57143079 43.545,10.1514308 41.994,14.0654308 L55.674,26.5334308 C55.882,26.7224308 56,26.9914308 56,27.2724308 L56,32.2724308 C56,32.5484308 55.887,32.8114308 55.686,33.0004308 C55.5,33.1764308 55.254,33.2724308 55,33.2724308 L55,33.2724308 Z M9,38.2724308 L16,38.2724308 L16,34.2724308 L9,34.2724308 L9,38.2724308 Z M17,40.2724308 L8,40.2724308 C7.448,40.2724308 7,39.8254308 7,39.2724308 L7,33.2724308 C7,32.7204308 7.448,32.2724308 8,32.2724308 L17,32.2724308 C17.553,32.2724308 18,32.7204308 18,33.2724308 L18,39.2724308 C18,39.8254308 17.553,40.2724308 17,40.2724308 L17,40.2724308 Z M7,48.2724308 L14,48.2724308 L14,46.2724308 L7,46.2724308 L7,48.2724308 Z M17,48.2724308 L24,48.2724308 L24,46.2724308 L17,46.2724308 L17,48.2724308 Z M27,48.2724308 L34,48.2724308 L34,46.2724308 L27,46.2724308 L27,48.2724308 Z M37,48.2724308 L44,48.2724308 L44,46.2724308 L37,46.2724308 L37,48.2724308 Z M45.906,55.2724308 L6.095,55.2724308 C2.735,55.2724308 0,52.5384308 0,49.1784308 L0,27.3674308 C0,24.0064308 2.735,21.2724308 6.095,21.2724308 L24,21.2724308 L24,23.2724308 L6.095,23.2724308 C3.837,23.2724308 2,25.1094308 2,27.3674308 L2,49.1784308 C2,51.4354308 3.837,53.2724308 6.095,53.2724308 L45.906,53.2724308 C48.163,53.2724308 50,51.4354308 50,49.1784308 L50,36.2724308 L52,36.2724308 L52,49.1784308 C52,52.5384308 49.266,55.2724308 45.906,55.2724308 L45.906,55.2724308 Z" id="Fill-1"></path>
        </g>
    </g>
</svg>