<?xml version="1.0" encoding="UTF-8"?>
<svg width="80px" height="80px" viewBox="0 0 80 80" version="1.1" xmlns="http://www.w3.org/2000/svg" xmlns:xlink="http://www.w3.org/1999/xlink">
    <title>Icon-Architecture/64/Arch_AWS-Private-Certificate-Authority_64</title>
    <g id="Icon-Architecture/64/Arch_AWS-Private-Certificate-Authority_64" stroke="none" stroke-width="1" fill="none" fill-rule="evenodd">
        <g id="Icon-Architecture-BG/64/Security-Identity-Compliance" fill="#DD344C">
            <rect id="Rectangle" x="0" y="0" width="80" height="80"></rect>
        </g>
        <path d="M67,17 L64,17 L64,19 L66,19 L66,66 L61,66 L61,68 L67,68 C67.553,68 68,67.552 68,67 L68,18 C68,17.448 67.553,17 67,17 L67,17 Z M19,64 L17,64 L17,67 C17,67.552 17.447,68 18,68 L53,68 L53,66 L19,66 L19,64 Z M35.5,40 C35.756,40 36.012,39.902 36.207,39.707 L44.207,31.707 L42.793,30.293 L35.5,37.586 L32.207,34.293 L30.793,35.707 L34.793,39.707 C34.988,39.902 35.244,40 35.5,40 L35.5,40 Z M26,34.5 C26,40.841 31.159,46 37.5,46 C43.841,46 49,40.841 49,34.5 C49,28.159 43.841,23 37.5,23 C31.159,23 26,28.159 26,34.5 L26,34.5 Z M24,34.5 C24,27.056 30.056,21 37.5,21 C44.944,21 51,27.056 51,34.5 C51,41.944 44.944,48 37.5,48 C30.056,48 24,41.944 24,34.5 L24,34.5 Z M14,17 L60,17 L60,14 L14,14 L14,17 Z M60,60 L60,19 L14,19 L14,60 L48,60 L48,62 L13,62 C12.447,62 12,61.552 12,61 L12,13 C12,12.448 12.447,12 13,12 L61,12 C61.553,12 62,12.448 62,13 L62,61 C62,61.552 61.553,62 61,62 L56,62 L56,60 L60,60 Z M27,57 L27,48 L29,48 L29,55.473 L37.101,51.94 C37.354,51.829 37.646,51.829 37.899,51.94 L46,55.473 L46,48 L48,48 L48,57 C48,57.337 47.83,57.652 47.548,57.836 C47.383,57.945 47.191,58 47,58 C46.864,58 46.729,57.973 46.601,57.917 L37.5,53.948 L28.399,57.917 C28.091,58.052 27.734,58.022 27.452,57.836 C27.17,57.652 27,57.337 27,57 L27,57 Z" id="Fill-8" fill="#FFFFFF"></path>
    </g>
</svg>