<?xml version="1.0" encoding="UTF-8"?>
<svg width="80px" height="80px" viewBox="0 0 80 80" version="1.1" xmlns="http://www.w3.org/2000/svg" xmlns:xlink="http://www.w3.org/1999/xlink">
    <title>Icon-Architecture/64/Arch_AWS-Audit-Manager_64</title>
    <g id="Icon-Architecture/64/Arch_AWS-Audit-Manager_64" stroke="none" stroke-width="1" fill="none" fill-rule="evenodd">
        <g id="Icon-Architecture-BG/64/Security-Identity-Compliance" fill="#DD344C">
            <rect id="Rectangle" x="0" y="0" width="80" height="80"></rect>
        </g>
        <g id="Icon-Service/64/AWS-Audit-Manager_64" transform="translate(12.000000, 12.000000)" fill="#FFFFFF">
            <path d="M50.707,40.293 L49.293,41.707 L52.586,45 L42,45 L42,47 L52.586,47 L49.293,50.293 L50.707,51.707 L55.707,46.707 C56.098,46.316 56.098,45.684 55.707,45.293 L50.707,40.293 Z M24,47 L34.586,47 L31.293,50.293 L32.707,51.707 L37.707,46.707 C38.098,46.316 38.098,45.684 37.707,45.293 L32.707,40.293 L31.293,41.707 L34.586,45 L24,45 L24,47 Z M14.707,51.707 L19.707,46.707 C20.098,46.316 20.098,45.684 19.707,45.293 L14.707,40.293 L13.293,41.707 L16.586,45 L6,45 L6,47 L16.586,47 L13.293,50.293 L14.707,51.707 Z M6,34 L24,34 L24,32 L6,32 L6,34 Z M6,23 L24,23 L24,21 L6,21 L6,23 Z M30,23 L36,23 L36,20 L30,20 L30,23 Z M37,18 C37.553,18 38,18.448 38,19 L38,24 C38,24.552 37.553,25 37,25 L29,25 C28.447,25 28,24.552 28,24 L28,19 C28,18.448 28.447,18 29,18 L37,18 Z M30,35 L54,35 L54,32 L30,32 L30,35 Z M56,31 L56,36 C56,36.552 55.553,37 55,37 L29,37 C28.447,37 28,36.552 28,36 L28,31 C28,30.448 28.447,30 29,30 L55,30 C55.553,30 56,30.448 56,31 L56,31 Z M35,9 L40.586,9 L35,3.414 L35,9 Z M42,51 L44,51 L44,55 C44,55.552 43.553,56 43,56 L1,56 C0.447,56 3.55271368e-15,55.552 3.55271368e-15,55 L3.55271368e-15,1 C3.55271368e-15,0.448 0.447,0 1,0 L34,0 C34.266,0 34.52,0.105 34.707,0.293 L43.707,9.293 C43.895,9.481 44,9.735 44,10 L44,27 L42,27 L42,11 L34,11 C33.447,11 33,10.552 33,10 L33,2 L2,2 L2,54 L42,54 L42,51 Z M15,16 C14.744,16 14.488,15.902 14.293,15.707 L10.293,11.707 L11.707,10.293 L15,13.586 L22.293,6.293 L23.707,7.707 L15.707,15.707 C15.512,15.902 15.256,16 15,16 L15,16 Z" id="Fill-7"></path>
        </g>
    </g>
</svg>