<?xml version="1.0" encoding="UTF-8"?>
<svg width="80px" height="80px" viewBox="0 0 80 80" version="1.1" xmlns="http://www.w3.org/2000/svg" xmlns:xlink="http://www.w3.org/1999/xlink">
    <title>Icon-Architecture/64/Arch_Amazon-Verified-Permissions_64</title>
    <g id="Icon-Architecture/64/Arch_Amazon-Verified-Permissions_64" stroke="none" stroke-width="1" fill="none" fill-rule="evenodd">
        <g id="Icon-Architecture-BG/64/Security-Identity-Compliance" fill="#DD344C">
            <rect id="Rectangle" x="0" y="0" width="80" height="80"></rect>
        </g>
        <path d="M48,48 L58,48 L58,50 L48,50 L48,54 L58,54 L58,56 L48,56 L48,59 L46,59 L46,45 L48,45 L48,48 Z M66,53.522 L64.485,53.436 C64.014,53.402 63.561,53.736 63.453,54.214 C63.147,55.569 62.614,56.855 61.871,58.035 C61.61,58.448 61.687,58.989 62.051,59.314 L63.183,60.324 L60.324,63.183 L59.318,62.056 C58.992,61.689 58.45,61.614 58.038,61.876 C56.86,62.62 55.573,63.153 54.213,63.46 C53.736,63.568 53.407,64.005 53.436,64.493 L53.521,66 L49.479,66 L49.564,64.492 C49.593,64.004 49.264,63.567 48.787,63.459 C47.432,63.152 46.146,62.619 44.965,61.873 C44.551,61.612 44.009,61.687 43.685,62.053 L42.677,63.183 L39.817,60.324 L40.946,59.317 C41.312,58.991 41.388,58.45 41.127,58.037 C40.384,56.859 39.852,55.573 39.545,54.214 C39.437,53.736 38.974,53.402 38.513,53.436 L37,53.522 L37,49.478 L38.518,49.564 C38.997,49.583 39.44,49.264 39.55,48.787 C39.856,47.434 40.39,46.15 41.135,44.972 C41.396,44.558 41.319,44.017 40.955,43.691 L39.817,42.677 L42.677,39.817 L43.691,40.954 C44.019,41.318 44.56,41.393 44.971,41.133 C46.146,40.392 47.431,39.86 48.786,39.554 C49.264,39.446 49.593,39.01 49.564,38.522 L49.479,37 L53.521,37 L53.436,38.523 C53.407,39.011 53.736,39.448 54.213,39.555 C55.567,39.862 56.851,40.394 58.026,41.136 C58.438,41.396 58.98,41.32 59.307,40.957 L60.323,39.817 L63.183,42.677 L62.048,43.689 C61.684,44.014 61.607,44.556 61.868,44.969 C62.611,46.145 63.145,47.429 63.451,48.787 C63.559,49.264 64.014,49.583 64.483,49.564 L66,49.478 L66,53.522 Z M67.687,47.692 C67.487,47.504 67.217,47.405 66.943,47.421 L65.189,47.521 C64.898,46.516 64.498,45.55 63.993,44.634 L65.305,43.464 C65.51,43.281 65.631,43.022 65.639,42.747 C65.646,42.472 65.54,42.206 65.346,42.011 L60.989,37.655 C60.795,37.46 60.525,37.347 60.254,37.362 C59.979,37.37 59.72,37.491 59.536,37.696 L58.361,39.012 C57.446,38.508 56.481,38.108 55.479,37.817 L55.578,36.057 C55.594,35.782 55.496,35.513 55.307,35.313 C55.118,35.113 54.855,35 54.58,35 L48.42,35 C48.145,35 47.882,35.113 47.693,35.313 C47.504,35.513 47.406,35.782 47.422,36.057 L47.521,37.815 C46.518,38.106 45.553,38.505 44.637,39.009 L43.464,37.696 C43.28,37.491 43.021,37.37 42.746,37.362 C42.472,37.35 42.205,37.46 42.011,37.655 L37.654,42.011 C37.46,42.206 37.354,42.472 37.361,42.747 C37.369,43.022 37.49,43.281 37.695,43.464 L39.01,44.637 C38.505,45.553 38.104,46.519 37.812,47.521 L36.057,47.421 C35.785,47.404 35.512,47.504 35.313,47.692 C35.113,47.881 35,48.145 35,48.419 L35,54.581 C35,54.855 35.113,55.119 35.313,55.308 C35.513,55.496 35.786,55.594 36.057,55.579 L37.806,55.479 C38.097,56.485 38.497,57.453 39.003,58.371 L37.696,59.536 C37.49,59.719 37.369,59.979 37.361,60.253 C37.354,60.529 37.46,60.795 37.654,60.989 L42.011,65.346 C42.205,65.541 42.469,65.653 42.746,65.638 C43.021,65.63 43.281,65.51 43.464,65.304 L44.63,63.998 C45.549,64.504 46.517,64.905 47.521,65.197 L47.422,66.943 C47.406,67.218 47.504,67.487 47.693,67.687 C47.882,67.887 48.145,68 48.42,68 L54.58,68 C54.855,68 55.118,67.887 55.307,67.687 C55.496,67.487 55.594,67.218 55.578,66.943 L55.479,65.199 C56.486,64.907 57.455,64.506 58.373,64 L59.536,65.304 C59.719,65.51 59.979,65.63 60.254,65.638 C60.527,65.655 60.795,65.541 60.989,65.346 L65.346,60.989 C65.54,60.795 65.646,60.529 65.639,60.254 C65.631,59.979 65.51,59.719 65.305,59.536 L63.995,58.368 C64.5,57.45 64.9,56.483 65.191,55.479 L66.943,55.579 C67.216,55.593 67.487,55.496 67.687,55.308 C67.887,55.119 68,54.855 68,54.581 L68,48.419 C68,48.145 67.887,47.881 67.687,47.692 L67.687,47.692 Z M31.742,36.218 L24.197,43.763 C24.01,43.951 23.756,44.056 23.49,44.056 C23.225,44.056 22.971,43.951 22.783,43.763 L19.012,39.991 L20.426,38.577 L23.49,41.642 L30.328,34.804 L31.742,36.218 Z M31.742,21.826 L24.197,29.37 C24.01,29.558 23.756,29.663 23.49,29.663 C23.225,29.663 22.971,29.558 22.783,29.37 L19.012,25.598 L20.426,24.184 L23.49,27.249 L30.328,20.412 L31.742,21.826 Z M29.856,52.355 L26.319,55.892 L29.856,59.429 L28.442,60.843 L24.905,57.306 L21.368,60.843 L19.954,59.429 L23.491,55.892 L19.954,52.355 L21.368,50.941 L24.905,54.478 L28.442,50.941 L29.856,52.355 Z M45,15.659 L50.973,21 L45,21 L45,15.659 Z M14,14 L43,14 L43,22 C43,22.552 43.447,23 44,23 L52,23 L52,33 L54,33 L54,21.471 C54,21.186 53.879,20.915 53.667,20.725 L44.193,12.254 C44.01,12.091 43.772,12 43.526,12 L13,12 C12.447,12 12,12.448 12,13 L12,67 C12,67.552 12.447,68 13,68 L38,68 L38,66 L14,66 L14,14 Z" id="Fill-1" fill="#FFFFFF"></path>
    </g>
</svg>