<?xml version="1.0" encoding="UTF-8"?>
<svg width="80px" height="80px" viewBox="0 0 80 80" version="1.1" xmlns="http://www.w3.org/2000/svg" xmlns:xlink="http://www.w3.org/1999/xlink">
    <title>Icon-Architecture/64/Arch_AWS-Network-Firewall_64</title>
    <g id="Icon-Architecture/64/Arch_AWS-Network-Firewall_64" stroke="none" stroke-width="1" fill="none" fill-rule="evenodd">
        <g id="Icon-Architecture-BG/64/Security-Identity-Compliance" fill="#DD344C">
            <rect id="Rectangle" x="0" y="0" width="80" height="80"></rect>
        </g>
        <g id="Icon-Service/64/AWS-Network-Firewall_64" transform="translate(12.000000, 12.300000)" fill="#FFFFFF">
            <path d="M54,45.7046767 L45,45.7046767 L42,45.7046767 L42,39.7046767 L51,39.7046767 L54,39.7046767 L54,45.7046767 Z M44,53.7046767 L32,53.7046767 L32,47.7046767 L41,47.7046767 L44,47.7046767 L44,53.7046767 Z M22.591,51.6906767 C18.422,51.6906767 14.595,49.5876767 12.354,46.0656767 C10.565,43.2556767 10.534,39.6286767 12.275,36.5946767 L12.33,36.4966767 C14.422,33.3216767 13.672,28.9106767 13.004,26.4776767 C14.923,27.4636767 16.661,29.9746767 17.278,31.0816767 C17.47,31.4236767 17.85,31.6226767 18.231,31.5926767 C18.622,31.5616767 18.958,31.3066767 19.092,30.9386767 C21.009,25.6726767 19.723,21.7846767 18.314,19.4556767 C19.568,19.8886767 21.1,20.5406767 22.616,21.4966767 C27.231,24.4066767 29.571,28.6586767 29.571,34.1336767 C29.571,34.4056767 29.683,34.6666767 29.88,34.8556767 C30.076,35.0436767 30.341,35.1396767 30.614,35.1326767 C31.808,35.0806767 33.963,34.1636767 34.96,31.2606767 C34.985,31.3966767 35,31.5446767 35,31.7046767 L35,37.7046767 L26,37.7046767 C25.447,37.7046767 25,38.1526767 25,38.7046767 L25,46.7046767 C25,47.2566767 25.447,47.7046767 26,47.7046767 L30,47.7046767 L30,49.2546767 C28.271,50.8016767 25.605,51.6906767 22.591,51.6906767 L22.591,51.6906767 Z M6.168,33.9476767 C4.267,32.6596767 2,30.2216767 2,25.9206767 C2,19.9646767 6.144,18.0116767 8.613,17.3776767 C9.076,17.2586767 9.391,16.8276767 9.362,16.3506767 L9.265,14.7116767 C9.265,9.96667668 12.533,4.86067668 16.706,3.08767668 C23.925,0.0236766813 29.041,4.05267668 30.904,5.92867668 C32.423,7.45567668 33.607,9.40767668 34.425,11.7276767 C34.548,12.0776767 34.854,12.3296767 35.221,12.3846767 C35.584,12.4396767 35.954,12.2866767 36.173,11.9886767 C37.409,10.3106767 39.541,9.61167668 41.47,10.2446767 C43.64,10.9576767 44.891,13.0746767 44.91,16.0576767 L44.904,16.0946767 C44.828,16.6296767 45.191,17.1296767 45.725,17.2216767 C47.606,17.5456767 53.745,19.1366767 53.745,26.0036767 C53.745,28.2046767 53.158,30.0316767 52,31.4616767 L52,30.7046767 C52,30.1526767 51.553,29.7046767 51,29.7046767 L36.494,29.7046767 C35.876,28.5846767 34.902,28.1076767 34.843,28.0796767 C34.55,27.9466767 34.21,27.9636767 33.932,28.1216767 C33.653,28.2816767 33.468,28.5656767 33.435,28.8856767 C33.188,31.2336767 32.266,32.2866767 31.524,32.7566767 C31.049,25.8506767 27.028,21.8976767 23.622,19.7666767 C19.752,17.3456767 15.925,16.7396767 15.764,16.7146767 C15.317,16.6446767 14.882,16.8866767 14.699,17.2996767 C14.517,17.7126767 14.635,18.1976767 14.985,18.4816767 C15.172,18.6336767 19.139,21.9486767 17.794,28.2496767 C16.457,26.4736767 14.156,24.0706767 11.495,24.0706767 C11.163,24.0706767 10.854,24.2356767 10.667,24.5106767 C10.481,24.7856767 10.443,25.1346767 10.567,25.4426767 C10.591,25.5026767 12.785,31.0996767 11,34.7826767 L11,34.7046767 L8.635,34.7046767 C7.753,34.7046767 6.9,34.4426767 6.168,33.9476767 L6.168,33.9476767 Z M41,37.7046767 L37,37.7046767 L37,31.7046767 L50,31.7046767 L50,37.7046767 L41,37.7046767 Z M40,45.7046767 L31,45.7046767 L27,45.7046767 L27,39.7046767 L36,39.7046767 L40,39.7046767 L40,45.7046767 Z M55,37.7046767 L52,37.7046767 L52,34.2316767 C54.446,32.3146767 55.745,29.4766767 55.745,26.0036767 C55.745,18.4186767 49.747,16.0946767 46.89,15.4196767 C46.684,11.8926767 44.924,9.27467668 42.094,8.34467668 C39.877,7.61667668 37.482,8.11367668 35.722,9.57467668 C34.852,7.61167668 33.712,5.91567668 32.322,4.51767668 C27.842,0.0116766813 21.713,-1.21232332 15.925,1.24667668 C10.987,3.34367668 7.265,9.13267668 7.267,14.7706767 L7.319,15.6736767 C4.624,16.5596767 0,19.0796767 0,25.9206767 C0,31.3716767 3.162,34.3266767 5.047,35.6036767 C6.111,36.3236767 7.353,36.7046767 8.635,36.7046767 L9.999,36.7046767 C8.475,40.1386767 8.691,44.0356767 10.666,47.1396767 C13.276,51.2416767 17.734,53.6906767 22.591,53.6906767 C25.41,53.6906767 28.002,52.9976767 30,51.7516767 L30,54.7046767 C30,55.2566767 30.447,55.7046767 31,55.7046767 L45,55.7046767 C45.553,55.7046767 46,55.2566767 46,54.7046767 L46,47.7046767 L55,47.7046767 C55.553,47.7046767 56,47.2566767 56,46.7046767 L56,38.7046767 C56,38.1526767 55.553,37.7046767 55,37.7046767 L55,37.7046767 Z" id="Fill-1"></path>
        </g>
    </g>
</svg>