<?xml version="1.0" encoding="UTF-8"?>
<svg width="80px" height="80px" viewBox="0 0 80 80" version="1.1" xmlns="http://www.w3.org/2000/svg" xmlns:xlink="http://www.w3.org/1999/xlink">
    <title>Icon-Architecture/64/Arch_Amazon-Security-Lake_64</title>
    <g id="Icon-Architecture/64/Arch_Amazon-Security-Lake_64" stroke="none" stroke-width="1" fill="none" fill-rule="evenodd">
        <g id="Icon-Architecture-BG/64/Security-Identity-Compliance" fill="#DD344C">
            <rect id="Rectangle" x="0" y="0" width="80" height="80"></rect>
        </g>
        <path d="M41,23.378051 L41,37.987051 L43,37.987051 L43,22.673051 C43,22.251051 42.734,21.874051 42.336,21.732051 L30.336,17.446051 C30.119,17.369051 29.881,17.369051 29.664,17.446051 L17.664,21.732051 C17.266,21.874051 17,22.251051 17,22.673051 L17,41.530051 C17,44.544051 20.081,52.816051 30,52.816051 L30,50.816051 C20.912,50.816051 19,43.058051 19,41.530051 L19,23.378051 L29,19.807051 L29,41.987051 L31,41.987051 L31,19.807051 L41,23.378051 Z M63.248,61.191051 L61.248,61.191051 C61.248,63.839051 59.094,65.993051 56.446,65.993051 C53.799,65.993051 51.645,63.839051 51.645,61.191051 L49.645,61.191051 C49.645,63.839051 47.49,65.993051 44.843,65.993051 C42.194,65.993051 40.04,63.839051 40.04,61.191051 L38.04,61.191051 C38.04,63.839051 35.886,65.993051 33.238,65.993051 L33.238,67.993051 C35.69,67.993051 37.843,66.690051 39.04,64.738051 C40.237,66.690051 42.391,67.993051 44.843,67.993051 C47.294,67.993051 49.447,66.689051 50.645,64.738051 C51.842,66.689051 53.995,67.993051 56.446,67.993051 C58.898,67.993051 61.051,66.690051 62.248,64.738051 C63.445,66.690051 65.599,67.993051 68.051,67.993051 L68.051,65.993051 C65.402,65.993051 63.248,63.839051 63.248,61.191051 L63.248,61.191051 Z M63.248,51.404051 L61.248,51.404051 C61.248,54.052051 59.094,56.207051 56.446,56.207051 C53.799,56.207051 51.645,54.052051 51.645,51.404051 L49.645,51.404051 C49.645,54.052051 47.49,56.207051 44.843,56.207051 C42.194,56.207051 40.04,54.052051 40.04,51.404051 L38.04,51.404051 C38.04,54.052051 35.886,56.207051 33.238,56.207051 L33.238,58.207051 C35.69,58.207051 37.843,56.902051 39.04,54.952051 C40.237,56.902051 42.391,58.207051 44.843,58.207051 C47.294,58.207051 49.447,56.902051 50.645,54.952051 C51.842,56.902051 53.995,58.207051 56.446,58.207051 C58.898,58.207051 61.051,56.902051 62.248,54.952051 C63.445,56.902051 65.599,58.207051 68.051,58.207051 L68.051,56.207051 C65.402,56.207051 63.248,54.052051 63.248,51.404051 L63.248,51.404051 Z M63.248,41.485051 L61.248,41.485051 C61.248,44.133051 59.094,46.287051 56.446,46.287051 C53.799,46.287051 51.645,44.133051 51.645,41.485051 L49.645,41.485051 C49.645,44.133051 47.49,46.287051 44.843,46.287051 C42.194,46.287051 40.04,44.133051 40.04,41.485051 L38.04,41.485051 C38.04,44.133051 35.886,46.287051 33.238,46.287051 L33.238,48.287051 C35.69,48.287051 37.843,46.983051 39.04,45.032051 C40.237,46.983051 42.391,48.287051 44.843,48.287051 C47.294,48.287051 49.447,46.983051 50.645,45.032051 C51.842,46.983051 53.995,48.287051 56.446,48.287051 C58.898,48.287051 61.051,46.983051 62.248,45.032051 C63.445,46.983051 65.599,48.287051 68.051,48.287051 L68.051,46.287051 C65.402,46.287051 63.248,44.133051 63.248,41.485051 L63.248,41.485051 Z M30.516,56.205051 L30.516,58.205051 C21.487,58.205051 16.982,53.680051 14.792,49.885051 C12.078,45.181051 12,40.238051 12,39.690051 L12,19.672051 C12,19.257051 12.256,18.885051 12.644,18.737051 L30.159,12.065051 C30.396,11.976051 30.657,11.978051 30.891,12.073051 L47.375,18.745051 C47.753,18.898051 48,19.265051 48,19.672051 L48,37.987051 L46,37.987051 L46,20.346051 L30.505,14.074051 L14,20.361051 L14,39.690051 C14,40.364051 14.188,56.205051 30.516,56.205051 L30.516,56.205051 Z" id="Fill-8" fill="#FFFFFF"></path>
    </g>
</svg>