<svg width="80" height="80" viewBox="0 0 80 80" fill="none" xmlns="http://www.w3.org/2000/svg">
<g id="Icon-Architecture/64/Arch_AWS-Security-Incident-Response_64">
<g id="Icon-Architecture-BG/64/Security-Identity-Compliance">
<rect id="Rectangle" width="80" height="80" fill="#DD344C"/>
</g>
<g id="Icon-Service/64/AWS-Security-Incident-Response_64">
<path id="Vector" d="M19.4961 50.6357L17.709 51.5342C12.4775 41.1323 15.2402 27.7764 24.1348 20.4663C32.3613 13.7026 44.8447 13.2524 54.1562 19.0879L52.9658 13.5039L54.9209 13.0869L56.6406 21.1519C56.6963 21.4111 56.6465 21.6821 56.502 21.9043C56.3574 22.127 56.1309 22.2832 55.8711 22.3384L47.8057 24.0576L47.3896 22.1016L53.2168 20.8594C44.6035 15.3818 33.0156 15.7554 25.4043 22.0112C17.2148 28.7427 14.6738 41.0483 19.4961 50.6357ZM62.3086 28.1162L60.5215 29.0146C65.4053 38.7246 62.9219 50.7261 54.6172 57.5522C46.9853 63.8252 36.2402 64.249 27.7939 58.8271L33.6279 57.5835L33.2099 55.6274L25.1455 57.3467C24.8867 57.4019 24.6602 57.5581 24.5156 57.7808C24.3711 58.0029 24.3213 58.2739 24.377 58.5332L26.0967 66.5981L28.0518 66.1812L26.8633 60.6064C36.0176 66.3975 47.6211 65.8916 55.8867 59.0972C64.9072 51.6831 67.6074 38.6533 62.3086 28.1162ZM52.3936 27.3618C52.7627 27.519 53.002 27.8809 53.002 28.2817V42.8198C53.002 42.9614 52.8535 56.9937 40.002 56.9937C27.1504 56.9937 27.002 42.9233 27.002 42.7813V28.2817C27.002 27.8809 27.2412 27.519 27.6104 27.3618L39.6103 22.249C39.8603 22.1426 40.1436 22.1426 40.3936 22.249L52.3936 27.3618ZM51.002 28.9429L40.002 24.2559L29.002 28.9429V42.7812C29.0029 43.2788 29.1592 54.9936 40.002 54.9936C50.8447 54.9936 51.001 43.3154 51.002 42.8184V28.9429ZM40.3936 26.5972L48.3936 30.0054C48.7627 30.1626 49.002 30.5244 49.002 30.9253V42.8198C48.9473 47.5195 46.5576 52.9936 40.002 52.9936C33.4453 52.9936 31.0557 47.4863 31.002 42.77V30.9253C31.002 30.5244 31.2412 30.1626 31.6103 30.0054L39.6103 26.5972C39.8603 26.4907 40.1436 26.4907 40.3936 26.5972ZM39.002 50.9307V29.0301L33.002 31.5864V42.7588C33.0232 44.5757 33.5396 50.3042 39.002 50.9307ZM47.002 31.5864L41.002 29.0301V50.9312C46.4635 50.3093 46.9807 44.6227 47.002 42.8081V31.5864Z" fill="white"/>
</g>
</g>
</svg>
