<svg width="24" height="24" viewBox="0 0 24 24" fill="none" xmlns="http://www.w3.org/2000/svg">
<g clip-path="url(#clip0_536_4462)">
<rect width="24" height="24" fill="#01A88D"/>
<path d="M16.8592 13.996C16.8485 14.0375 16.8333 14.077 16.8213 14.118V14C16.8343 14 16.8463 13.9962 16.8592 13.996ZM17.4961 8.5205C17.499 8.47655 17.5 8.43261 17.5 8.38866C17.5 7.19384 16.5547 6.22216 15.3926 6.22216C14.9824 6.22216 14.5908 6.34374 14.2578 6.56445C13.5801 5.0205 12.0898 4 10.3926 4C8.04882 3.99999 6.14257 5.96874 6.14257 8.38866C6.14257 8.46727 6.1455 8.54491 6.14941 8.62206C4.88086 9.06786 4 10.3047 4 11.7222C4 13.5298 5.42578 15 7.17871 15H13C14.1025 15 15 14.103 15 13C15 11.897 14.1025 11 13 11C11.8975 11 11 11.897 11 13H12C12 12.4487 12.4482 12 13 12C13.5518 12 14 12.4487 14 13C14 13.5513 13.5518 14 13 14H7.1787C5.97753 14 4.99999 12.978 4.99999 11.7222C4.99999 10.6221 5.75097 9.68066 6.78612 9.48339C7.04979 9.4331 7.22655 9.18407 7.18651 8.91845C7.16112 8.7456 7.14256 8.56982 7.14256 8.38866C7.14256 6.52001 8.60057 4.99999 10.3926 4.99999C11.9043 4.99999 13.2041 6.07177 13.5527 7.60692C13.5976 7.80516 13.7578 7.95604 13.958 7.98924C14.1553 8.02342 14.3594 7.93162 14.4658 7.75779C14.6719 7.42234 15.0185 7.22215 15.3926 7.22215C16.0029 7.22215 16.5 7.74559 16.5 8.38865C16.5 8.51463 16.4765 8.64451 16.4277 8.78611C16.376 8.93601 16.3984 9.10203 16.4892 9.23289C16.5791 9.36375 16.7265 9.44383 16.8857 9.44871C18.0713 9.48435 19 10.4829 19 11.7221C19 12.5522 18.5685 13.2726 17.9322 13.6708C17.875 14.0914 17.7817 14.4994 17.6263 14.8803C18.9882 14.5101 20 13.2412 20 11.7221C20 10.144 18.9385 8.83642 17.4961 8.5205ZM13 8.99999C11.7995 8.99999 10.7337 9.54235 9.99999 10.3822V8.44921L10.3336 8.78686C10.6279 8.5979 10.9422 8.44055 11.2746 8.31658L9.87304 6.89843C9.78027 6.80419 9.65331 6.75097 9.5205 6.74999C9.34862 6.72802 9.25976 6.80077 9.16601 6.89452L7.72967 8.3142C8.06109 8.43688 8.37927 8.59295 8.67797 8.78289L8.99999 8.46465V13H9.99999C9.99999 11.3457 11.3457 9.99999 13 9.99999C14.6543 9.99999 16 11.3457 16 13C16 14.603 14.3838 16.8237 13 18.6675C12.3671 17.8243 11.6949 16.9044 11.1457 16H9.9915C10.6637 17.2134 11.5756 18.4371 12.3896 19.5195L12.5996 19.7998C12.6943 19.9258 12.8428 20 13 20C13.1572 20 13.3056 19.9258 13.4004 19.7998L13.6103 19.5195C15.1211 17.5107 17 15.0107 17 13C17 10.7944 15.206 8.99999 13 8.99999Z" fill="white"/>
</g>
<defs>
<clipPath id="clip0_536_4462">
<rect width="24" height="24" fill="white"/>
</clipPath>
</defs>
</svg>
