<?xml version="1.0" encoding="UTF-8"?>
<svg width="24px" height="24px" viewBox="0 0 24 24" version="1.1" xmlns="http://www.w3.org/2000/svg" xmlns:xlink="http://www.w3.org/1999/xlink">
    <title>Icon-Architecture/16/Arch_AWS-Mainframe-Modernization_16</title>
    <g id="Icon-Architecture/16/Arch_AWS-Mainframe-Modernization_16" stroke="none" stroke-width="1" fill="none" fill-rule="evenodd">
        <g id="Icon-Architecture-BG/16/Migration-Transfer" fill="#01A88D">
            <rect id="Rectangle" x="0" y="0" width="24" height="24"></rect>
        </g>
        <g id="Icon-Service/16/AWS-Mainframe-Modernization_16" transform="translate(4.300000, 4.000000)" fill="#FFFFFF">
            <path d="M14.381,6.995 C14.381,6 13.743,4.943 12.562,4.943 C12.285,4.943 12.062,4.72 12.062,4.443 C12.062,3.966 11.907,2.856 10.475,2.856 L10.242,2.856 C10.061,2.856 9.893,2.757 9.805,2.598 C9.25,1.598 8.2,1 6.995,1 C5.225,1 3.784,2.441 3.784,4.211 C3.784,4.488 3.561,4.711 3.284,4.711 C2.025,4.711 1,5.736 1,6.995 C1,7.292 1.089,8.537 2.233,9 L4.979,6.856 L10.443,6.856 L13.111,8.94 C13.804,8.609 14.308,7.961 14.373,7.19 C14.379,7.125 14.381,7.06 14.381,6.995 L14.381,6.995 Z M12.019,9.356 L10.099,7.856 L5.322,7.856 L3.402,9.356 L5.322,10.856 L10.099,10.856 L12.019,9.356 Z M15.381,6.995 C15.381,7.09 15.377,7.183 15.369,7.276 C15.247,8.719 14.1,9.881 12.657,10.126 L10.443,11.856 L4.979,11.856 L2.792,10.149 C0.877,9.96 0,8.48 0,6.995 C0,5.346 1.223,3.976 2.81,3.745 C3.042,1.642 4.831,0 6.995,0 C8.464,0 9.762,0.689 10.525,1.856 C11.886,1.876 12.844,2.708 13.029,3.981 C14.399,4.209 15.381,5.429 15.381,6.995 L15.381,6.995 Z M12.281,12.08 L12.897,12.868 L10.352,14.856 L5.19,14.856 L2.645,12.868 L3.26,12.08 L5.533,13.856 L10.008,13.856 L12.281,12.08 Z" id="Fill-7"></path>
        </g>
    </g>
</svg>