<svg width="24" height="24" viewBox="0 0 24 24" fill="none" xmlns="http://www.w3.org/2000/svg">
<rect width="24" height="24" fill="#01A88D"/>
<path d="M9.99999 12V8.21143L9.35253 8.8545L8.64745 8.14552L10.1572 6.64552C10.2519 6.55128 10.4111 6.52882 10.5117 6.50001C10.6436 6.5005 10.7715 6.55372 10.8643 6.64747L12.3545 8.14747L11.6455 8.85255L11 8.20259V12L9.99999 12ZM14 20H15V17H14V20ZM9.99999 20H11V16H9.99999V20ZM12 20H13V19H12V20ZM12.5 13H8.49999C8.22362 13 7.99999 13.2236 7.99999 13.5V17.5C7.99999 17.7764 8.22362 18 8.49999 18H8.99999V14H12V18H12.5C12.7764 18 13 17.7764 13 17.5V13.5C13 13.2236 12.7764 13 12.5 13ZM17.5 8.39697C17.4824 7.15136 16.4639 6.14306 15.2139 6.14306C14.9482 6.14306 14.6875 6.18896 14.4414 6.27734C13.667 4.87841 12.2002 4 10.5713 4C8.1289 4 6.14257 5.98682 6.14257 8.42871C6.14257 8.45752 6.14257 8.48633 6.14355 8.51514C4.8623 9.00928 4 10.2412 4 11.6431C4 13.3718 5.31824 14.7827 7 14.9639V13.9639C5.87042 13.7901 5 12.8205 5 11.6431C5 10.5586 5.73633 9.61866 6.79004 9.35791C7.03418 9.29736 7.19531 9.06543 7.16699 8.81592C7.15234 8.68848 7.14258 8.56006 7.14258 8.42871C7.14258 6.53809 8.68067 5 10.5713 5C11.9727 5 13.2197 5.84033 13.7481 7.14014C13.8047 7.28028 13.9219 7.38721 14.0664 7.43067C14.209 7.47462 14.3672 7.45069 14.4922 7.36524C14.7061 7.21973 14.9551 7.14307 15.2139 7.14307C15.9229 7.14307 16.5 7.71973 16.5 8.42871C16.5 8.51807 16.4902 8.60644 16.4707 8.69824C16.4404 8.83642 16.4707 8.98144 16.5527 9.09619C16.6357 9.21142 16.7637 9.28564 16.9043 9.30127C18.0986 9.43262 19 10.4395 19 11.6431C19 12.4367 18.6029 13.1364 18 13.5637V14.7077C19.1757 14.1849 20 13.0104 20 11.6431C20 10.0962 18.9551 8.77734 17.5 8.39697ZM16.5 11H12.5C12.2236 11 12 11.2236 12 11.5V12H16V15H14V16H16.5C16.7764 16 17 15.7764 17 15.5V11.5C17 11.2236 16.7764 11 16.5 11Z" fill="white"/>
</svg>
