<?xml version="1.0" encoding="UTF-8"?>
<svg width="48px" height="48px" viewBox="0 0 48 48" version="1.1" xmlns="http://www.w3.org/2000/svg" xmlns:xlink="http://www.w3.org/1999/xlink">
    <title>Icon-Resource/Migration-and-Transfer/Res_AWS-Transfer-Family_AWS-AS2_48</title>
    <g id="Icon-Resource/Migration-and-Transfer/Res_AWS-Transfer-Family_AWS-AS2_48" stroke="none" stroke-width="1" fill="none" fill-rule="evenodd">
        <path d="M33.49,42.0302 C33.899,41.4232 34.181,40.9112 34.336,40.4932 C34.491,40.0752 34.568,39.6732 34.568,39.2852 C34.568,38.5282 34.37,37.9312 33.974,37.4962 C33.578,37.0622 33.036,36.8442 32.346,36.8442 C31.933,36.8442 31.529,36.9132 31.133,37.0512 C30.736,37.1892 30.319,37.4042 29.88,37.6972 L29.88,39.1822 C30.698,38.6392 31.383,38.3682 31.933,38.3682 C32.192,38.3682 32.389,38.4542 32.527,38.6272 C32.665,38.7992 32.734,39.0492 32.734,39.3762 C32.734,39.7722 32.644,40.1812 32.463,40.6032 C32.282,41.0252 31.978,41.5502 31.553,42.1782 C31.126,42.8072 30.509,43.6472 29.699,44.6972 L29.699,45.9892 L34.84,45.9892 L34.84,44.5302 L31.624,44.5302 C32.459,43.4702 33.081,42.6372 33.49,42.0302 L33.49,42.0302 Z M27.858,41.6362 C27.595,41.3952 27.24,41.1542 26.793,40.9132 L26.095,40.5382 C25.717,40.3322 25.46,40.1422 25.327,39.9702 C25.193,39.7982 25.127,39.5782 25.127,39.3112 C25.127,38.9922 25.23,38.7432 25.436,38.5622 C25.643,38.3812 25.928,38.2912 26.289,38.2912 C26.823,38.2912 27.438,38.4202 28.136,38.6782 L28.136,37.3092 C27.465,36.9992 26.788,36.8442 26.108,36.8442 C25.565,36.8442 25.086,36.9492 24.668,37.1602 C24.25,37.3722 23.921,37.6732 23.679,38.0652 C23.438,38.4572 23.318,38.9152 23.318,39.4402 C23.318,40.0092 23.456,40.4912 23.731,40.8872 C24.007,41.2832 24.464,41.6542 25.1,41.9982 L25.799,42.3722 C26.151,42.5622 26.403,42.7492 26.553,42.9342 C26.704,43.1192 26.78,43.3452 26.78,43.6132 C26.78,43.9742 26.672,44.2522 26.457,44.4462 C26.242,44.6392 25.928,44.7362 25.514,44.7362 C25.23,44.7362 24.887,44.6962 24.487,44.6132 C24.087,44.5312 23.727,44.4302 23.409,44.3102 L23.409,45.6662 C23.684,45.8212 24.024,45.9462 24.429,46.0412 C24.834,46.1352 25.238,46.1832 25.643,46.1832 C26.573,46.1832 27.303,45.9442 27.833,45.4662 C28.362,44.9882 28.627,44.3402 28.627,43.5222 C28.627,43.1002 28.564,42.7402 28.439,42.4442 C28.314,42.1462 28.121,41.8772 27.858,41.6362 L27.858,41.6362 Z M19.999,42.5662 L19.185,38.8592 L18.397,42.5662 L19.999,42.5662 Z M20.258,37.0382 L22.724,45.9892 L20.735,45.9892 L20.27,43.8582 L18.127,43.8582 L17.675,45.9892 L15.775,45.9892 L18.256,37.0382 L20.258,37.0382 Z M45.609,10.8922 L36.998,2.2812 C36.623,1.9062 35.959,1.9062 35.584,2.2812 L26.973,10.8922 C26.687,11.1782 26.601,11.6092 26.757,11.9822 C26.911,12.3562 27.276,12.5992 27.68,12.5992 L32.062,12.5992 L32.062,16.9812 L32.062,21.2862 L32.062,24.5162 C32.062,25.0682 32.51,25.5162 33.062,25.5162 L36.03,25.5162 L29.833,31.7132 L23.636,25.5162 L26.604,25.5162 C27.157,25.5162 27.604,25.0682 27.604,24.5162 L27.604,16.9812 L25.604,16.9812 L25.604,23.5162 L21.221,23.5162 C20.817,23.5162 20.452,23.7592 20.298,24.1332 C20.142,24.5072 20.228,24.9372 20.514,25.2232 L29.126,33.8342 C29.321,34.0292 29.577,34.1272 29.833,34.1272 C30.089,34.1272 30.344,34.0292 30.54,33.8342 L39.151,25.2232 C39.437,24.9372 39.523,24.5072 39.368,24.1332 C39.214,23.7592 38.848,23.5162 38.444,23.5162 L34.062,23.5162 L34.062,21.2862 L34.062,16.9812 L34.062,11.5992 C34.062,11.0472 33.615,10.5992 33.062,10.5992 L30.094,10.5992 L36.291,4.4022 L42.488,10.5992 L39.52,10.5992 C38.968,10.5992 38.52,11.0472 38.52,11.5992 L38.52,19.2102 L36.291,19.2102 L36.291,21.2102 L41.75,21.2102 L41.75,43.9672 L39.456,43.9672 L39.456,45.9672 L42.75,45.9672 C43.303,45.9672 43.75,45.5192 43.75,44.9672 L43.75,20.2102 C43.75,19.6582 43.303,19.2102 42.75,19.2102 L40.52,19.2102 L40.52,12.5992 L44.902,12.5992 C45.306,12.5992 45.672,12.3562 45.826,11.9822 C45.981,11.6082 45.895,11.1782 45.609,10.8922 L45.609,10.8922 Z M9.08,43.9672 L11.535,43.9672 L11.535,45.9672 L6.152,45.9672 C4.414,45.9672 3,44.5522 3,42.8142 L3,12.6762 C3,12.1232 3.447,11.6762 4,11.6762 L15.922,11.6762 C16.231,11.6762 16.524,11.8192 16.714,12.0642 L18.906,14.9052 L23.375,14.9052 L23.375,16.9052 L18.415,16.9052 C18.105,16.9052 17.812,16.7612 17.623,16.5162 L15.43,13.6762 L5,13.6762 L5,42.8142 C5,43.4502 5.516,43.9672 6.152,43.9672 C6.788,43.9672 7.305,43.4502 7.305,42.8142 L7.305,20.2102 C7.305,19.6582 7.753,19.2102 8.305,19.2102 L23.375,19.2102 L23.375,21.2102 L9.305,21.2102 L9.305,42.8142 C9.305,43.2222 9.222,43.6092 9.08,43.9672 L9.08,43.9672 Z" id="Fill-1" fill="#01A88D"></path>
    </g>
</svg>