<?xml version="1.0" encoding="UTF-8"?>
<svg width="48px" height="48px" viewBox="0 0 48 48" version="1.1" xmlns="http://www.w3.org/2000/svg" xmlns:xlink="http://www.w3.org/1999/xlink">
    <title>Icon-Resource/Migration-and-Transfer/Res_AWS-Application-Discovery-Service_Migration-Evaluator-Collector_48</title>
    <g id="Icon-Resource/Migration-and-Transfer/Res_AWS-Application-Discovery-Service_Migration-Evaluator-Collector_48" stroke="none" stroke-width="1" fill="none" fill-rule="evenodd">
        <path d="M14.859,18.1156 L13,16.2196 L13,22.9956 C13,23.5486 12.552,23.9956 12,23.9956 L7.363,23.9956 C6.512,23.9956 5.81,23.8156 5.213,23.4456 C4.014,22.7036 2,20.9616 2,17.6406 C2,14.8226 3.503,12.6586 6.065,11.7126 L6.056,11.5666 C6.054,8.2786 8.251,4.9296 11.164,3.7176 C14.563,2.3016 18.16,3.0076 20.79,5.6006 C21.486,6.2876 22.076,7.0986 22.549,8.0226 C23.598,7.3736 24.899,7.1976 26.112,7.6026 C27.692,8.1306 28.729,9.4826 28.999,11.3046 C30.509,11.3066 32.129,11.6026 32.84,12.7106 L31.159,13.7916 C30.997,13.5416 30.035,13.1976 28.133,13.3376 C27.82,13.3596 27.534,13.2436 27.327,13.0216 C27.12,12.7986 27.026,12.4946 27.07,12.1946 C27.068,10.8506 26.489,9.8376 25.478,9.4996 C24.571,9.1966 23.567,9.5146 22.983,10.2916 C22.761,10.5856 22.394,10.7356 22.034,10.6796 C21.671,10.6246 21.367,10.3746 21.242,10.0296 C20.809,8.8236 20.184,7.8126 19.385,7.0246 C18.407,6.0596 15.718,3.9846 11.933,5.5636 C9.795,6.4536 8.054,9.1196 8.054,11.5066 L8.108,12.3746 C8.137,12.8546 7.82,13.2876 7.354,13.4046 C6.101,13.7196 4,14.6896 4,17.6406 C4,19.8736 5.233,21.1056 6.267,21.7446 C6.539,21.9136 6.897,21.9956 7.364,21.9956 L11,21.9956 L11,16.2386 L9.133,18.1046 L7.719,16.6906 L11.319,13.0906 C11.506,12.9036 11.76,12.7976 12.026,12.7976 L12.031,12.7976 C12.297,12.7996 12.553,12.9076 12.74,13.0976 L16.287,16.7156 L14.859,18.1156 Z M27,32.9956 C23.691,32.9956 21,30.3036 21,26.9936 C21,23.6836 23.691,20.9906 27,20.9906 C30.308,20.9906 33,23.6836 33,26.9936 C33,30.3036 30.308,32.9956 27,32.9956 L27,32.9956 Z M27,18.9906 C22.588,18.9906 19,22.5806 19,26.9936 C19,31.4066 22.588,34.9956 27,34.9956 C31.411,34.9956 35,31.4066 35,26.9936 C35,22.5806 31.411,18.9906 27,18.9906 L27,18.9906 Z M43.496,43.4906 C43.173,43.8166 42.753,43.9956 42.309,43.9956 C41.893,43.9956 41.505,43.8346 41.214,43.5406 L34.267,36.5186 C35.167,35.8286 35.965,35.0156 36.639,34.1016 L43.547,41.1396 C44.171,41.7746 44.147,42.8286 43.496,43.4906 L43.496,43.4906 Z M17.008,26.9956 C17.008,21.4816 21.491,16.9956 27,16.9956 C32.508,16.9956 36.99,21.4816 36.99,26.9956 C36.99,32.5106 32.508,36.9956 27,36.9956 C21.491,36.9956 17.008,32.5106 17.008,26.9956 L17.008,26.9956 Z M44.975,39.7386 L37.718,32.3436 C38.524,30.7316 38.99,28.9186 38.99,26.9956 C38.99,20.3796 33.611,14.9956 27,14.9956 C20.387,14.9956 15.008,20.3796 15.008,26.9956 C15.008,33.6126 20.387,38.9956 27,38.9956 C29.001,38.9956 30.886,38.4956 32.547,37.6246 L39.792,44.9456 C40.46,45.6226 41.353,45.9956 42.308,45.9956 L42.309,45.9956 C43.292,45.9956 44.219,45.6046 44.92,44.8936 C46.333,43.4596 46.357,41.1476 44.975,39.7386 L44.975,39.7386 Z" id="Fill-1" fill="#01A88D"></path>
    </g>
</svg>