<?xml version="1.0" encoding="UTF-8"?>
<svg width="48px" height="48px" viewBox="0 0 48 48" version="1.1" xmlns="http://www.w3.org/2000/svg" xmlns:xlink="http://www.w3.org/1999/xlink">
    <title>Icon-Resource/Migration-and-Transfer/Res_AWS-DataSync_Discovery_48</title>
    <g id="Icon-Resource/Migration-and-Transfer/Res_AWS-DataSync_Discovery_48" stroke="none" stroke-width="1" fill="none" fill-rule="evenodd">
        <path d="M13.0081,28.0372862 L13.0081,10.0372862 L19.0081,10.0372862 L19.0081,15.0372862 C19.0081,15.5892862 19.4551,16.0372862 20.0081,16.0372862 L25.0081,16.0372862 L25.0081,28.0372862 L13.0081,28.0372862 Z M21.0081,11.4512862 L23.5941,14.0372862 L21.0081,14.0372862 L21.0081,11.4512862 Z M20.0081,8.03728617 L12.0081,8.03728617 C11.4551,8.03728617 11.0081,8.48528617 11.0081,9.03728617 L11.0081,29.0372862 C11.0081,29.5892862 11.4551,30.0372862 12.0081,30.0372862 L26.0081,30.0372862 C26.5611,30.0372862 27.0081,29.5892862 27.0081,29.0372862 L27.0081,15.0372862 C27.0081,14.7722862 26.9031,14.5172862 26.7151,14.3302862 L20.7151,8.33028617 C20.5281,8.14228617 20.2741,8.03728617 20.0081,8.03728617 L20.0081,8.03728617 Z M33.0081,12.0372862 L46.0081,12.0372862 L46.0081,10.0372862 L33.0081,10.0372862 L33.0081,12.0372862 Z M29.0081,16.0372862 L37.0081,16.0372862 L37.0081,14.0372862 L29.0081,14.0372862 L29.0081,16.0372862 Z M39.0081,16.0372862 L44.0081,16.0372862 L44.0081,14.0372862 L39.0081,14.0372862 L39.0081,16.0372862 Z M31.0081,20.0372862 L45.0081,20.0372862 L45.0081,18.0372862 L31.0081,18.0372862 L31.0081,20.0372862 Z M43.0901,43.1162862 C41.9481,44.2742862 39.9931,44.3112862 38.8881,43.1942862 L28.3931,32.5722862 C30.0091,31.3092862 31.3961,29.7432862 32.4661,27.9402862 L43.1721,38.8292862 C44.3141,39.9912862 44.2781,41.9142862 43.0901,43.1162862 L43.0901,43.1162862 Z M33.4181,26.0552862 C33.8311,25.1082862 34.1731,24.1172862 34.4141,23.0802862 L32.4671,22.6262862 C31.0281,28.8042862 25.9601,33.3462862 19.8591,33.9292862 C11.9311,34.6832862 4.8571,28.6002862 4.0701,20.3682862 C3.2851,12.1342862 9.0891,4.82028617 17.0081,4.06428617 C21.5341,3.63128617 25.9081,5.38628617 29.0121,8.87528617 L30.5061,7.54628617 C26.9751,3.57528617 21.9751,1.58228617 16.8191,2.07328617 C7.8021,2.93428617 1.1901,11.2262862 2.0801,20.5582862 C2.9201,29.3602862 10.1421,35.9922862 18.5291,35.9922862 C19.0311,35.9922862 19.5381,35.9682862 20.0481,35.9202862 C22.4551,35.6902862 24.7131,34.9122862 26.7131,33.7172862 L37.4651,44.5992862 C38.3821,45.5272862 39.6081,46.0372862 40.9191,46.0372862 L40.9201,46.0372862 C42.2721,46.0372862 43.5481,45.4982862 44.5141,44.5212862 C46.4641,42.5462862 46.5021,39.3642862 44.5981,37.4272862 L33.4181,26.0552862 Z" id="Fill-1" fill="#01A88D"></path>
    </g>
</svg>