<svg width="40" height="40" viewBox="0 0 40 40" fill="none" xmlns="http://www.w3.org/2000/svg">
<rect width="40" height="40" fill="#8C4FFF"/>
<path d="M31.7168 15.7151L28 13.9314V10.4055C28 10.2312 27.9092 10.0696 27.7607 9.97875L23.835 7.57885C23.6797 7.48412 23.4854 7.48168 23.3262 7.57153L19.5019 9.75952L15.6777 7.57153C15.5254 7.48364 15.3359 7.48364 15.1816 7.57153L11.2519 9.81469C11.0967 9.90356 11 10.0691 11 10.2488V13.7844L7.26953 15.7224C7.10351 15.8088 7 15.9797 7 16.1663V23.8455C7 24.0378 7.11035 24.2131 7.2832 24.2961L11 26.0798V29.6057C11 29.78 11.0908 29.9416 11.2393 30.0325L15.166 32.4324C15.3223 32.5276 15.5166 32.5305 15.6748 32.4397L19.5 30.2517L23.3252 32.4397C23.4024 32.4836 23.4873 32.5056 23.5733 32.5056C23.6641 32.5056 23.7539 32.4812 23.834 32.4324L27.7608 30.0325C27.9092 29.9416 28 29.78 28 29.6057V26.0798L31.7168 24.2961C31.8897 24.2131 32 24.0378 32 23.8455V16.1658C32 15.9734 31.8897 15.7981 31.7168 15.7151ZM19.5 21.6511L18.0801 20.8274V19.1946L19.5 18.3616L20.9199 19.1946V20.8274L19.5 21.6511ZM15.4356 31.4246L12 29.3254V25.7654C12 25.573 11.8897 25.3977 11.7168 25.3147L8 23.531V16.47L11.7305 14.532C11.8965 14.446 12 14.2747 12 14.0881V10.5393L15.4297 8.58128L19.001 10.625V17.4952L17.3271 18.4773C17.1738 18.5671 17.0801 18.7312 17.0801 18.9084V21.1155C17.0801 21.2937 17.1748 21.4587 17.3291 21.5481L19.001 22.5179V29.385L15.4356 31.4246ZM31 23.531L27.2832 25.3147C27.1103 25.3977 27 25.573 27 25.7654V29.3254L23.5644 31.4245L20.001 29.3861V22.5168L21.6709 21.5481C21.8252 21.4587 21.9199 21.2937 21.9199 21.1155V18.9084C21.9199 18.7312 21.8262 18.5671 21.6728 18.4773L20.001 17.4963V10.6261L23.5654 8.58665L27 10.6858V14.2458C27 14.4382 27.1103 14.6135 27.2832 14.6965L31 16.4802L31 23.531Z" fill="white"/>
</svg>
