<?xml version="1.0" encoding="UTF-8"?>
<svg width="24px" height="24px" viewBox="0 0 24 24" version="1.1" xmlns="http://www.w3.org/2000/svg" xmlns:xlink="http://www.w3.org/1999/xlink">
    <title>Icon-Architecture/16/Arch_Amazon-Chime-SDK_16</title>
    <g id="Icon-Architecture/16/Arch_Amazon-Chime-SDK_16" stroke="none" stroke-width="1" fill="none" fill-rule="evenodd">
        <g id="Icon-Architecture-BG/16/Business-Applications" fill="#DD344C">
            <rect id="Rectangle" x="0" y="0" width="24" height="24"></rect>
        </g>
        <g id="Icon-Service/16/Amazon-Chime-SDK_16" transform="translate(4.000000, 4.000000)" fill="#FFFFFF">
            <path d="M8,11.207 L7.146,10.353 C7.053,10.26 7,10.133 7,10 L6,10 L6,9 L7,9 L7,8.768 L6,8.101 L5,8.768 L5,10.197 L5.872,11.165 L5.128,11.834 L4.128,10.724 C4.046,10.632 4,10.513 4,10.389 L4,8.768 L3,8.101 L2,8.768 L2,10 C2,10.133 1.947,10.26 1.854,10.353 L1,11.207 L1,12.185 L1.254,12.314 L2.776,11.553 L3.224,12.447 L2,13.059 L2,14.225 L3.037,14.922 L3.776,14.553 C3.846,14.518 3.923,14.5 4,14.5 L4,13.022 L5,13.022 L5,14.5 C5.077,14.5 5.154,14.518 5.224,14.553 L5.963,14.922 L7,14.225 L7,13 C7,12.812 7.105,12.64 7.273,12.554 L8,12.185 L8,11.207 Z M9,11 L9,12.492 C9,12.68 8.895,12.852 8.727,12.937 L8,13.307 L8,14.492 C8,14.658 7.917,14.814 7.779,14.907 L6.279,15.915 C6.195,15.971 6.098,16 6,16 C5.924,16 5.847,15.982 5.776,15.947 L4.882,15.5 L4.118,15.5 L3.224,15.947 C3.064,16.028 2.87,16.015 2.721,15.915 L1.221,14.907 C1.083,14.814 1,14.658 1,14.492 L1,13.307 L0.273,12.937 C0.105,12.852 0,12.68 0,12.492 L0,11 C0,10.867 0.053,10.74 0.146,10.646 L1,9.793 L1,8.5 C1,8.333 1.084,8.177 1.223,8.084 L2.723,7.084 C2.891,6.972 3.109,6.972 3.277,7.084 L4.5,7.899 L5.723,7.084 C5.891,6.972 6.109,6.972 6.277,7.084 L7.777,8.084 C7.916,8.177 8,8.333 8,8.5 L8,9.793 L8.854,10.646 C8.947,10.74 9,10.867 9,11 L9,11 Z M12,6.022 L12.999,6.022 L12.999,2.022 L12,2.022 L12,6.022 Z M6,5.022 L6.999,5.022 L6.999,3.022 L6,3.022 L6,5.022 Z M8,6.022 L9,6.022 L9,2.022 L8,2.022 L8,6.022 Z M10,5.022 L10.999,5.022 L10.999,3.022 L10,3.022 L10,5.022 Z M11.5,11.166 C11.425,11.166 11.35,11.149 11.28,11.115 C11.108,11.031 11,10.857 11,10.666 L11,9.001 L9,9.001 L9,8.022 L11.5,8.022 C11.776,8.022 12,8.225 12,8.501 L12,9.645 L12.693,9.106 C12.781,9.038 12.889,9.022 13,9.022 L14.608,9.022 C14.775,9.022 15,8.809 15,8.612 L15,1.338 C15,1.152 14.864,1 14.698,1 L4.32,1 C4.143,1 3.998,1.152 3.998,1.338 L3.998,6 L3,6 L3,1.338 C3,0.601 3.591,0 4.32,0 L14.698,0 C15.416,0 16,0.601 16,1.338 L16,8.612 C16,9.352 15.35,10.001 14.608,10.001 L13.171,10.001 L11.807,11.061 C11.717,11.13 11.609,11.166 11.5,11.166 L11.5,11.166 Z" id="Fill-7"></path>
        </g>
    </g>
</svg>