<svg width="24" height="24" viewBox="0 0 24 24" fill="none" xmlns="http://www.w3.org/2000/svg">
<g clip-path="url(#clip0_15_113)">
<rect width="24" height="24" fill="#DD344C"/>
<path d="M18.61 6H7.39C6.63 6 6 6.62 6 7.39V15.52C6 16.34 6.67 17 7.48 17H12V19.01C12 19.2 12.11 19.38 12.28 19.46C12.35 19.49 12.42 19.51 12.5 19.51C12.61 19.51 12.72 19.47 12.81 19.4L15.83 17H18.61C19.37 17 20 16.38 20 15.61V7.39C20 6.63 19.38 6 18.61 6ZM19 15.61C19 15.82 18.83 16 18.61 16H15.66C15.55 16 15.44 16.04 15.35 16.11L13 17.98V16.51C13 16.23 12.78 16.01 12.5 16.01H7.48C7.21 16.01 7 15.79 7 15.53V7.39C7 7.18 7.17 7 7.39 7H18.62C18.83 7 19.01 7.17 19.01 7.39V15.62L19 15.61ZM16.14 5H5.39C5.18 5 5 5.17 5 5.39V16H4.5C4.22 16 4 15.78 4 15.5V5.39C4 4.62 4.62 4 5.39 4H16.15C16.94 4 17.58 4.64 17.58 5.43H16.58C16.58 5.19 16.39 5 16.15 5H16.14ZM15.08 11.5C14.95 11.41 14.81 11.34 14.66 11.28C15.15 10.9 15.47 10.3 15.47 9.63C15.47 8.47 14.53 7.53 13.37 7.53C12.21 7.53 11.27 8.47 11.27 9.63C11.27 10.3 11.59 10.89 12.08 11.28C10.9 11.81 10.07 13.06 10.07 14.51C10.07 14.79 10.29 15.01 10.57 15.01H16.17C16.45 15.01 16.67 14.79 16.67 14.51C16.67 13.27 16.07 12.15 15.08 11.51V11.5ZM13.38 8.53C13.99 8.53 14.48 9.02 14.48 9.63C14.48 10.24 13.99 10.73 13.38 10.73C12.77 10.73 12.28 10.24 12.28 9.63C12.28 9.02 12.77 8.53 13.38 8.53ZM11.13 14C11.34 12.86 12.27 12 13.38 12C13.79 12 14.19 12.12 14.54 12.34C15.11 12.7 15.5 13.31 15.63 14H11.13Z" fill="white"/>
</g>
<defs>
<clipPath id="clip0_15_113">
<rect width="24" height="24" fill="white"/>
</clipPath>
</defs>
</svg>
