<?xml version="1.0" encoding="UTF-8"?>
<svg width="24px" height="24px" viewBox="0 0 24 24" version="1.1" xmlns="http://www.w3.org/2000/svg" xmlns:xlink="http://www.w3.org/1999/xlink">
    <title>Icon-Architecture/16/Arch_AWS-Wickr_16</title>
    <g id="Icon-Architecture/16/Arch_AWS-Wickr_16" stroke="none" stroke-width="1" fill="none" fill-rule="evenodd">
        <g id="Icon-Architecture-BG/16/Business-Applications" fill="#DD344C">
            <rect id="Rectangle" x="0" y="0" width="24" height="24"></rect>
        </g>
        <path d="M9.98,8 L14.019,8 L14.019,6.32 C14.019,5.592 13.325,5 12.472,5 L11.527,5 C10.674,5 9.98,5.592 9.98,6.32 L9.98,8 Z M15,9 L14.019,9 L9.98,9 L9,9 L8,9 L8,15 L16,15 L16,9 L15,9 Z M9,8 L9,6.32 C9,5.041 10.123,4 11.527,4 L12.472,4 C13.876,4 15,5.041 15,6.32 L15,8 L16.5,8 C16.776,8 17,8.224 17,8.5 L17,15.5 C17,15.776 16.776,16 16.5,16 L7.5,16 C7.223,16 7,15.776 7,15.5 L7,8.5 C7,8.224 7.223,8 7.5,8 L9,8 Z M18.379,6 L16,6 L16,7 L18.379,7 C18.721,7 19,7.278 19,7.62 L19,16.38 C19,16.722 18.721,17 18.379,17 L11.5,17 C11.223,17 11,17.224 11,17.5 L11,18.566 L8.777,17.084 C8.695,17.029 8.598,17 8.5,17 L5.62,17 C5.278,17 5,16.722 5,16.38 L5,7.62 C5,7.278 5.278,7 5.62,7 L8,7 L8,6 L5.62,6 C4.726,6 4,6.727 4,7.62 L4,16.38 C4,17.273 4.726,18 5.62,18 L8.348,18 L11.222,19.916 C11.306,19.972 11.403,20 11.5,20 C11.581,20 11.662,19.98 11.736,19.941 C11.898,19.854 12,19.685 12,19.5 L12,18 L18.379,18 C19.273,18 20,17.273 20,16.38 L20,7.62 C20,6.727 19.273,6 18.379,6 L18.379,6 Z M13.146,10.146 L13.853,10.854 L10.853,13.854 L10.146,13.146 L13.146,10.146 Z" id="Fill-3" fill="#FFFFFF"></path>
    </g>
</svg>