<?xml version="1.0" encoding="UTF-8"?>
<svg width="24px" height="24px" viewBox="0 0 24 24" version="1.1" xmlns="http://www.w3.org/2000/svg" xmlns:xlink="http://www.w3.org/1999/xlink">
    <title>Icon-Architecture/16/Arch_AWS-Supply-Chain_16</title>
    <g id="Icon-Architecture/16/Arch_AWS-Supply-Chain_16" stroke="none" stroke-width="1" fill="none" fill-rule="evenodd">
        <g id="Icon-Architecture-BG/16/Business-Applications" fill="#DD344C">
            <rect id="Rectangle" x="0" y="0" width="24" height="24"></rect>
        </g>
        <path d="M12.003,14.9385 L15.995,12.7465 L15.995,13.8875 L12.243,15.9475 C12.169,15.9885 12.086,16.0085 12.003,16.0085 C11.92,16.0085 11.837,15.9885 11.763,15.9475 L8.01,13.8875 L8.01,12.7465 L12.003,14.9385 Z M12.503,18.6065 L12.503,16.9935 L11.503,16.9935 L11.503,18.6065 L6,15.2835 L6,8.9145 L11.503,11.9355 L11.503,12.9835 L12.503,12.9835 L12.503,11.9355 L18.005,8.9145 L18.005,15.2835 L12.503,18.6065 Z M12.003,5.0695 L17.466,8.0695 L12.003,11.0685 L6.539,8.0695 L12.003,5.0695 Z M18.745,7.6305 L12.243,4.0615 C12.095,3.9795 11.911,3.9795 11.763,4.0615 L5.26,7.6305 C5.1,7.7185 5,7.8865 5,8.0695 L5,15.5655 C5,15.7415 5.092,15.9035 5.241,15.9945 L11.744,19.9205 C11.824,19.9685 11.913,19.9925 12.003,19.9925 C12.093,19.9925 12.182,19.9685 12.262,19.9205 L18.764,15.9945 C18.913,15.9035 19.005,15.7415 19.005,15.5655 L19.005,8.0695 C19.005,7.8865 18.905,7.7185 18.745,7.6305 L18.745,7.6305 Z" id="Fill-6" fill="#FFFFFF"></path>
    </g>
</svg>