<?xml version="1.0" encoding="UTF-8"?>
<svg width="80px" height="80px" viewBox="0 0 80 80" version="1.1" xmlns="http://www.w3.org/2000/svg" xmlns:xlink="http://www.w3.org/1999/xlink">
    <title>Icon-Architecture/64/Arch_Amazon-Deadline-Cloud_64</title>
    <g id="Icon-Architecture/64/Arch_Amazon-Deadline-Cloud_64" stroke="none" stroke-width="1" fill="none" fill-rule="evenodd">
        <g id="Icon-Architecture-BG/64/Media-Services" fill="#ED7100">
            <rect id="Rectangle" x="0" y="0" width="80" height="80"></rect>
        </g>
        <g id="Icon-Service/64/Amazon-Deadline-Cloud_64" transform="translate(15.000000, 12.000000)" fill="#FFFFFF">
            <path d="M40,20.0005 L40,32.0005 L38.136,32.0005 L38,31.9185 L38,20.6185 L25,14.1185 L12,20.6185 L12,35.4015 L24.506,42.0995 C24.507,42.1255 24.51,42.1515 24.512,42.1775 L23.6,43.8815 L10.528,36.8815 C10.203,36.7085 10,36.3695 10,36.0005 L10,20.0005 C10,19.6215 10.214,19.2755 10.553,19.1055 L24.553,12.1055 C24.834,11.9655 25.166,11.9655 25.447,12.1055 L39.447,19.1055 C39.786,19.2755 40,19.6215 40,20.0005 L40,20.0005 Z M36.999,41.4345 L32.999,43.8345 L29,41.4345 L29,36.5665 L33,34.1665 L37,36.5665 L36.999,41.4345 Z M24,27.5665 L28,25.1665 L32,27.5665 L31.999,32.4345 L27.999,34.8345 L24,32.4345 L24,27.5665 Z M38.515,35.1435 L33.999,32.4335 L34,27.0005 C34,26.6495 33.815,26.3235 33.515,26.1435 L28.515,23.1435 C28.198,22.9525 27.802,22.9525 27.485,23.1435 L22.485,26.1435 C22.185,26.3235 22,26.6495 22,27.0005 L22,33.0005 C22,33.3515 22.185,33.6775 22.485,33.8575 L27,36.5675 L27,42.0005 C27,42.3515 27.185,42.6775 27.485,42.8575 L32.484,45.8575 C32.643,45.9535 32.821,46.0005 32.999,46.0005 C33.177,46.0005 33.355,45.9535 33.514,45.8575 L38.514,42.8575 C38.814,42.6775 38.999,42.3525 38.999,42.0005 L39,36.0005 C39,35.6495 38.815,35.3235 38.515,35.1435 L38.515,35.1435 Z M25.439,6.1155 L44.465,16.1155 C44.794,16.2885 45,16.6285 45,17.0005 L45,39.0005 C45,39.3715 44.795,39.7115 44.466,39.8855 L41.499,41.4485 L41.5,39.1875 L43,38.3965 L43,17.6045 L24.976,8.1305 L7,17.6045 L7,38.3965 L25.024,47.8705 L28.195,46.1995 L30.201,47.4035 L25.491,49.8855 C25.346,49.9615 25.186,50.0005 25.025,50.0005 C24.865,50.0005 24.706,49.9625 24.561,49.8855 L5.535,39.8855 C5.206,39.7125 5,39.3725 5,39.0005 L5,17.0005 C5,16.6295 5.205,16.2895 5.534,16.1155 L24.509,6.1155 C24.8,5.9625 25.148,5.9615 25.439,6.1155 L25.439,6.1155 Z M48,41.4045 L25,53.8635 L2,41.4045 L2,14.5965 L25,2.1375 L48,14.5965 L48,41.4045 Z M49.477,13.1215 L25.477,0.1215 C25.18,-0.0405 24.82,-0.0405 24.523,0.1215 L0.523,13.1215 C0.201,13.2955 0,13.6335 0,14.0005 L0,42.0005 C0,42.3675 0.201,42.7055 0.523,42.8795 L24.523,55.8795 C24.672,55.9605 24.836,56.0005 25,56.0005 C25.164,56.0005 25.328,55.9605 25.477,55.8795 L49.477,42.8795 C49.799,42.7055 50,42.3675 50,42.0005 L50,14.0005 C50,13.6335 49.799,13.2955 49.477,13.1215 L49.477,13.1215 Z" id="Fill-7"></path>
        </g>
    </g>
</svg>