<?xml version="1.0" encoding="UTF-8"?>
<svg width="80px" height="80px" viewBox="0 0 80 80" version="1.1" xmlns="http://www.w3.org/2000/svg" xmlns:xlink="http://www.w3.org/1999/xlink">
    <title>Icon-Architecture/64/Arch_AWS-Thinkbox-XMesh_64</title>
    <g id="Icon-Architecture/64/Arch_AWS-Thinkbox-XMesh_64" stroke="none" stroke-width="1" fill="none" fill-rule="evenodd">
        <g id="Icon-Architecture-BG/64/Compute" fill="#ED7100">
            <rect id="Rectangle" x="0" y="0" width="80" height="80"></rect>
        </g>
        <g id="Icon-Service/64/AWS-ThinkBox-XMesh_64" transform="translate(15.000000, 12.000000)" fill="#FFFFFF">
            <path d="M38.75,29.158 L33.834,32.036 L42.507,37.138 C42.812,37.318 43,37.645 43,38 L43,44.277 L48,41.42 L48,34.573 L38.75,29.158 Z M25.505,35.186 L41,44.256 L41,38.572 L31.352,32.896 C31.046,32.716 30.858,32.387 30.858,32.033 C30.858,31.678 31.047,31.35 31.354,31.171 L47.003,22.011 L42.007,19.156 L8.507,38.862 C8.351,38.954 8.176,39 8,39 C7.829,39 7.657,38.956 7.504,38.868 L2,35.723 L2,41.42 L7.994,44.845 L24.495,35.186 C24.806,35.003 25.194,35.003 25.505,35.186 L25.505,35.186 Z M11.25,26.841 L16.166,23.963 L7.493,18.862 C7.188,18.682 7,18.354 7,18 L7,11.723 L2,14.58 L2,21.427 L11.25,26.841 Z M24.5,20.817 L9,11.744 L9,17.428 L18.507,23.02 C18.654,23.107 18.777,23.231 18.864,23.379 L18.937,23.503 C19.214,23.979 19.054,24.591 18.577,24.869 L2.997,33.989 L7.993,36.844 L41.493,17.138 C41.802,16.956 42.186,16.954 42.496,17.132 L48,20.277 L48,14.58 L42.006,11.155 L25.556,20.784 C25.246,20.987 24.837,21.015 24.5,20.817 L24.5,20.817 Z M49.505,22.863 L40.729,28 L49.505,33.137 C49.812,33.316 50,33.645 50,34 L50,42 C50,42.359 49.808,42.69 49.496,42.868 L42.496,46.868 C42.343,46.956 42.171,47.0001378 42,47.0001378 C41.825,47.0001378 41.65,46.954 41.495,46.863 L25,37.207 L8.505,46.863 C8.198,47.044 7.814,47.046 7.504,46.868 L0.504,42.868 C0.192,42.69 0,42.359 0,42 L0,34 C0,33.645 0.188,33.316 0.495,33.137 L9.271,28 L0.495,22.863 C0.188,22.683 0,22.355 0,22 L0,14 C0,13.641 0.192,13.309 0.504,13.132 L7.504,9.132 C7.813,8.953 8.197,8.956 8.505,9.137 L25,18.792 L41.495,9.137 C41.803,8.957 42.187,8.954 42.496,9.132 L49.496,13.132 C49.808,13.309 50,13.641 50,14 L50,22 C50,22.355 49.812,22.683 49.505,22.863 L49.505,22.863 Z M31,50.42 L25,53.848 L20.016,51 L25.496,47.868 C25.808,47.69 26,47.359 26,47 L26,43 L24,43 L24,46.42 L19,49.277 L19,46 L17,46 L17,51 C17,51.359 17.192,51.69 17.504,51.868 L24.504,55.868 C24.657,55.956 24.829,56 25,56 C25.171,56 25.343,55.956 25.496,55.868 L32.496,51.868 C32.808,51.69 33,51.359 33,51 L33,46 L31,46 L31,50.42 Z M19,10 L17,10 L17,5 C17,4.641 17.192,4.309 17.504,4.132 L24.504,0.132 C24.811,-0.044 25.189,-0.044 25.496,0.132 L32.496,4.132 C32.808,4.309 33,4.641 33,5 L33,10 L31,10 L31,6.723 L26,9.58 L26,13 L24,13 L24,9 C24,8.641 24.192,8.309 24.504,8.132 L29.984,5 L25,2.152 L19,5.58 L19,10 Z" id="AWS-ThinkBox-Mesh_64_Squid"></path>
        </g>
    </g>
</svg>