<svg width="80" height="80" viewBox="0 0 80 80" fill="none" xmlns="http://www.w3.org/2000/svg">
<g id="Icon-Architecture/64/Arch_AWS-Thinkbox-Sequoia_64">
<g id="Icon-Architecture-BG/64/Compute">
<rect id="Rectangle" width="80" height="80" fill="#ED7100"/>
</g>
<g id="Icon-Service/64/AWS-ThinkBox-Sequoia_64">
<path id="AWS-ThinkBox-Sequoia_64_Squid" fill-rule="evenodd" clip-rule="evenodd" d="M30.89 41.8215L33.386 43.2165L32.411 44.9625L29.374 43.2665C27.989 44.5245 26.484 45.7445 24.846 46.9265L40 55.8485L55.155 46.9265C53.515 45.7435 52.008 44.5215 50.621 43.2615L47.571 44.9635L46.596 43.2165L49.106 41.8165C47.833 40.5475 46.683 39.2385 45.654 37.8905L40.5 40.8665C40.346 40.9555 40.173 41.0005 40 41.0005C39.828 41.0005 39.655 40.9555 39.5 40.8665L34.347 37.8905C33.317 39.2405 32.164 40.5505 30.89 41.8215V41.8215ZM35.525 36.2615L40 38.8455L44.476 36.2615C42.381 33.1625 40.89 29.8595 40 26.3315C39.111 29.8595 37.619 33.1625 35.525 36.2615V36.2615ZM21.331 37.2575C25.899 33.1435 28.414 28.0945 28.414 23.0405H30.414C30.414 26.2985 31.31 29.4275 33.078 32.3425L31.367 33.3795C30.514 31.9725 29.855 30.5155 29.37 29.0225C28.28 32.1465 26.356 35.1345 23.677 37.7915L29.06 40.7995C35.725 34.3165 39 26.8025 39 18.0005C39 17.4475 39.448 17.0005 40 17.0005C40.553 17.0005 41 17.4475 41 18.0005C41 26.8005 44.275 34.3135 50.936 40.7955L56.323 37.7905C53.645 35.1345 51.72 32.1465 50.629 29.0225C50.145 30.5165 49.487 31.9725 48.633 33.3805L46.922 32.3425C48.69 29.4295 49.585 26.2995 49.585 23.0405H51.585C51.585 28.0935 54.101 33.1435 58.669 37.2575C58.91 37.4725 59.031 37.7915 58.994 38.1125C58.958 38.4325 58.769 38.7165 58.488 38.8735L52.479 42.2255C54.02 43.5865 55.705 44.9045 57.564 46.1745C57.847 46.3675 58.011 46.6915 57.999 47.0335C57.989 47.3755 57.803 47.6885 57.508 47.8625L40.508 57.8705C40.351 57.9635 40.176 58.0085 40 58.0085C39.825 58.0085 39.65 57.9635 39.493 57.8705L22.493 47.8625C22.198 47.6885 22.012 47.3755 22.001 47.0335C21.99 46.6915 22.154 46.3675 22.437 46.1745C24.294 44.9065 25.978 43.5895 27.518 42.2295L21.512 38.8735C21.231 38.7165 21.042 38.4325 21.006 38.1115C20.971 37.7915 21.091 37.4725 21.331 37.2575V37.2575ZM54.687 20.2145L49.792 17.3885L48.792 19.1205L53.687 21.9465L54.687 20.2145ZM31.208 19.1205L30.208 17.3885L25.314 20.2145L26.314 21.9465L31.208 19.1205ZM64.53 26.1525L59.114 22.7705L58.055 24.4675L62.084 26.9835L58.486 29.1425L59.515 30.8575L63 28.7665V52.2345L59.515 50.1425L58.486 51.8575L61.983 53.9555L40 65.8635L18.018 53.9555L21.515 51.8575L20.486 50.1425L17 52.2345V28.7665L20.486 30.8575L21.515 29.1425L17.916 26.9835L21.946 24.4675L20.887 22.7705L15.471 26.1525C15.178 26.3345 15 26.6555 15 27.0005V54.0005C15 54.3675 15.202 54.7045 15.524 54.8795L39.524 67.8795C39.672 67.9605 39.836 68.0005 40 68.0005C40.164 68.0005 40.328 67.9605 40.477 67.8795L64.477 54.8795C64.799 54.7045 65 54.3675 65 54.0005V27.0005C65 26.6555 64.823 26.3345 64.53 26.1525V26.1525ZM40 49.1905C40.173 49.1905 40.346 49.1455 40.5 49.0565L44.002 47.0345L43.002 45.3015L40 47.0355L36.998 45.3015L35.998 47.0345L39.5 49.0565C39.655 49.1455 39.828 49.1905 40 49.1905V49.1905ZM35.515 16.8575L34.486 15.1425L39.486 12.1425C39.802 11.9525 40.199 11.9525 40.515 12.1425L45.515 15.1425L44.486 16.8575L40 14.1665L35.515 16.8575Z" fill="white"/>
</g>
</g>
</svg>
