<?xml version="1.0" encoding="UTF-8"?>
<svg width="80px" height="80px" viewBox="0 0 80 80" version="1.1" xmlns="http://www.w3.org/2000/svg" xmlns:xlink="http://www.w3.org/1999/xlink">
    <title>Icon-Architecture/64/Arch_AWS-Thinkbox-Krakatoa_64</title>
    <g id="Icon-Architecture/64/Arch_AWS-Thinkbox-Krakatoa_64" stroke="none" stroke-width="1" fill="none" fill-rule="evenodd">
        <g id="Icon-Architecture-BG/64/Compute" fill="#ED7100">
            <rect id="Rectangle" x="0" y="0" width="80" height="80"></rect>
        </g>
        <g id="Icon-Service/64/AWS-ThinkBox-Krakatoa_64" transform="translate(15.000000, 12.000000)" fill="#FFFFFF">
            <path d="M22,56.00025 L28,56.00025 L28,54.00025 L22,54.00025 L22,56.00025 Z M48,28.00025 L50,28.00025 L50,23.00025 L48,23.00025 L48,28.00025 Z M0,28.00025 L2,28.00025 L2,23.00025 L0,23.00025 L0,28.00025 Z M25,44.15825 L16.699,49.00025 L33.301,49.00025 L25,44.15825 Z M50,15.00025 L50,20.00025 L48,20.00025 L48,16.14825 C35.332,18.10025 26.549,25.98425 26,36.02725 L26,42.42625 L29,44.17625 L29,39.00025 C29.281,32.53325 34.068,28.24525 40.687,28.53425 C43.275,28.64725 45.664,29.76125 47.414,31.67025 C49.165,33.58125 50.066,36.05725 49.953,38.64525 C49.86,40.76825 48.947,42.72925 47.38,44.16525 C45.813,45.60125 43.777,46.34125 41.656,46.24925 C39.904,46.17225 38.287,45.41825 37.102,44.12525 C35.917,42.83225 35.307,41.15525 35.383,39.40325 C35.446,37.94825 36.072,36.60425 37.146,35.62025 C38.22,34.63625 39.597,34.12725 41.068,34.19225 L40.98,36.19025 C40.071,36.14325 39.177,36.47225 38.497,37.09525 C37.817,37.71825 37.421,38.56825 37.381,39.49025 C37.271,42.00525 39.229,44.14125 41.744,44.25025 C43.302,44.32225 44.854,43.76725 46.028,42.69025 C47.202,41.61525 47.886,40.14725 47.955,38.55825 C48.045,36.50425 47.329,34.53825 45.939,33.02225 C44.551,31.50625 42.654,30.62225 40.6,30.53225 C35.089,30.29225 31.231,33.71325 30.999,39.04325 L31,45.34225 L37.504,49.13625 C37.895,49.36425 38.083,49.82525 37.966,50.26125 C37.848,50.69725 37.452,51.00025 37,51.00025 L13,51.00025 C12.548,51.00025 12.152,50.69725 12.034,50.26125 C11.917,49.82525 12.105,49.36425 12.496,49.13625 L19,45.34225 L19,39.00025 C18.769,33.71125 14.882,30.29925 9.363,30.53225 C7.309,30.62225 5.412,31.50625 4.022,33.02225 C2.634,34.53825 1.918,36.50325 2.008,38.55725 C2.077,40.14725 2.761,41.61525 3.935,42.69025 C5.107,43.76625 6.638,44.32225 8.219,44.25025 C10.734,44.14125 12.691,42.00525 12.582,39.49025 C12.542,38.56825 12.146,37.71825 11.466,37.09525 C10.785,36.47225 9.897,36.14525 8.982,36.19025 L8.895,34.19225 C10.38,34.12925 11.743,34.63625 12.816,35.62025 C13.891,36.60425 14.517,37.94825 14.58,39.40325 C14.656,41.15525 14.046,42.83225 12.861,44.12525 C11.676,45.41825 10.059,46.17225 8.307,46.24925 C6.174,46.34025 4.15,45.60125 2.583,44.16525 C1.016,42.72925 0.103,40.76825 0.01,38.64525 C-0.104,36.05725 0.798,33.58125 2.548,31.67125 C4.298,29.76125 6.687,28.64725 9.275,28.53425 C9.486,28.52525 9.695,28.52125 9.901,28.52125 C16.2,28.52125 20.728,32.73525 20.999,38.95725 L21,44.17625 L24,42.42625 L24,35.99925 C23.467,25.99625 14.68,18.10225 2,16.14825 L2,20.00025 L0,20.00025 L0,15.00025 C0,14.71325 0.123,14.44025 0.338,14.25025 C0.385,14.20925 0.436,14.17225 0.489,14.14125 L5.485,11.14325 L6.515,12.85725 L3.869,14.44525 C13.369,16.30125 20.648,21.40425 24,28.25125 L24,25.00025 C24,17.93525 19.874,11.37025 13.681,8.49425 L11.533,9.84625 L10.467,8.15425 L13.066,6.51725 C13.344,6.34225 13.69,6.31425 13.992,6.44325 C19.24,8.68425 23.229,13.26825 24.998,18.70825 C26.761,13.26225 30.741,8.67725 35.978,6.44225 C36.279,6.31425 36.624,6.34125 36.898,6.51425 L39.528,8.15125 L38.472,9.84925 L36.292,8.49225 C30.115,11.36025 26,17.92625 26,25.00025 L26,28.26925 C29.353,21.40625 36.632,16.30125 46.131,14.44525 L43.485,12.85725 L44.515,11.14325 L49.511,14.14025 C49.563,14.17225 49.615,14.20925 49.662,14.25025 C49.877,14.44025 50,14.71325 50,15.00025 L50,15.00025 Z M20.515,4.85725 L19.485,3.14325 L24.485,0.14325 C24.802,-0.04775 25.198,-0.04775 25.515,0.14325 L30.515,3.14325 L29.485,4.85725 L26,2.76625 L26,7.00025 L24,7.00025 L24,2.76625 L20.515,4.85725 Z" id="AWS-ThinkBox-Krakatoa_64_Squid"></path>
        </g>
    </g>
</svg>