<?xml version="1.0" encoding="UTF-8"?>
<svg width="80px" height="80px" viewBox="0 0 80 80" version="1.1" xmlns="http://www.w3.org/2000/svg" xmlns:xlink="http://www.w3.org/1999/xlink">
    <title>Icon-Architecture/64/Arch_AWS-Thinkbox-Deadline_64</title>
    <g id="Icon-Architecture/64/Arch_AWS-Thinkbox-Deadline_64" stroke="none" stroke-width="1" fill="none" fill-rule="evenodd">
        <g id="Icon-Architecture-BG/64/Compute" fill="#ED7100">
            <rect id="Rectangle" x="0" y="0" width="80" height="80"></rect>
        </g>
        <g id="Icon-Service/64/AWS-ThinkBox-Deadline_64" transform="translate(15.000000, 12.000000)" fill="#FFFFFF">
            <path d="M48,40.9168609 L26,53.2948609 L26,49.3748609 L26,41.9658609 L36.833,35.9858609 L41.07,38.4318609 L42.07,36.6998609 L38,34.3498609 L38,22.0608609 L48,16.6738609 L48,40.9168609 Z M14,46.3048609 L14,35.0468609 L21,31.2288609 L21,32.9998609 C21,33.3458609 21.18,33.6678609 21.475,33.8498609 C21.635,33.9488609 21.817,33.9998609 22,33.9998609 C22.153,33.9998609 22.306,33.9638609 22.447,33.8938609 L24,33.1178609 L24,40.7848609 L14,46.3048609 Z M2,39.3148609 L2,14.5948609 L24,2.67786093 L24,6.62486093 L24,13.9038609 L12.981,19.8718609 L8.447,17.6048609 L7.553,19.3938609 L12,21.6178609 L12,33.8598609 L2,39.3148609 Z M28.447,30.8938609 C28.789,30.7228609 29.004,30.3718609 29,29.9888609 L29,26.9258609 L36,23.1378609 L36,34.1608609 L26,39.6808609 L26,32.1178609 L28.447,30.8938609 Z M23,26.6078609 L27,24.5698609 L27,29.3848609 L23,31.3808609 L23,26.6078609 Z M21.541,25.1108609 C21.209,25.2828609 21,25.6248609 21,25.9998609 L21,28.9518609 L14,32.7698609 L14,21.5948609 L24,16.1778609 L24,23.8398609 L21.541,25.1108609 Z M36,9.67786093 L36,20.8658609 L29,24.6668609 L29,22.9248609 C28.996,22.5778609 28.737,22.2578609 28.44,22.0788609 C28.143,21.8988609 27.772,21.8878609 27.466,22.0478609 L26,22.8058609 L26,15.0948609 L36,9.67786093 Z M49.513,14.1408609 C49.51,14.1388609 49.506,14.1388609 49.503,14.1368609 L49.504,14.1358609 L44.363,11.1358609 L43.355,12.8628609 L46.956,14.9638609 L38,19.7888609 L38,7.99986093 C38,7.64686093 37.814,7.32086093 37.512,7.13986093 C37.208,6.95886093 36.833,6.95186093 36.523,7.11986093 L26,12.8198609 L26,6.62486093 L26,2.72686093 L29.376,4.67586093 L30.376,2.94286093 L25.5,0.127860934 L25.497,0.133860934 C25.195,-0.0391390662 24.829,-0.0451390662 24.523,0.119860934 L0.523,13.1198609 C0.201,13.2948609 0,13.6318609 0,13.9998609 L0,40.9998609 C0,41.3528609 0.187,41.6788609 0.489,41.8588609 C0.491,41.8608609 0.494,41.8608609 0.496,41.8618609 L0.496,41.8628609 L5.639,44.8628609 L6.646,43.1358609 L3.034,41.0288609 L12,36.1378609 L12,47.9998609 C12,48.3538609 12.187,48.6808609 12.492,48.8608609 C12.648,48.9528609 12.824,48.9998609 13,48.9998609 C13.166,48.9998609 13.333,48.9578609 13.483,48.8748609 L24,43.0698609 L24,49.3748609 L24,53.2578609 L20.361,51.1358609 L19.354,52.8628609 L24.467,55.8458609 C24.477,55.8528609 24.484,55.8618609 24.495,55.8678609 C24.651,55.9588609 24.825,56.0048609 25,56.0048609 C25.169,56.0048609 25.338,55.9618609 25.49,55.8758609 L49.49,42.3738609 C49.805,42.1958609 50,41.8628609 50,41.5018609 L50,14.9998609 C50,14.6468609 49.814,14.3208609 49.513,14.1408609 L49.513,14.1408609 Z" id="AWS-ThinkBox-Deadline_64_Squid"></path>
        </g>
    </g>
</svg>