<?xml version="1.0" encoding="UTF-8"?>
<svg width="80px" height="80px" viewBox="0 0 80 80" version="1.1" xmlns="http://www.w3.org/2000/svg" xmlns:xlink="http://www.w3.org/1999/xlink">
    <title>Icon-Architecture/64/Arch_AWS-Thinkbox-Frost_64</title>
    <g id="Icon-Architecture/64/Arch_AWS-Thinkbox-Frost_64" stroke="none" stroke-width="1" fill="none" fill-rule="evenodd">
        <g id="Icon-Architecture-BG/64/Compute" fill="#ED7100">
            <rect id="Rectangle" x="0" y="0" width="80" height="80"></rect>
        </g>
        <g id="Icon-Service/64/AWS-ThinkBox-Frost_64" transform="translate(15.000000, 12.000000)" fill="#FFFFFF">
            <path d="M37.053,33.812 L33,31.428 L33,24.572 L37.053,22.188 L47.016,28 L37.053,33.812 Z M36,47.259 L26,41.426 L26,36.58 L31.993,33.156 L36,35.513 L36,47.259 Z M25,34.848 L19,31.42 L19,24.58 L25,21.152 L31,24.58 L31,31.42 L25,34.848 Z M24,41.426 L14,47.259 L14,35.513 L18.007,33.156 L24,36.58 L24,41.426 Z M12.948,33.812 L2.985,28 L12.948,22.188 L17,24.572 L17,31.428 L12.948,33.812 Z M14,8.741 L24,14.574 L24,19.42 L18.007,22.844 L14,20.487 L14,8.741 Z M26,14.574 L36,8.741 L36,20.487 L31.993,22.844 L26,19.42 L26,14.574 Z M50,28 C50,27.645 49.812,27.315 49.504,27.136 L39.029,21.026 L43.946,18.133 L48.486,20.857 L49.515,19.143 L45.908,16.979 L49.507,14.862 L48.493,13.138 L45,15.193 L45,11 L43,11 L43,16.369 L38,19.311 L38,7 C38,6.642 37.809,6.311 37.498,6.133 C37.189,5.955 36.806,5.956 36.496,6.136 L26,12.259 L26,6.566 L30.515,3.857 L29.486,2.143 L26,4.234 L26,0 L24,0 L24,4.234 L20.515,2.143 L19.486,3.857 L24,6.566 L24,12.259 L13.504,6.136 C13.196,5.957 12.813,5.955 12.502,6.133 C12.192,6.311 12,6.642 12,7 L12,19.311 L7,16.369 L7,11 L5,11 L5,15.193 L1.507,13.138 L0.493,14.862 L4.092,16.979 L0.486,19.143 L1.515,20.857 L6.055,18.133 L10.972,21.026 L0.496,27.136 C0.189,27.315 0,27.645 0,28 C0,28.355 0.189,28.685 0.496,28.864 L10.972,34.974 L6.055,37.867 L1.515,35.143 L0.486,36.857 L4.092,39.021 L0.493,41.138 L1.507,42.862 L5,40.807 L5,45 L7,45 L7,39.631 L12,36.689 L12,49 C12,49.358 12.192,49.689 12.502,49.867 C12.813,50.045 13.196,50.044 13.504,49.864 L24,43.741 L24,49.434 L19.486,52.143 L20.515,53.857 L24,51.766 L24,56 L26,56 L26,51.766 L29.486,53.857 L30.515,52.143 L26,49.434 L26,43.741 L36.496,49.864 C36.806,50.044 37.189,50.045 37.498,49.867 C37.809,49.689 38,49.358 38,49 L38,36.689 L43,39.631 L43,45 L45,45 L45,40.807 L48.493,42.862 L49.507,41.138 L45.908,39.021 L49.515,36.857 L48.486,35.143 L43.946,37.867 L39.029,34.974 L49.504,28.864 C49.812,28.685 50,28.355 50,28 L50,28 Z" id="AWS-ThinkBox-Frost_64_Squid"></path>
        </g>
    </g>
</svg>