<?xml version="1.0" encoding="UTF-8"?>
<svg width="80px" height="80px" viewBox="0 0 80 80" version="1.1" xmlns="http://www.w3.org/2000/svg" xmlns:xlink="http://www.w3.org/1999/xlink">
    <title>Icon-Architecture/64/Arch_AWS-Elemental-Link_64</title>
    <g id="Icon-Architecture/64/Arch_AWS-Elemental-Link_64" stroke="none" stroke-width="1" fill="none" fill-rule="evenodd">
        <g id="Icon-Architecture-BG/64/Media-Services" fill="#ED7100">
            <rect id="Rectangle" x="0" y="0" width="80" height="80"></rect>
        </g>
        <g id="Icon-Service/64/AWS-Elemental-Link_64" transform="translate(15.000500, 12.000050)" fill="#FFFFFF">
            <path d="M19.396,5.39025 L18.396,3.65825 L24.5,0.13425 C24.808,-0.04475 25.191,-0.04475 25.5,0.13425 L31.603,3.65825 L30.603,5.39025 L25,2.15525 L19.396,5.39025 Z M31,44.75125 L25,48.21525 L19,44.75125 L19,37.82325 L25,34.35925 L31,37.82325 L31,44.75125 Z M33,37.24625 C33,36.88925 32.809,36.55825 32.5,36.38025 L25.5,32.33825 C25.191,32.16025 24.808,32.16025 24.5,32.33825 L17.5,36.38025 C17.19,36.55825 17,36.88925 17,37.24625 L17,40.50025 L1,40.50025 L1,42.50025 L17,42.50025 L17,45.32825 C17,45.68625 17.19,46.01625 17.5,46.19525 L24,49.94825 L24,55.50025 L26,55.50025 L26,49.94825 L32.5,46.19525 C32.809,46.01625 33,45.68625 33,45.32825 L33,42.50025 L49,42.50025 L49,40.50025 L33,40.50025 L33,37.24625 Z M38,24.50025 L44,24.50025 L44,22.50025 L38,22.50025 L38,24.50025 Z M38,19.50025 L44,19.50025 L44,17.50025 L38,17.50025 L38,19.50025 Z M38,14.50025 L44,14.50025 L44,12.50025 L38,12.50025 L38,14.50025 Z M7,14.50025 L23,14.50025 L23,12.50025 L7,12.50025 L7,14.50025 Z M2,26.50025 L48,26.50025 L48,9.50025 L2,9.50025 L2,26.50025 Z M49,7.50025 L1,7.50025 C0.447,7.50025 0,7.94825 0,8.50025 L0,27.50025 C0,28.05225 0.447,28.50025 1,28.50025 L49,28.50025 C49.552,28.50025 50,28.05225 50,27.50025 L50,8.50025 C50,7.94825 49.552,7.50025 49,7.50025 L49,7.50025 Z" id="AWS-Elemental-Link_Icon_64_Squid"></path>
        </g>
    </g>
</svg>