<svg width="24" height="24" viewBox="0 0 24 24" fill="none" xmlns="http://www.w3.org/2000/svg">
<rect width="24" height="24" fill="#C925D1"/>
<path d="M6 18V13.1888C7.27338 13.8051 9.48956 14 11 14V13C7.97852 13 6.13672 12.3354 6 12V7.18878C7.27338 7.80511 9.48956 8 11 8C12.5106 8 14.727 7.80505 16.0003 7.18866L16.0005 8H17V6C17 4.42139 13.2285 4 11 4C8.77148 4 5 4.42139 5 6V18C5 19.5786 8.77148 20 11 20V19C7.97852 19 6.13672 18.3354 6 18ZM6 6.0177C6.14868 5.66052 7.98694 5 11 5C13.9629 5 15.791 5.63916 15.9932 6C15.791 6.36084 13.9629 7 11 7C7.98694 7 6.14868 6.33948 6 6.02393V6.0177ZM18.5 20H12.5C12.2236 20 12 19.7764 12 19.5V9.5C12 9.22363 12.2236 9 12.5 9H18.5C18.7764 9 19 9.22363 19 9.5V19.5C19 19.7764 18.7764 20 18.5 20ZM13 19H18V10H13V19ZM17 18H15.8905L15.5 17.1737L15.1095 18H14L14.9453 16L14 14H15.1095L15.5 14.8263L15.8905 14H17L16.0547 16L17 18ZM17 12H14V11H17V12Z" fill="white"/>
</svg>
