<?xml version="1.0" encoding="UTF-8"?>
<svg width="24px" height="24px" viewBox="0 0 24 24" version="1.1" xmlns="http://www.w3.org/2000/svg" xmlns:xlink="http://www.w3.org/1999/xlink">
    <title>Icon-Architecture/16/Arch_Amazon-MemoryDB-for-Redis_16</title>
    <g id="Icon-Architecture/16/Arch_Amazon-MemoryDB-for-Redis_16" stroke="none" stroke-width="1" fill="none" fill-rule="evenodd">
        <g id="Icon-Architecture-BG/16/Database" fill="#C925D1">
            <rect id="Rectangle" x="0" y="0" width="24" height="24"></rect>
        </g>
        <g id="Icon-Service/16/Amazon-MemoryDB-for-Redis_16" transform="translate(4.000000, 4.000000)" fill="#FFFFFF">
            <path d="M13.351,8.987 C12.912,8.725 12.445,8.512 11.962,8.354 L12.275,7.404 C12.827,7.585 13.361,7.829 13.863,8.129 L13.351,8.987 Z M10.966,14.864 C10.936,14.537 10.834,14.232 10.665,13.97 L13.339,11.442 C14.254,12.324 14.849,13.561 14.969,14.864 L10.966,14.864 Z M8.99,14.048 C9.474,14.048 9.861,14.404 9.948,14.864 L8.031,14.864 C8.118,14.404 8.504,14.048 8.99,14.048 L8.99,14.048 Z M14.069,10.751 L15.088,9.787 L14.401,9.061 L9.926,13.292 C9.645,13.142 9.33,13.048 8.99,13.048 C7.95,13.048 7.104,13.849 7.013,14.864 L4.354,14.864 C4.603,12.113 6.889,9.951 9.663,9.951 C10.429,9.951 11.168,10.111 11.861,10.424 L12.273,9.513 C11.451,9.14 10.572,8.951 9.663,8.951 C6.171,8.951 3.331,11.828 3.331,15.364 L3.331,15.864 L15.993,15.864 L15.993,15.364 C15.993,13.632 15.274,11.931 14.069,10.751 L14.069,10.751 Z M5.133,1 C7.722,1 9.021,1.712 9.021,2.11 C9.021,2.508 7.722,3.22 5.133,3.22 C2.56,3.22 1.127,2.544 1.021,2.157 L1.021,2.063 C1.127,1.676 2.56,1 5.133,1 L5.133,1 Z M1.021,13.208 L1.021,11.255 C1.341,11.414 1.707,11.558 2.139,11.678 L2.407,10.714 C1.656,10.505 1.245,10.269 1.021,10.09 L1.021,7.296 C1.977,7.79 3.402,8.109 5.089,8.179 L5.13,7.18 C3.027,7.093 1.605,6.602 1.021,6.114 L1.021,3.453 C2.006,3.975 3.572,4.22 5.133,4.22 C6.834,4.22 8.173,3.941 9.021,3.468 L9.021,7.064 C6.387,7.324 4.04,8.867 2.78,11.246 L3.663,11.714 C4.873,9.429 7.226,8.01 9.802,8.01 C10.323,8.01 10.842,8.069 11.345,8.183 L11.568,7.208 C11.062,7.093 10.543,7.037 10.021,7.023 L10.021,1.864 L9.974,1.864 C9.738,0.727 7.903,0 5.133,0 C2.727,0 0.302,0.579 0.028,1.864 L0.021,1.864 L0.021,1.927 C0.011,1.987 0,2.047 0,2.11 C0,2.173 0.011,2.233 0.021,2.293 L0.021,13.208 C0.021,14.119 0.949,14.84 2.632,15.237 L2.863,14.264 C1.597,13.966 1.021,13.508 1.021,13.208 L1.021,13.208 Z" id="Fill-8"></path>
        </g>
    </g>
</svg>