<?xml version="1.0" encoding="UTF-8"?>
<svg width="64px" height="64px" viewBox="0 0 64 64" version="1.1" xmlns="http://www.w3.org/2000/svg" xmlns:xlink="http://www.w3.org/1999/xlink">
    <title>Icon-Architecture/48/Arch_AWS-Marketplace_Light_48</title>
    <g id="Icon-Architecture/48/Arch_AWS-Marketplace_Light_48" stroke="none" stroke-width="1" fill="none" fill-rule="evenodd">
        <rect id="Rectangle" fill="#232F3E" x="0" y="0" width="64" height="64"></rect>
        <g id="Icon-Service/48/AWS-Marketplace_48" transform="translate(11.300000, 11.000000)" fill="#FFFFFF">
            <path d="M28.708,38 C28.708,39.103 27.811,40 26.708,40 C25.605,40 24.708,39.103 24.708,38 C24.708,36.897 25.605,36 26.708,36 C27.811,36 28.708,36.897 28.708,38 L28.708,38 Z M34.654,12 C34.179,12 33.769,12.335 33.674,12.801 L29.984,31 L4.391,31 L1.961,18.849 L0,19.242 L2.591,32.196 C2.685,32.664 3.095,33 3.571,33 L26.175,33 L25.666,34.155 C23.967,34.617 22.708,36.157 22.708,38 C22.708,40.206 24.502,42 26.708,42 C28.914,42 30.708,40.206 30.708,38 C30.708,36.19 29.492,34.674 27.839,34.183 L28.36,33 L30.802,33 C31.277,33 31.687,32.665 31.782,32.199 L35.472,14 L42.708,14 L42.708,12 L34.654,12 Z M9.708,40 C8.605,40 7.708,39.103 7.708,38 C7.708,36.897 8.605,36 9.708,36 C10.811,36 11.708,36.897 11.708,38 C11.708,39.103 10.811,40 9.708,40 L9.708,40 Z M9.708,34 C7.502,34 5.708,35.794 5.708,38 C5.708,40.206 7.502,42 9.708,42 C11.914,42 13.708,40.206 13.708,38 C13.708,35.794 11.914,34 9.708,34 L9.708,34 Z M9.708,2.152 L14.692,5 L9.708,7.848 L4.724,5 L9.708,2.152 Z M23.708,2.152 L28.692,5 L23.708,7.848 L18.724,5 L23.708,2.152 Z M24.708,15.277 L24.708,9.58 L29.708,6.723 L29.708,12.42 L24.708,15.277 Z M17.708,26.53 L17.708,21.58 L22.708,18.723 L22.708,24.346 L17.708,26.53 Z M10.708,18.723 L15.708,21.58 L15.708,26.53 L10.708,24.346 L10.708,18.723 Z M15.708,12.42 L10.708,15.277 L10.708,9.58 L15.708,6.723 L15.708,12.42 Z M22.708,15.277 L17.708,12.42 L17.708,6.723 L22.708,9.58 L22.708,15.277 Z M16.708,19.848 L11.724,17 L16.708,14.152 L21.692,17 L16.708,19.848 Z M3.708,6.723 L8.708,9.58 L8.708,15.115 L3.708,11.728 L3.708,6.723 Z M2.147,13.086 L8.708,17.53 L8.708,25 C8.708,25.397 8.943,25.757 9.308,25.917 L16.308,28.975 C16.436,29.03 16.571,29.058 16.708,29.058 C16.845,29.058 16.98,29.03 17.108,28.975 L24.108,25.917 C24.473,25.757 24.708,25.397 24.708,25 L24.708,17.58 L31.204,13.868 C31.516,13.69 31.708,13.359 31.708,13 L31.708,5 C31.708,4.641 31.516,4.31 31.204,4.132 L24.204,0.132 C23.897,-0.044 23.519,-0.044 23.212,0.132 L16.708,3.848 L10.204,0.132 C9.897,-0.044 9.519,-0.044 9.212,0.132 L2.212,4.132 C1.9,4.31 1.708,4.641 1.708,5 L1.708,12.258 C1.708,12.59 1.872,12.9 2.147,13.086 L2.147,13.086 Z" id="Fill-4"></path>
        </g>
    </g>
</svg>