<?xml version="1.0" encoding="UTF-8"?>
<svg width="64px" height="64px" viewBox="0 0 64 64" version="1.1" xmlns="http://www.w3.org/2000/svg" xmlns:xlink="http://www.w3.org/1999/xlink">
    <title>Icon-Architecture/48/Arch_Amazon-DevOps-Guru_48</title>
    <g id="Icon-Architecture/48/Arch_Amazon-DevOps-Guru_48" stroke="none" stroke-width="1" fill="none" fill-rule="evenodd">
        <g id="Icon-Architecture-BG/48/Machine-Learning" fill="#01A88D">
            <rect id="Rectangle" x="0" y="0" width="64" height="64"></rect>
        </g>
        <g id="Icon-Service/48/Amazon-DevOps-Guru_48" transform="translate(10.000000, 10.000000)" fill="#FFFFFF">
            <path d="M19.023,39.581 C19.051,39.093 18.722,38.656 18.246,38.548 C16.37,38.124 14.589,37.386 12.956,36.354 C12.543,36.094 12.001,36.166 11.675,36.534 L10.06,38.345 L5.655,33.94 L7.465,32.325 C7.83,32 7.906,31.458 7.645,31.045 C6.617,29.416 5.88,27.636 5.457,25.755 C5.348,25.277 4.877,24.948 4.424,24.977 L2,25.115 L2,18.885 L4.431,19.023 C4.877,19.039 5.355,18.723 5.463,18.246 C5.887,16.373 6.626,14.597 7.656,12.966 C7.917,12.552 7.84,12.011 7.476,11.685 L5.655,10.06 L10.06,5.655 L11.684,7.475 C12.008,7.84 12.552,7.914 12.963,7.655 C14.593,6.628 16.37,5.893 18.246,5.469 C18.722,5.361 19.051,4.925 19.023,4.436 L18.884,2 L25.115,2 L24.976,4.438 C24.948,4.927 25.277,5.363 25.753,5.471 C27.627,5.895 29.404,6.631 31.033,7.659 C31.444,7.919 31.987,7.843 32.312,7.479 L33.939,5.655 L38.344,10.06 L36.526,11.682 C36.162,12.007 36.085,12.549 36.346,12.962 C37.377,14.592 38.114,16.37 38.538,18.246 C38.645,18.723 39.101,19.039 39.57,19.023 L42,18.885 L42,25.115 L39.572,24.977 C39.101,24.948 38.647,25.277 38.54,25.755 C38.117,27.63 37.38,29.409 36.351,31.042 C36.09,31.456 36.167,31.997 36.531,32.322 L38.344,33.94 L33.94,38.345 L32.327,36.537 C32,36.17 31.458,36.097 31.046,36.357 C29.416,37.388 27.635,38.126 25.754,38.55 C25.277,38.658 24.948,39.095 24.976,39.583 L25.115,42 L18.884,42 L19.023,39.581 Z M26.901,43.686 C27.089,43.486 27.187,43.217 27.171,42.943 L27.02,40.295 C28.547,39.878 30.01,39.272 31.385,38.486 L33.152,40.466 C33.335,40.672 33.594,40.792 33.87,40.8 C34.147,40.823 34.411,40.703 34.605,40.508 L40.507,34.605 C40.702,34.411 40.808,34.145 40.8,33.87 C40.793,33.595 40.671,33.335 40.466,33.152 L38.48,31.38 C39.264,30.004 39.869,28.543 40.285,27.02 L42.943,27.172 C43.21,27.186 43.487,27.089 43.686,26.901 C43.886,26.712 44,26.449 44,26.174 L44,17.826 C44,17.551 43.886,17.288 43.686,17.099 C43.487,16.911 43.211,16.811 42.943,16.828 L40.283,16.979 C39.866,15.456 39.26,13.997 38.476,12.623 L40.466,10.848 C40.671,10.665 40.793,10.406 40.8,10.13 C40.808,9.855 40.702,9.589 40.507,9.395 L34.605,3.493 C34.411,3.298 34.144,3.185 33.87,3.2 C33.594,3.208 33.336,3.329 33.152,3.534 L31.371,5.53 C29.999,4.747 28.541,4.143 27.02,3.727 L27.171,1.057 C27.187,0.782 27.089,0.513 26.9,0.313 C26.711,0.113 26.449,0 26.173,0 L17.826,0 C17.55,0 17.288,0.113 17.099,0.313 C16.91,0.513 16.812,0.782 16.828,1.057 L16.979,3.724 C15.458,4.14 13.999,4.744 12.626,5.526 L10.847,3.534 C10.664,3.329 10.405,3.208 10.129,3.2 C9.861,3.187 9.588,3.298 9.394,3.493 L3.492,9.395 C3.297,9.589 3.191,9.855 3.199,10.13 C3.207,10.405 3.328,10.665 3.533,10.848 L5.527,12.626 C4.742,14 4.136,15.458 3.719,16.979 L1.056,16.828 C0.785,16.81 0.512,16.911 0.313,17.099 C0.113,17.288 0,17.551 0,17.826 L0,26.174 C0,26.449 0.113,26.712 0.313,26.901 C0.512,27.089 0.786,27.187 1.056,27.172 L3.711,27.02 C4.127,28.548 4.733,30.009 5.516,31.384 L3.533,33.152 C3.328,33.335 3.207,33.595 3.199,33.87 C3.191,34.145 3.297,34.411 3.492,34.605 L9.394,40.508 C9.588,40.703 9.858,40.821 10.129,40.8 C10.405,40.792 10.665,40.672 10.847,40.466 L12.617,38.483 C13.994,39.269 15.455,39.875 16.979,40.293 L16.828,42.943 C16.812,43.217 16.91,43.486 17.098,43.686 C17.288,43.887 17.55,44 17.826,44 L26.173,44 C26.449,44 26.711,43.887 26.901,43.686 L26.901,43.686 Z M20.588,26.659 L28.492,18.755 L27.078,17.341 L19.881,24.538 L16.921,21.577 L15.507,22.991 L19.174,26.659 C19.362,26.846 19.616,26.952 19.881,26.952 C20.147,26.952 20.401,26.846 20.588,26.659 L20.588,26.659 Z M37.529,21.151 L34.98,22.512 C35.246,15.861 30.381,9.974 23.658,9.109 C18.106,8.395 12.74,11.296 10.301,16.329 L12.1,17.201 C14.165,12.944 18.712,10.493 23.402,11.093 C28.966,11.809 33.024,16.59 32.988,22.065 L31.265,20.365 L29.861,21.789 L33.625,25.503 L38.47,22.916 L37.529,21.151 Z M33.698,27.67 C31.505,32.196 26.944,34.998 22.012,34.998 C21.459,34.998 20.901,34.963 20.341,34.891 C13.618,34.026 8.753,28.139 9.019,21.488 L6.47,22.849 L5.529,21.084 L10.375,18.497 L14.138,22.211 L12.734,23.635 L11.011,21.935 C10.975,27.41 15.033,32.191 20.597,32.907 C25.287,33.508 29.835,31.056 31.899,26.798 L33.698,27.67 Z" id="Fill-3"></path>
        </g>
    </g>
</svg>