<?xml version="1.0" encoding="UTF-8"?>
<svg width="64px" height="64px" viewBox="0 0 64 64" version="1.1" xmlns="http://www.w3.org/2000/svg" xmlns:xlink="http://www.w3.org/1999/xlink">
    <title>Icon-Architecture/48/Arch_AWS-HealthScribe_48</title>
    <g id="Icon-Architecture/48/Arch_AWS-HealthScribe_48" stroke="none" stroke-width="1" fill="none" fill-rule="evenodd">
        <g id="Icon-Architecture-BG/48/Machine-Learning" fill="#01A88D">
            <rect id="Rectangle" x="0" y="0" width="64" height="64"></rect>
        </g>
        <g id="Icon-Service/48/AWS-HealthScribe_48" transform="translate(10.580000, 10.000000)" fill="#FFFFFF">
            <path d="M19.22,33.165 C18.598,31.885 16.556,31.2 14.418,31.039 L14.418,27.874 L16.648,26.648 C16.878,26.532 17.154,26.571 17.349,26.747 C19.265,28.492 21.86,30.521 24.08,31.091 C22.852,31.888 20.742,32.885 19.22,33.165 L19.22,33.165 Z M9.444,34 C9.701,33.673 11.071,33 13.418,33 C15.766,33 17.136,33.673 17.393,34 C17.136,34.327 15.766,35 13.418,35 C11.071,35 9.701,34.327 9.444,34 L9.444,34 Z M16.418,38 C16.418,38.249 15.354,39 13.418,39 C11.483,39 10.418,38.249 10.418,38 C10.418,37.751 11.483,37 13.418,37 C15.354,37 16.418,37.751 16.418,38 L16.418,38 Z M9.619,26.747 C9.813,26.571 10.087,26.533 10.285,26.63 L12.418,27.802 L12.418,31.039 C10.296,31.199 8.267,31.876 7.63,33.139 C6.118,32.832 4.085,31.868 2.888,31.091 C5.108,30.521 7.703,28.492 9.619,26.747 L9.619,26.747 Z M11.418,20 C11.418,18.897 12.316,18 13.418,18 C14.521,18 15.418,18.897 15.418,20 C15.418,21.103 14.521,22 13.418,22 C12.316,22 11.418,21.103 11.418,20 L11.418,20 Z M26.206,29.425 C25.941,29.303 25.626,29.247 25.215,29.247 C23.869,29.247 21.431,27.76 18.695,25.269 C17.886,24.532 16.733,24.37 15.72,24.877 L14.418,25.592 L14.418,23.858 C16.139,23.411 17.418,21.858 17.418,20 C17.418,17.794 15.625,16 13.418,16 C11.212,16 9.418,17.794 9.418,20 C9.418,21.858 10.698,23.411 12.418,23.858 L12.418,25.521 L11.212,24.859 C10.237,24.371 9.082,24.531 8.273,25.269 C5.537,27.76 3.099,29.247 1.752,29.247 C1.341,29.247 1.027,29.303 0.762,29.425 C0.285,29.644 0,30.073 0,30.573 C0,32.429 5.217,34.806 7.836,35.188 C8.168,35.626 8.677,35.983 9.305,36.258 C8.746,36.743 8.418,37.339 8.418,38 C8.418,39.503 10.081,40.68 12.418,40.943 L12.418,44 L14.418,44 L14.418,40.943 C16.756,40.68 18.418,39.503 18.418,38 C18.418,37.339 18.091,36.743 17.532,36.258 C18.148,35.988 18.651,35.639 18.983,35.212 C21.549,34.899 26.968,32.464 26.968,30.573 C26.968,30.073 26.683,29.644 26.206,29.425 L26.206,29.425 Z M24.418,21 L30.418,21 L30.418,19 L24.418,19 L24.418,21 Z M24.418,11 L30.418,11 L30.418,9 L24.418,9 L24.418,11 Z M24.418,16 L38.418,16 L38.418,14 L24.418,14 L24.418,16 Z M28.418,26 L38.418,26 L38.418,24 L28.418,24 L28.418,26 Z M32.418,21 L38.418,21 L38.418,19 L32.418,19 L32.418,21 Z M35.418,3.63 L40.191,9 L35.418,9 L35.418,3.63 Z M43.166,9.335 L35.166,0.335 C34.976,0.122 34.704,0 34.418,0 L20.418,0 C19.866,0 19.418,0.448 19.418,1 L19.418,21 L21.418,21 L21.418,2 L33.418,2 L33.418,10 C33.418,10.552 33.866,11 34.418,11 L41.418,11 L41.418,32 L30.418,32 L30.418,34 L42.418,34 C42.971,34 43.418,33.552 43.418,33 L43.418,10 C43.418,9.755 43.329,9.518 43.166,9.335 L43.166,9.335 Z" id="Fill-5"></path>
        </g>
    </g>
</svg>