<?xml version="1.0" encoding="UTF-8"?>
<svg width="64px" height="64px" viewBox="0 0 64 64" version="1.1" xmlns="http://www.w3.org/2000/svg" xmlns:xlink="http://www.w3.org/1999/xlink">
    <title>Icon-Architecture/48/Arch_Amazon-Q_48</title>
    <g id="Icon-Architecture/48/Arch_Amazon-Q_48" stroke="none" stroke-width="1" fill="none" fill-rule="evenodd">
        <g id="Icon-Architecture-BG/48/Machine-Learning" fill="#01A88D">
            <rect id="Rectangle" x="0" y="0" width="64" height="64"></rect>
        </g>
        <g id="Icon-Service/48/Amazon-Q_48" transform="translate(13.000000, 10.500000)" fill="#FFFFFF">
            <path d="M20.935,20.8553751 L20.935,23.1933751 L18.968,24.3053751 L17,23.1933751 L17,20.8553751 L18.968,19.6583751 L20.935,20.8553751 Z M19.972,40.8033751 C19.363,41.1413751 18.638,41.1413751 18.029,40.8033751 L3.03,32.4703751 C2.395,32.1173751 2,31.4473751 2,30.7223751 L2,13.1693751 C2,12.4783751 2.368,11.8233751 2.957,11.4633751 L17.957,2.29637506 C18.279,2.10037506 18.64,2.00137506 19,2.00137506 C19.361,2.00137506 19.722,2.10037506 20.043,2.29637506 L35.043,11.4623751 C35.633,11.8233751 36,12.4783751 36,13.1693751 L36,30.7213751 L22.935,22.8813751 L22.935,20.2933751 C22.935,19.9443751 22.753,19.6203751 22.455,19.4393751 L19.488,17.6333751 C19.169,17.4383751 18.767,17.4383751 18.449,17.6333751 L15.481,19.4393751 C15.182,19.6203751 15,19.9443751 15,20.2933751 L15,23.7763751 C15,24.1373751 15.195,24.4703751 15.508,24.6473751 L18.476,26.3243751 C18.629,26.4103751 18.798,26.4533751 18.968,26.4533751 C19.138,26.4533751 19.308,26.4103751 19.46,26.3243751 L22.202,24.7743751 L34.997,32.4513751 C34.988,32.4573751 34.982,32.4653751 34.972,32.4703751 L19.972,40.8033751 Z M36.086,9.75637506 L21.086,0.59037506 C19.799,-0.19662494 18.202,-0.19662494 16.914,0.58937506 L1.914,9.75637506 C0.734,10.4783751 0,11.7863751 0,13.1693751 L0,30.7223751 C0,32.1733751 0.789,33.5133751 2.058,34.2183751 L17.058,42.5513751 C17.666,42.8893751 18.333,43.0583751 19,43.0583751 C19.667,43.0583751 20.334,42.8893751 20.943,42.5513751 L35.944,34.2183751 C37.212,33.5133751 38,32.1733751 38,30.7223751 L38,13.1693751 C38,11.7863751 37.267,10.4783751 36.086,9.75637506 L36.086,9.75637506 Z" id="Fill-3"></path>
        </g>
    </g>
</svg>