<?xml version="1.0" encoding="UTF-8"?>
<svg width="64px" height="64px" viewBox="0 0 64 64" version="1.1" xmlns="http://www.w3.org/2000/svg" xmlns:xlink="http://www.w3.org/1999/xlink">
    <title>Icon-Architecture/48/Arch_AWS-HealthOmics_48</title>
    <g id="Icon-Architecture/48/Arch_AWS-HealthOmics_48" stroke="none" stroke-width="1" fill="none" fill-rule="evenodd">
        <g id="Icon-Architecture-BG/48/Machine-Learning" fill="#01A88D">
            <rect id="Rectangle" x="0" y="0" width="64" height="64"></rect>
        </g>
        <path d="M35,42 L54,42 L54,40 L35,40 L35,42 Z M35,24 L54,24 L54,22 L35,22 L35,24 Z M35,36 L45,36 L45,34 L35,34 L35,36 Z M24.215,43.287 L23.076,44.931 C25.008,46.27 26.451,47.688 27.272,49 L12.694,49 C13.566,47.488 15.16,45.934 17.242,44.625 L19.1,43.465 C21.949,41.69 24.641,40.014 26.65,38.395 C29.213,36.329 30.316,33.642 29.927,30.409 C29.91,30.272 29.869,30.136 29.843,30 L49,30 L49,28 L29.066,28 C28.123,26.392 26.436,24.818 23.935,23.239 L22.866,24.931 C24.521,25.974 25.766,27 26.618,28 L18,28 L18,30 L27.797,30 C27.865,30.217 27.915,30.433 27.941,30.647 C28.246,33.186 27.413,35.21 25.395,36.837 C23.481,38.381 20.839,40.026 18.042,41.768 L16.178,42.932 C14.602,43.923 10.852,46.613 10.084,50.197 C10.05,50.359 10,53 10,54 L12,54 C12,54 11.986,51.419 12,51 L27.999,51 C28.013,51.426 28.022,52.305 28,54 L30,54 C30.042,50.71 29.971,50.373 29.933,50.194 C29.321,47.335 26.485,44.86 24.215,43.287 L24.215,43.287 Z M27.072,15 L13.072,15 C13.567,15.775 14.295,16.609 15.371,17.404 C15.855,17.76 16.409,18.139 17.021,18.531 L15.941,20.214 C15.294,19.8 14.703,19.396 14.185,19.014 C9.902,15.853 10.024,11.966 10.03,11.802 L10.029,10.018 L12.029,10.018 L12.029,11.846 C12.028,11.905 12.022,12.344 12.189,13 L27.808,13 C27.985,12.244 27.999,11.724 28,11.667 L28,10 L30,10 L30,11.676 C29.999,11.876 29.928,16.497 25.672,19.639 C23.912,20.938 21.699,22.199 19.747,23.312 C18.771,23.87 17.86,24.388 17.118,24.85 C14.106,26.723 12.323,28.782 12.1,30.647 C11.947,31.914 12.045,33.018 12.388,34 L23,34 L23,36 L13.589,36 C13.85,36.29 14.132,36.572 14.461,36.837 C15.091,37.346 15.824,37.886 16.705,38.49 L15.574,40.139 C14.65,39.506 13.875,38.935 13.205,38.394 C10.72,36.391 9.708,33.779 10.113,30.409 C10.496,27.23 13.56,24.708 16.062,23.151 C16.823,22.678 17.755,22.146 18.757,21.575 C20.661,20.489 22.819,19.259 24.484,18.029 C25.747,17.098 26.554,16.01 27.072,15 L27.072,15 Z" id="Fill-3" fill="#FFFFFF"></path>
    </g>
</svg>