<svg width="64" height="64" viewBox="0 0 64 64" fill="none" xmlns="http://www.w3.org/2000/svg">
<rect width="64" height="64" fill="#01A88D"/>
<path d="M31 34.9999H33V49.9999C33 50.351 32.8154 50.6767 32.5146 50.8573L27.5146 53.8573C27.3564 53.9521 27.1787 53.9999 27 53.9999C26.835 53.9999 26.6709 53.9594 26.5215 53.8778L15.5215 47.8778C15.2002 47.7026 15 47.3656 15 46.9999V40.5663L10.4854 37.8573C10.1846 37.6767 10 37.351 10 36.9999V26.9999C10 26.621 10.2139 26.2748 10.5527 26.1054L16 23.3818V15.9999C16 15.6366 16.1973 15.3022 16.5146 15.1259L25.5146 10.1259C25.8027 9.96575 26.1533 9.95843 26.4473 10.1054L32.4473 13.1054C32.7861 13.2748 33 13.621 33 13.9999V28.9999H31V14.6181L26.0244 12.1303L23 13.8105V20.9999H21V14.9216L18 16.5883V23.4337L22 25.8337L26 23.4335V18.9999H28V23.9999C28 24.351 27.8154 24.6767 27.5146 24.8573L23 27.5663L22.9992 30.3813L26.4473 32.1054L25.5527 33.8944L21.9996 32.1178L18.4473 33.8944L17.5527 32.1054L21 30.3818V27.5662L16.9563 25.1399L12 27.6181V30.3818L16.5527 28.1054L17.4473 29.8944L12 32.6181V36.4335L15.9999 38.8337L20.4844 36.1425L21.5137 37.8573L17 40.5661V46.4062L20.4992 48.3149L25.4619 45.1562L26.5361 46.8437L22.5054 49.4092L26.9766 51.8481L31 49.4335L31 34.9999ZM29 41.9999V38.4999C29 38.1342 28.7998 37.7973 28.4795 37.622C28.1563 37.4467 27.7685 37.4599 27.459 37.6586L20.458 42.1586L21.54 43.8412L27 40.3315V41.9999H29ZM54 31.9999C54 34.2055 52.206 35.9999 50 35.9999C48.1413 35.9999 46.5892 34.7202 46.142 32.9999H29V30.9999H46.142C46.5892 29.2796 48.1413 27.9999 50 27.9999C52.206 27.9999 54 29.7943 54 31.9999ZM52 31.9999C52 30.8969 51.1025 29.9999 50 29.9999C48.8975 29.9999 48 30.8969 48 31.9999C48 33.1029 48.8975 33.9999 50 33.9999C51.1025 33.9999 52 33.1029 52 31.9999ZM47 44.9999V50.9999C47 51.5522 46.5527 51.9999 46 51.9999H40C39.4473 51.9999 39 51.5522 39 50.9999V44.9999C39 44.4477 39.4473 43.9999 40 43.9999H42V38.9999H35V36.9999H43C43.5527 36.9999 44 37.4477 44 37.9999V43.9999H46C46.5527 43.9999 47 44.4477 47 44.9999ZM45 45.9999H41V49.9999H45V45.9999ZM44 26.9999H35V24.9999H43V19.9999H40.5C40.1416 19.9999 39.8115 19.8085 39.6328 19.498C39.4541 19.1874 39.4561 18.8056 39.6357 18.496L43.1357 12.496C43.4951 11.8818 44.5049 11.8818 44.8643 12.496L48.3643 18.496C48.5439 18.8056 48.5459 19.1874 48.3672 19.498C48.1885 19.8085 47.8584 19.9999 47.5 19.9999H45V25.9999C45 26.5522 44.5527 26.9999 44 26.9999ZM45.7588 17.9999L44 14.9848L42.2412 17.9999H45.7588Z" fill="white"/>
</svg>
