<?xml version="1.0" encoding="UTF-8"?>
<svg width="64px" height="64px" viewBox="0 0 64 64" version="1.1" xmlns="http://www.w3.org/2000/svg" xmlns:xlink="http://www.w3.org/1999/xlink">
    <title>Icon-Architecture/48/Arch_Amazon-Comprehend-Medical_48</title>
    <g id="Icon-Architecture/48/Arch_Amazon-Comprehend-Medical_48" stroke="none" stroke-width="1" fill="none" fill-rule="evenodd">
        <g id="Icon-Architecture-BG/48/Machine-Learning" fill="#01A88D">
            <rect id="Rectangle" x="0" y="0" width="64" height="64"></rect>
        </g>
        <g id="Icon-Service/48/Amazon-Comprehend-Medical_48" transform="translate(10.000000, 10.000000)" fill="#FFFFFF">
            <path d="M41.9996487,33 L37.9996487,33 C37.4466487,33 36.9996487,32.552 36.9996487,32 L36.9996487,28 L32.9996487,28 L32.9996487,32 C32.9996487,32.552 32.5526487,33 31.9996487,33 L27.9996487,33 L27.9996487,37 L31.9996487,37 C32.5526487,37 32.9996487,37.448 32.9996487,38 L32.9996487,42 L36.9996487,42 L36.9996487,38 C36.9996487,37.448 37.4466487,37 37.9996487,37 L41.9996487,37 L41.9996487,33 Z M43.9996487,32 L43.9996487,38 C43.9996487,38.552 43.5526487,39 42.9996487,39 L38.9996487,39 L38.9996487,43 C38.9996487,43.552 38.5526487,44 37.9996487,44 L31.9996487,44 C31.4466487,44 30.9996487,43.552 30.9996487,43 L30.9996487,39 L26.9996487,39 C26.4466487,39 25.9996487,38.552 25.9996487,38 L25.9996487,32 C25.9996487,31.448 26.4466487,31 26.9996487,31 L30.9996487,31 L30.9996487,27 C30.9996487,26.448 31.4466487,26 31.9996487,26 L37.9996487,26 C38.5526487,26 38.9996487,26.448 38.9996487,27 L38.9996487,31 L42.9996487,31 C43.5526487,31 43.9996487,31.448 43.9996487,32 L43.9996487,32 Z M2.17464871,6.575 L6.99964871,30.844 L6.99964871,5.582 L2.17464871,6.575 Z M30.9996487,2.427 L30.9996487,7 L36.1776487,7 L30.9996487,2.427 Z M8.99964871,40 L25.9996487,40 L25.9996487,42 L7.99964871,42 C7.51464871,42 7.12964871,41.648 7.03864871,41.191 L7.01964871,41.195 L0.019648707,5.99 C-0.088351293,5.451 0.259648707,4.927 0.798648707,4.816 L6.99964871,3.54 L6.99964871,1 C6.99964871,0.448 7.44664871,0 7.99964871,0 L30.8946487,0 C31.1386487,0 31.3736487,0.089 31.5566487,0.25 L38.6616487,6.525 C38.8766487,6.715 38.9996487,6.988 38.9996487,7.274 L38.9996487,24 L36.9996487,24 L36.9996487,9 L29.9996487,9 C29.4466487,9 28.9996487,8.552 28.9996487,8 L28.9996487,2 L8.99964871,2 L8.99964871,40 Z M11.9996487,31 L24.9996487,31 L24.9996487,29 L11.9996487,29 L11.9996487,31 Z M11.9996487,26 L30.9996487,26 L30.9996487,24 L11.9996487,24 L11.9996487,26 Z M11.9996487,11 L26.9996487,11 L26.9996487,9 L11.9996487,9 L11.9996487,11 Z M11.9996487,21 L32.9996487,21 L32.9996487,19 L11.9996487,19 L11.9996487,21 Z M18.9996487,16 L32.9996487,16 L32.9996487,14 L18.9996487,14 L18.9996487,16 Z M11.9996487,16 L16.9996487,16 L16.9996487,14 L11.9996487,14 L11.9996487,16 Z" id="Fill-3"></path>
        </g>
    </g>
</svg>