<?xml version="1.0" encoding="UTF-8"?>
<svg width="64px" height="64px" viewBox="0 0 64 64" version="1.1" xmlns="http://www.w3.org/2000/svg" xmlns:xlink="http://www.w3.org/1999/xlink">
    <title>Icon-Architecture/48/Arch_Amazon-Bedrock_48</title>
    <g id="Icon-Architecture/48/Arch_Amazon-Bedrock_48" stroke="none" stroke-width="1" fill="none" fill-rule="evenodd">
        <g id="Icon-Architecture-BG/48/Machine-Learning" fill="#01A88D">
            <rect id="Rectangle" x="0" y="0" width="64" height="64"></rect>
        </g>
        <g id="Icon-Service/48/Amazon-Bedrock_48" transform="translate(10.000000, 10.000000)" fill="#FFFFFF">
            <path d="M41,20.9998818 C40.448,20.9998818 40,20.5508818 40,19.9998818 C40,19.4488818 40.448,18.9998818 41,18.9998818 C41.552,18.9998818 42,19.4488818 42,19.9998818 C42,20.5508818 41.552,20.9998818 41,20.9998818 L41,20.9998818 Z M16.977,41.8478818 L13.774,40.1018818 L17.515,37.8568818 L16.485,36.1428818 L11.738,38.9908818 L7,36.4058818 L7,30.5658818 L11.515,27.8568818 L10.485,26.1428818 L6,28.8338818 L2,26.4338818 L2,22.6178818 L7.447,19.8948818 L6.553,18.1048818 L2,20.3818818 L2,17.6178818 L6.956,15.1398818 L11,17.5658818 L11,20.3818818 L7.553,22.1048818 L8.447,23.8948818 L12.003,22.1168818 L15.557,23.8768818 L16.443,22.0848818 L13,20.3798818 L13,17.5658818 L17.515,14.8568818 C17.815,14.6768818 18,14.3508818 18,13.9998818 L18,8.99988178 L16,8.99988178 L16,13.4338818 L12,15.8338818 L8,13.4338818 L8,6.58788178 L11,4.92188178 L11,10.9998818 L13,10.9998818 L13,3.81088178 L16.024,2.12988178 L21.002,4.61588178 L21.001,26.4498818 L10.463,33.1558818 L11.537,34.8438818 L21.001,28.8218818 L21,39.4338818 L16.977,41.8478818 Z M38,28.9998818 C38.552,28.9998818 39,29.4488818 39,29.9998818 C39,30.5508818 38.552,30.9998818 38,30.9998818 C37.448,30.9998818 37,30.5508818 37,29.9998818 C37,29.4488818 37.448,28.9998818 38,28.9998818 L38,28.9998818 Z M30,38.9998818 C29.448,38.9998818 29,38.5508818 29,37.9998818 C29,37.4488818 29.448,36.9998818 30,36.9998818 C30.552,36.9998818 31,37.4488818 31,37.9998818 C31,38.5508818 30.552,38.9998818 30,38.9998818 L30,38.9998818 Z M32,5.99988178 C32.552,5.99988178 33,6.44888178 33,6.99988178 C33,7.55088178 32.552,7.99988178 32,7.99988178 C31.448,7.99988178 31,7.55088178 31,6.99988178 C31,6.44888178 31.448,5.99988178 32,5.99988178 L32,5.99988178 Z M41,16.9998818 C39.698,16.9998818 38.598,17.8388818 38.184,18.9998818 L23.001,18.9998818 L23.001,14.9998818 L32,14.9998818 C32.553,14.9998818 33,14.5518818 33,13.9998818 L33,9.81588178 C34.161,9.40188178 35,8.30188178 35,6.99988178 C35,5.34588178 33.654,3.99988178 32,3.99988178 C30.346,3.99988178 29,5.34588178 29,6.99988178 C29,8.30188178 29.839,9.40188178 31,9.81588178 L31,12.9998818 L23.001,12.9998818 L23.002,3.99788178 C23.002,3.61888178 22.788,3.27288178 22.449,3.10388178 L16.447,0.104881781 C16.151,-0.0421182195 15.803,-0.0341182195 15.515,0.125881781 L6.515,5.12588178 C6.197,5.30188178 6,5.63688178 6,5.99988178 L6,13.3818818 L0.553,16.1048818 C0.214,16.2748818 0,16.6208818 0,16.9998818 L0,26.9998818 C0,27.3508818 0.185,27.6768818 0.485,27.8568818 L5,30.5658818 L5,36.9998818 C5,37.3658818 5.2,37.7028818 5.521,37.8778818 L16.521,43.8778818 C16.671,43.9588818 16.835,43.9998818 17,43.9998818 C17.179,43.9998818 17.356,43.9518818 17.515,43.8568818 L22.515,40.8568818 C22.815,40.6768818 23,40.3508818 23,39.9998818 L23,32.9998818 L29,32.9998818 L29,35.1838818 C27.839,35.5978818 27,36.6978818 27,37.9998818 C27,39.6538818 28.346,40.9998818 30,40.9998818 C31.654,40.9998818 33,39.6538818 33,37.9998818 C33,36.6978818 32.161,35.5978818 31,35.1838818 L31,31.9998818 C31,31.4478818 30.553,30.9998818 30,30.9998818 L23,30.9998818 L23.001,26.9998818 L33.586,26.9998818 L35.301,28.7148818 C35.113,29.1058818 35,29.5378818 35,29.9998818 C35,31.6538818 36.346,32.9998818 38,32.9998818 C39.654,32.9998818 41,31.6538818 41,29.9998818 C41,28.3458818 39.654,26.9998818 38,26.9998818 C37.538,26.9998818 37.106,27.1128818 36.715,27.3008818 L34.707,25.2928818 C34.52,25.1048818 34.266,24.9998818 34,24.9998818 L23.001,24.9998818 L23.001,20.9998818 L38.184,20.9998818 C38.598,22.1608818 39.698,22.9998818 41,22.9998818 C42.654,22.9998818 44,21.6538818 44,19.9998818 C44,18.3458818 42.654,16.9998818 41,16.9998818 L41,16.9998818 Z" id="Fill-3"></path>
        </g>
    </g>
</svg>