<?xml version="1.0" encoding="UTF-8"?>
<svg width="64px" height="64px" viewBox="0 0 64 64" version="1.1" xmlns="http://www.w3.org/2000/svg" xmlns:xlink="http://www.w3.org/1999/xlink">
    <title>Icon-Architecture/48/Arch_Amazon-Lookout-for-Equipment_48</title>
    <g id="Icon-Architecture/48/Arch_Amazon-Lookout-for-Equipment_48" stroke="none" stroke-width="1" fill="none" fill-rule="evenodd">
        <g id="Icon-Architecture-BG/48/Machine-Learning" fill="#01A88D">
            <rect id="Rectangle" x="0" y="0" width="64" height="64"></rect>
        </g>
        <g id="Icon-Service/48/Amazon-Lookout-for-Equipment_48" transform="translate(10.000000, 10.000000)" fill="#FFFFFF">
            <path d="M32,12.497 C32,8.913 29.084,5.997 25.5,5.997 C21.916,5.997 19,8.913 19,12.497 C19,13.15 19.096,13.793 19.286,14.409 L17.374,14.997 C17.126,14.19 17,13.35 17,12.497 C17,7.81 20.813,3.997 25.5,3.997 C30.187,3.997 34,7.81 34,12.497 C34,16.808 30.775,20.437 26.499,20.939 L26.267,18.953 C29.535,18.569 32,15.794 32,12.497 L32,12.497 Z M6,39 L9,39 L9,37 L6,37 L6,39 Z M10,35 L5,35 C4.447,35 4,35.448 4,36 L4,40 C4,40.553 4.447,41 5,41 L10,41 C10.553,41 11,40.553 11,40 L11,36 C11,35.448 10.553,35 10,35 L10,35 Z M15,39 L18,39 L18,37 L15,37 L15,39 Z M19,35 L14,35 C13.447,35 13,35.448 13,36 L13,40 C13,40.553 13.447,41 14,41 L19,41 C19.553,41 20,40.553 20,40 L20,36 C20,35.448 19.553,35 19,35 L19,35 Z M38,42 L2,42 L2,8 L7,8 L7,19 L7,30 L7,32 L9,32 L9,30 L9,21.304 L16,27.846 L16,31 L16,32 L18,32 L18,31 L18,27.412 L18,21.304 L25,27.846 L25,33 C25,33.553 25.447,34 26,34 L38,34 L38,42 Z M2,6 L7,6 L7,3 L2,3 L2,6 Z M39,32 L27,32 L27,27.412 C27,27.135 26.885,26.871 26.683,26.682 L17.683,18.27 C17.393,17.997 16.966,17.925 16.602,18.083 C16.236,18.242 16,18.602 16,19 L16,25.109 L9,18.567 L9,2 C9,1.448 8.553,1 8,1 L1,1 C0.447,1 0,1.448 0,2 L0,43 C0,43.553 0.447,44 1,44 L39,44 C39.553,44 40,43.553 40,43 L40,33 C40,32.448 39.553,32 39,32 L39,32 Z M41.502,28.383 C41.049,28.9 40.339,29.264 39.854,28.839 L32.889,22.586 C33.609,22.058 34.268,21.455 34.855,20.789 L41.744,26.667 C42.213,27.078 41.977,27.841 41.502,28.383 L41.502,28.383 Z M43.053,25.154 L36.059,19.186 C37.288,17.242 38,14.948 38,12.5 C38,5.608 32.393,0 25.5,0 C18.607,0 13,5.608 13,12.5 C13,13.746 13.183,14.976 13.544,16.157 L15.456,15.572 C15.153,14.581 15,13.548 15,12.5 C15,6.711 19.71,2 25.5,2 C31.29,2 36,6.711 36,12.5 C36,17.611 32.353,21.96 27.327,22.842 L27.673,24.812 C28.895,24.598 30.043,24.204 31.104,23.672 L38.527,30.336 C39.05,30.792 39.684,31.015 40.339,31.015 C41.272,31.015 42.249,30.564 43.006,29.702 C44.302,28.222 44.326,26.271 43.053,25.154 L43.053,25.154 Z" id="Fill-1"></path>
        </g>
    </g>
</svg>