<?xml version="1.0" encoding="UTF-8"?>
<svg width="64px" height="64px" viewBox="0 0 64 64" version="1.1" xmlns="http://www.w3.org/2000/svg" xmlns:xlink="http://www.w3.org/1999/xlink">
    <title>Icon-Architecture/48/Arch_Amazon-SageMaker-Studio-Lab_48</title>
    <g id="Icon-Architecture/48/Arch_Amazon-SageMaker-Studio-Lab_48" stroke="none" stroke-width="1" fill="none" fill-rule="evenodd">
        <g id="Icon-Architecture-BG/48/Machine-Learning" fill="#01A88D">
            <rect id="Rectangle" x="0" y="0" width="64" height="64"></rect>
        </g>
        <g id="Icon-Service/48/Amazon-SageMaker-Studio-Lab_48" transform="translate(10.000000, 9.700000)" fill="#FFFFFF">
            <path d="M28.001,33.3285907 L42.001,33.3285907 L42.001,11.3285907 L28.001,11.3285907 L28.001,33.3285907 Z M26.001,33.3285907 L26.001,11.3285907 L23.001,11.3285907 L23.001,15.3285907 L24.001,15.3285907 L24.001,17.3285907 L23.001,17.3285907 L23.001,21.3285907 L24.001,21.3285907 L24.001,23.3285907 L23.001,23.3285907 L23.001,27.3285907 L24.001,27.3285907 L24.001,29.3285907 L23.001,29.3285907 L23.001,33.3285907 L26.001,33.3285907 Z M44.001,10.3285907 L44.001,34.3285907 C44.001,34.8805907 43.554,35.3285907 43.001,35.3285907 L28.001,35.3285907 L26.001,35.3285907 L22.001,35.3285907 C21.448,35.3285907 21.001,34.8805907 21.001,34.3285907 L21.001,29.3285907 L20.001,29.3285907 L20.001,27.3285907 L21.001,27.3285907 L21.001,23.3285907 L20.001,23.3285907 L20.001,21.3285907 L21.001,21.3285907 L21.001,17.3285907 L20.001,17.3285907 L20.001,15.3285907 L21.001,15.3285907 L21.001,10.3285907 C21.001,9.77659069 21.448,9.32859069 22.001,9.32859069 L43.001,9.32859069 C43.554,9.32859069 44.001,9.77659069 44.001,10.3285907 L44.001,10.3285907 Z M21.001,37.3285907 L23.001,37.3285907 L23.001,39.7055907 C23.001,40.0675907 22.805,40.4015907 22.488,40.5785907 L16.888,43.7075907 C16.736,43.7925907 16.568,43.8345907 16.4,43.8345907 C16.222,43.8345907 16.043,43.7865907 15.885,43.6915907 L5.485,37.4325907 C5.185,37.2515907 5.001,36.9265907 5.001,36.5755907 L5.001,30.0565907 L0.561,27.8865907 C0.219,27.7185907 0.001,27.3695907 0.001,26.9885907 L0,21.4715907 L0.001,16.8285907 C0.001,16.4665907 0.197,16.1325907 0.513,15.9555907 L5.001,13.4475907 L5.001,6.52959069 C5.001,6.17059069 5.193,5.83859069 5.506,5.66059069 L15.198,0.131590687 C15.49,-0.0344093126 15.847,-0.0444093126 16.144,0.107590687 L22.451,3.30059069 C22.788,3.46959069 23,3.81559069 23,4.19159069 L23.001,7.32759069 L21.001,7.32859069 L21,4.80659069 L15.722,2.13559069 L14.001,3.11659069 L14.001,10.3285907 L12.001,10.3285907 L12.001,4.25759069 L7.001,7.10959069 L7.001,12.7245907 L11.644,15.5385907 L16.001,12.7865907 L16.001,8.80459069 L18.001,8.80459069 L18.001,13.3375907 C18.001,13.6805907 17.825,13.9995907 17.535,14.1825907 L13.001,17.0475907 L13.001,20.3285907 L17.001,20.3285907 L17.001,22.2365907 L12.305,22.2365907 L7.525,25.1795907 L6.476,23.4765907 L11.001,20.6905907 L11.001,17.4875907 L6.61,14.8265907 C6.572,14.8565907 6.531,14.8835907 6.489,14.9065907 L2.001,17.4155907 L2,20.4605907 L6.446,17.4965907 L7.556,19.1605907 L2,22.8645907 L2.001,26.3645907 L6.44,28.5345907 C6.496,28.5615907 6.542,28.6005907 6.591,28.6365907 L9.401,26.5285907 L10.601,28.1285907 L7.001,30.8275907 L7.001,36.0105907 L11.621,38.7915907 L13.001,37.6405907 L13.001,29.3285907 L15.001,29.3285907 L15.001,35.9745907 L17.401,33.9735907 L18.683,35.5105907 L13.435,39.8835907 L16.419,41.6785907 L21.001,39.1185907 L21.001,37.3285907 Z" id="Fill-1"></path>
        </g>
    </g>
</svg>