<?xml version="1.0" encoding="UTF-8"?>
<svg width="64px" height="64px" viewBox="0 0 64 64" version="1.1" xmlns="http://www.w3.org/2000/svg" xmlns:xlink="http://www.w3.org/1999/xlink">
    <title>Icon-Architecture/48/Arch_Amazon-Lookout-for-Vision_48</title>
    <g id="Icon-Architecture/48/Arch_Amazon-Lookout-for-Vision_48" stroke="none" stroke-width="1" fill="none" fill-rule="evenodd">
        <g id="Icon-Architecture-BG/48/Machine-Learning" fill="#01A88D">
            <rect id="Rectangle" x="0" y="0" width="64" height="64"></rect>
        </g>
        <g id="Icon-Service/48/Amazon-Lookout-for-Vision_48" transform="translate(10.000000, 10.000000)" fill="#FFFFFF">
            <path d="M6,7.5 C6,6.673 6.673,6 7.5,6 C8.327,6 9,6.673 9,7.5 C9,8.327 8.327,9 7.5,9 C6.673,9 6,8.327 6,7.5 L6,7.5 Z M11,7.5 C11,5.57 9.43,4 7.5,4 C5.57,4 4,5.57 4,7.5 C4,9.43 5.57,11 7.5,11 C9.43,11 11,9.43 11,7.5 L11,7.5 Z M37.5,39 C35.57,39 34,37.43 34,35.5 C34,33.57 35.57,32 37.5,32 C39.43,32 41,33.57 41,35.5 C41,37.43 39.43,39 37.5,39 L37.5,39 Z M23,20 C24.103,20 25,20.897 25,22 C25,23.103 24.103,24 23,24 C21.897,24 21,23.103 21,22 C21,20.897 21.897,20 23,20 L23,20 Z M19.556,20.002 C19.211,20.592 19,21.269 19,22 C19,24.206 20.794,26 23,26 C25.206,26 27,24.206 27,22 C27,19.794 25.206,18 23,18 C22.253,18 21.562,18.219 20.963,18.577 L17.869,15.87 C19.26,14.705 21.049,14 23,14 C27.411,14 31,17.589 31,22 C31,26.411 27.411,30 23,30 C18.589,30 15,26.411 15,22 C15,20.26 15.564,18.653 16.512,17.338 L19.556,20.002 Z M4,22 C4,19.469 4.508,17.024 5.47,14.713 C6.116,14.896 6.796,15 7.5,15 C9.216,15 10.794,14.415 12.059,13.442 L15.004,16.02 C13.752,17.69 13,19.756 13,22 C13,27.514 17.486,32 23,32 C28.514,32 33,27.514 33,22 C33,16.486 28.514,12 23,12 C20.449,12 18.125,12.968 16.357,14.546 L13.471,12.021 C14.426,10.762 15,9.199 15,7.5 C15,6.616 14.838,5.771 14.557,4.983 C19.699,2.435 26.068,2.403 31.242,4.887 C31.086,5.397 31,5.938 31,6.5 C31,9.533 33.468,12 36.5,12 C37.326,12 38.106,11.812 38.811,11.484 C40.891,14.603 42,18.217 42,22 C42,24.988 41.287,27.935 39.947,30.582 C39.209,30.213 38.38,30 37.5,30 C34.468,30 32,32.467 32,35.5 C32,36.519 32.283,37.471 32.769,38.29 C29.822,40.061 26.472,41 23,41 C12.523,41 4,32.477 4,22 L4,22 Z M2,7.5 C2,4.467 4.468,2 7.5,2 C10.532,2 13,4.467 13,7.5 C13,10.533 10.532,13 7.5,13 C4.468,13 2,10.533 2,7.5 L2,7.5 Z M36.5,3 C38.43,3 40,4.57 40,6.5 C40,8.43 38.43,10 36.5,10 C34.57,10 33,8.43 33,6.5 C33,4.57 34.57,3 36.5,3 L36.5,3 Z M44,22 C44,17.799 42.763,13.787 40.44,10.329 C41.403,9.337 42,7.988 42,6.5 C42,3.467 39.532,1 36.5,1 C34.744,1 33.181,1.831 32.173,3.116 C26.432,0.336 19.353,0.365 13.641,3.206 C12.282,1.271 10.039,0 7.5,0 C3.364,0 0,3.364 0,7.5 C0,10.216 1.456,12.592 3.623,13.908 C2.551,16.474 2,19.191 2,22 C2,33.58 11.421,43 23,43 C26.956,43 30.77,41.893 34.099,39.813 C35.035,40.554 36.216,41 37.5,41 C40.532,41 43,38.533 43,35.5 C43,34.077 42.452,32.783 41.563,31.806 C43.152,28.798 44,25.423 44,22 L44,22 Z" id="Fill-3"></path>
        </g>
    </g>
</svg>