<?xml version="1.0" encoding="UTF-8"?>
<svg width="64px" height="64px" viewBox="0 0 64 64" version="1.1" xmlns="http://www.w3.org/2000/svg" xmlns:xlink="http://www.w3.org/1999/xlink">
    <title>Icon-Architecture/48/Arch_AWS-Deep-Learning-AMIs_48</title>
    <g id="Icon-Architecture/48/Arch_AWS-Deep-Learning-AMIs_48" stroke="none" stroke-width="1" fill="none" fill-rule="evenodd">
        <g id="Icon-Architecture-BG/48/Machine-Learning" fill="#01A88D">
            <rect id="Rectangle" x="0" y="0" width="64" height="64"></rect>
        </g>
        <g id="Icon-Service/48/AWS-Deep-Learning-AMIs_48" transform="translate(10.000000, 10.000000)" fill="#FFFFFF">
            <path d="M35.771,22.952 C35.197,23.548 34.246,23.566 33.651,22.994 C33.362,22.716 33.199,22.343 33.191,21.942 C33.183,21.541 33.332,21.162 33.609,20.873 C33.903,20.568 34.296,20.414 34.69,20.414 C35.064,20.414 35.439,20.553 35.729,20.831 C36.018,21.109 36.181,21.483 36.189,21.884 C36.197,22.284 36.048,22.663 35.771,22.952 L35.771,22.952 Z M32.167,19.487 C30.83,20.878 30.874,23.098 32.264,24.435 C32.942,25.087 33.816,25.41 34.689,25.41 C35.609,25.41 36.527,25.052 37.212,24.339 C37.861,23.665 38.208,22.779 38.189,21.844 C38.17,20.91 37.79,20.038 37.116,19.39 C35.724,18.053 33.503,18.097 32.167,19.487 L32.167,19.487 Z M40.803,25.551 L38.702,25.13 C38.423,25.074 38.141,25.138 37.915,25.304 L36.863,26.075 C36.638,26.239 36.493,26.489 36.46,26.765 L36.211,28.88 L33.079,28.877 L32.834,26.779 C32.802,26.504 32.659,26.255 32.436,26.09 L31.371,25.301 C31.144,25.133 30.856,25.068 30.58,25.124 L28.497,25.541 L27.531,22.56 L29.482,21.665 C29.736,21.549 29.929,21.332 30.015,21.067 L30.416,19.84 C30.502,19.574 30.474,19.284 30.337,19.04 L29.288,17.171 L31.824,15.331 L33.265,16.896 C33.456,17.103 33.703,17.195 34.006,17.219 L35.332,17.211 C35.609,17.209 35.874,17.093 36.061,16.889 L37.492,15.336 L40.025,17.18 L38.979,19.04 C38.843,19.282 38.814,19.57 38.898,19.834 L39.293,21.074 C39.379,21.342 39.574,21.561 39.83,21.679 L41.773,22.572 L40.803,25.551 Z M43.416,21.126 L41.065,20.045 L40.936,19.64 L42.205,17.384 C42.453,16.942 42.331,16.384 41.92,16.085 L37.948,13.195 C37.537,12.897 36.969,12.952 36.625,13.326 L34.885,15.213 L34.437,15.216 L32.692,13.322 C32.347,12.948 31.779,12.893 31.37,13.19 L27.392,16.075 C26.981,16.373 26.859,16.932 27.107,17.374 L28.378,19.637 L28.25,20.03 L25.888,21.114 C25.427,21.325 25.198,21.848 25.354,22.33 L26.869,27.004 C27.025,27.487 27.514,27.775 28.016,27.677 L30.538,27.172 L30.898,27.44 L31.195,29.992 C31.253,30.495 31.68,30.876 32.187,30.876 L37.1,30.881 L37.101,30.881 C37.608,30.881 38.035,30.502 38.094,29.998 L38.396,27.431 L38.741,27.178 L41.283,27.687 C41.773,27.785 42.272,27.498 42.43,27.016 L43.951,22.344 C44.108,21.861 43.878,21.338 43.416,21.126 L43.416,21.126 Z M37.5,42 C36.121,42 35,40.878 35,39.5 C35,38.121 36.121,37 37.5,37 C38.878,37 40,38.121 40,39.5 C40,40.878 38.878,42 37.5,42 L37.5,42 Z M13.5,41.999 C12.122,41.999 11,40.878 11,39.499 C11,38.121 12.122,37 13.5,37 C14.878,37 16,38.121 16,39.499 C16,40.878 14.878,41.999 13.5,41.999 L13.5,41.999 Z M7.345,25.456 C7.507,25.323 7.662,25.184 7.804,25.03 L13,27.827 L13,35.051 C12.732,35.081 12.473,35.132 12.221,35.207 L7.345,25.456 Z M2,21.999 C2,20.621 3.121,19.499 4.5,19.499 C5.878,19.499 7,20.621 7,21.999 C7,23.378 5.878,24.499 4.5,24.499 C3.121,24.499 2,23.378 2,21.999 L2,21.999 Z M12.221,8.792 C12.473,8.868 12.732,8.919 13,8.949 L13,16.172 L7.804,18.97 C7.663,18.815 7.507,18.677 7.346,18.543 L12.221,8.792 Z M13.5,2.001 C14.878,2.001 16,3.122 16,4.5 C16,5.879 14.878,7 13.5,7 C12.122,7 11,5.879 11,4.5 C11,3.122 12.122,2.001 13.5,2.001 L13.5,2.001 Z M37.499,2 C38.877,2 39.999,3.121 39.999,4.499 C39.999,5.878 38.877,6.999 37.499,6.999 C36.121,6.999 35,5.878 35,4.499 C35,3.121 36.121,2 37.499,2 L37.499,2 Z M22.481,11.067 L17.65,6.236 C17.812,5.85 17.901,5.431 17.949,5 L33.05,5 C33.064,5.119 33.064,5.241 33.086,5.356 L22.481,11.067 Z M15,15.095 L15,8.723 C15.541,8.531 16.03,8.24 16.454,7.868 L20.642,12.056 L15,15.095 Z M21.013,32.142 L16.519,36.186 C16.082,35.787 15.568,35.479 15,35.276 L15,28.905 L21.013,32.142 Z M33.086,38.643 C33.064,38.759 33.063,38.881 33.05,39 L17.949,39 C17.904,38.596 17.819,38.204 17.673,37.839 L22.883,33.15 L33.086,38.643 Z M37.5,35 C36.028,35 34.731,35.72 33.91,36.816 L24.462,31.729 L26.668,29.743 L25.331,28.257 L22.591,30.722 L15,26.634 L15,25 L13,25 L13,25.556 L8.789,23.289 C8.818,23.192 8.856,23.099 8.878,23 L24,23 L24,21 L8.878,21 C8.856,20.9 8.818,20.807 8.789,20.71 L13,18.443 L13,19 L15,19 L15,17.366 L22.119,13.533 L25.292,16.707 L26.707,15.293 L23.957,12.543 L33.91,7.183 C34.731,8.279 36.028,8.999 37.499,8.999 C39.98,8.999 41.999,6.98 41.999,4.499 C41.999,2.018 39.98,0 37.499,0 C35.546,0 33.897,1.258 33.276,3 L17.723,3 C17.101,1.258 15.453,0.001 13.5,0.001 C11.019,0.001 9,2.019 9,4.5 C9,5.814 9.576,6.986 10.476,7.809 L5.562,17.64 C5.219,17.556 4.867,17.499 4.5,17.499 C2.018,17.499 3.55271368e-15,19.518 3.55271368e-15,21.999 C3.55271368e-15,24.481 2.018,26.499 4.5,26.499 C4.867,26.499 5.219,26.443 5.561,26.359 L10.476,36.19 C9.576,37.014 9,38.186 9,39.499 C9,41.98 11.019,43.999 13.5,43.999 C15.453,43.999 17.101,42.742 17.723,41 L33.276,41 C33.897,42.742 35.546,44 37.5,44 C39.981,44 42,41.981 42,39.5 C42,37.018 39.981,35 37.5,35 L37.5,35 Z" id="AWS-Deep-Learning-AMIs_48_Squid"></path>
        </g>
    </g>
</svg>