<?xml version="1.0" encoding="UTF-8"?>
<svg width="64px" height="64px" viewBox="0 0 64 64" version="1.1" xmlns="http://www.w3.org/2000/svg" xmlns:xlink="http://www.w3.org/1999/xlink">
    <title>Icon-Architecture/48/Arch_AWS-HealthImaging_48</title>
    <g id="Icon-Architecture/48/Arch_AWS-HealthImaging_48" stroke="none" stroke-width="1" fill="none" fill-rule="evenodd">
        <g id="Icon-Architecture-BG/48/Machine-Learning" fill="#01A88D">
            <rect id="Rectangle" x="0" y="0" width="64" height="64"></rect>
        </g>
        <g id="Icon-Service/48/AWS-HealthImaging_48" transform="translate(10.200000, 9.700000)" fill="#FFFFFF">
            <path d="M24.7939454,30.2694792 L26.7939454,30.2694792 L26.7939454,19.2694792 L24.7939454,19.2694792 L24.7939454,30.2694792 Z M19.7939454,21.2694792 L21.7939454,21.2694792 L21.7939454,14.2694792 L19.7939454,14.2694792 L19.7939454,21.2694792 Z M19.7939454,33.2694792 L21.7939454,33.2694792 L21.7939454,30.2694792 L19.7939454,30.2694792 L19.7939454,33.2694792 Z M19.7939454,28.2694792 L21.7939454,28.2694792 L21.7939454,23.2694792 L19.7939454,23.2694792 L19.7939454,28.2694792 Z M14.7939454,38.2694792 L16.7939454,38.2694792 L16.7939454,35.2694792 L14.7939454,35.2694792 L14.7939454,38.2694792 Z M14.7939454,33.2694792 L16.7939454,33.2694792 L16.7939454,26.2694792 L14.7939454,26.2694792 L14.7939454,33.2694792 Z M41.7939454,35.2694792 L38.7939454,35.2694792 C38.2409454,35.2694792 37.7939454,34.8214792 37.7939454,34.2694792 L37.7939454,31.2694792 L34.7939454,31.2694792 L34.7939454,34.2694792 C34.7939454,34.8214792 34.3469454,35.2694792 33.7939454,35.2694792 L30.7939454,35.2694792 L30.7939454,38.2694792 L33.7939454,38.2694792 C34.3469454,38.2694792 34.7939454,38.7174792 34.7939454,39.2694792 L34.7939454,42.2694792 L37.7939454,42.2694792 L37.7939454,39.2694792 C37.7939454,38.7174792 38.2409454,38.2694792 38.7939454,38.2694792 L41.7939454,38.2694792 L41.7939454,35.2694792 Z M43.7939454,34.2694792 L43.7939454,39.2694792 C43.7939454,39.8214792 43.3469454,40.2694792 42.7939454,40.2694792 L39.7939454,40.2694792 L39.7939454,43.2694792 C39.7939454,43.8214792 39.3469454,44.2694792 38.7939454,44.2694792 L33.7939454,44.2694792 C33.2409454,44.2694792 32.7939454,43.8214792 32.7939454,43.2694792 L32.7939454,40.2694792 L29.7939454,40.2694792 C29.2409454,40.2694792 28.7939454,39.8214792 28.7939454,39.2694792 L28.7939454,34.2694792 C28.7939454,33.7174792 29.2409454,33.2694792 29.7939454,33.2694792 L32.7939454,33.2694792 L32.7939454,30.2694792 C32.7939454,29.7174792 33.2409454,29.2694792 33.7939454,29.2694792 L38.7939454,29.2694792 C39.3469454,29.2694792 39.7939454,29.7174792 39.7939454,30.2694792 L39.7939454,33.2694792 L42.7939454,33.2694792 C43.3469454,33.2694792 43.7939454,33.7174792 43.7939454,34.2694792 L43.7939454,34.2694792 Z M7.79394541,21.2694792 L17.7939454,21.2694792 L17.7939454,19.2694792 L7.79394541,19.2694792 C6.69094541,19.2694792 5.79394541,20.1664792 5.79394541,21.2694792 L5.79394541,42.2694792 C5.79394541,43.3724792 6.69094541,44.2694792 7.79394541,44.2694792 L30.7939454,44.2694792 L30.7939454,42.2694792 L7.79394541,42.2694792 L7.79394541,21.2694792 Z M37.7939454,27.2694792 L37.7939454,21.2694792 C37.7939454,20.1664792 36.8959454,19.2694792 35.7939454,19.2694792 L28.7939454,19.2694792 L28.7939454,21.2694792 L35.7939454,21.2694792 L35.7939454,27.2694792 L37.7939454,27.2694792 Z M43.9999454,20.3044792 L43.9969454,20.7604792 C43.9969454,20.8274792 43.9839454,22.9274792 42.8149454,25.0844792 L41.0579454,24.1314792 C41.9759454,22.4374792 41.9969454,20.7534792 41.9969454,20.7364792 L41.9999454,20.3044792 C41.9999454,15.3544792 38.6309454,14.1924792 36.0959454,13.7484792 C36.0519454,13.7414792 36.0079454,13.7304792 35.9659454,13.7174792 L35.6999454,13.6324792 C35.2339454,13.4844792 34.9429454,13.0204792 35.0129454,12.5374792 C35.2859454,10.6374792 34.5279454,9.14247922 32.9839454,8.53747922 C31.7789454,8.06647922 30.0509454,8.19747922 29.0869454,9.59547922 C28.8719454,9.90547922 28.4979454,10.0724792 28.1289454,10.0184792 C27.7559454,9.96747922 27.4419454,9.71147922 27.3189454,9.35547922 C26.7079454,7.59547922 25.8249454,6.11747922 24.6929454,4.96147922 C23.3119454,3.54947922 19.5199454,0.517479225 14.1689454,2.82147922 C10.7659454,4.28947922 8.64994541,7.20747922 8.64994541,10.4374792 L8.72694541,12.8664792 C8.73994541,13.3324792 8.43094541,13.7474792 7.97794541,13.8654792 L7.78394541,13.9154792 C5.15994541,14.5964792 2.44694541,15.2994792 2.00894541,20.0024792 C1.99494541,20.1514792 1.99894541,20.6234792 2.01194541,20.9704792 L0.0139454119,21.0444792 C0.00994541191,20.9574792 -0.0170545881,20.1874792 0.0169454119,19.8184792 C0.545945412,14.1444792 4.06694541,12.8424792 6.70194541,12.1324792 L6.64994541,10.4684792 C6.64994541,6.39647922 9.22794541,2.77447922 13.3769454,0.984479225 C17.8799454,-0.956520775 22.6429454,0.00847922463 26.1229454,3.56247922 C27.1319454,4.59347922 27.9709454,5.82947922 28.6259454,7.24947922 C30.0379454,6.23347922 31.9469454,5.98247922 33.7139454,6.67547922 C35.4399454,7.35247922 37.1309454,9.06247922 37.0699454,11.9024792 C41.6689454,12.9054792 43.9999454,15.7294792 43.9999454,20.3044792 L43.9999454,20.3044792 Z" id="Fill-3"></path>
        </g>
    </g>
</svg>