<?xml version="1.0" encoding="UTF-8"?>
<svg width="64px" height="64px" viewBox="0 0 64 64" version="1.1" xmlns="http://www.w3.org/2000/svg" xmlns:xlink="http://www.w3.org/1999/xlink">
    <title>Icon-Architecture/48/Arch_AWS-HealthLake_48</title>
    <g id="Icon-Architecture/48/Arch_AWS-HealthLake_48" stroke="none" stroke-width="1" fill="none" fill-rule="evenodd">
        <g id="Icon-Architecture-BG/48/Machine-Learning" fill="#01A88D">
            <rect id="Rectangle" x="0" y="0" width="64" height="64"></rect>
        </g>
        <g id="Icon-Service/48/AWS-HealthLake_48" transform="translate(10.000000, 10.000000)" fill="#FFFFFF">
            <path d="M37,27 L39,27 L39,23 L37,23 L37,27 Z M42,35 L39,35 C38.447,35 38,34.552 38,34 L38,31 L35,31 L35,34 C35,34.552 34.553,35 34,35 L31,35 L31,38 L34,38 C34.553,38 35,38.448 35,39 L35,42 L38,42 L38,39 C38,38.448 38.447,38 39,38 L42,38 L42,35 Z M44,34 L44,39 C44,39.552 43.553,40 43,40 L40,40 L40,43 C40,43.552 39.553,44 39,44 L34,44 C33.447,44 33,43.552 33,43 L33,40 L30,40 C29.447,40 29,39.552 29,39 L29,34 C29,33.448 29.447,33 30,33 L33,33 L33,30 C33,29.448 33.447,29 34,29 L39,29 C39.553,29 40,29.448 40,30 L40,33 L43,33 C43.553,33 44,33.448 44,34 L44,34 Z M17,6 L27,6 L27,2 L17,2 L17,6 Z M15,7 L15,1 C15,0.448 15.447,0 16,0 L28,0 C28.553,0 29,0.448 29,1 L29,7 C29,7.552 28.553,8 28,8 L16,8 C15.447,8 15,7.552 15,7 L15,7 Z M7,4 C7,3.449 7.448,3 8,3 L13,3 L13,1 L8,1 C6.346,1 5,2.346 5,4 L5,16 L7,16 L7,4 Z M37,4 L37,16 L39,16 L39,4 C39,2.346 37.654,1 36,1 L31,1 L31,3 L36,3 C36.552,3 37,3.449 37,4 L37,4 Z M7,41 L7,23 L5,23 L5,41 C5,42.654 6.346,44 8,44 L30,44 L30,42 L8,42 C7.448,42 7,41.551 7,41 L7,41 Z M30.693,19 L27.937,11.649 C27.797,11.276 27.449,11.022 27.053,11.001 C26.67,10.981 26.284,11.197 26.105,11.553 L21.849,20.067 L17.813,14.419 C17.619,14.145 17.313,13.99 16.96,14.001 C16.623,14.014 16.316,14.196 16.143,14.485 L13.434,19 L0,19 L0,21 L14,21 C14.352,21 14.677,20.816 14.857,20.515 L17.073,16.822 L21.187,22.581 C21.375,22.845 21.679,23 22,23 C22.025,23 22.052,22.999 22.078,22.997 C22.428,22.97 22.737,22.761 22.895,22.447 L26.869,14.499 L29.063,20.351 C29.21,20.741 29.583,21 30,21 L44,21 L44,19 L30.693,19 Z M10,33 L24,33 L24,31 L10,31 L10,33 Z M10,38 L24,38 L24,36 L10,36 L10,38 Z" id="Fill-5"></path>
        </g>
    </g>
</svg>