<?xml version="1.0" encoding="UTF-8"?>
<svg width="64px" height="64px" viewBox="0 0 64 64" version="1.1" xmlns="http://www.w3.org/2000/svg" xmlns:xlink="http://www.w3.org/1999/xlink">
    <title>Icon-Architecture/48/Arch_Amazon-Monitron_48</title>
    <g id="Icon-Architecture/48/Arch_Amazon-Monitron_48" stroke="none" stroke-width="1" fill="none" fill-rule="evenodd">
        <g id="Icon-Architecture-BG/48/Machine-Learning" fill="#01A88D">
            <rect id="Rectangle" x="0" y="0" width="64" height="64"></rect>
        </g>
        <g id="Icon-Service/48/Amazon-Monitron_48" transform="translate(10.000000, 10.000000)" fill="#FFFFFF">
            <path d="M22,10 C28.28,10 33.439,14.851 33.95,21 L29.762,21 L26.295,12.519 C26.138,12.136 25.758,11.9 25.349,11.897 C24.936,11.906 24.57,12.168 24.429,12.557 L18.94,27.716 L16.029,21.572 C15.864,21.223 15.512,21 15.125,21 L10.051,21 C10.562,14.851 15.721,10 22,10 L22,10 Z M22,34 C15.721,34 10.562,29.15 10.051,23 L14.493,23 L18.16,30.74 C18.332,31.105 18.687,31.324 19.111,31.311 C19.513,31.291 19.866,31.032 20.003,30.652 L25.426,15.678 L28.164,22.379 C28.318,22.755 28.684,23 29.09,23 L33.95,23 C33.439,29.15 28.28,34 22,34 L22,34 Z M8.051,23 C8.567,30.253 14.619,36 22,36 C29.382,36 35.434,30.253 35.95,23 L43,23 C43.553,23 44,22.552 44,22 L44,17.876 C44,16.842 43.16,16 42.125,16 L39.415,16 C39.107,15.016 38.709,14.059 38.228,13.141 L40.146,11.223 C40.877,10.492 40.877,9.302 40.146,8.571 L35.429,3.853 C34.698,3.123 33.507,3.124 32.778,3.854 L30.86,5.773 C29.94,5.291 28.984,4.893 28,4.585 L28,1.876 C28,0.842 27.16,0 26.125,0 L17.875,0 C16.841,0 16,0.842 16,1.876 L16,4.585 C15.017,4.893 14.061,5.291 13.141,5.773 L11.223,3.854 C10.493,3.124 9.303,3.124 8.571,3.854 L3.855,8.571 C3.123,9.302 3.123,10.492 3.855,11.223 L5.773,13.141 C5.291,14.059 4.894,15.016 4.585,16 L1.875,16 C0.841,16 0,16.842 0,17.876 L0,19 L2,19 L2,18 L5.337,18 C5.791,18 6.188,17.695 6.304,17.256 C6.654,15.935 7.183,14.66 7.876,13.469 C8.105,13.077 8.04,12.58 7.719,12.259 L5.357,9.897 L9.897,5.356 L12.259,7.718 C12.581,8.04 13.076,8.104 13.469,7.876 C14.663,7.181 15.937,6.653 17.256,6.304 C17.695,6.188 18,5.791 18,5.337 L18,2 L26,2 L26,5.337 C26,5.791 26.306,6.188 26.745,6.304 C28.064,6.653 29.338,7.181 30.532,7.876 C30.924,8.104 31.421,8.04 31.742,7.718 L34.104,5.356 L38.644,9.897 L36.282,12.259 C35.96,12.58 35.896,13.077 36.124,13.469 C36.818,14.66 37.347,15.935 37.697,17.256 C37.813,17.695 38.209,18 38.664,18 L42,18 L42,21 L35.95,21 C35.434,13.747 29.382,8 22,8 C14.619,8 8.567,13.747 8.051,21 L1,21 C0.448,21 0,21.448 0,22 L0,26.125 C0,27.159 0.841,28 1.875,28 L4.797,28 C5.124,28.981 5.546,29.935 6.056,30.851 L4.044,32.735 C3.667,33.088 3.451,33.587 3.451,34.104 C3.452,34.621 3.667,35.119 4.044,35.472 L9.127,40.228 C9.844,40.902 10.97,40.901 11.691,40.228 L13.856,38.202 C14.865,38.703 15.918,39.114 17,39.429 L17,42.125 C17,43.159 17.841,44 18.875,44 L26.125,44 C27.16,44 28,43.159 28,42.125 L28,39.429 C29.082,39.114 30.136,38.703 31.145,38.202 L33.311,40.229 C34.031,40.901 35.157,40.902 35.882,40.219 L40.729,35.568 C41.107,35.214 41.324,34.715 41.324,34.197 C41.324,33.68 41.107,33.181 40.775,32.874 L38.919,30.897 C39.441,29.967 39.871,28.997 40.204,28 L42.125,28 C43.16,28 44,27.159 44,26.125 L44,25 L42,25 L42,26 L39.465,26 C39.018,26 38.624,26.298 38.503,26.728 C38.131,28.045 37.567,29.316 36.827,30.506 C36.587,30.891 36.637,31.389 36.948,31.719 L39.272,34.194 L34.59,38.687 L31.996,36.259 C31.679,35.965 31.211,35.905 30.834,36.111 C29.551,36.809 28.18,37.341 26.76,37.693 C26.314,37.803 26,38.203 26,38.663 L26,42 L19,42 L19,38.663 C19,38.203 18.687,37.803 18.241,37.693 C16.821,37.341 15.45,36.809 14.166,36.111 C13.789,35.904 13.321,35.965 13.005,36.259 L10.409,38.688 L5.508,34.103 L8.008,31.764 C8.356,31.439 8.426,30.912 8.174,30.506 C7.434,29.316 6.87,28.045 6.498,26.728 C6.376,26.298 5.983,26 5.536,26 L2,26 L2,23 L8.051,23 Z" id="Fill-3"></path>
        </g>
    </g>
</svg>