<?xml version="1.0" encoding="UTF-8"?>
<svg width="64px" height="64px" viewBox="0 0 64 64" version="1.1" xmlns="http://www.w3.org/2000/svg" xmlns:xlink="http://www.w3.org/1999/xlink">
    <title>Icon-Architecture/48/Arch_Amazon-Lookout-for-Metrics_48</title>
    <g id="Icon-Architecture/48/Arch_Amazon-Lookout-for-Metrics_48" stroke="none" stroke-width="1" fill="none" fill-rule="evenodd">
        <g id="Icon-Architecture-BG/48/Machine-Learning" fill="#01A88D">
            <rect id="Rectangle" x="0" y="0" width="64" height="64"></rect>
        </g>
        <g id="Icon-Service/48/Amazon-Lookout-for-Metrics_48" transform="translate(10.000000, 10.000000)" fill="#FFFFFF">
            <path d="M2,42 L44,42 L44,44 L0,44 L0,0 L2,0 L2,42 Z M4.74377811,40.507 L3,39.493 L8.94644521,29.493 C9.12648726,29.19 9.45420426,29.003 9.80923101,29 C10.1500972,29.003 10.4960207,29.178 10.6801086,29.478 L15.4603263,37.198 L19.9472171,10.834 C20.0281349,10.36 20.4377811,10.01 20.9232878,10 C21.4229551,10.021 21.8346243,10.323 21.9337486,10.793 L27.7750007,38.15 L32.4267614,34.238 C32.6331018,34.065 32.9021534,33.982 33.171205,34.004 C33.4412681,34.027 33.6900902,34.157 33.8620405,34.364 L37.322287,38.514 L39.5697783,36.293 L41,37.707 L37.9655833,40.707 C37.7653118,40.906 37.4891799,41.01 37.2019218,40.999 C36.9166866,40.985 36.6506694,40.854 36.4706274,40.636 L32.9547499,36.42 L27.7901727,40.762 C27.5180867,40.99 27.1448535,41.059 26.8090447,40.946 C26.4722244,40.833 26.2203679,40.551 26.1455189,40.207 L21.0568022,16.368 L17.0068674,40.166 C16.9370758,40.577 16.6164391,40.902 16.2017355,40.982 C16.1380127,40.994 16.0732785,41 16.0095558,41 C15.6616093,41 15.3328808,40.823 15.1467699,40.522 L9.83552929,31.944 L4.74377811,40.507 Z M29.9053075,13.6215305 C29.3172156,8.79353742 24.9339035,5.45854608 19.9523599,6.024181 C14.958649,6.59275683 11.5071582,10.819824 12.0942361,15.6487974 C12.4440494,18.5210857 14.1119995,20.9365526 16.6701991,22.276627 L15.7039033,24 C12.5586259,22.3530907 10.508416,19.3925752 10.0795146,15.8781883 C9.36062299,9.95715727 13.5918424,4.77429448 19.7140814,4.07729893 C22.6727917,3.74007465 25.5615394,4.51353384 27.8429302,6.25455224 C30.123307,7.99557065 31.5712297,10.5306346 31.920029,13.3931198 C32.4280187,17.5652901 30.4893435,21.5021876 26.8604112,23.6666969 L25.7957622,21.998221 C28.746361,20.2385768 30.3200136,17.0290642 29.9053075,13.6215305 L29.9053075,13.6215305 Z M42.5744633,29.8403671 C43.2757337,30.3685292 43.0286385,31.3848123 42.4234051,32.1160404 C42.0612654,32.5545866 41.6160938,32.8539421 41.1729229,32.9588118 C40.7917759,33.0522412 40.4476432,32.9855059 40.1635336,32.7709996 L31,25.7113594 C31.8593314,24.8962356 32.6006172,23.9829155 33.2238576,23 L42.5744633,29.8403671 Z M14.0038763,27.9878676 L14.9092358,26.1997136 C11.1342458,24.2630485 8.58368469,20.559302 8.08513873,16.2916146 C7.68530487,12.879873 8.61957999,9.53134901 10.713473,6.86115949 C12.8083631,4.19096996 15.8275575,2.49914752 19.2186671,2.09776615 C22.6057883,1.69538133 25.9360753,2.63561718 28.5893369,4.74387279 C31.2416014,6.85112495 32.9226984,9.89058533 33.3215351,13.3023269 C33.9427234,18.6136058 31.1967323,23.7964427 26.4894613,26.1967032 L27.3908324,27.9878676 C28.1446339,27.6025415 28.850575,27.1519909 29.512644,26.6522711 L38.939151,34.320662 C39.503505,34.7692057 40.1675682,35 40.8645355,35 C41.1297619,35 41.4009709,34.966886 41.6711828,34.8986512 C42.540647,34.6809018 43.3682333,34.1159575 44.0023837,33.3071741 C45.3993095,31.5260443 45.3225334,29.2853328 43.8139334,28.0852026 L34.1959847,20.6556335 C35.1960679,18.3145767 35.6108582,15.7055978 35.3027568,13.0675188 C34.8411032,9.12394693 32.896774,5.60784618 29.8247338,3.16845094 C26.7526936,0.729055701 22.9069101,-0.359691248 18.9843505,0.10490768 C15.0667763,0.568503156 11.5729663,2.52724421 9.14803871,5.61788071 C6.72410826,8.70851721 5.64326063,12.5828508 6.10391709,16.5264227 C6.68123331,21.4614066 9.63362247,25.7461527 14.0038763,27.9878676 L14.0038763,27.9878676 Z" id="Fill-1"></path>
        </g>
    </g>
</svg>