<?xml version="1.0" encoding="UTF-8"?>
<svg width="24px" height="24px" viewBox="0 0 24 24" version="1.1" xmlns="http://www.w3.org/2000/svg" xmlns:xlink="http://www.w3.org/1999/xlink">
    <title>Icon-Architecture/16/Arch_Amazon-Simple-Storage-Service_16</title>
    <g id="Icon-Architecture/16/Arch_Amazon-Simple-Storage-Service_16" stroke="none" stroke-width="1" fill="none" fill-rule="evenodd">
        <g id="Icon-Architecture-BG/16/Storage" fill="#7AA116">
            <rect id="Rectangle" x="0" y="0" width="24" height="24"></rect>
        </g>
        <g id="Icon-Service/16/Amazon-Simple-Storage-Service_16" transform="translate(4.000200, 3.999800)" fill="#FFFFFF">
            <path d="M13.908,9.051 L13.949,8.807 C14.215,8.96 14.419,9.089 14.564,9.192 C14.394,9.164 14.166,9.114 13.908,9.051 L13.908,9.051 Z M12.049,14.093 C11.999,14.396 10.979,15 7.478,15 C4.044,15 3.043,14.397 2.993,14.09 L1.259,3.965 C2.696,4.668 5.152,5 7.5,5 C9.85,5 12.311,4.666 13.748,3.962 L12.94,8.775 C11.385,8.267 9.568,7.398 8.644,6.955 L8.474,6.873 C8.409,6.384 8.007,6 7.5,6 C6.948,6 6.5,6.449 6.5,7 C6.5,7.551 6.948,8 7.5,8 C7.721,8 7.914,7.914 8.079,7.793 L8.213,7.857 C9.184,8.323 11.119,9.247 12.773,9.77 L12.049,14.093 Z M7.5,1 C11.761,1 13.971,2.037 14,2.49 L14,2.519 C13.946,2.977 11.735,4 7.5,4 C3.27,4 1.059,2.98 1,2.521 L1,2.489 C1.03,2.035 3.242,1 7.5,1 L7.5,1 Z M15,2.5 C15,0.782 11.112,0 7.5,0 C3.887,0 0,0.782 0,2.5 L0.047,2.816 L2.007,14.255 C2.197,15.425 3.936,16 7.478,16 C12.207,16 12.914,14.991 13.035,14.257 L13.742,10.043 C14.32,10.183 14.731,10.239 15.023,10.239 C15.485,10.239 15.661,10.104 15.783,9.96 C15.929,9.786 15.985,9.567 15.942,9.343 C15.849,8.868 15.33,8.416 14.125,7.76 L14.954,2.814 L15,2.5 Z" id="Amazon-Simple-Storage-Service-Icon_16_Squid"></path>
        </g>
    </g>
</svg>