<?xml version="1.0" encoding="UTF-8"?>
<svg width="24px" height="24px" viewBox="0 0 24 24" version="1.1" xmlns="http://www.w3.org/2000/svg" xmlns:xlink="http://www.w3.org/1999/xlink">
    <title>Icon-Architecture/16/Arch_Amazon-File-Cache_16</title>
    <g id="Icon-Architecture/16/Arch_Amazon-File-Cache_16" stroke="none" stroke-width="1" fill="none" fill-rule="evenodd">
        <g id="Icon-Architecture-BG/16/Storage" fill="#7AA116">
            <rect id="Rectangle" x="0" y="0" width="24" height="24"></rect>
        </g>
        <path d="M13.75,15 C13.75,15.414 13.414,15.75 13,15.75 C12.586,15.75 12.25,15.414 12.25,15 C12.25,14.586 12.586,14.25 13,14.25 C13.414,14.25 13.75,14.586 13.75,15 L13.75,15 Z M16,18.5 L15.3,17.975 C15.18,17.883 15.022,17.853 14.874,17.891 C14.727,17.929 14.604,18.033 14.543,18.172 L14.175,19 L11.825,19 L11.457,18.172 C11.396,18.033 11.273,17.929 11.126,17.891 C10.977,17.853 10.821,17.883 10.7,17.975 L10,18.5 L10,16.707 L10.854,15.854 C10.947,15.76 11,15.633 11,15.5 C11,13.099 12.39,11.651 13,11.132 C13.61,11.651 15,13.099 15,15.5 C15,15.633 15.053,15.76 15.146,15.854 L16,16.707 L16,18.5 Z M15.997,15.29 C15.897,11.869 13.387,10.157 13.277,10.084 C13.109,9.972 12.891,9.972 12.723,10.084 C12.613,10.157 10.103,11.869 10.003,15.29 L9.146,16.146 C9.053,16.24 9,16.367 9,16.5 L9,19.5 C9,19.689 9.107,19.862 9.276,19.947 C9.445,20.031 9.648,20.014 9.8,19.9 L10.798,19.151 L11.043,19.703 C11.123,19.884 11.303,20 11.5,20 L14.5,20 C14.697,20 14.877,19.884 14.957,19.703 L15.202,19.151 L16.2,19.9 C16.288,19.966 16.394,20 16.5,20 C16.576,20 16.653,19.982 16.724,19.947 C16.893,19.862 17,19.689 17,19.5 L17,16.5 C17,16.367 16.947,16.24 16.854,16.146 L15.997,15.29 Z M17,7 L6.5,7 C6.224,7 6,7.224 6,7.5 L6,15.5 C6,15.776 5.775,16 5.5,16 C5.225,16 5,15.776 5,15.5 L5,5 L8.382,5 L10.276,5.947 C10.346,5.982 10.423,6 10.5,6 L17,6 L17,7 Z M19.5,7 L18,7 L18,5.5 C18,5.224 17.776,5 17.5,5 L10.618,5 L8.724,4.053 C8.654,4.018 8.577,4 8.5,4 L4.5,4 C4.224,4 4,4.224 4,4.5 L4,15.5 C4,16.327 4.673,17 5.5,17 L8,17 L8,16 L6.908,16 C6.964,15.843 7,15.676 7,15.5 L7,8 L19,8 L19,16 L18,16 L18,17 L19.5,17 C19.776,17 20,16.776 20,16.5 L20,7.5 C20,7.224 19.776,7 19.5,7 L19.5,7 Z" id="Fill-7" fill="#FFFFFF"></path>
    </g>
</svg>