<?xml version="1.0" encoding="UTF-8"?>
<svg width="24px" height="24px" viewBox="0 0 24 24" version="1.1" xmlns="http://www.w3.org/2000/svg" xmlns:xlink="http://www.w3.org/1999/xlink">
    <title>Icon-Architecture/16/Arch_Amazon-FSx-for-OpenZFS_16</title>
    <g id="Icon-Architecture/16/Arch_Amazon-FSx-for-OpenZFS_16" stroke="none" stroke-width="1" fill="none" fill-rule="evenodd">
        <g id="Icon-Architecture-BG/16/Storage" fill="#7AA116">
            <rect id="Rectangle" x="0" y="0" width="24" height="24"></rect>
        </g>
        <path d="M14.056,16.145 L15.152,16.145 L16.679,13.915 L16.711,13.87 L16.209,13.162 L14.056,16.145 Z M17.582,12.707 L19.791,9.628 L18.707,9.628 L16.984,12.088 L16.497,12.764 L18.857,16.145 L20,16.145 L17.582,12.707 Z M16.768,11.597 L15.389,9.628 L14.257,9.628 L16.195,12.36 L16.768,11.597 Z M12.321,12.012 L11.124,11.553 C10.736,11.407 10.434,11.268 10.224,11.139 C10.024,11.017 9.88,10.88 9.793,10.731 C9.707,10.583 9.664,10.383 9.664,10.138 C9.664,9.696 9.804,9.367 10.094,9.13 C10.383,8.893 10.811,8.774 11.365,8.774 C11.942,8.774 12.614,8.907 13.363,9.172 L13.469,9.209 L13.469,8.475 L13.421,8.454 C13.096,8.311 12.748,8.198 12.383,8.119 C12.018,8.04 11.664,8 11.331,8 C10.591,8 9.984,8.2 9.528,8.596 C9.068,8.994 8.834,9.52 8.834,10.16 C8.834,10.633 8.977,11.036 9.257,11.359 C9.532,11.677 9.968,11.954 10.553,12.181 L11.851,12.685 C12.286,12.852 12.603,13.041 12.795,13.247 C12.981,13.447 13.076,13.692 13.076,13.976 C13.076,14.455 12.905,14.823 12.552,15.101 C12.199,15.379 11.717,15.52 11.118,15.52 C10.474,15.52 9.756,15.379 8.985,15.1 L8.879,15.062 L8.879,15.794 L8.924,15.815 C9.582,16.133 10.338,16.294 11.174,16.294 C11.987,16.294 12.654,16.08 13.155,15.66 C13.66,15.235 13.917,14.673 13.917,13.988 C13.917,13.517 13.786,13.117 13.53,12.802 C13.276,12.491 12.87,12.225 12.321,12.012 L12.321,12.012 Z M4,8.19 L8.511,8.19 L8.511,8.941 L4.818,8.941 L4.818,11.749 L7.94,11.749 L7.94,12.5 L4.818,12.5 L4.818,16.103 L4,16.103 L4,8.19 Z" id="Fill-7" fill="#FFFFFF"></path>
    </g>
</svg>