<?xml version="1.0" encoding="UTF-8"?>
<svg width="24px" height="24px" viewBox="0 0 24 24" version="1.1" xmlns="http://www.w3.org/2000/svg" xmlns:xlink="http://www.w3.org/1999/xlink">
    <title>Icon-Architecture/16/Arch_Amazon-FSx_16</title>
    <g id="Icon-Architecture/16/Arch_Amazon-FSx_16" stroke="none" stroke-width="1" fill="none" fill-rule="evenodd">
        <g id="Icon-Architecture-BG/16/Storage" fill="#7AA116">
            <rect id="Rectangle" x="0" y="0" width="24" height="24"></rect>
        </g>
        <g id="Icon-Service/16/Amazon-FSx_16" transform="translate(4.000000, 8.000000)" fill="#FFFFFF">
            <path d="M12.307,5.295 L10.28,8.104 L11.194,8.104 L12.719,5.876 L12.307,5.295 Z M15.036,8.104 L16,8.104 L13.604,4.694 L15.786,1.651 L14.884,1.651 L13.16,4.114 L12.698,4.753 L15.036,8.104 Z M12.777,3.568 L11.434,1.651 L10.483,1.651 L12.296,4.208 L12.777,3.568 Z M6.598,4.087 C6.015,3.86 5.587,3.589 5.315,3.275 C5.042,2.962 4.906,2.573 4.906,2.111 C4.906,1.483 5.131,0.974 5.581,0.585 C6.032,0.194 6.624,0 7.359,0 C7.692,0 8.041,0.039 8.409,0.119 C8.776,0.198 9.122,0.31 9.448,0.454 L9.448,1.033 C8.676,0.76 7.991,0.624 7.393,0.624 C6.81,0.624 6.363,0.751 6.053,1.004 C5.743,1.258 5.587,1.62 5.587,2.089 C5.587,2.354 5.634,2.567 5.729,2.731 C5.824,2.893 5.979,3.041 6.195,3.173 C6.411,3.306 6.719,3.448 7.12,3.599 L8.335,4.065 C8.88,4.276 9.278,4.536 9.528,4.842 C9.777,5.149 9.902,5.533 9.902,5.995 C9.902,6.669 9.654,7.214 9.159,7.63 C8.662,8.046 8.009,8.254 7.2,8.254 C6.36,8.254 5.61,8.095 4.952,7.777 L4.952,7.198 C5.746,7.486 6.477,7.63 7.143,7.63 C7.771,7.63 8.273,7.483 8.647,7.187 C9.022,6.892 9.209,6.491 9.209,5.983 C9.209,5.673 9.107,5.408 8.903,5.189 C8.699,4.969 8.369,4.773 7.914,4.598 L6.598,4.087 Z M0,8.062 L0,0.192 L4.417,0.192 L4.417,0.795 L0.67,0.795 L0.67,3.803 L3.838,3.803 L3.838,4.405 L0.67,4.405 L0.67,8.062 L0,8.062 Z" id="Amazon-FSx_16_Squid"></path>
        </g>
    </g>
</svg>