<?xml version="1.0" encoding="UTF-8"?>
<svg width="24px" height="24px" viewBox="0 0 24 24" version="1.1" xmlns="http://www.w3.org/2000/svg" xmlns:xlink="http://www.w3.org/1999/xlink">
    <title>Icon-Architecture/16/Arch_Amazon-FSx-for-WFS_16</title>
    <g id="Icon-Architecture/16/Arch_Amazon-FSx-for-WFS_16" stroke="none" stroke-width="1" fill="none" fill-rule="evenodd">
        <g id="Icon-Architecture-BG/16/Storage" fill="#7AA116">
            <rect id="Rectangle" x="0" y="0" width="24" height="24"></rect>
        </g>
        <g id="Icon-Service/16/Amazon-FSx-for-WFS_16" transform="translate(4.000000, 8.000000)" fill="#FFFFFF">
            <path d="M10.378,4.81967076 L9.477,4.81967076 L8.607,3.51854328 L10.181,1.18591957 L11.047,1.18591957 L9.476,3.47673999 L10.378,4.81967076 Z M8.462,3.72860483 L8.866,4.32430174 L8.826,4.38491652 L7.748,6.03092116 L6.872,6.03092116 L8.462,3.72860483 Z M8.451,3.30430141 L7.014,1.18591957 L7.913,1.18591957 L7.943,1.22981302 L8.908,2.66889136 L8.451,3.30430141 Z M6.907,4.41104358 C6.907,4.92522407 6.724,5.34743733 6.36,5.66618743 C6.003,5.97971212 5.527,6.13960972 4.949,6.13960972 C4.359,6.13960972 3.824,6.02047033 3.359,5.78532681 L3.304,5.75710959 L3.304,5.12692496 L3.438,5.17708891 C4.461,5.56585953 5.386,5.59616692 5.882,5.18544957 C6.117,4.99315442 6.232,4.73606417 6.232,4.40268292 C6.232,4.20620744 6.171,4.04212952 6.047,3.90313357 C5.917,3.75682205 5.701,3.62305151 5.405,3.50495721 L4.5,3.13813332 C4.085,2.96882999 3.775,2.76294877 3.578,2.52571509 C3.375,2.28116583 3.273,1.97704688 3.273,1.62067381 C3.273,1.13993595 3.441,0.744894832 3.772,0.443911127 C4.244,0.0175175439 4.963,-0.102666922 5.803,0.0875380587 C6.061,0.146062668 6.307,0.228624171 6.535,0.334177484 L6.595,0.361349624 L6.595,0.993624422 L6.462,0.944505553 C5.455,0.574546415 4.624,0.566185757 4.225,0.905837508 C4.033,1.06887035 3.941,1.29774337 3.941,1.60499757 C3.941,1.77639107 3.969,1.91329685 4.024,2.01257967 C4.082,2.11499774 4.178,2.20905515 4.312,2.2947519 C4.454,2.38671914 4.662,2.48600196 4.93,2.59155527 L5.767,2.9270267 C6.156,3.08483412 6.445,3.28339976 6.627,3.5174982 C6.814,3.75473189 6.907,4.05571559 6.907,4.41104358 L6.907,4.41104358 Z M0,0.00184130929 L3.236,0.00184130929 L3.236,0.643521848 L0.66,0.643521848 L0.66,2.59678069 L2.838,2.59678069 L2.838,3.23741614 L0.66,3.23741614 L0.66,5.86475307 L0,5.86475307 L0,0.00184130929 Z M15,7.43237653 C15,7.72081925 14.775,7.95491769 14.5,7.95491769 L11.5,7.95491769 C11.225,7.95491769 11,7.72081925 11,7.43237653 L11,6.90983538 L15,6.90983538 L15,7.43237653 Z M12,5.86475307 L14,5.86475307 L14,3.77458845 L12,3.77458845 L12,5.86475307 Z M15.5,5.86475307 L15,5.86475307 L15,3.25204729 C15,2.96360458 14.776,2.72950614 14.5,2.72950614 L11.5,2.72950614 C11.224,2.72950614 11,2.96360458 11,3.25204729 L11,5.86475307 L10.5,5.86475307 C10.224,5.86475307 10,6.09885151 10,6.38729422 L10,7.43237653 C10,8.29665961 10.673,9 11.5,9 L14.5,9 C15.327,9 16,8.29665961 16,7.43237653 L16,6.38729422 C16,6.09885151 15.776,5.86475307 15.5,5.86475307 L15.5,5.86475307 Z" id="Amazon-FSx-for-WFS_Icon_16_Squid"></path>
        </g>
    </g>
</svg>