<svg width="40" height="40" viewBox="0 0 40 40" fill="none" xmlns="http://www.w3.org/2000/svg">
<g clip-path="url(#clip0_536_4459)">
<rect width="40" height="40" fill="#01A88D"/>
<path d="M34 19.5C34 22.5327 31.5322 25 28.5 25H26.3968C26.5129 24.6589 26.6124 24.3257 26.6981 24H28.5C30.9815 24 33 21.9814 33 19.5C33 17.1396 31.1445 15.1763 28.7754 15.0298C28.6182 15.02 28.4736 14.936 28.3877 14.8037C28.3018 14.6714 28.2832 14.5059 28.3379 14.3574C28.4473 14.0615 28.5 13.7812 28.5 13.5C28.5 12.1216 27.3789 11 26 11C25.1084 11 24.3027 11.4683 23.8477 12.2524C23.7412 12.4351 23.5332 12.5317 23.3223 12.4922C23.1143 12.4531 22.9531 12.2866 22.9209 12.0771C22.4658 9.13526 19.9756 7 17 7C13.6914 7 11 9.69141 11 13C11 13.4712 11.0625 13.9624 11.1865 14.46C11.2197 14.5957 11.1953 14.7393 11.1182 14.856C11.041 14.9727 10.9189 15.0518 10.7812 15.0742C8.58984 15.4282 7 17.2896 7 19.5C7 21.9815 9.01855 24 11.5 24H20C21.1025 24 22 23.103 22 22C22 20.897 21.1025 20 20 20C18.8975 20 18 20.897 18 22C18 22.3659 18.106 22.7047 18.2782 23H17.1843C17.0723 22.6857 17 22.3524 17 22C17 20.3457 18.3457 19 20 19C21.6543 19 23 20.3457 23 22C23 23.6543 21.6543 25 20 25H11.5C8.46777 25 6 22.5327 6 19.5C6 16.9722 7.69922 14.8179 10.1084 14.1943C10.0361 13.79 10 13.3901 10 13C10 9.14014 13.1406 6 17 6C20.1172 6 22.7773 8.00684 23.6729 10.9004C24.3066 10.3301 25.1338 10 26 10C27.9297 10 29.5 11.5703 29.5 13.5C29.5 13.6992 29.4805 13.9004 29.4434 14.1025C32.043 14.5537 34 16.8174 34 19.5ZM20 16C17.9142 16 16.0755 17.0709 15 18.6904V15.207L16.1465 16.3535L16.8535 15.6465L14.8535 13.6465C14.6582 13.4512 14.3418 13.4512 14.1465 13.6465L12.1465 15.6465L12.8535 16.3535L14 15.207V23H15.0939C15.0388 22.6562 15 22.319 15 22C15 19.2432 17.2431 17 20 17C22.7568 17 25 19.2432 25 22C25 25.5854 21.2422 30.9824 20 32.6689C19.1732 31.5464 17.2371 28.7813 16.0326 26H14.9533C16.5047 29.8201 19.4387 33.5951 19.6064 33.8091C19.7012 33.9297 19.8467 34 20 34C20.1533 34 20.2988 33.9297 20.3935 33.8091C20.6221 33.5176 26 26.6196 26 22C26 18.6914 23.3086 16 20 16ZM18.9214 10.7144L18.8535 10.6465C18.6582 10.4512 18.3418 10.4512 18.1465 10.6465L18.0786 10.7144H18V10.793L16.1465 12.6465L16.8535 13.3535L18 12.207V15.3036C18.327 15.2063 18.6594 15.1282 19 15.0798V12.207L20.1465 13.3535L20.8535 12.6465L19 10.793V10.7144H18.9214Z" fill="white"/>
</g>
<defs>
<clipPath id="clip0_536_4459">
<rect width="40" height="40" fill="white"/>
</clipPath>
</defs>
</svg>
