<svg width="40" height="40" viewBox="0 0 40 40" fill="none" xmlns="http://www.w3.org/2000/svg">
<rect width="40" height="40" fill="#01A88D"/>
<path d="M15 20V11.7145L13.8525 12.8545L13.1475 12.1455L15.1602 10.1455C15.2539 10.0523 15.3809 10 15.5127 10C15.6514 9.979 15.7725 10.0527 15.8672 10.1475L17.8545 12.1475L17.1455 12.8525L16 11.6995V20H15ZM21 17V14.6995L22.1455 15.8525L22.8545 15.1475L20.8672 13.1475C20.7734 13.0537 20.6465 13.0005 20.5146 13C20.3643 12.9702 20.2549 13.0513 20.1602 13.1455L18.1475 15.1455L18.8525 15.8545L20 14.7145V17H21ZM15 33H16V28H15V33ZM25 33H26V29H25V33ZM20 34H21V32H20V34ZM21.5 21H12.5C12.2236 21 12 21.2236 12 21.5V30.5C12 30.7764 12.2236 31 12.5 31H14V30H13V22H21V30H17V31H21.5C21.7764 31 22 30.7764 22 30.5V21.5C22 21.2236 21.7764 21 21.5 21ZM28.5 18H19.5C19.2236 18 19 18.2236 19 18.5V20H20V19H28V27H23V28H28.5C28.7764 28 29 27.7764 29 27.5V18.5C29 18.2236 28.7764 18 28.5 18ZM28.957 14.019C28.9854 13.8442 29 13.6709 29 13.5C29 11.5703 27.4297 10 25.5 10C25.0713 10 24.6523 10.0806 24.25 10.2397C23.0029 7.64698 20.4092 6 17.5 6C13.3643 6 10 9.36426 10 13.5C10 13.7261 10.0127 13.96 10.0381 14.206C7.67188 14.855 6 17.0103 6 19.5C6 22.3639 8.20142 24.7208 11 24.9747V23.9495C8.75616 23.697 7 21.8102 7 19.5C7 17.333 8.5498 15.4756 10.6846 15.083C10.9512 15.0342 11.1299 14.7808 11.0879 14.5127C11.0283 14.1421 11 13.8106 11 13.5C11 9.91602 13.916 7 17.5 7C20.1758 7 22.5459 8.60938 23.5361 11.1001C23.5898 11.2354 23.7002 11.3408 23.8379 11.3882C23.9746 11.436 24.1269 11.4214 24.2519 11.3477C24.6494 11.1172 25.0684 11 25.5 11C26.8789 11 28 12.1216 28 13.5C28 13.7759 27.9482 14.0537 27.8408 14.3481C27.7842 14.5044 27.8086 14.6792 27.9062 14.8135C28.0049 14.9477 28.1738 15.0283 28.3291 15.0185C28.3467 15.0181 28.4824 15.0024 28.5 15C30.9815 15 33 17.0185 33 19.5C33 21.4529 31.7422 23.1024 30 23.7236V24.7867C32.3047 24.1315 34 22.0121 34 19.5C34 16.6211 31.7773 14.252 28.957 14.019Z" fill="white"/>
</svg>
