<?xml version="1.0" encoding="UTF-8"?>
<svg width="32px" height="32px" viewBox="0 0 32 32" version="1.1" xmlns="http://www.w3.org/2000/svg" xmlns:xlink="http://www.w3.org/1999/xlink">
    <title>Icon-Architecture-Category/16/Contact-Center_16</title>
    <g id="Icon-Architecture-Category/16/Contact-Center_16" stroke="none" stroke-width="1" fill="none" fill-rule="evenodd">
        <rect id="Rectangle" fill="#DD344C" x="4" y="4" width="24" height="24"></rect>
        <rect id="#879196-Border-Copy-6" stroke="#879196" stroke-width="2" x="1" y="1" width="30" height="30"></rect>
        <g id="Icon-Category/16/Contact-Center_16" transform="translate(8.600000, 8.000000)" fill="#FFFFFF">
            <path d="M1.34232787,15 C2.74232787,12.686 4.94432787,11.314 7.35932787,11.289 C8.72632787,11.253 10.0483279,11.7 11.2193279,12.52 C12.0833279,13.125 12.8553279,13.98 13.4803279,15.02 L1.34232787,15 Z M3.76232787,6.454 C3.76232787,4.425 5.39932787,2.773 7.41132787,2.773 C9.42432787,2.773 11.0613279,4.425 11.0613279,6.454 C11.0613279,7.012 10.9283279,7.535 10.7073279,8.009 L7.41132787,8.006 L7.41132787,9.006 L10.0293279,9.009 C9.36532787,9.7 8.43932787,10.134 7.41132787,10.134 C5.39932787,10.134 3.76232787,8.483 3.76232787,6.454 L3.76232787,6.454 Z M2.41132787,8.011 L1.96932787,8.011 C1.66132787,8.011 1.41132787,7.76 1.41132787,7.453 L1.41132787,6.569 C1.41132787,6.261 1.66132787,6.011 1.96932787,6.011 L2.41132787,6.011 L2.41132787,8.011 Z M7.40032787,1 C9.80432787,1 11.8663279,2.732 12.2483279,5.011 L11.9113279,5.011 C11.8783279,5.011 11.8493279,5.023 11.8173279,5.03 C11.2143279,3.148 9.47832787,1.773 7.41132787,1.773 C5.34432787,1.773 3.60832787,3.148 3.00632787,5.03 C2.97432787,5.023 2.94532787,5.011 2.91132787,5.011 L2.55032787,5.011 C2.94832787,2.72 5.01832787,1 7.40032787,1 L7.40032787,1 Z M13.4113279,7.453 C13.4113279,7.76 13.1613279,8.011 12.8543279,8.011 L12.4113279,8.011 L12.4113279,6.011 L12.8543279,6.011 C13.1613279,6.011 13.4113279,6.261 13.4113279,6.569 L13.4113279,7.453 Z M14.7713279,15.299 C14.0163279,13.781 12.9863279,12.537 11.7933279,11.701 C11.0853279,11.205 10.3213279,10.836 9.52932787,10.596 C10.2453279,10.224 10.8583279,9.684 11.2983279,9.01 L11.9093279,9.01 C11.9103279,9.01 11.9113279,9.011 11.9113279,9.011 L12.8543279,9.011 C13.7123279,9.011 14.4113279,8.312 14.4113279,7.453 L14.4113279,6.569 C14.4113279,5.855 13.9263279,5.259 13.2713279,5.075 L13.2653279,5 C12.8563279,2.149 10.3343279,0 7.40032787,0 C4.50832787,0 1.99032787,2.115 1.55532787,4.872 L1.49832787,5.091 L1.49832787,5.091 C0.871327866,5.292 0.411327866,5.875 0.411327866,6.569 L0.411327866,7.453 C0.411327866,8.312 1.11132787,9.011 1.96932787,9.011 L2.91132787,9.011 C3.11532787,9.011 3.28832787,8.889 3.36632787,8.715 C3.81532787,9.525 4.48932787,10.182 5.31132787,10.606 C3.11832787,11.256 1.22732787,12.898 0.0513278663,15.277 C-0.0246721337,15.432 -0.0156721337,15.615 0.0743278663,15.762 C0.165327866,15.909 0.325327866,15.998 0.498327866,15.999 L14.3223279,16.021 L14.3233279,16.021 C14.4963279,16.021 14.6573279,15.932 14.7483279,15.785 C14.8403279,15.638 14.8483279,15.454 14.7713279,15.299 L14.7713279,15.299 Z" id="Fill-6"></path>
        </g>
    </g>
</svg>