<?xml version="1.0" encoding="UTF-8"?>
<svg width="32px" height="32px" viewBox="0 0 32 32" version="1.1" xmlns="http://www.w3.org/2000/svg" xmlns:xlink="http://www.w3.org/1999/xlink">
    <title>Icon-Architecture-Category/16/Internet-of-Things_16</title>
    <g id="Icon-Architecture-Category/16/Internet-of-Things_16" stroke="none" stroke-width="1" fill="none" fill-rule="evenodd">
        <rect id="Rectangle" fill="#7AA116" x="4" y="4" width="24" height="24"></rect>
        <rect id="#879196-Border-Copy-13" stroke="#879196" stroke-width="2" x="1" y="1" width="30" height="30"></rect>
        <g id="Icon-Category/16/IoT_16" transform="translate(9.000000, 8.000000)" fill="#FFFFFF">
            <path d="M13,8 C12.448,8 12,7.551 12,7 C12,6.449 12.448,6 13,6 C13.552,6 14,6.449 14,7 C14,7.551 13.552,8 13,8 M10,12.38 L10,7.5 L11.071,7.5 C11.274,8.284 11.938,8.875 12.759,8.976 C12.343,10.481 11.333,11.695 10,12.38 M8,12.955 L8,3.929 C8.591,3.775 9.075,3.363 9.322,2.816 C10.521,3.24 11.55,4.076 12.209,5.165 C11.648,5.407 11.227,5.9 11.071,6.5 L9.5,6.5 C9.224,6.5 9,6.724 9,7 L9,12.771 C8.677,12.863 8.344,12.924 8,12.955 M6,12.774 L6,7 C6,6.724 5.776,6.5 5.5,6.5 L3.929,6.5 C3.773,5.9 3.352,5.407 2.791,5.165 C3.45,4.076 4.479,3.24 5.678,2.816 C5.925,3.363 6.409,3.775 7,3.929 L7,12.956 C6.656,12.925 6.323,12.865 6,12.774 M2.203,8.979 C3.04,8.894 3.722,8.296 3.929,7.5 L5,7.5 L5,12.389 C3.649,11.706 2.625,10.49 2.203,8.979 M2,6 C2.552,6 3,6.449 3,7 C3,7.551 2.552,8 2,8 C1.448,8 1,7.551 1,7 C1,6.449 1.448,6 2,6 M7.5,1 C8.052,1 8.5,1.449 8.5,2 C8.5,2.551 8.052,3 7.5,3 C6.948,3 6.5,2.551 6.5,2 C6.5,1.449 6.948,1 7.5,1 M13.27,5.027 C12.482,3.506 11.109,2.343 9.481,1.819 C9.389,0.802 8.541,0 7.5,0 C6.459,0 5.611,0.802 5.519,1.819 C3.891,2.343 2.518,3.506 1.73,5.027 C0.756,5.161 0,5.989 0,7 C0,7.787 0.461,8.462 1.123,8.789 C1.562,10.959 3.043,12.683 5,13.491 L5,15.5 L6,15.5 L6,13.807 C6.325,13.883 6.659,13.93 7,13.956 L7,15.5 L8,15.5 L8,13.956 C8.342,13.929 8.675,13.882 9,13.805 L9,15.5 L10,15.5 L10,13.484 C11.93,12.677 13.389,10.967 13.829,8.814 C14.518,8.498 15,7.806 15,7 C15,5.989 14.244,5.161 13.27,5.027" id="IoT_Category-Icon_16_Squid--"></path>
        </g>
    </g>
</svg>