<?xml version="1.0" encoding="UTF-8"?>
<svg width="32px" height="32px" viewBox="0 0 32 32" version="1.1" xmlns="http://www.w3.org/2000/svg" xmlns:xlink="http://www.w3.org/1999/xlink">
    <title>Icon-Architecture-Category/16/Media-Services_16</title>
    <g id="Icon-Architecture-Category/16/Media-Services_16" stroke="none" stroke-width="1" fill="none" fill-rule="evenodd">
        <rect id="Rectangle" fill="#ED7100" x="4" y="4" width="24" height="24"></rect>
        <rect id="#879196-Border-Copy-16" stroke="#879196" stroke-width="2" x="1" y="1" width="30" height="30"></rect>
        <g id="Icon-Category/16/Media-Services_16" transform="translate(8.000000, 10.000000)" fill="#FFFFFF">
            <path d="M4,7.917 L4,4.073 L7.361,5.896 L4,7.917 Z M4.351,3.127 C4.084,2.95 3.741,2.934 3.458,3.084 C3.176,3.236 3,3.529 3,3.85 L3,8.149 C3,8.47 3.176,8.763 3.458,8.915 C3.59,8.985 3.733,9.019 3.874,9.019 C4.038,9.019 4.198,8.973 4.331,8.884 L8.107,6.613 C8.35,6.451 8.494,6.181 8.494,5.89 C8.494,5.599 8.35,5.329 8.068,5.144 L4.351,3.127 Z M15,9 L14.101,9 L12.768,7 L10,7 L10,10.763 C10,10.893 9.894,11 9.763,11 L1.237,11 C1.106,11 1,10.893 1,10.763 L1,1.236 C1,1.106 1.106,1 1.237,1 L9.763,1 C9.894,1 10,1.106 10,1.236 L10,5 L12.768,5 L14.101,3 L15,3 L15,9 Z M15.132,2 L13.565,2 L12.232,4 L11,4 L11,1.236 C11,0.554 10.445,0 9.763,0 L1.237,0 C0.555,0 0,0.554 0,1.236 L0,10.763 C0,11.445 0.555,12 1.237,12 L9.763,12 C10.445,12 11,11.445 11,10.763 L11,8 L12.232,8 L13.565,10 L15.132,10 C15.61,10 16,9.61 16,9.131 L16,2.868 C16,2.389 15.61,2 15.132,2 L15.132,2 Z" id="Media-Services_Category-Icon_16_Squid"></path>
        </g>
    </g>
</svg>