<?xml version="1.0" encoding="UTF-8"?>
<svg width="32px" height="32px" viewBox="0 0 32 32" version="1.1" xmlns="http://www.w3.org/2000/svg" xmlns:xlink="http://www.w3.org/1999/xlink">
    <title>Icon-Architecture-Category/16/End-User-Computing_16</title>
    <g id="Icon-Architecture-Category/16/End-User-Computing_16" stroke="none" stroke-width="1" fill="none" fill-rule="evenodd">
        <rect id="Rectangle" fill="#01A88D" x="4" y="4" width="24" height="24"></rect>
        <rect id="#879196-Border-Copy-11" stroke="#879196" stroke-width="2" x="1" y="1" width="30" height="30"></rect>
        <g id="Icon-Category/16/End-User-Computing_16" transform="translate(8.000000, 8.000000)" fill="#FFFFFF">
            <path d="M1.9999375,1.353 C1.9999375,1.159 2.1579375,1 2.3529375,1 L13.6469375,1 C13.8419375,1 13.9999375,1.159 13.9999375,1.353 L13.9999375,2 L14.9999375,2 L14.9999375,1.353 C14.9999375,0.607 14.3939375,0 13.6469375,0 L2.3529375,0 C1.6059375,0 0.9999375,0.607 0.9999375,1.353 L0.9999375,10 L0.4999375,10 C0.3269375,10 0.1659375,10.09 0.0739375,10.238 C-0.0170625,10.385 -0.0240625,10.569 0.0529375,10.724 L1.0529375,12.724 C1.1379375,12.894 1.3109375,13 1.4999375,13 L6.9999375,13 L6.9999375,12 L1.8089375,12 L1.3089375,11 L1.9999375,11 L6.9999375,11 L6.9999375,10 L1.9999375,10 L1.9999375,1.353 Z M14.9999375,13 L14.9999375,4.5 C14.9999375,4.225 14.7749375,4 14.4999375,4 L9.4999375,4 C9.2249375,4 8.9999375,4.225 8.9999375,4.5 L8.9999375,13 L14.9999375,13 Z M14.9999375,14 L8.9999375,14 L8.9999375,14.5 C8.9999375,14.776 9.2249375,15 9.4999375,15 L14.4999375,15 C14.7749375,15 14.9999375,14.776 14.9999375,14.5 L14.9999375,14 Z M15.9999375,4.5 L15.9999375,13 L15.9999375,14 L15.9999375,14.5 C15.9999375,15.328 15.3269375,16 14.4999375,16 L9.4999375,16 C8.6729375,16 7.9999375,15.328 7.9999375,14.5 L7.9999375,4.5 C7.9999375,3.673 8.6729375,3 9.4999375,3 L14.4999375,3 C15.3269375,3 15.9999375,3.673 15.9999375,4.5 L15.9999375,4.5 Z M11.7659375,7.124 C11.7049375,6.976 11.6169375,6.817 11.4919375,6.665 C11.2569375,6.381 10.8109375,6.036 10.0219375,6.001 L9.9779375,7 C10.7839375,7.036 10.8729375,7.573 10.8859375,7.573 L10.8859375,7.572 C10.8629375,7.727 10.9159375,7.883 11.0249375,7.994 C11.1339375,8.105 11.2879375,8.16 11.4449375,8.139 C11.6969375,8.109 12.4159375,8.099 12.7759375,8.428 C12.9469375,8.584 13.0239375,8.814 13.0129375,9.131 C12.9959375,9.603 12.5319375,10 11.9999375,10 L9.9999375,10 L9.9999375,11 L11.9999375,11 C13.0719375,11 13.9759375,10.178 14.0129375,9.167 C14.0399375,8.393 13.7199375,7.934 13.4459375,7.686 C12.9379375,7.224 12.2269375,7.13 11.7659375,7.124 L11.7659375,7.124 Z M4.6589375,8 L6.9999375,8 L6.9999375,9 L4.6589375,9 C3.4469375,9 2.4609375,8.023 2.4609375,6.822 C2.4609375,5.674 3.3609375,4.731 4.4989375,4.649 L4.4989375,4.64 C4.4989375,4.028 4.8019375,3 6.8289375,3 L6.8289375,4 C5.4989375,4 5.4989375,4.449 5.4989375,4.64 C5.4989375,4.767 5.5239375,4.896 5.5759375,5.038 C5.6409375,5.214 5.6019375,5.41 5.4749375,5.548 C5.3489375,5.686 5.1529375,5.74 4.9759375,5.692 C4.8529375,5.659 4.7519375,5.644 4.6589375,5.644 C3.9979375,5.644 3.4609375,6.172 3.4609375,6.822 C3.4609375,7.472 3.9979375,8 4.6589375,8 L4.6589375,8 Z" id="End-User-Computing_Category-Icon_16_Squid--"></path>
        </g>
    </g>
</svg>