<?xml version="1.0" encoding="UTF-8"?>
<svg width="32px" height="32px" viewBox="0 0 32 32" version="1.1" xmlns="http://www.w3.org/2000/svg" xmlns:xlink="http://www.w3.org/1999/xlink">
    <title>Icon-Architecture-Category/16/Developer-Tools_16</title>
    <g id="Icon-Architecture-Category/16/Developer-Tools_16" stroke="none" stroke-width="1" fill="none" fill-rule="evenodd">
        <rect id="Rectangle" fill="#C925D1" x="4" y="4" width="24" height="24"></rect>
        <rect id="#879196-Border-Copy-10" stroke="#879196" stroke-width="2" x="1" y="1" width="30" height="30"></rect>
        <g id="Icon-Category/16/Dev-Tools_16" transform="translate(9.000000, 9.000000)" fill="#FFFFFF">
            <path d="M13.7542494,12.7523502 C13.7542494,12.4843502 13.6502494,12.2323502 13.4602494,12.0433502 L9.00124942,7.58435021 C8.91724942,7.50035021 8.80624942,7.45835021 8.69524942,7.45835021 C8.58524942,7.45835021 8.47424942,7.50035021 8.39024942,7.58435021 L7.58324942,8.39035021 C7.41524942,8.55935021 7.41524942,8.83335021 7.58424942,9.00235021 L12.0432494,13.4613502 C12.4222494,13.8393502 13.0812494,13.8393502 13.4602494,13.4613502 L13.4602494,13.4603502 C13.6502494,13.2713502 13.7542494,13.0203502 13.7542494,12.7523502 L13.7542494,12.7523502 Z M3.79924942,4.20935021 L7.08124942,7.47835021 L7.47824942,7.08235021 L4.43424942,4.02635021 C4.28624942,3.87735021 4.17424942,3.69435021 4.11024942,3.49535021 L3.64324942,2.03735021 C3.61524942,1.94935021 3.55124942,1.87735021 3.46624942,1.83835021 L1.86724942,1.11435021 C1.73924942,1.05735021 1.59424942,1.08535021 1.49924942,1.18135021 L1.18024942,1.50035021 C1.08424942,1.59635021 1.05724942,1.74435021 1.11324942,1.86935021 L1.83824942,3.46635021 C1.87624942,3.55135021 1.94924942,3.61535021 2.03724942,3.64435021 L3.79924942,4.20935021 Z M14.1672494,11.3363502 C14.5452494,11.7143502 14.7542494,12.2173502 14.7542494,12.7523502 C14.7542494,13.2873502 14.5452494,13.7903502 14.1672494,14.1683502 C13.7892494,14.5463502 13.2862494,14.7543502 12.7512494,14.7543502 C12.2172494,14.7543502 11.7142494,14.5463502 11.3362494,14.1683502 L6.87624942,9.70935021 C6.50524942,9.33635021 6.40324942,8.81335021 6.52724942,8.33735021 L3.26424942,5.08735021 L1.73224942,4.59635021 C1.37524942,4.48135021 1.08224942,4.22035021 0.92824942,3.87935021 L0.20224942,2.28035021 C-0.0237505802,1.77835021 0.0852494198,1.18035021 0.47324942,0.793350209 L0.79224942,0.473350209 C1.18124942,0.0853502088 1.77924942,-0.0236497912 2.27924942,0.203350209 L3.87924942,0.928350209 C4.22124942,1.08335021 4.48224942,1.37635021 4.59624942,1.73235021 L5.06324942,3.18935021 C5.07824942,3.23835021 5.10624942,3.28435021 5.14324942,3.32135021 L8.33724942,6.52835021 C8.81324942,6.40435021 9.33624942,6.50535021 9.70824942,6.87735021 L14.1672494,11.3363502 Z M14.3442494,1.40535021 C14.1852494,1.37735021 14.0212494,1.43035021 13.9052494,1.54435021 L12.2692494,3.18235021 C12.1452494,3.30635021 11.9422494,3.30735021 11.8172494,3.18235021 C11.7562494,3.12235021 11.7232494,3.04235021 11.7232494,2.95635021 C11.7232494,2.87135021 11.7562494,2.79135021 11.8172494,2.73035021 L13.4542494,1.09335021 C13.5692494,0.978350209 13.6212494,0.814350209 13.5942494,0.655350209 C13.5662494,0.495350209 13.4632494,0.358350209 13.3162494,0.288350209 C12.1852494,-0.251649791 10.8332494,-0.0186497912 9.95024942,0.865350209 C9.35924942,1.45635021 9.05324942,2.25135021 9.08924942,3.07835021 L7.61024942,4.55735021 L8.31724942,5.26435021 L9.96024942,3.62135021 C10.0692494,3.51235021 10.1222494,3.35835021 10.1032494,3.20535021 C10.0252494,2.59735021 10.2282494,2.00235021 10.6572494,1.57135021 C11.0532494,1.17635021 11.5852494,0.979350209 12.1312494,1.00235021 L11.1092494,2.02335021 C10.5952494,2.53835021 10.5952494,3.37535021 11.1092494,3.89035021 C11.6252494,4.40235021 12.4622494,4.40335021 12.9762494,3.88935021 L13.9972494,2.86835021 C14.0222494,3.40635021 13.8232494,3.94535021 13.4282494,4.34135021 C12.9982494,4.77135021 12.4022494,4.97435021 11.7942494,4.89635021 C11.6382494,4.88135021 11.4872494,4.93035021 11.3772494,5.03935021 L10.0142494,6.40235021 L10.7212494,7.10935021 L11.9202494,5.91035021 C12.7422494,5.94735021 13.5442494,5.63935021 14.1352494,5.04835021 C15.0192494,4.16435021 15.2492494,2.81235021 14.7102494,1.68335021 C14.6402494,1.53635021 14.5032494,1.43335021 14.3442494,1.40535021 L14.3442494,1.40535021 Z M6.42624942,9.99135021 L7.13324942,10.6983502 L5.90924942,11.9213502 C5.94524942,12.7483502 5.63924942,13.5443502 5.04824942,14.1343502 C4.48324942,14.7003502 3.72424942,14.9993502 2.95524942,14.9993502 C2.52424942,14.9993502 2.08924942,14.9053502 1.68324942,14.7113502 C1.53524942,14.6413502 1.43324942,14.5043502 1.40424942,14.3443502 C1.37724942,14.1853502 1.42924942,14.0213502 1.54424942,13.9063502 L3.18224942,12.2693502 C3.30724942,12.1453502 3.30724942,11.9413502 3.18224942,11.8173502 C3.05724942,11.6923502 2.85524942,11.6933502 2.73024942,11.8173502 L1.09324942,13.4553502 C0.97824942,13.5693502 0.81524942,13.6213502 0.65424942,13.5943502 C0.49524942,13.5663502 0.35824942,13.4633502 0.28824942,13.3163502 C-0.25075058,12.1883502 -0.0197505802,10.8353502 0.86324942,9.95135021 C1.45424942,9.36135021 2.24324942,9.05035021 3.07724942,9.08935021 L4.68224942,7.48535021 L5.38924942,8.19235021 L3.62024942,9.96035021 C3.51124942,10.0703502 3.36324942,10.1233502 3.20324942,10.1033502 C2.59624942,10.0273502 2.00124942,10.2283502 1.57024942,10.6583502 C1.17524942,11.0543502 0.97724942,11.5933502 1.00124942,12.1313502 L2.02324942,11.1103502 C2.53624942,10.5963502 3.37324942,10.5973502 3.88924942,11.1093502 C4.40324942,11.6253502 4.40324942,12.4613502 3.88924942,12.9763502 L2.86724942,13.9973502 C3.40624942,14.0273502 3.94524942,13.8233502 4.34124942,13.4283502 C4.77124942,12.9973502 4.97324942,12.4023502 4.89624942,11.7943502 C4.87624942,11.6413502 4.92924942,11.4873502 5.03824942,11.3783502 L6.42624942,9.99135021 Z" id="Dev-Tools_Category-Icon_16_Squid--"></path>
        </g>
    </g>
</svg>