<?xml version="1.0" encoding="UTF-8"?>
<svg width="32px" height="32px" viewBox="0 0 32 32" version="1.1" xmlns="http://www.w3.org/2000/svg" xmlns:xlink="http://www.w3.org/1999/xlink">
    <title>Icon-Architecture-Category/16/Games_16</title>
    <g id="Icon-Architecture-Category/16/Games_16" stroke="none" stroke-width="1" fill="none" fill-rule="evenodd">
        <rect id="Rectangle" fill="#8C4FFF" x="4" y="4" width="24" height="24"></rect>
        <rect id="#879196-Border-Copy-12" stroke="#879196" stroke-width="2" x="1" y="1" width="30" height="30"></rect>
        <g id="Icon-Category/16/Games_16" transform="translate(8.000000, 10.000000)" fill="#FFFFFF">
            <path d="M12.5025533,4.248 C12.9165533,4.248 13.2525533,3.912 13.2525533,3.498 C13.2525533,3.084 12.9165533,2.748 12.5025533,2.748 C12.0885533,2.748 11.7525533,3.084 11.7525533,3.498 C11.7525533,3.912 12.0885533,4.248 12.5025533,4.248 L12.5025533,4.248 Z M15.0005545,9.844 L15.0005545,5.941 C14.3645533,6.593 13.4805533,7 12.5005533,7 C11.9925533,7 11.5115533,6.885 11.0755533,6.689 C11.0835533,6.707 11.0895533,6.724 11.0975533,6.741 C11.7205533,8.23 12.8795533,11 13.8615533,11 C14.2305533,11 14.5005533,10.906 14.6875533,10.712 C15.0045533,10.383 15.0005545,9.849 15.0005545,9.844 L15.0005545,9.844 Z M4.90455325,6.741 C4.91155325,6.724 4.91855325,6.707 4.92655325,6.689 C4.48955325,6.885 4.00955325,7 3.50055325,7 C2.52155325,7 1.63655325,6.593 1.00054139,5.941 L1.00054139,9.826 C1.00054139,9.845 0.993553254,10.385 1.31955325,10.716 C1.50555325,10.907 1.77455325,11 2.14055325,11 C3.12155325,11 4.28155325,8.23 4.90455325,6.741 L4.90455325,6.741 Z M1.00055325,3.5 C1.00055325,4.878 2.12155325,6 3.50055325,6 C4.87955325,6 6.00055325,4.878 6.00055325,3.5 C6.00055325,2.121 4.87955325,1 3.50055325,1 C2.12155325,1 1.00055325,2.121 1.00055325,3.5 L1.00055325,3.5 Z M9.00055325,3.5 C9.00055325,2.961 9.13355325,2.456 9.35155325,2 L6.64955325,2 C6.86855325,2.456 7.00055325,2.961 7.00055325,3.5 C7.00055325,4.039 6.86855325,4.543 6.64955325,5 L9.35155325,5 C9.13355325,4.543 9.00055325,4.039 9.00055325,3.5 L9.00055325,3.5 Z M10.0005533,3.5 C10.0005533,4.878 11.1215533,6 12.5005533,6 C13.8795533,6 15.0005533,4.878 15.0005533,3.5 C15.0005533,2.121 13.8795533,1 12.5005533,1 C11.1215533,1 10.0005533,2.121 10.0005533,3.5 L10.0005533,3.5 Z M15.4075533,11.407 C15.0265533,11.8 14.5065533,12 13.8615533,12 C12.2135533,12 11.0825533,9.298 10.1745533,7.128 C9.99655325,6.702 9.83455325,6.314 9.68855325,6 L6.31355325,6 C6.16655325,6.314 6.00455325,6.702 5.82655325,7.128 C4.91855325,9.298 3.78755325,12 2.14055325,12 C1.49555325,12 0.976553254,11.801 0.595553254,11.407 C-0.0134467462,10.777 -0.00244674619,9.907 0.000553253814,9.809 L0.000553253814,3.5 C0.000553253814,1.57 1.57155325,0 3.50055325,0 C4.45055325,0 5.31155325,0.383 5.94255325,1 L10.0595533,1 C10.6905533,0.383 11.5505533,0 12.5005533,0 C14.4305533,0 16.0005533,1.57 16.0005533,3.5 L16.0005533,9.826 C16.0035533,9.907 16.0155533,10.777 15.4075533,11.407 L15.4075533,11.407 Z M3.00055325,4 L2.00055325,4 L2.00055325,3 L3.00055325,3 L3.00055325,2 L4.00055325,2 L4.00055325,3 L5.00055325,3 L5.00055325,4 L4.00055325,4 L4.00055325,5 L3.00055325,5 L3.00055325,4 Z" id="Fill-7"></path>
        </g>
    </g>
</svg>