<?xml version="1.0" encoding="UTF-8"?>
<svg width="32px" height="32px" viewBox="0 0 32 32" version="1.1" xmlns="http://www.w3.org/2000/svg" xmlns:xlink="http://www.w3.org/1999/xlink">
    <title>Icon-Architecture-Category/16/Compute_16</title>
    <g id="Icon-Architecture-Category/16/Compute_16" stroke="none" stroke-width="1" fill="none" fill-rule="evenodd">
        <rect id="Rectangle" fill="#ED7100" x="4" y="4" width="24" height="24"></rect>
        <rect id="#879196-Border-Copy-6" stroke="#879196" stroke-width="2" x="1" y="1" width="30" height="30"></rect>
        <g id="Icon-Category/16/Compute_16" transform="translate(8.000000, 8.000000)" fill="#FFFFFF">
            <path d="M6,10 L10,10 L10,6 L6,6 L6,10 Z M10.5,5 L5.5,5 C5.224,5 5,5.224 5,5.5 L5,10.5 C5,10.776 5.224,11 5.5,11 L10.5,11 C10.776,11 11,10.776 11,10.5 L11,5.5 C11,5.224 10.776,5 10.5,5 L10.5,5 Z M13,7 L13,13 L3,13 L3,3 L13,3 L13,6 L13,7 Z M14,2.5 C14,2.224 13.776,2 13.5,2 L13,2 L13,0 L12,0 L12,2 L10,2 L10,0 L9,0 L9,2 L7,2 L7,0 L6,0 L6,2 L4,2 L4,0 L3,0 L3,2 L2.5,2 C2.224,2 2,2.224 2,2.5 L2,3 L0,3 L0,4 L2,4 L2,6 L0,6 L0,7 L2,7 L2,9 L0,9 L0,10 L2,10 L2,12 L0,12 L0,13 L2,13 L2,13.5 C2,13.776 2.224,14 2.5,14 L3,14 L3,16 L4,16 L4,14 L6,14 L6,16 L7,16 L7,14 L9,14 L9,16 L10,16 L10,14 L12,14 L12,16 L13,16 L13,14 L13.5,14 C13.776,14 14,13.776 14,13.5 L14,13 L16,13 L16,12 L14,12 L14,10 L16,10 L16,9 L14,9 L14,7 L16,7 L16,6 L14,6 L14,4 L16,4 L16,3 L14,3 L14,2.5 Z" id="Fill-6"></path>
        </g>
    </g>
</svg>