<?xml version="1.0" encoding="UTF-8"?>
<svg width="32px" height="32px" viewBox="0 0 32 32" version="1.1" xmlns="http://www.w3.org/2000/svg" xmlns:xlink="http://www.w3.org/1999/xlink">
    <title>Icon-Architecture-Category/16/Migration-Transfer_16</title>
    <g id="Icon-Architecture-Category/16/Migration-Transfer_16" stroke="none" stroke-width="1" fill="none" fill-rule="evenodd">
        <rect id="Rectangle" fill="#01A88D" x="4" y="4" width="24" height="24"></rect>
        <rect id="#879196-Border-Copy-17" stroke="#879196" stroke-width="2" x="1" y="1" width="30" height="30"></rect>
        <g id="Icon-Category/16/Migration-Transfer_16" transform="translate(9.000000, 8.000000)" fill="#FFFFFF">
            <path d="M10.387,11.5 L7.5,8.252 L4.614,11.5 L6,11.5 C6.277,11.5 6.5,11.724 6.5,12 L6.5,14.5 L8.5,14.5 L8.5,12 C8.5,11.724 8.724,11.5 9,11.5 L10.387,11.5 Z M11.874,11.668 C12.005,11.815 12.037,12.025 11.956,12.205 C11.875,12.384 11.698,12.5 11.5,12.5 L9.5,12.5 L9.5,15 C9.5,15.276 9.277,15.5 9,15.5 L6,15.5 C5.724,15.5 5.5,15.276 5.5,15 L5.5,12.5 L3.5,12.5 C3.303,12.5 3.125,12.384 3.044,12.205 C2.963,12.025 2.995,11.815 3.126,11.668 L7.126,7.168 C7.316,6.954 7.685,6.954 7.874,7.168 L11.874,11.668 Z M15,7.207 C15,9.115 13.861,10.5 12.289,10.5 L12.289,9.5 C13.465,9.5 14,8.312 14,7.207 C14,6.359 13.454,5.454 11.921,5.454 C11.767,5.454 11.622,5.383 11.527,5.261 C11.432,5.14 11.399,4.982 11.436,4.833 C11.57,4.297 11.463,3.808 11.144,3.491 C10.832,3.183 10.358,3.083 9.845,3.216 C9.718,3.251 9.58,3.231 9.465,3.163 C9.351,3.095 9.268,2.984 9.236,2.856 C8.917,1.607 8.029,1 6.518,1 C6.218,1.002 3.579,1.121 3.579,4.547 C3.579,4.824 3.356,5.047 3.079,5.047 C1.076,5.047 1.002,6.9 1,7.111 C1,8.229 1.812,9.476 2.976,9.476 L2.976,10.476 C1.196,10.476 0,8.735 0,7.109 C0,6.125 0.557,4.323 2.594,4.076 C2.675,2.849 3.077,1.867 3.794,1.152 C4.933,0.015 6.443,0 6.518,0 L6.519,0 C8.712,0 9.662,1.094 10.066,2.167 C10.754,2.105 11.384,2.322 11.848,2.781 C12.287,3.217 12.512,3.829 12.49,4.489 C14.219,4.713 15,5.965 15,7.207 L15,7.207 Z" id="Migration-Transfer_Category-Icon_16_Squid"></path>
        </g>
    </g>
</svg>