<?xml version="1.0" encoding="UTF-8"?>
<svg width="32px" height="32px" viewBox="0 0 32 32" version="1.1" xmlns="http://www.w3.org/2000/svg" xmlns:xlink="http://www.w3.org/1999/xlink">
    <title>Icon-Architecture-Category/16/Database_16</title>
    <g id="Icon-Architecture-Category/16/Database_16" stroke="none" stroke-width="1" fill="none" fill-rule="evenodd">
        <rect id="Rectangle" fill="#C925D1" x="4" y="4" width="24" height="24"></rect>
        <rect id="#879196-Border-Copy-9" stroke="#879196" stroke-width="2" x="1" y="1" width="30" height="30"></rect>
        <g id="Icon-Category/16/Database_16" transform="translate(10.000000, 8.000000)" fill="#FFFFFF">
            <path d="M6,7.736 C2.765,7.736 1,6.782 1,6.293 L1,3.814 C2.133,4.496 4.071,4.849 6,4.849 C7.929,4.849 9.867,4.496 11,3.814 L11,6.293 C11,6.782 9.235,7.736 6,7.736 M6,11.554 C2.765,11.554 1,10.601 1,10.111 L1,7.7 C2.133,8.383 4.071,8.736 6,8.736 C7.929,8.736 9.867,8.383 11,7.7 L11,10.111 C11,10.601 9.235,11.554 6,11.554 M6,14.963 C2.765,14.963 1,14.009 1,13.52 L1,11.519 C2.133,12.201 4.071,12.554 6,12.554 C7.929,12.554 9.867,12.201 11,11.519 L11,13.52 C11,14.009 9.235,14.963 6,14.963 M6,0.963 C9.235,0.963 11,1.917 11,2.406 C11,2.896 9.235,3.849 6,3.849 C2.765,3.849 1,2.896 1,2.406 C1,1.917 2.765,0.963 6,0.963 M0,2.406 L0,13.52 C0,15.124 3.019,15.963 6,15.963 C8.981,15.963 12,15.124 12,13.52 L12,2.406 C12,-0.802 0,-0.802 0,2.406" id="Database_Category-Icon_16_Squid--"></path>
        </g>
    </g>
</svg>