<?xml version="1.0" encoding="UTF-8"?>
<svg width="32px" height="32px" viewBox="0 0 32 32" version="1.1" xmlns="http://www.w3.org/2000/svg" xmlns:xlink="http://www.w3.org/1999/xlink">
    <title>Icon-Architecture-Category/16/Storage_16</title>
    <g id="Icon-Architecture-Category/16/Storage_16" stroke="none" stroke-width="1" fill="none" fill-rule="evenodd">
        <rect id="Rectangle" fill="#7AA116" x="4" y="4" width="24" height="24"></rect>
        <rect id="#879196-Border-Copy-24" stroke="#879196" stroke-width="2" x="1" y="1" width="30" height="30"></rect>
        <g id="Icon-Category/16/Storage_16" transform="translate(9.000000, 8.000000)" fill="#FFFFFF">
            <path d="M4,7 L9.794,7 L9.794,6 L4,6 L4,7 Z M5,13 L9,13 L9,12 L5,12 L5,13 Z M10,11.5 L10,13.5 C10,13.776 9.776,14 9.5,14 L4.5,14 C4.224,14 4,13.776 4,13.5 L4,11.5 C4,11.224 4.224,11 4.5,11 L9.5,11 C9.776,11 10,11.224 10,11.5 L10,11.5 Z M13,10 L1,10 L1,14.735 C1,14.881 1.119,15 1.265,15 L12.735,15 C12.881,15 13,14.881 13,14.735 L13,10 Z M3,9 L11,9 L11,4 L8.5,4 C8.224,4 8,3.776 8,3.5 L8,1 L3,1 L3,9 Z M9,1.207 L9,3 L10.793,3 L9,1.207 Z M14,9.5 L14,14.735 C14,15.433 13.433,16 12.735,16 L1.265,16 C0.567,16 0,15.433 0,14.735 L0,9.5 C0,9.224 0.224,9 0.5,9 L2,9 L2,0.5 C2,0.224 2.224,0 2.5,0 L9,0 C9.133,0 9.26,0.053 9.354,0.146 L11.854,2.646 C11.947,2.74 12,2.867 12,3 L12,9 L13.5,9 C13.776,9 14,9.224 14,9.5 L14,9.5 Z M4,5 L7,5 L7,4 L4,4 L4,5 Z" id="Storage_Category-Icon_16_Squid"></path>
        </g>
    </g>
</svg>