<?xml version="1.0" encoding="UTF-8"?>
<svg width="32px" height="32px" viewBox="0 0 32 32" version="1.1" xmlns="http://www.w3.org/2000/svg" xmlns:xlink="http://www.w3.org/1999/xlink">
    <title>Icon-Architecture-Category/16/Machine-Learning_16</title>
    <g id="Icon-Architecture-Category/16/Machine-Learning_16" stroke="none" stroke-width="1" fill="none" fill-rule="evenodd">
        <rect id="Rectangle" fill="#01A88D" x="4" y="4" width="24" height="24"></rect>
        <rect id="#879196-Border-Copy-14" stroke="#879196" stroke-width="2" x="1" y="1" width="30" height="30"></rect>
        <g id="Icon-Category/16/Machine-Learning_16" transform="translate(8.000000, 8.000000)" fill="#FFFFFF">
            <path d="M9.249,10.166 L9.749,11.031 C10.828,10.407 11.499,9.246 11.499,8 C11.499,6.754 10.828,5.593 9.749,4.969 L9.249,5.834 C10.02,6.28 10.499,7.11 10.499,8 C10.499,8.89 10.02,9.72 9.249,10.166 L9.249,10.166 Z M2.999,9 L2.999,8 L6.999,8 L6.999,1 L5.65,1 L4.999,1.434 L4.999,6 L3.999,6 L3.999,2.101 L2.999,2.768 L2.999,4.41 C2.999,4.597 2.894,4.769 2.727,4.855 L1,5.738 L1,10.191 L2.617,11 L4.999,11 L4.999,12 L2.999,12 L2.999,13.232 L5.65,15 L6.999,15 L6.999,9 L2.999,9 Z M7.999,0.5 L7.999,8 L7.999,9 L7.999,15.5 C7.999,15.776 7.775,16 7.499,16 L5.499,16 C5.4,16 5.304,15.971 5.222,15.916 L2.222,13.916 C2.083,13.823 1.999,13.667 1.999,13.5 L1.999,11.809 L0.276,10.947 C0.107,10.862 0,10.689 0,10.5 L0,5.433 C0,5.245 0.105,5.073 0.272,4.987 L1.999,4.104 L1.999,2.5 C1.999,2.333 2.083,2.177 2.222,2.084 L5.222,0.084 C5.304,0.029 5.4,0 5.499,0 L7.499,0 C7.775,0 7.999,0.224 7.999,0.5 L7.999,0.5 Z M15.999,9.499 C15.999,9.632 15.947,9.759 15.853,9.853 C15.759,9.947 15.632,10 15.499,10 L14.645,10 C14.515,10.437 14.333,10.855 14.075,11.308 L14.695,11.859 C14.798,11.95 14.858,12.08 14.863,12.217 C14.867,12.355 14.814,12.488 14.718,12.585 L12.615,14.697 C12.519,14.795 12.404,14.843 12.248,14.845 C12.11,14.841 11.98,14.781 11.889,14.678 L11.334,14.06 C10.884,14.316 10.455,14.502 10.006,14.636 L10.006,16 L9.006,16 L9.006,14.25 C9.006,14.017 9.167,13.815 9.395,13.763 C9.998,13.625 10.543,13.389 11.163,12.996 C11.366,12.866 11.639,12.902 11.803,13.085 L12.28,13.617 L13.636,12.255 L13.101,11.781 C12.918,11.618 12.879,11.348 13.01,11.141 C13.411,10.502 13.639,9.979 13.77,9.391 C13.821,9.163 14.023,9 14.258,9 L14.998,9 L14.993,6.993 L14.252,6.993 C14.019,6.993 13.816,6.832 13.765,6.604 C13.627,6 13.391,5.455 12.997,4.835 C12.866,4.629 12.903,4.358 13.085,4.195 L13.616,3.719 L12.255,2.364 L11.779,2.899 C11.618,3.083 11.346,3.121 11.14,2.991 C10.499,2.589 9.977,2.362 9.391,2.232 C9.162,2.181 8.999,1.978 8.999,1.744 L8.999,0 L9.999,0 L9.999,1.357 C10.436,1.486 10.853,1.668 11.307,1.926 L11.858,1.304 C11.95,1.201 12.08,1.141 12.217,1.136 C12.367,1.131 12.487,1.185 12.585,1.282 L14.696,3.384 C14.794,3.481 14.848,3.614 14.844,3.751 C14.84,3.889 14.78,4.019 14.678,4.11 L14.061,4.664 C14.317,5.114 14.504,5.543 14.638,5.993 L15.492,5.993 C15.768,5.993 15.991,6.216 15.992,6.492 L15.999,9.499 Z" id="Machine-Learning_Category-Icon_16_Squid--"></path>
        </g>
    </g>
</svg>