<?xml version="1.0" encoding="UTF-8"?>
<svg width="32px" height="32px" viewBox="0 0 32 32" version="1.1" xmlns="http://www.w3.org/2000/svg" xmlns:xlink="http://www.w3.org/1999/xlink">
    <title>Icon-Architecture-Category/16/Blockchain_16</title>
    <g id="Icon-Architecture-Category/16/Blockchain_16" stroke="none" stroke-width="1" fill="none" fill-rule="evenodd">
        <rect id="Rectangle" fill="#ED7100" x="4" y="4" width="24" height="24"></rect>
        <rect id="#879196-Border-Copy-4" stroke="#879196" stroke-width="2" x="1" y="1" width="30" height="30"></rect>
        <g id="Icon-Category/16/Blockchain_16" transform="translate(9.000000, 14.000000)" fill="#FFFFFF">
            <path d="M13,3 L15,3 L15,1 L13,1 L13,3 Z M7,3 L9,3 L9,1 L7,1 L7,3 Z M1,3 L3,3 L3,1 L1,1 L1,3 Z M12,1.5 L10,1.5 L10,0 L6,0 L6,1.5 L4,1.5 L4,0 L0,0 L0,4 L4,4 L4,2.5 L6,2.5 L6,4 L10,4 L10,2.5 L12,2.5 L12,4 L16,4 L16,0 L12,0 L12,1.5 Z" id="Blockchain_Category-Icon_16_Squid--"></path>
        </g>
    </g>
</svg>