<?xml version="1.0" encoding="UTF-8"?>
<svg width="32px" height="32px" viewBox="0 0 32 32" version="1.1" xmlns="http://www.w3.org/2000/svg" xmlns:xlink="http://www.w3.org/1999/xlink">
    <title>Icon-Architecture-Category/16/Quantum-Technologies_16</title>
    <g id="Icon-Architecture-Category/16/Quantum-Technologies_16" stroke="none" stroke-width="1" fill="none" fill-rule="evenodd">
        <rect id="Rectangle" fill="#ED7100" x="4" y="4" width="24" height="24"></rect>
        <rect id="#879196-Border-Copy-20" stroke="#879196" stroke-width="2" x="1" y="1" width="30" height="30"></rect>
        <g id="Icon-Category/16/Quantum-Technologies_16" transform="translate(9.000000, 8.000000)" fill="#FFFFFF">
            <path d="M11.5546965,8.669 C10.6956965,9.395 9.70069652,10.088 8.67169652,10.682 C8.53469652,10.761 8.39769652,10.826 8.25969652,10.902 C9.19169652,11.297 10.0896965,11.596 10.8916965,11.751 C12.3206965,12.025 13.0196965,11.787 13.1856965,11.5 C13.4486965,11.044 12.8836965,9.944 11.5546965,8.669 M5.98669652,10.902 C5.84869652,10.826 5.71069652,10.761 5.57469652,10.682 C4.54569652,10.088 3.55069652,9.395 2.69169652,8.669 C1.36269652,9.944 0.797696515,11.044 1.06069652,11.5 C1.22669652,11.786 1.92569652,12.025 3.35469652,11.751 C4.15669652,11.596 5.05469652,11.297 5.98669652,10.902 M2.69169652,7.33 C3.55069652,6.604 4.54569652,5.911 5.57469652,5.317 C5.71069652,5.238 5.84869652,5.173 5.98669652,5.097 C5.05469652,4.702 4.15669652,4.403 3.35469652,4.249 C2.90869652,4.163 2.53469652,4.127 2.22569652,4.127 C1.54169652,4.127 1.17469652,4.301 1.06069652,4.5 C0.797696515,4.955 1.36269652,6.055 2.69169652,7.33 M8.17169652,9.816 C9.20569652,9.219 10.0706965,8.6 10.7936965,8 C10.0706965,7.399 9.20569652,6.78 8.17169652,6.183 C7.82269652,5.981 7.47169652,5.8 7.12269652,5.624 C6.77469652,5.8 6.42369652,5.981 6.07469652,6.183 C5.03969652,6.78 4.17569652,7.399 3.45169652,8 C4.17569652,8.6 5.03969652,9.219 6.07469652,9.816 C6.42369652,10.018 6.77469652,10.199 7.12269652,10.376 C7.47169652,10.199 7.82269652,10.018 8.17169652,9.816 M8.25969652,5.097 C8.39769652,5.173 8.53469652,5.238 8.67169652,5.317 C9.70069652,5.911 10.6956965,6.604 11.5546965,7.33 C12.8836965,6.055 13.4486965,4.955 13.1856965,4.5 C13.0716965,4.302 12.7026965,4.127 12.0206965,4.127 C11.7106965,4.127 11.3366965,4.163 10.8916965,4.249 C10.0896965,4.403 9.19169652,4.702 8.25969652,5.097 M14.0506965,12 C13.8016965,12.431 13.2506965,12.875 12.0366965,12.875 C11.6586965,12.875 11.2186965,12.832 10.7026965,12.732 C9.61969652,12.524 8.38469652,12.087 7.12269652,11.488 C5.86169652,12.087 4.62569652,12.524 3.54269652,12.732 C3.02769652,12.832 2.58569652,12.875 2.20869652,12.875 C0.994696515,12.875 0.444696515,12.431 0.195696515,12 C-0.409303485,10.953 0.447696515,9.452 1.95169652,8 C0.447696515,6.547 -0.409303485,5.046 0.195696515,4 C0.521696515,3.433 1.36969652,2.847 3.54269652,3.267 C4.62569652,3.475 5.86169652,3.912 7.12269652,4.511 C8.38469652,3.912 9.61969652,3.475 10.7026965,3.267 C12.8786965,2.845 13.7236965,3.434 14.0506965,4 C14.6556965,5.046 13.7986965,6.547 12.2936965,8 C13.7986965,9.452 14.6556965,10.953 14.0506965,12 M7.12269652,1 C7.44869652,1 7.95969652,1.44 8.41969652,2.674 L9.35769652,2.325 C8.64069652,0.403 7.74669652,1.77635684e-15 7.12269652,1.77635684e-15 C6.49869652,1.77635684e-15 5.60569652,0.403 4.88869652,2.325 L5.82569652,2.674 C6.28569652,1.44 6.79769652,1 7.12269652,1 M8.41969652,13.325 L9.35769652,13.674 C8.64069652,15.596 7.74669652,16 7.12269652,16 C6.49869652,16 5.60569652,15.596 4.88869652,13.674 L5.82569652,13.325 C6.28569652,14.56 6.79769652,15 7.12269652,15 C7.44869652,15 7.95969652,14.56 8.41969652,13.325" id="Quantum-Technologies_Category-Icon_16_Squid"></path>
        </g>
    </g>
</svg>