<?xml version="1.0" encoding="UTF-8"?>
<svg width="32px" height="32px" viewBox="0 0 32 32" version="1.1" xmlns="http://www.w3.org/2000/svg" xmlns:xlink="http://www.w3.org/1999/xlink">
    <title>Icon-Architecture-Category/16/Cloud-Financial-Management_16</title>
    <g id="Icon-Architecture-Category/16/Cloud-Financial-Management_16" stroke="none" stroke-width="1" fill="none" fill-rule="evenodd">
        <rect id="Rectangle" fill="#7AA116" x="4" y="4" width="24" height="24"></rect>
        <rect id="#879196-Border-Copy-3" stroke="#879196" stroke-width="2" x="1" y="1" width="30" height="30"></rect>
        <g id="Icon-Category/16/Cloud-Financial-Management_16" transform="translate(9.000000, 8.000000)" fill="#FFFFFF">
            <path d="M6,14.0015756 L7,14.0015756 L7,13.0015756 L6,13.0015756 L6,14.0015756 Z M3,14.0015756 L5,14.0015756 L5,13.0015756 L3,13.0015756 L3,14.0015756 Z M6,11.0015756 L7,11.0015756 L7,10.0015756 L6,10.0015756 L6,11.0015756 Z M3,11.0015756 L5,11.0015756 L5,10.0015756 L3,10.0015756 L3,11.0015756 Z M9,13.0015756 L10,13.0015756 L10,11.0015756 L9,11.0015756 L9,13.0015756 Z M10.5,10.0015756 L8.5,10.0015756 C8.224,10.0015756 8,10.2255756 8,10.5015756 L8,13.5015756 C8,13.7775756 8.224,14.0015756 8.5,14.0015756 L10.5,14.0015756 C10.776,14.0015756 11,13.7775756 11,13.5015756 L11,10.5015756 C11,10.2255756 10.776,10.0015756 10.5,10.0015756 L10.5,10.0015756 Z M4,8.00157563 L10,8.00157563 L10,7.00157563 L4,7.00157563 L4,8.00157563 Z M3,6.50157563 L3,8.50157563 C3,8.77757563 3.224,9.00157563 3.5,9.00157563 L10.5,9.00157563 C10.776,9.00157563 11,8.77757563 11,8.50157563 L11,6.50157563 C11,6.22557563 10.776,6.00157563 10.5,6.00157563 L3.5,6.00157563 C3.224,6.00157563 3,6.22557563 3,6.50157563 L3,6.50157563 Z M13,15.0015756 L1,15.0015756 L1,5.00157563 L4.5,5.00157563 L5,5.00157563 L8,5.00157563 L8.5,5.00157563 L13,5.00157563 L13,15.0015756 Z M4.945,1.00157563 L7.5,1.00157563 C7.971,1.00157563 8,1.49657563 8,1.50157563 L8,4.00157563 L5,4.00157563 L5,1.50157563 C5,1.33757563 4.985,1.16757563 4.945,1.00157563 L4.945,1.00157563 Z M3,2.00157563 L3,1.50157563 C3,1.24157563 3.061,1.00157563 3.5,1.00157563 C3.898,1.00157563 4,1.05057563 4,1.50157563 L4,2.00157563 L3,2.00157563 Z M13.5,4.00157563 L9,4.00157563 L9,1.50157563 C9,0.878575626 8.534,0.00157562616 7.5,0.00157562616 L3.523,0.00157562616 C2.58,-0.0354243738 2,0.582575626 2,1.50157563 L2,2.50157563 C2,2.77757563 2.224,3.00157563 2.5,3.00157563 L4,3.00157563 L4,4.00157563 L0.5,4.00157563 C0.224,4.00157563 0,4.22557563 0,4.50157563 L0,15.5015756 C0,15.7775756 0.224,16.0015756 0.5,16.0015756 L13.5,16.0015756 C13.776,16.0015756 14,15.7775756 14,15.5015756 L14,4.50157563 C14,4.22557563 13.776,4.00157563 13.5,4.00157563 L13.5,4.00157563 Z" id="Fill-5"></path>
        </g>
    </g>
</svg>