<?xml version="1.0" encoding="UTF-8"?>
<svg width="32px" height="32px" viewBox="0 0 32 32" version="1.1" xmlns="http://www.w3.org/2000/svg" xmlns:xlink="http://www.w3.org/1999/xlink">
    <title>Icon-Architecture-Category/16/Networking-Content-Delivery_16</title>
    <g id="Icon-Architecture-Category/16/Networking-Content-Delivery_16" stroke="none" stroke-width="1" fill="none" fill-rule="evenodd">
        <rect id="Rectangle" fill="#8C4FFF" x="4" y="4" width="24" height="24"></rect>
        <rect id="#879196-Border-Copy-19" stroke="#879196" stroke-width="2" x="1" y="1" width="30" height="30"></rect>
        <g id="Icon-Category/16/Networking-Content-Delivery_16" transform="translate(9.000000, 8.000000)" fill="#FFFFFF">
            <path d="M13,12.5005067 C13,13.0515067 12.552,13.5005067 12,13.5005067 C11.448,13.5005067 11,13.0515067 11,12.5005067 C11,11.9495067 11.448,11.5005067 12,11.5005067 C12.552,11.5005067 13,11.9495067 13,12.5005067 L13,12.5005067 Z M8,14.0005067 C8,14.5515067 7.552,15.0005067 7,15.0005067 C6.448,15.0005067 6,14.5515067 6,14.0005067 C6,13.4495067 6.448,13.0005067 7,13.0005067 C7.552,13.0005067 8,13.4495067 8,14.0005067 L8,14.0005067 Z M2,13.5005067 C1.448,13.5005067 1,13.0515067 1,12.5005067 C1,11.9495067 1.448,11.5005067 2,11.5005067 C2.552,11.5005067 3,11.9495067 3,12.5005067 C3,13.0515067 2.552,13.5005067 2,13.5005067 L2,13.5005067 Z M2,5.43150668 C2.004,5.19250668 2.104,4.00450668 3.711,4.00450668 C3.987,4.00450668 4.211,3.78050668 4.211,3.50450668 C4.211,2.70450668 4.427,2.08450668 4.853,1.66050668 C5.508,1.00750668 6.476,1.00050668 6.5,1.00050668 C7.266,1.00050668 8.599,1.16750668 8.923,2.28250668 C8.996,2.53650668 9.254,2.68850668 9.514,2.63050668 C9.98,2.52550668 10.406,2.61550668 10.652,2.87550668 C10.843,3.07650668 10.897,3.35850668 10.809,3.67150668 C10.766,3.82250668 10.795,3.98450668 10.89,4.11050668 C10.984,4.23550668 11.132,4.30950668 11.289,4.30950668 C12.551,4.30950668 13,4.92450668 13,5.50050668 C13,6.22550668 12.634,7.00050668 11.605,7.00050668 L3.711,7.00050668 C2.8,7.00050668 2,6.26550668 2,5.43150668 L2,5.43150668 Z M11.605,8.00050668 C13.016,8.00050668 14,6.97250668 14,5.50050668 C14,4.52550668 13.33,3.54250668 11.851,3.34450668 C11.841,2.90950668 11.68,2.50550668 11.379,2.18750668 C10.976,1.76150668 10.381,1.55250668 9.725,1.59250668 C9.228,0.57450668 8.079,0.000506679677 6.507,0.000506679677 C6.438,-0.00349332032 5.117,-0.00649332032 4.156,0.94150668 C3.623,1.46850668 3.313,2.16950668 3.232,3.03250668 C1.48,3.25050668 1,4.65550668 1,5.42750668 C1,6.82250668 2.241,8.00050668 3.711,8.00050668 L5.793,8.00050668 L3.01,10.7835067 C2.712,10.6085067 2.37,10.5005067 2,10.5005067 C0.897,10.5005067 0,11.3975067 0,12.5005067 C0,13.6035067 0.897,14.5005067 2,14.5005067 C3.103,14.5005067 4,13.6035067 4,12.5005067 C4,12.1305067 3.893,11.7885067 3.717,11.4905067 L6.5,8.70750668 L6.5,12.0715067 C5.64,12.2945067 5,13.0715067 5,14.0005067 C5,15.1035067 5.897,16.0005067 7,16.0005067 C8.103,16.0005067 9,15.1035067 9,14.0005067 C9,13.0715067 8.36,12.2945067 7.5,12.0715067 L7.5,8.70750668 L10.283,11.4905067 C10.107,11.7885067 10,12.1305067 10,12.5005067 C10,13.6035067 10.897,14.5005067 12,14.5005067 C13.103,14.5005067 14,13.6035067 14,12.5005067 C14,11.3975067 13.103,10.5005067 12,10.5005067 C11.63,10.5005067 11.288,10.6085067 10.99,10.7835067 L8.207,8.00050668 L11.605,8.00050668 Z" id="Networking-Content-Delivery_Category-Icon_16_Squid"></path>
        </g>
    </g>
</svg>