<?xml version="1.0" encoding="UTF-8"?>
<svg width="32px" height="32px" viewBox="0 0 32 32" version="1.1" xmlns="http://www.w3.org/2000/svg" xmlns:xlink="http://www.w3.org/1999/xlink">
    <title>Icon-Architecture-Category/16/Analytics_16</title>
    <g id="Icon-Architecture-Category/16/Analytics_16" stroke="none" stroke-width="1" fill="none" fill-rule="evenodd">
        <rect id="Rectangle" fill="#8C4FFF" x="4" y="4" width="24" height="24"></rect>
        <rect id="#879196-Border" stroke="#879196" stroke-width="2" x="1" y="1" width="30" height="30"></rect>
        <g id="Icon-Category/16/Analytics_16" transform="translate(8.000000, 9.000000)" fill="#FFFFFF">
            <path d="M12.0001883,3.533 L12.0001883,6 L11.0001883,6 L11.0001883,4.833 L8.34518834,7.362 C8.14818834,7.549 7.83918834,7.546 7.64618834,7.353 L6.50018834,6.207 L4.35418834,8.353 L3.64618834,7.646 L6.14618834,5.146 C6.34218834,4.951 6.65818834,4.951 6.85418834,5.146 L8.00918834,6.301 L10.3911883,4 L9.00018834,4 L9.00018834,3 L11.5001883,3 C11.7761883,3 12.0001883,3.257 12.0001883,3.533 L12.0001883,3.533 Z M14.1401883,13 L1.86018834,13 L1.19418834,11 L14.8061883,11 L14.1401883,13 Z M2.00018834,1.452 C2.00018834,1.207 2.16418834,1 2.35718834,1 L13.6431883,1 C13.8361883,1 14.0001883,1.207 14.0001883,1.452 L14.0001883,10 L2.00018834,10 L2.00018834,1.452 Z M15.9051883,10.207 C15.8121883,10.077 15.6611883,10 15.5001883,10 L15.0001883,10 L15.0001883,1.452 C15.0001883,0.651 14.3911883,0 13.6431883,0 L2.35718834,0 C1.60918834,0 1.00018834,0.651 1.00018834,1.452 L1.00018834,10 L0.500188342,10 C0.339188342,10 0.188188342,10.077 0.095188342,10.207 C0.000188342023,10.338 -0.024811658,10.506 0.025188342,10.658 L1.02518834,13.655 C1.09418834,13.859 1.28518834,13.996 1.50018834,13.996 L14.5001883,13.996 C14.7151883,13.996 14.9061883,13.859 14.9751883,13.655 L15.9751883,10.658 C16.0251883,10.506 16.0001883,10.338 15.9051883,10.207 L15.9051883,10.207 Z" id="Analytics_Category-Icon_64_Squid-"></path>
        </g>
    </g>
</svg>