<?xml version="1.0" encoding="UTF-8"?>
<svg width="32px" height="32px" viewBox="0 0 32 32" version="1.1" xmlns="http://www.w3.org/2000/svg" xmlns:xlink="http://www.w3.org/1999/xlink">
    <title>Icon-Architecture-Category/16/Robotics_16</title>
    <g id="Icon-Architecture-Category/16/Robotics_16" stroke="none" stroke-width="1" fill="none" fill-rule="evenodd">
        <rect id="Rectangle" fill="#DD344C" x="4" y="4" width="24" height="24"></rect>
        <rect id="#879196-Border-Copy-21" stroke="#879196" stroke-width="2" x="1" y="1" width="30" height="30"></rect>
        <g id="Icon-Category/16/Robotics_16" transform="translate(8.000000, 8.000000)" fill="#FFFFFF">
            <path d="M10,10.5073763 C9.725,10.5073763 9.5,10.2833763 9.5,10.0073763 C9.5,9.73137628 9.725,9.50737628 10,9.50737628 C10.275,9.50737628 10.5,9.73137628 10.5,10.0073763 C10.5,10.2833763 10.275,10.5073763 10,10.5073763 L10,10.5073763 Z M10,8.50737628 C9.173,8.50737628 8.5,9.18037628 8.5,10.0073763 C8.5,10.8343763 9.173,11.5073763 10,11.5073763 C10.827,11.5073763 11.5,10.8343763 11.5,10.0073763 C11.5,9.18037628 10.827,8.50737628 10,8.50737628 L10,8.50737628 Z M6,10.5073763 C5.725,10.5073763 5.5,10.2833763 5.5,10.0073763 C5.5,9.73137628 5.725,9.50737628 6,9.50737628 C6.275,9.50737628 6.5,9.73137628 6.5,10.0073763 C6.5,10.2833763 6.275,10.5073763 6,10.5073763 L6,10.5073763 Z M6,8.50737628 C5.173,8.50737628 4.5,9.18037628 4.5,10.0073763 C4.5,10.8343763 5.173,11.5073763 6,11.5073763 C6.827,11.5073763 7.5,10.8343763 7.5,10.0073763 C7.5,9.18037628 6.827,8.50737628 6,8.50737628 L6,8.50737628 Z M5.444,2.05837628 L4.737,1.35137628 C6.534,-0.448623723 9.462,-0.450623723 11.263,1.34637628 L10.556,2.05437628 C9.146,0.646376277 6.853,0.647376277 5.444,2.05837628 L5.444,2.05837628 Z M5.569,3.01437628 C6.909,1.67437628 9.091,1.67437628 10.431,3.01437628 L9.724,3.72137628 C8.772,2.77137628 7.228,2.77137628 6.276,3.72137628 L5.569,3.01437628 Z M15,14.1983763 L14,13.6983763 L14,10.3163763 L15,9.81637628 L15,14.1983763 Z M13,14.9973763 L3,14.9973763 L3,9.67737628 C3,7.29337628 5.576,6.00737628 8,6.00737628 C10.424,6.00737628 13,7.29337628 13,9.67737628 L13,14.9973763 Z M1,14.1983763 L1,9.81637628 L2,10.3163763 L2,13.6983763 L1,14.1983763 Z M15.276,8.56037628 L13.971,9.21337628 C13.671,6.47937628 10.756,5.00737628 8,5.00737628 C5.244,5.00737628 2.329,6.47937628 2.029,9.21337628 L0.724,8.56037628 C0.568,8.48237628 0.384,8.49137628 0.237,8.58237628 C0.09,8.67337628 0,8.83437628 0,9.00737628 L0,15.0073763 C0,15.1803763 0.09,15.3413763 0.237,15.4323763 C0.317,15.4823763 0.408,15.5073763 0.5,15.5073763 C0.576,15.5073763 0.653,15.4893763 0.724,15.4543763 L2,14.8163763 L2,15.4933763 C2,15.7703763 2.224,15.9933763 2.5,15.9933763 L13.5,15.9933763 C13.776,15.9933763 14,15.7703763 14,15.4933763 L14,14.8163763 L15.276,15.4543763 C15.347,15.4893763 15.424,15.5073763 15.5,15.5073763 C15.592,15.5073763 15.683,15.4823763 15.763,15.4323763 C15.91,15.3413763 16,15.1803763 16,15.0073763 L16,9.00737628 C16,8.83437628 15.91,8.67337628 15.763,8.58237628 C15.615,8.49037628 15.432,8.48237628 15.276,8.56037628 L15.276,8.56037628 Z" id="Robotics_Category-Icon_16_Squid"></path>
        </g>
    </g>
</svg>