<?xml version="1.0" encoding="UTF-8"?>
<svg width="32px" height="32px" viewBox="0 0 32 32" version="1.1" xmlns="http://www.w3.org/2000/svg" xmlns:xlink="http://www.w3.org/1999/xlink">
    <title>Icon-Architecture-Category/16/Security-Identity-Compliance_16</title>
    <g id="Icon-Architecture-Category/16/Security-Identity-Compliance_16" stroke="none" stroke-width="1" fill="none" fill-rule="evenodd">
        <rect id="Rectangle" fill="#DD344C" x="4" y="4" width="24" height="24"></rect>
        <rect id="#879196-Border-Copy-23" stroke="#879196" stroke-width="2" x="1" y="1" width="30" height="30"></rect>
        <g id="Icon-Category/16/Security-Identity-Compliance_16" transform="translate(9.000000, 8.000000)" fill="#FFFFFF">
            <path d="M6,13 L7,13 L7,3 L6,3 L6,13 Z M1,2.95594776 L1,9.37034945 C1.01499864,9.53836922 1.43996,14.3378044 6.49950005,15 C11.5590401,14.3378044 11.9840015,9.53836922 12,9.33378044 L11.9990001,2.95594776 L6.49950005,1 L1,2.95594776 Z M6.5,16 C6.479,16 6.459,15.9990124 6.438,15.9960494 C0.495,15.2642089 0.006,9.47664388 0.001,9.41738553 L0,2.62539158 C0,2.41699974 0.132,2.23132359 0.331,2.16021358 L6.331,0.0288884431 C6.44,-0.00962948103 6.56,-0.00962948103 6.669,0.0288884431 L12.669,2.16021358 C12.868,2.23132359 13,2.41699974 13,2.62539158 L13,9.38281817 C12.994,9.47664388 12.505,15.2642089 6.562,15.9960494 C6.541,15.9990124 6.521,16 6.5,16 L6.5,16 Z" id="Security-Identity-Compliance_Category-Icon_16_Squid"></path>
        </g>
    </g>
</svg>