<svg width="64" height="64" viewBox="0 0 64 64" fill="none" xmlns="http://www.w3.org/2000/svg">
<g clip-path="url(#clip0_536_4456)">
<rect width="64" height="64" fill="#01A88D"/>
<path d="M29.0156 23.7001V19.4141L27.7226 20.707L26.3086 19.293L29.1793 16.3432C29.6295 15.8807 30.3721 15.8791 30.8242 16.3398L33.7227 19.293L32.3086 20.707L31.0156 19.4141V23.1807C30.3269 23.297 29.6595 23.4714 29.0156 23.7001ZM33.9641 25.0442C30.3077 24.7041 27.0156 26.3545 25.0156 29.0256L25 23.45L26.25 24.75L27.75 23.25L24.8132 20.3132C24.3641 19.8641 23.6359 19.8641 23.1868 20.3132L20.25 23.25L21.75 24.75L23 23.5V35H25.0289C25.1677 30.863 28.3153 27.2966 32.4677 27.0184C37.1256 26.7063 41.0156 30.4075 41.0156 35C41.0156 39.2432 38.8594 42.4307 35.5947 47.2554C34.8027 48.4273 33.9287 49.7188 33.0156 51.1348C32.1025 49.7187 31.2285 48.4272 30.4365 47.2554C28.83 44.8812 27.5096 42.9038 26.5704 41H24.3582C25.3855 43.3381 26.9352 45.6498 28.7793 48.376C29.8057 49.8926 30.9687 51.6118 32.168 53.5298C32.3506 53.8223 32.6709 54 33.0156 54C33.3603 54 33.6807 53.8223 33.8633 53.5298C35.0625 51.6118 36.2256 49.8926 37.252 48.376C39.9653 44.3644 42.0685 41.2561 42.7666 37.6339C43.9235 31.6304 40.0518 25.6104 33.9641 25.0442ZM46.96 22.1313C46.9863 21.9204 47 21.7104 47 21.5C47 18.4673 44.5322 16 41.5 16C40.2617 16 39.0889 16.4131 38.1406 17.1509C36.4043 12.8647 32.25 10 27.5 10C21.1592 10 16 15.1587 16 21.5C16 21.7793 16.0127 22.0669 16.0381 22.3677C12.4893 23.436 10 26.7183 10 30.5C10 35.187 13.8135 39 18.5 39H33.0156C35.2217 39 37.0156 37.2056 37.0156 35C37.0156 32.7944 35.2217 31 33.0156 31C30.8096 31 29.0156 32.7944 29.0156 35H31.0156C31.0156 33.897 31.9131 33 33.0156 33C34.1182 33 35.0156 33.897 35.0156 35C35.0156 36.103 34.1182 37 33.0156 37H18.5C14.916 37 12 34.084 12 30.5C12 27.3652 14.2373 24.6787 17.3193 24.1128C17.8525 24.0151 18.21 23.5107 18.127 22.9751C18.041 22.4287 18 21.9458 18 21.5C18 16.2617 22.2617 12 27.5 12C31.9248 12 35.7236 15.0098 36.7373 19.3188C36.8301 19.7104 37.1475 20.0083 37.544 20.0757C37.9365 20.1435 38.3389 19.9663 38.5547 19.6274C39.2041 18.6084 40.3047 18 41.5 18C43.4297 18 45 19.5703 45 21.5C45 21.875 44.9277 22.2593 44.7793 22.6743C44.6709 22.9756 44.7139 23.3106 44.8945 23.5752C45.0752 23.8394 45.3711 24.0015 45.6914 24.0107C49.2295 24.1138 52 26.9644 52 30.5C52 34.084 49.084 37 45.5 37H44.835C44.7186 37.6888 44.5443 38.3561 44.3156 39H45.5C50.1865 39 54 35.187 54 30.5C54 26.2866 50.9932 22.8174 46.96 22.1313Z" fill="white"/>
</g>
<defs>
<clipPath id="clip0_536_4456">
<rect width="64" height="64" fill="white"/>
</clipPath>
</defs>
</svg>
