<?xml version="1.0" encoding="UTF-8"?>
<svg width="64px" height="64px" viewBox="0 0 64 64" version="1.1" xmlns="http://www.w3.org/2000/svg" xmlns:xlink="http://www.w3.org/1999/xlink">
    <title>Icon-Architecture/48/Arch_AWS-Migration-Evaluator_48</title>
    <g id="Icon-Architecture/48/Arch_AWS-Migration-Evaluator_48" stroke="none" stroke-width="1" fill="none" fill-rule="evenodd">
        <g id="Icon-Architecture-BG/48/Migration-Transfer" fill="#01A88D">
            <rect id="Rectangle" x="0" y="0" width="64" height="64"></rect>
        </g>
        <g id="Icon-Service/48/AWS-Migration-Evaluator_48" transform="translate(10.000000, 10.000000)" fill="#FFFFFF">
            <path d="M21.874,24.375 C20.495,24.375 19.374,23.253 19.374,21.875 C19.374,20.497 20.495,19.375 21.874,19.375 C23.253,19.375 24.374,20.497 24.374,21.875 C24.374,23.253 23.253,24.375 21.874,24.375 L21.874,24.375 Z M21.874,17.375 C19.393,17.375 17.374,19.394 17.374,21.875 C17.374,24.356 19.393,26.375 21.874,26.375 C24.355,26.375 26.374,24.356 26.374,21.875 C26.374,19.394 24.355,17.375 21.874,17.375 L21.874,17.375 Z M28.18,26.909 C27.953,27.009 27.772,27.19 27.672,27.417 L21.951,40.287 L16.27,27.502 C16.169,27.276 15.988,27.095 15.762,26.995 L3.462,21.528 L16.145,15.89 C16.372,15.79 16.553,15.609 16.653,15.383 L21.951,3.462 L27.287,15.468 C27.388,15.694 27.568,15.875 27.795,15.976 L40.286,21.528 L28.18,26.909 Z M35.043,34.99 L27.743,32.182 L29.344,28.581 L32.106,27.353 L35.043,34.99 Z M8.705,34.799 L11.579,27.324 L14.598,28.666 L16.065,31.968 L8.705,34.799 Z M9.005,8.951 L16.108,11.683 L14.981,14.219 L11.607,15.719 L9.005,8.951 Z M34.743,8.76 L32.078,15.69 L28.959,14.304 L27.699,11.469 L34.743,8.76 Z M43.154,20.614 L33.908,16.504 L37.418,7.378 C37.56,7.009 37.471,6.591 37.191,6.312 C36.911,6.032 36.495,5.945 36.125,6.086 L26.886,9.64 L22.865,0.594 C22.704,0.233 22.347,0 21.951,0 C21.556,0 21.198,0.233 21.037,0.594 L16.922,9.853 L7.623,6.276 C7.254,6.138 6.837,6.224 6.557,6.503 C6.277,6.782 6.188,7.2 6.33,7.569 L9.777,16.532 L0.594,20.614 C0.232,20.774 0,21.133 0,21.528 C0,21.923 0.232,22.281 0.594,22.441 L9.749,26.511 L6.03,36.181 C5.889,36.55 5.978,36.968 6.257,37.247 C6.448,37.438 6.703,37.54 6.964,37.54 C7.085,37.54 7.206,37.518 7.323,37.474 L16.879,33.799 L21.037,43.156 C21.198,43.517 21.556,43.75 21.951,43.75 C22.347,43.75 22.704,43.517 22.865,43.156 L26.93,34.012 L36.425,37.664 C36.542,37.709 36.663,37.731 36.784,37.731 C37.045,37.731 37.3,37.629 37.491,37.438 C37.77,37.159 37.859,36.741 37.718,36.372 L33.937,26.539 L43.154,22.441 C43.516,22.281 43.748,21.923 43.748,21.528 C43.748,21.133 43.516,20.774 43.154,20.614 L43.154,20.614 Z" id="AWS-Migration-Evaluator_Icon_48_Squid"></path>
        </g>
    </g>
</svg>