<?xml version="1.0" encoding="UTF-8"?>
<svg width="64px" height="64px" viewBox="0 0 64 64" version="1.1" xmlns="http://www.w3.org/2000/svg" xmlns:xlink="http://www.w3.org/1999/xlink">
    <title>Icon-Architecture/48/Arch_AWS-Mainframe-Modernization_48</title>
    <g id="Icon-Architecture/48/Arch_AWS-Mainframe-Modernization_48" stroke="none" stroke-width="1" fill="none" fill-rule="evenodd">
        <g id="Icon-Architecture-BG/48/Migration-Transfer" fill="#01A88D">
            <rect id="Rectangle" x="0" y="0" width="64" height="64"></rect>
        </g>
        <g id="Icon-Service/48/AWS-Mainframe-Modernization_48" transform="translate(10.000000, 9.600000)" fill="#FFFFFF">
            <path d="M43.897,19.921 C43.897,20.182 43.885,20.44 43.865,20.694 C43.482,25.208 39.491,28.74 34.778,28.74 L34.778,26.74 C38.46,26.74 41.576,24.012 41.872,20.529 C41.887,20.331 41.897,20.127 41.897,19.921 C41.897,16.254 39.421,13.488 36.139,13.488 C35.586,13.488 35.139,13.04 35.139,12.488 C35.139,9.306 33.24,7.406 30.057,7.406 L29.381,7.406 C29.018,7.406 28.683,7.209 28.506,6.89 C26.81,3.828 23.601,2 19.92,2 C14.51,2 10.109,6.401 10.109,11.812 C10.109,12.364 9.662,12.812 9.109,12.812 C5.189,12.812 2,16.001 2,19.921 C2,21.063 2.33,26.761 8.842,26.761 L8.842,28.761 C2.734,28.761 0,24.321 0,19.921 C0,15.223 3.575,11.345 8.147,10.862 C8.632,4.792 13.727,0 19.92,0 C24.129,0 27.836,2.009 29.953,5.406 L30.057,5.406 C34.037,5.406 36.713,7.784 37.092,11.546 C41.033,12.025 43.897,15.465 43.897,19.921 L43.897,19.921 Z M32.424,35.856 L35.936,38.599 L28.503,44.406 L15.507,44.406 L8.075,38.599 L11.586,35.856 L12.817,37.432 L11.323,38.599 L16.197,42.406 L27.814,42.406 L32.688,38.599 L31.194,37.432 L32.424,35.856 Z M32.424,28.856 L35.936,31.599 L28.503,37.406 L15.507,37.406 L8.075,31.599 L11.586,28.856 L12.817,30.432 L11.323,31.599 L16.197,35.406 L27.814,35.406 L32.688,31.599 L31.194,30.432 L32.424,28.856 Z M15.95,19.406 L28.061,19.406 L33.182,23.406 L28.061,27.406 L15.95,27.406 L10.829,23.406 L15.95,19.406 Z M28.751,29.406 L36.43,23.406 L28.751,17.406 L15.26,17.406 L7.581,23.406 L15.26,29.406 L28.751,29.406 Z" id="Fill-3"></path>
        </g>
    </g>
</svg>