<svg width="64" height="64" viewBox="0 0 64 64" fill="none" xmlns="http://www.w3.org/2000/svg">
<rect width="64" height="64" fill="#01A88D"/>
<path d="M24 33V20.4316L21.7041 22.71L20.2959 21.29L24.3271 17.29C24.5156 17.104 24.7686 16.9849 25.0352 17C25.3008 17.001 25.5547 17.1074 25.7412 17.2959L29.71 21.2959L28.29 22.7041L26 20.3962V33H24ZM36 27V23.3962L38.29 25.7041L39.71 24.2959L35.7412 20.2959C35.5547 20.1074 35.3008 20.001 35.0352 20H35.0312C34.7676 20 34.5146 20.1045 34.3271 20.29L30.2959 24.29L31.7041 25.71L34 23.4316V27H36ZM34 36C34 35.4477 33.5527 35 33 35H21C20.4473 35 20 35.4477 20 36V48C20 48.5523 20.4473 49 21 49H26.3955V47H22V37H32V49H33C33.5527 49 34 48.5523 34 48V36ZM43 29H31C30.4473 29 30 29.4477 30 30V33H32V31H42V41H36V43H43C43.5527 43 44 42.5523 44 42V30C44 29.4477 43.5527 29 43 29ZM22 54H24V51H22V54ZM34 54H36V51H34V54ZM28 52H30V45H28V52ZM40 52H42V45H40V52ZM46.9951 22.2246C46.998 22.1494 47 22.0747 47 22C47 18.6914 44.3086 16 41 16C40.1855 16 39.3887 16.1636 38.6504 16.479C36.6006 12.5093 32.5312 10 28 10C21.3828 10 16 15.3833 16 22C16 22.169 16.0039 22.3408 16.0127 22.5176C12.4336 23.7705 10 27.1455 10 31C10 35.6241 13.5065 39.4415 18 39.941V37.9201C14.6138 37.4322 12 34.5195 12 31C12 27.7788 14.1855 24.9883 17.3154 24.2139C17.8027 24.0933 18.125 23.6304 18.0693 23.1313C18.0225 22.7183 18 22.3482 18 22C18 16.4858 22.4863 12 28 12C32.0869 12 35.7227 14.4502 37.2627 18.2427C37.377 18.5225 37.6104 18.7358 37.9004 18.8232C38.1885 18.9111 38.502 18.8628 38.752 18.6929C39.418 18.2398 40.1953 18 41 18C43.2061 18 45 19.7944 45 22C45 22.2725 44.9688 22.5552 44.9072 22.8413C44.8477 23.1177 44.9082 23.4068 45.0733 23.6362C45.2393 23.8662 45.4942 24.0147 45.7754 24.0459C49.3242 24.4365 52 27.4258 52 31C52 34.5195 49.3863 37.4323 46 37.9201V39.941C50.4935 39.4415 54 35.6241 54 31C54 26.7471 51.0527 23.1377 46.9951 22.2246Z" fill="white"/>
</svg>
