<?xml version="1.0" encoding="UTF-8"?>
<svg width="80px" height="80px" viewBox="0 0 80 80" version="1.1" xmlns="http://www.w3.org/2000/svg" xmlns:xlink="http://www.w3.org/1999/xlink">
    <title>Icon-Architecture/64/Arch_Bottlerocket_64</title>
    <g id="Icon-Architecture/64/Arch_Bottlerocket_64" stroke="none" stroke-width="1" fill="none" fill-rule="evenodd">
        <g id="Icon-Architecture-BG/64/Compute" fill="#ED7100">
            <rect id="Rectangle" x="0" y="0" width="80" height="80"></rect>
        </g>
        <g id="Icon-Service/64/Bottlerocket" transform="translate(22.000000, 12.000000)" fill="#FFFFFF">
            <path d="M17.892181,2.01475 C17.947181,1.94475 18.043181,1.92875 18.123181,2.03075 L28.198181,14.34575 C25.843181,13.79275 22.300181,13.19375 18.001181,13.19375 C13.894181,13.19375 10.498181,13.78575 8.228181,14.33675 L17.892181,2.01475 Z M5.867181,17.12375 C5.915181,17.10575 10.886181,15.19375 18.001181,15.19375 C25.429181,15.19375 30.596181,17.10975 30.648181,17.12875 C30.763181,17.17175 30.882181,17.19375 31.000181,17.19375 C31.316181,17.19375 31.621181,17.04375 31.813181,16.77675 C32.078181,16.40975 32.062181,15.91075 31.776181,15.56075 L19.685181,0.78075 C18.869181,-0.26025 17.134181,-0.26025 16.318181,0.78075 L4.714181,15.57675 C4.436181,15.93075 4.430181,16.42775 4.700181,16.78975 C4.968181,17.15275 5.446181,17.28975 5.867181,17.12375 L5.867181,17.12375 Z M15.001181,54.19375 L20.001181,54.19375 L20.001181,52.19375 L15.001181,52.19375 L15.001181,54.19375 Z M11.001181,52.19375 L13.001181,52.19375 L13.001181,55.19375 C13.001181,55.74575 13.449181,56.19375 14.001181,56.19375 L21.001181,56.19375 C21.554181,56.19375 22.001181,55.74575 22.001181,55.19375 L22.001181,52.19375 L24.001181,52.19375 L24.001181,50.19375 L11.001181,50.19375 L11.001181,52.19375 Z M33.001181,46.75475 L27.433181,41.31275 C27.824181,39.60175 27.892181,37.52275 27.892181,35.19375 L27.892181,28.69975 L33.001181,34.61675 L33.001181,46.75475 Z M34.758181,33.59075 L27.914181,25.66475 L27.892181,25.68475 L27.892181,18.19375 L26.001181,18.19375 L26.001181,35.19375 C26.001181,42.51075 25.067181,44.19375 21.001181,44.19375 C20.449181,44.19375 20.001181,44.64075 20.001181,45.19375 L20.001181,49.19375 L21.892181,49.19375 L21.892181,46.15475 C24.369181,45.95075 25.826181,44.95375 26.685181,43.37775 L33.302181,49.84575 C33.493181,50.03275 33.746181,50.13075 34.001181,50.13075 C34.132181,50.13075 34.264181,50.10575 34.389181,50.05275 C34.760181,49.89675 35.001181,49.53375 35.001181,49.13075 L35.001181,34.24375 C35.001181,34.00375 34.915181,33.77275 34.758181,33.59075 L34.758181,33.59075 Z M1.892181,46.75475 L1.892181,34.61675 L7.001181,28.69975 L7.001181,35.19375 C7.001181,37.52275 7.070181,39.60175 7.460181,41.31275 L1.892181,46.75475 Z M13.001181,46.15475 L13.001181,49.19375 L15.001181,49.19375 L15.001181,45.19375 C15.001181,44.64075 14.554181,44.19375 14.001181,44.19375 C9.936181,44.19375 9.001181,42.51075 9.001181,35.19375 L9.001181,18.19375 L7.001181,18.19375 L7.001181,25.68475 L6.979181,25.66475 L0.135181004,33.59075 C-0.0218189959,33.77275 0.00118100415,34.00375 0.00118100415,34.24375 L0.00118100415,49.13075 C0.00118100415,49.53375 0.133181004,49.89675 0.504181004,50.05275 C0.629181004,50.10575 0.761181004,50.13075 0.892181004,50.13075 C1.148181,50.13075 1.401181,50.03275 1.591181,49.84575 L8.208181,43.37775 C9.068181,44.95375 10.525181,45.95075 13.001181,46.15475 L13.001181,46.15475 Z M13.001181,32.14275 L13.001181,28.40175 L16.001181,29.65175 L16.001181,33.87475 L13.001181,32.14275 Z M17.501181,24.34775 L21.132181,26.44475 L17.484181,28.10275 L13.716181,26.53375 L17.501181,24.34775 Z M18.001181,34.45275 L18.001181,30.06475 L22.001181,28.24575 L22.001181,32.14275 L18.001181,34.45275 Z M16.017181,36.19375 L17.001181,36.76175 C17.156181,36.85075 17.329181,36.89575 17.501181,36.89575 C17.674181,36.89575 17.847181,36.85075 18.001181,36.76175 L23.501181,33.58575 C23.811181,33.40775 24.001181,33.07675 24.001181,32.71975 L24.001181,26.36875 C24.001181,26.01175 23.811181,25.68175 23.501181,25.50275 L18.001181,22.32675 C17.693181,22.14975 17.310181,22.14975 17.001181,22.32675 L11.501181,25.50275 C11.192181,25.68175 11.001181,26.01175 11.001181,26.36875 L11.001181,32.71975 C11.001181,33.07675 11.192181,33.40775 11.501181,33.58575 L16.001181,36.18475 L16.001181,36.19375 L16.017181,36.19375 Z" id="Bottlerocket_Icon_64_Squid"></path>
        </g>
    </g>
</svg>