<?xml version="1.0" encoding="UTF-8"?>
<svg width="80px" height="80px" viewBox="0 0 80 80" version="1.1" xmlns="http://www.w3.org/2000/svg" xmlns:xlink="http://www.w3.org/1999/xlink">
    <title>Icon-Architecture/64/Arch_NICE-EnginFrame_64</title>
    <g id="Icon-Architecture/64/Arch_NICE-EnginFrame_64" stroke="none" stroke-width="1" fill="none" fill-rule="evenodd">
        <g id="Icon-Architecture-BG/64/Compute" fill="#ED7100">
            <rect id="Rectangle" x="0" y="0" width="80" height="80"></rect>
        </g>
        <g id="Icon-Service/64/NICE-EnginFrame_64" transform="translate(12.000000, 16.000000)" fill="#FFFFFF">
            <path d="M9.919,28.879 C12.393,35.436 19.629,40 28,40 C38.477,40 47,32.822 47,24 C47,15.177 38.477,8 28,8 C19.628,8 12.393,12.563 9.918,19.12 C10.272,19.041 10.634,19 11,19 L33,19 C35.757,19 38,21.243 38,24 C38,26.756 35.757,29 33,29 L11,29 C10.634,29 10.272,28.959 9.919,28.879 M28,42 C17.805,42 9.117,35.756 7.342,27.153 C7.255,26.729 7.45,26.297 7.826,26.083 C8.201,25.867 8.673,25.92 8.994,26.211 C9.554,26.72 10.266,27 11,27 L33,27 C34.654,27 36,25.654 36,24 C36,22.345 34.654,21 33,21 L11,21 C10.266,21 9.554,21.279 8.993,21.788 C8.673,22.079 8.202,22.13 7.825,21.916 C7.449,21.701 7.255,21.269 7.342,20.845 C9.117,12.243 17.805,6 28,6 C39.579,6 49,14.074 49,24 C49,33.925 39.579,42 28,42 M28,2 C13.663,2 2,11.869 2,24 C2,36.13 13.663,46 28,46 C42.337,46 54,36.13 54,24 C54,11.869 42.337,2 28,2 M28,48 C12.561,48 0,37.233 0,24 C0,10.766 12.561,0 28,0 C43.44,0 56,10.766 56,24 C56,37.233 43.44,48 28,48" id="Fill-8"></path>
        </g>
    </g>
</svg>