<?xml version="1.0" encoding="UTF-8"?>
<svg width="80px" height="80px" viewBox="0 0 80 80" version="1.1" xmlns="http://www.w3.org/2000/svg" xmlns:xlink="http://www.w3.org/1999/xlink">
    <title>Icon-Architecture/64/Arch_AWS-Compute-Optimizer_64</title>
    <g id="Icon-Architecture/64/Arch_AWS-Compute-Optimizer_64" stroke="none" stroke-width="1" fill="none" fill-rule="evenodd">
        <g id="Icon-Architecture-BG/64/Compute" fill="#ED7100">
            <rect id="Rectangle" x="0" y="0" width="80" height="80"></rect>
        </g>
        <g id="Icon-Service/64/AWS-Compute-Optimizer_64" transform="translate(12.000000, 12.000000)" fill="#FFFFFF">
            <path d="M32,35.914924 L32,33.888924 C35.942,33.243924 39,29.899924 39,25.999924 C39,22.100924 35.942,18.756924 32,18.111924 L32,16.085924 C37.043,16.751924 41,21.015924 41,25.999924 C41,30.984924 37.043,35.248924 32,35.914924 L32,35.914924 Z M20.051,53.856924 L16.762,51.833924 L21.641,47.768924 L20.359,46.231924 L14.965,50.727924 L8,46.441924 L8,38.534924 L13.555,34.831924 L12.445,33.167924 L6.929,36.845924 L2,34.381924 L2,28.546924 L7.541,24.984924 L6.459,23.301924 L2.001,26.167924 L2.001,21.618924 L7.033,19.101924 L13,21.659924 L13,26.519924 L8.375,30.219924 L9.625,31.780924 L13.926,28.339924 L16,30.414924 L16,32.999924 L18,32.999924 L18,29.999924 C18,29.734924 17.895,29.480924 17.707,29.292924 L15,26.585924 L15,21.618924 L20.447,18.894924 C20.786,18.725924 21,18.378924 21,17.999924 L21,11.999924 L19,11.999924 L19,17.381924 L13.968,19.897924 L8,17.340924 L8,9.26092399 L14,5.40392399 L14,11.999924 L16,11.999924 L16,4.11892399 L19.088,2.13292399 L27.001,5.64992399 L27.001,25.925924 L23.601,23.217924 L22.354,24.782924 L27.001,28.481924 L27.001,32.476924 L14.431,41.177924 L15.569,42.822924 L27.001,34.908924 L27.001,50.381924 L20.051,53.856924 Z M28.407,4.08692399 L19.407,0.0869239905 C19.1,-0.0510760095 18.744,-0.0230760095 18.46,0.15892399 L6.46,7.87292399 C6.174,8.05792399 6.001,8.37392399 6.001,8.71492399 L6,17.381924 L0.554,20.105924 C0.215,20.274924 0.001,20.621924 0.001,20.999924 L3.55271368e-15,34.999924 C3.55271368e-15,35.378924 0.214,35.725924 0.553,35.894924 L6.001,38.618924 L6,46.999924 C6,47.347924 6.18,47.669924 6.476,47.851924 L19.476,55.851924 C19.636,55.950924 19.817,55.999924 20,55.999924 C20.153,55.999924 20.306,55.964924 20.447,55.894924 L28.448,51.894924 C28.787,51.725924 29,51.378924 29,50.999924 L29,4.99992399 C29,4.60492399 28.769,4.24692399 28.407,4.08692399 L28.407,4.08692399 Z M33.973,2.99992399 L32,2.99992399 L32,0.99992399 L35,0.99992399 C35.27,0.99992399 35.528,1.10892399 35.717,1.30292399 C35.904,1.49592399 36.007,1.75692399 36,2.02692399 L35.907,5.48892399 C37.722,5.96992399 39.457,6.68492399 41.083,7.62092399 L43.182,5.26292399 C43.364,5.05792399 43.624,4.93692399 43.899,4.92892399 C44.163,4.91692399 44.44,5.02592399 44.635,5.21992399 L51.379,11.949924 C51.574,12.143924 51.68,12.409924 51.673,12.684924 C51.665,12.959924 51.544,13.219924 51.339,13.402924 L48.988,15.503924 C49.924,17.118924 50.642,18.843924 51.128,20.649924 L53.937,20.471924 C54.209,20.456924 54.482,20.551924 54.684,20.740924 C54.886,20.929924 55,21.192924 55,21.468924 L55,30.995924 C55,31.271924 54.897,31.535924 54.696,31.724924 C54.496,31.913924 54.223,32.015924 53.949,31.994924 L51.15,31.823924 C50.596,33.904924 49.733,35.881924 48.581,37.709924 L46.89,36.643924 C48.071,34.767924 48.917,32.719924 49.402,30.555924 C49.51,30.076924 49.928,29.745924 50.439,29.775924 L53.01,29.933924 L53.001,22.535924 L50.423,22.698924 C49.937,22.735924 49.493,22.401924 49.385,21.922924 C48.892,19.758924 48.042,17.714924 46.858,15.846924 C46.597,15.433924 46.672,14.891924 47.037,14.565924 L49.217,12.617924 L43.972,7.38392399 L42.025,9.56992399 C41.7,9.93592399 41.16,10.012924 40.745,9.75092399 C38.873,8.57192399 36.828,7.72892399 34.667,7.24392399 C34.2,7.13992399 33.873,6.71992399 33.886,6.24192399 L33.973,2.99992399 Z M51.256,51.999924 L36.29,51.999924 C36.004,51.999924 35.791,51.952924 35.639,51.856924 C34.938,51.414924 34.104,50.562924 34.104,49.013924 C34.104,47.088924 35.327,46.370924 36.354,46.107924 C36.816,45.988924 37.131,45.557924 37.103,45.079924 L37.063,44.447924 C37.063,42.762924 38.262,40.882924 39.734,40.257924 C40.413,39.969924 41.039,39.854924 41.607,39.854924 C43.225,39.854924 44.368,40.784924 44.867,41.286924 C45.423,41.845924 45.859,42.566924 46.163,43.429924 C46.287,43.778924 46.593,44.030924 46.959,44.085924 C47.329,44.140924 47.692,43.987924 47.911,43.689924 C48.264,43.212924 48.867,43.012924 49.407,43.190924 C50.024,43.393924 50.384,44.035924 50.4,44.956924 C50.342,45.480924 50.701,45.963924 51.225,46.053924 C52.06,46.197924 54.001,46.777924 54.001,49.047924 C54.001,51.607924 51.66,51.958924 51.256,51.999924 L51.256,51.999924 Z M52.349,44.268924 C52.103,42.568924 51.037,41.620924 50.031,41.290924 C49.172,41.007924 48.258,41.096924 47.485,41.493924 C47.151,40.885924 46.75,40.344924 46.285,39.876924 C44.285,37.861924 41.545,37.314924 38.953,38.416924 C36.757,39.348924 35.096,41.900924 35.065,44.432924 C33.196,45.208924 32.104,46.870924 32.104,49.013924 C32.104,51.603924 33.649,52.965924 34.57,53.547924 C35.045,53.847924 35.623,53.998924 36.289,53.999924 L51.302,53.999924 C51.326,53.999924 51.351,53.998924 51.375,53.997924 C52.975,53.880924 56.001,52.695924 56.001,49.047924 C56.001,46.327924 54.232,44.840924 52.349,44.268924 L52.349,44.268924 Z" id="AWS-Compute-Optimizer_64_Squid"></path>
        </g>
    </g>
</svg>