<?xml version="1.0" encoding="UTF-8"?>
<svg width="80px" height="80px" viewBox="0 0 80 80" version="1.1" xmlns="http://www.w3.org/2000/svg" xmlns:xlink="http://www.w3.org/1999/xlink">
    <title>Icon-Architecture/64/Arch_AWS-Outposts-family_64</title>
    <g id="Icon-Architecture/64/Arch_AWS-Outposts-family_64" stroke="none" stroke-width="1" fill="none" fill-rule="evenodd">
        <g id="Icon-Architecture-BG/64/Compute" fill="#ED7100">
            <rect id="Rectangle" x="0" y="0" width="80" height="80"></rect>
        </g>
        <path d="M37,65.9894087 L41,65.9894087 L41,58.9894087 L37,58.9894087 L37,65.9894087 Z M28,65.9894087 L35,65.9894087 L35,57.9894087 C35,57.4374087 35.447,56.9894087 36,56.9894087 L42,56.9894087 C42.553,56.9894087 43,57.4374087 43,57.9894087 L43,65.9894087 L50,65.9894087 L50,34.9894087 L28,34.9894087 L28,45.9894087 L28,47.9894087 L28,65.9894087 Z M68,65.9894087 L68,67.9894087 L12,67.9894087 L12,65.9894087 L26,65.9894087 L26,47.9894087 L21.928,47.9894087 C17.448,47.9894087 13.577,44.9364087 12.723,40.7304087 C12.672,40.4834087 12.631,40.2284087 12.6,39.9704087 C12.538,39.4674087 12.506,38.9394087 12.506,38.4044087 C12.506,32.6414087 16.3,29.4154087 20.079,28.2154087 L14.12,26.0404087 L14.806,24.1614087 L22.356,26.9174087 C22.605,27.0084087 22.809,27.1954087 22.92,27.4354087 C23.032,27.6764087 23.044,27.9504087 22.953,28.1994087 L20.196,35.7514087 L18.317,35.0654087 L20.038,30.3524087 C17.913,31.1924087 14.506,33.3324087 14.506,38.4044087 C14.506,38.8574087 14.532,39.3034087 14.585,39.7294087 C14.609,39.9354087 14.643,40.1344087 14.683,40.3304087 C15.349,43.6104087 18.396,45.9894087 21.928,45.9894087 L26,45.9894087 L26,33.9894087 C26,33.4374087 26.447,32.9894087 27,32.9894087 L51,32.9894087 C51.553,32.9894087 52,33.4374087 52,33.9894087 L52,65.9894087 L68,65.9894087 Z M43,41.9894087 L45,41.9894087 L45,39.9894087 L43,39.9894087 L43,41.9894087 Z M41,42.9894087 L41,38.9894087 C41,38.4374087 41.447,37.9894087 42,37.9894087 L46,37.9894087 C46.553,37.9894087 47,38.4374087 47,38.9894087 L47,42.9894087 C47,43.5414087 46.553,43.9894087 46,43.9894087 L42,43.9894087 C41.447,43.9894087 41,43.5414087 41,42.9894087 L41,42.9894087 Z M33,41.9894087 L35,41.9894087 L35,39.9894087 L33,39.9894087 L33,41.9894087 Z M31,42.9894087 L31,38.9894087 C31,38.4374087 31.447,37.9894087 32,37.9894087 L36,37.9894087 C36.553,37.9894087 37,38.4374087 37,38.9894087 L37,42.9894087 C37,43.5414087 36.553,43.9894087 36,43.9894087 L32,43.9894087 C31.447,43.9894087 31,43.5414087 31,42.9894087 L31,42.9894087 Z M43,50.9894087 L45,50.9894087 L45,48.9894087 L43,48.9894087 L43,50.9894087 Z M41,51.9894087 L41,47.9894087 C41,47.4374087 41.447,46.9894087 42,46.9894087 L46,46.9894087 C46.553,46.9894087 47,47.4374087 47,47.9894087 L47,51.9894087 C47,52.5414087 46.553,52.9894087 46,52.9894087 L42,52.9894087 C41.447,52.9894087 41,52.5414087 41,51.9894087 L41,51.9894087 Z M33,50.9894087 L35,50.9894087 L35,48.9894087 L33,48.9894087 L33,50.9894087 Z M32,52.9894087 C31.447,52.9894087 31,52.5414087 31,51.9894087 L31,47.9894087 C31,47.4374087 31.447,46.9894087 32,46.9894087 L36,46.9894087 C36.553,46.9894087 37,47.4374087 37,47.9894087 L37,51.9894087 C37,52.5414087 36.553,52.9894087 36,52.9894087 L32,52.9894087 Z M22.028,24.2344087 L20.104,23.6844087 C21.332,19.3884087 24.365,15.7594087 28.021,14.2114087 C33.661,11.8224087 39.639,13.0104087 44.006,17.3904087 C45.353,18.7414087 46.457,20.3774087 47.303,22.2684087 C48.919,20.9324087 51.042,20.4514087 53.067,21.0434087 C55.856,21.8584087 57.725,24.4214087 58.148,27.9604087 C60.815,28.5994087 66.413,30.8254087 66.666,38.2284087 C66.772,41.3324087 65.911,43.8544087 64.104,45.7234087 C62.35,47.5384087 60.071,48.3454087 58.376,48.7034087 L63.073,50.9454087 L62.212,52.7504087 L54.958,49.2874087 C54.46,49.0504087 54.248,48.4534087 54.486,47.9544087 L57.948,40.7004087 L59.753,41.5614087 L57.218,46.8744087 C58.639,46.6624087 61.006,46.0594087 62.676,44.3234087 C64.084,42.8604087 64.755,40.8324087 64.668,38.2964087 C64.443,31.7464087 59.249,30.1514087 57.026,29.7694087 C56.491,29.6774087 56.128,29.1764087 56.206,28.6404087 C55.978,25.6934087 54.6,23.5744087 52.506,22.9634087 C50.769,22.4564087 48.902,23.1284087 47.756,24.6804087 C47.536,24.9784087 47.166,25.1314087 46.804,25.0754087 C46.437,25.0204087 46.132,24.7684087 46.008,24.4194087 C45.215,22.1724087 44.064,20.2824087 42.59,18.8024087 C40.778,16.9864087 35.812,13.0814087 28.8,16.0524087 C25.735,17.3504087 23.077,20.5624087 22.028,24.2344087 L22.028,24.2344087 Z" id="Fill-1" fill="#FFFFFF"></path>
    </g>
</svg>