<?xml version="1.0" encoding="UTF-8"?>
<svg width="80px" height="80px" viewBox="0 0 80 80" version="1.1" xmlns="http://www.w3.org/2000/svg" xmlns:xlink="http://www.w3.org/1999/xlink">
    <title>Icon-Architecture/64/Arch_AWS-Outposts-servers_64</title>
    <g id="Icon-Architecture/64/Arch_AWS-Outposts-servers_64" stroke="none" stroke-width="1" fill="none" fill-rule="evenodd">
        <g id="Icon-Architecture-BG/64/Compute" transform="translate(-0.000000, 0.000000)" fill="#ED7100">
            <rect id="Rectangle" x="0" y="0" width="80" height="80"></rect>
        </g>
        <g id="Icon-Service/64/AWS-Outposts-servers_64" transform="translate(12.000000, 21.500000)" fill="#FFFFFF">
            <path d="M54,27.4941175 C54,26.9431175 53.552,26.4941175 53,26.4941175 L11,26.4941175 C10.448,26.4941175 10,26.9431175 10,27.4941175 L10,33.4941175 C10,34.0451175 10.448,34.4941175 11,34.4941175 L53,34.4941175 C53.552,34.4941175 54,34.0451175 54,33.4941175 L54,27.4941175 Z M56,27.4941175 L56,33.4941175 C56,35.1481175 54.654,36.4941175 53,36.4941175 L11,36.4941175 C9.346,36.4941175 8,35.1481175 8,33.4941175 L8,27.4941175 C8,25.8401175 9.346,24.4941175 11,24.4941175 L53,24.4941175 C54.654,24.4941175 56,25.8401175 56,27.4941175 L56,27.4941175 Z M13,31.4941175 L16,31.4941175 L16,29.4941175 L13,29.4941175 L13,31.4941175 Z M19,31.4941175 L25,31.4941175 L25,29.4941175 L19,29.4941175 L19,31.4941175 Z M28,31.4941175 L51,31.4941175 L51,29.4941175 L28,29.4941175 L28,31.4941175 Z M7.29,11.9161175 C7.297,11.9631175 7.3,12.0101175 7.3,12.0581175 C7.3,12.5381175 6.96,12.9451175 6.502,13.0381175 C4.799,13.4861175 2,14.8381175 2,18.8841175 C2,19.0191175 2.004,19.1521175 2.01,19.2831175 C2.1,21.1461175 2.774,24.3451175 6.276,24.8181175 L6.009,26.8001175 C0.743,26.0881175 0.088,20.9391175 0.012,19.3781175 C0.004,19.2151175 0,19.0511175 0,18.8841175 C0,15.2621175 1.941,12.4951175 5.238,11.3351175 C5.231,11.1701175 5.228,11.0051175 5.228,10.8401175 C5.228,6.73011753 7.98,2.46411753 11.632,0.918117526 C15.903,-0.891882474 20.431,0.00711752636 23.738,3.32511753 C24.684,4.27411753 25.472,5.40911753 26.091,6.71011753 C27.314,5.82511753 28.857,5.53111753 30.327,5.96011753 C32.441,6.57811753 33.873,8.47411753 34.244,11.0951175 C36.432,11.5811175 40.571,13.2121175 40.571,20.9021175 L38.571,20.9021175 C38.571,14.6911175 35.824,13.3811175 33.138,12.9191175 C32.613,12.8291175 32.253,12.3461175 32.313,11.8211175 C32.147,9.76811753 31.2,8.29911753 29.767,7.88011753 C28.585,7.53511753 27.318,7.99611753 26.537,9.05511753 C26.317,9.35111753 25.946,9.50411753 25.585,9.45011753 C25.219,9.39511753 24.913,9.14211753 24.79,8.79411753 C24.215,7.16811753 23.385,5.80411753 22.322,4.73711753 C21.021,3.43211753 17.45,0.625117526 12.411,2.76011753 C9.505,3.99111753 7.228,7.54011753 7.228,10.8401175 C7.228,11.2021175 7.248,11.5631175 7.29,11.9161175 L7.29,11.9161175 Z" id="Fill-1"></path>
        </g>
    </g>
</svg>