<?xml version="1.0" encoding="UTF-8"?>
<svg width="80px" height="80px" viewBox="0 0 80 80" version="1.1" xmlns="http://www.w3.org/2000/svg" xmlns:xlink="http://www.w3.org/1999/xlink">
    <title>Icon-Architecture/64/Arch_Elastic-Fabric-Adapter_64</title>
    <g id="Icon-Architecture/64/Arch_Elastic-Fabric-Adapter_64" stroke="none" stroke-width="1" fill="none" fill-rule="evenodd">
        <g id="Icon-Architecture-BG/64/Compute" transform="translate(-0.000000, 0.000000)" fill="#ED7100">
            <rect id="Rectangle" x="0" y="0" width="80" height="80"></rect>
        </g>
        <g id="Icon-Service/64/Elastic-Fabric-Adapter_64" transform="translate(12.000000, 17.000000)" fill="#FFFFFF">
            <path d="M8.401,15.362 L6.536,14.637 C9.937,5.882 18.563,0 28,0 C37.436,0 46.062,5.882 49.464,14.637 L47.598,15.362 C44.494,7.369 36.618,2 28,2 C19.381,2 11.505,7.369 8.401,15.362 L8.401,15.362 Z M47.598,30.637 L49.464,31.362 C46.062,40.117 37.436,46 28,46 C18.563,46 9.937,40.117 6.536,31.362 L8.401,30.637 C11.505,38.63 19.381,44 28,44 C36.618,44 44.494,38.63 47.598,30.637 L47.598,30.637 Z M54,26.552 C54,26.795 53.795,27 53.551,27 L46.448,27 C46.205,27 46,26.795 46,26.552 L46,19.447 C46,19.205 46.205,19 46.448,19 L53.551,19 C53.795,19 54,19.205 54,19.447 L54,26.552 Z M53.551,17 L46.448,17 C45.098,17 44,18.098 44,19.447 L44,26.552 C44,27.902 45.098,29 46.448,29 L53.551,29 C54.901,29 56,27.902 56,26.552 L56,19.447 C56,18.098 54.901,17 53.551,17 L53.551,17 Z M2,26.552 L2,19.447 C2,19.205 2.205,19 2.448,19 L9.551,19 C9.795,19 10,19.205 10,19.447 L10,26.552 C10,26.795 9.795,27 9.551,27 L2.448,27 C2.205,27 2,26.795 2,26.552 L2,26.552 Z M12,26.552 L12,19.447 C12,18.098 10.901,17 9.551,17 L2.448,17 C1.098,17 0,18.098 0,19.447 L0,26.552 C0,27.902 1.098,29 2.448,29 L9.551,29 C10.901,29 12,27.902 12,26.552 L12,26.552 Z M29,24 L34,24 L34,20 L29,20 L29,24 Z M22,24 L27,24 L27,20 L22,20 L22,24 Z M20,26 L36,26 L36,18 L20,18 L20,26 Z M27,28 L27,31 L18,31 L18,28 L16,28 L16,16 L40,16 L40,28 L36,28 L36,31 L33,31 L33,28 L27,28 Z M38,33 L38,30 L42,30 L42,14 L14,14 L14,30 L16,30 L16,33 L29,33 L29,30 L31,30 L31,33 L38,33 Z" id="Fill-1"></path>
        </g>
    </g>
</svg>