<svg width="80" height="80" viewBox="0 0 80 80" fill="none" xmlns="http://www.w3.org/2000/svg">
<g clip-path="url(#clip0_1_285)">
<rect width="80" height="80" fill="white"/>
<rect width="80" height="80" fill="#ED7100"/>
<path d="M23 28C21.35 28 20 26.65 20 25C20 23.35 21.35 22 23 22C24.65 22 26 23.35 26 25C26 26.65 24.65 28 23 28ZM20 53C18.35 53 17 54.35 17 56C17 57.65 18.35 59 20 59C21.65 59 23 57.65 23 56C23 54.35 21.65 53 20 53ZM37 56C37 57.65 38.35 59 40 59C41.65 59 43 57.65 43 56C43 54.35 41.65 53 40 53C38.35 53 37 54.35 37 56ZM68 56C68 60.41 64.41 64 60 64C55.59 64 52 60.41 52 56C52 53.73 52.95 51.69 54.47 50.23L47.04 45.62L44.15 49.18C46.45 50.59 48 53.12 48 56.01C48 60.42 44.41 64.01 40 64.01C35.59 64.01 32 60.42 32 56.01C32 53.12 33.55 50.59 35.85 49.18L32.96 45.62L25.53 50.23C27.05 51.69 28 53.73 28 56C28 60.41 24.41 64 20 64C15.59 64 12 60.41 12 56C12 52.23 14.62 49.08 18.13 48.23L20.85 33.73C16.93 32.76 14 29.22 14 25C14 20.04 18.04 16 23 16C27.96 16 32 20.04 32 25C32 27.78 30.74 30.26 28.75 31.91L40 38.89L51.25 31.91C49.27 30.26 48 27.77 48 25C48 20.04 52.04 16 57 16C61.96 16 66 20.04 66 25C66 29.22 63.08 32.76 59.15 33.73L61.87 48.23C65.38 49.08 68 52.23 68 56ZM57 32C60.86 32 64 28.86 64 25C64 21.14 60.86 18 57 18C53.14 18 50 21.14 50 25C50 28.86 53.14 32 57 32ZM41.9 40.07L46.6 42.99L54.25 33.57C53.86 33.44 53.48 33.29 53.11 33.11L41.89 40.07H41.9ZM42.26 48.33L45.33 44.55L40 41.24L34.67 44.55L37.74 48.33C38.46 48.12 39.21 48 40 48C40.79 48 41.54 48.12 42.26 48.33ZM26.89 33.11C26.52 33.29 26.15 33.45 25.75 33.57L33.4 42.99L38.1 40.07L26.88 33.11H26.89ZM23 32C26.86 32 30 28.86 30 25C30 21.14 26.86 18 23 18C19.14 18 16 21.14 16 25C16 28.86 19.14 32 23 32ZM20 50C16.69 50 14 52.69 14 56C14 59.31 16.69 62 20 62C23.31 62 26 59.31 26 56C26 52.69 23.31 50 20 50ZM31.69 44.05L23.5 33.97C23.33 33.97 23.17 34 23 34C22.94 34 22.89 34 22.83 34L20.2 48.02C21.49 48.05 22.71 48.39 23.78 48.97L31.68 44.06L31.69 44.05ZM40 50C36.69 50 34 52.69 34 56C34 59.31 36.69 62 40 62C43.31 62 46 59.31 46 56C46 52.69 43.31 50 40 50ZM56.21 48.96C57.28 48.38 58.5 48.05 59.79 48.01L57.16 33.99C57.1 33.99 57.05 33.99 56.99 33.99C56.82 33.99 56.65 33.97 56.49 33.96L48.3 44.04L56.2 48.95L56.21 48.96ZM66 56C66 52.69 63.31 50 60 50C56.69 50 54 52.69 54 56C54 59.31 56.69 62 60 62C63.31 62 66 59.31 66 56Z" fill="white"/>
</g>
<defs>
<clipPath id="clip0_1_285">
<rect width="80" height="80" fill="white"/>
</clipPath>
</defs>
</svg>
