<?xml version="1.0" encoding="UTF-8"?>
<svg width="80px" height="80px" viewBox="0 0 80 80" version="1.1" xmlns="http://www.w3.org/2000/svg" xmlns:xlink="http://www.w3.org/1999/xlink">
    <title>Icon-Architecture/64/Arch_NICE-DCV_64</title>
    <g id="Icon-Architecture/64/Arch_NICE-DCV_64" stroke="none" stroke-width="1" fill="none" fill-rule="evenodd">
        <g id="Icon-Architecture-BG/64/Compute" transform="translate(-0.000000, 0.000000)" fill="#ED7100">
            <rect id="Rectangle" x="0" y="0" width="80" height="80"></rect>
        </g>
        <g id="Icon-Service/64/NICE-DCV_64" transform="translate(12.000000, 12.000000)" fill="#FFFFFF">
            <path d="M49.0692448,26.3860236 C44.3272448,29.3450236 37.7172448,32.3530236 30.4602448,34.8550236 C25.3392448,36.6200236 20.3302448,37.9780236 15.8652448,38.8380236 C19.7272448,48.6800236 26.9442448,55.0370236 33.9772448,53.8530236 C40.5142448,52.7500236 45.3872448,45.0930236 46.1002448,34.8010236 L48.0962448,34.9390236 C47.3042448,46.3470236 41.8932448,54.5450236 34.3092448,55.8250236 C33.6482448,55.9370236 32.9842448,55.9910236 32.3232448,55.9910236 C24.9452448,55.9910236 17.7182448,49.2090236 13.8712448,39.1940236 C12.7332448,39.3800236 11.6252448,39.5420236 10.5842448,39.6530236 C9.17324479,39.8030236 7.90124479,39.8790236 6.76924479,39.8790236 C2.95024479,39.8790236 0.726244793,39.0250236 0.141244793,37.3280236 C-0.585755207,35.2180236 1.49624479,32.5660236 6.32824479,29.4450236 L7.41424479,31.1250236 C2.70424479,34.1670236 1.81424479,36.0460236 2.03224479,36.6770236 C2.26324479,37.3480236 4.27924479,38.3130236 10.3722448,37.6650236 C11.2672448,37.5700236 12.2162448,37.4330236 13.1872448,37.2800236 C12.5372448,35.2970236 12.0142448,33.2050236 11.6472448,31.0280236 C10.4062448,23.6730236 11.0562448,16.4380236 13.4802448,10.6540236 C15.9692448,4.71502364 20.0312448,0.990023637 24.9172448,0.166023637 C30.8032448,-0.828976363 37.0752448,2.69102364 41.6792448,9.57902364 L40.0172448,10.6900236 C35.8622448,4.47602364 30.3492448,1.28002364 25.2492448,2.13802364 C21.0632448,2.84402364 17.5392448,6.14302364 15.3252448,11.4270236 C13.0462448,16.8660236 12.4402448,23.7090236 13.6202448,30.6950236 C13.9882448,32.8760236 14.5152448,34.9660236 15.1732448,36.9370236 C19.6182448,36.1000236 24.6512448,34.7420236 29.8072448,32.9650236 C36.9272448,30.5100236 43.3922448,27.5720236 48.0102448,24.6890236 C53.2072448,21.4470236 54.2012448,19.4440236 53.9692448,18.7720236 C53.7692448,18.1890236 52.0952448,17.2990236 47.0972448,17.6530236 L46.9572448,15.6570236 C52.1712448,15.2890236 55.1712448,16.1160236 55.8602448,18.1200236 C56.6192448,20.3200236 54.3342448,23.1010236 49.0692448,26.3860236" id="Fill-8"></path>
        </g>
    </g>
</svg>