<?xml version="1.0" encoding="UTF-8"?>
<svg width="80px" height="80px" viewBox="0 0 80 80" version="1.1" xmlns="http://www.w3.org/2000/svg" xmlns:xlink="http://www.w3.org/1999/xlink">
    <title>Icon-Architecture/64/Arch_Amazon-Lightsail-for-Research_64</title>
    <g id="Icon-Architecture/64/Arch_Amazon-Lightsail-for-Research_64" stroke="none" stroke-width="1" fill="none" fill-rule="evenodd">
        <g id="Icon-Architecture-BG/64/Compute" fill="#ED7100">
            <rect id="Rectangle" x="0" y="0" width="80" height="80"></rect>
        </g>
        <path d="M44.134145,41.6168166 C47.255145,39.3468166 47.947145,34.9598166 45.678145,31.8388166 C44.578145,30.3268166 42.955145,29.3328166 41.109145,29.0418166 C40.738145,28.9828166 40.368145,28.9538166 40.001145,28.9538166 C38.534145,28.9538166 37.109145,29.4148166 35.899145,30.2948166 C32.778145,32.5648166 32.084145,36.9508166 34.355145,40.0728166 C35.454145,41.5848166 37.077145,42.5788166 38.924145,42.8698166 C40.778145,43.1608166 42.622145,42.7158166 44.134145,41.6168166 L44.134145,41.6168166 Z M46.084145,42.5978166 L51.412145,49.9248166 L49.795145,51.1008166 L44.455145,43.7588166 C43.099145,44.5338166 41.590145,44.9578166 40.035145,44.9578166 C39.563145,44.9578166 39.088145,44.9208166 38.613145,44.8458166 C36.238145,44.4708166 34.152145,43.1938166 32.738145,41.2498166 C29.819145,37.2358166 30.709145,31.5958166 34.723145,28.6778166 C36.666145,27.2638166 39.041145,26.6898166 41.420145,27.0658166 C43.795145,27.4408166 45.881145,28.7188166 47.295145,30.6618166 C48.709145,32.6068166 49.281145,34.9848166 48.906145,37.3598166 C48.584145,39.4008166 47.591145,41.2268166 46.084145,42.5978166 L46.084145,42.5978166 Z M63.016145,61.9548166 L17.016145,61.9548166 L17.016145,64.5548166 C17.016145,65.4098166 17.452145,65.9548166 17.753145,65.9548166 L62.666145,65.9548166 C62.756145,65.9248166 63.016145,65.5748166 63.016145,64.5548166 L63.016145,61.9548166 Z M65.016145,60.9548166 L65.016145,64.5548166 C65.016145,67.7098166 63.217145,67.9548166 62.666145,67.9548166 L17.753145,67.9548166 C16.218145,67.9548166 15.016145,66.4618166 15.016145,64.5548166 L15.016145,60.9548166 C15.016145,60.4028166 15.463145,59.9548166 16.016145,59.9548166 L20.016145,59.9548166 L20.016145,37.9548166 C20.016145,36.8518166 20.913145,35.9548166 22.016145,35.9548166 L29.016145,35.9548166 L29.016145,37.9548166 L22.016145,37.9548166 L22.016145,59.9548166 L58.016145,59.9548166 L58.016145,37.9548166 L51.016145,37.9548166 L51.016145,35.9548166 L58.016145,35.9548166 C59.118145,35.9548166 60.016145,36.8518166 60.016145,37.9548166 L60.016145,59.9548166 L64.016145,59.9548166 C64.569145,59.9548166 65.016145,60.4028166 65.016145,60.9548166 L65.016145,60.9548166 Z M68.0151453,37.4558166 C68.0151453,37.7038166 68.0151453,37.8708166 68.011145,38.0338166 C68.011145,38.2288166 67.966145,43.4918166 63.615145,46.7548166 L62.416145,45.1558166 C65.948145,42.5058166 66.011145,38.0498166 66.011145,38.0048166 C66.015145,37.8348166 66.015145,37.6868166 66.015145,37.5368166 C66.016145,30.9858166 61.549145,29.4668166 58.189145,28.8878166 C58.146145,28.8808166 58.103145,28.8698166 58.061145,28.8568166 L57.718145,28.7498166 C57.248145,28.6038166 56.955145,28.1378166 57.027145,27.6508166 C57.394145,25.1388166 56.369145,23.1448166 54.286145,22.3178166 C52.574145,21.6388166 50.168145,21.9078166 48.882145,23.7418166 C48.666145,24.0488166 48.296145,24.2088166 47.927145,24.1588166 C47.556145,24.1078166 47.244145,23.8538166 47.119145,23.5008166 C46.321145,21.2338166 45.163145,19.3278166 43.681145,17.8358166 C41.861145,16.0058166 36.870145,12.0698166 29.819145,15.0628166 C25.337145,16.9668166 22.553145,20.7568166 22.553145,24.9548166 L22.650145,28.0398166 C22.665145,28.5078166 22.353145,28.9238166 21.900145,29.0398166 L21.650145,29.1038166 C18.342145,29.9488166 14.593145,30.9068166 14.011145,37.0498166 C13.992145,37.2548166 13.998145,37.8628166 14.015145,38.3078166 L12.017145,38.3838166 C12.015145,38.3408166 11.977145,37.3218166 12.021145,36.8618166 C12.697145,29.7038166 17.293145,28.1718166 20.626145,27.3028166 L20.554145,24.9868166 C20.553145,19.9398166 23.804145,15.4448166 29.037145,13.2218166 C34.709145,10.8118166 40.712145,12.0118166 45.099145,16.4258166 C46.452145,17.7868166 47.563145,19.4368166 48.413145,21.3458166 C50.190145,19.9168166 52.705145,19.5368166 55.026145,20.4588166 C57.165145,21.3098166 59.258145,23.4628166 59.094145,27.0228166 C65.016145,28.2198166 68.016145,31.7278166 68.0151453,37.4558166 L68.0151453,37.4558166 Z" id="Fill-1" fill="#FFFFFF"></path>
    </g>
</svg>