<?xml version="1.0" encoding="UTF-8"?>
<svg width="80px" height="80px" viewBox="0 0 80 80" version="1.1" xmlns="http://www.w3.org/2000/svg" xmlns:xlink="http://www.w3.org/1999/xlink">
    <title>Icon-Architecture/64/Arch_AWS-SimSpace-Weaver_64</title>
    <g id="Icon-Architecture/64/Arch_AWS-SimSpace-Weaver_64" stroke="none" stroke-width="1" fill="none" fill-rule="evenodd">
        <g id="Icon-Architecture-BG/64/Compute" fill="#ED7100">
            <rect id="Rectangle" x="0" y="0" width="80" height="80"></rect>
        </g>
        <path d="M60.0130356,59.8905 L60.0130356,51.9865 L66.0130356,48.4595 L66.0130356,56.4505 L60.0130356,59.8905 Z M65.2240356,65.9675 L50.5900356,65.9675 L48.6440356,57.9665 L50.5990356,57.9665 L58.5170356,62.4965 C58.6700356,62.5845 58.8420356,62.6285 59.0130356,62.6285 C59.1510356,62.6285 59.2870356,62.5915 59.4170356,62.5345 L59.4180356,62.5365 L59.4370356,62.5265 C59.4630356,62.5145 59.4900356,62.5085 59.5150356,62.4935 C59.5380356,62.4805 59.5560356,62.4605 59.5780356,62.4455 L62.4490356,60.7995 L65.2240356,65.9675 Z M17.6970356,60.8835 L20.5170356,62.4965 C20.6700356,62.5845 20.8420356,62.6285 21.0130356,62.6285 C21.1510356,62.6285 21.2870356,62.5915 21.4170356,62.5345 L21.4180356,62.5365 L21.4370356,62.5265 C21.4630356,62.5145 21.4900356,62.5085 21.5150356,62.4935 C21.5380356,62.4805 21.5560356,62.4605 21.5780356,62.4455 L29.3890356,57.9665 L31.2660356,57.9665 L29.1990356,65.9675 L14.8490356,65.9675 L17.6970356,60.8835 Z M14.0130356,48.5045 L20.0130356,51.9325 L20.0130356,59.9045 L14.0130356,56.4715 L14.0130356,48.5045 Z M21.0440356,43.1605 L27.0740356,46.6955 L21.0630356,50.2295 L14.9870356,46.7575 L21.0440356,43.1605 Z M29.8460356,38.9885 L35.3880356,42.0195 L33.8510356,47.9665 L30.0130356,47.9665 L30.0130356,46.9665 L30.0090356,46.9665 C30.0340356,46.8785 30.0490356,46.7875 30.0490356,46.6935 C30.0490356,46.3385 29.8610356,46.0105 29.5550356,45.8315 L26.8330356,44.2355 L29.8460356,38.9885 Z M28.0130356,21.5305 L39.0130356,26.6065 L39.0130356,41.7225 L28.0130356,35.7065 L28.0130356,21.5305 Z M40.0090356,14.1345 L50.7710356,19.9005 L40.0130356,24.8655 L29.2540356,19.9005 L40.0090356,14.1345 Z M53.4150356,44.0495 L53.4650356,44.1435 L50.4830356,45.9135 C50.1770356,46.0955 49.9910356,46.4255 49.9930356,46.7815 C49.9940356,46.8455 50.0070356,46.9065 50.0190356,46.9665 L50.0130356,46.9665 L50.0130356,47.9665 L46.2130356,47.9665 L44.7420356,41.9175 L50.5460356,38.8015 L53.4150356,44.0495 Z M52.0130356,48.5075 L58.0130356,51.9375 L58.0130356,59.9045 L52.0130356,56.4715 L52.0130356,48.5075 Z M41.0130356,41.6505 L41.0130356,26.6065 L52.0130356,21.5305 L52.0130356,35.7435 L41.0130356,41.6505 Z M39.5340356,44.2865 C39.6830356,44.3675 39.8480356,44.4085 40.0130356,44.4085 C40.1900356,44.4085 40.3660356,44.3615 40.5230356,44.2695 C40.6200356,44.2115 40.7010356,44.1345 40.7720356,44.0495 L42.9210356,42.8955 L44.1540356,47.9665 L35.9160356,47.9665 L37.1970356,43.0085 L39.5340356,44.2865 Z M30.0130356,49.9665 L33.3340356,49.9665 L31.7830356,55.9665 L30.0130356,55.9665 L30.0130356,49.9665 Z M22.0130356,51.9905 L28.0130356,48.4635 L28.0130356,49.9665 L28.0130356,56.4505 L22.0130356,59.8905 L22.0130356,51.9905 Z M46.5860356,57.9665 L48.5320356,65.9675 L31.2630356,65.9675 L33.3310356,57.9665 L46.5860356,57.9665 Z M33.8480356,55.9665 L35.3990356,49.9665 L44.6410356,49.9665 L46.1000356,55.9665 L33.8480356,55.9665 Z M50.0130356,55.9665 L48.1580356,55.9665 L46.6990356,49.9665 L50.0130356,49.9665 L50.0130356,55.9665 Z M59.0370356,43.1605 L65.0670356,46.6955 L59.0550356,50.2295 L52.9800356,46.7575 L59.0370356,43.1605 Z M68.0420356,46.6935 C68.0420356,46.3385 67.8540356,46.0105 67.5480356,45.8315 L59.5400356,41.1365 C59.2260356,40.9525 58.8360356,40.9535 58.5240356,41.1395 L55.1750356,43.1275 L52.3070356,37.8555 L53.4860356,37.2225 C53.8110356,37.0485 54.0130356,36.7095 54.0130356,36.3415 L54.0130356,19.9665 L54.0100356,19.9665 C54.0090356,19.5995 53.8110356,19.2605 53.4860356,19.0855 L40.4820356,12.1185 C40.1870356,11.9605 39.8310356,11.9605 39.5360356,12.1185 L26.5400356,19.0855 C26.2150356,19.2605 26.0170356,19.5995 26.0160356,19.9665 L26.0130356,19.9665 L26.0130356,36.2995 C26.0130356,36.6655 26.2120356,37.0015 26.5340356,37.1765 L28.0880356,38.0275 L25.0830356,43.2095 L21.5470356,41.1365 C21.2330356,40.9525 20.8430356,40.9535 20.5310356,41.1395 L12.4900356,45.9135 C12.1840356,46.0955 11.9970356,46.4255 12,46.7815 C12.0010356,46.8455 12.0140356,46.9065 12.0260356,46.9665 L12.0130356,46.9665 L12.0130356,57.0515 C12.0130356,57.4105 12.2050356,57.7415 12.5170356,57.9205 L15.9620356,59.8905 L12.2770356,66.4675 C12.1050356,66.7735 12.1070356,67.1475 12.2810356,67.4525 C12.4550356,67.7575 12.7770356,67.9485 13.1270356,67.9565 L66.5250356,67.9675 L66.8990356,67.9665 C67.2490356,67.9665 67.5750356,67.7805 67.7540356,67.4795 C67.9350356,67.1775 67.9430356,66.8035 67.7770356,66.4935 L64.1850356,59.8045 L67.5100356,57.8975 C67.8220356,57.7195 68.0130356,57.3885 68.0130356,57.0295 L68.0130356,46.9665 L68.0020356,46.9665 C68.0270356,46.8785 68.0420356,46.7875 68.0420356,46.6935 L68.0420356,46.6935 Z" id="Fill-3" fill="#FFFFFF"></path>
    </g>
</svg>