<?xml version="1.0" encoding="UTF-8"?>
<svg width="80px" height="80px" viewBox="0 0 80 80" version="1.1" xmlns="http://www.w3.org/2000/svg" xmlns:xlink="http://www.w3.org/1999/xlink">
    <title>Icon-Architecture/64/Arch_AWS-Parallel-Cluster_64</title>
    <g id="Icon-Architecture/64/Arch_AWS-Parallel-Cluster_64" stroke="none" stroke-width="1" fill="none" fill-rule="evenodd">
        <g id="Icon-Architecture-BG/64/Compute" fill="#ED7100">
            <rect id="Rectangle" x="0" y="0" width="80" height="80"></rect>
        </g>
        <g id="Icon-Service/64/AWS-ParallelClusters_64" transform="translate(12.000000, 16.000000)" fill="#FFFFFF">
            <path d="M36.7707956,46 L44.7707956,46 L44.7707956,38 L36.7707956,38 L36.7707956,46 Z M46.7707956,37 L46.7707956,47 C46.7707956,47.552 46.3227956,48 45.7707956,48 L35.7707956,48 C35.2177956,48 34.7707956,47.552 34.7707956,47 L34.7707956,37 C34.7707956,36.448 35.2177956,36 35.7707956,36 L45.7707956,36 C46.3227956,36 46.7707956,36.448 46.7707956,37 L46.7707956,37 Z M51.7707956,30 L41.7707956,30 C41.2177956,30 40.7707956,30.448 40.7707956,31 L40.7707956,34 C40.7707956,34.552 41.2177956,35 41.7707956,35 C42.3227956,35 42.7707956,34.552 42.7707956,34 L42.7707956,32 L50.7707956,32 L50.7707956,40 L49.7707956,40 C49.2177956,40 48.7707956,40.448 48.7707956,41 C48.7707956,41.552 49.2177956,42 49.7707956,42 L51.7707956,42 C52.3227956,42 52.7707956,41.552 52.7707956,41 L52.7707956,31 C52.7707956,30.448 52.3227956,30 51.7707956,30 L51.7707956,30 Z M10.7707956,10 L18.7707956,10 L18.7707956,2 L10.7707956,2 L10.7707956,10 Z M8.77079565,11 L8.77079565,1 C8.77079565,0.448 9.21779565,0 9.77079565,0 L19.7707956,0 C20.3227956,0 20.7707956,0.448 20.7707956,1 L20.7707956,11 C20.7707956,11.552 20.3227956,12 19.7707956,12 L9.77079565,12 C9.21779565,12 8.77079565,11.552 8.77079565,11 L8.77079565,11 Z M2.77079565,18 L12.7707956,18 C13.3227956,18 13.7707956,17.552 13.7707956,17 L13.7707956,15 C13.7707956,14.448 13.3227956,14 12.7707956,14 C12.2177956,14 11.7707956,14.448 11.7707956,15 L11.7707956,16 L3.77079565,16 L3.77079565,8 L5.77079565,8 C6.32279565,8 6.77079565,7.552 6.77079565,7 C6.77079565,6.448 6.32279565,6 5.77079565,6 L2.77079565,6 C2.21779565,6 1.77079565,6.448 1.77079565,7 L1.77079565,17 C1.77079565,17.552 2.21779565,18 2.77079565,18 L2.77079565,18 Z M55.0797956,28.135 C54.9287956,28.667 54.3687956,28.973 53.8457956,28.824 C53.3147956,28.674 53.0057956,28.121 53.1557956,27.589 C53.9717956,24.712 53.4427956,21.554 51.7757956,19.348 C50.2157956,17.285 47.8307956,16.194 44.8777956,16.194 C37.2627956,16.194 33.1047956,20.44 28.9877956,25.214 C31.5707956,28.166 34.2937956,31.068 37.6967956,32.702 C38.1947956,32.941 38.4047956,33.539 38.1657956,34.036 C37.9937956,34.395 37.6367956,34.604 37.2637956,34.604 C37.1187956,34.604 36.9717956,34.572 36.8317956,34.505 C33.1637956,32.744 30.3337956,29.778 27.6727956,26.748 C23.6587956,31.436 19.4207956,36.125 12.0747956,36.125 C8.00379565,36.125 4.52779565,34.472 2.28779565,31.471 C0.149795646,28.606 -0.543204354,24.927 0.435795646,21.628 C0.591795646,21.099 1.14879565,20.796 1.67879565,20.954 C2.20779565,21.11 2.51079565,21.667 2.35379565,22.196 C1.56579565,24.853 2.15379565,27.949 3.89079565,30.274 C5.74379565,32.757 8.65079565,34.125 12.0747956,34.125 C18.6277956,34.125 22.4027956,29.833 26.3437956,25.225 C23.3687956,21.8 20.5267956,18.6 16.7747956,17.09 C16.2617956,16.884 16.0137956,16.301 16.2197956,15.789 C16.4267956,15.276 17.0137956,15.028 17.5207956,15.234 C21.6197956,16.884 24.7087956,20.298 27.6607956,23.692 C31.8767956,18.824 36.5147956,14.194 44.8777956,14.194 C48.4307956,14.194 51.4467956,15.596 53.3707956,18.142 C55.4087956,20.837 56.0637956,24.667 55.0797956,28.135 L55.0797956,28.135 Z" id="AWS-ParallelCluster_Icon_64_Squid"></path>
        </g>
    </g>
</svg>