<?xml version="1.0" encoding="UTF-8"?>
<svg width="24px" height="24px" viewBox="0 0 24 24" version="1.1" xmlns="http://www.w3.org/2000/svg" xmlns:xlink="http://www.w3.org/1999/xlink">
    <title>Icon-Architecture/16/Arch_Amazon-GameLift_16</title>
    <g id="Icon-Architecture/16/Arch_Amazon-GameLift_16" stroke="none" stroke-width="1" fill="none" fill-rule="evenodd">
        <g id="Icon-Architecture-BG/16/Game-Tech" fill="#8C4FFF">
            <rect id="Rectangle" x="0" y="0" width="24" height="24"></rect>
        </g>
        <g id="Icon-Service/16/Amazon-GameLift_16" transform="translate(4.000000, 4.000000)" fill="#FFFFFF">
            <path d="M10.502,12.001 L12.502,12.001 C12.689,12.001 12.86,12.105 12.946,12.272 C13.087,12.544 13.188,12.892 13.293,13.259 C13.587,14.279 13.846,15.001 14.502,15.001 C14.735,15.001 15.002,14.735 15.002,14.501 L15.002,10.993 C15.002,10.51 14.683,10.092 14.26,10.022 C13.766,9.94 13.356,10.109 13.155,10.279 C13.05,10.368 13.002,10.457 13.002,10.501 C13.002,10.777 12.778,11.001 12.502,11.001 L10.502,11.001 C10.226,11.001 10.002,10.777 10.002,10.501 C10.002,10.4 9.94,10.298 9.826,10.213 C9.644,10.076 9.351,10.001 9.001,10.001 L8.998,10.001 C8.449,10.001 8.002,10.45 8.002,11.001 L8.002,14.501 C8.002,14.735 8.269,15.001 8.502,15.001 C9.158,15.001 9.417,14.279 9.711,13.259 C9.816,12.892 9.917,12.544 10.058,12.272 C10.144,12.105 10.315,12.001 10.502,12.001 L10.502,12.001 Z M14.502,16.001 C13.043,16.001 12.615,14.518 12.332,13.536 C12.277,13.344 12.224,13.159 12.169,13.001 L10.835,13.001 C10.78,13.159 10.727,13.344 10.672,13.536 C10.389,14.518 9.961,16.001 8.502,16.001 C7.717,16.001 7.002,15.286 7.002,14.501 L7.002,11.001 C7.002,9.899 7.898,9.002 8.997,9.001 L9.001,9.001 C9.573,9.001 10.065,9.143 10.426,9.413 C10.641,9.573 10.802,9.776 10.898,10.001 L12.121,10.001 C12.207,9.826 12.338,9.661 12.508,9.516 C12.993,9.105 13.725,8.919 14.424,9.036 C15.323,9.185 16.002,10.026 16.002,10.993 L16.002,14.501 C16.002,15.286 15.287,16.001 14.502,16.001 L14.502,16.001 Z M2.859,12.043 C3.326,11.817 3.857,11.631 4.43,11.484 C4.649,12.337 4.945,13.053 5.308,13.612 C4.375,13.276 3.539,12.738 2.859,12.043 L2.859,12.043 Z M1.025,8 L3.994,8 C4.015,8.908 4.091,9.749 4.22,10.507 C3.476,10.695 2.797,10.948 2.206,11.258 C1.541,10.324 1.118,9.209 1.025,8 L1.025,8 Z M2.205,3.743 C2.796,4.054 3.476,4.307 4.22,4.495 C4.091,5.252 4.015,6.092 3.994,7 L1.025,7 C1.118,5.792 1.54,4.678 2.205,3.743 L2.205,3.743 Z M5.308,1.388 C4.945,1.948 4.649,2.664 4.429,3.517 C3.857,3.37 3.328,3.182 2.86,2.956 C3.54,2.262 4.376,1.724 5.308,1.388 L5.308,1.388 Z M7.501,1 C8.408,1 9.145,2.03 9.574,3.724 C8.914,3.83 8.218,3.889 7.501,3.889 C6.779,3.889 6.078,3.829 5.415,3.722 C5.856,2.042 6.602,1 7.501,1 L7.501,1 Z M12.143,2.957 C11.668,3.187 11.128,3.376 10.545,3.524 C10.327,2.663 10.03,1.941 9.667,1.378 C10.611,1.713 11.456,2.256 12.143,2.957 L12.143,2.957 Z M13.977,7 L10.975,7 C10.954,6.095 10.88,5.257 10.752,4.502 C11.508,4.313 12.197,4.056 12.796,3.742 C13.461,4.677 13.884,5.792 13.977,7 L13.977,7 Z M4.993,7 C5.015,6.17 5.088,5.397 5.207,4.7 C5.939,4.822 6.71,4.889 7.501,4.889 C8.283,4.889 9.047,4.823 9.773,4.703 C9.887,5.397 9.956,6.167 9.976,7 L4.993,7 Z M14.977,8.001 C14.988,7.835 15.002,7.669 15.002,7.5 C15.002,3.364 11.637,0 7.501,0 C3.365,0 0,3.364 0,7.5 C0,11.123 2.582,14.153 6.002,14.85 L6.002,12.819 C5.772,12.399 5.573,11.881 5.415,11.278 C5.606,11.247 5.805,11.23 6.002,11.207 L6.002,10.201 C5.735,10.23 5.466,10.257 5.207,10.3 C5.088,9.603 5.015,8.831 4.993,8 L14.977,8.001 Z" id="Fill-1"></path>
        </g>
    </g>
</svg>