<?xml version="1.0" encoding="UTF-8"?>
<svg width="24px" height="24px" viewBox="0 0 24 24" version="1.1" xmlns="http://www.w3.org/2000/svg" xmlns:xlink="http://www.w3.org/1999/xlink">
    <title>Icon-Architecture/16/Arch_Open-3D-Engine_16</title>
    <g id="Icon-Architecture/16/Arch_Open-3D-Engine_16" stroke="none" stroke-width="1" fill="none" fill-rule="evenodd">
        <g id="Icon-Architecture-BG/16/Game-Tech" fill="#8C4FFF">
            <rect id="Rectangle" x="0" y="0" width="24" height="24"></rect>
        </g>
        <g id="Icon-Service/16/Open-3D-Engine_16" transform="translate(4.000000, 4.000000)" fill="#FFFFFF">
            <path d="M4.61,8.259 C4.61,9.501 5.289,10.642 6.381,11.238 L5.902,12.115 C4.488,11.345 3.61,9.867 3.61,8.259 C3.61,5.839 5.579,3.87 8,3.87 C10.42,3.87 12.388,5.839 12.388,8.259 L11.388,8.259 C11.388,6.39 9.868,4.87 8,4.87 C6.131,4.87 4.61,6.39 4.61,8.259 L4.61,8.259 Z M5.192,12.837 C5.624,13.089 6.086,13.28 6.565,13.407 L6.309,14.374 C5.868,14.258 5.439,14.094 5.03,13.887 L4.376,14.541 C4.217,14.699 4.009,14.779 3.8,14.779 C3.592,14.779 3.384,14.699 3.226,14.541 L1.459,12.773 C1.142,12.456 1.142,11.941 1.459,11.624 L2.113,10.97 C1.964,10.676 1.839,10.373 1.736,10.063 L0.812,10.063 C0.364,10.063 0,9.698 0,9.25 L0,6.75 C0,6.302 0.364,5.938 0.812,5.938 L1.736,5.938 C1.839,5.627 1.964,5.324 2.113,5.03 L1.459,4.376 C1.142,4.059 1.142,3.544 1.459,3.227 L3.226,1.46 C3.543,1.141 4.059,1.143 4.376,1.46 L5.03,2.113 C5.323,1.965 5.627,1.839 5.937,1.737 L5.937,0.813 C5.937,0.364 6.301,0 6.75,0 L9.25,0 C9.698,0 10.062,0.364 10.062,0.813 L10.062,1.737 C10.373,1.839 10.676,1.965 10.969,2.113 L11.624,1.46 C11.94,1.143 12.456,1.143 12.772,1.46 L14.54,3.227 C14.856,3.544 14.856,4.059 14.54,4.376 L13.886,5.03 C14.035,5.323 14.161,5.627 14.263,5.938 L15.187,5.938 C15.635,5.938 16,6.302 16,6.75 L16,8.851 L15,8.851 L15,6.938 L13.89,6.938 C13.664,6.938 13.464,6.785 13.407,6.566 C13.28,6.086 13.088,5.624 12.837,5.193 C12.722,4.996 12.755,4.748 12.915,4.587 L13.7,3.801 L12.198,2.3 L11.413,3.085 C11.252,3.245 11.005,3.277 10.807,3.163 C10.376,2.912 9.914,2.72 9.434,2.593 C9.214,2.535 9.062,2.337 9.062,2.11 L9.062,1 L6.937,1 L6.937,2.11 C6.937,2.337 6.785,2.535 6.565,2.593 C6.086,2.72 5.624,2.912 5.192,3.163 C4.993,3.277 4.747,3.244 4.587,3.085 L3.801,2.299 L2.298,3.801 L3.084,4.587 C3.244,4.747 3.276,4.996 3.163,5.192 C2.911,5.625 2.719,6.087 2.592,6.566 C2.535,6.785 2.336,6.938 2.109,6.938 L1,6.938 L1,9.063 L2.109,9.063 C2.336,9.063 2.535,9.216 2.592,9.435 C2.719,9.913 2.911,10.376 3.163,10.809 C3.276,11.005 3.244,11.253 3.084,11.413 L2.298,12.199 L3.801,13.701 L4.587,12.916 C4.748,12.755 4.994,12.723 5.192,12.837 L5.192,12.837 Z M14.958,14.5 C14.958,14.734 14.691,15 14.458,15 C13.801,15 13.543,14.279 13.249,13.259 C13.137,12.869 13.03,12.502 12.876,12.222 C12.795,12.075 12.626,12 12.458,12 L10.458,12 C10.29,12 10.122,12.074 10.04,12.221 C9.885,12.5 9.78,12.867 9.668,13.257 C9.374,14.278 9.115,15 8.458,15 C8.224,15 7.958,14.734 7.958,14.5 L7.958,11 C7.958,10.461 8.392,10.006 8.932,10 C9.598,9.993 9.958,10.255 9.958,10.5 C9.958,10.777 10.181,11 10.458,11 L12.458,11 C12.734,11 12.958,10.777 12.958,10.5 C12.958,10.352 13.345,10 13.958,10 C14.509,10 14.958,10.449 14.958,11 L14.958,14.5 Z M15.958,11.252 C15.958,10.091 15.463,9.333 14.689,9.106 C13.562,8.775 12.437,9.263 12.077,10 L10.852,10 C10.592,9.402 9.853,8.92 8.674,9.012 C7.706,9.087 6.958,9.907 6.958,10.878 L6.958,14.597 C6.958,15.265 7.428,15.87 8.088,15.971 C9.85,16.24 10.323,14.594 10.629,13.534 C10.683,13.342 10.737,13.157 10.791,13 L12.125,13 C12.179,13.158 12.233,13.343 12.288,13.535 C12.594,14.595 13.068,16.241 14.828,15.971 C15.488,15.87 15.958,15.27 15.958,14.603 L15.958,11.252 Z" id="Fill-6"></path>
        </g>
    </g>
</svg>