<svg width="80" height="80" viewBox="0 0 80 80" fill="none" xmlns="http://www.w3.org/2000/svg">
<rect width="80" height="80" fill="#01A88D"/>
<path d="M30 42V24.4393L26.7041 27.71L25.2959 26.29L30.335 21.29C30.5225 21.1045 30.7754 21 31.0391 21H31.043C31.3086 21.001 31.5625 21.1074 31.749 21.2959L36.71 26.2959L35.29 27.7041L32 24.3884V42H30ZM46 34V28.3884L49.29 31.7041L50.71 30.2959L45.749 25.2959C45.5625 25.1074 45.3086 25.001 45.043 25H45.0391C44.7754 25 44.5225 25.1045 44.335 25.29L39.2959 30.29L40.7041 31.71L44 28.4393V34H46ZM43 44H27C26.4473 44 26 44.4477 26 45V61C26 61.5523 26.4473 62 27 62H34V60H28V46H42V60H40V62H43C43.5527 62 44 61.5523 44 61V45C44 44.4477 43.5527 44 43 44ZM53 36H37C36.4473 36 36 36.4477 36 37V42H38V38H52V52H46V54H53C53.5527 54 54 53.5523 54 53V37C54 36.4477 53.5527 36 53 36ZM30 68H32V64H30V68ZM42 68H44V64H42V68ZM36 66H38V56H36V66ZM48 66H50V56H48V66ZM58.8984 28.1758C58.9658 27.7866 59 27.394 59 27C59 23.1401 55.8594 20 52 20C51.0225 20 50.0635 20.2041 49.1777 20.5962C46.4316 15.3403 40.9795 12 35 12C26.1777 12 19 19.1777 19 28C19 28.2432 19.0059 28.4898 19.0186 28.7437C14.7891 30.376 12 34.4019 12 39C12 45.0654 16.9346 50 23 50H24V48H23C18.0371 48 14 43.9624 14 39C14 35.0166 16.5576 31.5581 20.3643 30.3936C20.8184 30.2549 21.1123 29.8159 21.0674 29.3433C21.0225 28.8623 21 28.4229 21 28C21 20.2803 27.2803 14 35 14C40.5479 14 45.5781 17.2876 47.8154 22.3755C47.9336 22.6445 48.1631 22.8477 48.4453 22.9316C48.7256 23.0146 49.0293 22.9712 49.2764 22.811C50.0908 22.2803 51.0322 22 52 22C54.7568 22 57 24.2432 57 27C57 27.5698 56.8984 28.1396 56.6992 28.6929C56.5918 28.9888 56.6308 29.3174 56.8037 29.5806C56.9756 29.8437 57.2627 30.0102 57.5762 30.0303C62.2998 30.3296 66 34.2695 66 39C66 43.9624 61.9629 48 57 48H56V50H57C63.0654 50 68 45.0654 68 39C68 33.6226 64.0898 29.0806 58.8984 28.1758Z" fill="white"/>
</svg>
