<?xml version="1.0" encoding="UTF-8"?>
<svg width="80px" height="80px" viewBox="0 0 80 80" version="1.1" xmlns="http://www.w3.org/2000/svg" xmlns:xlink="http://www.w3.org/1999/xlink">
    <title>Icon-Architecture/64/Arch_AWS-Migration-Evaluator_64</title>
    <g id="Icon-Architecture/64/Arch_AWS-Migration-Evaluator_64" stroke="none" stroke-width="1" fill="none" fill-rule="evenodd">
        <g id="Icon-Architecture-BG/64/Migration-Transfer" fill="#01A88D">
            <rect id="Rectangle" x="0" y="0" width="80" height="80"></rect>
        </g>
        <g id="Icon-Service/64/AWS-Migration-Evaluator_64" transform="translate(13.000000, 13.000000)" fill="#FFFFFF">
            <path d="M27.359,30.859 C25.429,30.859 23.859,29.289 23.859,27.359 C23.859,25.429 25.429,23.859 27.359,23.859 C29.289,23.859 30.859,25.429 30.859,27.359 C30.859,29.289 29.289,30.859 27.359,30.859 L27.359,30.859 Z M27.359,21.859 C24.327,21.859 21.859,24.326 21.859,27.359 C21.859,30.392 24.327,32.859 27.359,32.859 C30.391,32.859 32.859,30.392 32.859,27.359 C32.859,24.326 30.391,21.859 27.359,21.859 L27.359,21.859 Z M35.428,33.956 C35.202,34.056 35.021,34.237 34.921,34.463 L27.457,51.256 L20.041,34.571 C19.94,34.345 19.759,34.164 19.533,34.064 L3.462,26.921 L20.019,19.561 C20.246,19.461 20.426,19.28 20.527,19.054 L27.457,3.462 L34.435,19.162 C34.536,19.388 34.716,19.569 34.943,19.67 L51.256,26.921 L35.428,33.956 Z M44.446,44.378 L34.418,40.52 L36.592,35.627 L40.425,33.923 L44.446,44.378 Z M10.272,44.136 L14.213,33.888 L18.369,35.735 L20.376,40.251 L10.272,44.136 Z M10.651,10.582 L20.431,14.343 L18.855,17.89 L14.249,19.937 L10.651,10.582 Z M44.067,10.341 L40.39,19.902 L36.107,17.998 L34.363,14.073 L44.067,10.341 Z M54.125,26.007 L42.22,20.715 L46.742,8.959 C46.883,8.59 46.795,8.172 46.515,7.893 C46.235,7.613 45.82,7.526 45.449,7.666 L33.548,12.243 L28.371,0.593 C28.21,0.233 27.852,0 27.457,0 C27.061,0 26.704,0.233 26.543,0.593 L21.245,12.513 L9.269,7.907 C8.9,7.768 8.483,7.854 8.203,8.133 C7.923,8.413 7.835,8.831 7.976,9.199 L12.419,20.751 L0.593,26.007 C0.232,26.167 0,26.526 0,26.921 C0,27.316 0.232,27.674 0.593,27.834 L12.383,33.075 L7.597,45.519 C7.456,45.887 7.545,46.305 7.824,46.585 C8.015,46.776 8.27,46.878 8.531,46.878 C8.652,46.878 8.773,46.856 8.89,46.811 L21.189,42.08 L26.543,54.125 C26.704,54.485 27.061,54.718 27.457,54.718 C27.852,54.718 28.21,54.485 28.371,54.125 L33.604,42.351 L45.828,47.052 C45.945,47.096 46.066,47.118 46.187,47.118 C46.448,47.118 46.703,47.016 46.894,46.825 C47.173,46.546 47.262,46.128 47.121,45.759 L42.255,33.11 L54.125,27.834 C54.486,27.674 54.718,27.316 54.718,26.921 C54.718,26.526 54.486,26.167 54.125,26.007 L54.125,26.007 Z" id="AWS-Migration-Evaluator_Icon_64_Squid"></path>
        </g>
    </g>
</svg>