<svg width="80" height="80" viewBox="0 0 80 80" fill="none" xmlns="http://www.w3.org/2000/svg">
<g clip-path="url(#clip0_536_4453)">
<rect width="80" height="80" fill="#01A88D"/>
<path d="M37 29.8627V23.4141L34.707 25.707L33.293 24.293L37.293 20.293C37.6836 19.9023 38.3164 19.9023 38.707 20.293L42.707 24.293L41.293 25.707L39 23.4141V29.3166C38.3213 29.4555 37.6519 29.6323 37 29.8627ZM42 31C40.9661 31 39.9648 31.1342 39 31.3634V31.3623C38.9841 31.3661 38.9688 31.3717 38.9529 31.3755C35.6145 32.1818 32.7803 34.2743 31 37.1036V28.414L33.293 30.707L34.707 29.293L30.707 25.293C30.3164 24.9023 29.6836 24.9023 29.293 25.293L25.293 29.293L26.707 30.707L29 28.414V44C29 44.3228 29.0238 44.6586 29.0583 45H31.0752C31.0356 44.6581 31 44.3183 31 44C31 37.9346 35.9346 33 42 33C48.0654 33 53 37.9346 53 44C53 50.4018 44.6309 61.9082 42 65.3662C40.1804 62.9745 35.6282 56.7383 32.9897 51H30.8081C34.1125 58.6824 40.843 67.155 41.2188 67.6245C41.4092 67.8618 41.6963 68 42 68C42.3037 68 42.5908 67.8618 42.7812 67.6245C43.2803 67.001 55 52.2558 55 44C55 36.8315 49.168 31 42 31ZM58.9971 27.1851C58.999 27.1231 59 27.0615 59 27C59 23.1401 55.8594 20 52 20C50.5059 20 49.0693 20.477 47.8828 21.3418C45.6074 15.7715 40.1055 12 34 12C25.7285 12 19 18.729 19 27C19 27.2461 19.0059 27.4951 19.0186 27.7441C14.7891 29.3765 12 33.4023 12 38C12 44.0654 16.9346 49 23 49H42C44.7568 49 47 46.7568 47 44C47 41.2432 44.7568 39 42 39C39.2432 39 37 41.2432 37 44C37 44.3424 37.0352 44.6768 37.1011 45H39.1843C39.0723 44.6857 39 44.3524 39 44C39 42.3457 40.3457 41 42 41C43.6543 41 45 42.3457 45 44C45 45.6543 43.6543 47 42 47H23C18.0371 47 14 42.9624 14 38C14 34.0166 16.5586 30.5581 20.3652 29.394C20.8222 29.2544 21.1162 28.8115 21.0683 28.3369C21.0224 27.8901 21 27.4404 21 27C21 19.8315 26.832 14 34 14C39.75 14 44.8808 17.8589 46.4785 23.3843C46.581 23.7373 46.8691 24.0064 47.2285 24.084C47.5889 24.1626 47.9609 24.0356 48.1992 23.7563C49.1533 22.6401 50.539 22 52 22C54.7568 22 57 24.2432 57 27C57 27.2739 56.9736 27.5591 56.918 27.8726C56.8701 28.1484 56.9394 28.4316 57.1094 28.6538C57.2803 28.876 57.5351 29.0166 57.8144 29.0415C62.4805 29.46 66 33.311 66 38C66 42.9624 61.9629 47 57 47H56.6066C56.4535 47.6495 56.2598 48.3173 56.0293 49H57C63.0654 49 68 44.0654 68 38C68 32.6104 64.1953 28.126 58.9971 27.1851Z" fill="white"/>
</g>
<defs>
<clipPath id="clip0_536_4453">
<rect width="80" height="80" fill="white"/>
</clipPath>
</defs>
</svg>
