<?xml version="1.0" encoding="UTF-8"?>
<svg width="80px" height="80px" viewBox="0 0 80 80" version="1.1" xmlns="http://www.w3.org/2000/svg" xmlns:xlink="http://www.w3.org/1999/xlink">
    <title>Icon-Architecture/64/Arch_AWS-Mainframe-Modernization_64</title>
    <g id="Icon-Architecture/64/Arch_AWS-Mainframe-Modernization_64" stroke="none" stroke-width="1" fill="none" fill-rule="evenodd">
        <g id="Icon-Architecture-BG/64/Migration-Transfer" fill="#01A88D">
            <rect id="Rectangle" x="0" y="0" width="80" height="80"></rect>
        </g>
        <g id="Icon-Service/64/AWS-Mainframe-Modernization_64" transform="translate(12.000000, 12.050000)" fill="#FFFFFF">
            <path d="M55.813,25.302 C55.813,25.629 55.799,25.954 55.772,26.274 C55.294,31.922 50.293,36.345 44.386,36.345 L44.386,34.345 C49.263,34.345 53.389,30.726 53.78,26.107 C53.801,25.843 53.813,25.573 53.813,25.302 C53.813,20.429 50.511,16.755 46.133,16.755 C45.581,16.755 45.133,16.307 45.133,15.755 C45.133,12.462 43.344,8.943 38.322,8.943 L37.455,8.943 C37.091,8.943 36.756,8.746 36.58,8.428 C34.349,4.403 30.134,2 25.303,2 C18.197,2 12.416,7.781 12.416,14.886 C12.416,15.439 11.968,15.886 11.416,15.886 C6.224,15.886 2,20.11 2,25.302 C2,34.117 10.145,34.372 11.074,34.372 L11.074,36.372 C3.424,36.372 0,30.812 0,25.302 C0,19.334 4.604,14.421 10.446,13.927 C10.942,6.164 17.417,0 25.303,0 C30.664,0 35.376,2.584 38.03,6.943 L38.322,6.943 C43.35,6.943 46.707,9.994 47.095,14.802 C52.128,15.295 55.813,19.644 55.813,25.302 L55.813,25.302 Z M41.187,45.47 L45.412,48.769 L36.228,55.943 L19.733,55.943 L10.55,48.769 L14.773,45.47 L16.003,47.047 L13.798,48.769 L20.422,53.943 L35.539,53.943 L42.162,48.769 L39.957,47.047 L41.187,45.47 Z M41.187,36.47 L45.412,39.769 L36.228,46.943 L19.733,46.943 L10.55,39.769 L14.773,36.47 L16.003,38.047 L13.798,39.769 L20.422,44.943 L35.539,44.943 L42.162,39.769 L39.957,38.047 L41.187,36.47 Z M20.004,23.943 L35.957,23.943 L42.998,29.443 L35.957,34.943 L20.004,34.943 L12.963,29.443 L20.004,23.943 Z M36.646,36.943 L46.246,29.443 L36.646,21.943 L19.315,21.943 L9.715,29.443 L19.315,36.943 L36.646,36.943 Z" id="Fill-1"></path>
        </g>
    </g>
</svg>