<?xml version="1.0" encoding="UTF-8"?>
<svg width="64px" height="64px" viewBox="0 0 64 64" version="1.1" xmlns="http://www.w3.org/2000/svg" xmlns:xlink="http://www.w3.org/1999/xlink">
    <title>Icon-Architecture/48/Arch_Amazon-FSx-for-NetApp-ONTAP_48</title>
    <g id="Icon-Architecture/48/Arch_Amazon-FSx-for-NetApp-ONTAP_48" stroke="none" stroke-width="1" fill="none" fill-rule="evenodd">
        <g id="Icon-Architecture-BG/48/Storage" fill="#7AA116">
            <rect id="Rectangle" x="0" y="0" width="64" height="64"></rect>
        </g>
        <g id="Icon-Service/48/Amazon-FSx-for-NetApp-ONTAP_48" transform="translate(10.000000, 23.000000)" fill="#FFFFFF">
            <path d="M37.292,25.325 C37.713,25.197 38,24.808 38,24.368 L38,15.845 L36,15.845 L36,21.091 L32.83,16.379 C32.584,16.014 32.129,15.852 31.708,15.98 C31.287,16.109 31,16.497 31,16.937 L31,24.845 L33,24.845 L33,20.215 L36.17,24.927 C36.359,25.208 36.674,25.368 37,25.368 C37.097,25.368 37.195,25.354 37.292,25.325 L37.292,25.325 Z M23.127,9.95 L23.901,11.043 L21.035,15.229 L19.317,15.229 L23.127,9.95 Z M25.563,8.822 L26.919,10.752 C26.657,11.298 26.454,11.87 26.327,12.467 L23.861,8.933 L24.728,7.732 L27.97,3.104 L29.664,3.104 L25.563,8.822 Z M23.106,7.907 L19.698,3.104 L21.486,3.104 L24.009,6.705 L23.106,7.907 Z M17.903,9.1 C18.372,9.676 18.607,10.398 18.607,11.266 C18.607,12.532 18.141,13.556 17.209,14.339 C16.277,15.121 15.05,15.512 13.528,15.512 C11.949,15.512 10.541,15.213 9.303,14.616 L9.303,13.528 C10.797,14.068 12.17,14.339 13.422,14.339 C14.602,14.339 15.545,14.061 16.249,13.506 C16.953,12.952 17.305,12.198 17.305,11.245 C17.305,10.661 17.113,10.164 16.729,9.751 C16.345,9.339 15.726,8.969 14.873,8.641 L12.397,7.681 C11.302,7.255 10.499,6.746 9.986,6.156 C9.474,5.565 9.218,4.836 9.218,3.968 C9.218,2.788 9.641,1.831 10.488,1.099 C11.334,0.366 12.447,3.55271368e-15 13.827,3.55271368e-15 C14.453,3.55271368e-15 15.111,0.074 15.801,0.224 C16.491,0.373 17.141,0.583 17.753,0.853 L17.753,1.941 C16.302,1.429 15.015,1.173 13.891,1.173 C12.796,1.173 11.956,1.412 11.373,1.888 C10.79,2.365 10.499,3.044 10.499,3.926 C10.499,4.424 10.587,4.826 10.765,5.131 C10.943,5.437 11.235,5.715 11.64,5.964 C12.045,6.213 12.625,6.479 13.379,6.764 L15.662,7.639 C16.686,8.037 17.433,8.524 17.903,9.1 L17.903,9.1 Z M0,15.149 L1.259,15.149 L1.259,8.279 L7.212,8.279 L7.212,7.148 L1.259,7.148 L1.259,1.493 L8.3,1.493 L8.3,0.362 L0,0.362 L0,15.149 Z M40.266,21.352 L40.104,19.359 C40.404,19.329 41.945,19.089 41.945,17.349 C41.945,15.869 40.782,15.449 40.089,15.329 C39.827,15.284 39.594,15.136 39.44,14.919 C39.312,14.736 39.249,14.515 39.26,14.294 C39.2,13.685 38.949,13.261 38.581,13.154 C38.302,13.071 38.009,13.186 37.814,13.449 C37.596,13.745 37.232,13.901 36.862,13.843 C36.497,13.788 36.19,13.536 36.067,13.187 C35.851,12.571 35.54,12.058 35.145,11.66 C34.668,11.183 33.364,10.154 31.521,10.936 C30.488,11.373 29.647,12.692 29.647,13.875 C29.647,14.012 29.655,14.147 29.672,14.279 C29.731,14.777 29.412,15.242 28.926,15.367 C27.918,15.624 27.406,16.283 27.406,17.324 C27.406,17.416 27.409,17.504 27.418,17.589 C27.51,18.572 28.408,19.343 29.462,19.344 L29.46,21.344 C27.386,21.342 25.613,19.774 25.426,17.776 C25.413,17.631 25.406,17.48 25.406,17.324 C25.406,15.655 26.23,14.349 27.65,13.701 C27.726,11.777 29.029,9.819 30.742,9.094 C32.797,8.223 34.973,8.656 36.561,10.249 C36.877,10.566 37.156,10.926 37.396,11.325 C37.94,11.1 38.55,11.06 39.143,11.234 C39.955,11.471 40.849,12.198 41.16,13.541 C42.611,14.021 43.945,15.21 43.945,17.349 C43.945,20.279 41.538,21.248 40.266,21.352 L40.266,21.352 Z" id="Fill-3"></path>
        </g>
    </g>
</svg>