<?xml version="1.0" encoding="UTF-8"?>
<svg width="64px" height="64px" viewBox="0 0 64 64" version="1.1" xmlns="http://www.w3.org/2000/svg" xmlns:xlink="http://www.w3.org/1999/xlink">
    <title>Icon-Architecture/48/Arch_Amazon-EFS_48</title>
    <g id="Icon-Architecture/48/Arch_Amazon-EFS_48" stroke="none" stroke-width="1" fill="none" fill-rule="evenodd">
        <g id="Icon-Architecture-BG/48/Storage" fill="#7AA116">
            <rect id="Rectangle" x="0" y="0" width="64" height="64"></rect>
        </g>
        <g id="Icon-Service/48/Amazon-EFS_48" transform="translate(9.853500, 10.000000)" fill="#FFFFFF">
            <path d="M43.002652,3.55271368e-15 L36.0212163,3.55271368e-15 L36.0212163,2 L40.4783643,2 L35.1994016,7.293 L36.6096516,8.707 L42.0053041,3.297 L42.0053041,8 L44,8 L44,1 C44,0.448 43.5541855,3.55271368e-15 43.002652,3.55271368e-15 L43.002652,3.55271368e-15 Z M1.99469592,3.297 L7.39034839,8.707 L8.80059841,7.293 L3.52163565,2 L7.97878369,2 L7.97878369,3.55271368e-15 L0.997347961,3.55271368e-15 C0.445814539,3.55271368e-15 0,0.448 0,1 L0,8 L1.99469592,8 L1.99469592,3.297 Z M42.0053041,40.703 L36.6096516,35.293 L35.1994016,36.707 L40.4783643,42 L36.0212163,42 L36.0212163,44 L43.002652,44 C43.5541855,44 44,43.552 44,43 L44,36 L42.0053041,36 L42.0053041,40.703 Z M10.9887798,16.465 C10.9887798,13.52 13.0413219,10.35 15.6593603,9.249 C20.2062697,7.344 23.4277036,9.85 24.6005848,11.017 C25.5590362,11.971 26.3090419,13.193 26.8276628,14.649 C26.951334,14.995 27.2545277,15.246 27.616565,15.301 C27.980597,15.353 28.3426344,15.207 28.5630483,14.913 C29.1056055,14.19 29.8945078,13.776 30.729288,13.776 C31.9859465,13.776 33.5098941,14.753 33.6724619,17.507 C33.6983929,17.958 34.0215336,18.334 34.4623614,18.427 C37.7216946,19.114 39.3743002,20.917 39.3743002,23.786 C39.3743002,24.5 39.2885282,25.148 39.1189791,25.712 L41.0298978,26.288 C41.2552984,25.537 41.3689961,24.695 41.3689961,23.786 C41.3689961,20.175 39.3244328,17.66 35.5873699,16.642 C35.1046535,13.305 32.798785,11.776 30.729288,11.776 C29.7917809,11.776 28.8931704,12.064 28.1252125,12.594 C27.5637056,11.445 26.8535939,10.441 26.0058481,9.597 C22.9689235,6.578 18.8139719,5.758 14.8894077,7.404 C11.5283451,8.817 8.99408391,12.712 8.99408391,16.465 C8.99408391,16.589 8.99707596,16.716 9.00306004,16.846 C5.99904799,17.91 4.23473944,20.434 4.23473944,23.743 C4.23473944,23.912 4.24271823,24.081 4.25169436,24.243 C4.41226738,27.164 6.35510121,29.688 9.20153229,30.674 L9.85280051,28.784 C7.77632205,28.064 6.3590906,26.239 6.24240089,24.134 C6.23541945,24.008 6.22943537,23.875 6.22943537,23.743 C6.22943537,20.101 8.7816488,18.92 10.3045991,18.541 C10.7923023,18.419 11.1134483,17.952 11.0546048,17.451 C11.0157082,17.131 10.9887798,16.798 10.9887798,16.465 L10.9887798,16.465 Z M30.975633,24.6 C30.975633,24.288 30.906816,24.112 30.8469751,24.057 C30.7961103,24.009 30.6684498,23.986 30.5088741,23.998 L20.4655802,24 C19.9160414,24 19.4682322,23.552 19.4682322,23 C19.4682322,22.824 19.4113834,22.356 19.3405717,22 L17.0546501,22 C16.9599021,22.349 16.8661514,22.831 16.8591699,23.009 C16.8382256,23.546 16.3973978,24 15.861822,24 L13.5599429,24 C13.3275608,23.987 13.2038897,24.008 13.1520276,24.057 C13.093184,24.112 13.0233697,24.288 13.0233697,24.6 L13.0233697,35 L30.975633,35 L30.975633,24.6 Z M32.9703289,27 L32.9703289,31.764 L35.3460117,27 L32.9703289,27 Z M32.8656074,36.447 L32.8566312,36.443 C32.6920688,36.77 32.3639413,37 31.9729809,37 L12.0260217,37 C11.4754856,37 11.0286738,36.552 11.0286738,36 L11.0286738,24.6 C11.0286738,23.532 11.4435705,22.92 11.7916449,22.595 C12.1187751,22.29 12.6962395,21.939 13.6297572,22.002 L14.9811637,22.001 C15.1477208,21.128 15.543668,20 16.4821724,20 L19.9738876,20 C20.0387152,20 20.1015482,20.006 20.1643811,20.019 C20.9622594,20.174 21.2714373,21.183 21.3901217,22 L30.4390598,22 C31.3087472,21.934 31.8822223,22.289 32.2083551,22.595 C32.5554321,22.92 32.9703289,23.532 32.9703289,24.6 L32.9703289,25 L36.9597207,25 C37.3058005,25 37.6259492,25.18 37.8084639,25.474 C37.9909785,25.769 38.0069361,26.137 37.8523472,26.447 L32.8656074,36.447 Z M8.80059841,36.707 L3.52163565,42 L7.97878369,42 L7.97878369,44 L0.997347961,44 C0.445814539,44 0,43.552 0,43 L0,36 L1.99469592,36 L1.99469592,40.703 L7.39034839,35.293 L8.80059841,36.707 Z" id="Amazon-EFS_Icon_48_Squid"></path>
        </g>
    </g>
</svg>