<?xml version="1.0" encoding="UTF-8"?>
<svg width="64px" height="64px" viewBox="0 0 64 64" version="1.1" xmlns="http://www.w3.org/2000/svg" xmlns:xlink="http://www.w3.org/1999/xlink">
    <title>Icon-Architecture/48/Arch_Amazon-FSx-for-WFS_48</title>
    <g id="Icon-Architecture/48/Arch_Amazon-FSx-for-WFS_48" stroke="none" stroke-width="1" fill="none" fill-rule="evenodd">
        <g id="Icon-Architecture-BG/48/Storage" fill="#7AA116">
            <rect id="Rectangle" x="0" y="0" width="64" height="64"></rect>
        </g>
        <g id="Icon-Service/48/Amazon-FSx-for-WFS_48" transform="translate(9.853500, 23.000000)" fill="#FFFFFF">
            <path d="M0,0.429 L9.458,0.429 L9.458,1.765 L1.435,1.765 L1.435,8.447 L8.218,8.447 L8.218,9.783 L1.435,9.783 L1.435,17.902 L0,17.902 L0,0.429 Z M20.399,10.754 C20.935,11.435 21.202,12.288 21.202,13.313 C21.202,14.81 20.671,16.02 19.609,16.944 C18.548,17.869 17.149,18.331 15.415,18.331 C13.616,18.331 12.012,17.978 10.602,17.272 L10.602,15.986 C12.303,16.625 13.867,16.944 15.294,16.944 C16.639,16.944 17.713,16.616 18.516,15.961 C19.317,15.305 19.719,14.414 19.719,13.288 C19.719,12.599 19.5,12.011 19.062,11.523 C18.625,11.036 17.92,10.599 16.947,10.212 L14.127,9.077 C12.878,8.573 11.963,7.972 11.379,7.275 C10.796,6.577 10.504,5.716 10.504,4.69 C10.504,3.295 10.986,2.165 11.951,1.299 C12.915,0.433 14.184,0 15.756,0 C16.469,0 17.219,0.089 18.005,0.265 C18.791,0.442 19.532,0.69 20.229,1.009 L20.229,2.295 C18.576,1.69 17.109,1.387 15.828,1.387 C14.58,1.387 13.624,1.669 12.96,2.232 C12.295,2.795 11.963,3.597 11.963,4.64 C11.963,5.228 12.063,5.703 12.267,6.064 C12.469,6.426 12.802,6.754 13.264,7.048 C13.726,7.342 14.386,7.657 15.245,7.993 L17.847,9.027 C19.014,9.498 19.865,10.074 20.399,10.754 L20.399,10.754 Z M26.353,11.759 L27.234,13.05 L23.969,17.996 L22.011,17.996 L26.353,11.759 Z M29.128,10.425 L31,13.187 L31,16.219 L27.189,10.557 L28.177,9.137 L31.871,3.669 L33.801,3.669 L29.128,10.425 Z M26.329,9.345 L22.445,3.669 L24.483,3.669 L27.357,7.924 L26.329,9.345 Z M35,17 L42.001,17 L42.001,16 L35,16 L35,17 Z M36,14 L41,14 L41,11 L36,11 L36,14 Z M43,14 L43,10 C43,9.448 42.553,9 42,9 L35,9 C34.447,9 34,9.448 34,10 L34,14 C33.447,14 33,14.448 33,15 L33,17 C33,18.103 33.897,19 35,19 L42,19 C43.103,19 44,18.103 44,17 L44,15 C44,14.448 43.553,14 43,14 L43,14 Z" id="Amazon-FSx-for-WFS_Icon_48_Squid"></path>
        </g>
    </g>
</svg>