<?xml version="1.0" encoding="UTF-8"?>
<svg width="64px" height="64px" viewBox="0 0 64 64" version="1.1" xmlns="http://www.w3.org/2000/svg" xmlns:xlink="http://www.w3.org/1999/xlink">
    <title>Icon-Architecture/48/Arch_Amazon-File-Cache_48</title>
    <g id="Icon-Architecture/48/Arch_Amazon-File-Cache_48" stroke="none" stroke-width="1" fill="none" fill-rule="evenodd">
        <g id="Icon-Architecture-BG/48/Storage" fill="#7AA116">
            <rect id="Rectangle" x="0" y="0" width="64" height="64"></rect>
        </g>
        <path d="M35.5,34 C35.5,34.828 34.828,35.5 34,35.5 C33.172,35.5 32.5,34.828 32.5,34 C32.5,33.172 33.172,32.5 34,32.5 C34.828,32.5 35.5,33.172 35.5,34 L35.5,34 Z M40,40.919 L38.874,39.793 C38.63,39.548 38.275,39.447 37.937,39.527 C37.6,39.606 37.328,39.855 37.219,40.184 L36.612,42 L31.388,42 L30.781,40.184 C30.672,39.855 30.4,39.606 30.062,39.527 C29.725,39.448 29.371,39.548 29.126,39.793 L28,40.919 L27.557,38.258 L29.8,35.267 C29.93,35.093 30,34.883 30,34.667 C30,29.505 32.719,25.86 34.002,24.427 C35.288,25.855 38,29.483 38,34.667 C38,34.883 38.07,35.093 38.2,35.267 L40.443,38.258 L40,40.919 Z M39.997,34.329 C39.85,26.875 34.873,22.436 34.658,22.248 C34.281,21.917 33.719,21.917 33.342,22.248 C33.127,22.436 28.15,26.875 28.003,34.329 L25.7,37.4 C25.536,37.619 25.469,37.895 25.514,38.165 L26.347,43.165 C26.408,43.534 26.671,43.838 27.027,43.952 C27.386,44.067 27.775,43.972 28.04,43.707 L29.396,42.351 L29.719,43.316 C29.854,43.725 30.236,44.0000872 30.667,44.0000872 L37.333,44.0000872 C37.764,44.0000872 38.146,43.725 38.281,43.316 L38.604,42.351 L39.96,43.707 C40.15,43.897 40.406,44.0000872 40.667,44.0000872 C40.77,44.0000872 40.872,43.984 40.973,43.952 C41.329,43.838 41.592,43.534 41.653,43.165 L42.486,38.165 C42.531,37.895 42.464,37.619 42.3,37.4 L39.997,34.329 Z M37,52 L39,52 L39,48 L37,48 L37,52 Z M29,52 L31,52 L31,48 L29,48 L29,52 Z M33,54 L35,54 L35,46 L33,46 L33,54 Z M48,17 L15,17 C14.447,17 14,17.448 14,18 L14,43 C14,43.551 13.552,44 13,44 C12.448,44 12,43.551 12,43 L12,12 L21.586,12 L24.293,14.707 C24.48,14.895 24.734,15 25,15 L48,15 L48,17 Z M53,17 L50,17 L50,14 C50,13.448 49.553,13 49,13 L25.414,13 L22.707,10.293 C22.52,10.105 22.266,10 22,10 L11,10 C10.447,10 10,10.448 10,11 L10,43 C10,44.654 11.346,46 13,46 L23,46 L23,44 L15.816,44 C15.928,43.686 16,43.352 16,43 L16,19 L52,19 L52,44 L45,44 L45,46 L53,46 C53.553,46 54,45.552 54,45 L54,18 C54,17.448 53.553,17 53,17 L53,17 Z" id="Fill-3" fill="#FFFFFF"></path>
    </g>
</svg>