<?xml version="1.0" encoding="UTF-8"?>
<svg width="64px" height="64px" viewBox="0 0 64 64" version="1.1" xmlns="http://www.w3.org/2000/svg" xmlns:xlink="http://www.w3.org/1999/xlink">
    <title>Icon-Architecture/48/Arch_Amazon-FSx-for-OpenZFS_48</title>
    <g id="Icon-Architecture/48/Arch_Amazon-FSx-for-OpenZFS_48" stroke="none" stroke-width="1" fill="none" fill-rule="evenodd">
        <g id="Icon-Architecture-BG/48/Storage" fill="#7AA116">
            <rect id="Rectangle" x="0" y="0" width="64" height="64"></rect>
        </g>
        <path d="M44,35.965 L44,33.985 L36,33.985 L36,35.985 L41.333,35.985 L36,41.985 L36,43.985 L44,43.985 L44,41.985 L38.682,41.985 L44,35.965 Z M25.603,27.733 L23.357,26.871 C22.631,26.597 22.063,26.337 21.671,26.097 C21.296,25.867 21.025,25.609 20.862,25.331 C20.7,25.053 20.62,24.679 20.62,24.219 C20.62,23.391 20.883,22.773 21.427,22.33 C21.969,21.885 22.771,21.661 23.809,21.661 C24.891,21.661 26.153,21.911 27.556,22.407 L27.754,22.477 L27.754,21.101 L27.666,21.062 C27.056,20.793 26.402,20.582 25.718,20.434 C25.034,20.286 24.37,20.21 23.746,20.21 C22.359,20.21 21.221,20.586 20.366,21.327 C19.503,22.074 19.064,23.061 19.064,24.261 C19.064,25.147 19.332,25.903 19.856,26.509 C20.374,27.105 21.191,27.623 22.286,28.05 L24.72,28.994 C25.537,29.307 26.131,29.662 26.491,30.048 C26.841,30.423 27.018,30.884 27.018,31.416 C27.018,32.314 26.697,33.003 26.035,33.524 C25.374,34.046 24.47,34.31 23.348,34.31 C22.138,34.31 20.793,34.046 19.347,33.523 L19.149,33.451 L19.149,34.824 L19.234,34.864 C20.466,35.459 21.885,35.761 23.451,35.761 C24.976,35.761 26.228,35.36 27.166,34.572 C28.113,33.776 28.594,32.721 28.594,31.437 C28.594,30.554 28.35,29.805 27.869,29.214 C27.393,28.63 26.631,28.132 25.603,27.733 L25.603,27.733 Z M28.855,35.482 L30.911,35.482 L33.773,31.302 L33.833,31.217 L32.893,29.89 L28.855,35.482 Z M10,35.404 L11.534,35.404 L11.534,28.648 L17.388,28.648 L17.388,27.24 L11.534,27.24 L11.534,21.975 L18.459,21.975 L18.459,20.567 L10,20.567 L10,35.404 Z M35.417,31.985 L37.541,31.985 L35.467,29.035 L39.608,23.263 L37.576,23.263 L34.346,27.875 L33.433,29.142 L35.417,31.985 Z M33.94,26.955 L31.355,23.263 L29.232,23.263 L32.866,28.384 L33.94,26.955 Z M46,35.985 L50,35.985 L50,33.985 L46,33.985 L46,35.985 Z M46,43.985 L50,43.985 L50,41.985 L46,41.985 L46,43.985 Z M46,39.985 L54,39.985 L54,37.985 L46,37.985 L46,39.985 Z" id="Fill-3" fill="#FFFFFF"></path>
    </g>
</svg>