<?xml version="1.0" encoding="UTF-8"?>
<svg width="64px" height="64px" viewBox="0 0 64 64" version="1.1" xmlns="http://www.w3.org/2000/svg" xmlns:xlink="http://www.w3.org/1999/xlink">
    <title>Icon-Architecture/48/Arch_Amazon-ECS-Anywhere_48</title>
    <g id="Icon-Architecture/48/Arch_Amazon-ECS-Anywhere_48" stroke="none" stroke-width="1" fill="none" fill-rule="evenodd">
        <g id="Icon-Architecture-BG/48/Containers" fill="#ED7100">
            <rect id="Rectangle" x="0" y="0" width="64" height="64"></rect>
        </g>
        <g id="Icon-Service/48/Amazon-ECS-Anywhere_48" transform="translate(12.000000, 10.000000)" fill="#FFFFFF">
            <path d="M38,28.6948647 L32.519,25.4764904 C32.824,24.3678163 33,23.2058212 33,22.0005657 C33,16.2016569 29.226,11.2780171 24.022,9.56973344 C24.015,9.56067894 24.007,9.55363654 24,9.54558809 L24,2.79293785 L38,11.3403926 L38,28.6948647 Z M19.247,41.838991 L2,31.8206818 L2,11.2951201 L16,2.78891363 L16,9.56168499 C10.784,11.2639323 7,16.1926024 7,22.0005657 C7,29.2119777 12.832,35.0792983 20,35.0792983 C23.275,35.0792983 26.262,33.8448672 28.551,31.8267181 L32.847,34.3126834 L19.247,41.838991 Z M25.029,20.9945094 L21,20.9945094 L21,10.9842487 C21.629,11.0415939 22.239,11.1593025 22.832,11.3192654 C24.115,13.2609542 24.895,17.0356776 25.029,20.9945094 L25.029,20.9945094 Z M26.997,20.9945094 C26.913,17.8737226 26.442,14.8293961 25.591,12.4862908 C28.551,14.2539318 30.623,17.3706944 30.949,20.9945094 L26.997,20.9945094 Z M21,23.0066221 L25.043,23.0066221 C24.959,26.8115272 24.257,30.5228691 22.81,32.6868963 C22.223,32.8438411 21.621,32.9595376 21,33.0158767 L21,23.0066221 Z M17.183,32.6848842 C15.782,30.663717 15.063,26.93326 15.003,23.0066221 L19,23.0066221 L19,33.0158767 C18.377,32.9595376 17.772,32.842835 17.183,32.6848842 L17.183,32.6848842 Z M13.007,23.0066221 C13.057,26.1183544 13.505,29.1445719 14.357,31.4826469 C11.425,29.7089695 9.375,26.6083038 9.051,23.0066221 L13.007,23.0066221 Z M13.029,20.9945094 L9.051,20.9945094 C9.383,17.3063068 11.521,14.1412535 14.565,12.3907155 C13.664,14.8132992 13.15,17.880765 13.029,20.9945094 L13.029,20.9945094 Z M19,20.9945094 L15.03,20.9945094 C15.187,17.2016769 15.948,13.5134743 17.296,11.2860656 C17.85,11.1442116 18.417,11.0375697 19,10.9842487 L19,20.9945094 Z M25.572,31.5259073 C26.441,29.1626809 26.912,26.1183544 26.996,23.0066221 L30.949,23.0066221 C30.622,26.6374795 28.543,29.7592723 25.572,31.5259073 L25.572,31.5259073 Z M39.519,9.91380472 L23.519,0.14600359 C23.209,-0.0431350047 22.823,-0.0481652864 22.51,0.128900632 C22.194,0.307978662 22,0.642995428 22,1.00618177 L22,9.09286273 C21.346,8.99024499 20.682,8.92183315 20,8.92183315 C19.318,8.92183315 18.654,8.99024499 18,9.09286273 L18,1.00618177 C18,0.642995428 17.806,0.308984719 17.491,0.129906688 C17.178,-0.0481652864 16.791,-0.0421289483 16.483,0.144997533 L0.483,9.86551401 C0.184,10.0476102 0,10.3745785 0,10.7266983 L0,32.4021824 C0,32.7613445 0.19,33.0933431 0.5,33.2734272 L18.735,43.8661945 C18.89,43.9547275 19.063,44 19.235,44 C19.401,44 19.567,43.9587517 19.718,43.875249 L35.368,35.2141099 C35.685,35.0390561 35.882,34.7060514 35.886,34.3428651 C35.889,33.9786727 35.697,33.6416438 35.385,33.4605537 L30.001,30.3447971 C30.735,29.4554433 31.344,28.4634717 31.826,27.4000702 L38.496,31.3156415 C38.651,31.4071926 38.826,31.4524652 39,31.4524652 C39.172,31.4524652 39.344,31.4081987 39.498,31.3186597 C39.809,31.1395816 40,30.806577 40,30.4464088 L40,10.7739829 C40,10.4218632 39.817,10.0959009 39.519,9.91380472 L39.519,9.91380472 Z" id="Fill-3"></path>
        </g>
    </g>
</svg>