<?xml version="1.0" encoding="UTF-8"?>
<svg width="64px" height="64px" viewBox="0 0 64 64" version="1.1" xmlns="http://www.w3.org/2000/svg" xmlns:xlink="http://www.w3.org/1999/xlink">
    <title>Icon-Architecture/48/Arch_Amazon-EKS-Anywhere_48</title>
    <g id="Icon-Architecture/48/Arch_Amazon-EKS-Anywhere_48" stroke="none" stroke-width="1" fill="none" fill-rule="evenodd">
        <g id="Icon-Architecture-BG/48/Containers" fill="#ED7100">
            <rect id="Rectangle" x="0" y="0" width="64" height="64"></rect>
        </g>
        <g id="Icon-Service/48/Amazon-EKS-Anywhere_48" transform="translate(10.000000, 10.000000)" fill="#FFFFFF">
            <path d="M29.998,34.0256158 L30.998,34.0256158 L30.998,33.0256158 L29.998,33.0256158 L29.998,34.0256158 Z M28.998,36.0256158 L31.998,36.0256158 C32.551,36.0256158 32.998,35.5776158 32.998,35.0256158 L32.998,32.0256158 C32.998,31.4736158 32.551,31.0256158 31.998,31.0256158 L28.998,31.0256158 C28.445,31.0256158 27.998,31.4736158 27.998,32.0256158 L27.998,35.0256158 C27.998,35.5776158 28.445,36.0256158 28.998,36.0256158 L28.998,36.0256158 Z M36.998,34.0256158 L37.998,34.0256158 L37.998,33.0256158 L36.998,33.0256158 L36.998,34.0256158 Z M35.998,36.0256158 L38.998,36.0256158 C39.551,36.0256158 39.998,35.5776158 39.998,35.0256158 L39.998,32.0256158 C39.998,31.4736158 39.551,31.0256158 38.998,31.0256158 L35.998,31.0256158 C35.445,31.0256158 34.998,31.4736158 34.998,32.0256158 L34.998,35.0256158 C34.998,35.5776158 35.445,36.0256158 35.998,36.0256158 L35.998,36.0256158 Z M29.998,26.0256158 L30.998,26.0256158 L30.998,25.0256158 L29.998,25.0256158 L29.998,26.0256158 Z M28.998,28.0256158 L31.998,28.0256158 C32.551,28.0256158 32.998,27.5776158 32.998,27.0256158 L32.998,24.0256158 C32.998,23.4736158 32.551,23.0256158 31.998,23.0256158 L28.998,23.0256158 C28.445,23.0256158 27.998,23.4736158 27.998,24.0256158 L27.998,27.0256158 C27.998,27.5776158 28.445,28.0256158 28.998,28.0256158 L28.998,28.0256158 Z M36.998,26.0256158 L37.998,26.0256158 L37.998,25.0256158 L36.998,25.0256158 L36.998,26.0256158 Z M35.998,28.0256158 L38.998,28.0256158 C39.551,28.0256158 39.998,27.5776158 39.998,27.0256158 L39.998,24.0256158 C39.998,23.4736158 39.551,23.0256158 38.998,23.0256158 L35.998,23.0256158 C35.445,23.0256158 34.998,23.4736158 34.998,24.0256158 L34.998,27.0256158 C34.998,27.5776158 35.445,28.0256158 35.998,28.0256158 L35.998,28.0256158 Z M25.998,42.0256158 L41.998,42.0256158 L41.998,21.0256158 L25.998,21.0256158 L25.998,42.0256158 Z M19,41.8286158 L2,31.4396158 L2,11.5546158 L16,2.80461578 L16,9.44561578 L8.47,14.1526158 C8.178,14.3356158 8,14.6556158 8,15.0006158 L8,28.0006158 C8,28.3516158 8.185,28.6766158 8.485,28.8576158 L18.485,34.8576158 C18.79,35.0396158 19.168,35.0486158 19.479,34.8786158 L23.998,32.4136158 L23.998,38.7746158 L19,41.8286158 Z M30.485,14.1266158 L22,9.41161578 L22,2.74861578 L37,11.5716158 L37,19.0256158 L31,19.0256158 L31,15.0006158 C31,14.6366158 30.803,14.3026158 30.485,14.1266158 L30.485,14.1266158 Z M42.998,19.0256158 L39,19.0256158 L39,11.0006158 C39,10.6456158 38.813,10.3186158 38.507,10.1386158 L21.507,0.138615777 C21.199,-0.0433842231 20.816,-0.0453842231 20.504,0.132615777 C20.193,0.310615777 20,0.641615777 20,1.00061578 L20,10.0006158 C20,10.3636158 20.197,10.6976158 20.515,10.8746158 L29,15.5886158 L29,19.0256158 L24.998,19.0256158 C24.445,19.0256158 23.998,19.4736158 23.998,20.0256158 L23.998,26.8036158 L19.651,21.3416158 L24.709,15.0006158 L22.463,15.0006158 L18,20.2416158 L18,15.0006158 L16,15.0006158 L16,28.0006158 L18,28.0006158 L18,22.0006158 L22.752,28.0216158 L23.998,28.0216158 L23.998,30.1356158 L19.024,32.8486158 L10,27.4336158 L10,15.5546158 L17.53,10.8486158 C17.822,10.6656158 18,10.3446158 18,10.0006158 L18,1.00061578 C18,0.636615777 17.803,0.301615777 17.485,0.125615777 C17.167,-0.0513842231 16.778,-0.0403842231 16.47,0.152615777 L0.47,10.1526158 C0.178,10.3356158 0,10.6556158 0,11.0006158 L0,32.0006158 C0,32.3486158 0.182,32.6716158 0.479,32.8536158 L18.479,43.8536158 C18.639,43.9516158 18.819,44.0006158 19,44.0006158 C19.181,44.0006158 19.361,43.9516158 19.522,43.8536158 L23.998,41.1186158 L23.998,43.0256158 C23.998,43.5776158 24.445,44.0256158 24.998,44.0256158 L42.998,44.0256158 C43.551,44.0256158 43.998,43.5776158 43.998,43.0256158 L43.998,20.0256158 C43.998,19.4736158 43.551,19.0256158 42.998,19.0256158 L42.998,19.0256158 Z" id="Fill-3"></path>
        </g>
    </g>
</svg>