<?xml version="1.0" encoding="UTF-8"?>
<svg width="64px" height="64px" viewBox="0 0 64 64" version="1.1" xmlns="http://www.w3.org/2000/svg" xmlns:xlink="http://www.w3.org/1999/xlink">
    <title>Icon-Architecture/48/Arch_Amazon-EKS-Cloud_48</title>
    <g id="Icon-Architecture/48/Arch_Amazon-EKS-Cloud_48" stroke="none" stroke-width="1" fill="none" fill-rule="evenodd">
        <g id="Icon-Architecture-BG/48/Containers" fill="#ED7100">
            <rect id="Rectangle" x="0" y="0" width="64" height="64"></rect>
        </g>
        <g id="Icon-Service/48/Amazon-EKS-Cloud_48" transform="translate(10.000000, 10.000000)" fill="#FFFFFF">
            <path d="M38.812,37.8652228 L22.97,37.8482228 C21.207,37.8462228 19.683,36.5482228 19.502,34.8912228 C19.485,34.7322228 19.475,34.5662228 19.475,34.3912228 C19.475,32.1712228 20.89,31.3442228 22.077,31.0422228 C22.563,30.9182228 22.882,30.4522228 22.823,29.9542228 C22.797,29.7402228 22.784,29.5222228 22.784,29.3012228 C22.784,27.3812228 24.155,25.2392228 25.84,24.5252228 C26.616,24.1962228 27.333,24.0662228 27.983,24.0662228 C29.833,24.0662228 31.139,25.1252228 31.709,25.6982228 C32.335,26.3252228 32.845,27.1652228 33.184,28.1272228 C33.307,28.4762228 33.614,28.7292228 33.979,28.7832228 C34.348,28.8402228 34.711,28.6862228 34.932,28.3892228 C35.341,27.8362228 35.974,27.6032228 36.578,27.7792228 C37.326,27.9982228 37.825,28.7942228 37.924,29.9172228 C37.885,30.4272228 38.24,30.8902228 38.752,30.9782228 C39.695,31.1402228 41.886,31.8012228 41.886,34.4292228 C41.886,37.4882228 39.048,37.8392228 38.812,37.8652228 L38.812,37.8652228 Z M19,41.8282228 L2,31.4392228 L2,11.5542228 L16,2.80422277 L16,9.44622277 L8.47,14.1522228 C8.178,14.3352228 8,14.6552228 8,15.0002228 L8,28.0002228 C8,28.3512228 8.185,28.6772228 8.486,28.8572228 L17.484,34.2562228 C17.483,34.3022228 17.475,34.3442228 17.475,34.3912228 C17.475,34.6422228 17.489,34.8822228 17.514,35.1102228 C17.786,37.6002228 19.811,39.5072228 22.333,39.7912228 L19,41.8282228 Z M30.486,14.1262228 L22,9.41122277 L22,2.74822277 L37,11.5722228 L37,25.8342228 C36.14,25.6202228 35.257,25.7392228 34.5,26.1592228 C34.123,25.4512228 33.663,24.8242228 33.125,24.2852228 C32.481,23.6382228 31.76,23.1472228 31,22.7812228 L31,15.0002228 C31,14.6362228 30.803,14.3022228 30.486,14.1262228 L30.486,14.1262228 Z M39.841,29.1792228 C39.7,28.3982228 39.409,27.7222228 39,27.1752228 L39,11.0002228 C39,10.6452228 38.813,10.3182228 38.507,10.1382228 L21.507,0.138222768 C21.2,-0.0437772322 20.816,-0.0457772322 20.504,0.132222768 C20.193,0.310222768 20,0.641222768 20,1.00022277 L20,10.0002228 C20,10.3632228 20.198,10.6982228 20.515,10.8742228 L29,15.5882228 L29,22.1642228 C27.714,21.9732228 26.372,22.1282228 25.061,22.6832228 C24.041,23.1152228 23.138,23.8742228 22.418,24.8002228 L19.651,21.3402228 L24.708,15.0002228 L22.463,15.0002228 L18,20.2412228 L18,15.0002228 L16,15.0002228 L16,28.0002228 L18,28.0002228 L18,22.0002228 L21.454,26.3772228 C21.031,27.3052228 20.784,28.3092228 20.784,29.3012228 L20.784,29.3622228 C19.411,29.9102228 18.423,30.8952228 17.901,32.1742228 L10,27.4332228 L10,15.5542228 L17.531,10.8482228 C17.823,10.6652228 18,10.3442228 18,10.0002228 L18,1.00022277 C18,0.636222768 17.803,0.302222768 17.485,0.125222768 C17.168,-0.0507772322 16.78,-0.0407772322 16.47,0.152222768 L0.47,10.1522228 C0.178,10.3352228 0,10.6552228 0,11.0002228 L0,32.0002228 C0,32.3482228 0.182,32.6712228 0.479,32.8532228 L18.479,43.8532228 C18.639,43.9512228 18.82,44.0002228 19,44.0002228 C19.181,44.0002228 19.362,43.9512228 19.522,43.8532228 L26.071,39.8512228 L38.892,39.8622228 C40.62,39.7212228 43.886,38.4052228 43.886,34.4292228 C43.886,31.4042228 41.914,29.7782228 39.841,29.1792228 L39.841,29.1792228 Z" id="Fill-4"></path>
        </g>
    </g>
</svg>