<?xml version="1.0" encoding="UTF-8"?>
<svg width="64px" height="64px" viewBox="0 0 64 64" version="1.1" xmlns="http://www.w3.org/2000/svg" xmlns:xlink="http://www.w3.org/1999/xlink">
    <title>Icon-Architecture/48/Arch_Red-Hat-OpenShift-Service-on-AWS_48</title>
    <g id="Icon-Architecture/48/Arch_Red-Hat-OpenShift-Service-on-AWS_48" stroke="none" stroke-width="1" fill="none" fill-rule="evenodd">
        <g id="Icon-Architecture-BG/48/Containers" fill="#ED7100">
            <rect id="Rectangle" x="0" y="0" width="64" height="64"></rect>
        </g>
        <g id="Icon-Service/48/Red-Hat-OpenShift-Service-on-AWS_48" transform="translate(9.000000, 10.000000)" fill="#FFFFFF">
            <path d="M38.7073636,12.5585139 C38.4173636,12.1025139 38.1053636,11.6675139 37.7723636,11.2545139 L42.6093636,9.24551392 C42.8883636,9.68351392 43.2493636,10.2635139 43.5613636,10.7925139 L38.7073636,12.5585139 Z M42.3423636,21.9105139 L43.1993636,21.5975139 C43.2303636,24.4515139 42.6193636,27.2915139 41.4083636,29.8855139 C36.9213636,39.5055139 25.4443636,43.6825139 15.8243636,39.1985139 C13.2283636,37.9875139 10.9343636,36.2045139 9.12436359,33.9995139 L11.5703636,33.1095139 C11.5753636,33.1075139 11.5793636,33.1045139 11.5843636,33.1025139 L14.3173636,32.1075139 C15.3973636,33.1185139 16.6263636,33.9485139 17.9773636,34.5795139 C21.3983636,36.1755139 25.2413636,36.3405139 28.8003636,35.0465139 C32.3563636,33.7515139 35.1933636,31.1535139 36.7893636,27.7315139 C37.4193636,26.3835139 37.8133636,24.9585139 37.9913636,23.4915139 L42.3423636,21.9105139 Z M2.21036359,28.5075139 L7.01236359,26.7595139 C7.51236359,28.5725139 8.36136359,30.2565139 9.51636359,31.7275139 L4.55036359,33.5355139 C3.53136359,31.9775139 2.74736359,30.2925139 2.21036359,28.5075139 L2.21036359,28.5075139 Z M12.6783636,20.6005139 C12.6933636,21.0615139 12.7323636,21.5255139 12.7943636,21.9895139 L7.91436359,23.7655139 C7.82436359,23.3085139 7.75336359,22.8565139 7.69836359,22.4125139 L12.6783636,20.6005139 Z M31.7443636,15.6295139 C31.4693636,15.7295139 31.2513636,15.9455139 31.1483636,16.2195139 C31.0473636,16.4945139 31.0703636,16.7995139 31.2133636,17.0555139 C32.3873636,19.1615139 32.9133636,21.5285139 32.7353636,23.9005139 C32.7103636,24.2395139 32.8573636,24.5675139 33.1293636,24.7725139 C33.3053636,24.9065139 33.5183636,24.9755139 33.7323636,24.9755139 C33.8483636,24.9755139 33.9633636,24.9555139 34.0743636,24.9155139 L35.8383636,24.2745139 C35.6493636,25.1705139 35.3693636,26.0455139 34.9773636,26.8855139 C33.6063636,29.8245139 31.1703636,32.0555139 28.1153636,33.1675139 C25.0623636,34.2795139 21.7623636,34.1375139 18.8223636,32.7665139 C17.4933636,32.1465139 16.3033636,31.3015139 15.2843636,30.2545139 C15.0083636,29.9725139 14.5943636,29.8775139 14.2263636,30.0125139 L11.5183636,30.9985139 C10.1643636,29.4545139 9.22836359,27.5985139 8.78636359,25.5765139 L14.2553636,23.5855139 C14.7173636,23.4175139 14.9883636,22.9385139 14.8953636,22.4565139 C14.6873636,21.3795139 14.6233636,20.2965139 14.7033636,19.2375139 C14.7283636,18.8985139 14.5813636,18.5695139 14.3113636,18.3645139 C14.0393636,18.1595139 13.6843636,18.1075139 13.3643636,18.2215139 L11.9933636,18.7205139 C12.1823636,17.8175139 12.4583636,16.9425139 12.8443636,16.1135139 C15.6773636,10.0385139 22.9243636,7.40151392 29.0003636,10.2335139 C30.3053636,10.8425139 31.4933636,11.6895139 32.5303636,12.7505139 C32.8163636,13.0435139 33.2523636,13.1325139 33.6293636,12.9755139 L35.8333636,12.0595139 C36.2783636,12.5585139 36.6743636,13.1165139 37.0413636,13.7005139 L31.7443636,15.6295139 Z M34.7623636,22.5375139 C34.7003636,20.6725139 34.2693636,18.8375139 33.4863636,17.1225139 L38.2873636,15.3745139 C39.0243636,17.0875139 39.5073636,18.8825139 39.7273636,20.7325139 L34.7623636,22.5375139 Z M4.61636359,21.4055139 C4.59036359,18.5505139 5.20336359,15.7085139 6.41336359,13.1145139 C10.9003636,3.49351392 22.3763636,-0.680486081 31.9973636,3.80251392 C34.5023636,4.97151392 36.7353636,6.68251392 38.5173636,8.77951392 L33.4723636,10.8745139 C32.3853636,9.86251392 31.1683636,9.03751392 29.8463636,8.42051392 C22.7693636,5.12151392 14.3303636,8.19451392 11.0313636,15.2685139 C10.4123636,16.5985139 10.0213636,18.0225139 9.84136359,19.5035139 L4.61636359,21.4055139 Z M45.9003636,10.8975139 C45.3853636,9.83151392 43.9003636,7.55151392 43.8383636,7.45451392 C43.5753636,7.05051392 43.0613636,6.89351392 42.6163636,7.07751392 L40.4393636,7.98051392 C38.4103636,5.43951392 35.8003636,3.37051392 32.8433636,1.98951392 C22.2183636,-2.96248608 9.55336359,1.65051392 4.60136359,12.2685139 C3.05836359,15.5775139 2.39436359,19.2495139 2.68136359,22.8895139 C2.70536359,23.2015139 2.87436359,23.4825139 3.13736359,23.6525139 C3.39836359,23.8215139 3.72836359,23.8565139 4.01936359,23.7505139 L5.77436359,23.1125139 C5.86136359,23.7175139 5.98536359,24.3325139 6.12936359,24.9525139 L0.658363592,26.9445139 C0.176363592,27.1195139 -0.0946364076,27.6305139 0.0303635924,28.1285139 C0.685363592,30.7245139 1.80136359,33.1435139 3.34736359,35.3195139 C3.53936359,35.5895139 3.84636359,35.7405139 4.16236359,35.7405139 C4.27636359,35.7405139 4.39236359,35.7205139 4.50436359,35.6805139 L7.15336359,34.7165139 C9.21536359,37.4035139 11.9013636,39.5755139 14.9783636,41.0115139 C17.8753636,42.3615139 20.9233636,43.0005139 23.9263636,43.0005139 C31.9353636,42.9995139 39.6183636,38.4545139 43.2213636,30.7315139 C44.7653636,27.4235139 45.4263636,23.7505139 45.1333636,20.1125139 C45.1073636,19.8015139 44.9383636,19.5195139 44.6763636,19.3505139 C44.4143636,19.1835139 44.0853636,19.1465139 43.7943636,19.2535139 L41.6583636,20.0305139 L41.6583636,20.0305139 L41.6523636,20.0325139 C41.3703636,18.0265139 40.7913636,16.0865139 39.9543636,14.2335139 L45.3423636,12.2735139 C45.6073636,12.1765139 45.8203636,11.9715139 45.9273636,11.7095139 C46.0333636,11.4475139 46.0233636,11.1525139 45.9003636,10.8975139 L45.9003636,10.8975139 Z" id="Fill-5"></path>
        </g>
    </g>
</svg>