<?xml version="1.0" encoding="UTF-8"?>
<svg width="64px" height="64px" viewBox="0 0 64 64" version="1.1" xmlns="http://www.w3.org/2000/svg" xmlns:xlink="http://www.w3.org/1999/xlink">
    <title>Icon-Architecture/48/Arch_Amazon-EKS-Distro_48</title>
    <g id="Icon-Architecture/48/Arch_Amazon-EKS-Distro_48" stroke="none" stroke-width="1" fill="none" fill-rule="evenodd">
        <g id="Icon-Architecture-BG/48/Containers" fill="#ED7100">
            <rect id="Rectangle" x="0" y="0" width="64" height="64"></rect>
        </g>
        <g id="Icon-Service/48/Amazon-EKS-Distro_48" transform="translate(10.000000, 10.000000)" fill="#FFFFFF">
            <path d="M31.441,34.9946158 C29.511,34.9946158 27.941,33.4246158 27.941,31.4946158 C27.941,29.5646158 29.511,27.9946158 31.441,27.9946158 C33.371,27.9946158 34.941,29.5646158 34.941,31.4946158 C34.941,33.4246158 33.371,34.9946158 31.441,34.9946158 L31.441,34.9946158 Z M31.441,25.9946158 C28.409,25.9946158 25.941,28.4616158 25.941,31.4946158 C25.941,34.5276158 28.409,36.9946158 31.441,36.9946158 C34.473,36.9946158 36.941,34.5276158 36.941,31.4946158 C36.941,28.4616158 34.473,25.9946158 31.441,25.9946158 L31.441,25.9946158 Z M41.941,32.9946158 L40.502,32.9946158 C40.048,32.9946158 39.652,33.2986158 39.536,33.7366158 C39.35,34.4326158 39.068,35.1046158 38.697,35.7346158 C38.465,36.1296158 38.531,36.6306158 38.856,36.9526158 L39.865,37.9516158 L37.937,39.8616158 L36.915,38.8486158 C36.594,38.5326158 36.101,38.4696158 35.712,38.6926158 C35.075,39.0586158 34.394,39.3386158 33.687,39.5246158 C33.248,39.6396158 32.941,40.0366158 32.941,40.4916158 L32.941,41.9946158 L29.941,41.9946158 L29.941,40.5556158 C29.941,40.0966158 29.629,39.6966158 29.184,39.5846158 C28.432,39.3966158 27.707,39.1116158 27.028,38.7376158 C26.648,38.5266158 26.174,38.5886158 25.858,38.8876158 L24.723,39.9616158 L22.642,37.9906158 L23.698,36.9896158 C24.042,36.6646158 24.11,36.1436158 23.863,35.7406158 C23.472,35.1036158 23.174,34.4266158 22.979,33.7256158 C22.859,33.2936158 22.465,32.9946158 22.016,32.9946158 L20.941,32.9946158 L20.941,30.1066158 C21.102,30.1196158 21.273,30.1446158 21.352,30.1566158 C21.526,30.1826158 21.674,30.2026158 21.781,30.1946158 L22.425,30.1656158 C22.864,30.1466158 23.238,29.8436158 23.348,29.4176158 C23.536,28.6976158 23.819,28.0026158 24.191,27.3506158 C24.413,26.9616158 24.35,26.4736158 24.037,26.1536158 L22.997,25.0946158 L24.948,23.1066158 L25.956,24.1396158 C26.278,24.4706158 26.786,24.5366158 27.181,24.3016158 C27.818,23.9236158 28.498,23.6366158 29.201,23.4466158 C29.637,23.3286158 29.941,22.9326158 29.941,22.4806158 L29.941,20.9946158 L32.941,20.9946158 L32.941,22.4336158 C32.941,22.8876158 33.247,23.2846158 33.685,23.4006158 C34.39,23.5876158 35.071,23.8696158 35.708,24.2406158 C36.099,24.4686158 36.596,24.4046158 36.918,24.0826158 L37.937,23.0636158 L39.872,24.9986158 L38.852,26.0186158 C38.531,26.3396158 38.466,26.8366158 38.695,27.2286158 C39.066,27.8666158 39.349,28.5466158 39.535,29.2506158 C39.651,29.6886158 40.047,29.9946158 40.502,29.9946158 L41.941,29.9946158 L41.941,32.9946158 Z M19,41.8286158 L2,31.4396158 L2,11.5546158 L16,2.80461578 L16,9.44661578 L8.469,14.1526158 C8.177,14.3356158 8,14.6556158 8,15.0006158 L8,28.0006158 C8,28.3516158 8.184,28.6776158 8.485,28.8576158 L18.485,34.8576158 C18.789,35.0396158 19.167,35.0476158 19.478,34.8786158 L19.658,34.7806158 C19.878,34.9136158 20.134,34.9946158 20.411,34.9946158 L21.289,34.9946158 C21.423,35.3616158 21.58,35.7216158 21.758,36.0726158 L20.862,36.9226158 C20.569,37.1986158 20.401,37.5876158 20.401,37.9906158 C20.401,38.3926158 20.569,38.7816158 20.861,39.0576158 L21.909,40.0506158 L19,41.8286158 Z M22,9.41161578 L22,2.74861578 L37,11.5726158 L37,21.2066158 C36.967,21.2336158 36.927,21.2446158 36.897,21.2746158 L36.026,22.1456158 C35.672,21.9746158 35.31,21.8246158 34.941,21.6956158 L34.941,20.4646158 C34.941,19.6546158 34.282,18.9946158 33.471,18.9946158 L31,18.9946158 L31,15.0006158 C31,14.6376158 30.802,14.3026158 30.485,14.1266158 L22,9.41161578 Z M42.471,27.9946158 L41.24,27.9946158 C41.111,27.6256158 40.961,27.2636158 40.79,26.9096158 L41.661,26.0386158 C42.234,25.4656158 42.234,24.5326158 41.661,23.9596158 L39,21.2986158 L39,11.0006158 C39,10.6456158 38.812,10.3186158 38.506,10.1386158 L21.506,0.138615777 C21.199,-0.0423842231 20.815,-0.0453842231 20.503,0.132615777 C20.192,0.310615777 20,0.641615777 20,1.00061578 L20,10.0006158 C20,10.3636158 20.197,10.6986158 20.514,10.8746158 L29,15.5886158 L29,19.0606158 C28.39,19.2396158 27.941,19.7976158 27.941,20.4646158 L27.941,21.7456158 C27.573,21.8766158 27.212,22.0286158 26.86,22.2026158 L26.305,21.6346158 C26.047,21.2406158 25.649,20.9806158 25.189,20.9126158 C24.708,20.8406158 24.219,20.9946158 23.897,21.3216158 L21.545,23.7196158 L19.65,21.3406158 L24.708,15.0006158 L22.462,15.0006158 L18,20.2416158 L18,15.0006158 L16,15.0006158 L16,28.0006158 L18,28.0006158 L18,22.0006158 L20.962,25.7546158 C21.029,25.8846158 21.097,26.0146158 21.205,26.1246158 L21.458,26.3826158 L22.056,27.1416158 C21.899,27.4796158 21.753,27.8236158 21.634,28.1766158 C21.056,28.0916158 20.098,27.9546158 19.444,28.5196158 C19.12,28.7996158 18.941,29.2016158 18.941,29.6496158 L18.941,32.7996158 L10,27.4336158 L10,15.5546158 L17.53,10.8486158 C17.822,10.6656158 18,10.3456158 18,10.0006158 L18,1.00061578 C18,0.636615777 17.802,0.302615777 17.484,0.125615777 C17.167,-0.0513842231 16.779,-0.0403842231 16.469,0.152615777 L0.469,10.1526158 C0.177,10.3356158 0,10.6556158 0,11.0006158 L0,32.0006158 C0,32.3486158 0.181,32.6716158 0.478,32.8536158 L18.478,43.8536158 C18.638,43.9516158 18.819,44.0006158 19,44.0006158 C19.18,44.0006158 19.361,43.9516158 19.521,43.8536158 L23.413,41.4756158 L23.712,41.7596158 C24.282,42.2976158 25.17,42.2956158 25.734,41.7596158 L26.721,40.8236158 C27.118,41.0086158 27.525,41.1696158 27.941,41.3066158 L27.941,42.5246158 C27.941,43.3346158 28.6,43.9946158 29.411,43.9946158 L33.471,43.9946158 C34.282,43.9946158 34.941,43.3346158 34.941,42.5246158 L34.941,41.2326158 C35.311,41.1046158 35.673,40.9546158 36.028,40.7856158 L36.902,41.6516158 C37.471,42.2166158 38.4,42.2176158 38.971,41.6516158 L41.653,38.9956158 C41.933,38.7176158 42.087,38.3466158 42.087,37.9516158 C42.087,37.5566158 41.933,37.1856158 41.652,36.9076158 L40.793,36.0566158 C40.962,35.7096158 41.111,35.3556158 41.238,34.9946158 L42.471,34.9946158 C43.282,34.9946158 43.941,34.3346158 43.941,33.5246158 L43.941,29.4646158 C43.941,28.6546158 43.282,27.9946158 42.471,27.9946158 L42.471,27.9946158 Z" id="Fill-4"></path>
        </g>
    </g>
</svg>