<?xml version="1.0" encoding="UTF-8"?>
<svg width="24px" height="24px" viewBox="0 0 24 24" version="1.1" xmlns="http://www.w3.org/2000/svg" xmlns:xlink="http://www.w3.org/1999/xlink">
    <title>Icon-Architecture/16/Arch_AWS-Marketplace_Light_16</title>
    <g id="Icon-Architecture/16/Arch_AWS-Marketplace_Light_16" stroke="none" stroke-width="1" fill="none" fill-rule="evenodd">
        <rect id="Rectangle" fill="#232F3E" x="0" y="0" width="24" height="24"></rect>
        <g id="Icon-Service/16/AWS-Marketplace_16" transform="translate(5.000000, 5.500000)" fill="#FFFFFF">
            <path d="M15.955,1.52776119 L15.955,2.52776119 L12.918,2.52776119 L11.95,9.08576119 C11.913,9.33076119 11.703,9.51176119 11.455,9.51176119 L1.773,9.51176119 C1.545,9.51176119 1.346,9.35776119 1.289,9.13676119 L-8.8817842e-16,4.12276119 L0.969,3.87376119 L2.161,8.51176119 L11.023,8.51176119 L11.991,1.95476119 C12.028,1.70976119 12.238,1.52776119 12.486,1.52776119 L15.955,1.52776119 Z M8.955,12.0067612 C8.68,12.0067612 8.455,11.7817612 8.455,11.5067612 C8.455,11.2307612 8.68,11.0067612 8.955,11.0067612 C9.23,11.0067612 9.455,11.2307612 9.455,11.5067612 C9.455,11.7817612 9.23,12.0067612 8.955,12.0067612 L8.955,12.0067612 Z M8.955,10.0067612 C8.128,10.0067612 7.455,10.6787612 7.455,11.5067612 C7.455,12.3337612 8.128,13.0067612 8.955,13.0067612 C9.782,13.0067612 10.455,12.3337612 10.455,11.5067612 C10.455,10.6787612 9.782,10.0067612 8.955,10.0067612 L8.955,10.0067612 Z M3.955,12.0067612 C3.68,12.0067612 3.455,11.7817612 3.455,11.5067612 C3.455,11.2307612 3.68,11.0067612 3.955,11.0067612 C4.23,11.0067612 4.455,11.2307612 4.455,11.5067612 C4.455,11.7817612 4.23,12.0067612 3.955,12.0067612 L3.955,12.0067612 Z M3.955,10.0067612 C3.128,10.0067612 2.455,10.6787612 2.455,11.5067612 C2.455,12.3337612 3.128,13.0067612 3.955,13.0067612 C4.782,13.0067612 5.455,12.3337612 5.455,11.5067612 C5.455,10.6787612 4.782,10.0067612 3.955,10.0067612 L3.955,10.0067612 Z M6.476,1.05576119 L8.166,1.89176119 L6.476,2.56976119 L4.722,1.89176119 L6.476,1.05576119 Z M6.98,5.73176119 L6.98,3.44576119 L8.89,2.67876119 L8.89,4.84276119 L6.98,5.73176119 Z M3.958,2.66876119 L5.98,3.45076119 L5.98,5.74376119 L3.958,4.83776119 L3.958,2.66876119 Z M3.254,5.61776119 L6.276,6.97176119 C6.341,7.00176119 6.411,7.01576119 6.48,7.01576119 C6.553,7.01576119 6.625,7.00076119 6.691,6.96876119 L9.601,5.61476119 C9.777,5.53276119 9.89,5.35576119 9.89,5.16176119 L9.89,1.93876119 C9.89,1.74876119 9.782,1.57476119 9.611,1.49076119 L6.702,0.051761194 C6.563,-0.016238806 6.404,-0.017238806 6.266,0.048761194 L3.243,1.48676119 C3.069,1.56976119 2.958,1.74576119 2.958,1.93876119 L2.958,5.16176119 C2.958,5.35876119 3.073,5.53676119 3.254,5.61776119 L3.254,5.61776119 Z" id="Fill-8"></path>
        </g>
    </g>
</svg>